<svg width="80" height="48" viewBox="0 0 80 48" fill="none" xmlns="http://www.w3.org/2000/svg">
<path fill-rule="evenodd" clip-rule="evenodd" d="M18.7017 0.299002C19.2465 1.16215 20.925 3.82186 21.636 7.00822C22.4426 10.583 22.4195 12.7702 22.0739 15.2749C21.4401 19.7669 19.4468 23.2241 18.5711 24.3765C17.9719 23.6004 17.0616 21.9894 16.4509 20.5078C16.4509 20.5078 15.2987 17.662 14.9991 14.8869C14.6995 12.1235 14.8263 9.31302 15.7135 6.13805C16.5316 3.30408 18.1217 0.740585 18.5595 0.0703125C18.5888 0.120038 18.6373 0.196967 18.7017 0.299002ZM17.4995 19.0731C17.5571 21.2956 18.1678 22.7302 18.5595 23.4828C18.9744 22.7185 19.6657 21.0369 19.5966 18.885C19.5159 16.6978 18.79 15.0868 18.5711 14.7105C18.3291 15.0868 17.488 16.933 17.4995 19.0731ZM21.0138 16.7331C21.2212 15.8629 21.371 14.4283 21.4056 13.0642C21.4401 11.7119 21.3019 9.39534 20.6566 6.99647C19.9998 4.58583 18.7324 2.28104 18.548 1.98706C18.3637 2.28104 17.3612 4.13899 16.474 7.05526C16.2435 7.92544 15.8172 9.83043 15.7481 11.6766C15.6674 13.9109 15.967 16.1451 16.0822 16.7683C16.0822 16.0275 16.0938 13.5581 16.5431 11.512C16.9925 9.47765 17.8567 7.11406 18.548 5.91462C19.297 7.17285 20.2418 9.90098 20.576 11.5237C20.9101 13.17 21.083 15.2514 21.0138 16.7331ZM30.0009 25.2107H25.0348V38.5221H27.6388V26.8688H30.0009V25.2107ZM33.39 26.8688L32.9406 33.5244H33.9892L33.5398 26.8688H33.39ZM32.618 38.5221H30.06L31.4197 25.2107H35.5216L36.8813 38.5221H34.3348L34.0929 34.9826H32.86L32.618 38.5221ZM40.6138 33.8655V36.3702C40.6138 36.7112 40.8673 36.8053 41.017 36.8053C41.259 36.8053 41.4319 36.5936 41.4319 36.3702V33.2657C41.4319 32.8542 41.3627 32.3956 40.3833 32.3956H39.3233V30.9374H40.4294C41.1668 30.9374 41.4319 30.761 41.4319 29.9497V27.3038C41.4319 27.0804 41.259 26.8688 41.017 26.8688C40.8673 26.8688 40.6138 26.9511 40.6138 27.3038V29.4793H38.0097V27.5861C38.0097 26.6571 38.1134 25.2107 39.9455 25.2107H42.1001C43.9322 25.2107 44.0474 26.6571 44.0474 27.5861V29.7145C44.0474 31.1609 43.0565 31.5607 42.273 31.5254V31.6547C44.0244 31.6077 44.0474 32.9835 44.0474 33.4539V36.135C44.0474 37.0757 43.9322 38.5103 42.1001 38.5103H39.9455C38.1134 38.5103 38.0097 37.0757 38.0097 36.135V33.8537H40.6138V33.8655ZM51.7918 25.2107H45.7541V38.5221H48.3697V26.8688H49.1878V38.5221H51.7918V25.2107ZM56.1113 32.5367V26.8688H56.457C56.7335 26.8688 56.9409 27.1039 56.9409 27.539V31.8664C56.9409 32.2897 56.7335 32.5367 56.457 32.5367H56.1113ZM53.5072 38.5221H56.1113V33.9948H57.6092C59.4298 33.9948 59.545 32.5602 59.545 31.6195V27.5861C59.545 26.6571 59.4298 25.2107 57.6092 25.2107H53.5072V38.5221ZM64.2802 36.8053C64.5222 36.8053 64.6951 36.5936 64.6951 36.3702V27.3038C64.6951 27.0804 64.5222 26.8688 64.2802 26.8688C64.1305 26.8688 63.877 26.9511 63.877 27.3038V36.3702C63.877 36.7112 64.1305 36.8053 64.2802 36.8053ZM63.1971 38.5221C61.3766 38.5221 61.2614 37.0875 61.2614 36.1467V27.5861C61.2614 26.6571 61.3766 25.2107 63.1971 25.2107H65.3633C67.1839 25.2107 67.2991 26.6571 67.2991 27.5861V36.1467C67.2991 37.0875 67.1839 38.5221 65.3633 38.5221H63.1971ZM75.7916 25.2107H79.1908V38.5221H76.5867V30.1731H76.4945L75.1349 38.5221H73.0493L71.7127 30.1731H71.6205V38.5221H69.0165V25.2107H72.4041L74.1094 34.571L75.7916 25.2107ZM19.9193 25.2137H13.847V29.3764L13.8585 29.3647C15.2873 27.9065 17.6148 27.9065 19.0436 29.3647C20.4724 30.8111 20.4724 33.1864 19.0436 34.6445L19.0206 34.6681C19.0135 34.6681 19.0107 34.6726 19.007 34.6788C19.0046 34.6826 19.0019 34.6871 18.9975 34.6916C17.5688 36.1262 15.7021 36.8553 13.8355 36.8553C11.9573 36.8553 10.0907 36.138 8.66194 34.6681C6.13853 32.1046 5.83895 28.1182 7.76319 25.2137C8.01668 24.8256 8.31627 24.4493 8.66194 24.0966C10.0907 22.6384 11.9689 21.9094 13.8355 21.9094V11.9141C6.64552 11.9258 0.815186 17.8642 0.815186 25.2137C0.815186 32.5632 6.64552 38.5133 13.847 38.5133C17.6033 38.5133 20.9794 36.8905 23.3645 34.3035V25.2137H19.9193ZM0.817131 40.7557H79.1925V47.9876H0.817131V40.7557ZM5.06891 43.3423V42.5779H3.1101V46.3761H4.02037V43.3423H5.06891ZM5.67957 43.5651C5.67957 43.2476 5.77175 43.0006 5.96763 42.8125C6.17503 42.6008 6.48613 42.495 6.90094 42.495C7.30422 42.495 7.60381 42.6008 7.82273 42.8125C8.00709 43.0006 8.11079 43.2593 8.11079 43.5768V45.2819C8.11079 45.67 8.01861 45.9639 7.82273 46.1638C7.62685 46.3637 7.32727 46.4578 6.91246 46.4578C6.50918 46.4578 6.19807 46.352 6.00219 46.1521C5.80631 45.9522 5.70261 45.6582 5.70261 45.2701V43.5651H5.67957ZM6.8779 43.177C6.79724 43.177 6.71658 43.2005 6.65897 43.2593C6.60136 43.3181 6.56679 43.4004 6.56679 43.4945V45.423C6.56679 45.5288 6.60136 45.6112 6.65897 45.67C6.71658 45.7287 6.79724 45.7523 6.8779 45.7523C6.95855 45.7523 7.03921 45.7287 7.09682 45.67C7.15443 45.6112 7.189 45.5288 7.189 45.4113V43.4827C7.189 43.3769 7.15443 43.3064 7.09682 43.2476C7.03921 43.2005 6.97008 43.177 6.8779 43.177ZM8.88354 42.5779V46.3644H9.78228V44.8827H10.1856C10.4967 44.8827 10.7386 44.8122 10.923 44.6593C11.1535 44.4711 11.2687 44.1537 11.2687 43.7303C11.2687 43.2952 11.1535 42.9777 10.923 42.7896C10.7502 42.6485 10.5082 42.5779 10.1856 42.5779H8.88354ZM9.9436 44.2125H9.78228V43.2482H9.93208C10.0703 43.2482 10.174 43.2835 10.2547 43.354C10.3354 43.4246 10.3699 43.5422 10.3699 43.7186C10.3699 43.895 10.3238 44.0243 10.2432 44.1066C10.1625 44.1772 10.0703 44.2125 9.9436 44.2125ZM12.8926 44.7651V46.3761H11.9939V42.5779H12.8926V44.0008H13.4803V42.5779H14.379V46.3761H13.4803V44.7651H12.8926ZM15.4516 42.8125C15.2557 43.0006 15.1635 43.2476 15.1635 43.5651H15.1866V45.2701C15.1866 45.6582 15.2903 45.9522 15.4862 46.1521C15.682 46.352 15.9931 46.4578 16.3964 46.4578C16.8112 46.4578 17.1108 46.3637 17.3067 46.1638C17.5026 45.9639 17.5948 45.67 17.5948 45.2819V43.5768C17.5948 43.2593 17.4911 43.0006 17.3067 42.8125C17.0878 42.6008 16.7882 42.495 16.3849 42.495C15.9701 42.495 15.659 42.6008 15.4516 42.8125ZM16.1545 43.2593C16.2121 43.2005 16.2927 43.177 16.3734 43.177C16.454 43.177 16.5232 43.2005 16.5923 43.2476C16.6499 43.3064 16.6845 43.3769 16.6845 43.4827V45.4113C16.6845 45.5288 16.6499 45.6112 16.5923 45.67C16.5347 45.7287 16.454 45.7523 16.3734 45.7523C16.2927 45.7523 16.2121 45.7287 16.1545 45.67C16.0968 45.6112 16.0623 45.5288 16.0623 45.423V43.4945C16.0623 43.4004 16.0968 43.3181 16.1545 43.2593ZM18.2156 45.3904V44.8025H20.4509V45.3904H18.2156ZM21.707 43.3423V46.3761H22.5366V43.3423H23.1934V42.5779H21.0041V43.3423H21.707ZM26.3386 42.5779L26.3354 42.5897H25.4053L25.0481 44.33L24.9674 45.0356L24.9098 44.2477L24.5756 42.5897H23.6423L24.4835 45.5765C24.4719 45.6353 24.4374 45.6706 24.4028 45.6823C24.3682 45.6941 24.3221 45.7059 24.2761 45.7059H24.1608C24.1263 45.7059 24.0917 45.6941 24.0571 45.6823V46.3291C24.0917 46.3644 24.1608 46.3879 24.2415 46.4114C24.3221 46.4232 24.4143 46.4349 24.5065 46.4349C24.8176 46.4349 25.0481 46.3644 25.1863 46.2468C25.3246 46.1174 25.4398 45.8705 25.5435 45.506L26.3354 42.5897H26.3386V42.5779ZM26.9612 42.5779V46.3644H27.8599V44.8827H28.2632C28.5743 44.8827 28.8163 44.8122 29.0006 44.6593C29.2311 44.4711 29.3463 44.1537 29.3463 43.7303C29.3463 43.2952 29.2311 42.9777 29.0006 42.7896C28.8278 42.6485 28.5858 42.5779 28.2632 42.5779H26.9612ZM28.0212 44.2125H27.8599V43.2482H28.0097C28.148 43.2482 28.2517 43.2835 28.3323 43.354C28.413 43.4246 28.4476 43.5422 28.4476 43.7186C28.4476 43.895 28.4015 44.0243 28.3208 44.1066C28.2402 44.1772 28.148 44.2125 28.0212 44.2125ZM31.5579 46.3761V45.4942C31.604 45.024 31.6616 44.542 31.7192 44.06L30.9472 46.3761H30.0715V42.5779H30.9357V43.5304C30.9357 43.6363 30.9011 43.942 30.8435 44.4359C30.8384 44.4852 30.8333 44.5323 30.8285 44.577L30.8285 44.5771C30.8114 44.7349 30.7974 44.8643 30.7974 44.965L31.5579 42.5779H32.4106V46.3761H31.5579ZM35.5692 44.8703H34.682V45.3877C34.682 45.5288 34.6474 45.6347 34.5898 45.6935C34.5322 45.7523 34.4515 45.7875 34.3478 45.7875C34.2441 45.7875 34.1635 45.7523 34.1174 45.6935C34.0598 45.6347 34.0367 45.5288 34.0367 45.3877V43.4827C34.0367 43.3887 34.0713 43.3181 34.1289 43.2711C34.1865 43.224 34.2556 43.2005 34.3363 43.2005C34.417 43.2005 34.4861 43.2358 34.5552 43.2828C34.6244 43.3299 34.6589 43.4004 34.6589 43.4945V43.9178H35.5577V43.5768C35.5577 43.2593 35.4655 43.0006 35.2696 42.8125C35.0507 42.6008 34.7511 42.495 34.3478 42.495C33.933 42.495 33.6219 42.5891 33.4145 42.8007C33.2186 42.9889 33.1264 43.2476 33.1264 43.5651V45.2113C33.1264 45.6464 33.2302 45.9522 33.426 46.1521C33.6219 46.352 33.933 46.4461 34.3478 46.4461C34.7626 46.4461 35.0737 46.352 35.2696 46.1521C35.4655 45.9639 35.5692 45.6464 35.5692 45.2231V44.8703ZM36.8823 46.3761V43.3423H36.1794V42.5779H38.3687V43.3423H37.7119V46.3761H36.8823ZM40.5115 45.4942V46.3761H41.3642V42.5779H40.5115L39.751 44.965C39.751 44.8643 39.765 44.735 39.7821 44.5771L39.7821 44.577C39.787 44.5322 39.792 44.4852 39.7971 44.4359C39.8547 43.942 39.8893 43.6363 39.8893 43.5304V42.5779H39.0251V46.3761H39.9008L40.6728 44.0596C40.6455 44.2881 40.6208 44.5166 40.5962 44.7438L40.5962 44.744L40.5962 44.7443C40.5689 44.9963 40.5418 45.2469 40.5115 45.4942ZM42.1363 42.5779H43.0235V43.8597C43.0235 44.0361 43.1042 44.1184 43.277 44.1184C43.4037 44.1184 43.519 44.0949 43.6111 44.0478V42.5779H44.5099V46.3761H43.6111V44.7769C43.4844 44.8239 43.3807 44.8474 43.277 44.8592C43.1733 44.871 43.0465 44.8827 42.8852 44.8827C42.7124 44.8827 42.5511 44.8239 42.4013 44.6946C42.2169 44.5417 42.1363 44.33 42.1363 44.0713V42.5779ZM45.4309 42.5779V46.3644H47.5165V45.6471H46.3297V44.7416H47.4243V44.0243H46.3297V43.2952H47.5165V42.5779H45.4309ZM49.6833 44.8703H50.5706V45.2231C50.5706 45.6464 50.4669 45.9639 50.271 46.1521C50.0751 46.3402 49.764 46.4461 49.3492 46.4461C48.9344 46.4461 48.6233 46.352 48.4274 46.1521C48.2315 45.9522 48.1278 45.6464 48.1278 45.2113V43.5651C48.1278 43.2476 48.22 42.9889 48.4159 42.8007C48.6233 42.5891 48.9344 42.495 49.3492 42.495C49.7525 42.495 50.0521 42.6008 50.271 42.8125C50.4669 43.0006 50.559 43.2593 50.559 43.5768V43.9178H49.6603V43.4945C49.6603 43.4004 49.6257 43.3299 49.5566 43.2828C49.4875 43.2358 49.4183 43.2005 49.3377 43.2005C49.257 43.2005 49.1879 43.224 49.1303 43.2711C49.0727 43.3181 49.0381 43.3887 49.0381 43.4827V45.3877C49.0381 45.5288 49.0611 45.6347 49.1187 45.6935C49.1648 45.7523 49.2455 45.7875 49.3492 45.7875C49.4529 45.7875 49.5335 45.7523 49.5912 45.6935C49.6488 45.6347 49.6833 45.5288 49.6833 45.3877V44.8703ZM51.3547 42.5779V46.3644H52.2074V45.4824L52.4494 45.0474L52.8642 46.3644H53.809L52.9794 44.2477L53.809 42.5779H52.8296L52.2074 44.0831V42.5779H51.3547ZM55.9402 46.3761V45.4942C55.9705 45.2469 55.9976 44.9963 56.0249 44.7443L56.0249 44.744L56.025 44.7438C56.0495 44.5166 56.0742 44.2881 56.1016 44.0596L55.3296 46.3761H54.4538V42.5779H55.318V43.5304C55.318 43.6363 55.2835 43.942 55.2258 44.4359C55.2224 44.4689 55.219 44.5009 55.2157 44.5318L55.2108 44.577L55.2108 44.5771C55.1937 44.735 55.1798 44.8643 55.1798 44.965L55.9402 42.5779H56.7929V46.3761H55.9402ZM59.1198 45.4944V46.3764H59.9725V42.5782H59.1198L58.3593 44.9653C58.3593 44.8124 58.3708 44.636 58.3939 44.4361L58.4164 44.2349C58.4604 43.8415 58.4861 43.6118 58.4861 43.5306V42.5782H57.6334V46.3764H58.5091L59.2811 44.0598C59.2539 44.2879 59.2292 44.5159 59.2047 44.7427L59.2046 44.743L59.2046 44.7434L59.2045 44.7439L59.2045 44.7441L59.2045 44.7443L59.2045 44.7445L59.2044 44.7447L59.2044 44.745L59.2044 44.7452C59.1771 44.9971 59.1501 45.2474 59.1198 45.4944ZM58.8087 42.343C58.5667 42.343 58.3708 42.2959 58.2441 42.1901C58.0943 42.0725 58.0136 41.8961 58.0252 41.6609H58.3708C58.3708 41.7668 58.4285 41.8373 58.5322 41.8844C58.6128 41.9196 58.705 41.9314 58.8317 41.9314C58.9585 41.9314 59.0507 41.9196 59.1083 41.8844C59.1774 41.8491 59.235 41.7668 59.2696 41.6609H59.6037C59.6037 41.8844 59.5231 42.0607 59.3618 42.1783C59.212 42.2842 59.0276 42.343 58.8087 42.343ZM63.4063 45.6118H63.9824V42.578H64.8812V45.6118H65.0771V47.1523H64.2014V46.3644H62.5076V42.5662H63.4063V45.6118ZM65.7571 42.5779V46.3644H67.8426V45.6471H66.6558V44.7416H67.7504V44.0243H66.6558V43.2952H67.8426V42.5779H65.7571ZM69.4673 44.7651V46.3761H68.5686V42.5779H69.4673V44.0008H70.055V42.5779H70.9537V46.3761H70.055V44.7651H69.4673ZM71.6228 43.3423H72.3257V46.3761H73.1553V43.3423H73.812V42.5779H71.6228V43.3423ZM74.4792 46.3644V42.5779H75.7813C76.1039 42.5779 76.3459 42.6485 76.5187 42.7896C76.7491 42.9777 76.8644 43.2952 76.8644 43.7303C76.8644 44.1537 76.7491 44.4711 76.5187 44.6593C76.3343 44.8122 76.0924 44.8827 75.7813 44.8827H75.378V46.3644H74.4792ZM75.3665 44.2125H75.5278C75.6545 44.2125 75.7467 44.1772 75.8274 44.1066C75.908 44.0243 75.9541 43.895 75.9541 43.7186C75.9541 43.5422 75.9195 43.4246 75.8389 43.354C75.7582 43.2835 75.6545 43.2482 75.5163 43.2482H75.3665V44.2125Z" fill="#0F6EB4"/>
</svg>
