<svg width="16" height="17" viewBox="0 0 16 17" fill="none" xmlns="http://www.w3.org/2000/svg">
<g clip-path="url(#clip0_790_4470)">
<path fill-rule="evenodd" clip-rule="evenodd" d="M11.2834 0C11.6232 0 11.8987 0.278457 11.8987 0.621951V3.93902C11.8987 4.28252 11.6232 4.56098 11.2834 4.56098C10.9435 4.56098 10.668 4.28252 10.668 3.93902V0.621951C10.668 0.278457 10.9435 0 11.2834 0Z" fill="#222A2F"/>
<path fill-rule="evenodd" clip-rule="evenodd" d="M4.71695 0C5.05682 0 5.33233 0.278457 5.33233 0.621951V3.93902C5.33233 4.28252 5.05682 4.56098 4.71695 4.56098C4.37708 4.56098 4.10156 4.28252 4.10156 3.93902V0.621951C4.10156 0.278457 4.37708 0 4.71695 0Z" fill="#222A2F"/>
<path fill-rule="evenodd" clip-rule="evenodd" d="M0 6.42664C0 6.08314 0.275517 5.80469 0.615385 5.80469H15.3846C15.7245 5.80469 16 6.08314 16 6.42664C16 6.77013 15.7245 7.04859 15.3846 7.04859H0.615385C0.275517 7.04859 0 6.77013 0 6.42664Z" fill="#222A2F"/>
<path fill-rule="evenodd" clip-rule="evenodd" d="M0 3.93917C0 2.67934 1.00988 1.65869 2.25641 1.65869H13.7436C14.9901 1.65869 16 2.67934 16 3.93917V14.7197C16 15.9795 14.9901 17.0002 13.7436 17.0002H2.25641C1.00988 17.0002 0 15.9795 0 14.7197V3.93917ZM2.25641 2.90259C1.68961 2.90259 1.23077 3.36633 1.23077 3.93917V14.7197C1.23077 15.2926 1.68961 15.7563 2.25641 15.7563H13.7436C14.3104 15.7563 14.7692 15.2926 14.7692 14.7197V3.93917C14.7692 3.36633 14.3104 2.90259 13.7436 2.90259H2.25641Z" fill="#222A2F"/>
</g>
<defs>
<clipPath id="clip0_790_4470">
<rect width="16" height="17" fill="white"/>
</clipPath>
</defs>
</svg>
