<svg width="173" height="201" viewBox="0 0 173 201" fill="none" xmlns="http://www.w3.org/2000/svg">
<path d="M62.0831 20.0374C61.0875 19.4084 53.5106 14.1557 52.5412 13.4891C51.0311 12.4496 49.4986 11.4326 48.0892 10.2613C47.4926 9.76793 46.8177 8.91297 46.8214 8.22373C46.8364 5.28977 44.5022 4.41221 42.6193 3.60245C39.1554 2.10722 35.505 1.13551 31.6608 0.80407C28.5548 0.536661 26.7092 2.04696 25.1431 4.28039C21.8396 8.99206 21.8321 14.1105 23.6591 19.3269C25.3706 24.2193 27.7718 28.769 30.9225 32.8856C32.634 35.1228 33.7563 37.5107 33.2194 40.7347C32.0933 41.8721 30.6913 43.1602 29.4385 44.5838C27.2722 47.047 25.0164 49.4612 23.1259 52.1316C19.9939 56.5532 16.1422 59.9994 11.3546 62.4852C6.99957 64.745 3.83769 68.161 2.39098 73.0045C2.27912 73.3849 2.02184 73.7616 2.03675 74.1344C2.19336 77.8405 2.38352 81.5428 2.58486 85.2451C2.61842 85.8741 2.80399 86.585 2.84214 87.1207C3.18792 87.7446 3.0429 87.6969 3.57185 88.1311C5.34295 89.5849 6.14199 90.2618 7.76767 91.8663C9.96011 94.0244 11.3434 96.7286 12.0854 99.7455C13.0735 103.768 13.8379 107.798 14.0616 111.982C14.1809 114.276 15.5158 116.487 16.172 118.773C17.6486 123.906 19.2407 129.017 20.3928 134.23C20.982 136.889 20.844 139.736 20.8142 142.497C20.7806 145.322 20.2362 148.158 20.3481 150.967C20.4935 154.647 19.5986 158.082 18.1743 161.299C15.9744 166.27 16.6195 170.503 19.4346 175.14C23.2117 181.373 29.2521 184.07 35.1955 187.136C36.1613 187.633 37.1419 188.156 37.9808 188.838C40.9488 191.248 44.1033 193.301 47.6828 194.676C48.6186 195.034 49.0586 195.836 49.0101 196.917C48.943 198.284 49.2078 199.534 50.9901 200.227C52.6195 198.062 55.2519 196.687 56.4935 193.919C56.7769 193.29 57.5003 192.597 58.1416 192.446C60.9008 191.794 61.3594 189.403 61.9634 187.286C62.2394 186.322 62.6234 185.768 63.343 185.23C66.2887 183.03 68.1157 180.228 68.4736 176.398C68.5855 175.215 69.5624 173.931 70.4722 173.038C72.5901 170.967 74.872 169.061 77.1614 167.182C78.2651 166.278 79.5924 165.89 81.0317 165.532C82.7133 165.114 84.3539 163.976 85.6776 162.779C87.5456 161.091 89.6635 159.961 91.8634 158.85C95.1558 157.189 98.0902 155.031 100.67 152.316C103.37 149.468 106.633 148.015 110.715 149.043C112.647 149.529 114.731 149.988 116.663 149.751C120.365 149.295 124.001 148.297 127.673 147.585C131.286 146.889 133.647 144.075 136.622 142.305C137.606 141.721 138.572 141.092 139.609 140.621C144.627 138.331 150.008 136.625 154.613 133.684C159.758 130.4 165.28 127.481 169.46 122.743C172.093 119.76 172.029 116.449 171.295 112.924C170.907 111.059 169.27 110.31 167.913 109.587C162.327 106.604 157.502 102.661 153.241 98.0205C151.011 95.5874 149.46 92.7326 149.654 89.196C149.747 87.5049 149.862 85.7799 149.627 84.119C149.236 81.3582 146.835 79.3922 144.079 79.4261C142.152 79.4487 140.228 79.7048 138.3 79.7726C135.149 79.8856 134.944 78.2774 134.754 76.2059C134.657 75.1363 134.448 74.0742 134.403 73.0045C134.37 72.1307 134.277 71.1402 134.616 70.3907C135.541 68.3381 135.298 66.2176 135.056 64.165C134.914 62.9861 134.183 61.7583 133.423 60.7903C130.705 57.3366 128.095 53.7473 125.004 50.6589C121.387 47.0433 117.632 43.5368 112.967 41.1377C106.353 37.7329 99.9061 34.008 93.366 30.4526C88.5412 27.8275 83.5187 25.6656 78.2762 24.0197C76.796 23.5564 75.4499 22.6601 73.9697 22.1893C71.6169 21.4435 69.3163 21.4699 67.6422 23.4698C65.625 22.2232 63.742 21.0594 61.859 19.8993" stroke="#222A2F" stroke-miterlimit="10" stroke-linecap="round" stroke-linejoin="round"/>
<path d="M120.244 130.793C120.509 128.552 120.77 126.311 121.035 124.071C120.879 124.067 120.719 124.063 120.563 124.063C119.837 123.451 119.115 122.838 118.563 122.369C118.654 121.511 118.806 120.829 118.777 120.158C118.722 118.991 118.399 117.825 118.457 116.674C118.755 110.924 118.098 105.353 115.92 99.9732C114.907 97.4758 113.873 94.9051 113.43 92.272C112.802 88.5498 112.392 84.6919 114.802 81.285C117.089 78.0505 118.004 74.2586 117.938 70.4703C117.888 67.6466 116.751 64.8008 115.866 62.043C113.669 55.189 108.565 50.8543 102.594 47.6381C99.305 45.8669 95.6168 44.7154 91.7508 44.6017C91.2643 44.587 90.738 44.4623 90.306 44.235C87.5689 42.7974 84.9044 41.2022 82.1092 39.8966C80.7225 39.2512 79.0962 39.1522 77.597 38.7378C76.232 38.3601 74.8925 37.887 73.2154 37.3516C70.903 38.5581 68.2349 39.893 65.6212 41.3268C63.0438 42.7424 61.6499 45.0748 61.0908 47.9169C60.7242 49.7835 59.7586 51.3934 58.1468 52.0682C54.1029 53.7514 51.8268 56.9052 50.1824 60.7485C49.8593 61.5003 49.4636 62.2191 49.1006 62.9525" stroke="#222A2F" stroke-width="0.4" stroke-miterlimit="10" stroke-linecap="round" stroke-linejoin="round"/>
<path d="M89.9557 132.583C91.1075 131.424 102.135 124.069 103.551 123.875C108.132 123.24 110.059 121.44 110.422 116.856C110.637 114.175 110.851 111.472 110.767 108.791C110.604 103.456 108.905 98.4462 107.413 93.3708C106.077 88.8234 105.707 84.342 108.705 79.934C110.735 76.9562 112.132 73.421 111.896 69.5521C111.747 67.1097 111.649 64.6637 111.53 62.2176C111.522 62.0342 111.606 61.7702 111.515 61.6785C109.493 59.6982 108.952 56.6764 106.654 54.8428C105.224 53.7023 104.11 52.1621 102.796 50.8639C102.425 50.5008 101.863 50.3138 101.358 50.1194C95.8439 47.9777 90.112 46.6722 84.2966 45.7334C83.7157 45.6381 83.0914 45.8764 82.4851 45.8874C81.0331 45.9131 79.5629 46.0451 78.1326 45.8618C75.7077 45.55 73.6567 45.6527 71.8997 47.8641C70.1718 50.0387 68.07 51.953 65.9209 53.7206C64.9227 54.5458 63.4525 54.8575 62.1493 55.2242C58.4465 56.2694 56.214 58.7447 55.2847 62.401C54.7765 64.4033 54.3264 66.3726 53.1103 68.0999C52.7836 68.5656 52.838 69.299 52.7146 69.9115" stroke="#222A2F" stroke-width="0.4" stroke-miterlimit="10" stroke-linecap="round" stroke-linejoin="round"/>
<path d="M90.4765 117.407C92.3932 117.876 94.1828 117.862 95.5623 116.127C96.8836 114.466 98.4046 112.936 99.4973 111.14C100.437 109.596 100.354 107.615 99.5046 106.068C97.2829 102.015 94.9088 98.0475 92.4367 94.1456C91.4203 92.5467 90.9193 91.0248 91.3731 89.1691C91.6817 87.9039 91.678 86.5251 92.1681 85.3442C92.6436 84.2 93.4822 83.1695 94.3062 82.2161C96.9889 79.1246 99.7187 76.0771 102.467 73.0406C103.737 71.6361 103.011 70.1032 102.797 68.6363C102.55 66.9677 102.017 65.3431 101.752 63.6782C101.16 59.989 99.0508 57.2422 96.2338 55.1372C95.054 54.2571 93.2753 53.9014 91.7506 53.8353C87.5833 53.663 83.405 53.751 79.2304 53.8097C78.6822 53.817 78.007 54.1324 77.6186 54.5321C74.7653 57.4659 70.8049 58.4011 67.4507 60.4107C65.828 61.3825 64.1582 62.4863 62.9493 63.9092C60.9274 66.2893 61.588 70.7303 63.9875 72.8426C65.1201 73.8401 66.3108 74.7716 67.4289 75.7874C69.705 77.8631 69.6251 81.1269 67.2474 83.1109C65.4541 84.6071 63.6209 86.052 61.8059 87.5189" stroke="#222A2F" stroke-width="0.4" stroke-miterlimit="10" stroke-linecap="round" stroke-linejoin="round"/>
<path d="M94.4693 117.406C96.7672 117.406 99.065 117.406 101.581 117.406C104.572 114.986 105.694 111.425 105.298 107.512C104.877 103.343 103.929 99.2097 102.053 95.4251C101.138 93.5842 100.532 91.8019 100.586 89.7189C100.608 88.8718 100.161 87.9329 99.7076 87.1665C98.4007 84.9588 98.4225 83.8733 100.47 81.662C101.374 80.6865 102.427 79.8504 103.356 78.8969C105.784 76.4142 107.316 73.6344 106.848 69.9122C106.314 65.7022 105.926 61.5325 103.574 57.7956C101.065 53.8057 97.3661 51.895 93.0173 50.8352C90.2439 50.1568 87.5067 49.9037 84.6571 50.4318C83.1361 50.7142 81.4118 50.1238 79.9706 50.5638C77.5239 51.312 74.8558 52.1077 72.95 53.703C69.7011 56.4241 66.0528 58.0377 62.1432 59.2405C61.33 59.4899 61.0795 59.8199 60.6403 60.5277C58.6873 63.6632 58.219 67.0261 58.0702 70.6493C57.9504 73.5684 56.7779 76.3592 54.8975 78.7209" stroke="#222A2F" stroke-width="0.4" stroke-miterlimit="10" stroke-linecap="round" stroke-linejoin="round"/>
<path d="M62.9053 22.875C63.693 23.7185 63.5951 23.9752 64.499 24.9433C65.6424 26.0215 62.604 27.9395 65.0943 29.3697C65.6715 28.7866 66.2959 28.1925 66.8767 27.5581C67.4865 26.8906 70.6447 26.7916 71.7882 27.371C74.0135 28.4969 76.217 29.6924 78.5112 30.6495C81.4262 31.8671 84.4646 32.7912 87.3796 34.0087C89.3217 34.8229 91.1404 35.9414 93.0207 36.9095C94.3457 37.5916 95.6889 38.2407 97.0102 38.9338C99.0758 40.0193 101.105 41.1745 103.192 42.2123C104.481 42.8541 105.864 43.2868 107.175 43.8883C108.946 44.7024 110.823 45.3882 112.416 46.4847C116.206 49.0957 119.727 52.1175 122.014 56.1918C124.174 60.0351 125.997 64.08 127.823 68.103C128.255 69.0601 128.135 70.2813 128.226 71.3815C128.367 73.0904 128.61 74.8067 128.552 76.5156C128.501 78.0485 128.52 79.8308 127.775 81.0447C126.469 83.168 126.541 85.405 126.857 87.5063C127.532 91.9804 129.344 96.161 132.28 99.5679C134.949 102.667 135.881 106.352 136.829 109.414C139.537 112.352 141.868 114.879 144.198 117.405" stroke="#222A2F" stroke-width="0.4" stroke-miterlimit="10" stroke-linecap="round" stroke-linejoin="round"/>
<path d="M49.6377 21.3193C51.5871 19.1519 52.7269 19.0273 55.0938 20.3841C58.379 22.2728 61.1125 24.6821 62.9384 28.1513C62.4447 29.4642 62.0019 30.8247 63.6971 31.7489C65.7191 29.6806 68.2311 30.6927 70.4999 31.1071C73.6944 31.6902 76.8345 32.651 79.9382 33.6412C81.815 34.2389 83.7571 34.932 85.3616 36.0359C90.2804 39.4207 95.5985 41.9145 101.189 43.8654C107.327 46.0108 112.003 49.8613 116.21 54.9368C120.301 59.8729 121.935 65.4911 123.583 71.355C124.229 73.6507 123.198 75.3706 122.567 77.2299C121.285 80.9962 120.262 84.7881 120.265 88.7964C120.265 89.4088 120.461 90.0249 120.617 90.63C121.452 93.8718 122.276 97.1173 123.176 100.344C123.394 101.118 123.892 101.811 124.24 102.552C124.614 103.341 125.373 104.206 125.26 104.925C124.832 107.639 125.99 109.982 126.607 112.454C126.64 112.582 126.81 112.747 126.774 112.813C125.616 114.969 127.072 116.323 128.088 117.588C129.751 117.588 131.261 117.588 132.775 117.588C134.408 117.588 136.042 117.588 137.675 117.588C139.733 117.588 141.908 117.162 143.814 117.701C146.003 118.318 147.937 119.832 150.025 120.874C151.281 121.501 152.62 121.963 154.421 122.707C153.473 123.65 152.853 124.31 152.188 124.919C151.237 125.795 150.243 126.62 149.295 127.497C148.664 128.08 148.079 128.714 147.476 129.327" stroke="#222A2F" stroke-width="0.4" stroke-miterlimit="10" stroke-linecap="round" stroke-linejoin="round"/>
<path d="M129.117 137.219C127.03 138.143 121.188 141.46 118.781 141.152C116.715 140.888 114.548 141.324 112.417 141.61C108.649 142.113 105.553 144.254 101.923 144.951C96.0889 146.07 90.3207 147.452 84.3092 147.382C83.0459 147.368 81.485 148.237 80.5702 149.194C79.3759 150.441 78.472 152.095 77.8294 153.73C76.9582 155.938 75.6768 157.233 73.241 157.214C72.6384 157.211 72.0358 157.464 71.4332 157.599C69.9231 159.22 68.3948 160.856 66.685 162.693C66.1623 162.693 65.4254 162.693 64.5033 162.693C64.3835 164.453 64.4634 166.093 64.1113 167.633C63.7555 169.195 62.9714 170.662 62.2744 172.415C58.3938 175.664 53.5839 176.68 48.3711 176.262" stroke="#222A2F" stroke-width="0.4" stroke-miterlimit="10" stroke-linecap="round" stroke-linejoin="round"/>
<path d="M111.894 138.492C110.624 138.738 109.361 139.09 108.079 139.196C106.576 139.321 105.033 139.38 103.552 139.163C102.786 139.05 102.111 138.28 101.36 137.902C99.7262 137 98.0528 136.167 96.4737 135.174C94.822 134.136 93.693 134.246 92.2845 135.188C90.0592 136.677 87.5145 137.818 85.6414 139.666C82.5485 142.71 79.9639 146.271 77.0126 149.472C75.2956 151.335 73.8907 152.487 71.9812 154.159C71.1354 154.903 69.2405 155.662 68.3511 156.359C66.87 157.522 66.8991 159.66 66.5361 160.76M65.447 160.577C63.995 160.943 62.7244 160.799 61.2906 164.544C60.0019 167.911 57.2176 170.342 53.6311 171.501C53.3225 171.6 53.0248 171.739 52.5239 171.941C50.4584 170.005 47.7394 171.299 45.2855 170.753C45.0858 170.709 44.9188 170.518 44.7373 170.397" stroke="#222A2F" stroke-width="0.4" stroke-miterlimit="10" stroke-linecap="round" stroke-linejoin="round"/>
<path d="M67.9693 66.4343C68.2379 67.9709 68.5102 69.5038 68.699 70.5856C70.1873 71.6858 71.2836 72.6466 72.5178 73.38C76.0391 75.4703 79.0448 78.3381 82.8346 80.0397C86.2796 81.5836 91.0822 80.1461 92.3528 76.1744C93.2276 73.4387 94.9773 70.9853 95.8522 68.2459C97.0465 64.509 95.2605 59.2758 91.7429 57.996C91.6159 57.9483 91.5033 57.8273 91.3799 57.8199C87.8696 57.6879 84.3375 57.2809 80.8635 57.5706C79.1718 57.7099 77.5818 59.1475 75.9556 60.0166C74.8556 60.607 73.8102 61.3148 72.6776 61.8282C70.5685 62.7854 68.7425 64.0102 67.7842 66.2473" stroke="#222A2F" stroke-width="0.4" stroke-miterlimit="10" stroke-linecap="round" stroke-linejoin="round"/>
<path d="M62.1607 146.192C62.9484 145.704 63.7833 145.279 64.5094 144.714C66.6548 143.038 68.7094 141.245 70.8838 139.609C73.4322 137.691 74.4486 134.666 76.2709 132.223C78.4889 129.253 80.6815 126.433 83.6691 124.075C86.7982 121.603 89.2449 118.236 91.9094 115.189C92.9948 113.949 93.8552 112.508 94.8353 111.173C96.1712 109.354 95.6557 106.864 94.2944 105.482C92.0946 103.245 89.902 100.993 87.7639 98.6938C85.9198 96.7135 83.2843 96.3651 81.0373 95.2246C77.9988 93.6843 74.8661 93.809 71.5881 94.4068C69.8529 94.7222 67.9689 94.0987 66.1574 94.1464C62.4148 94.2418 58.8682 94.9532 56.1528 97.9493C55.3179 98.8698 54.247 99.5666 53.2669 100.351C50.0833 102.904 47.9343 106.19 46.769 110.081C46.2572 111.789 46.1265 113.616 45.8252 115.387C45.3387 118.258 44.6454 121.115 44.4276 124.009C44.1698 127.449 42.7432 130.5 41.8502 133.727C41.5017 134.981 41.3311 136.287 41.1133 137.574C40.9608 138.483 40.8374 139.404 40.7503 140.324C40.3945 143.918 41.3819 147.281 42.5907 150.581C42.863 151.326 43.491 151.935 43.8976 152.518C46.5585 151.693 48.918 150.956 51.274 150.222" stroke="#222A2F" stroke-width="0.4" stroke-miterlimit="10" stroke-linecap="round" stroke-linejoin="round"/>
<path d="M30.2164 61.4844C30.3144 62.8449 29.9224 63.8937 28.7861 64.8106C25.2577 67.66 21.1702 69.5083 17.1153 71.3089C13.6522 72.8455 11.9896 75.1228 11.6375 78.8964C11.3072 82.4609 12.4107 85.5598 14.1278 88.3945C15.7105 91.0056 15.9864 93.9064 16.7523 96.6971C17.8051 100.522 18.3822 104.446 18.6218 108.421C18.7126 109.958 18.9195 111.531 19.3842 112.987C19.6673 113.885 20.4441 114.696 21.1629 115.363C22.0741 116.207 23.1522 116.867 24.136 117.589C24.5861 117.589 25.1343 117.589 25.6788 117.589" stroke="#222A2F" stroke-width="0.4" stroke-miterlimit="10" stroke-linecap="round" stroke-linejoin="round"/>
<path d="M46.1888 86.4193C44.9727 86.7713 43.7602 87.1234 42.3772 87.5231C36.667 82.763 30.3651 79.1618 22.4188 80.1703C22.132 80.746 21.8525 81.3108 21.5186 81.9856C22.0231 83.3131 22.5749 84.7763 23.1376 86.2359C25.0071 91.0546 29.1636 93.684 32.928 96.6985C34.1332 97.6667 35.4291 98.6201 36.3403 99.8377C37.6617 101.609 37.2406 103.769 37.1426 105.856C36.9284 110.374 36.9139 114.903 36.7396 119.421C36.5581 124.056 36.2096 128.677 34.95 133.176C34.8556 133.518 34.9536 133.906 34.9354 134.273C34.7576 137.757 34.322 141.252 34.4781 144.721C34.5906 147.248 35.3892 149.763 36.0608 152.231C36.4746 153.75 37.2587 155.165 37.8359 156.643C38.7144 158.898 40.3588 160.523 42.4026 161.539C44.5879 162.624 46.9729 162.687 49.278 161.601C49.4269 161.532 49.6374 161.594 49.8189 161.594" stroke="#222A2F" stroke-width="0.4" stroke-miterlimit="10" stroke-linecap="round" stroke-linejoin="round"/>
<path d="M48.1858 18.0262C47.1185 15.1914 44.5593 13.4422 41.4701 13.4422C40.5626 13.4422 39.655 13.4422 38.7475 13.4422C37.5096 11.2308 35.9051 9.66124 32.9176 10.237C30.8883 11.2015 31.0662 13.3101 30.9464 15.2758C30.6669 19.8965 31.4546 24.2532 33.8142 28.3128C35.0702 30.4728 35.9233 32.8748 37.1539 35.0532C37.7529 36.113 38.8637 36.8648 39.6369 37.8403C40.3774 38.7791 40.98 39.8352 41.6407 40.8364C41.4628 40.8731 41.285 40.9097 41.1071 40.9501C41.1071 42.659 41.0163 44.3753 41.1289 46.0769C41.3176 48.9336 40.617 51.4897 38.929 53.7781" stroke="#222A2F" stroke-width="0.4" stroke-miterlimit="10" stroke-linecap="round" stroke-linejoin="round"/>
<path d="M80.1302 59.6512C77.8904 61.5471 75.6397 63.4248 73.4217 65.3427C72.4815 66.1569 72.104 67.1947 72.4997 68.4525C72.6304 68.8596 72.6739 69.296 72.7357 69.6151C73.8283 70.4622 74.9173 71.258 75.9483 72.1234C78.591 74.3495 81.5786 75.908 85.0272 75.897C87.3142 75.8897 88.9477 74.3201 90.1239 72.3105C91.7066 69.6041 91.801 66.6263 91.4888 63.6925C91.2964 61.8735 89.4342 61.1584 87.9168 60.612C86.1707 59.9886 84.323 59.5558 82.4825 59.3248C80.6057 59.0864 78.7725 59.3248 77.1971 60.7183C76.1879 61.6132 74.99 62.3686 73.763 62.9187C70.5503 64.3562 69.5339 67.5357 71.8172 70.0661C73.5669 72.0098 75.5054 73.858 77.6327 75.3506C79.426 76.6085 81.6149 77.2942 83.557 78.2C86.1344 78.0497 88.7662 77.9653 91.2601 74.7272C91.9825 72.2921 92.9554 68.6872 94.1569 65.1667C94.5454 64.0225 94.3747 63.2634 93.7504 62.3943C93.0643 61.4335 92.4399 60.425 91.6957 59.2991C88.2435 59.1121 84.7332 58.9214 81.2192 58.7344" stroke="#222A2F" stroke-width="0.4" stroke-miterlimit="10" stroke-linecap="round" stroke-linejoin="round"/>
<path d="M39.6545 69.9141C36.0316 71.5276 32.8117 73.9003 29.1489 75.4626C27.2322 76.2804 25.2792 76.3611 23.319 76.4784C20.7561 76.6324 18.716 77.6153 16.9336 80.1163C18.1715 83.9706 19.5182 88.0192 20.7706 92.1008C22.5058 97.7704 24.3826 103.414 25.7874 109.168C26.7276 113.019 28.0345 116.682 29.443 120.353C30.1 122.073 30.3977 123.987 30.5429 125.836C30.8042 129.125 31.0148 132.44 30.8914 135.734C30.7679 139.041 30.2706 142.342 29.8423 145.635C29.2723 150.014 29.9838 154.213 31.5121 158.28C32.3253 160.451 32.7718 162.834 34.5759 164.521" stroke="#222A2F" stroke-width="0.4" stroke-miterlimit="10" stroke-linecap="round" stroke-linejoin="round"/>
<path d="M33.8469 65.1484C31.5454 66.7657 30.1587 69.4098 27.516 70.6896C25.8352 71.5038 24.4195 72.8643 22.7496 73.7114C21.8094 74.1918 20.5498 73.9901 19.5224 74.3495C18.2011 74.8153 16.9124 75.4387 15.7108 76.1685C13.2424 77.6647 14.2334 80.0924 14.698 81.992C15.4531 85.0688 16.8071 87.9953 17.8671 91.0024C18.4007 92.5133 19.0905 94.0242 19.2829 95.5901C19.8637 100.31 20.8801 104.927 22.049 109.518C22.2341 110.252 22.5246 110.978 22.5717 111.719C22.6843 113.479 23.4648 114.817 24.7571 115.951C25.2689 116.398 25.6174 117.032 26.0421 117.583" stroke="#222A2F" stroke-width="0.4" stroke-miterlimit="10" stroke-linecap="round" stroke-linejoin="round"/>
<path d="M61.0719 141.428C61.6781 141.307 62.386 141.348 62.8688 141.036C67.1306 138.278 71.4069 135.473 74.2964 131.145C78.4057 124.988 83.8581 119.975 88.2687 114.089C89.4703 112.486 90.3379 110.627 91.3652 108.878C91.0929 108.21 90.9913 107.572 90.6355 107.158C88.2832 104.411 85.7676 101.84 82.1193 100.92C79.738 100.319 77.6724 98.6793 75.0442 98.8663C73.2981 98.991 71.5303 98.7967 69.7842 98.914C67.4791 99.0644 65.1848 99.3761 62.887 99.6291C62.5203 99.6695 62.1065 99.6511 61.8052 99.8235C56.3963 102.941 51.4666 106.586 49.6806 113.026C48.8711 115.945 48.5698 119.007 47.9926 121.996C47.6151 123.961 47.0742 125.894 46.7475 127.867C46.2538 130.848 45.7892 133.844 45.4915 136.852C45.3063 138.729 45.3789 140.643 45.477 142.532C45.6149 145.165 47.0597 146.012 49.6334 145.106C49.7968 145.048 49.9928 145.099 50.1743 145.099" stroke="#222A2F" stroke-width="0.4" stroke-miterlimit="10" stroke-linecap="round" stroke-linejoin="round"/>
<path d="M64.1734 134.057C63.8228 134.286 56.2671 136.942 55.8268 137.031C53.9578 137.694 51.6435 137.079 51.5433 135.152C51.4722 133.77 51.4194 132.369 51.5539 130.995C51.77 128.795 52.1075 126.602 52.466 124.421C52.7033 122.977 53.0961 121.562 53.3702 120.124C53.7894 117.937 54.0082 115.696 54.5961 113.56C55.8931 108.847 59.4731 106.18 63.401 103.899C63.6198 103.773 63.9204 103.786 64.1866 103.757C65.8553 103.571 67.5214 103.343 69.1954 103.233C70.4634 103.147 71.7473 103.29 73.0153 103.198C74.9239 103.061 76.4239 104.261 78.1533 104.701C80.8027 105.375 82.6296 107.256 84.3379 109.266C84.5962 109.569 84.67 110.036 84.8677 110.525C84.1217 111.805 83.4916 113.165 82.619 114.338C79.416 118.645 75.4564 122.314 72.4722 126.82C70.3738 129.986 67.2684 132.039 64.1734 134.057Z" stroke="#222A2F" stroke-width="0.4" stroke-miterlimit="10" stroke-linecap="round" stroke-linejoin="round"/>
<path d="M66.6006 126.106C66.3834 126.249 61.7021 127.906 61.4294 127.961C60.2714 128.374 58.8375 127.991 58.7755 126.789C58.7314 125.927 58.6987 125.053 58.782 124.196C58.9159 122.824 59.125 121.456 59.3471 120.095C59.4941 119.195 59.7375 118.313 59.9073 117.416C60.167 116.051 60.3026 114.654 60.6668 113.321C61.4704 110.382 63.6885 108.718 66.1221 107.295C66.2576 107.217 66.4438 107.225 66.6088 107.206C67.6427 107.091 68.6749 106.949 69.7121 106.88C70.4977 106.827 71.2931 106.915 72.0788 106.858C73.2613 106.773 74.1906 107.521 75.2621 107.796C76.9035 108.216 78.0354 109.389 79.0938 110.643C79.2539 110.832 79.2996 111.123 79.4221 111.428C78.9599 112.226 78.5695 113.075 78.0289 113.807C76.0444 116.493 73.5912 118.781 71.7423 121.592C70.4422 123.567 68.5181 124.848 66.6006 126.106Z" stroke="#222A2F" stroke-width="0.4" stroke-miterlimit="10" stroke-linecap="round" stroke-linejoin="round"/>
<path d="M69.305 117.749C69.2135 117.808 67.2424 118.493 67.1276 118.516C66.64 118.687 66.0363 118.529 66.0102 118.031C65.9916 117.675 65.9778 117.313 66.0129 116.958C66.0693 116.39 66.1573 115.825 66.2509 115.261C66.3127 114.889 66.4152 114.524 66.4867 114.153C66.5961 113.588 66.6532 113.01 66.8065 112.458C67.1449 111.242 68.0788 110.554 69.1035 109.965C69.1605 109.932 69.2389 109.936 69.3084 109.928C69.7437 109.88 70.1784 109.821 70.6151 109.793C70.9458 109.771 71.2808 109.808 71.6115 109.784C72.1094 109.749 72.5007 110.058 72.9519 110.172C73.643 110.346 74.1196 110.831 74.5653 111.35C74.6326 111.428 74.6519 111.549 74.7035 111.675C74.5089 112.005 74.3445 112.357 74.1169 112.659C73.2813 113.771 72.2484 114.718 71.4699 115.881C70.9225 116.698 70.1123 117.228 69.305 117.749Z" stroke="#222A2F" stroke-width="0.4" stroke-miterlimit="10" stroke-linecap="round" stroke-linejoin="round"/>
<path d="M138.03 136.297C134.702 138.252 131.395 140.243 128.033 142.139C127.285 142.561 126.367 142.792 125.503 142.872C122.617 143.144 119.698 143.133 116.965 144.339C116.558 144.519 116.006 144.39 115.524 144.357C114.173 144.269 113.023 144.577 111.868 145.425C109.668 147.042 107.258 146.851 104.8 145.865C104.172 145.612 103.236 145.575 102.662 145.872C100.785 146.848 98.9704 147.966 97.2025 149.14C94.146 151.171 91.0967 153.217 88.1381 155.388C86.7478 156.408 85.2123 156.012 83.7529 156.228C82.7619 156.375 81.7019 156.045 80.4931 155.909C77.9048 157.871 74.9463 159.653 72.5831 162.041C70.4704 164.172 68.7606 166.86 68.3504 170.032C67.9983 172.76 66.8657 174.825 64.1503 175.698C63.2791 175.976 62.3534 176.075 61.1882 176.314C59.5873 180.304 55.7938 182.845 52.7482 186.168C52.4178 186.168 51.935 186.168 51.2308 186.168C50.9295 184.979 50.6173 183.744 50.2615 182.339C49.4738 182.167 48.5372 182.031 47.6406 181.752C46.2321 181.316 44.7365 180.989 43.4878 180.252C41.5783 179.123 39.5237 178.452 37.4727 177.733" stroke="#222A2F" stroke-width="0.4" stroke-miterlimit="10" stroke-linecap="round" stroke-linejoin="round"/>
<path d="M26.2236 117.953C27.6684 119.215 27.7301 121.056 27.9988 122.728C28.3981 125.207 28.6885 127.73 28.7175 130.238C28.7466 132.743 28.4271 135.251 28.2129 137.756C27.7701 143.004 26.6193 148.215 27.3163 153.525C28.0169 158.868 29.1277 164.094 32.0391 168.741C32.3331 169.21 32.6743 169.753 33.1354 170.002C34.4241 170.695 35.7817 171.253 37.114 171.865" stroke="#222A2F" stroke-width="0.4" stroke-miterlimit="10" stroke-linecap="round" stroke-linejoin="round"/>
<path d="M43.2846 76.8828C41.5893 77.4329 39.9304 78.192 38.1952 78.4891C34.8446 79.0612 31.465 79.3802 28.0345 78.9365C25.1885 78.5661 22.2953 78.3534 19.4275 79.2115C18.9011 82.4093 20.1245 84.9177 21.5184 87.3308C25.2248 93.7448 28.8368 100.181 30.6155 107.501C31.5412 111.314 32.3071 115.117 32.4306 119.06C32.4886 120.901 33.0223 122.723 33.0912 124.564C33.1747 126.882 33.0767 129.214 32.9279 131.528C32.6883 135.262 32.3289 138.984 32.0385 142.713C31.6174 148.111 33.0078 153.106 34.8337 158.156C36.3075 162.234 39.1317 164.299 42.7437 165.817" stroke="#222A2F" stroke-width="0.4" stroke-miterlimit="10" stroke-linecap="round" stroke-linejoin="round"/>
<path d="M52.3597 94.1172C48.2468 99.2293 44.4207 104.532 42.2317 110.818C41.6255 112.563 41.415 114.463 41.1173 116.308C40.3586 120.947 40.0283 125.699 38.8158 130.21C37.7921 134.009 37.3747 137.739 37.469 141.612C37.5235 143.812 37.4908 146.012 37.4763 148.213C37.4654 150.303 37.9155 152.184 39.462 153.728C40.62 154.883 41.6001 156.214 42.7581 157.366C44.0141 158.613 45.3427 158.708 46.7149 157.538C48.2178 156.258 50.0147 155.939 51.8189 155.547" stroke="#222A2F" stroke-width="0.4" stroke-miterlimit="10" stroke-linecap="round" stroke-linejoin="round"/>
<path d="M101.004 117.953C97.4358 120.52 93.8638 123.087 90.2954 125.658C89.9795 125.885 89.5621 126.08 89.406 126.399C88.1645 128.911 86.0844 130.601 83.9463 132.266C81.1547 134.445 79.0384 137.254 77.06 140.155C76.1089 141.548 75.4627 143.162 74.4753 144.522C73.0197 146.525 71.1973 148.072 68.7289 148.032C66.4782 150.606 64.3292 153.085 62.1438 155.531C61.8897 155.814 61.4323 155.913 61.0693 156.096" stroke="#222A2F" stroke-width="0.4" stroke-miterlimit="10" stroke-linecap="round" stroke-linejoin="round"/>
<path d="M49.2745 21.6936C48.73 21.2646 48.0366 20.9382 47.67 20.3918C46.6426 18.8589 45.2922 18.1694 43.4736 17.9714C42.2901 17.843 41.1721 17.1609 40.0177 16.7465C39.0085 16.3871 37.9848 16.0608 37.0156 15.7344C34.6996 17.1499 35.1824 19.3503 35.3312 21.3269C35.6942 26.197 38.0901 30.1979 40.9252 33.9825C42.7657 36.4396 43.2376 36.8356 48.5339 39.2743C48.7046 40.7412 49.0603 42.4025 49.0639 44.0674C49.0712 47.8227 49.387 51.5742 48.0802 55.2781C47.3324 57.3978 45.6226 58.4576 44.3775 60.0199" stroke="#222A2F" stroke-width="0.4" stroke-miterlimit="10" stroke-linecap="round" stroke-linejoin="round"/>
<path d="M24.0449 117.953C25.6204 120.997 26.2484 124.257 26.2266 127.671C26.2085 130.909 26.4481 134.17 26.1685 137.386C25.7765 141.926 24.9416 146.429 24.4406 150.962C24.2337 152.832 24.3135 154.754 24.4333 156.639C24.5568 158.542 24.9815 160.423 25.1085 162.327C25.261 164.63 26.6586 166.379 27.4935 168.374C27.7767 169.052 28.0961 169.72 28.3974 170.391" stroke="#222A2F" stroke-width="0.4" stroke-miterlimit="10" stroke-linecap="round" stroke-linejoin="round"/>
<path d="M89.9556 132.586C88.6234 133.319 87.4705 134.131 86.1164 134.821C82.7296 136.544 80.0433 138.884 78.4533 142.511C77.2009 145.371 75.6944 148.18 73.0335 150.021C71.9263 150.788 70.605 151.22 69.4252 151.891C66.5973 153.501 64.4773 155.812 62.8656 158.654C62.2013 159.824 61.3881 160.935 60.4951 161.936" stroke="#222A2F" stroke-width="0.4" stroke-miterlimit="10" stroke-linecap="round" stroke-linejoin="round"/>
<path d="M93.3805 117.953C88.4799 122.842 83.4667 127.624 78.7258 132.67C76.3916 135.152 74.4531 138.05 72.5328 140.892C69.734 145.039 65.3016 147.28 61.7913 150.584C61.726 150.647 61.5553 150.591 61.4355 150.591" stroke="#222A2F" stroke-width="0.4" stroke-miterlimit="10" stroke-linecap="round" stroke-linejoin="round"/>
<path d="M55.8086 30.6727C55.3912 28.0653 54.3167 26.0263 51.2964 25.5312C50.0077 26.5177 48.523 26.4811 46.904 25.9383C45.6843 25.5276 44.381 25.5129 43.2666 26.4737C44.0652 30.68 46.8858 33.1591 50.5668 34.659C52.8102 35.5721 55.3004 33.5955 55.8086 30.8597" stroke="#222A2F" stroke-width="0.4" stroke-miterlimit="10" stroke-linecap="round" stroke-linejoin="round"/>
<path d="M33.8463 87.3365C33.8463 87.1532 33.9262 86.9038 33.8355 86.7975C32.1983 84.8685 30.14 83.5996 27.6679 83.1706C27.1197 83.0752 26.3139 83.4713 25.9218 83.9077C25.704 84.1497 25.9908 85.0152 26.2485 85.4883C26.7095 86.3281 27.323 87.0835 27.6389 87.5456C29.5519 88.356 31.1564 89.0381 32.9098 89.7826C33.2764 89.0381 33.6539 88.279 34.0278 87.5199" stroke="#222A2F" stroke-width="0.4" stroke-miterlimit="10" stroke-linecap="round" stroke-linejoin="round"/>
<path d="M61.0724 36.908C61.6605 36.2955 62.5789 35.8225 62.0126 34.6966C60.2048 34.7626 58.5023 34.6343 57.308 32.8557C57.8017 32.2176 58.2555 31.6345 58.8073 30.9304C58.8073 30.3143 58.8073 29.5808 58.8073 28.9757C57.9832 27.6225 57.1919 26.317 56.3969 25.0115C52.1896 21.7476 50.7339 21.7109 49.0822 25.0225C48.0476 23.8966 47.1147 22.8808 45.7207 21.3626C43.9565 20.5924 41.6622 22.0153 39.2119 21.8943C39.4188 22.305 39.6548 22.5544 39.6475 22.7928C39.4951 27.1201 41.9454 30.4976 43.9674 33.9008C44.7587 35.232 46.984 35.6941 48.5595 36.5412C48.8462 36.6953 49.162 36.7906 49.4633 36.9116" stroke="#222A2F" stroke-width="0.4" stroke-miterlimit="10" stroke-linecap="round" stroke-linejoin="round"/>
<path d="M128.411 117.953C130.909 120.487 133.555 122.908 135.12 126.208C136.067 128.203 136.412 130.231 135.138 132.263C134.108 133.74 129.885 136.832 129.117 137.219" stroke="#222A2F" stroke-width="0.4" stroke-miterlimit="10" stroke-linecap="round" stroke-linejoin="round"/>
<path d="M82.6713 69.3697C82.9145 68.4016 83.6804 67.4701 82.7911 66.3956C82.3083 66.2562 81.7601 66.0985 80.7727 65.8125C80.6239 66.4909 80.3661 67.1914 80.3371 67.9028C80.2827 69.223 81.2737 69.5384 82.3119 69.7364" stroke="#222A2F" stroke-width="0.4" stroke-miterlimit="10" stroke-linecap="round" stroke-linejoin="round"/>
<path d="M48.1854 75.9644C48.5521 76.1844 48.9187 76.4081 49.5467 76.7858C49.5467 75.5976 49.5467 74.8642 49.5467 74.0391C49.1547 74.0391 48.8534 74.0391 48.3851 74.0391C48.2762 74.5378 48.1382 75.1612 48.0039 75.781" stroke="#222A2F" stroke-width="0.4" stroke-miterlimit="10" stroke-linecap="round" stroke-linejoin="round"/>
<path d="M61.2539 150.41C61.2539 149.915 61.2539 149.416 61.2539 148.852C60.7094 148.852 60.3463 148.852 59.8926 148.852C59.8926 149.677 59.8926 150.41 59.8926 151.598C60.5206 151.217 60.8872 150.997 61.2539 150.777" stroke="#222A2F" stroke-width="0.4" stroke-miterlimit="10" stroke-linecap="round" stroke-linejoin="round"/>
<path d="M55.0821 167.099C54.8897 167.491 54.6937 167.88 54.5013 168.273C54.3525 168.24 54.2073 168.21 54.0584 168.177C53.6845 167.29 53.4558 166.413 54.6356 165.562C54.7917 166.036 54.9369 166.476 55.0821 166.916" stroke="#222A2F" stroke-width="0.4" stroke-miterlimit="10" stroke-linecap="round" stroke-linejoin="round"/>
<path d="M53.6307 90.4533C54.2986 90.391 54.9266 90.4973 54.6761 91.3555C54.5854 91.6599 53.9864 91.8102 53.3584 92.1916C53.3584 91.0034 53.3584 90.27 53.3584 89.2578C53.9791 89.4448 54.4402 89.5805 54.9012 89.7199" stroke="#222A2F" stroke-width="0.4" stroke-miterlimit="10" stroke-linecap="round" stroke-linejoin="round"/>
<path d="M50.9083 165.992C50.9083 166.74 50.9083 167.488 50.9083 168.566C49.3401 167.492 49.4925 166.597 50.1823 165.625" stroke="#222A2F" stroke-width="0.4" stroke-miterlimit="10" stroke-linecap="round" stroke-linejoin="round"/>
<path d="M38.929 172.966C39.4408 172.834 39.949 172.702 40.4609 172.57C40.6206 172.831 40.7803 173.091 40.94 173.351C40.2249 173.729 39.5098 174.107 38.791 174.485C38.889 174.657 38.987 174.826 39.0814 174.998C39.6332 175.057 40.1886 175.112 40.7404 175.17" stroke="#222A2F" stroke-width="0.4" stroke-miterlimit="10" stroke-linecap="round" stroke-linejoin="round"/>
<path d="M36.7512 62.9429C37.2631 62.8109 37.7713 62.6789 38.2831 62.5469C38.4429 62.8072 38.6026 63.0676 38.7623 63.328C38.0472 63.7057 37.332 64.0834 36.6133 64.4612C36.7113 64.6335 36.8093 64.8022 36.9037 64.9746C37.4555 65.0333 38.0109 65.0883 38.5627 65.1469" stroke="#222A2F" stroke-width="0.4" stroke-miterlimit="10" stroke-linecap="round" stroke-linejoin="round"/>
<path d="M51.271 145.281C50.966 145.919 50.8535 146.546 51.8155 146.546C52.7775 146.546 52.6649 145.919 52.36 145.281" stroke="#222A2F" stroke-width="0.4" stroke-miterlimit="10" stroke-linecap="round" stroke-linejoin="round"/>
<path d="M47.0964 76.5127C47.0964 75.7572 47.0964 75.0054 47.0964 74.25C46.9584 74.2537 46.8205 74.2573 46.6826 74.2573C46.2578 74.6864 45.8367 75.1118 45.1797 75.7756C46.2433 75.7756 47.0347 75.7756 47.826 75.7756" stroke="#222A2F" stroke-width="0.4" stroke-miterlimit="10" stroke-linecap="round" stroke-linejoin="round"/>
<path d="M59.6202 162.875C58.7744 163.546 57.9249 164.221 57.0791 164.892" stroke="#222A2F" stroke-width="0.4" stroke-miterlimit="10" stroke-linecap="round" stroke-linejoin="round"/>
<path d="M42.9218 68.2656C42.8601 68.6947 42.802 69.1201 42.7403 69.5492C42.3155 69.4281 41.8944 69.3035 41.4697 69.1824" stroke="#222A2F" stroke-width="0.4" stroke-miterlimit="10" stroke-linecap="round" stroke-linejoin="round"/>
<path d="M114.071 134.641C114.009 135.07 113.951 135.495 113.89 135.924C113.465 135.803 113.044 135.678 112.619 135.557" stroke="#222A2F" stroke-width="0.4" stroke-miterlimit="10" stroke-linecap="round" stroke-linejoin="round"/>
<path d="M51.9971 148.758C52.5416 148.758 53.0861 148.758 53.7214 148.758C53.2676 149.675 52.9046 150.408 52.5416 151.142" stroke="#222A2F" stroke-width="0.4" stroke-miterlimit="10" stroke-linecap="round" stroke-linejoin="round"/>
<path d="M113.345 134.458C113.668 134.33 113.995 134.201 114.318 134.069C114.282 133.886 114.245 133.699 114.209 133.516C113.679 133.585 113.149 133.655 112.619 133.725" stroke="#222A2F" stroke-width="0.4" stroke-miterlimit="10" stroke-linecap="round" stroke-linejoin="round"/>
<path d="M42.1957 68.0831C42.5188 67.9547 42.8455 67.8264 43.1686 67.6944C43.1323 67.511 43.096 67.324 43.0597 67.1406C42.5297 67.2103 41.9997 67.28 41.4697 67.3497" stroke="#222A2F" stroke-width="0.4" stroke-miterlimit="10" stroke-linecap="round" stroke-linejoin="round"/>
<path d="M52.5419 144.544C52.1753 143.535 51.6272 144.004 51.0137 144.305C51.3476 145.387 51.8849 145.303 52.5419 144.727" stroke="#222A2F" stroke-width="0.4" stroke-miterlimit="10" stroke-linecap="round" stroke-linejoin="round"/>
<path d="M48.1855 166.547C47.8915 166.679 47.5938 166.807 47.2998 166.939C47.4123 167.115 47.5249 167.288 47.641 167.464C47.9423 167.464 48.2473 167.464 48.5486 167.464" stroke="#222A2F" stroke-width="0.4" stroke-miterlimit="10" stroke-linecap="round" stroke-linejoin="round"/>
<path d="M48.7295 165.625C48.7295 166.479 48.7295 167.338 48.7295 168.192" stroke="#222A2F" stroke-width="0.4" stroke-miterlimit="10" stroke-linecap="round" stroke-linejoin="round"/>
<path d="M54.1747 143.992C53.9206 144.762 53.6702 145.536 53.3652 146.468C54.1747 146.468 54.5378 146.468 55.2275 146.468C54.7156 145.584 55.8264 144.487 54.3563 143.992" stroke="#222A2F" stroke-width="0.4" stroke-miterlimit="10" stroke-linecap="round" stroke-linejoin="round"/>
<path d="M56.7158 143.992C56.4617 144.762 56.2112 145.536 55.9062 146.468C56.7158 146.468 57.0788 146.468 57.7685 146.468C57.2567 145.584 58.3675 144.487 56.8973 143.992" stroke="#222A2F" stroke-width="0.4" stroke-miterlimit="10" stroke-linecap="round" stroke-linejoin="round"/>
<path d="M61.4355 89.3516C61.1814 90.1217 60.9309 90.8955 60.626 91.8269C61.4355 91.8269 61.7985 91.8269 62.4882 91.8269C61.9764 90.9431 63.0872 89.8466 61.617 89.3516" stroke="#222A2F" stroke-width="0.4" stroke-miterlimit="10" stroke-linecap="round" stroke-linejoin="round"/>
<path d="M58.8935 89.3516C58.6394 90.1217 58.3889 90.8955 58.084 91.8269C58.8935 91.8269 59.2565 91.8269 59.9462 91.8269C59.4344 90.9431 60.5452 89.8466 59.075 89.3516" stroke="#222A2F" stroke-width="0.4" stroke-miterlimit="10" stroke-linecap="round" stroke-linejoin="round"/>
<path d="M56.3535 89.3516C56.0994 90.1217 55.8489 90.8955 55.5439 91.8269C56.3535 91.8269 56.7165 91.8269 57.4062 91.8269C56.8943 90.9431 58.0052 89.8466 56.535 89.3516" stroke="#222A2F" stroke-width="0.4" stroke-miterlimit="10" stroke-linecap="round" stroke-linejoin="round"/>
<path d="M28.7648 85.6875C28.6741 86.3953 28.6995 86.4503 29.4908 87.1544C30.5617 86.1899 30.2495 85.7535 28.9463 85.6875" stroke="#222A2F" stroke-width="0.4" stroke-miterlimit="10" stroke-linecap="round" stroke-linejoin="round"/>
<path d="M24.227 81.2812C22.8874 82.1064 22.6297 83.0269 23.8422 84.237C24.1761 84.5708 24.1689 85.2272 24.423 85.6746C24.9239 86.5547 25.316 87.6586 26.0783 88.1977C28.0277 89.5765 30.1223 90.7574 32.2277 91.8906C33.4874 92.569 36.5149 90.9004 37.1175 89.3492C37.2155 89.0961 37.3607 88.8614 37.5168 88.5497C36.1773 84.3837 32.529 83.4156 28.9461 82.3924C27.4505 81.9634 25.9222 81.648 24.4121 81.2812" stroke="#222A2F" stroke-width="0.4" stroke-miterlimit="10" stroke-linecap="round" stroke-linejoin="round"/>
<path d="M59.2568 143.992C59.0099 144.744 58.7631 145.496 58.4473 146.468C59.2568 146.468 59.6198 146.468 60.3095 146.468C59.7977 145.584 60.9085 144.487 59.4383 143.992" stroke="#222A2F" stroke-width="0.4" stroke-miterlimit="10" stroke-linecap="round" stroke-linejoin="round"/>
<path d="M55.2636 148.758C55.0095 149.528 54.759 150.302 54.4541 151.233C55.2636 151.233 55.6266 151.233 56.3164 151.233C55.8045 150.349 56.9153 149.253 55.4451 148.758" stroke="#222A2F" stroke-width="0.4" stroke-miterlimit="10" stroke-linecap="round" stroke-linejoin="round"/>
<path d="M53.8124 73.9531C53.5583 74.7232 53.3079 75.497 53.0029 76.4285C53.8124 76.4285 54.1755 76.4285 54.8652 76.4285C54.3533 75.5447 55.4641 74.4482 53.9939 73.9531" stroke="#222A2F" stroke-width="0.4" stroke-miterlimit="10" stroke-linecap="round" stroke-linejoin="round"/>
<path d="M51.2714 73.9531C51.0173 74.7232 50.7668 75.497 50.4619 76.4285C51.2714 76.4285 51.6344 76.4285 52.3242 76.4285C51.8123 75.5447 52.9231 74.4482 51.4529 73.9531" stroke="#222A2F" stroke-width="0.4" stroke-miterlimit="10" stroke-linecap="round" stroke-linejoin="round"/>
<path d="M57.8056 148.758C57.5515 149.528 57.301 150.302 56.9961 151.233C57.8056 151.233 58.1686 151.233 58.8583 151.233C58.3465 150.349 59.4573 149.253 57.9871 148.758" stroke="#222A2F" stroke-width="0.4" stroke-miterlimit="10" stroke-linecap="round" stroke-linejoin="round"/>
<path d="M49.8193 66.9844C49.5652 67.7545 49.3147 68.5283 49.0098 69.4598C49.8193 69.4598 50.1823 69.4598 50.872 69.4598C50.3602 68.576 51.471 67.4795 50.0008 66.9844" stroke="#222A2F" stroke-width="0.4" stroke-miterlimit="10" stroke-linecap="round" stroke-linejoin="round"/>
<path d="M47.2783 66.9844C47.0242 67.7545 46.7737 68.5283 46.4688 69.4598C47.2783 69.4598 47.6413 69.4598 48.331 69.4598C47.8192 68.576 48.93 67.4795 47.4598 66.9844" stroke="#222A2F" stroke-width="0.4" stroke-miterlimit="10" stroke-linecap="round" stroke-linejoin="round"/>
<path d="M44.7363 66.9844C44.4822 67.7545 44.2317 68.5283 43.9268 69.4598C44.7363 69.4598 45.0993 69.4598 45.789 69.4598C45.2772 68.576 46.388 67.4795 44.9178 66.9844" stroke="#222A2F" stroke-width="0.4" stroke-miterlimit="10" stroke-linecap="round" stroke-linejoin="round"/>
<path d="M81.9457 62.9453C80.5553 63.9245 79.0924 64.8156 77.7928 65.9084C76.8236 66.7189 76.8127 67.8887 77.4117 68.9962C78.8274 71.6147 81.147 72.7002 84.1201 72.0951C84.5739 72.0034 85.2237 71.721 85.3507 71.3653C85.9497 69.693 86.3962 67.9694 86.9117 66.2018C85.9569 64.1482 83.9567 63.7704 82.1272 63.1287" stroke="#222A2F" stroke-width="0.4" stroke-miterlimit="10" stroke-linecap="round" stroke-linejoin="round"/>
<path d="M45.0996 62.5781C44.8527 63.3299 44.6059 64.0817 44.29 65.0535C45.0996 65.0535 45.4626 65.0535 46.1523 65.0535C45.6404 64.1697 46.7513 63.0732 45.2811 62.5781" stroke="#222A2F" stroke-width="0.4" stroke-miterlimit="10" stroke-linecap="round" stroke-linejoin="round"/>
<path d="M42.5585 62.5781C42.3044 63.3482 42.054 64.122 41.749 65.0535C42.5585 65.0535 42.9215 65.0535 43.6113 65.0535C43.0994 64.1697 44.2102 63.0732 42.74 62.5781" stroke="#222A2F" stroke-width="0.4" stroke-miterlimit="10" stroke-linecap="round" stroke-linejoin="round"/>
<path d="M40.0175 62.5781C39.7634 63.3482 39.5129 64.122 39.208 65.0535C40.0175 65.0535 40.3805 65.0535 41.0703 65.0535C40.5584 64.1697 41.6692 63.0732 40.199 62.5781" stroke="#222A2F" stroke-width="0.4" stroke-miterlimit="10" stroke-linecap="round" stroke-linejoin="round"/>
<path d="M81.0381 60.75C79.419 61.2597 78.4861 62.5103 77.5677 63.8525C76.7073 65.103 75.6691 66.2252 74.7471 67.3547C76.6674 72.3605 80.2685 74.4031 85.2127 74.2968C85.7608 74.2858 86.4397 74.1024 86.8245 73.7467C88.9916 71.7297 90.5671 67.087 89.4018 64.2302C88.9081 63.02 88.1857 62.2572 86.8499 62.0152C84.9586 61.6705 83.0963 61.1791 81.2196 60.7537" stroke="#222A2F" stroke-width="0.4" stroke-miterlimit="10" stroke-linecap="round" stroke-linejoin="round"/>
<path d="M80.3114 55.6094C78.7395 56.4638 77.1568 57.3036 75.5958 58.1801C73.1092 59.5737 70.6117 60.9525 68.1577 62.4048C64.8652 64.3521 64.9451 65.2835 65.5804 69.1855C65.8926 71.1144 67.2611 72.2183 68.5571 73.1534C71.1998 75.064 74.093 76.6153 76.8555 78.3609C77.4654 78.746 78.1043 79.23 78.4709 79.8278C79.9484 82.2262 81.8868 83.9461 85.1104 84.6209C85.9743 84.0634 87.1396 83.3227 88.2976 82.5599C88.9147 82.1528 89.4556 81.5514 90.1236 81.3057C93.7464 79.9745 95.9644 77.18 97.7032 73.9272C98.1642 73.0691 98.4292 71.9872 98.422 71.0118C98.4075 68.078 98.3385 65.1332 98.0662 62.2141C97.794 59.2913 95.6232 57.2523 92.857 56.2878C90.875 55.5947 89.0381 55.6864 87.0198 55.8991C84.878 56.1228 82.6709 55.7341 80.4929 55.6094" stroke="#222A2F" stroke-width="0.4" stroke-miterlimit="10" stroke-linecap="round" stroke-linejoin="round"/>
<path d="M52.1787 165.812C53.667 166.495 53.2895 167.323 52.2949 168.255C51.3982 167.602 51.4018 166.847 51.9972 165.996" stroke="#222A2F" stroke-width="0.4" stroke-miterlimit="10" stroke-linecap="round" stroke-linejoin="round"/>
<path d="M42.1962 172.594C41.9421 173.364 41.6916 174.138 41.3867 175.069C42.1962 175.069 42.5592 175.069 43.249 175.069C42.7371 174.185 43.8479 173.089 42.3777 172.594" stroke="#222A2F" stroke-width="0.4" stroke-miterlimit="10" stroke-linecap="round" stroke-linejoin="round"/>
<path d="M44.7363 172.594C44.4822 173.364 44.2317 174.138 43.9268 175.069C44.7363 175.069 45.0993 175.069 45.789 175.069C45.2772 174.185 46.388 173.089 44.9178 172.594" stroke="#222A2F" stroke-width="0.4" stroke-miterlimit="10" stroke-linecap="round" stroke-linejoin="round"/>
<path d="M47.2783 172.594C47.0242 173.364 46.7737 174.138 46.4688 175.069C47.2783 175.069 47.6413 175.069 48.331 175.069C47.8192 174.185 48.93 173.089 47.4598 172.594" stroke="#222A2F" stroke-width="0.4" stroke-miterlimit="10" stroke-linecap="round" stroke-linejoin="round"/>
<path d="M120.969 133.359C120.715 134.129 120.464 134.903 120.159 135.835C120.969 135.835 121.332 135.835 122.021 135.835C121.51 134.951 122.62 133.854 121.15 133.359" stroke="#222A2F" stroke-width="0.4" stroke-miterlimit="10" stroke-linecap="round" stroke-linejoin="round"/>
<path d="M118.429 133.359C118.175 134.129 117.924 134.903 117.619 135.835C118.429 135.835 118.792 135.835 119.481 135.835C118.97 134.951 120.08 133.854 118.61 133.359" stroke="#222A2F" stroke-width="0.4" stroke-miterlimit="10" stroke-linecap="round" stroke-linejoin="round"/>
<path d="M115.887 133.359C115.633 134.129 115.382 134.903 115.077 135.835C115.887 135.835 116.25 135.835 116.939 135.835C116.428 134.951 117.538 133.854 116.068 133.359" stroke="#222A2F" stroke-width="0.4" stroke-miterlimit="10" stroke-linecap="round" stroke-linejoin="round"/>
<rect x="35.25" y="55.75" width="38.5" height="38.5" rx="19.25" fill="white"/>
<path fill-rule="evenodd" clip-rule="evenodd" d="M50.8841 77.387C51.3991 77.387 51.8841 77.493 52.3081 77.706C52.6261 75.61 54.4451 74 56.6261 74C59.0051 74 60.9441 75.914 61.0051 78.283C62.4291 78.465 63.5351 79.68 63.5351 81.184C63.5351 82.794 62.2321 84.1 60.6261 84.1H50.8841C49.0361 84.1 47.5361 82.596 47.5361 80.744C47.5361 78.89 49.0361 77.387 50.8841 77.387Z" stroke="#222A2F" stroke-width="1.5" stroke-linecap="round" stroke-linejoin="round"/>
<path d="M53.46 65.7984V64.9984" stroke="#222A2F" stroke-width="1.5" stroke-linecap="round" stroke-linejoin="round"/>
<path d="M58.5608 67.91L59.1208 67.34" stroke="#222A2F" stroke-width="1.5" stroke-linecap="round" stroke-linejoin="round"/>
<path d="M45.4604 73H46.2604" stroke="#222A2F" stroke-width="1.5" stroke-linecap="round" stroke-linejoin="round"/>
<path d="M47.8108 67.34L48.3708 67.91" stroke="#222A2F" stroke-width="1.5" stroke-linecap="round" stroke-linejoin="round"/>
<path d="M56.2929 70.172C55.5689 69.448 54.5689 69 53.4639 69C51.2549 69 49.4639 70.791 49.4639 73" stroke="#222A2F" stroke-width="1.5" stroke-linecap="round" stroke-linejoin="round"/>
<rect x="35.25" y="55.75" width="38.5" height="38.5" rx="19.25" stroke="#222A2F" stroke-width="1.5"/>
<rect x="83.25" y="55.75" width="38.5" height="38.5" rx="19.25" fill="white"/>
<path d="M109.386 66.6562L95.9238 69.4403V70.3043L102.222 69.0015V73.2803H97.6235C97.2682 74.5422 97.0778 75.8732 97.0778 77.2484C97.0778 78.6236 97.2624 79.9091 97.6057 81.1523H107.704C108.048 79.9095 108.232 78.6006 108.232 77.2484C108.232 75.8962 108.042 74.5422 107.686 73.2803H103.087V68.823L109.386 67.5203V66.6562H109.386ZM98.024 77.2484C98.024 76.1756 98.1471 75.1215 98.3889 74.0963H100.155V78.8483H98.1168C98.0557 78.3203 98.024 77.787 98.024 77.2484V77.2484ZM106.921 74.0963C107.164 75.122 107.286 76.1756 107.286 77.2484C107.286 77.787 107.254 78.3203 107.193 78.8483H105.155V74.0963H106.921V74.0963ZM104.29 74.0963V78.8483H101.02V74.0963H104.29Z" fill="#222A2F"/>
<rect x="83.25" y="55.75" width="38.5" height="38.5" rx="19.25" stroke="#222A2F" stroke-width="1.5"/>
<rect x="35.25" y="103.75" width="38.5" height="38.5" rx="19.25" fill="white"/>
<mask id="mask0_345_4378" style="mask-type:alpha" maskUnits="userSpaceOnUse" x="40" y="111" width="25" height="24">
<rect x="40.5" y="111" width="24" height="24" fill="#D9D9D9"/>
</mask>
<g mask="url(#mask0_345_4378)">
<path d="M59 134C58.5667 134 58.146 133.967 57.738 133.9C57.3293 133.833 56.9333 133.733 56.55 133.6L42.5 128.475L43 127.05L49.9 129.575L51.625 125.125L48.05 121.4C47.6 120.933 47.421 120.379 47.513 119.737C47.6043 119.096 47.9333 118.608 48.5 118.275L51.975 116.275C52.2583 116.108 52.546 116.012 52.838 115.987C53.1293 115.962 53.4167 116.008 53.7 116.125C53.9833 116.225 54.2293 116.383 54.438 116.6C54.646 116.817 54.8 117.075 54.9 117.375L55.225 118.45C55.4417 119.167 55.796 119.8 56.288 120.35C56.7793 120.9 57.3667 121.317 58.05 121.6L58.575 120L60 120.45L58.875 123.9C57.6417 123.7 56.55 123.217 55.6 122.45C54.65 121.683 53.95 120.733 53.5 119.6L50.975 121.05L54 124.5L51.775 130.25L54.875 131.375L56.975 124.95C57.2083 125.033 57.4417 125.108 57.675 125.175C57.9083 125.242 58.15 125.3 58.4 125.35L56.275 131.9L57.05 132.175C57.35 132.275 57.6627 132.354 57.988 132.413C58.3127 132.471 58.65 132.5 59 132.5C59.4333 132.5 59.846 132.458 60.238 132.375C60.6293 132.292 61.0083 132.167 61.375 132L62.5 133.125C61.9667 133.408 61.4083 133.625 60.825 133.775C60.2417 133.925 59.6333 134 59 134ZM57 117.5C56.45 117.5 55.9793 117.304 55.588 116.912C55.196 116.521 55 116.05 55 115.5C55 114.95 55.196 114.479 55.588 114.087C55.9793 113.696 56.45 113.5 57 113.5C57.55 113.5 58.021 113.696 58.413 114.087C58.8043 114.479 59 114.95 59 115.5C59 116.05 58.8043 116.521 58.413 116.912C58.021 117.304 57.55 117.5 57 117.5Z" fill="#1C1B1F"/>
</g>
<rect x="35.25" y="103.75" width="38.5" height="38.5" rx="19.25" stroke="#222A2F" stroke-width="1.5"/>
<rect x="83.25" y="103.75" width="38.5" height="38.5" rx="19.25" fill="white"/>
<path d="M106.5 121.291L109.975 119.149C110.284 118.959 110.671 118.95 110.987 119.127C111.304 119.304 111.5 119.638 111.5 120V126.997C111.5 127.359 111.304 127.693 110.987 127.87C110.671 128.047 110.284 128.038 109.975 127.848L106.5 125.706" stroke="#222A2F" stroke-width="1.7" stroke-linecap="round" stroke-linejoin="round"/>
<rect x="93.5" y="117" width="13" height="13" rx="3" stroke="#222A2F" stroke-width="1.7" stroke-linecap="round" stroke-linejoin="round"/>
<rect x="83.25" y="103.75" width="38.5" height="38.5" rx="19.25" stroke="#222A2F" stroke-width="1.5"/>
</svg>
