<svg width="72" height="72" viewBox="0 0 72 72" fill="none" xmlns="http://www.w3.org/2000/svg">
<g clip-path="url(#clip0_393_4655)">
<path d="M0 64.2857H64.2857V0H0V64.2857ZM3.08571 3.08571H61.2V61.2H3.08571V3.08571Z" fill="#222A2F"/>
<path d="M13.3714 68.9143H3.08571V72H13.3714V68.9143Z" fill="#222A2F"/>
<path d="M61.2 68.9143H50.9143V72H61.2V68.9143Z" fill="#222A2F"/>
<path d="M72 0H68.9143V64.2857H72V0Z" fill="#222A2F"/>
<path d="M37.5429 56.5714H54V27.7714H37.5429V56.5714ZM40.6286 30.8571H50.9143V53.4857H40.6286V30.8571Z" fill="#222A2F"/>
<path d="M25.0946 17.0897V7.71429H15.8374V17.0897C15.8374 19.6071 14.9709 22.0757 13.3997 24.0429C11.3914 26.5526 10.2857 29.7077 10.2857 32.922V56.5714H30.6463V32.922C30.6463 29.7077 29.5406 26.5526 27.5323 24.0429C25.9611 22.0757 25.0946 19.6071 25.0946 17.0897ZM27.5606 53.4857H13.3714V32.922C13.3714 30.4046 14.238 27.936 15.8091 25.9689C17.8174 23.4591 18.9231 20.304 18.9231 17.0897V10.8H22.0088V17.0897C22.0088 20.304 23.1146 23.4591 25.1228 25.9689C26.694 27.936 27.5606 30.4046 27.5606 32.922V53.4857Z" fill="#222A2F"/>
</g>
<defs>
<clipPath id="clip0_393_4655">
<rect width="72" height="72" fill="white"/>
</clipPath>
</defs>
</svg>
