<?xml version="1.0" encoding="UTF-8" standalone="no"?>
<svg width="49" height="66" viewBox="0 0 49 66" fill="none" xmlns="http://www.w3.org/2000/svg">
<path d="M24.396 29.4062C10.9434 29.4062 0 40.3496 0 53.8023V66.0003H48.792V53.8023C48.792 40.3496 37.8487 29.4062 24.396 29.4062ZM19.8218 63.3864H2.61386V53.8023C2.61386 43.3599 10.0002 34.6122 19.8218 32.5058V63.3864ZM26.3564 63.3864H22.4356V32.1094C23.0825 32.0506 23.736 32.0201 24.396 32.0201C25.056 32.0201 25.7095 32.0506 26.3564 32.1094V63.3864ZM46.1782 63.3864H28.9703V32.5058C38.7918 34.6122 46.1782 43.3621 46.1782 53.8023V63.3864Z" fill="#222A2F"/>
<path d="M24.396 22.2178C30.532 22.2178 35.5049 17.2449 35.5049 11.1089C35.5049 4.97286 30.532 0 24.396 0C18.26 0 13.2871 4.97286 13.2871 11.1089C13.2871 17.2449 18.26 22.2178 24.396 22.2178ZM24.396 2.61386C29.0792 2.61386 32.891 6.42573 32.891 11.1089C32.891 15.7921 29.0792 19.6039 24.396 19.6039C19.7128 19.6039 15.901 15.7921 15.901 11.1089C15.901 6.42573 19.7128 2.61386 24.396 2.61386Z" fill="#222A2F"/>
<path d="M41.6004 51.624H33.7676V54.2379H41.6004V51.624Z" fill="#222A2F"/>
</svg>
