<svg width="173" height="201" viewBox="0 0 173 201" fill="none" xmlns="http://www.w3.org/2000/svg">
<path d="M62.0821 20.0374C61.0865 19.4084 53.5096 14.1557 52.5402 13.4891C51.0301 12.4496 49.4976 11.4326 48.0882 10.2613C47.4916 9.76793 46.8167 8.91297 46.8205 8.22373C46.8354 5.28977 44.5012 4.41221 42.6183 3.60245C39.1544 2.10722 35.504 1.13551 31.6598 0.80407C28.5539 0.536661 26.7082 2.04696 25.1422 4.28039C21.8386 8.99206 21.8311 14.1105 23.6582 19.3269C25.3696 24.2193 27.7708 28.769 30.9215 32.8856C32.633 35.1228 33.7553 37.5107 33.2184 40.7347C32.0923 41.8721 30.6904 43.1602 29.4375 44.5838C27.2712 47.047 25.0154 49.4612 23.125 52.1316C19.9929 56.5532 16.1412 59.9994 11.3536 62.4852C6.9986 64.745 3.83671 68.161 2.39 73.0045C2.27814 73.3849 2.02086 73.7616 2.03578 74.1344C2.19238 77.8405 2.38254 81.5428 2.58389 85.2451C2.61745 85.8741 2.80301 86.585 2.84116 87.1207C3.18694 87.7446 3.04193 87.6969 3.57087 88.1311C5.34197 89.5849 6.14101 90.2618 7.7667 91.8663C9.95914 94.0244 11.3425 96.7286 12.0845 99.7455C13.0725 103.768 13.8369 107.798 14.0606 111.982C14.18 114.276 15.5148 116.487 16.171 118.773C17.6476 123.906 19.2397 129.017 20.3919 134.23C20.981 136.889 20.843 139.736 20.8132 142.497C20.7796 145.322 20.2353 148.158 20.3471 150.967C20.4925 154.647 19.5977 158.082 18.1733 161.299C15.9734 166.27 16.6185 170.503 19.4336 175.14C23.2107 181.373 29.2511 184.07 35.1946 187.136C36.1603 187.633 37.1409 188.156 37.9799 188.838C40.9479 191.248 44.1023 193.301 47.6818 194.676C48.6177 195.034 49.0576 195.836 49.0092 196.917C48.9421 198.284 49.2068 199.534 50.9891 200.227C52.6185 198.062 55.2509 196.687 56.4925 193.919C56.7759 193.29 57.4993 192.597 58.1406 192.446C60.8998 191.794 61.3584 189.403 61.9625 187.286C62.2384 186.322 62.6224 185.768 63.3421 185.23C66.2877 183.03 68.1147 180.228 68.4727 176.398C68.5845 175.215 69.5614 173.931 70.4712 173.038C72.5891 170.967 74.871 169.061 77.1604 167.182C78.2641 166.278 79.5915 165.89 81.0307 165.532C82.7123 165.114 84.3529 163.976 85.6766 162.779C87.5447 161.091 89.6625 159.961 91.8624 158.85C95.1548 157.189 98.0893 155.031 100.669 152.316C103.369 149.468 106.632 148.015 110.714 149.043C112.646 149.529 114.73 149.988 116.662 149.751C120.364 149.295 124 148.297 127.672 147.585C131.285 146.889 133.646 144.075 136.621 142.305C137.605 141.721 138.571 141.092 139.608 140.621C144.626 138.331 150.007 136.625 154.612 133.684C159.757 130.4 165.279 127.481 169.459 122.743C172.092 119.76 172.028 116.449 171.294 112.924C170.906 111.059 169.269 110.31 167.912 109.587C162.326 106.604 157.501 102.661 153.24 98.0205C151.01 95.5874 149.459 92.7326 149.653 89.196C149.746 87.5049 149.861 85.7799 149.626 84.119C149.235 81.3582 146.834 79.3922 144.078 79.4261C142.151 79.4487 140.227 79.7048 138.299 79.7726C135.148 79.8856 134.943 78.2774 134.753 76.2059C134.656 75.1363 134.447 74.0742 134.402 73.0045C134.369 72.1307 134.276 71.1402 134.615 70.3907C135.54 68.3381 135.297 66.2176 135.055 64.165C134.913 62.9861 134.182 61.7583 133.422 60.7903C130.704 57.3366 128.094 53.7473 125.003 50.6589C121.386 47.0433 117.631 43.5368 112.967 41.1377C106.352 37.7329 99.9051 34.008 93.3651 30.4526C88.5402 27.8275 83.5177 25.6656 78.2753 24.0197C76.795 23.5564 75.4489 22.6601 73.9687 22.1893C71.6159 21.4435 69.3153 21.4699 67.6412 23.4698C65.624 22.2232 63.741 21.0594 61.8581 19.8993" stroke="#222A2F" stroke-miterlimit="10" stroke-linecap="round" stroke-linejoin="round"/>
<path d="M120.243 130.793C120.508 128.552 120.769 126.311 121.034 124.071C120.878 124.067 120.718 124.063 120.562 124.063C119.836 123.451 119.114 122.838 118.562 122.369C118.653 121.511 118.805 120.829 118.776 120.158C118.722 118.991 118.398 117.825 118.457 116.674C118.754 110.924 118.097 105.353 115.919 99.9732C114.906 97.4758 113.872 94.9051 113.429 92.272C112.801 88.5498 112.391 84.6919 114.801 81.285C117.088 78.0505 118.003 74.2586 117.937 70.4703C117.887 67.6466 116.75 64.8008 115.865 62.043C113.668 55.189 108.564 50.8543 102.593 47.6381C99.304 45.8669 95.6159 44.7154 91.7498 44.6017C91.2634 44.587 90.737 44.4623 90.305 44.235C87.5679 42.7974 84.9034 41.2022 82.1082 39.8966C80.7215 39.2512 79.0952 39.1522 77.596 38.7378C76.2311 38.3601 74.8915 37.887 73.2144 37.3516C70.9021 38.5581 68.2339 39.893 65.6202 41.3268C63.0429 42.7424 61.6489 45.0748 61.0899 47.9169C60.7232 49.7835 59.7576 51.3934 58.1458 52.0682C54.1019 53.7514 51.8258 56.9052 50.1814 60.7485C49.8583 61.5003 49.4626 62.2191 49.0996 62.9525" stroke="#222A2F" stroke-width="0.4" stroke-miterlimit="10" stroke-linecap="round" stroke-linejoin="round"/>
<path d="M89.954 132.583C91.1057 131.424 102.133 124.069 103.549 123.875C108.13 123.24 110.058 121.44 110.421 116.856C110.635 114.175 110.849 111.472 110.766 108.791C110.602 103.456 108.903 98.4462 107.411 93.3708C106.076 88.8234 105.705 84.342 108.704 79.934C110.733 76.9562 112.131 73.421 111.895 69.5521C111.746 67.1097 111.648 64.6637 111.528 62.2176C111.521 62.0342 111.604 61.7702 111.513 61.6785C109.491 59.6982 108.951 56.6764 106.653 54.8428C105.222 53.7023 104.108 52.1621 102.794 50.8639C102.424 50.5008 101.861 50.3138 101.356 50.1194C95.8422 47.9777 90.1103 46.6722 84.2949 45.7334C83.714 45.6381 83.0897 45.8764 82.4834 45.8874C81.0314 45.9131 79.5612 46.0451 78.1309 45.8618C75.706 45.55 73.655 45.6527 71.898 47.8641C70.1701 50.0387 68.0683 51.953 65.9192 53.7206C64.921 54.5458 63.4508 54.8575 62.1476 55.2242C58.4448 56.2694 56.2123 58.7447 55.283 62.401C54.7748 64.4033 54.3247 66.3726 53.1086 68.0999C52.7819 68.5656 52.8363 69.299 52.7129 69.9115" stroke="#222A2F" stroke-width="0.4" stroke-miterlimit="10" stroke-linecap="round" stroke-linejoin="round"/>
<path d="M90.4765 117.407C92.3932 117.876 94.1828 117.862 95.5623 116.127C96.8836 114.466 98.4046 112.936 99.4973 111.14C100.437 109.596 100.354 107.615 99.5046 106.068C97.2829 102.015 94.9088 98.0475 92.4367 94.1456C91.4203 92.5467 90.9193 91.0248 91.3731 89.1691C91.6817 87.9039 91.678 86.5251 92.1681 85.3442C92.6436 84.2 93.4822 83.1695 94.3062 82.2161C96.9889 79.1246 99.7187 76.0771 102.467 73.0406C103.737 71.6361 103.011 70.1032 102.797 68.6363C102.55 66.9677 102.017 65.3431 101.752 63.6782C101.16 59.989 99.0508 57.2422 96.2338 55.1372C95.054 54.2571 93.2753 53.9014 91.7506 53.8353C87.5833 53.663 83.405 53.751 79.2304 53.8097C78.6822 53.817 78.007 54.1324 77.6186 54.5321C74.7653 57.4659 70.8049 58.4011 67.4507 60.4107C65.828 61.3825 64.1582 62.4863 62.9493 63.9092C60.9274 66.2893 61.588 70.7303 63.9875 72.8426C65.1201 73.8401 66.3108 74.7716 67.4289 75.7874C69.705 77.8631 69.6251 81.1269 67.2474 83.1109C65.4541 84.6071 63.6209 86.052 61.8059 87.5189" stroke="#222A2F" stroke-width="0.4" stroke-miterlimit="10" stroke-linecap="round" stroke-linejoin="round"/>
<path d="M94.4683 117.406C96.7662 117.406 99.064 117.406 101.58 117.406C104.571 114.986 105.693 111.425 105.297 107.512C104.876 103.343 103.928 99.2097 102.052 95.4251C101.137 93.5842 100.531 91.8019 100.585 89.7189C100.607 88.8718 100.16 87.9329 99.7066 87.1665C98.3997 84.9588 98.4215 83.8733 100.469 81.662C101.373 80.6865 102.426 79.8504 103.355 78.8969C105.783 76.4142 107.315 73.6344 106.847 69.9122C106.313 65.7022 105.925 61.5325 103.573 57.7956C101.064 53.8057 97.3652 51.895 93.0163 50.8352C90.2429 50.1568 87.5058 49.9037 84.6561 50.4318C83.1351 50.7142 81.4108 50.1238 79.9697 50.5638C77.523 51.312 74.8548 52.1077 72.949 53.703C69.7001 56.4241 66.0518 58.0377 62.1422 59.2405C61.329 59.4899 61.0786 59.8199 60.6393 60.5277C58.6863 63.6632 58.218 67.0261 58.0692 70.6493C57.9494 73.5684 56.7769 76.3592 54.8965 78.7209" stroke="#222A2F" stroke-width="0.4" stroke-miterlimit="10" stroke-linecap="round" stroke-linejoin="round"/>
<path d="M62.9043 22.8711C63.692 23.7146 63.5941 23.9713 64.498 24.9394C65.6415 26.0176 62.6031 27.9356 65.0933 29.3658C65.6705 28.7827 66.2949 28.1886 66.8757 27.5542C67.4856 26.8867 70.6438 26.7877 71.7873 27.3671C74.0125 28.493 76.216 29.6885 78.5102 30.6456C81.4252 31.8632 84.4636 32.7873 87.3786 34.0048C89.3207 34.819 91.1394 35.9375 93.0198 36.9056C94.3448 37.5877 95.6879 38.2368 97.0093 38.9299C99.0748 40.0154 101.104 41.1706 103.191 42.2084C104.48 42.8502 105.863 43.2829 107.174 43.8844C108.945 44.6985 110.822 45.3842 112.415 46.4807C116.205 49.0918 119.726 52.1136 122.013 56.1879C124.173 60.0312 125.996 64.0761 127.822 68.0991C128.254 69.0562 128.134 70.2774 128.225 71.3776C128.366 73.0865 128.609 74.8028 128.551 76.5117C128.5 78.0446 128.519 79.8269 127.774 81.0408C126.468 83.1641 126.54 85.4011 126.856 87.5024C127.531 91.9764 129.343 96.1571 132.279 99.564C134.948 102.663 135.88 106.348 136.828 109.41C139.536 112.348 141.867 114.875 144.197 117.401" stroke="#222A2F" stroke-width="0.4" stroke-miterlimit="10" stroke-linecap="round" stroke-linejoin="round"/>
<path d="M49.6367 21.3232C51.5861 19.1558 52.7259 19.0312 55.0928 20.388C58.378 22.2767 61.1115 24.686 62.9374 28.1552C62.4438 29.4681 62.0009 30.8286 63.6961 31.7528C65.7181 29.6845 68.2301 30.6966 70.499 31.111C73.6935 31.6941 76.8335 32.6549 79.9373 33.6451C81.814 34.2428 83.7561 34.936 85.3606 36.0398C90.2794 39.4246 95.5976 41.9184 101.188 43.8693C107.326 46.0147 112.002 49.8653 116.209 54.9407C120.3 59.8768 121.934 65.495 123.582 71.3589C124.228 73.6546 123.197 75.3745 122.566 77.2338C121.284 81.0001 120.261 84.792 120.264 88.8003C120.264 89.4127 120.46 90.0288 120.616 90.6339C121.451 93.8757 122.275 97.1212 123.176 100.348C123.393 101.122 123.891 101.815 124.239 102.556C124.613 103.345 125.372 104.21 125.259 104.929C124.831 107.643 125.989 109.986 126.606 112.458C126.639 112.586 126.809 112.751 126.773 112.817C125.615 114.973 127.071 116.327 128.087 117.592C129.75 117.592 131.26 117.592 132.774 117.592C134.407 117.592 136.041 117.592 137.674 117.592C139.732 117.592 141.907 117.166 143.813 117.705C146.002 118.321 147.936 119.836 150.024 120.878C151.28 121.505 152.619 121.967 154.42 122.711C153.472 123.654 152.852 124.314 152.187 124.923C151.236 125.799 150.242 126.624 149.294 127.501C148.663 128.084 148.078 128.718 147.475 129.331" stroke="#222A2F" stroke-width="0.4" stroke-miterlimit="10" stroke-linecap="round" stroke-linejoin="round"/>
<path d="M129.117 137.223C127.03 138.147 121.188 141.464 118.781 141.156C116.715 140.892 114.548 141.328 112.417 141.614C108.649 142.117 105.553 144.258 101.923 144.955C96.0889 146.073 90.3207 147.456 84.3092 147.386C83.0459 147.372 81.485 148.241 80.5702 149.198C79.3759 150.445 78.472 152.099 77.8294 153.734C76.9582 155.942 75.6768 157.237 73.241 157.218C72.6384 157.215 72.0358 157.468 71.4332 157.603C69.9231 159.224 68.3948 160.86 66.685 162.697C66.1623 162.697 65.4254 162.697 64.5033 162.697C64.3835 164.457 64.4634 166.097 64.1113 167.637C63.7555 169.199 62.9714 170.666 62.2744 172.419C58.3938 175.668 53.5839 176.684 48.3711 176.266" stroke="#222A2F" stroke-width="0.4" stroke-miterlimit="10" stroke-linecap="round" stroke-linejoin="round"/>
<path d="M111.893 138.492C110.623 138.738 109.36 139.09 108.078 139.196C106.575 139.321 105.032 139.38 103.551 139.163C102.785 139.05 102.11 138.28 101.359 137.902C99.7253 137 98.0518 136.167 96.4727 135.174C94.821 134.136 93.692 134.246 92.2835 135.188C90.0583 136.677 87.5136 137.818 85.6404 139.666C82.5476 142.71 79.9629 146.271 77.0117 149.472C75.2946 151.335 73.8897 152.487 71.9802 154.159C71.1344 154.903 69.2395 155.662 68.3501 156.359C66.869 157.522 66.8981 159.66 66.5351 160.76M65.446 160.577C63.994 160.943 62.7235 160.799 61.2896 164.544C60.0009 167.911 57.2167 170.342 53.6301 171.501C53.3215 171.6 53.0239 171.739 52.5229 171.941C50.4574 170.005 47.7384 171.299 45.2845 170.753C45.0848 170.709 44.9178 170.518 44.7363 170.397" stroke="#222A2F" stroke-width="0.4" stroke-miterlimit="10" stroke-linecap="round" stroke-linejoin="round"/>
<path d="M67.9683 66.4304C68.237 67.9669 68.5092 69.4999 68.698 70.5817C70.1863 71.6819 71.2826 72.6427 72.5169 73.3761C76.0381 75.4664 79.0438 78.3342 82.8336 80.0358C86.2786 81.5797 91.0813 80.1422 92.3518 76.1705C93.2267 73.4348 94.9764 70.9814 95.8512 68.242C97.0455 64.5051 95.2595 59.2719 91.7419 57.9921C91.6149 57.9444 91.5024 57.8234 91.3789 57.816C87.8686 57.684 84.3365 57.277 80.8625 57.5667C79.1709 57.706 77.5809 59.1436 75.9546 60.0127C74.8547 60.6031 73.8092 61.3109 72.6766 61.8243C70.5675 62.7815 68.7416 64.0063 67.7832 66.2433" stroke="#222A2F" stroke-width="0.4" stroke-miterlimit="10" stroke-linecap="round" stroke-linejoin="round"/>
<path d="M62.1597 146.192C62.9474 145.704 63.7824 145.279 64.5084 144.714C66.6538 143.038 68.7084 141.245 70.8829 139.609C73.4312 137.691 74.4476 134.666 76.2699 132.223C78.4879 129.253 80.6805 126.433 83.6681 124.075C86.7973 121.603 89.244 118.236 91.9085 115.189C92.9939 113.949 93.8542 112.508 94.8343 111.173C96.1702 109.354 95.6547 106.864 94.2934 105.482C92.0936 103.245 89.901 100.993 87.7629 98.6938C85.9188 96.7135 83.2833 96.3651 81.0363 95.2246C77.9979 93.6843 74.8651 93.809 71.5871 94.4068C69.8519 94.7222 67.9679 94.0987 66.1565 94.1464C62.4138 94.2418 58.8672 94.9532 56.1519 97.9493C55.3169 98.8698 54.2461 99.5666 53.2659 100.351C50.0823 102.904 47.9333 106.19 46.768 110.081C46.2562 111.789 46.1255 113.616 45.8242 115.387C45.3378 118.258 44.6444 121.115 44.4266 124.009C44.1689 127.449 42.7422 130.5 41.8492 133.727C41.5007 134.981 41.3301 136.287 41.1123 137.574C40.9598 138.483 40.8364 139.404 40.7493 140.324C40.3935 143.918 41.3809 147.281 42.5898 150.581C42.862 151.326 43.49 151.935 43.8966 152.518C46.5575 151.693 48.9171 150.956 51.273 150.222" stroke="#222A2F" stroke-width="0.4" stroke-miterlimit="10" stroke-linecap="round" stroke-linejoin="round"/>
<path d="M30.2154 61.4805C30.3134 62.841 29.9214 63.8898 28.7852 64.8067C25.2567 67.6561 21.1692 69.5044 17.1144 71.305C13.6512 72.8416 11.9886 75.1189 11.6365 78.8925C11.3062 82.457 12.4097 85.5559 14.1268 88.3906C15.7095 91.0017 15.9854 93.9025 16.7513 96.6932C17.8041 100.518 18.3813 104.442 18.6209 108.417C18.7116 109.954 18.9185 111.527 19.3832 112.983C19.6663 113.882 20.4432 114.692 21.1619 115.359C22.0731 116.203 23.1512 116.863 24.135 117.585C24.5851 117.585 25.1333 117.585 25.6778 117.585" stroke="#222A2F" stroke-width="0.4" stroke-miterlimit="10" stroke-linecap="round" stroke-linejoin="round"/>
<path d="M46.1878 86.4193C44.9717 86.7713 43.7593 87.1234 42.3762 87.5231C36.666 82.763 30.3642 79.1618 22.4178 80.1703C22.1311 80.746 21.8515 81.3108 21.5176 81.9856C22.0222 83.3131 22.5739 84.7763 23.1366 86.2359C25.0061 91.0546 29.1626 93.684 32.927 96.6985C34.1322 97.6667 35.4282 98.6201 36.3393 99.8377C37.6607 101.609 37.2396 103.769 37.1416 105.856C36.9274 110.374 36.9129 114.903 36.7386 119.421C36.5571 124.056 36.2086 128.677 34.949 133.176C34.8546 133.518 34.9526 133.906 34.9345 134.273C34.7566 137.757 34.321 141.252 34.4771 144.721C34.5896 147.248 35.3882 149.763 36.0598 152.231C36.4736 153.75 37.2577 155.165 37.8349 156.643C38.7134 158.898 40.3579 160.523 42.4016 161.539C44.5869 162.624 46.9719 162.687 49.277 161.601C49.4259 161.532 49.6364 161.594 49.8179 161.594" stroke="#222A2F" stroke-width="0.4" stroke-miterlimit="10" stroke-linecap="round" stroke-linejoin="round"/>
<path d="M48.1838 18.0262C47.1166 15.1914 44.5574 13.4422 41.4681 13.4422C40.5606 13.4422 39.6531 13.4422 38.7456 13.4422C37.5077 11.2308 35.9032 9.66124 32.9156 10.237C30.8864 11.2015 31.0642 13.3101 30.9444 15.2758C30.6649 19.8965 31.4527 24.2532 33.8122 28.3128C35.0683 30.4728 35.9213 32.8748 37.1519 35.0532C37.7509 36.113 38.8617 36.8648 39.6349 37.8403C40.3755 38.7791 40.9781 39.8352 41.6388 40.8364C41.4609 40.8731 41.283 40.9097 41.1051 40.9501C41.1051 42.659 41.0144 44.3753 41.1269 46.0769C41.3157 48.9336 40.6151 51.4897 38.9271 53.7781" stroke="#222A2F" stroke-width="0.4" stroke-miterlimit="10" stroke-linecap="round" stroke-linejoin="round"/>
<path d="M80.1302 59.6473C77.8904 61.5432 75.6397 63.4209 73.4217 65.3388C72.4815 66.153 72.104 67.1908 72.4997 68.4486C72.6304 68.8557 72.6739 69.2921 72.7357 69.6111C73.8283 70.4583 74.9173 71.2541 75.9483 72.1195C78.591 74.3455 81.5786 75.9041 85.0272 75.8931C87.3142 75.8858 88.9477 74.3162 90.1239 72.3066C91.7066 69.6001 91.801 66.6224 91.4888 63.6886C91.2964 61.8696 89.4342 61.1545 87.9168 60.6081C86.1707 59.9847 84.323 59.5519 82.4825 59.3209C80.6057 59.0825 78.7725 59.3209 77.1971 60.7144C76.1879 61.6092 74.99 62.3647 73.763 62.9148C70.5503 64.3523 69.5339 67.5318 71.8172 70.0622C73.5669 72.0059 75.5054 73.8541 77.6327 75.3467C79.426 76.6046 81.6149 77.2903 83.557 78.1961C86.1344 78.0458 88.7662 77.9614 91.2601 74.7233C91.9825 72.2882 92.9554 68.6833 94.1569 65.1628C94.5454 64.0186 94.3747 63.2595 93.7504 62.3904C93.0643 61.4296 92.4399 60.4211 91.6957 59.2952C88.2435 59.1082 84.7332 58.9175 81.2192 58.7305" stroke="#222A2F" stroke-width="0.4" stroke-miterlimit="10" stroke-linecap="round" stroke-linejoin="round"/>
<path d="M39.6545 69.9141C36.0316 71.5276 32.8117 73.9003 29.1489 75.4626C27.2322 76.2804 25.2792 76.3611 23.319 76.4784C20.7561 76.6324 18.716 77.6153 16.9336 80.1163C18.1715 83.9706 19.5182 88.0192 20.7706 92.1008C22.5058 97.7704 24.3826 103.414 25.7874 109.168C26.7276 113.019 28.0345 116.682 29.443 120.353C30.1 122.073 30.3977 123.987 30.5429 125.836C30.8042 129.125 31.0148 132.44 30.8914 135.734C30.7679 139.041 30.2706 142.342 29.8423 145.635C29.2723 150.014 29.9838 154.213 31.5121 158.28C32.3253 160.451 32.7718 162.834 34.5759 164.521" stroke="#222A2F" stroke-width="0.4" stroke-miterlimit="10" stroke-linecap="round" stroke-linejoin="round"/>
<path d="M33.8459 65.1484C31.5444 66.7657 30.1577 69.4098 27.515 70.6896C25.8342 71.5038 24.4185 72.8643 22.7486 73.7114C21.8084 74.1918 20.5488 73.9901 19.5215 74.3495C18.2001 74.8153 16.9114 75.4387 15.7099 76.1685C13.2414 77.6647 14.2324 80.0924 14.6971 81.992C15.4521 85.0688 16.8061 87.9953 17.8661 91.0024C18.3998 92.5133 19.0895 94.0242 19.2819 95.5901C19.8627 100.31 20.8791 104.927 22.048 109.518C22.2332 110.252 22.5236 110.978 22.5708 111.719C22.6833 113.479 23.4638 114.817 24.7561 115.951C25.2679 116.398 25.6164 117.032 26.0412 117.583" stroke="#222A2F" stroke-width="0.4" stroke-miterlimit="10" stroke-linecap="round" stroke-linejoin="round"/>
<path d="M61.07 141.428C61.6762 141.307 62.3841 141.348 62.8669 141.036C67.1286 138.278 71.4049 135.473 74.2945 131.145C78.4038 124.988 83.8562 119.975 88.2668 114.089C89.4683 112.486 90.3359 110.627 91.3632 108.878C91.091 108.21 90.9893 107.572 90.6336 107.158C88.2813 104.411 85.7656 101.84 82.1174 100.92C79.736 100.319 77.6705 98.6793 75.0423 98.8663C73.2962 98.991 71.5283 98.7967 69.7822 98.914C67.4771 99.0644 65.1829 99.3761 62.885 99.6291C62.5184 99.6695 62.1045 99.6511 61.8033 99.8235C56.3944 102.941 51.4647 106.586 49.6787 113.026C48.8692 115.945 48.5679 119.007 47.9907 121.996C47.6131 123.961 47.0723 125.894 46.7455 127.867C46.2519 130.848 45.7872 133.844 45.4895 136.852C45.3044 138.729 45.377 140.643 45.475 142.532C45.613 145.165 47.0577 146.012 49.6315 145.106C49.7948 145.048 49.9909 145.099 50.1724 145.099" stroke="#222A2F" stroke-width="0.4" stroke-miterlimit="10" stroke-linecap="round" stroke-linejoin="round"/>
<path d="M64.1715 134.054C63.8209 134.282 56.2651 136.938 55.8249 137.027C53.9558 137.69 51.6416 137.075 51.5414 135.148C51.4702 133.766 51.4175 132.366 51.5519 130.992C51.7681 128.791 52.1055 126.598 52.4641 124.417C52.7013 122.973 53.0941 121.559 53.3683 120.12C53.7874 117.933 54.0062 115.692 54.5941 113.556C55.8911 108.843 59.4711 106.176 63.3991 103.895C63.6179 103.769 63.9184 103.782 64.1847 103.753C65.8534 103.567 67.5195 103.339 69.1935 103.229C70.4615 103.143 71.7453 103.286 73.0134 103.194C74.922 103.058 76.422 104.257 78.1513 104.697C80.8007 105.371 82.6276 107.252 84.3359 109.262C84.5942 109.565 84.6681 110.032 84.8658 110.521C84.1197 111.801 83.4897 113.161 82.6171 114.334C79.4141 118.641 75.4545 122.31 72.4703 126.816C70.3719 129.982 67.2664 132.035 64.1715 134.054Z" stroke="#222A2F" stroke-width="0.4" stroke-miterlimit="10" stroke-linecap="round" stroke-linejoin="round"/>
<path d="M66.6006 126.106C66.3834 126.249 61.7021 127.906 61.4294 127.961C60.2714 128.374 58.8375 127.991 58.7755 126.789C58.7314 125.927 58.6987 125.053 58.782 124.196C58.9159 122.824 59.125 121.456 59.3471 120.095C59.4941 119.195 59.7375 118.313 59.9073 117.416C60.167 116.051 60.3026 114.654 60.6668 113.321C61.4704 110.382 63.6885 108.718 66.1221 107.295C66.2576 107.217 66.4438 107.225 66.6088 107.206C67.6427 107.091 68.6749 106.949 69.7121 106.88C70.4977 106.827 71.2931 106.915 72.0788 106.858C73.2613 106.773 74.1906 107.521 75.2621 107.796C76.9035 108.216 78.0354 109.389 79.0938 110.643C79.2539 110.832 79.2996 111.123 79.4221 111.428C78.9599 112.226 78.5695 113.075 78.0289 113.807C76.0444 116.493 73.5912 118.781 71.7423 121.592C70.4422 123.567 68.5181 124.848 66.6006 126.106Z" stroke="#222A2F" stroke-width="0.4" stroke-miterlimit="10" stroke-linecap="round" stroke-linejoin="round"/>
<path d="M69.304 117.753C69.2125 117.812 67.2415 118.497 67.1266 118.52C66.639 118.691 66.0353 118.533 66.0092 118.035C65.9906 117.679 65.9769 117.317 66.0119 116.962C66.0683 116.394 66.1564 115.828 66.2499 115.265C66.3118 114.893 66.4142 114.528 66.4858 114.156C66.5951 113.592 66.6522 113.014 66.8055 112.462C67.1439 111.246 68.0778 110.557 69.1025 109.969C69.1596 109.936 69.238 109.94 69.3074 109.932C69.7427 109.884 70.1774 109.825 70.6141 109.797C70.9449 109.775 71.2798 109.811 71.6106 109.788C72.1085 109.753 72.4998 110.062 72.9509 110.176C73.6421 110.35 74.1186 110.835 74.5643 111.354C74.6317 111.432 74.6509 111.553 74.7025 111.679C74.5079 112.009 74.3435 112.36 74.1159 112.663C73.2803 113.775 72.2474 114.722 71.4689 115.885C70.9215 116.702 70.1114 117.232 69.304 117.753Z" stroke="#222A2F" stroke-width="0.4" stroke-miterlimit="10" stroke-linecap="round" stroke-linejoin="round"/>
<path d="M138.03 136.293C134.702 138.248 131.395 140.239 128.033 142.135C127.285 142.557 126.367 142.788 125.503 142.868C122.617 143.14 119.698 143.129 116.965 144.335C116.558 144.515 116.006 144.387 115.524 144.354C114.173 144.266 113.023 144.574 111.868 145.421C109.668 147.038 107.258 146.847 104.8 145.861C104.172 145.608 103.236 145.571 102.662 145.868C100.785 146.844 98.9704 147.962 97.2025 149.136C94.146 151.167 91.0967 153.214 88.1381 155.385C86.7478 156.404 85.2123 156.008 83.7529 156.224C82.7619 156.371 81.7019 156.041 80.4931 155.905C77.9048 157.867 74.9463 159.65 72.5831 162.037C70.4704 164.168 68.7606 166.856 68.3504 170.028C67.9983 172.756 66.8657 174.821 64.1503 175.694C63.2791 175.972 62.3534 176.071 61.1882 176.31C59.5873 180.3 55.7938 182.841 52.7482 186.164C52.4178 186.164 51.935 186.164 51.2308 186.164C50.9295 184.975 50.6173 183.74 50.2615 182.335C49.4738 182.163 48.5372 182.027 47.6406 181.748C46.2321 181.312 44.7365 180.986 43.4878 180.248C41.5783 179.119 39.5237 178.448 37.4727 177.729" stroke="#222A2F" stroke-width="0.4" stroke-miterlimit="10" stroke-linecap="round" stroke-linejoin="round"/>
<path d="M26.2227 117.953C27.6674 119.215 27.7292 121.056 27.9978 122.728C28.3971 125.207 28.6875 127.73 28.7165 130.238C28.7456 132.743 28.4261 135.251 28.212 137.756C27.7691 143.004 26.6183 148.215 27.3153 153.525C28.0159 158.868 29.1267 164.094 32.0381 168.741C32.3321 169.21 32.6734 169.753 33.1344 170.002C34.4231 170.695 35.7807 171.253 37.113 171.865" stroke="#222A2F" stroke-width="0.4" stroke-miterlimit="10" stroke-linecap="round" stroke-linejoin="round"/>
<path d="M43.2826 76.8828C41.5874 77.4329 39.9284 78.192 38.1932 78.4891C34.8426 79.0612 31.463 79.3802 28.0325 78.9365C25.1865 78.5661 22.2933 78.3534 19.4256 79.2115C18.8992 82.4093 20.1225 84.9177 21.5165 87.3308C25.2228 93.7448 28.8348 100.181 30.6136 107.501C31.5392 111.314 32.3052 115.117 32.4286 119.06C32.4867 120.901 33.0203 122.723 33.0893 124.564C33.1728 126.882 33.0748 129.214 32.9259 131.528C32.6863 135.262 32.327 138.984 32.0366 142.713C31.6155 148.111 33.0058 153.106 34.8317 158.156C36.3056 162.234 39.1298 164.299 42.7418 165.817" stroke="#222A2F" stroke-width="0.4" stroke-miterlimit="10" stroke-linecap="round" stroke-linejoin="round"/>
<path d="M52.3588 94.1172C48.2459 99.2293 44.4197 104.532 42.2308 110.818C41.6245 112.563 41.414 114.463 41.1163 116.308C40.3576 120.947 40.0273 125.699 38.8148 130.21C37.7911 134.009 37.3737 137.739 37.4681 141.612C37.5225 143.812 37.4898 146.012 37.4753 148.213C37.4644 150.303 37.9146 152.184 39.461 153.728C40.619 154.883 41.5991 156.214 42.7571 157.366C44.0131 158.613 45.3418 158.708 46.714 157.538C48.2168 156.258 50.0137 155.939 51.8179 155.547" stroke="#222A2F" stroke-width="0.4" stroke-miterlimit="10" stroke-linecap="round" stroke-linejoin="round"/>
<path d="M101.003 117.953C97.4348 120.52 93.8628 123.087 90.2944 125.658C89.9786 125.885 89.5611 126.08 89.405 126.399C88.1635 128.911 86.0835 130.601 83.9453 132.266C81.1538 134.445 79.0374 137.254 77.059 140.155C76.1079 141.548 75.4617 143.162 74.4744 144.522C73.0187 146.525 71.1964 148.072 68.7279 148.032C66.4772 150.606 64.3282 153.085 62.1429 155.531C61.8888 155.814 61.4314 155.913 61.0684 156.096" stroke="#222A2F" stroke-width="0.4" stroke-miterlimit="10" stroke-linecap="round" stroke-linejoin="round"/>
<path d="M49.2735 21.6897C48.729 21.2607 48.0356 20.9343 47.669 20.3879C46.6417 18.855 45.2913 18.1655 43.4726 17.9675C42.2892 17.8391 41.1711 17.157 40.0167 16.7426C39.0075 16.3832 37.9839 16.0569 37.0146 15.7305C34.6986 17.146 35.1814 19.3464 35.3302 21.323C35.6933 26.1931 38.0891 30.194 40.9242 33.9786C42.7647 36.4357 43.2366 36.8317 48.533 39.2704C48.7036 40.7373 49.0593 42.3986 49.063 44.0635C49.0702 47.8188 49.386 51.5703 48.0792 55.2742C47.3314 57.3939 45.6216 58.4537 44.3765 60.016" stroke="#222A2F" stroke-width="0.4" stroke-miterlimit="10" stroke-linecap="round" stroke-linejoin="round"/>
<path d="M24.043 117.953C25.6184 120.997 26.2464 124.257 26.2247 127.671C26.2065 130.909 26.4461 134.17 26.1666 137.386C25.7745 141.926 24.9396 146.429 24.4387 150.962C24.2317 152.832 24.3116 154.754 24.4314 156.639C24.5548 158.542 24.9795 160.423 25.1066 162.327C25.2591 164.63 26.6566 166.379 27.4916 168.374C27.7747 169.052 28.0942 169.72 28.3955 170.391" stroke="#222A2F" stroke-width="0.4" stroke-miterlimit="10" stroke-linecap="round" stroke-linejoin="round"/>
<path d="M89.9547 132.586C88.6224 133.319 87.4695 134.131 86.1155 134.821C82.7286 136.544 80.0423 138.884 78.4523 142.511C77.1999 145.371 75.6934 148.18 73.0325 150.021C71.9254 150.788 70.604 151.22 69.4242 151.891C66.5964 153.501 64.4764 155.812 62.8646 158.654C62.2003 159.824 61.3871 160.935 60.4941 161.936" stroke="#222A2F" stroke-width="0.4" stroke-miterlimit="10" stroke-linecap="round" stroke-linejoin="round"/>
<path d="M93.3786 117.953C88.4779 122.842 83.4647 127.624 78.7238 132.67C76.3897 135.152 74.4512 138.05 72.5308 140.892C69.732 145.039 65.2997 147.28 61.7893 150.584C61.724 150.647 61.5534 150.591 61.4336 150.591" stroke="#222A2F" stroke-width="0.4" stroke-miterlimit="10" stroke-linecap="round" stroke-linejoin="round"/>
<path d="M55.8077 30.6727C55.3902 28.0653 54.3157 26.0263 51.2954 25.5312C50.0067 26.5177 48.522 26.4811 46.903 25.9383C45.6833 25.5276 44.3801 25.5129 43.2656 26.4737C44.0642 30.68 46.8848 33.1591 50.5658 34.659C52.8092 35.5721 55.2994 33.5955 55.8077 30.8597" stroke="#222A2F" stroke-width="0.4" stroke-miterlimit="10" stroke-linecap="round" stroke-linejoin="round"/>
<path d="M33.8454 87.3365C33.8454 87.1532 33.9252 86.9038 33.8345 86.7975C32.1973 84.8685 30.139 83.5996 27.6669 83.1706C27.1188 83.0752 26.3129 83.4713 25.9208 83.9077C25.703 84.1497 25.9898 85.0152 26.2475 85.4883C26.7086 86.3281 27.3221 87.0835 27.6379 87.5456C29.5509 88.356 31.1555 89.0381 32.9088 89.7826C33.2754 89.0381 33.653 88.279 34.0269 87.5199" stroke="#222A2F" stroke-width="0.4" stroke-miterlimit="10" stroke-linecap="round" stroke-linejoin="round"/>
<path d="M61.0715 36.908C61.6595 36.2955 62.578 35.8225 62.0117 34.6966C60.2039 34.7626 58.5013 34.6343 57.307 32.8557C57.8007 32.2176 58.2545 31.6345 58.8063 30.9304C58.8063 30.3143 58.8063 29.5808 58.8063 28.9757C57.9822 27.6225 57.1909 26.317 56.3959 25.0115C52.1886 21.7476 50.7329 21.7109 49.0812 25.0225C48.0466 23.8966 47.1137 22.8808 45.7197 21.3626C43.9555 20.5924 41.6613 22.0153 39.2109 21.8943C39.4179 22.305 39.6538 22.5544 39.6465 22.7928C39.4941 27.1201 41.9444 30.4976 43.9664 33.9008C44.7577 35.232 46.983 35.6941 48.5585 36.5412C48.8453 36.6953 49.1611 36.7906 49.4624 36.9116" stroke="#222A2F" stroke-width="0.4" stroke-miterlimit="10" stroke-linecap="round" stroke-linejoin="round"/>
<path d="M128.41 117.953C130.908 120.487 133.554 122.908 135.119 126.208C136.066 128.203 136.411 130.231 135.137 132.263C134.107 133.74 129.884 136.832 129.116 137.219" stroke="#222A2F" stroke-width="0.4" stroke-miterlimit="10" stroke-linecap="round" stroke-linejoin="round"/>
<path d="M82.6703 69.3658C82.9135 68.3977 83.6795 67.4662 82.7901 66.3917C82.3073 66.2523 81.7591 66.0946 80.7717 65.8086C80.6229 66.487 80.3652 67.1875 80.3361 67.8989C80.2817 69.2191 81.2727 69.5345 82.3109 69.7325" stroke="#222A2F" stroke-width="0.4" stroke-miterlimit="10" stroke-linecap="round" stroke-linejoin="round"/>
<path d="M48.1854 75.9644C48.5521 76.1844 48.9187 76.4081 49.5467 76.7858C49.5467 75.5976 49.5467 74.8642 49.5467 74.0391C49.1547 74.0391 48.8534 74.0391 48.3851 74.0391C48.2762 74.5378 48.1382 75.1612 48.0039 75.781" stroke="#222A2F" stroke-width="0.4" stroke-miterlimit="10" stroke-linecap="round" stroke-linejoin="round"/>
<path d="M61.2519 150.41C61.2519 149.915 61.2519 149.416 61.2519 148.852C60.7074 148.852 60.3444 148.852 59.8906 148.852C59.8906 149.677 59.8906 150.41 59.8906 151.598C60.5186 151.217 60.8853 150.997 61.2519 150.777" stroke="#222A2F" stroke-width="0.4" stroke-miterlimit="10" stroke-linecap="round" stroke-linejoin="round"/>
<path d="M55.0812 167.099C54.8888 167.491 54.6927 167.88 54.5003 168.273C54.3515 168.24 54.2063 168.21 54.0575 168.177C53.6836 167.29 53.4549 166.413 54.6347 165.562C54.7907 166.036 54.936 166.476 55.0812 166.916" stroke="#222A2F" stroke-width="0.4" stroke-miterlimit="10" stroke-linecap="round" stroke-linejoin="round"/>
<path d="M53.6297 90.4533C54.2976 90.391 54.9256 90.4973 54.6752 91.3555C54.5844 91.6599 53.9854 91.8102 53.3574 92.1916C53.3574 91.0034 53.3574 90.27 53.3574 89.2578C53.9782 89.4448 54.4392 89.5805 54.9002 89.7199" stroke="#222A2F" stroke-width="0.4" stroke-miterlimit="10" stroke-linecap="round" stroke-linejoin="round"/>
<path d="M50.9073 165.996C50.9073 166.744 50.9073 167.492 50.9073 168.57C49.3391 167.496 49.4916 166.601 50.1813 165.629" stroke="#222A2F" stroke-width="0.4" stroke-miterlimit="10" stroke-linecap="round" stroke-linejoin="round"/>
<path d="M38.927 172.966C39.4389 172.834 39.9471 172.702 40.4589 172.57C40.6186 172.831 40.7784 173.091 40.9381 173.351C40.223 173.729 39.5078 174.107 38.7891 174.485C38.8871 174.657 38.9851 174.826 39.0795 174.998C39.6312 175.057 40.1867 175.112 40.7384 175.17" stroke="#222A2F" stroke-width="0.4" stroke-miterlimit="10" stroke-linecap="round" stroke-linejoin="round"/>
<path d="M36.7512 62.9468C37.2631 62.8148 37.7713 62.6828 38.2831 62.5508C38.4429 62.8112 38.6026 63.0715 38.7623 63.3319C38.0472 63.7096 37.332 64.0874 36.6133 64.4651C36.7113 64.6374 36.8093 64.8061 36.9037 64.9785C37.4555 65.0372 38.0109 65.0922 38.5627 65.1508" stroke="#222A2F" stroke-width="0.4" stroke-miterlimit="10" stroke-linecap="round" stroke-linejoin="round"/>
<path d="M51.27 145.277C50.965 145.915 50.8525 146.543 51.8145 146.543C52.7765 146.543 52.6639 145.915 52.359 145.277" stroke="#222A2F" stroke-width="0.4" stroke-miterlimit="10" stroke-linecap="round" stroke-linejoin="round"/>
<path d="M47.0964 76.5166C47.0964 75.7611 47.0964 75.0094 47.0964 74.2539C46.9584 74.2576 46.8205 74.2612 46.6826 74.2612C46.2578 74.6903 45.8367 75.1157 45.1797 75.7795C46.2433 75.7795 47.0347 75.7795 47.826 75.7795" stroke="#222A2F" stroke-width="0.4" stroke-miterlimit="10" stroke-linecap="round" stroke-linejoin="round"/>
<path d="M59.6192 162.879C58.7734 163.55 57.9239 164.225 57.0781 164.896" stroke="#222A2F" stroke-width="0.4" stroke-miterlimit="10" stroke-linecap="round" stroke-linejoin="round"/>
<path d="M42.9208 68.2656C42.8591 68.6947 42.801 69.1201 42.7393 69.5492C42.3146 69.4281 41.8935 69.3035 41.4688 69.1824" stroke="#222A2F" stroke-width="0.4" stroke-miterlimit="10" stroke-linecap="round" stroke-linejoin="round"/>
<path d="M114.069 134.641C114.008 135.07 113.949 135.495 113.888 135.924C113.463 135.803 113.042 135.678 112.617 135.557" stroke="#222A2F" stroke-width="0.4" stroke-miterlimit="10" stroke-linecap="round" stroke-linejoin="round"/>
<path d="M51.9961 148.758C52.5406 148.758 53.0851 148.758 53.7204 148.758C53.2666 149.675 52.9036 150.408 52.5406 151.142" stroke="#222A2F" stroke-width="0.4" stroke-miterlimit="10" stroke-linecap="round" stroke-linejoin="round"/>
<path d="M113.343 134.458C113.666 134.33 113.993 134.201 114.316 134.069C114.28 133.886 114.243 133.699 114.207 133.516C113.677 133.585 113.147 133.655 112.617 133.725" stroke="#222A2F" stroke-width="0.4" stroke-miterlimit="10" stroke-linecap="round" stroke-linejoin="round"/>
<path d="M42.1948 68.0831C42.5179 67.9547 42.8446 67.8264 43.1676 67.6944C43.1313 67.511 43.095 67.324 43.0587 67.1406C42.5287 67.2103 41.9987 67.28 41.4688 67.3497" stroke="#222A2F" stroke-width="0.4" stroke-miterlimit="10" stroke-linecap="round" stroke-linejoin="round"/>
<path d="M52.54 144.544C52.1734 143.535 51.6252 144.004 51.0117 144.305C51.3457 145.387 51.8829 145.303 52.54 144.727" stroke="#222A2F" stroke-width="0.4" stroke-miterlimit="10" stroke-linecap="round" stroke-linejoin="round"/>
<path d="M48.1846 166.547C47.8905 166.679 47.5929 166.807 47.2988 166.939C47.4114 167.115 47.5239 167.288 47.6401 167.464C47.9414 167.464 48.2463 167.464 48.5476 167.464" stroke="#222A2F" stroke-width="0.4" stroke-miterlimit="10" stroke-linecap="round" stroke-linejoin="round"/>
<path d="M48.7285 165.629C48.7285 166.483 48.7285 167.342 48.7285 168.196" stroke="#222A2F" stroke-width="0.4" stroke-miterlimit="10" stroke-linecap="round" stroke-linejoin="round"/>
<path d="M54.1728 143.992C53.9187 144.762 53.6682 145.536 53.3633 146.468C54.1728 146.468 54.5358 146.468 55.2255 146.468C54.7137 145.584 55.8245 144.487 54.3543 143.992" stroke="#222A2F" stroke-width="0.4" stroke-miterlimit="10" stroke-linecap="round" stroke-linejoin="round"/>
<path d="M56.7158 143.992C56.4617 144.762 56.2112 145.536 55.9062 146.468C56.7158 146.468 57.0788 146.468 57.7685 146.468C57.2567 145.584 58.3675 144.487 56.8973 143.992" stroke="#222A2F" stroke-width="0.4" stroke-miterlimit="10" stroke-linecap="round" stroke-linejoin="round"/>
<path d="M61.4345 89.3516C61.1804 90.1217 60.9299 90.8955 60.625 91.8269C61.4345 91.8269 61.7975 91.8269 62.4872 91.8269C61.9754 90.9431 63.0862 89.8466 61.616 89.3516" stroke="#222A2F" stroke-width="0.4" stroke-miterlimit="10" stroke-linecap="round" stroke-linejoin="round"/>
<path d="M58.8915 89.3516C58.6374 90.1217 58.387 90.8955 58.082 91.8269C58.8915 91.8269 59.2546 91.8269 59.9443 91.8269C59.4324 90.9431 60.5432 89.8466 59.0731 89.3516" stroke="#222A2F" stroke-width="0.4" stroke-miterlimit="10" stroke-linecap="round" stroke-linejoin="round"/>
<path d="M56.3525 89.3516C56.0984 90.1217 55.8479 90.8955 55.543 91.8269C56.3525 91.8269 56.7155 91.8269 57.4052 91.8269C56.8934 90.9431 58.0042 89.8466 56.534 89.3516" stroke="#222A2F" stroke-width="0.4" stroke-miterlimit="10" stroke-linecap="round" stroke-linejoin="round"/>
<path d="M28.7629 85.6836C28.6721 86.3914 28.6975 86.4464 29.4889 87.1505C30.5598 86.186 30.2476 85.7496 28.9444 85.6836" stroke="#222A2F" stroke-width="0.4" stroke-miterlimit="10" stroke-linecap="round" stroke-linejoin="round"/>
<path d="M24.227 81.2812C22.8874 82.1064 22.6297 83.0269 23.8422 84.237C24.1761 84.5708 24.1689 85.2272 24.423 85.6746C24.9239 86.5547 25.316 87.6586 26.0783 88.1977C28.0277 89.5765 30.1223 90.7574 32.2277 91.8906C33.4874 92.569 36.5149 90.9004 37.1175 89.3492C37.2155 89.0961 37.3607 88.8614 37.5168 88.5497C36.1773 84.3837 32.529 83.4156 28.9461 82.3924C27.4505 81.9634 25.9222 81.648 24.4121 81.2812" stroke="#222A2F" stroke-width="0.4" stroke-miterlimit="10" stroke-linecap="round" stroke-linejoin="round"/>
<path d="M59.2548 143.992C59.008 144.744 58.7611 145.496 58.4453 146.468C59.2548 146.468 59.6178 146.468 60.3076 146.468C59.7957 145.584 60.9065 144.487 59.4363 143.992" stroke="#222A2F" stroke-width="0.4" stroke-miterlimit="10" stroke-linecap="round" stroke-linejoin="round"/>
<path d="M55.2626 148.758C55.0085 149.528 54.7581 150.302 54.4531 151.233C55.2626 151.233 55.6257 151.233 56.3154 151.233C55.8035 150.349 56.9143 149.253 55.4441 148.758" stroke="#222A2F" stroke-width="0.4" stroke-miterlimit="10" stroke-linecap="round" stroke-linejoin="round"/>
<path d="M53.8115 73.9492C53.5574 74.7193 53.3069 75.4931 53.002 76.4246C53.8115 76.4246 54.1745 76.4246 54.8642 76.4246C54.3524 75.5408 55.4632 74.4443 53.993 73.9492" stroke="#222A2F" stroke-width="0.4" stroke-miterlimit="10" stroke-linecap="round" stroke-linejoin="round"/>
<path d="M51.2705 73.9492C51.0163 74.7193 50.7659 75.4931 50.4609 76.4246C51.2705 76.4246 51.6335 76.4246 52.3232 76.4246C51.8113 75.5408 52.9222 74.4443 51.452 73.9492" stroke="#222A2F" stroke-width="0.4" stroke-miterlimit="10" stroke-linecap="round" stroke-linejoin="round"/>
<path d="M57.8056 148.758C57.5515 149.528 57.301 150.302 56.9961 151.233C57.8056 151.233 58.1686 151.233 58.8583 151.233C58.3465 150.349 59.4573 149.253 57.9871 148.758" stroke="#222A2F" stroke-width="0.4" stroke-miterlimit="10" stroke-linecap="round" stroke-linejoin="round"/>
<path d="M49.8173 66.9805C49.5632 67.7506 49.3127 68.5244 49.0078 69.4559C49.8173 69.4559 50.1803 69.4559 50.8701 69.4559C50.3582 68.572 51.469 67.4755 49.9988 66.9805" stroke="#222A2F" stroke-width="0.4" stroke-miterlimit="10" stroke-linecap="round" stroke-linejoin="round"/>
<path d="M47.2783 66.9805C47.0242 67.7506 46.7737 68.5244 46.4688 69.4559C47.2783 69.4559 47.6413 69.4559 48.331 69.4559C47.8192 68.572 48.93 67.4755 47.4598 66.9805" stroke="#222A2F" stroke-width="0.4" stroke-miterlimit="10" stroke-linecap="round" stroke-linejoin="round"/>
<path d="M44.7353 66.9805C44.4812 67.7506 44.2307 68.5244 43.9258 69.4559C44.7353 69.4559 45.0983 69.4559 45.788 69.4559C45.2762 68.572 46.387 67.4755 44.9168 66.9805" stroke="#222A2F" stroke-width="0.4" stroke-miterlimit="10" stroke-linecap="round" stroke-linejoin="round"/>
<path d="M81.9447 62.9453C80.5544 63.9245 79.0914 64.8156 77.7918 65.9084C76.8226 66.7189 76.8117 67.8887 77.4107 68.9962C78.8264 71.6147 81.1461 72.7002 84.1191 72.0951C84.5729 72.0034 85.2227 71.721 85.3497 71.3653C85.9487 69.693 86.3952 67.9694 86.9107 66.2018C85.956 64.1482 83.9558 63.7704 82.1262 63.1287" stroke="#222A2F" stroke-width="0.4" stroke-miterlimit="10" stroke-linecap="round" stroke-linejoin="round"/>
<path d="M45.0986 62.5781C44.8517 63.3299 44.6049 64.0817 44.2891 65.0535C45.0986 65.0535 45.4616 65.0535 46.1513 65.0535C45.6395 64.1697 46.7503 63.0732 45.2801 62.5781" stroke="#222A2F" stroke-width="0.4" stroke-miterlimit="10" stroke-linecap="round" stroke-linejoin="round"/>
<path d="M42.5576 62.5781C42.3035 63.3482 42.053 64.122 41.748 65.0535C42.5576 65.0535 42.9206 65.0535 43.6103 65.0535C43.0984 64.1697 44.2093 63.0732 42.7391 62.5781" stroke="#222A2F" stroke-width="0.4" stroke-miterlimit="10" stroke-linecap="round" stroke-linejoin="round"/>
<path d="M40.0165 62.5781C39.7624 63.3482 39.512 64.122 39.207 65.0535C40.0165 65.0535 40.3796 65.0535 41.0693 65.0535C40.5574 64.1697 41.6682 63.0732 40.1981 62.5781" stroke="#222A2F" stroke-width="0.4" stroke-miterlimit="10" stroke-linecap="round" stroke-linejoin="round"/>
<path d="M81.0371 60.7461C79.418 61.2558 78.4851 62.5064 77.5667 63.8486C76.7064 65.0991 75.6681 66.2213 74.7461 67.3508C76.6664 72.3566 80.2675 74.3992 85.2117 74.2929C85.7599 74.2819 86.4387 74.0985 86.8235 73.7428C88.9907 71.7258 90.5661 67.0831 89.4009 64.2263C88.9072 63.0161 88.1848 62.2533 86.8489 62.0113C84.9576 61.6666 83.0954 61.1752 81.2186 60.7498" stroke="#222A2F" stroke-width="0.4" stroke-miterlimit="10" stroke-linecap="round" stroke-linejoin="round"/>
<path d="M80.3104 55.6133C78.7385 56.4677 77.1558 57.3075 75.5949 58.184C73.1082 59.5776 70.6107 60.9564 68.1568 62.4087C64.8643 64.356 64.9441 65.2874 65.5794 69.1894C65.8916 71.1183 67.2601 72.2222 68.5561 73.1573C71.1988 75.068 74.092 76.6192 76.8545 78.3648C77.4644 78.7499 78.1033 79.2339 78.4699 79.8317C79.9474 82.2301 81.8859 83.95 85.1094 84.6248C85.9734 84.0673 87.1386 83.3266 88.2966 82.5638C88.9137 82.1567 89.4546 81.5553 90.1226 81.3096C93.7454 79.9784 95.9634 77.1839 97.7022 73.9311C98.1633 73.073 98.4283 71.9911 98.421 71.0157C98.4065 68.0819 98.3375 65.1371 98.0653 62.218C97.793 59.2952 95.6222 57.2562 92.856 56.2917C90.874 55.5986 89.0372 55.6903 87.0188 55.903C84.8771 56.1267 82.67 55.738 80.4919 55.6133" stroke="#222A2F" stroke-width="0.4" stroke-miterlimit="10" stroke-linecap="round" stroke-linejoin="round"/>
<path d="M52.1777 165.812C53.6661 166.495 53.2885 167.323 52.2939 168.255C51.3972 167.602 51.4009 166.847 51.9962 165.996" stroke="#222A2F" stroke-width="0.4" stroke-miterlimit="10" stroke-linecap="round" stroke-linejoin="round"/>
<path d="M42.1962 172.598C41.9421 173.368 41.6916 174.142 41.3867 175.073C42.1962 175.073 42.5592 175.073 43.249 175.073C42.7371 174.189 43.8479 173.093 42.3777 172.598" stroke="#222A2F" stroke-width="0.4" stroke-miterlimit="10" stroke-linecap="round" stroke-linejoin="round"/>
<path d="M44.7353 172.598C44.4812 173.368 44.2307 174.142 43.9258 175.073C44.7353 175.073 45.0983 175.073 45.788 175.073C45.2762 174.189 46.387 173.093 44.9168 172.598" stroke="#222A2F" stroke-width="0.4" stroke-miterlimit="10" stroke-linecap="round" stroke-linejoin="round"/>
<path d="M47.2783 172.598C47.0242 173.368 46.7737 174.142 46.4688 175.073C47.2783 175.073 47.6413 175.073 48.331 175.073C47.8192 174.189 48.93 173.093 47.4598 172.598" stroke="#222A2F" stroke-width="0.4" stroke-miterlimit="10" stroke-linecap="round" stroke-linejoin="round"/>
<path d="M120.968 133.359C120.714 134.129 120.463 134.903 120.158 135.835C120.968 135.835 121.331 135.835 122.02 135.835C121.509 134.951 122.619 133.854 121.149 133.359" stroke="#222A2F" stroke-width="0.4" stroke-miterlimit="10" stroke-linecap="round" stroke-linejoin="round"/>
<path d="M118.427 133.359C118.173 134.129 117.922 134.903 117.617 135.835C118.427 135.835 118.79 135.835 119.479 135.835C118.968 134.951 120.078 133.854 118.608 133.359" stroke="#222A2F" stroke-width="0.4" stroke-miterlimit="10" stroke-linecap="round" stroke-linejoin="round"/>
<path d="M115.886 133.359C115.632 134.129 115.381 134.903 115.076 135.835C115.886 135.835 116.249 135.835 116.938 135.835C116.427 134.951 117.537 133.854 116.067 133.359" stroke="#222A2F" stroke-width="0.4" stroke-miterlimit="10" stroke-linecap="round" stroke-linejoin="round"/>
<rect x="36.25" y="54.75" width="38.5" height="38.5" rx="19.25" fill="white"/>
<path fill-rule="evenodd" clip-rule="evenodd" d="M51.8832 76.387C52.3982 76.387 52.8832 76.493 53.3072 76.706C53.6252 74.61 55.4442 73 57.6252 73C60.0042 73 61.9432 74.914 62.0042 77.283C63.4282 77.465 64.5342 78.68 64.5342 80.184C64.5342 81.794 63.2312 83.1 61.6252 83.1H51.8832C50.0352 83.1 48.5352 81.596 48.5352 79.744C48.5352 77.89 50.0352 76.387 51.8832 76.387Z" stroke="#222A2F" stroke-width="1.5" stroke-linecap="round" stroke-linejoin="round"/>
<path d="M54.459 64.8004V64.0004" stroke="#222A2F" stroke-width="1.5" stroke-linecap="round" stroke-linejoin="round"/>
<path d="M59.5598 66.91L60.1198 66.34" stroke="#222A2F" stroke-width="1.5" stroke-linecap="round" stroke-linejoin="round"/>
<path d="M46.4594 72H47.2594" stroke="#222A2F" stroke-width="1.5" stroke-linecap="round" stroke-linejoin="round"/>
<path d="M48.8098 66.34L49.3698 66.91" stroke="#222A2F" stroke-width="1.5" stroke-linecap="round" stroke-linejoin="round"/>
<path d="M57.2919 69.172C56.5679 68.448 55.5679 68 54.4629 68C52.2539 68 50.4629 69.791 50.4629 72" stroke="#222A2F" stroke-width="1.5" stroke-linecap="round" stroke-linejoin="round"/>
<rect x="36.25" y="54.75" width="38.5" height="38.5" rx="19.25" stroke="#222A2F" stroke-width="1.5"/>
<rect x="58.25" y="102.75" width="38.5" height="38.5" rx="19.25" fill="white"/>
<path d="M84.3864 113.656L70.9238 116.44V117.304L77.2224 116.002V120.28H72.6235C72.2682 121.542 72.0778 122.873 72.0778 124.248C72.0778 125.624 72.2624 126.909 72.6057 128.152H82.704C83.0478 126.91 83.2319 125.601 83.2319 124.248C83.2319 122.896 83.0415 121.542 82.6862 120.28H78.0873V115.823L84.3859 114.52V113.656H84.3864ZM73.024 124.248C73.024 123.176 73.1471 122.122 73.3889 121.096H75.1549V125.848H73.1168C73.0557 125.32 73.024 124.787 73.024 124.248V124.248ZM81.9213 121.096C82.1636 122.122 82.2862 123.176 82.2862 124.248C82.2862 124.787 82.2545 125.32 82.1934 125.848H80.1553V121.096H81.9213V121.096ZM79.2898 121.096V125.848H76.0204V121.096H79.2898Z" fill="#222A2F"/>
<rect x="58.25" y="102.75" width="38.5" height="38.5" rx="19.25" stroke="#222A2F" stroke-width="1.5"/>
<rect x="106.25" y="102.75" width="38.5" height="38.5" rx="19.25" fill="white"/>
<path d="M127.421 115.923C127.359 117.14 127.111 122.604 127.111 122.604H128.265V128.556H129.515V114.012C128.325 113.889 127.484 114.705 127.421 115.923Z" fill="#222A2F"/>
<path d="M123.721 117.804H122.976V114.156H122.111V117.804H121.365V114.156H120.5V118.164C120.5 119.073 121.096 119.843 121.918 120.107V128.556H123.168V120.107C123.991 119.843 124.587 119.073 124.587 118.164V114.156H123.721V117.804Z" fill="#222A2F"/>
<rect x="106.25" y="102.75" width="38.5" height="38.5" rx="19.25" stroke="#222A2F" stroke-width="1.5"/>
<rect x="10.25" y="102.75" width="38.5" height="38.5" rx="19.25" fill="white"/>
<mask id="mask0_652_2618" style="mask-type:alpha" maskUnits="userSpaceOnUse" x="15" y="110" width="25" height="24">
<rect x="15.5" y="110" width="24" height="24" fill="#D9D9D9"/>
</mask>
<g mask="url(#mask0_652_2618)">
<path d="M34 133C33.5667 133 33.146 132.967 32.738 132.9C32.3293 132.833 31.9333 132.733 31.55 132.6L17.5 127.475L18 126.05L24.9 128.575L26.625 124.125L23.05 120.4C22.6 119.933 22.421 119.379 22.513 118.737C22.6043 118.096 22.9333 117.608 23.5 117.275L26.975 115.275C27.2583 115.108 27.546 115.012 27.838 114.987C28.1293 114.962 28.4167 115.008 28.7 115.125C28.9833 115.225 29.2293 115.383 29.438 115.6C29.646 115.817 29.8 116.075 29.9 116.375L30.225 117.45C30.4417 118.167 30.796 118.8 31.288 119.35C31.7793 119.9 32.3667 120.317 33.05 120.6L33.575 119L35 119.45L33.875 122.9C32.6417 122.7 31.55 122.217 30.6 121.45C29.65 120.683 28.95 119.733 28.5 118.6L25.975 120.05L29 123.5L26.775 129.25L29.875 130.375L31.975 123.95C32.2083 124.033 32.4417 124.108 32.675 124.175C32.9083 124.242 33.15 124.3 33.4 124.35L31.275 130.9L32.05 131.175C32.35 131.275 32.6627 131.354 32.988 131.413C33.3127 131.471 33.65 131.5 34 131.5C34.4333 131.5 34.846 131.458 35.238 131.375C35.6293 131.292 36.0083 131.167 36.375 131L37.5 132.125C36.9667 132.408 36.4083 132.625 35.825 132.775C35.2417 132.925 34.6333 133 34 133ZM32 116.5C31.45 116.5 30.9793 116.304 30.588 115.912C30.196 115.521 30 115.05 30 114.5C30 113.95 30.196 113.479 30.588 113.087C30.9793 112.696 31.45 112.5 32 112.5C32.55 112.5 33.021 112.696 33.413 113.087C33.8043 113.479 34 113.95 34 114.5C34 115.05 33.8043 115.521 33.413 115.912C33.021 116.304 32.55 116.5 32 116.5Z" fill="#1C1B1F"/>
</g>
<rect x="10.25" y="102.75" width="38.5" height="38.5" rx="19.25" stroke="#222A2F" stroke-width="1.5"/>
<rect x="84.25" y="54.75" width="38.5" height="38.5" rx="19.25" fill="white"/>
<path d="M107.5 72.2929L110.975 70.1507C111.284 69.9605 111.671 69.9521 111.987 70.1288C112.304 70.3055 112.5 70.6395 112.5 71.002V77.9988C112.5 78.3612 112.304 78.6953 111.987 78.8719C111.671 79.0486 111.284 79.0402 110.975 78.8501L107.5 76.7078" stroke="#222A2F" stroke-width="1.7" stroke-linecap="round" stroke-linejoin="round"/>
<rect x="94.5" y="68" width="13" height="13" rx="3" stroke="#222A2F" stroke-width="1.7" stroke-linecap="round" stroke-linejoin="round"/>
<rect x="84.25" y="54.75" width="38.5" height="38.5" rx="19.25" stroke="#222A2F" stroke-width="1.5"/>
</svg>
