<svg width="224" height="260" viewBox="0 0 224 260" fill="none" xmlns="http://www.w3.org/2000/svg">
<path d="M80.2006 25.9185C78.9041 25.1049 69.0365 18.3104 67.774 17.4481C65.8074 16.1034 63.8116 14.788 61.9761 13.2729C61.1991 12.6347 60.3202 11.5287 60.3251 10.6372C60.3445 6.84202 57.3047 5.70687 54.8524 4.65942C50.3413 2.72529 45.5874 1.46835 40.581 1.03962C36.536 0.693722 34.1323 2.64734 32.0928 5.53636C27.7905 11.6311 27.7808 18.2519 30.1602 24.9995C32.389 31.328 35.5162 37.2132 39.6195 42.5382C41.8483 45.4321 43.31 48.5208 42.6107 52.6911C41.1442 54.1624 39.3184 55.8286 37.6868 57.6702C34.8656 60.8564 31.9277 63.9792 29.4658 67.4334C25.3868 73.153 20.3707 77.6107 14.1357 80.8261C8.46401 83.7493 4.34621 88.168 2.46212 94.4333C2.31644 94.9253 1.98139 95.4125 2.00081 95.8948C2.20476 100.689 2.45241 105.478 2.71463 110.267C2.75833 111.08 3 112 3.04968 112.693C3.5 113.5 3.31114 113.438 4 114C6.30655 115.881 7.34716 116.756 9.46433 118.832C12.3196 121.623 14.1211 125.121 15.0875 129.024C16.3743 134.227 17.3697 139.44 17.6611 144.852C17.8165 147.819 19.5549 150.679 20.4095 153.636C22.3325 160.277 24.4059 166.888 25.9064 173.63C26.6736 177.07 26.494 180.753 26.4551 184.324C26.4114 187.978 25.7025 191.646 25.8481 195.281C26.0375 200.041 24.8721 204.484 23.0172 208.644C20.1522 215.075 20.9922 220.551 24.6584 226.548C29.5775 234.611 37.444 238.1 45.1843 242.065C46.442 242.708 47.7191 243.386 48.8117 244.267C52.677 247.385 56.7851 250.041 61.4468 251.819C62.6656 252.282 63.2386 253.319 63.1755 254.718C63.0881 256.486 63.4328 258.104 65.7539 259C67.876 256.199 71.3042 254.42 72.9213 250.84C73.2903 250.026 74.2324 249.13 75.0676 248.935C78.6609 248.092 79.2582 244.998 80.0449 242.26C80.4042 241.013 80.9044 240.297 81.8415 239.6C85.6777 236.755 88.0571 233.13 88.5233 228.176C88.6689 226.646 89.9412 224.985 91.126 223.83C93.8842 221.15 96.856 218.685 99.8375 216.254C101.275 215.085 103.004 214.583 104.878 214.12C107.068 213.58 109.205 212.108 110.928 210.559C113.361 208.376 116.119 206.915 118.984 205.478C123.272 203.329 127.094 200.538 130.454 197.025C133.97 193.342 138.219 191.461 143.536 192.791C146.051 193.42 148.766 194.014 151.281 193.707C156.103 193.118 160.837 191.827 165.62 190.906C170.326 190.005 173.4 186.365 177.275 184.076C178.557 183.32 179.814 182.507 181.164 181.898C187.7 178.936 194.707 176.729 200.704 172.924C207.405 168.676 214.597 164.9 220.041 158.771C223.469 154.913 223.386 150.63 222.43 146.07C221.925 143.659 219.793 142.689 218.025 141.754C210.751 137.895 204.468 132.794 198.917 126.792C196.014 123.645 193.993 119.952 194.246 115.377C194.367 113.19 194.518 110.959 194.212 108.81C193.702 105.239 190.575 102.696 186.986 102.74C184.476 102.769 181.97 103.1 179.46 103.188C175.357 103.334 175.089 101.254 174.842 98.5743C174.716 97.1907 174.444 95.8169 174.385 94.4333C174.342 93.303 174.22 92.0217 174.662 91.0522C175.866 88.397 175.551 85.6542 175.235 82.999C175.051 81.4741 174.099 79.8859 173.108 78.6338C169.568 74.1663 166.169 69.5234 162.144 65.5285C157.433 60.8515 152.543 56.3158 146.469 53.2124C137.854 48.8083 129.459 43.99 120.941 39.3909C114.658 35.9953 108.117 33.1988 101.289 31.0698C99.3616 30.4706 97.6087 29.3111 95.6809 28.7021C92.6168 27.7374 89.6207 27.7715 87.4404 30.3585C84.8134 28.7459 82.3611 27.2405 79.9089 25.74" stroke="white" stroke-width="1.5" stroke-miterlimit="10" stroke-linecap="round" stroke-linejoin="round"/>
<path d="M155.944 169.182C156.289 166.283 156.63 163.385 156.975 160.486C156.772 160.482 156.564 160.477 156.36 160.477C155.415 159.685 154.474 158.893 153.755 158.285C153.874 157.175 154.072 156.293 154.034 155.425C153.963 153.916 153.543 152.408 153.618 150.918C154.006 143.48 153.15 136.275 150.314 129.316C148.995 126.085 147.647 122.76 147.071 119.354C146.253 114.539 145.718 109.549 148.858 105.142C151.836 100.958 153.027 96.0529 152.942 91.1527C152.876 87.5001 151.396 83.819 150.243 80.2517C147.383 71.3858 140.736 65.7787 132.959 61.6185C128.675 59.3273 123.872 57.8378 118.837 57.6908C118.204 57.6718 117.518 57.5105 116.956 57.2164C113.391 55.3569 109.921 53.2934 106.281 51.6046C104.475 50.7697 102.357 50.6416 100.405 50.1056C98.627 49.617 96.8825 49.0051 94.6983 48.3125C91.6869 49.8732 88.2121 51.5999 84.8082 53.4547C81.4516 55.2857 79.6362 58.3027 78.9082 61.9791C78.4307 64.3936 77.1732 66.4761 75.0741 67.3489C69.8076 69.5263 66.8434 73.6058 64.7018 78.5772C64.281 79.5497 63.7657 80.4794 63.293 81.4282" stroke="white" stroke-width="0.4" stroke-miterlimit="10" stroke-linecap="round" stroke-linejoin="round"/>
<path d="M116.5 171.497C118 169.997 132.361 160.484 134.205 160.232C140.171 159.412 142.682 157.083 143.154 151.153C143.433 147.685 143.712 144.189 143.604 140.722C143.391 133.82 141.178 127.34 139.235 120.775C137.496 114.892 137.013 109.096 140.918 103.394C143.561 99.5418 145.381 94.9689 145.074 89.9643C144.88 86.805 144.752 83.641 144.596 80.4769C144.587 80.2397 144.696 79.8982 144.577 79.7796C141.944 77.218 141.24 73.3092 138.247 70.9374C136.385 69.4621 134.933 67.4697 133.222 65.7905C132.74 65.3208 132.007 65.0789 131.35 64.8275C124.168 62.0572 116.704 60.3684 109.13 59.1541C108.374 59.0307 107.56 59.3391 106.771 59.3533C104.88 59.3865 102.965 59.5573 101.103 59.3201C97.9445 58.9169 95.2735 59.0497 92.9853 61.9101C90.735 64.7231 87.9977 67.1993 85.199 69.4858C83.8989 70.5531 81.9842 70.9563 80.287 71.4307C75.4649 72.7827 72.5574 75.9846 71.3471 80.7141C70.6853 83.3042 70.0991 85.8515 68.5153 88.0858C68.0898 88.6882 68.1607 89.637 68 90.4292" stroke="white" stroke-width="0.4" stroke-miterlimit="10" stroke-linecap="round" stroke-linejoin="round"/>
<path d="M117.178 151.87C119.674 152.477 122.005 152.458 123.801 150.215C125.522 148.066 127.503 146.088 128.926 143.763C130.15 141.766 130.042 139.205 128.935 137.203C126.042 131.961 122.95 126.828 119.731 121.781C118.407 119.713 117.755 117.744 118.346 115.344C118.747 113.707 118.743 111.924 119.381 110.396C120 108.916 121.092 107.583 122.165 106.35C125.659 102.351 129.214 98.4089 132.793 94.4811C134.448 92.6643 133.502 90.6814 133.223 88.7839C132.902 86.6256 132.207 84.5241 131.862 82.3705C131.091 77.5983 128.344 74.0453 124.676 71.3224C123.139 70.1839 120.823 69.7238 118.837 69.6384C113.41 69.4155 107.968 69.5293 102.532 69.6052C101.818 69.6147 100.939 70.0227 100.433 70.5397C96.7168 74.3347 91.559 75.5443 87.1907 78.1439C85.0775 79.4009 82.9028 80.8288 81.3285 82.6693C78.6953 85.748 79.5557 91.4926 82.6806 94.2249C84.1556 95.5152 85.7063 96.7201 87.1624 98.0341C90.1266 100.719 90.0226 104.941 86.926 107.507C84.5906 109.443 82.2031 111.312 79.8393 113.209" stroke="white" stroke-width="0.4" stroke-miterlimit="10" stroke-linecap="round" stroke-linejoin="round"/>
<path d="M122.378 151.868C125.371 151.868 128.363 151.868 131.639 151.868C135.535 148.737 136.996 144.131 136.481 139.069C135.932 133.676 134.698 128.33 132.254 123.434C131.063 121.053 130.273 118.747 130.344 116.053C130.372 114.957 129.791 113.743 129.2 112.751C127.498 109.896 127.526 108.491 130.193 105.631C131.37 104.369 132.741 103.288 133.951 102.054C137.114 98.8428 139.109 95.247 138.499 90.4322C137.804 84.9865 137.298 79.5929 134.235 74.7591C130.968 69.5979 126.151 67.1265 120.487 65.7556C116.875 64.878 113.311 64.5507 109.599 65.2338C107.619 65.599 105.373 64.8353 103.496 65.4045C100.31 66.3722 96.835 67.4016 94.353 69.4651C90.1218 72.9849 85.3706 75.0722 80.279 76.6281C79.22 76.9507 78.8938 77.3776 78.3218 78.2931C75.7783 82.349 75.1685 86.6989 74.9746 91.3857C74.8186 95.1617 73.2916 98.7716 70.8427 101.827" stroke="white" stroke-width="0.4" stroke-miterlimit="10" stroke-linecap="round" stroke-linejoin="round"/>
<path d="M81.2715 29.5859C82.2974 30.677 82.1698 31.0091 83.347 32.2614C84.8362 33.656 80.8792 36.137 84.1223 37.987C84.874 37.2328 85.6871 36.4643 86.4436 35.6436C87.2378 34.7803 91.3508 34.6522 92.84 35.4017C95.738 36.858 98.6076 38.4045 101.595 39.6426C105.392 41.2175 109.349 42.4129 113.145 43.9878C115.674 45.0409 118.043 46.4877 120.492 47.74C122.217 48.6224 123.966 49.462 125.687 50.3585C128.377 51.7627 131.02 53.2569 133.738 54.5994C135.417 55.4295 137.218 55.9893 138.925 56.7673C141.232 57.8204 143.676 58.7074 145.751 60.1258C150.687 63.5033 155.272 67.4121 158.251 72.6823C161.064 77.6537 163.437 82.886 165.815 88.0898C166.378 89.3279 166.222 90.9076 166.34 92.3307C166.524 94.5412 166.841 96.7613 166.765 98.9718C166.699 100.955 166.723 103.26 165.754 104.83C164.052 107.577 164.146 110.471 164.557 113.189C165.437 118.976 167.796 124.384 171.62 128.791C175.095 132.799 176.31 137.566 177.544 141.527C181.071 145.327 184.106 148.596 187.141 151.864" stroke="white" stroke-width="0.4" stroke-miterlimit="10" stroke-linecap="round" stroke-linejoin="round"/>
<path d="M63.9922 27.5877C66.5309 24.7841 68.0154 24.6229 71.0977 26.378C75.3762 28.821 78.9361 31.9376 81.3141 36.4252C80.6711 38.1234 80.0943 39.8833 82.3021 41.0787C84.9354 38.4033 88.2069 39.7125 91.1616 40.2486C95.3219 41.0028 99.4113 42.2456 103.453 43.5264C105.898 44.2997 108.427 45.1962 110.516 46.6241C116.922 51.0025 123.848 54.2282 131.129 56.7518C139.123 59.5269 145.212 64.5078 150.691 71.073C156.019 77.458 158.147 84.7253 160.293 92.3105C161.135 95.28 159.792 97.5048 158.969 99.9099C157.301 104.782 155.967 109.687 155.972 114.871C155.972 115.664 156.227 116.461 156.431 117.243C157.518 121.437 158.591 125.635 159.764 129.809C160.047 130.81 160.695 131.707 161.149 132.665C161.636 133.685 162.624 134.804 162.477 135.734C161.919 139.245 163.428 142.276 164.231 145.473C164.274 145.639 164.496 145.852 164.449 145.938C162.941 148.727 164.836 150.478 166.16 152.114C168.325 152.114 170.292 152.114 172.263 152.114C174.391 152.114 176.518 152.114 178.646 152.114C181.326 152.114 184.158 151.564 186.64 152.261C189.491 153.058 192.011 155.017 194.729 156.364C196.365 157.176 198.109 157.773 200.454 158.736C199.22 159.955 198.412 160.809 197.547 161.597C196.308 162.73 195.013 163.798 193.779 164.932C192.956 165.686 192.195 166.506 191.41 167.299" stroke="white" stroke-width="0.4" stroke-miterlimit="10" stroke-linecap="round" stroke-linejoin="round"/>
<path d="M167.5 177.5C164.782 178.695 157.173 182.986 154.039 182.588C151.349 182.246 148.527 182.811 145.752 183.181C140.844 183.83 136.812 186.601 132.084 187.502C124.487 188.949 116.975 190.737 109.146 190.647C107.501 190.628 105.468 191.752 104.276 192.99C102.721 194.603 101.544 196.743 100.707 198.858C99.5725 201.714 97.9037 203.389 94.7315 203.365C93.9467 203.36 93.1619 203.687 92.3771 203.863C90.4105 205.96 88.4201 208.075 86.1935 210.452C85.5127 210.452 84.553 210.452 83.3522 210.452C83.1962 212.729 83.3002 214.849 82.8416 216.842C82.3783 218.863 81.3571 220.76 80.4494 223.027C75.3956 227.23 69.1316 228.544 62.3428 228.004" stroke="white" stroke-width="0.4" stroke-miterlimit="10" stroke-linecap="round" stroke-linejoin="round"/>
<path d="M145.071 179.144C143.416 179.461 141.771 179.917 140.102 180.054C138.145 180.216 136.135 180.291 134.207 180.012C133.209 179.865 132.33 178.868 131.351 178.38C129.224 177.213 127.044 176.136 124.988 174.851C122.837 173.508 121.366 173.65 119.532 174.869C116.634 176.795 113.32 178.271 110.881 180.662C106.853 184.599 103.487 189.205 99.6432 193.346C97.407 195.756 95.5774 197.246 93.0907 199.409C91.9891 200.372 89.5213 201.354 88.3631 202.255C86.4342 203.759 86.472 206.524 85.9993 207.947M84.581 207.71C82.69 208.185 81.0353 207.998 79.168 212.843C77.4896 217.198 73.8637 220.342 69.1928 221.841C68.791 221.97 68.4033 222.15 67.7509 222.411C65.0609 219.906 61.5199 221.581 58.3241 220.874C58.0641 220.817 57.8466 220.57 57.6102 220.414" stroke="white" stroke-width="0.4" stroke-miterlimit="10" stroke-linecap="round" stroke-linejoin="round"/>
<path d="M87.8671 85.9253C88.2169 87.9129 88.5715 89.8958 88.8173 91.2952C90.7556 92.7183 92.1834 93.9611 93.7907 94.9099C98.3765 97.6138 102.291 101.323 107.227 103.524C111.713 105.521 117.968 103.662 119.622 98.5246C120.762 94.9858 123.04 91.8122 124.18 88.2687C125.735 83.4349 123.409 76.6657 118.828 75.0101C118.663 74.9484 118.516 74.7919 118.355 74.7824C113.784 74.6116 109.184 74.0851 104.659 74.4598C102.456 74.6401 100.386 76.4996 98.2678 77.6239C96.8353 78.3876 95.4738 79.3031 93.9988 79.9673C91.252 81.2054 88.8741 82.7898 87.626 85.6834" stroke="white" stroke-width="0.4" stroke-miterlimit="10" stroke-linecap="round" stroke-linejoin="round"/>
<path d="M80.3023 189.108C81.3282 188.477 82.4155 187.927 83.361 187.196C86.155 185.028 88.8309 182.709 91.6627 180.593C94.9814 178.112 96.3052 174.198 98.6784 171.039C101.567 167.197 104.422 163.549 108.313 160.499C112.388 157.301 115.575 152.947 119.045 149.005C120.458 147.401 121.579 145.537 122.855 143.81C124.595 141.457 123.924 138.237 122.151 136.448C119.286 133.555 116.431 130.642 113.646 127.668C111.244 125.106 107.812 124.655 104.886 123.18C100.929 121.188 96.8488 121.349 92.5798 122.122C90.32 122.53 87.8664 121.724 85.5074 121.785C80.6332 121.909 76.0144 122.829 72.4781 126.705C71.3908 127.895 69.9962 128.797 68.7197 129.812C64.5736 133.113 61.7749 137.364 60.2573 142.397C59.5907 144.607 59.4205 146.97 59.0282 149.261C58.3947 152.975 57.4917 156.67 57.208 160.413C56.8724 164.863 55.0144 168.81 53.8514 172.984C53.3976 174.606 53.1754 176.295 52.8917 177.96C52.6932 179.137 52.5324 180.327 52.419 181.518C51.9557 186.167 53.2416 190.517 54.8159 194.786C55.1704 195.749 55.9883 196.536 56.5178 197.291C59.9831 196.223 63.0561 195.27 66.1243 194.321" stroke="white" stroke-width="0.4" stroke-miterlimit="10" stroke-linecap="round" stroke-linejoin="round"/>
<path d="M38.6996 79.5312C38.8272 81.2912 38.3166 82.6479 36.8369 83.8338C32.2417 87.5196 26.9184 89.9104 21.6377 92.2396C17.1276 94.2272 14.9624 97.173 14.5038 102.054C14.0736 106.665 15.5108 110.674 17.7469 114.34C19.8081 117.718 20.1674 121.47 21.165 125.08C22.536 130.028 23.2876 135.104 23.5997 140.246C23.7179 142.233 23.9873 144.268 24.5925 146.152C24.9612 147.314 25.9729 148.362 26.909 149.225C28.0956 150.317 29.4997 151.17 30.7809 152.105C31.3671 152.105 32.081 152.105 32.7901 152.105" stroke="white" stroke-width="0.4" stroke-miterlimit="10" stroke-linecap="round" stroke-linejoin="round"/>
<path d="M59.5017 111.788C57.918 112.243 56.339 112.699 54.5378 113.216C47.1013 107.058 38.8942 102.4 28.5455 103.705C28.172 104.449 27.808 105.18 27.373 106.053C28.0302 107.77 28.7488 109.663 29.4816 111.551C31.9163 117.784 37.3293 121.185 42.2319 125.084C43.8014 126.337 45.4892 127.57 46.6758 129.145C48.3966 131.436 47.8482 134.23 47.7206 136.929C47.4417 142.774 47.4227 148.632 47.1958 154.476C46.9594 160.472 46.5056 166.449 44.8651 172.27C44.7422 172.711 44.8698 173.214 44.8462 173.688C44.6146 178.195 44.0472 182.715 44.2505 187.203C44.3971 190.471 45.4372 193.726 46.3118 196.918C46.8507 198.882 47.8719 200.713 48.6236 202.625C49.7676 205.542 51.9092 207.644 54.5709 208.958C57.4169 210.362 60.5229 210.442 63.5249 209.038C63.7187 208.948 63.9929 209.029 64.2293 209.029" stroke="white" stroke-width="0.4" stroke-miterlimit="10" stroke-linecap="round" stroke-linejoin="round"/>
<path d="M62.1015 23.3165C60.7116 19.6496 57.3786 17.3869 53.3554 17.3869C52.1735 17.3869 50.9917 17.3869 49.8098 17.3869C48.1976 14.5264 46.1081 12.4962 42.2173 13.2409C39.5745 14.4885 39.8062 17.2161 39.6502 19.7587C39.2861 25.7358 40.312 31.3713 43.385 36.6225C45.0207 39.4166 46.1317 42.5237 47.7343 45.3414C48.5144 46.7124 49.961 47.6848 50.968 48.9466C51.9324 50.161 52.7172 51.5272 53.5776 52.8222C53.346 52.8697 53.1143 52.9171 52.8827 52.9693C52.8827 55.1798 52.7645 57.3999 52.9111 59.6009C53.1569 63.2963 52.2445 66.6026 50.0461 69.5627" stroke="white" stroke-width="0.4" stroke-miterlimit="10" stroke-linecap="round" stroke-linejoin="round"/>
<path d="M103.704 77.1547C100.787 79.6072 97.8561 82.0359 94.9676 84.5169C93.7431 85.57 93.2515 86.9124 93.7668 88.5395C93.937 89.0661 93.9937 89.6306 94.0741 90.0433C95.4971 91.1391 96.9154 92.1684 98.258 93.2879C101.7 96.1674 105.59 98.1834 110.082 98.1692C113.06 98.1597 115.187 96.1294 116.719 93.5299C118.78 90.029 118.903 86.1772 118.497 82.3822C118.246 80.0293 115.821 79.1043 113.845 78.3975C111.571 77.5911 109.165 77.0313 106.768 76.7325C104.323 76.4241 101.936 76.7325 99.8843 78.5351C98.57 79.6925 97.0099 80.6697 95.412 81.3813C91.2281 83.2408 89.9043 87.3536 92.878 90.6267C95.1567 93.1409 97.6812 95.5317 100.452 97.4624C102.787 99.0895 105.638 99.9765 108.167 101.148C111.524 100.954 114.951 100.845 118.199 96.656C119.14 93.5062 120.407 88.8431 121.972 84.2892C122.477 82.8091 122.255 81.8272 121.442 80.7029C120.549 79.4601 119.735 78.1556 118.766 76.6993C114.27 76.4574 109.699 76.2107 105.122 75.9688" stroke="white" stroke-width="0.4" stroke-miterlimit="10" stroke-linecap="round" stroke-linejoin="round"/>
<path d="M50.9913 90.4375C46.2732 92.5247 42.0798 95.5939 37.3097 97.6147C34.8135 98.6725 32.2701 98.7769 29.7172 98.9287C26.3795 99.1279 23.7226 100.399 21.4014 103.634C23.0135 108.62 24.7674 113.857 26.3984 119.137C28.6582 126.471 31.1024 133.771 32.932 141.214C34.1564 146.195 35.8583 150.934 37.6926 155.682C38.5483 157.907 38.936 160.383 39.1251 162.774C39.4655 167.029 39.7397 171.317 39.5789 175.577C39.4182 179.856 38.7705 184.125 38.2127 188.385C37.4704 194.049 38.397 199.481 40.3874 204.741C41.4463 207.55 42.0278 210.633 44.3774 212.815" stroke="white" stroke-width="0.4" stroke-miterlimit="10" stroke-linecap="round" stroke-linejoin="round"/>
<path d="M43.4278 84.2656C40.4305 86.3576 38.6246 89.7778 35.1829 91.4333C32.994 92.4864 31.1503 94.2463 28.9756 95.3421C27.7511 95.9636 26.1106 95.7026 24.7727 96.1675C23.0519 96.77 21.3736 97.5764 19.8088 98.5204C16.594 100.456 17.8846 103.596 18.4898 106.053C19.4731 110.033 21.2365 113.819 22.617 117.709C23.3119 119.663 24.2102 121.617 24.4607 123.643C25.2171 129.748 26.5409 135.72 28.0631 141.659C28.3042 142.608 28.6825 143.547 28.7439 144.506C28.8905 146.783 29.9069 148.514 31.5899 149.98C32.2565 150.559 32.7104 151.379 33.2635 152.091" stroke="white" stroke-width="0.4" stroke-miterlimit="10" stroke-linecap="round" stroke-linejoin="round"/>
<path d="M78.8843 182.942C79.6738 182.785 80.5957 182.837 81.2244 182.434C86.7746 178.867 92.3437 175.238 96.1069 169.64C101.459 161.676 108.559 155.191 114.303 147.577C115.868 145.504 116.998 143.099 118.336 140.837C117.981 139.973 117.849 139.148 117.386 138.612C114.322 135.059 111.046 131.733 106.295 130.543C103.194 129.765 100.504 127.644 97.0808 127.886C94.8068 128.048 92.5045 127.796 90.2305 127.948C87.2285 128.142 84.2406 128.546 81.2481 128.873C80.7706 128.925 80.2317 128.901 79.8393 129.124C72.7952 133.157 66.3751 137.872 64.0491 146.202C62.9949 149.978 62.6025 153.939 61.8508 157.805C61.3591 160.347 60.6547 162.847 60.2292 165.399C59.5863 169.256 58.9812 173.132 58.5935 177.021C58.3524 179.45 58.4469 181.926 58.5746 184.369C58.7542 187.775 60.6358 188.871 63.9877 187.699C64.2004 187.624 64.4557 187.69 64.6921 187.69" stroke="white" stroke-width="0.4" stroke-miterlimit="10" stroke-linecap="round" stroke-linejoin="round"/>
<path d="M82.923 173.4C82.4664 173.695 72.6263 177.132 72.053 177.246C69.6188 178.104 66.6049 177.309 66.4745 174.816C66.3818 173.029 66.3131 171.217 66.4882 169.439C66.7697 166.593 67.2092 163.757 67.6761 160.934C67.9851 159.067 68.4966 157.237 68.8537 155.377C69.3996 152.548 69.6845 149.649 70.4501 146.886C72.1393 140.79 76.8016 137.339 81.9171 134.389C82.202 134.226 82.5934 134.243 82.9401 134.205C85.1134 133.965 87.2832 133.67 89.4632 133.528C91.1146 133.417 92.7866 133.601 94.438 133.483C96.9236 133.306 98.8771 134.857 101.129 135.427C104.58 136.298 106.959 138.731 109.184 141.332C109.52 141.724 109.616 142.328 109.874 142.96C108.902 144.615 108.082 146.375 106.945 147.892C102.774 153.464 97.6171 158.209 93.7307 164.038C90.9979 168.134 86.9536 170.79 82.923 173.4Z" stroke="white" stroke-width="0.4" stroke-miterlimit="10" stroke-linecap="round" stroke-linejoin="round"/>
<path d="M86.0845 163.125C85.8016 163.309 79.705 165.453 79.3498 165.524C77.8417 166.059 75.9744 165.563 75.8936 164.009C75.8361 162.894 75.7936 161.763 75.9021 160.655C76.0765 158.879 76.3488 157.11 76.638 155.35C76.8295 154.185 77.1464 153.044 77.3676 151.884C77.7058 150.119 77.8824 148.311 78.3567 146.587C79.4033 142.785 82.2919 140.633 85.4612 138.793C85.6378 138.691 85.8803 138.702 86.0951 138.678C87.4416 138.528 88.7859 138.344 90.1366 138.256C91.1597 138.186 92.1956 138.301 93.2188 138.227C94.7588 138.117 95.9691 139.085 97.3645 139.44C99.5022 139.983 100.976 141.501 102.355 143.123C102.563 143.368 102.623 143.744 102.782 144.139C102.18 145.171 101.672 146.269 100.968 147.215C98.3834 150.691 95.1885 153.65 92.7806 157.286C91.0874 159.841 88.5817 161.497 86.0845 163.125Z" stroke="white" stroke-width="0.4" stroke-miterlimit="10" stroke-linecap="round" stroke-linejoin="round"/>
<path d="M89.6056 152.314C89.4865 152.39 86.9195 153.277 86.77 153.307C86.135 153.528 85.3487 153.323 85.3147 152.68C85.2905 152.218 85.2726 151.75 85.3183 151.292C85.3917 150.557 85.5064 149.825 85.6282 149.097C85.7088 148.615 85.8422 148.142 85.9354 147.662C86.0778 146.932 86.1521 146.184 86.3518 145.471C86.7925 143.897 88.0087 143.007 89.3432 142.245C89.4175 142.203 89.5196 142.208 89.6101 142.198C90.177 142.136 90.7431 142.06 91.3118 142.023C91.7426 141.994 92.1787 142.042 92.6095 142.011C93.258 141.966 93.7676 142.366 94.3551 142.513C95.2552 142.738 95.8759 143.366 96.4562 144.037C96.544 144.138 96.5691 144.294 96.6362 144.457C96.3828 144.885 96.1687 145.339 95.8723 145.731C94.7841 147.169 93.4389 148.393 92.425 149.898C91.7121 150.955 90.6571 151.64 89.6056 152.314Z" stroke="white" stroke-width="0.4" stroke-miterlimit="10" stroke-linecap="round" stroke-linejoin="round"/>
<path d="M179.109 176.297C174.774 178.825 170.467 181.401 166.09 183.854C165.116 184.399 163.92 184.698 162.794 184.802C159.036 185.153 155.235 185.139 151.675 186.7C151.146 186.932 150.427 186.766 149.798 186.723C148.04 186.61 146.541 187.008 145.038 188.104C142.173 190.196 139.034 189.949 135.833 188.673C135.015 188.346 133.795 188.298 133.048 188.683C130.604 189.944 128.24 191.391 125.938 192.909C121.957 195.537 117.986 198.184 114.133 200.992C112.323 202.311 110.323 201.799 108.422 202.079C107.132 202.269 105.751 201.842 104.177 201.666C100.806 204.204 96.9533 206.509 93.8756 209.598C91.1242 212.354 88.8975 215.831 88.3633 219.934C87.9047 223.463 86.4297 226.134 82.8934 227.263C81.7588 227.624 80.5533 227.752 79.0357 228.06C76.9509 233.221 72.0105 236.508 68.0441 240.806C67.6139 240.806 66.9851 240.806 66.0679 240.806C65.6756 239.269 65.269 237.671 64.8057 235.854C63.7798 235.631 62.5601 235.455 61.3924 235.095C59.5581 234.53 57.6103 234.108 55.984 233.155C53.4973 231.694 50.8215 230.826 48.1504 229.896" stroke="white" stroke-width="0.4" stroke-miterlimit="10" stroke-linecap="round" stroke-linejoin="round"/>
<path d="M33.5 152.578C35.3816 154.21 35.4619 156.591 35.8118 158.754C36.3318 161.961 36.71 165.225 36.7479 168.469C36.7857 171.709 36.3696 174.954 36.0907 178.194C35.514 184.982 34.0153 191.723 34.923 198.592C35.8354 205.503 37.2821 212.263 41.0736 218.273C41.4565 218.881 41.9009 219.583 42.5013 219.905C44.1796 220.802 45.9477 221.523 47.6828 222.315" stroke="white" stroke-width="0.4" stroke-miterlimit="10" stroke-linecap="round" stroke-linejoin="round"/>
<path d="M55.7195 99.4531C53.5117 100.165 51.3512 101.147 49.0914 101.531C44.7279 102.271 40.3265 102.684 35.8589 102.11C32.1525 101.63 28.3846 101.355 24.6498 102.465C23.9643 106.602 25.5575 109.847 27.3729 112.968C32.1998 121.265 36.9037 129.59 39.2202 139.058C40.4258 143.992 41.4233 148.911 41.584 154.01C41.6597 156.392 42.3546 158.749 42.4444 161.131C42.5532 164.129 42.4255 167.146 42.2317 170.139C41.9197 174.968 41.4516 179.783 41.0734 184.607C40.525 191.59 42.3357 198.051 44.7137 204.583C46.6331 209.858 50.3111 212.528 55.0151 214.492" stroke="white" stroke-width="0.4" stroke-miterlimit="10" stroke-linecap="round" stroke-linejoin="round"/>
<path d="M67.5384 121.742C62.182 128.355 57.1991 135.214 54.3484 143.345C53.5589 145.603 53.2847 148.06 52.897 150.446C51.909 156.447 51.4788 162.595 49.8997 168.43C48.5666 173.344 48.0229 178.168 48.1458 183.178C48.2167 186.024 48.1742 188.87 48.1553 191.716C48.1411 194.42 48.7273 196.854 50.7413 198.851C52.2494 200.345 53.5258 202.067 55.0339 203.557C56.6696 205.169 58.3999 205.293 60.187 203.779C62.1442 202.124 64.4844 201.711 66.834 201.204" stroke="white" stroke-width="0.4" stroke-miterlimit="10" stroke-linecap="round" stroke-linejoin="round"/>
<path d="M130.888 152.578C126.241 155.899 121.589 159.219 116.942 162.545C116.53 162.839 115.987 163.09 115.783 163.503C114.167 166.752 111.458 168.939 108.673 171.093C105.038 173.91 102.281 177.544 99.7049 181.296C98.4663 183.099 97.6248 185.186 96.3389 186.946C94.4431 189.536 92.0698 191.538 88.8551 191.486C85.924 194.816 83.1253 198.023 80.2792 201.187C79.9483 201.552 79.3526 201.68 78.8799 201.917" stroke="white" stroke-width="0.4" stroke-miterlimit="10" stroke-linecap="round" stroke-linejoin="round"/>
<path d="M63.52 28.0522C62.8108 27.4972 61.9078 27.075 61.4304 26.3682C60.0925 24.3854 58.3338 23.4936 55.9653 23.2374C54.4241 23.0714 52.968 22.189 51.4646 21.653C50.1503 21.1881 48.8172 20.7659 47.5549 20.3438C44.5387 22.1748 45.1675 25.021 45.3613 27.5779C45.834 33.8775 48.9543 39.0528 52.6465 43.9483C55.0434 47.1266 55.658 47.6389 62.5555 50.7935C62.7777 52.6909 63.241 54.8398 63.2458 56.9935C63.2552 61.851 63.6665 66.7038 61.9646 71.4949C60.9907 74.2368 58.764 75.6077 57.1424 77.6285" stroke="white" stroke-width="0.4" stroke-miterlimit="10" stroke-linecap="round" stroke-linejoin="round"/>
<path d="M30.6631 152.578C32.7149 156.515 33.5327 160.733 33.5044 165.149C33.4807 169.338 33.7927 173.555 33.4287 177.715C32.9181 183.588 31.8308 189.413 31.1784 195.276C30.9089 197.695 31.0129 200.181 31.1689 202.619C31.3297 205.081 31.8828 207.515 32.0483 209.977C32.2468 212.956 34.0669 215.218 35.1543 217.799C35.523 218.677 35.9391 219.54 36.3315 220.408" stroke="white" stroke-width="0.4" stroke-miterlimit="10" stroke-linecap="round" stroke-linejoin="round"/>
<path d="M116.5 171.5C114.765 172.449 113.263 173.499 111.5 174.39C107.089 176.62 103.591 179.646 101.52 184.338C99.889 188.038 97.9271 191.672 94.4617 194.053C93.0198 195.044 91.299 195.604 89.7625 196.472C86.0797 198.555 83.3188 201.543 81.2198 205.22C80.3546 206.733 79.2956 208.17 78.1327 209.465" stroke="white" stroke-width="0.4" stroke-miterlimit="10" stroke-linecap="round" stroke-linejoin="round"/>
<path d="M120.96 152.578C114.578 158.901 108.049 165.087 101.875 171.615C98.8351 174.826 96.3106 178.574 93.8097 182.25C90.1647 187.615 84.3923 190.513 79.8207 194.787C79.7356 194.868 79.5134 194.797 79.3574 194.797" stroke="white" stroke-width="0.4" stroke-miterlimit="10" stroke-linecap="round" stroke-linejoin="round"/>
<path d="M72.0291 39.6819C71.4855 36.3091 70.0861 33.6716 66.1527 33.0312C64.4744 34.3073 62.5409 34.2599 60.4324 33.5578C58.8439 33.0265 57.1467 33.0075 55.6953 34.2504C56.7354 39.6914 60.4087 42.8981 65.2025 44.8383C68.1241 46.0195 71.3673 43.4626 72.0291 39.9238" stroke="white" stroke-width="0.4" stroke-miterlimit="10" stroke-linecap="round" stroke-linejoin="round"/>
<path d="M43.4275 112.97C43.4275 112.733 43.5316 112.41 43.4134 112.273C41.2812 109.777 38.6007 108.136 35.3812 107.581C34.6673 107.458 33.6178 107.97 33.1072 108.534C32.8236 108.848 33.1971 109.967 33.5327 110.579C34.1331 111.665 34.9321 112.643 35.3434 113.24C37.8348 114.289 39.9244 115.171 42.2078 116.134C42.6853 115.171 43.177 114.189 43.6639 113.207" stroke="white" stroke-width="0.4" stroke-miterlimit="10" stroke-linecap="round" stroke-linejoin="round"/>
<path d="M78.8844 47.7416C79.6502 46.9494 80.8463 46.3375 80.1088 44.8812C77.7545 44.9665 75.5372 44.8005 73.9818 42.4998C74.6248 41.6744 75.2157 40.9202 75.9343 40.0094C75.9343 39.2125 75.9343 38.2637 75.9343 37.481C74.8612 35.7306 73.8306 34.0418 72.7952 32.3531C67.316 28.1312 65.4202 28.0838 63.2691 32.3673C61.9218 30.911 60.7068 29.597 58.8914 27.6331C56.5938 26.637 53.6059 28.4775 50.4148 28.321C50.6843 28.8523 50.9916 29.1748 50.9821 29.4832C50.7836 35.0807 53.9747 39.4496 56.608 43.8518C57.6386 45.5737 60.5366 46.1714 62.5884 47.2672C62.9618 47.4665 63.3731 47.5898 63.7655 47.7463" stroke="white" stroke-width="0.4" stroke-miterlimit="10" stroke-linecap="round" stroke-linejoin="round"/>
<path d="M166.581 152.578C169.834 155.856 173.28 158.987 175.318 163.256C176.552 165.837 177.001 168.46 175.341 171.088C174 172.999 168.5 176.999 167.5 177.499" stroke="white" stroke-width="0.4" stroke-miterlimit="10" stroke-linecap="round" stroke-linejoin="round"/>
<path d="M107.013 89.7264C107.33 88.474 108.328 87.2691 107.169 85.8792C106.541 85.699 105.827 85.495 104.541 85.125C104.347 86.0026 104.011 86.9086 103.973 87.8289C103.903 89.5366 105.193 89.9446 106.545 90.2007" stroke="white" stroke-width="0.4" stroke-miterlimit="10" stroke-linecap="round" stroke-linejoin="round"/>
<path d="M62.1014 98.2639C62.5789 98.5485 63.0564 98.8379 63.8743 99.3265C63.8743 97.7895 63.8743 96.8408 63.8743 95.7734C63.3637 95.7734 62.9713 95.7734 62.3614 95.7734C62.2196 96.4186 62.04 97.225 61.865 98.0267" stroke="white" stroke-width="0.4" stroke-miterlimit="10" stroke-linecap="round" stroke-linejoin="round"/>
<path d="M79.1205 194.563C79.1205 193.923 79.1205 193.277 79.1205 192.547C78.4114 192.547 77.9386 192.547 77.3477 192.547C77.3477 193.614 77.3477 194.563 77.3477 196.1C78.1655 195.607 78.643 195.322 79.1205 195.037" stroke="white" stroke-width="0.4" stroke-miterlimit="10" stroke-linecap="round" stroke-linejoin="round"/>
<path d="M71.0834 216.144C70.8328 216.651 70.5775 217.154 70.327 217.662C70.1331 217.619 69.944 217.581 69.7502 217.538C69.2633 216.391 68.9654 215.257 70.5019 214.156C70.7052 214.768 70.8943 215.337 71.0834 215.907" stroke="white" stroke-width="0.4" stroke-miterlimit="10" stroke-linecap="round" stroke-linejoin="round"/>
<path d="M69.1925 117C70.0623 116.919 70.8802 117.056 70.554 118.167C70.4358 118.56 69.6558 118.755 68.8379 119.248C68.8379 117.711 68.8379 116.762 68.8379 115.453C69.6463 115.695 70.2467 115.871 70.8471 116.051" stroke="white" stroke-width="0.4" stroke-miterlimit="10" stroke-linecap="round" stroke-linejoin="round"/>
<path d="M65.6474 214.724C65.6474 215.692 65.6474 216.66 65.6474 218.054C63.6051 216.665 63.8036 215.507 64.7019 214.25" stroke="white" stroke-width="0.4" stroke-miterlimit="10" stroke-linecap="round" stroke-linejoin="round"/>
<path d="M50.0459 223.731C50.7124 223.56 51.3743 223.39 52.0409 223.219C52.2489 223.556 52.4569 223.892 52.6649 224.229C51.7336 224.718 50.8023 225.206 49.8662 225.695C49.9939 225.918 50.1215 226.136 50.2444 226.359C50.963 226.435 51.6863 226.506 52.4049 226.582" stroke="white" stroke-width="0.4" stroke-miterlimit="10" stroke-linecap="round" stroke-linejoin="round"/>
<path d="M47.2099 81.4264C47.8765 81.2556 48.5384 81.0848 49.205 80.9141C49.413 81.2509 49.621 81.5877 49.829 81.9245C48.8977 82.4131 47.9663 82.9017 47.0303 83.3903C47.1579 83.6132 47.2856 83.8314 47.4085 84.0544C48.1271 84.1303 48.8504 84.2014 49.569 84.2773" stroke="white" stroke-width="0.4" stroke-miterlimit="10" stroke-linecap="round" stroke-linejoin="round"/>
<path d="M66.1198 187.922C65.7227 188.747 65.5762 189.558 66.829 189.558C68.0818 189.558 67.9352 188.747 67.5381 187.922" stroke="white" stroke-width="0.4" stroke-miterlimit="10" stroke-linecap="round" stroke-linejoin="round"/>
<path d="M60.6827 98.9737C60.6827 97.9965 60.6827 97.0241 60.6827 96.0469C60.503 96.0516 60.3234 96.0564 60.1437 96.0564C59.5906 96.6114 59.0422 97.1616 58.1865 98.0202C59.5717 98.0202 60.6023 98.0202 61.6329 98.0202" stroke="white" stroke-width="0.4" stroke-miterlimit="10" stroke-linecap="round" stroke-linejoin="round"/>
<path d="M76.9929 210.688C75.8914 211.556 74.7851 212.428 73.6836 213.297" stroke="white" stroke-width="0.4" stroke-miterlimit="10" stroke-linecap="round" stroke-linejoin="round"/>
<path d="M55.2465 88.3047C55.1661 88.8597 55.0905 89.41 55.0101 89.965C54.457 89.8084 53.9086 89.6472 53.3555 89.4906" stroke="white" stroke-width="0.4" stroke-miterlimit="10" stroke-linecap="round" stroke-linejoin="round"/>
<path d="M147.907 174.164C147.826 174.719 147.751 175.269 147.67 175.824C147.117 175.668 146.569 175.507 146.016 175.35" stroke="white" stroke-width="0.4" stroke-miterlimit="10" stroke-linecap="round" stroke-linejoin="round"/>
<path d="M67.0654 192.43C67.7745 192.43 68.4837 192.43 69.311 192.43C68.72 193.616 68.2473 194.564 67.7745 195.513" stroke="white" stroke-width="0.4" stroke-miterlimit="10" stroke-linecap="round" stroke-linejoin="round"/>
<path d="M146.961 173.922C147.382 173.756 147.807 173.59 148.228 173.419C148.181 173.182 148.134 172.94 148.086 172.703C147.396 172.793 146.706 172.883 146.016 172.974" stroke="white" stroke-width="0.4" stroke-miterlimit="10" stroke-linecap="round" stroke-linejoin="round"/>
<path d="M54.3009 88.0629C54.7216 87.8968 55.1471 87.7308 55.5679 87.56C55.5206 87.3229 55.4733 87.0809 55.4261 86.8438C54.7358 86.9339 54.0456 87.024 53.3554 87.1141" stroke="white" stroke-width="0.4" stroke-miterlimit="10" stroke-linecap="round" stroke-linejoin="round"/>
<path d="M67.7745 186.966C67.297 185.661 66.5831 186.269 65.7842 186.658C66.2191 188.057 66.9188 187.948 67.7745 187.203" stroke="white" stroke-width="0.4" stroke-miterlimit="10" stroke-linecap="round" stroke-linejoin="round"/>
<path d="M62.1018 215.438C61.7188 215.608 61.3312 215.774 60.9482 215.945C61.0948 216.173 61.2414 216.396 61.3926 216.623C61.785 216.623 62.1821 216.623 62.5745 216.623" stroke="white" stroke-width="0.4" stroke-miterlimit="10" stroke-linecap="round" stroke-linejoin="round"/>
<path d="M62.8105 214.25C62.8105 215.355 62.8105 216.465 62.8105 217.571" stroke="white" stroke-width="0.4" stroke-miterlimit="10" stroke-linecap="round" stroke-linejoin="round"/>
<path d="M69.9019 186.258C69.571 187.254 69.2448 188.255 68.8477 189.46C69.9019 189.46 70.3747 189.46 71.2729 189.46C70.6063 188.317 72.053 186.898 70.1383 186.258" stroke="white" stroke-width="0.4" stroke-miterlimit="10" stroke-linecap="round" stroke-linejoin="round"/>
<path d="M73.2115 186.258C72.8805 187.254 72.5543 188.255 72.1572 189.46C73.2115 189.46 73.6842 189.46 74.5825 189.46C73.9159 188.317 75.3625 186.898 73.4479 186.258" stroke="white" stroke-width="0.4" stroke-miterlimit="10" stroke-linecap="round" stroke-linejoin="round"/>
<path d="M79.3571 115.578C79.0262 116.574 78.7 117.575 78.3029 118.78C79.3571 118.78 79.8299 118.78 80.7281 118.78C80.0615 117.637 81.5082 116.219 79.5935 115.578" stroke="white" stroke-width="0.4" stroke-miterlimit="10" stroke-linecap="round" stroke-linejoin="round"/>
<path d="M76.0474 115.578C75.7165 116.574 75.3903 117.575 74.9932 118.78C76.0474 118.78 76.5202 118.78 77.4184 118.78C76.7518 117.637 78.1985 116.219 76.2838 115.578" stroke="white" stroke-width="0.4" stroke-miterlimit="10" stroke-linecap="round" stroke-linejoin="round"/>
<path d="M72.7388 115.578C72.4079 116.574 72.0817 117.575 71.6846 118.78C72.7388 118.78 73.2116 118.78 74.1098 118.78C73.4432 117.637 74.8899 116.219 72.9752 115.578" stroke="white" stroke-width="0.4" stroke-miterlimit="10" stroke-linecap="round" stroke-linejoin="round"/>
<path d="M36.809 110.836C36.6908 111.751 36.7239 111.823 37.7545 112.733C39.1492 111.486 38.7426 110.921 37.0454 110.836" stroke="white" stroke-width="0.4" stroke-miterlimit="10" stroke-linecap="round" stroke-linejoin="round"/>
<path d="M30.8993 105.141C29.1548 106.208 28.8192 107.399 30.3982 108.964C30.8331 109.396 30.8237 110.245 31.1546 110.824C31.807 111.962 32.3176 113.39 33.3104 114.087C35.8491 115.871 38.5769 117.398 41.3189 118.864C42.9594 119.742 46.9022 117.583 47.687 115.577C47.8146 115.249 48.0037 114.946 48.207 114.543C46.4625 109.154 41.7113 107.901 37.0452 106.578C35.0974 106.023 33.1071 105.615 31.1404 105.141" stroke="white" stroke-width="0.4" stroke-miterlimit="10" stroke-linecap="round" stroke-linejoin="round"/>
<path d="M76.5201 186.258C76.1986 187.23 75.8771 188.203 75.4658 189.46C76.5201 189.46 76.9928 189.46 77.8911 189.46C77.2245 188.317 78.6711 186.898 76.7564 186.258" stroke="white" stroke-width="0.4" stroke-miterlimit="10" stroke-linecap="round" stroke-linejoin="round"/>
<path d="M71.3199 192.422C70.9889 193.418 70.6627 194.419 70.2656 195.624C71.3199 195.624 71.7926 195.624 72.6909 195.624C72.0243 194.481 73.4709 193.062 71.5563 192.422" stroke="white" stroke-width="0.4" stroke-miterlimit="10" stroke-linecap="round" stroke-linejoin="round"/>
<path d="M69.4292 95.6562C69.0983 96.6524 68.7721 97.6533 68.375 98.8582C69.4293 98.8582 69.902 98.8582 70.8003 98.8582C70.1337 97.715 71.5803 96.2966 69.6656 95.6562" stroke="white" stroke-width="0.4" stroke-miterlimit="10" stroke-linecap="round" stroke-linejoin="round"/>
<path d="M66.1197 95.6562C65.7887 96.6524 65.4625 97.6533 65.0654 98.8582C66.1197 98.8582 66.5924 98.8582 67.4907 98.8582C66.8241 97.715 68.2707 96.2966 66.3561 95.6562" stroke="white" stroke-width="0.4" stroke-miterlimit="10" stroke-linecap="round" stroke-linejoin="round"/>
<path d="M74.6295 192.43C74.2986 193.426 73.9724 194.427 73.5753 195.632C74.6295 195.632 75.1023 195.632 76.0005 195.632C75.3339 194.488 76.7806 193.07 74.8659 192.43" stroke="white" stroke-width="0.4" stroke-miterlimit="10" stroke-linecap="round" stroke-linejoin="round"/>
<path d="M64.2291 86.6406C63.8981 87.6368 63.5719 88.6377 63.1748 89.8426C64.2291 89.8426 64.7018 89.8426 65.6001 89.8426C64.9335 88.6994 66.3801 87.281 64.4654 86.6406" stroke="white" stroke-width="0.4" stroke-miterlimit="10" stroke-linecap="round" stroke-linejoin="round"/>
<path d="M60.9195 86.6406C60.5886 87.6368 60.2624 88.6377 59.8652 89.8426C60.9195 89.8426 61.3922 89.8426 62.2905 89.8426C61.6239 88.6994 63.0705 87.281 61.1559 86.6406" stroke="white" stroke-width="0.4" stroke-miterlimit="10" stroke-linecap="round" stroke-linejoin="round"/>
<path d="M57.6099 86.6406C57.279 87.6368 56.9528 88.6377 56.5557 89.8426C57.6099 89.8426 58.0827 89.8426 58.9809 89.8426C58.3143 88.6994 59.761 87.281 57.8463 86.6406" stroke="white" stroke-width="0.4" stroke-miterlimit="10" stroke-linecap="round" stroke-linejoin="round"/>
<path d="M106.068 81.4219C104.258 82.6884 102.352 83.8412 100.66 85.2548C99.3977 86.3031 99.3835 87.8164 100.164 89.249C102.007 92.6359 105.028 94.0401 108.9 93.2574C109.491 93.1388 110.337 92.7735 110.503 92.3134C111.283 90.1503 111.864 87.9207 112.536 85.6343C111.292 82.9778 108.687 82.4892 106.305 81.6591" stroke="white" stroke-width="0.4" stroke-miterlimit="10" stroke-linecap="round" stroke-linejoin="round"/>
<path d="M58.0826 80.9531C57.7611 81.9256 57.4396 82.898 57.0283 84.1551C58.0826 84.1551 58.5553 84.1551 59.4536 84.1551C58.787 83.0119 60.2336 81.5935 58.3189 80.9531" stroke="white" stroke-width="0.4" stroke-miterlimit="10" stroke-linecap="round" stroke-linejoin="round"/>
<path d="M54.774 80.9531C54.443 81.9493 54.1168 82.9502 53.7197 84.1551C54.774 84.1551 55.2467 84.1551 56.145 84.1551C55.4784 83.0119 56.925 81.5935 55.0104 80.9531" stroke="white" stroke-width="0.4" stroke-miterlimit="10" stroke-linecap="round" stroke-linejoin="round"/>
<path d="M51.4643 80.9531C51.1334 81.9493 50.8072 82.9502 50.4101 84.1551C51.4643 84.1551 51.9371 84.1551 52.8353 84.1551C52.1688 83.0119 53.6154 81.5935 51.7007 80.9531" stroke="white" stroke-width="0.4" stroke-miterlimit="10" stroke-linecap="round" stroke-linejoin="round"/>
<path d="M104.886 78.5781C102.778 79.2375 101.563 80.8551 100.367 82.5913C99.2463 84.2089 97.8942 85.6604 96.6934 87.1215C99.1943 93.5966 103.884 96.2389 110.323 96.1013C111.037 96.0871 111.921 95.8499 112.422 95.3897C115.244 92.7807 117.296 86.7752 115.779 83.0799C115.136 81.5145 114.195 80.5278 112.455 80.2147C109.992 79.7688 107.567 79.1331 105.123 78.5829" stroke="white" stroke-width="0.4" stroke-miterlimit="10" stroke-linecap="round" stroke-linejoin="round"/>
<path d="M103.94 71.9375C101.893 73.0428 99.8319 74.1291 97.799 75.2628C94.5606 77.0654 91.308 78.849 88.1122 80.7275C83.8242 83.2464 83.9283 84.4513 84.7556 89.4986C85.1622 91.9938 86.9445 93.4216 88.6322 94.6313C92.0739 97.1027 95.8418 99.1093 99.4395 101.367C100.234 101.865 101.066 102.492 101.543 103.265C103.467 106.367 105.992 108.592 110.19 109.465C111.315 108.744 112.833 107.786 114.341 106.799C115.145 106.272 115.849 105.494 116.719 105.177C121.437 103.455 124.325 99.8399 126.59 95.6322C127.19 94.5222 127.536 93.1228 127.526 91.861C127.507 88.066 127.417 84.2568 127.063 80.4809C126.708 76.7002 123.881 74.0627 120.279 72.8151C117.697 71.9185 115.305 72.0371 112.677 72.3123C109.887 72.6016 107.013 72.0988 104.177 71.9375" stroke="white" stroke-width="0.4" stroke-miterlimit="10" stroke-linecap="round" stroke-linejoin="round"/>
<path d="M67.3017 214.484C69.2401 215.367 68.7484 216.439 67.453 217.644C66.2853 216.799 66.29 215.822 67.0654 214.722" stroke="white" stroke-width="0.4" stroke-miterlimit="10" stroke-linecap="round" stroke-linejoin="round"/>
<path d="M54.3013 223.258C53.9704 224.254 53.6442 225.255 53.2471 226.46C54.3013 226.46 54.7741 226.46 55.6723 226.46C55.0057 225.317 56.4524 223.898 54.5377 223.258" stroke="white" stroke-width="0.4" stroke-miterlimit="10" stroke-linecap="round" stroke-linejoin="round"/>
<path d="M57.6099 223.258C57.279 224.254 56.9528 225.255 56.5557 226.46C57.6099 226.46 58.0827 226.46 58.9809 226.46C58.3143 225.317 59.761 223.898 57.8463 223.258" stroke="white" stroke-width="0.4" stroke-miterlimit="10" stroke-linecap="round" stroke-linejoin="round"/>
<path d="M60.9195 223.258C60.5886 224.254 60.2624 225.255 59.8653 226.46C60.9195 226.46 61.3923 226.46 62.2905 226.46C61.6239 225.317 63.0706 223.898 61.1559 223.258" stroke="white" stroke-width="0.4" stroke-miterlimit="10" stroke-linecap="round" stroke-linejoin="round"/>
<path d="M156.889 172.5C156.558 173.496 156.232 174.497 155.835 175.702C156.889 175.702 157.362 175.702 158.26 175.702C157.594 174.559 159.04 173.14 157.126 172.5" stroke="white" stroke-width="0.4" stroke-miterlimit="10" stroke-linecap="round" stroke-linejoin="round"/>
<path d="M153.581 172.5C153.25 173.496 152.923 174.497 152.526 175.702C153.581 175.702 154.053 175.702 154.952 175.702C154.285 174.559 155.732 173.14 153.817 172.5" stroke="white" stroke-width="0.4" stroke-miterlimit="10" stroke-linecap="round" stroke-linejoin="round"/>
<path d="M150.271 172.5C149.94 173.496 149.614 174.497 149.217 175.702C150.271 175.702 150.744 175.702 151.642 175.702C150.975 174.559 152.422 173.14 150.507 172.5" stroke="white" stroke-width="0.4" stroke-miterlimit="10" stroke-linecap="round" stroke-linejoin="round"/>
<rect x="57.75" y="79.75" width="38.5" height="38.5" rx="19.25" fill="white"/>
<path fill-rule="evenodd" clip-rule="evenodd" d="M73.3841 101.387C73.8991 101.387 74.3841 101.493 74.8081 101.706C75.1261 99.61 76.9451 98 79.1261 98C81.5051 98 83.4441 99.914 83.5051 102.283C84.9291 102.465 86.0351 103.68 86.0351 105.184C86.0351 106.794 84.7321 108.1 83.1261 108.1H73.3841C71.5361 108.1 70.0361 106.596 70.0361 104.744C70.0361 102.89 71.5361 101.387 73.3841 101.387Z" stroke="#222A2F" stroke-width="1.5" stroke-linecap="round" stroke-linejoin="round"/>
<path d="M75.96 89.7984V88.9984" stroke="#222A2F" stroke-width="1.5" stroke-linecap="round" stroke-linejoin="round"/>
<path d="M81.0608 91.91L81.6208 91.34" stroke="#222A2F" stroke-width="1.5" stroke-linecap="round" stroke-linejoin="round"/>
<path d="M67.9604 97H68.7604" stroke="#222A2F" stroke-width="1.5" stroke-linecap="round" stroke-linejoin="round"/>
<path d="M70.3108 91.34L70.8708 91.91" stroke="#222A2F" stroke-width="1.5" stroke-linecap="round" stroke-linejoin="round"/>
<path d="M78.7929 94.172C78.0689 93.448 77.0689 93 75.9639 93C73.7549 93 71.9639 94.791 71.9639 97" stroke="#222A2F" stroke-width="1.5" stroke-linecap="round" stroke-linejoin="round"/>
<rect x="57.75" y="79.75" width="38.5" height="38.5" rx="19.25" stroke="white" stroke-width="1.5"/>
<rect x="113.75" y="135.75" width="38.5" height="38.5" rx="19.25" fill="white"/>
<path d="M126 159.85V150.985C126 149.635 126.529 148.743 127.586 148.308C128.644 147.873 130.282 147.64 132.502 147.61L133.222 146.125H128.7V145H137.7V146.125H134.572L133.897 147.61C135.787 147.64 137.344 147.869 138.566 148.296C139.789 148.724 140.4 149.62 140.4 150.985V159.85C140.4 160.735 140.096 161.481 139.489 162.089C138.881 162.696 138.135 163 137.25 163H135.225H131.175H129.15C128.265 163 127.519 162.696 126.911 162.089C126.304 161.481 126 160.735 126 159.85ZM137.362 156.385H129.015C128.55 156.385 128.156 156.385 127.834 156.385C127.511 156.385 127.35 156.385 127.35 156.385H139.027C139.027 156.385 138.87 156.385 138.555 156.385C138.24 156.385 137.842 156.385 137.362 156.385ZM133.267 160.21C133.612 160.21 133.905 160.09 134.145 159.85C134.385 159.61 134.505 159.317 134.505 158.972C134.505 158.627 134.385 158.335 134.145 158.095C133.905 157.855 133.612 157.735 133.267 157.735C132.922 157.735 132.63 157.855 132.39 158.095C132.15 158.335 132.03 158.627 132.03 158.972C132.03 159.317 132.15 159.61 132.39 159.85C132.63 160.09 132.922 160.21 133.267 160.21ZM133.222 150.197C135.022 150.197 136.376 150.197 137.284 150.197C138.191 150.197 138.72 150.197 138.87 150.197H127.417C127.567 150.197 128.111 150.197 129.049 150.197C129.986 150.197 131.377 150.197 133.222 150.197ZM127.35 155.035H139.027V151.547H127.35V155.035ZM129.015 161.56H137.362C137.842 161.56 138.24 161.395 138.555 161.065C138.87 160.735 139.027 160.33 139.027 159.85V156.385H127.35V159.85C127.35 160.33 127.511 160.735 127.834 161.065C128.156 161.395 128.55 161.56 129.015 161.56ZM133.222 148.96C131.377 148.96 129.986 149.069 129.049 149.286C128.111 149.504 127.567 149.807 127.417 150.197H138.87C138.72 149.897 138.191 149.616 137.284 149.354C136.376 149.091 135.022 148.96 133.222 148.96Z" fill="#222A2F"/>
<rect x="113.75" y="135.75" width="38.5" height="38.5" rx="19.25" stroke="white" stroke-width="1.5"/>
<rect x="57.75" y="135.75" width="38.5" height="38.5" rx="19.25" fill="white"/>
<mask id="mask0_104_3372" style="mask-type:alpha" maskUnits="userSpaceOnUse" x="63" y="143" width="24" height="24">
<rect x="63" y="143" width="24" height="24" fill="#D9D9D9"/>
</mask>
<g mask="url(#mask0_104_3372)">
<path d="M81.5 166C81.0667 166 80.646 165.967 80.238 165.9C79.8293 165.833 79.4333 165.733 79.05 165.6L65 160.475L65.5 159.05L72.4 161.575L74.125 157.125L70.55 153.4C70.1 152.933 69.921 152.379 70.013 151.737C70.1043 151.096 70.4333 150.608 71 150.275L74.475 148.275C74.7583 148.108 75.046 148.012 75.338 147.987C75.6293 147.962 75.9167 148.008 76.2 148.125C76.4833 148.225 76.7293 148.383 76.938 148.6C77.146 148.817 77.3 149.075 77.4 149.375L77.725 150.45C77.9417 151.167 78.296 151.8 78.788 152.35C79.2793 152.9 79.8667 153.317 80.55 153.6L81.075 152L82.5 152.45L81.375 155.9C80.1417 155.7 79.05 155.217 78.1 154.45C77.15 153.683 76.45 152.733 76 151.6L73.475 153.05L76.5 156.5L74.275 162.25L77.375 163.375L79.475 156.95C79.7083 157.033 79.9417 157.108 80.175 157.175C80.4083 157.242 80.65 157.3 80.9 157.35L78.775 163.9L79.55 164.175C79.85 164.275 80.1627 164.354 80.488 164.413C80.8127 164.471 81.15 164.5 81.5 164.5C81.9333 164.5 82.346 164.458 82.738 164.375C83.1293 164.292 83.5083 164.167 83.875 164L85 165.125C84.4667 165.408 83.9083 165.625 83.325 165.775C82.7417 165.925 82.1333 166 81.5 166ZM79.5 149.5C78.95 149.5 78.4793 149.304 78.088 148.912C77.696 148.521 77.5 148.05 77.5 147.5C77.5 146.95 77.696 146.479 78.088 146.087C78.4793 145.696 78.95 145.5 79.5 145.5C80.05 145.5 80.521 145.696 80.913 146.087C81.3043 146.479 81.5 146.95 81.5 147.5C81.5 148.05 81.3043 148.521 80.913 148.912C80.521 149.304 80.05 149.5 79.5 149.5Z" fill="#1C1B1F"/>
</g>
<rect x="57.75" y="135.75" width="38.5" height="38.5" rx="19.25" stroke="white" stroke-width="1.5"/>
<rect x="113.75" y="79.75" width="38.5" height="38.5" rx="19.25" fill="white"/>
<path d="M137 97.2909L140.475 95.1488C140.784 94.9586 141.171 94.9502 141.487 95.1269C141.804 95.3035 142 95.6376 142 96V102.997C142 103.359 141.804 103.693 141.487 103.87C141.171 104.047 140.784 104.038 140.475 103.848L137 101.706" stroke="#222A2F" stroke-width="1.5" stroke-linecap="round" stroke-linejoin="round"/>
<rect x="124" y="93" width="13" height="13" rx="3" stroke="#222A2F" stroke-width="1.5" stroke-linecap="round" stroke-linejoin="round"/>
<rect x="113.75" y="79.75" width="38.5" height="38.5" rx="19.25" stroke="white" stroke-width="1.5"/>
</svg>
