<svg width="134" height="154" viewBox="0 0 134 154" fill="none" xmlns="http://www.w3.org/2000/svg">
<path d="M47.5978 15.6485C46.8252 15.1702 40.9454 11.176 40.1931 10.6691C39.0212 9.87863 37.832 9.10537 36.7382 8.21468C36.2753 7.8395 35.7515 7.18938 35.7544 6.66528C35.766 4.43426 33.9547 3.76696 32.4934 3.15121C29.8054 2.01422 26.9726 1.27532 23.9894 1.02329C21.5791 0.819953 20.1468 1.9684 18.9316 3.66672C16.3679 7.24952 16.3621 11.1416 17.7799 15.1082C19.1081 18.8285 20.9715 22.2881 23.4165 25.4184C24.7446 27.1196 25.6156 28.9354 25.1989 31.3869C24.3251 32.2518 23.2371 33.2313 22.2649 34.3139C20.5838 36.1869 18.8332 38.0227 17.3662 40.0532C14.9356 43.4155 11.9466 46.036 8.23136 47.9262C4.85174 49.6446 2.39805 52.2422 1.27537 55.9252C1.18856 56.2145 0.988908 56.5009 1.00048 56.7844C1.12201 59.6026 1.26958 62.4178 1.42583 65.2331C1.45187 65.7114 1.59587 66.2519 1.62548 66.6593C1.89381 67.1337 1.78128 67.0975 2.19175 67.4277C3.56617 68.5331 4.18624 69.0479 5.44781 70.2679C7.14919 71.909 8.22268 73.9653 8.79849 76.2593C9.56527 79.318 10.1584 82.3824 10.3321 85.5643C10.4246 87.3084 11.4605 88.9896 11.9698 90.728C13.1156 94.6316 14.3511 98.5179 15.2452 102.482C15.7024 104.504 15.5953 106.669 15.5722 108.768C15.5462 110.916 15.1237 113.073 15.2105 115.209C15.3234 118.007 14.6289 120.619 13.5236 123.065C11.8164 126.845 12.317 130.064 14.5016 133.59C17.4327 138.33 22.1202 140.38 26.7325 142.712C27.4819 143.09 28.2429 143.488 28.8939 144.006C31.1971 145.839 33.6451 147.4 36.4228 148.445C37.1491 148.717 37.4905 149.327 37.4529 150.149C37.4008 151.189 37.6063 152.14 38.9894 152.667C40.2538 151.02 42.2967 149.975 43.2602 147.87C43.4801 147.391 44.0414 146.864 44.5391 146.75C46.6803 146.254 47.0362 144.436 47.505 142.826C47.7191 142.093 48.0171 141.672 48.5756 141.262C50.8614 139.59 52.2793 137.459 52.557 134.546C52.6438 133.647 53.4019 132.671 54.108 131.992C55.7515 130.417 57.5223 128.967 59.2989 127.538C60.1554 126.851 61.1855 126.556 62.3024 126.284C63.6073 125.966 64.8805 125.101 65.9077 124.19C67.3573 122.907 69.0009 122.048 70.708 121.203C73.263 119.94 75.5402 118.299 77.5425 116.234C79.6374 114.069 82.1692 112.964 85.3376 113.746C86.8364 114.115 88.4539 114.464 89.9528 114.284C92.826 113.937 95.6472 113.179 98.4973 112.637C101.301 112.107 103.133 109.968 105.442 108.622C106.206 108.178 106.955 107.7 107.759 107.342C111.654 105.6 115.829 104.303 119.403 102.066C123.396 99.569 127.681 97.3494 130.925 93.7466C132.968 91.4783 132.918 88.9609 132.348 86.2803C132.048 84.8626 130.777 84.2927 129.724 83.7428C125.39 81.4746 121.645 78.476 118.338 74.9476C116.608 73.0975 115.404 70.9266 115.555 68.2374C115.627 66.9515 115.717 65.6398 115.534 64.3768C115.23 62.2775 113.367 60.7825 111.229 60.8083C109.733 60.8255 108.24 61.0202 106.744 61.0718C104.299 61.1577 104.14 59.9348 103.992 58.3596C103.917 57.5462 103.755 56.7386 103.72 55.9252C103.694 55.2608 103.622 54.5076 103.885 53.9377C104.603 52.3768 104.415 50.7644 104.226 49.2036C104.116 48.3071 103.549 47.3735 102.959 46.6375C100.85 44.0112 98.8243 41.2819 96.4255 38.9334C93.6188 36.184 90.7051 33.5177 87.0853 31.6934C81.9522 29.1043 76.9493 26.2719 71.8741 23.5683C68.1299 21.5721 64.2323 19.9282 60.1641 18.6767C59.0153 18.3244 57.9708 17.6428 56.8221 17.2848C54.9963 16.7177 53.211 16.7378 51.9118 18.2586C50.3464 17.3106 48.8852 16.4256 47.4239 15.5435" stroke="white" stroke-width="1.5" stroke-miterlimit="10" stroke-linecap="round" stroke-linejoin="round"/>
<path d="M91.5032 98.2306C91.7035 96.5649 91.9011 94.8991 92.1013 93.2334C91.9834 93.2307 91.8626 93.2279 91.7447 93.2279C91.1959 92.7726 90.6499 92.3174 90.2329 91.9684C90.3015 91.3304 90.4167 90.8234 90.3948 90.3245C90.3536 89.4575 90.1094 88.5906 90.1533 87.7345C90.3783 83.4598 89.8817 79.3186 88.2355 75.3192C87.47 73.4626 86.688 71.5515 86.3533 69.594C85.8787 66.8269 85.5686 63.9589 87.3904 61.4262C89.119 59.0216 89.8104 56.2027 89.761 53.3864C89.7226 51.2872 88.8638 49.1716 88.1943 47.1215C86.5344 42.0261 82.6768 38.8037 78.1634 36.4128C75.6776 35.096 72.89 34.2399 69.968 34.1554C69.6004 34.1445 69.2025 34.0518 68.876 33.8828C66.8073 32.8141 64.7934 31.6282 62.6808 30.6576C61.6327 30.1778 60.4035 30.1042 59.2704 29.7961C58.2387 29.5153 57.2263 29.1637 55.9587 28.7656C54.211 29.6626 52.1944 30.6549 50.2189 31.7209C48.2709 32.7732 47.2174 34.5071 46.7948 36.62C46.5177 38.0076 45.7879 39.2045 44.5697 39.7061C41.5132 40.9574 39.7929 43.302 38.55 46.1591C38.3059 46.718 38.0068 47.2524 37.7324 47.7976" stroke="white" stroke-width="0.4" stroke-miterlimit="10" stroke-linecap="round" stroke-linejoin="round"/>
<path d="M68.6141 99.5583C69.4847 98.6962 77.8194 93.2288 78.8894 93.0843C82.352 92.6127 83.8089 91.2741 84.0832 87.8663C84.2451 85.8734 84.407 83.8641 84.3439 81.8712C84.2204 77.9045 82.9364 74.1805 81.8087 70.4073C80.799 67.0268 80.5192 63.6953 82.7855 60.4183C84.3192 58.2046 85.3755 55.5765 85.1972 52.7003C85.0847 50.8846 85.0106 49.0662 84.92 47.2478C84.9146 47.1115 84.9777 46.9152 84.9091 46.847C83.3808 45.3748 82.972 43.1284 81.2353 41.7653C80.1543 40.9174 79.312 39.7724 78.3187 38.8073C78.0389 38.5374 77.6136 38.3984 77.2322 38.2539C73.0646 36.6617 68.7323 35.6912 64.3369 34.9933C63.8979 34.9224 63.426 35.0996 62.9678 35.1078C61.8703 35.1268 60.7591 35.225 59.6781 35.0887C57.8453 34.8569 56.2951 34.9333 54.9672 36.5772C53.6612 38.1939 52.0726 39.617 50.4483 40.931C49.6938 41.5445 48.5826 41.7762 47.5976 42.0488C44.7991 42.8258 43.1117 44.666 42.4093 47.3841C42.0252 48.8726 41.685 50.3366 40.7659 51.6207C40.5189 51.9669 40.5601 52.5122 40.4668 52.9675" stroke="white" stroke-width="0.4" stroke-miterlimit="10" stroke-linecap="round" stroke-linejoin="round"/>
<path d="M69.0048 88.28C70.4535 88.629 71.8061 88.6181 72.8487 87.3286C73.8475 86.0936 74.9971 84.9567 75.8229 83.6209C76.5335 82.4731 76.4704 81.0009 75.8284 79.8504C74.1493 76.8379 72.3549 73.8881 70.4864 70.9874C69.7182 69.7987 69.3396 68.6673 69.6825 67.2879C69.9157 66.3473 69.913 65.3222 70.2834 64.4444C70.6428 63.5938 71.2766 62.8277 71.8994 62.1189C73.927 59.8206 75.9903 57.5551 78.0672 55.2978C79.0275 54.2536 78.4788 53.114 78.3169 52.0235C78.1304 50.7831 77.727 49.5754 77.5267 48.3376C77.0795 45.595 75.4854 43.5531 73.3563 41.9882C72.4646 41.3339 71.1202 41.0694 69.9679 41.0204C66.8181 40.8922 63.6601 40.9577 60.5049 41.0013C60.0906 41.0067 59.5803 41.2412 59.2867 41.5384C57.1302 43.7194 54.1368 44.4146 51.6016 45.9086C50.3752 46.631 49.1131 47.4516 48.1994 48.5094C46.6712 50.2787 47.1706 53.5802 48.9841 55.1506C49.8402 55.8921 50.7401 56.5846 51.5852 57.3397C53.3055 58.8828 53.2451 61.3092 51.448 62.7841C50.0926 63.8964 48.707 64.9705 47.3352 66.061" stroke="white" stroke-width="0.4" stroke-miterlimit="10" stroke-linecap="round" stroke-linejoin="round"/>
<path d="M72.0242 88.2815C73.7609 88.2815 75.4977 88.2815 77.3991 88.2815C79.6599 86.4822 80.5077 83.835 80.2086 80.9261C79.8903 77.8263 79.1742 74.7538 77.7558 71.9403C77.0643 70.5718 76.6061 69.2468 76.6473 67.6983C76.6638 67.0685 76.3263 66.3706 75.9833 65.8008C74.9956 64.1596 75.0121 63.3526 76.5595 61.7087C77.2427 60.9835 78.0383 60.3619 78.7407 59.6531C80.5763 57.8074 81.7341 55.7409 81.3802 52.9738C80.9768 49.844 80.6833 46.7443 78.9054 43.9662C77.0095 41.0001 74.2136 39.5797 70.9267 38.7918C68.8305 38.2875 66.7618 38.0993 64.608 38.4919C63.4584 38.7018 62.1551 38.2629 61.0659 38.5901C59.2166 39.1462 57.2 39.7378 55.7596 40.9237C53.304 42.9466 50.5466 44.1462 47.5916 45.0404C46.977 45.2258 46.7877 45.4711 46.4557 45.9973C44.9796 48.3282 44.6257 50.8282 44.5132 53.5218C44.4227 55.6919 43.5365 57.7665 42.1152 59.5223" stroke="white" stroke-width="0.4" stroke-miterlimit="10" stroke-linecap="round" stroke-linejoin="round"/>
<path d="M48.168 18C48.7633 18.627 48.6893 18.8179 49.3725 19.5376C50.2368 20.3391 47.9403 21.765 49.8225 22.8282C50.2587 22.3947 50.7306 21.9531 51.1696 21.4814C51.6306 20.9853 54.0176 20.9116 54.8818 21.3424C56.5637 22.1794 58.2291 23.0681 59.9631 23.7797C62.1663 24.6848 64.4628 25.3718 66.666 26.2769C68.1338 26.8821 69.5084 27.7137 70.9297 28.4334C71.9311 28.9405 72.9463 29.423 73.945 29.9383C75.5061 30.7453 77.0399 31.604 78.6175 32.3756C79.5915 32.8526 80.6368 33.1743 81.6273 33.6215C82.9662 34.2267 84.3847 34.7365 85.5892 35.5516C88.4536 37.4927 91.115 39.7392 92.8435 42.768C94.476 45.6252 95.8533 48.6322 97.2334 51.6229C97.5599 52.3345 97.4694 53.2423 97.538 54.0602C97.645 55.3306 97.8288 56.6065 97.7849 57.8769C97.7465 59.0165 97.7602 60.3415 97.1977 61.2439C96.21 62.8224 96.2649 64.4854 96.5036 66.0475C97.0139 69.3736 98.383 72.4815 100.603 75.0142C102.619 77.3179 103.324 80.0578 104.041 82.3342C106.087 84.5179 107.849 86.3963 109.61 88.2747" stroke="white" stroke-width="0.4" stroke-miterlimit="10" stroke-linecap="round" stroke-linejoin="round"/>
<path d="M38.1387 16.8525C39.612 15.2412 40.4736 15.1486 42.2624 16.1573C44.7455 17.5613 46.8115 19.3524 48.1915 21.9315C47.8184 22.9075 47.4837 23.9189 48.765 24.6059C50.2932 23.0683 52.1918 23.8208 53.9066 24.1288C56.3211 24.5623 58.6944 25.2766 61.0402 26.0127C62.4587 26.4571 63.9266 26.9723 65.1393 27.7929C68.857 30.3093 72.8765 32.1631 77.1018 33.6135C81.7414 35.2083 85.2752 38.0709 88.4552 41.844C91.5473 45.5136 92.782 49.6902 94.0276 54.0495C94.516 55.7561 93.7368 57.0347 93.2594 58.417C92.2908 61.2168 91.5171 64.0358 91.5199 67.0156C91.5199 67.4708 91.668 67.9289 91.786 68.3787C92.4171 70.7887 93.0399 73.2014 93.7203 75.6005C93.8849 76.1758 94.2608 76.691 94.5242 77.2417C94.8068 77.8279 95.3802 78.4713 95.2952 79.0056C94.9714 81.0231 95.8467 82.7651 96.3131 84.6026C96.3378 84.6981 96.4667 84.8207 96.4393 84.8698C95.5641 86.4728 96.6643 87.4788 97.4325 88.4194C98.6891 88.4194 99.8305 88.4194 100.975 88.4194C102.209 88.4194 103.444 88.4194 104.679 88.4194C106.234 88.4194 107.878 88.1031 109.318 88.5039C110.973 88.9619 112.435 90.0879 114.013 90.8621C114.962 91.3283 115.974 91.6718 117.335 92.2252C116.619 92.9259 116.15 93.4166 115.648 93.8692C114.929 94.5207 114.177 95.1341 113.461 95.7857C112.984 96.2192 112.542 96.6908 112.087 97.1461" stroke="white" stroke-width="0.4" stroke-miterlimit="10" stroke-linecap="round" stroke-linejoin="round"/>
<path d="M98.2107 103.016C96.633 103.703 92.2173 106.169 90.3982 105.94C88.8371 105.743 87.1991 106.068 85.5885 106.28C82.7406 106.654 80.4002 108.246 77.6565 108.764C73.2474 109.595 68.8877 110.623 64.3442 110.571C63.3894 110.561 62.2096 111.207 61.5182 111.918C60.6155 112.845 59.9323 114.075 59.4467 115.291C58.7882 116.932 57.8197 117.894 55.9787 117.881C55.5232 117.878 55.0677 118.066 54.6123 118.167C53.4709 119.372 52.3158 120.588 51.0236 121.954C50.6285 121.954 50.0715 121.954 49.3746 121.954C49.2841 123.262 49.3444 124.481 49.0783 125.626C48.8094 126.787 48.2168 127.878 47.69 129.181C44.757 131.596 41.1216 132.351 37.1816 132.041" stroke="white" stroke-width="0.4" stroke-miterlimit="10" stroke-linecap="round" stroke-linejoin="round"/>
<path d="M85.1938 103.96C84.2335 104.142 83.2787 104.404 82.3102 104.483C81.1743 104.576 80.0082 104.619 78.8888 104.459C78.3099 104.374 77.7995 103.802 77.2316 103.521C75.9969 102.85 74.7321 102.231 73.5386 101.492C72.2902 100.721 71.4369 100.803 70.3724 101.503C68.6905 102.61 66.7672 103.458 65.3514 104.832C63.0138 107.095 61.0603 109.742 58.8297 112.122C57.5319 113.507 56.4701 114.363 55.0269 115.606C54.3876 116.16 52.9554 116.724 52.2832 117.242C51.1638 118.106 51.1857 119.696 50.9113 120.514M50.0882 120.377C48.9908 120.65 48.0305 120.543 46.9468 123.327C45.9727 125.83 43.8683 127.637 41.1576 128.499C40.9244 128.572 40.6994 128.676 40.3208 128.826C38.7596 127.386 36.7046 128.349 34.8498 127.943C34.6989 127.91 34.5727 127.768 34.4355 127.678" stroke="white" stroke-width="0.4" stroke-miterlimit="10" stroke-linecap="round" stroke-linejoin="round"/>
<path d="M51.9934 50.3838C52.1965 51.5261 52.4023 52.6657 52.5449 53.4699C53.6698 54.2878 54.4984 55.0021 55.4313 55.5473C58.0927 57.1013 60.3644 59.2332 63.2288 60.4982C65.8326 61.646 69.4625 60.5773 70.4228 57.6247C71.084 55.591 72.4065 53.7671 73.0677 51.7306C73.9704 48.9525 72.6205 45.0622 69.9619 44.1107C69.8658 44.0753 69.7808 43.9853 69.6875 43.9798C67.0343 43.8817 64.3647 43.5791 61.739 43.7945C60.4605 43.898 59.2587 44.9667 58.0296 45.6129C57.1982 46.0518 56.408 46.578 55.552 46.9596C53.9579 47.6712 52.5778 48.5818 51.8535 50.2448" stroke="white" stroke-width="0.4" stroke-miterlimit="10" stroke-linecap="round" stroke-linejoin="round"/>
<path d="M47.605 109.681C48.2004 109.318 48.8315 109.002 49.3802 108.582C51.0017 107.336 52.5546 106.003 54.1981 104.787C56.1242 103.361 56.8924 101.112 58.2698 99.2964C59.9461 97.0881 61.6033 94.9916 63.8614 93.2386C66.2264 91.4011 68.0757 88.8984 70.0896 86.6329C70.9099 85.7114 71.5602 84.64 72.301 83.6477C73.3107 82.2954 72.921 80.4443 71.8922 79.4165C70.2295 77.7535 68.5723 76.0796 66.9563 74.3702C65.5625 72.898 63.5706 72.639 61.8722 71.7912C59.5757 70.6461 57.2079 70.7388 54.7304 71.1832C53.4189 71.4177 51.9949 70.9542 50.6258 70.9897C47.7971 71.0605 45.1165 71.5894 43.0642 73.8168C42.4332 74.5011 41.6238 75.0191 40.883 75.6025C38.4768 77.4999 36.8525 79.9427 35.9718 82.8352C35.5849 84.1057 35.4862 85.4633 35.2584 86.7801C34.8908 88.9148 34.3667 91.0385 34.2021 93.1896C34.0073 95.7468 32.929 98.015 32.2541 100.414C31.9907 101.347 31.8617 102.317 31.6971 103.274C31.5819 103.95 31.4886 104.634 31.4228 105.319C31.1539 107.99 31.9002 110.49 32.8138 112.944C33.0196 113.497 33.4942 113.95 33.8015 114.383C35.8127 113.77 37.5961 113.222 39.3767 112.677" stroke="white" stroke-width="0.4" stroke-miterlimit="10" stroke-linecap="round" stroke-linejoin="round"/>
<path d="M23.4594 46.7031C23.5335 47.7146 23.2371 48.4943 22.3784 49.1758C19.7115 51.2941 16.6221 52.6682 13.5574 54.0068C10.9399 55.1491 9.68332 56.8421 9.41718 59.6474C9.16751 62.2973 10.0016 64.601 11.2994 66.7084C12.4956 68.6495 12.7041 70.806 13.283 72.8806C14.0787 75.7241 14.515 78.6412 14.696 81.5965C14.7646 82.7388 14.921 83.9083 15.2722 84.9907C15.4862 85.6586 16.0734 86.2611 16.6166 86.7573C17.3053 87.3843 18.1202 87.875 18.8637 88.4121C19.2039 88.4121 19.6182 88.4121 20.0298 88.4121" stroke="white" stroke-width="0.4" stroke-miterlimit="10" stroke-linecap="round" stroke-linejoin="round"/>
<path d="M35.5309 65.2409C34.6117 65.5026 33.6953 65.7643 32.65 66.0615C28.3342 62.5228 23.5711 59.8456 17.5652 60.5953C17.3484 61.0234 17.1372 61.4432 16.8848 61.9448C17.2661 62.9317 17.6832 64.0195 18.1085 65.1046C19.5215 68.6869 22.663 70.6416 25.5082 72.8826C26.4191 73.6023 27.3986 74.3111 28.0872 75.2163C29.086 76.533 28.7677 78.1388 28.6936 79.69C28.5317 83.0488 28.5208 86.4157 28.3891 89.7745C28.2519 93.2205 27.9885 96.6555 27.0364 100.001C26.9651 100.254 27.0392 100.543 27.0254 100.816C26.891 103.406 26.5618 106.004 26.6797 108.583C26.7648 110.461 27.3684 112.332 27.876 114.166C28.1888 115.295 28.7814 116.347 29.2176 117.446C29.8816 119.123 31.1245 120.33 32.6692 121.086C34.3209 121.892 36.1235 121.939 37.8658 121.132C37.9782 121.08 38.1374 121.126 38.2746 121.126" stroke="white" stroke-width="0.4" stroke-miterlimit="10" stroke-linecap="round" stroke-linejoin="round"/>
<path d="M37.0412 14.4031C36.2345 12.2957 34.3002 10.9952 31.9653 10.9952C31.2794 10.9952 30.5935 10.9952 29.9076 10.9952C28.972 9.35132 27.7593 8.18448 25.5012 8.6125C23.9675 9.32951 24.1019 10.8971 24.0114 12.3584C23.8001 15.7935 24.3955 19.0323 26.1789 22.0502C27.1282 23.656 27.773 25.4417 28.7031 27.0611C29.1558 27.849 29.9954 28.4078 30.5798 29.133C31.1395 29.831 31.5949 30.6161 32.0943 31.3604C31.9598 31.3876 31.8254 31.4149 31.691 31.4449C31.691 32.7153 31.6224 33.9912 31.7074 35.2562C31.8501 37.38 31.3206 39.2802 30.0448 40.9813" stroke="white" stroke-width="0.4" stroke-miterlimit="10" stroke-linecap="round" stroke-linejoin="round"/>
<path d="M61.1854 45.3378C59.4925 46.7473 57.7914 48.1431 56.115 49.569C55.4044 50.1742 55.1191 50.9457 55.4181 51.8808C55.5169 52.1834 55.5498 52.5079 55.5965 52.745C56.4223 53.3748 57.2454 53.9664 58.0246 54.6098C60.0221 56.2646 62.2801 57.4233 64.8866 57.4151C66.6151 57.4097 67.8498 56.2428 68.7388 54.7488C69.935 52.7369 70.0063 50.5232 69.7704 48.3421C69.625 46.9899 68.2175 46.4583 67.0706 46.0521C65.7509 45.5886 64.3543 45.2669 62.9633 45.0952C61.5448 44.918 60.1592 45.0952 58.9685 46.1312C58.2057 46.7964 57.3003 47.358 56.373 47.7669C53.9448 48.8356 53.1766 51.1993 54.9023 53.0804C56.2248 54.5253 57.6899 55.8993 59.2977 57.0089C60.6531 57.944 62.3075 58.4538 63.7754 59.1272C65.7234 59.0154 67.7126 58.9527 69.5975 56.5454C70.1435 54.7352 70.8788 52.0553 71.787 49.4381C72.0806 48.5875 71.9516 48.0232 71.4797 47.3771C70.9611 46.6628 70.4892 45.9131 69.9268 45.0761C67.3175 44.9371 64.6644 44.7953 62.0085 44.6562" stroke="white" stroke-width="0.4" stroke-miterlimit="10" stroke-linecap="round" stroke-linejoin="round"/>
<path d="M30.5927 52.9766C27.8545 54.1761 25.4208 55.94 22.6524 57.1014C21.2038 57.7093 19.7277 57.7693 18.2461 57.8566C16.309 57.9711 14.7671 58.7017 13.4199 60.561C14.3555 63.4263 15.3734 66.4361 16.32 69.4704C17.6315 73.6852 19.05 77.8809 20.1118 82.1584C20.8224 85.021 21.8101 87.7445 22.8747 90.4735C23.3713 91.7521 23.5963 93.1752 23.706 94.5492C23.9036 96.9947 24.0627 99.4592 23.9694 101.907C23.8761 104.366 23.5002 106.82 23.1765 109.268C22.7457 112.523 23.2835 115.645 24.4386 118.668C25.0532 120.282 25.3906 122.054 26.7543 123.309" stroke="white" stroke-width="0.4" stroke-miterlimit="10" stroke-linecap="round" stroke-linejoin="round"/>
<path d="M26.2028 49.4297C24.4633 50.632 23.4152 52.5976 21.4178 53.5491C20.1475 54.1543 19.0775 55.1657 17.8154 55.7955C17.1047 56.1526 16.1527 56.0027 15.3762 56.2699C14.3775 56.6161 13.4035 57.0796 12.4953 57.6221C10.6296 58.7344 11.3787 60.5392 11.7299 61.9514C12.3005 64.2387 13.3239 66.4143 14.1251 68.6498C14.5284 69.773 15.0497 70.8962 15.1951 72.0603C15.6341 75.569 16.4024 79.0014 17.2858 82.4146C17.4258 82.9599 17.6452 83.4997 17.6809 84.0504C17.766 85.359 18.3559 86.3541 19.3326 87.1965C19.7195 87.5291 19.9829 88.0008 20.3039 88.4097" stroke="white" stroke-width="0.4" stroke-miterlimit="10" stroke-linecap="round" stroke-linejoin="round"/>
<path d="M46.7824 106.136C47.2406 106.046 47.7756 106.076 48.1405 105.845C51.3616 103.794 54.5937 101.709 56.7777 98.4919C59.8835 93.9145 64.0045 90.1877 67.3381 85.812C68.2463 84.6207 68.902 83.2385 69.6785 81.938C69.4727 81.4419 69.3959 80.9675 69.127 80.6594C67.3491 78.6175 65.4477 76.7064 62.6903 76.0221C60.8904 75.575 59.3293 74.3563 57.3429 74.4954C56.0231 74.5881 54.687 74.4436 53.3673 74.5308C51.625 74.6426 49.891 74.8743 48.1542 75.0624C47.8771 75.0924 47.5643 75.0788 47.3366 75.2069C43.2485 77.5242 39.5226 80.2341 38.1727 85.0214C37.5609 87.1915 37.3331 89.468 36.8969 91.6899C36.6115 93.1511 36.2027 94.5879 35.9558 96.0546C35.5827 98.271 35.2315 100.498 35.0065 102.734C34.8666 104.13 34.9214 105.553 34.9955 106.957C35.0998 108.914 36.1918 109.544 38.137 108.871C38.2605 108.827 38.4087 108.865 38.5458 108.865" stroke="white" stroke-width="0.4" stroke-miterlimit="10" stroke-linecap="round" stroke-linejoin="round"/>
<path d="M49.1263 100.652C48.8613 100.822 43.1506 102.797 42.8178 102.863C41.4051 103.355 39.656 102.899 39.5803 101.466C39.5265 100.439 39.4866 99.3973 39.5883 98.3758C39.7516 96.7399 40.0067 95.1099 40.2777 93.4879C40.457 92.4146 40.7539 91.3632 40.9611 90.2939C41.2779 88.6679 41.4433 87.0021 41.8876 85.414C42.8679 81.9107 45.5737 79.9277 48.5425 78.2319C48.7079 78.1381 48.935 78.1481 49.1363 78.1261C50.3975 77.9885 51.6568 77.8189 52.922 77.7371C53.8804 77.6733 54.8507 77.779 55.8091 77.7112C57.2517 77.6094 58.3854 78.5012 59.6925 78.8284C61.6949 79.3291 63.0757 80.7277 64.3668 82.2219C64.5621 82.4474 64.6179 82.7945 64.7673 83.1576C64.2035 84.1093 63.7273 85.1207 63.0677 85.9926C60.6469 89.1946 57.6541 91.9218 55.3987 95.2715C53.8126 97.6257 51.4655 99.1519 49.1263 100.652Z" stroke="white" stroke-width="0.4" stroke-miterlimit="10" stroke-linecap="round" stroke-linejoin="round"/>
<path d="M50.9601 94.7517C50.7959 94.8574 47.2577 96.0894 47.0516 96.1304C46.1763 96.4378 45.0926 96.1528 45.0457 95.2594C45.0124 94.6185 44.9877 93.9689 45.0507 93.3318C45.1519 92.3114 45.3099 91.2948 45.4778 90.2831C45.5889 89.6136 45.7728 88.9578 45.9012 88.2908C46.0975 87.2767 46.2 86.2376 46.4753 85.2471C47.0826 83.0619 48.759 81.825 50.5984 80.7673C50.7009 80.7088 50.8416 80.715 50.9663 80.7013C51.7477 80.6155 52.5279 80.5097 53.3118 80.4587C53.9056 80.4189 54.5068 80.4848 55.1005 80.4425C55.9943 80.379 56.6967 80.9353 57.5065 81.1394C58.7472 81.4517 59.6027 82.324 60.4026 83.2561C60.5236 83.3967 60.5582 83.6132 60.6507 83.8397C60.3014 84.4332 60.0063 85.0642 59.5977 85.6079C58.0978 87.6052 56.2437 89.3062 54.8462 91.3956C53.8636 92.8639 52.4094 93.8159 50.9601 94.7517Z" stroke="white" stroke-width="0.4" stroke-miterlimit="10" stroke-linecap="round" stroke-linejoin="round"/>
<path d="M53.0026 88.5403C52.9335 88.5841 51.4437 89.0938 51.3569 89.1108C50.9884 89.238 50.5321 89.1201 50.5124 88.7504C50.4983 88.4852 50.4879 88.2164 50.5144 87.9528C50.5571 87.5305 50.6236 87.1099 50.6943 86.6912C50.7411 86.4142 50.8185 86.1428 50.8726 85.8668C50.9552 85.4472 50.9984 85.0172 51.1143 84.6074C51.37 83.7032 52.0759 83.1913 52.8503 82.7537C52.8935 82.7295 52.9527 82.732 53.0052 82.7264C53.3343 82.6908 53.6628 82.6471 53.9928 82.626C54.2428 82.6095 54.496 82.6368 54.746 82.6193C55.1223 82.593 55.418 82.8232 55.759 82.9076C56.2814 83.0369 56.6416 83.3978 56.9784 83.7835C57.0294 83.8417 57.0439 83.9313 57.0829 84.025C56.9358 84.2706 56.8116 84.5317 56.6395 84.7567C56.008 85.5831 55.2273 86.287 54.6389 87.1516C54.2252 87.7592 53.6129 88.1531 53.0026 88.5403Z" stroke="white" stroke-width="0.4" stroke-miterlimit="10" stroke-linecap="round" stroke-linejoin="round"/>
<path d="M104.948 102.32C102.432 103.773 99.9328 105.254 97.3921 106.663C96.8269 106.977 96.1328 107.149 95.4798 107.208C93.2985 107.41 91.0926 107.402 89.0266 108.299C88.7193 108.433 88.3023 108.337 87.9374 108.313C86.9167 108.247 86.047 108.476 85.1745 109.106C83.5118 110.308 81.69 110.166 79.8325 109.433C79.3579 109.245 78.65 109.218 78.2165 109.439C76.798 110.164 75.4261 110.995 74.09 111.868C71.7798 113.378 69.4751 114.899 67.239 116.513C66.1881 117.271 65.0276 116.977 63.9246 117.138C63.1756 117.247 62.3744 117.001 61.4608 116.9C59.5045 118.359 57.2684 119.684 55.4823 121.459C53.8854 123.043 52.5932 125.041 52.2831 127.399C52.017 129.427 51.161 130.962 49.1087 131.611C48.4502 131.818 47.7506 131.892 46.8698 132.069C45.6599 135.035 42.7927 136.925 40.4908 139.395C40.2411 139.395 39.8762 139.395 39.3439 139.395C39.1162 138.511 38.8802 137.593 38.6113 136.548C38.0159 136.42 37.3081 136.319 36.6304 136.112C35.5658 135.788 34.4354 135.545 33.4916 134.997C32.0484 134.158 30.4955 133.659 28.9453 133.124" stroke="white" stroke-width="0.4" stroke-miterlimit="10" stroke-linecap="round" stroke-linejoin="round"/>
<path d="M20.4414 88.6875C21.5334 89.6253 21.58 90.9939 21.7831 92.2371C22.0849 94.08 22.3044 95.9557 22.3263 97.8205C22.3483 99.6825 22.1068 101.547 21.9449 103.409C21.6102 107.311 20.7405 111.185 21.2673 115.132C21.7968 119.104 22.6364 122.989 24.8368 126.443C25.059 126.792 25.3169 127.196 25.6654 127.381C26.6394 127.897 27.6655 128.311 28.6725 128.766" stroke="white" stroke-width="0.4" stroke-miterlimit="10" stroke-linecap="round" stroke-linejoin="round"/>
<path d="M33.3368 58.1562C32.0555 58.5652 30.8016 59.1295 29.4901 59.3504C26.9577 59.7756 24.4033 60.0128 21.8105 59.683C19.6595 59.4076 17.4728 59.2495 15.3052 59.8874C14.9074 62.2647 15.832 64.1295 16.8856 65.9234C19.6869 70.6916 22.4169 75.4761 23.7613 80.9178C24.4609 83.7531 25.0398 86.5802 25.1331 89.5109C25.177 90.8795 25.5804 92.2344 25.6325 93.603C25.6956 95.326 25.6215 97.0599 25.509 98.7802C25.3279 101.556 25.0563 104.323 24.8368 107.095C24.5185 111.108 25.5694 114.821 26.9495 118.576C28.0634 121.607 30.198 123.142 32.928 124.271" stroke="white" stroke-width="0.4" stroke-miterlimit="10" stroke-linecap="round" stroke-linejoin="round"/>
<path d="M40.1961 70.9688C37.0875 74.7691 34.1956 78.7113 32.5412 83.3841C32.083 84.6818 31.9238 86.094 31.6989 87.4653C31.1254 90.914 30.8758 94.4473 29.9594 97.8006C29.1856 100.625 28.8701 103.398 28.9415 106.276C28.9826 107.912 28.9579 109.548 28.9469 111.184C28.9387 112.738 29.2789 114.136 30.4477 115.284C31.323 116.143 32.0638 117.132 32.939 117.988C33.8883 118.915 34.8925 118.986 35.9296 118.117C37.0655 117.165 38.4236 116.928 39.7873 116.636" stroke="white" stroke-width="0.4" stroke-miterlimit="10" stroke-linecap="round" stroke-linejoin="round"/>
<path d="M76.9626 88.6875C74.2656 90.5959 71.5658 92.5043 68.8687 94.4154C68.63 94.5844 68.3145 94.7289 68.1965 94.9661C67.2582 96.8336 65.6861 98.0904 64.07 99.3281C61.9601 100.947 60.3606 103.036 58.8652 105.192C58.1464 106.228 57.658 107.428 56.9117 108.439C55.8115 109.928 54.4342 111.078 52.5685 111.048C50.8674 112.962 49.2431 114.805 47.5914 116.623C47.3994 116.833 47.0537 116.907 46.7793 117.043" stroke="white" stroke-width="0.4" stroke-miterlimit="10" stroke-linecap="round" stroke-linejoin="round"/>
<path d="M37.8627 17.1255C37.4512 16.8065 36.9271 16.5639 36.65 16.1577C35.8735 15.0181 34.8529 14.5055 33.4783 14.3583C32.5839 14.2629 31.7388 13.7558 30.8663 13.4478C30.1036 13.1806 29.3298 12.9379 28.5973 12.6953C26.8468 13.7476 27.2117 15.3834 27.3242 16.8529C27.5986 20.4733 29.4094 23.4477 31.5522 26.2612C32.9433 28.0878 33.3 28.3822 37.303 30.1951C37.432 31.2856 37.7008 32.5206 37.7036 33.7584C37.7091 36.55 37.9478 39.339 36.96 42.0925C36.3948 43.6683 35.1026 44.4562 34.1615 45.6176" stroke="white" stroke-width="0.4" stroke-miterlimit="10" stroke-linecap="round" stroke-linejoin="round"/>
<path d="M18.7969 88.6875C19.9876 90.9503 20.4623 93.3739 20.4458 95.9121C20.4321 98.3194 20.6132 100.743 20.4019 103.134C20.1056 106.509 19.4746 109.857 19.0959 113.227C18.9395 114.617 18.9999 116.045 19.0904 117.447C19.1837 118.862 19.5047 120.26 19.6008 121.675C19.716 123.387 20.7723 124.688 21.4034 126.171C21.6174 126.675 21.8588 127.171 22.0866 127.67" stroke="white" stroke-width="0.4" stroke-miterlimit="10" stroke-linecap="round" stroke-linejoin="round"/>
<path d="M68.6124 99.5625C67.6054 100.108 66.7341 100.711 65.7107 101.224C63.1508 102.505 61.1205 104.244 59.9187 106.941C58.9722 109.067 57.8335 111.155 55.8224 112.524C54.9856 113.094 53.9869 113.416 53.0952 113.914C50.9578 115.111 49.3555 116.829 48.1373 118.942C47.6352 119.811 47.0207 120.637 46.3457 121.382" stroke="white" stroke-width="0.4" stroke-miterlimit="10" stroke-linecap="round" stroke-linejoin="round"/>
<path d="M71.2011 88.6875C67.4971 92.3216 63.7081 95.8766 60.1248 99.628C58.3606 101.474 56.8955 103.627 55.4441 105.74C53.3287 108.824 49.9787 110.489 47.3255 112.946C47.2761 112.992 47.1472 112.951 47.0566 112.951" stroke="white" stroke-width="0.4" stroke-miterlimit="10" stroke-linecap="round" stroke-linejoin="round"/>
<path d="M42.8037 23.8066C42.4881 21.8682 41.676 20.3524 39.3933 19.9844C38.4192 20.7177 37.2971 20.6905 36.0734 20.287C35.1515 19.9816 34.1665 19.9707 33.3242 20.685C33.9278 23.812 36.0597 25.655 38.8418 26.77C40.5374 27.4489 42.4195 25.9794 42.8037 23.9456" stroke="white" stroke-width="0.4" stroke-miterlimit="10" stroke-linecap="round" stroke-linejoin="round"/>
<path d="M26.202 65.9202C26.202 65.7839 26.2624 65.5985 26.1938 65.5194C24.9564 64.0854 23.4007 63.1421 21.5323 62.8231C21.118 62.7523 20.5089 63.0467 20.2126 63.3711C20.0479 63.5511 20.2647 64.1945 20.4595 64.5461C20.8079 65.1705 21.2716 65.7321 21.5103 66.0756C22.9562 66.6781 24.169 67.1852 25.4942 67.7386C25.7713 67.1852 26.0566 66.6208 26.3392 66.0565" stroke="white" stroke-width="0.4" stroke-miterlimit="10" stroke-linecap="round" stroke-linejoin="round"/>
<path d="M46.7803 28.4383C47.2248 27.983 47.9189 27.6314 47.4909 26.7944C46.1246 26.8435 44.8378 26.7481 43.9351 25.4258C44.3082 24.9515 44.6512 24.518 45.0682 23.9945C45.0682 23.5365 45.0682 22.9913 45.0682 22.5414C44.4454 21.5355 43.8473 20.5649 43.2464 19.5944C40.0665 17.168 38.9663 17.1407 37.7179 19.6025C36.9359 18.7656 36.2308 18.0104 35.1772 16.8817C33.8438 16.3092 32.1098 17.367 30.2578 17.277C30.4142 17.5824 30.5925 17.7678 30.5871 17.945C30.4718 21.162 32.3238 23.6728 33.852 26.2028C34.4502 27.1924 36.1321 27.5359 37.3228 28.1657C37.5396 28.2802 37.7783 28.3511 38.006 28.4411" stroke="white" stroke-width="0.4" stroke-miterlimit="10" stroke-linecap="round" stroke-linejoin="round"/>
<path d="M97.6758 88.6875C99.5634 90.5713 101.564 92.3707 102.746 94.8243C103.462 96.3074 103.723 97.815 102.76 99.3253C101.981 100.424 98.7895 102.723 98.2091 103.01" stroke="white" stroke-width="0.4" stroke-miterlimit="10" stroke-linecap="round" stroke-linejoin="round"/>
<path d="M63.1057 52.5663C63.2895 51.8466 63.8684 51.1541 63.1962 50.3553C62.8313 50.2518 62.417 50.1345 61.6707 49.9219C61.5582 50.4262 61.3634 50.9469 61.3415 51.4758C61.3003 52.4573 62.0493 52.6917 62.834 52.839" stroke="white" stroke-width="0.4" stroke-miterlimit="10" stroke-linecap="round" stroke-linejoin="round"/>
<path d="M37.0415 57.4703C37.3186 57.6339 37.5957 57.8002 38.0704 58.081C38.0704 57.1977 38.0704 56.6525 38.0704 56.0391C37.774 56.0391 37.5463 56.0391 37.1924 56.0391C37.1101 56.4098 37.0058 56.8733 36.9043 57.334" stroke="white" stroke-width="0.4" stroke-miterlimit="10" stroke-linecap="round" stroke-linejoin="round"/>
<path d="M46.9176 112.815C46.9176 112.447 46.9176 112.076 46.9176 111.656C46.506 111.656 46.2316 111.656 45.8887 111.656C45.8887 112.27 45.8887 112.815 45.8887 113.698C46.3633 113.415 46.6404 113.251 46.9176 113.088" stroke="white" stroke-width="0.4" stroke-miterlimit="10" stroke-linecap="round" stroke-linejoin="round"/>
<path d="M42.2536 125.22C42.1082 125.512 41.9601 125.801 41.8146 126.093C41.7022 126.068 41.5924 126.046 41.4799 126.022C41.1973 125.362 41.0245 124.711 41.9162 124.078C42.0341 124.43 42.1439 124.757 42.2536 125.084" stroke="white" stroke-width="0.4" stroke-miterlimit="10" stroke-linecap="round" stroke-linejoin="round"/>
<path d="M41.1569 68.2403C41.6618 68.194 42.1364 68.273 41.9471 68.911C41.8785 69.1373 41.4258 69.249 40.9512 69.5326C40.9512 68.6493 40.9512 68.104 40.9512 67.3516C41.4203 67.4906 41.7688 67.5915 42.1172 67.6951" stroke="white" stroke-width="0.4" stroke-miterlimit="10" stroke-linecap="round" stroke-linejoin="round"/>
<path d="M39.0987 124.398C39.0987 124.954 39.0987 125.51 39.0987 126.311C37.9135 125.513 38.0287 124.847 38.55 124.125" stroke="white" stroke-width="0.4" stroke-miterlimit="10" stroke-linecap="round" stroke-linejoin="round"/>
<path d="M30.0457 129.583C30.4325 129.485 30.8166 129.387 31.2035 129.289C31.3242 129.483 31.4449 129.676 31.5657 129.87C31.0252 130.151 30.4847 130.431 29.9414 130.712C30.0155 130.84 30.0896 130.966 30.1609 131.094C30.5779 131.137 30.9977 131.178 31.4148 131.222" stroke="white" stroke-width="0.4" stroke-miterlimit="10" stroke-linecap="round" stroke-linejoin="round"/>
<path d="M28.3992 47.7944C28.786 47.6963 29.1702 47.5981 29.557 47.5C29.6777 47.6936 29.7985 47.8871 29.9192 48.0807C29.3787 48.3615 28.8382 48.6423 28.2949 48.9231C28.369 49.0512 28.4431 49.1767 28.5144 49.3048C28.9315 49.3484 29.3512 49.3893 29.7683 49.4329" stroke="white" stroke-width="0.4" stroke-miterlimit="10" stroke-linecap="round" stroke-linejoin="round"/>
<path d="M39.3732 109C39.1427 109.474 39.0577 109.941 39.7847 109.941C40.5118 109.941 40.4268 109.474 40.1963 109" stroke="white" stroke-width="0.4" stroke-miterlimit="10" stroke-linecap="round" stroke-linejoin="round"/>
<path d="M36.2182 57.8774C36.2182 57.3158 36.2182 56.7569 36.2182 56.1953C36.1139 56.198 36.0097 56.2008 35.9054 56.2008C35.5844 56.5197 35.2661 56.836 34.7695 57.3294C35.5734 57.3294 36.1716 57.3294 36.7697 57.3294" stroke="white" stroke-width="0.4" stroke-miterlimit="10" stroke-linecap="round" stroke-linejoin="round"/>
<path d="M45.6823 122.086C45.043 122.585 44.401 123.086 43.7617 123.585" stroke="white" stroke-width="0.4" stroke-miterlimit="10" stroke-linecap="round" stroke-linejoin="round"/>
<path d="M33.0623 51.7422C33.0157 52.0612 32.9718 52.3774 32.9251 52.6964C32.6041 52.6064 32.2859 52.5137 31.9648 52.4238" stroke="white" stroke-width="0.4" stroke-miterlimit="10" stroke-linecap="round" stroke-linejoin="round"/>
<path d="M86.8377 101.094C86.7911 101.413 86.7472 101.729 86.7005 102.048C86.3795 101.958 86.0612 101.865 85.7402 101.775" stroke="white" stroke-width="0.4" stroke-miterlimit="10" stroke-linecap="round" stroke-linejoin="round"/>
<path d="M39.9219 111.586C40.3334 111.586 40.745 111.586 41.2251 111.586C40.8822 112.268 40.6078 112.813 40.3334 113.358" stroke="white" stroke-width="0.4" stroke-miterlimit="10" stroke-linecap="round" stroke-linejoin="round"/>
<path d="M86.289 100.958C86.5332 100.863 86.7801 100.768 87.0243 100.669C86.9968 100.533 86.9694 100.394 86.942 100.258C86.5414 100.31 86.1408 100.361 85.7402 100.413" stroke="white" stroke-width="0.4" stroke-miterlimit="10" stroke-linecap="round" stroke-linejoin="round"/>
<path d="M32.5136 51.6147C32.7578 51.5193 33.0047 51.4239 33.2489 51.3257C33.2215 51.1894 33.194 51.0504 33.1666 50.9141C32.766 50.9659 32.3654 51.0177 31.9648 51.0695" stroke="white" stroke-width="0.4" stroke-miterlimit="10" stroke-linecap="round" stroke-linejoin="round"/>
<path d="M40.3328 108.449C40.0557 107.699 39.6414 108.048 39.1777 108.271C39.4302 109.076 39.8362 109.013 40.3328 108.585" stroke="white" stroke-width="0.4" stroke-miterlimit="10" stroke-linecap="round" stroke-linejoin="round"/>
<path d="M37.0425 124.812C36.8203 124.911 36.5953 125.006 36.373 125.104C36.4581 125.235 36.5432 125.363 36.631 125.494C36.8587 125.494 37.0891 125.494 37.3169 125.494" stroke="white" stroke-width="0.4" stroke-miterlimit="10" stroke-linecap="round" stroke-linejoin="round"/>
<path d="M37.4512 124.125C37.4512 124.76 37.4512 125.398 37.4512 126.033" stroke="white" stroke-width="0.4" stroke-miterlimit="10" stroke-linecap="round" stroke-linejoin="round"/>
<path d="M41.5669 108.047C41.3749 108.619 41.1855 109.195 40.9551 109.887C41.5669 109.887 41.8413 109.887 42.3626 109.887C41.9757 109.23 42.8153 108.415 41.7041 108.047" stroke="white" stroke-width="0.4" stroke-miterlimit="10" stroke-linecap="round" stroke-linejoin="round"/>
<path d="M43.4907 108.047C43.2987 108.619 43.1094 109.195 42.8789 109.887C43.4907 109.887 43.7651 109.887 44.2864 109.887C43.8996 109.23 44.7391 108.415 43.6279 108.047" stroke="white" stroke-width="0.4" stroke-miterlimit="10" stroke-linecap="round" stroke-linejoin="round"/>
<path d="M47.0572 67.4219C46.8651 67.9944 46.6758 68.5696 46.4453 69.2621C47.0572 69.2621 47.3315 69.2621 47.8528 69.2621C47.466 68.6051 48.3055 67.7899 47.1943 67.4219" stroke="white" stroke-width="0.4" stroke-miterlimit="10" stroke-linecap="round" stroke-linejoin="round"/>
<path d="M45.1353 67.4297C44.9432 68.0022 44.7539 68.5774 44.5234 69.2699C45.1353 69.2699 45.4097 69.2699 45.931 69.2699C45.5441 68.6129 46.3837 67.7977 45.2725 67.4297" stroke="white" stroke-width="0.4" stroke-miterlimit="10" stroke-linecap="round" stroke-linejoin="round"/>
<path d="M43.2154 67.4219C43.0233 67.9944 42.834 68.5696 42.6035 69.2621C43.2154 69.2621 43.4897 69.2621 44.011 69.2621C43.6242 68.6051 44.4637 67.7899 43.3525 67.4219" stroke="white" stroke-width="0.4" stroke-miterlimit="10" stroke-linecap="round" stroke-linejoin="round"/>
<path d="M22.3614 64.6953C22.2928 65.2215 22.312 65.2624 22.9102 65.7858C23.7195 65.0688 23.4836 64.7444 22.4986 64.6953" stroke="white" stroke-width="0.4" stroke-miterlimit="10" stroke-linecap="round" stroke-linejoin="round"/>
<path d="M18.9328 61.4297C17.9204 62.0431 17.7256 62.7274 18.642 63.627C18.8944 63.8751 18.8889 64.3631 19.081 64.6957C19.4596 65.35 19.756 66.1706 20.3321 66.5714C21.8055 67.5965 23.3886 68.4743 24.9799 69.3167C25.932 69.8211 28.2202 68.5807 28.6757 67.4274C28.7498 67.2393 28.8595 67.0649 28.9775 66.8331C27.9651 63.7361 25.2077 63.0164 22.4996 62.2557C21.3692 61.9368 20.2141 61.7023 19.0728 61.4297" stroke="white" stroke-width="0.4" stroke-miterlimit="10" stroke-linecap="round" stroke-linejoin="round"/>
<path d="M45.4087 108.047C45.2221 108.606 45.0356 109.165 44.7969 109.887C45.4087 109.887 45.6831 109.887 46.2044 109.887C45.8175 109.23 46.6571 108.415 45.5459 108.047" stroke="white" stroke-width="0.4" stroke-miterlimit="10" stroke-linecap="round" stroke-linejoin="round"/>
<path d="M42.3911 111.586C42.1991 112.158 42.0098 112.734 41.7793 113.426C42.3911 113.426 42.6655 113.426 43.1868 113.426C42.8 112.769 43.6395 111.954 42.5283 111.586" stroke="white" stroke-width="0.4" stroke-miterlimit="10" stroke-linecap="round" stroke-linejoin="round"/>
<path d="M41.2935 55.9766C41.1014 56.5491 40.9121 57.1243 40.6816 57.8168C41.2935 57.8168 41.5679 57.8168 42.0892 57.8168C41.7023 57.1598 42.5419 56.3446 41.4307 55.9766" stroke="white" stroke-width="0.4" stroke-miterlimit="10" stroke-linecap="round" stroke-linejoin="round"/>
<path d="M39.3736 55.9766C39.1815 56.5491 38.9922 57.1243 38.7617 57.8168C39.3736 57.8168 39.6479 57.8168 40.1692 57.8168C39.7824 57.1598 40.6219 56.3446 39.5107 55.9766" stroke="white" stroke-width="0.4" stroke-miterlimit="10" stroke-linecap="round" stroke-linejoin="round"/>
<path d="M44.313 111.586C44.121 112.158 43.9316 112.734 43.7012 113.426C44.313 113.426 44.5874 113.426 45.1087 113.426C44.7218 112.769 45.5614 111.954 44.4502 111.586" stroke="white" stroke-width="0.4" stroke-miterlimit="10" stroke-linecap="round" stroke-linejoin="round"/>
<path d="M38.2759 50.7891C38.0838 51.3616 37.8945 51.9368 37.6641 52.6293C38.2759 52.6293 38.5503 52.6293 39.0716 52.6293C38.6847 51.9723 39.5243 51.1571 38.4131 50.7891" stroke="white" stroke-width="0.4" stroke-miterlimit="10" stroke-linecap="round" stroke-linejoin="round"/>
<path d="M36.356 50.7891C36.1639 51.3616 35.9746 51.9368 35.7441 52.6293C36.356 52.6293 36.6304 52.6293 37.1517 52.6293C36.7648 51.9723 37.6044 51.1571 36.4932 50.7891" stroke="white" stroke-width="0.4" stroke-miterlimit="10" stroke-linecap="round" stroke-linejoin="round"/>
<path d="M34.4341 50.7891C34.242 51.3616 34.0527 51.9368 33.8223 52.6293C34.4341 52.6293 34.7085 52.6293 35.2298 52.6293C34.8429 51.9723 35.6825 51.1571 34.5713 50.7891" stroke="white" stroke-width="0.4" stroke-miterlimit="10" stroke-linecap="round" stroke-linejoin="round"/>
<path d="M62.5566 47.7969C61.5057 48.5248 60.4 49.1873 59.4178 49.9997C58.6852 50.6022 58.677 51.4719 59.1297 52.2952C60.1998 54.2417 61.953 55.0487 64.2 54.5989C64.543 54.5307 65.0341 54.3208 65.1302 54.0564C65.5829 52.8132 65.9203 51.5318 66.3099 50.2178C65.5884 48.6911 64.0766 48.4103 62.6938 47.9332" stroke="white" stroke-width="0.4" stroke-miterlimit="10" stroke-linecap="round" stroke-linejoin="round"/>
<path d="M34.7095 47.5234C34.5229 48.0823 34.3364 48.6412 34.0977 49.3637C34.7095 49.3637 34.9839 49.3637 35.5052 49.3637C35.1183 48.7066 35.9579 47.8915 34.8467 47.5234" stroke="white" stroke-width="0.4" stroke-miterlimit="10" stroke-linecap="round" stroke-linejoin="round"/>
<path d="M32.7876 47.5234C32.5956 48.096 32.4063 48.6712 32.1758 49.3637C32.7876 49.3637 33.062 49.3637 33.5833 49.3637C33.1964 48.7066 34.036 47.8915 32.9248 47.5234" stroke="white" stroke-width="0.4" stroke-miterlimit="10" stroke-linecap="round" stroke-linejoin="round"/>
<path d="M30.8677 47.5234C30.6756 48.096 30.4863 48.6712 30.2559 49.3637C30.8677 49.3637 31.1421 49.3637 31.6634 49.3637C31.2765 48.7066 32.1161 47.8915 31.0049 47.5234" stroke="white" stroke-width="0.4" stroke-miterlimit="10" stroke-linecap="round" stroke-linejoin="round"/>
<path d="M61.872 46.1562C60.6483 46.5352 59.9432 47.4649 59.249 48.4627C58.5988 49.3923 57.8141 50.2265 57.1172 51.0662C58.5686 54.7876 61.2903 56.3061 65.0272 56.227C65.4415 56.2189 65.9546 56.0825 66.2454 55.8181C67.8834 54.3187 69.0742 50.8672 68.1935 48.7435C67.8203 47.8438 67.2743 47.2767 66.2646 47.0968C64.8352 46.8405 63.4277 46.4752 62.0092 46.159" stroke="white" stroke-width="0.4" stroke-miterlimit="10" stroke-linecap="round" stroke-linejoin="round"/>
<path d="M61.3219 42.3438C60.1339 42.979 58.9377 43.6033 57.7579 44.2549C55.8784 45.2908 53.9908 46.3159 52.136 47.3955C49.6475 48.8431 49.7079 49.5356 50.188 52.4363C50.424 53.8704 51.4584 54.691 52.4379 55.3862C54.4353 56.8065 56.622 57.9597 58.7099 59.2574C59.1709 59.5437 59.6538 59.9036 59.9309 60.3479C61.0476 62.1309 62.5127 63.4095 64.9491 63.9112C65.6021 63.4968 66.4828 62.9461 67.358 62.379C67.8245 62.0764 68.2333 61.6293 68.7381 61.4466C71.4763 60.457 73.1527 58.3796 74.4669 55.9614C74.8154 55.3235 75.0157 54.5192 75.0102 53.794C74.9992 51.613 74.9471 49.4238 74.7413 47.2537C74.5355 45.0809 72.8948 43.5651 70.8041 42.8481C69.3061 42.3328 67.9177 42.401 66.3923 42.5591C64.7735 42.7254 63.1053 42.4364 61.4591 42.3438" stroke="white" stroke-width="0.4" stroke-miterlimit="10" stroke-linecap="round" stroke-linejoin="round"/>
<path d="M40.0591 124.266C41.184 124.773 40.8987 125.389 40.1469 126.081C39.4692 125.596 39.472 125.034 39.9219 124.402" stroke="white" stroke-width="0.4" stroke-miterlimit="10" stroke-linecap="round" stroke-linejoin="round"/>
<path d="M32.5142 129.312C32.3221 129.885 32.1328 130.46 31.9023 131.153C32.5142 131.153 32.7886 131.153 33.3099 131.153C32.923 130.496 33.7626 129.681 32.6514 129.312" stroke="white" stroke-width="0.4" stroke-miterlimit="10" stroke-linecap="round" stroke-linejoin="round"/>
<path d="M34.4341 129.312C34.242 129.885 34.0527 130.46 33.8223 131.153C34.4341 131.153 34.7085 131.153 35.2298 131.153C34.8429 130.496 35.6825 129.681 34.5713 129.312" stroke="white" stroke-width="0.4" stroke-miterlimit="10" stroke-linecap="round" stroke-linejoin="round"/>
<path d="M36.356 129.312C36.1639 129.885 35.9746 130.46 35.7441 131.153C36.356 131.153 36.6304 131.153 37.1517 131.153C36.7648 130.496 37.6044 129.681 36.4932 129.312" stroke="white" stroke-width="0.4" stroke-miterlimit="10" stroke-linecap="round" stroke-linejoin="round"/>
<path d="M92.0513 100.141C91.8592 100.713 91.6699 101.288 91.4395 101.981C92.0513 101.981 92.3257 101.981 92.847 101.981C92.4601 101.324 93.2997 100.509 92.1885 100.141" stroke="white" stroke-width="0.4" stroke-miterlimit="10" stroke-linecap="round" stroke-linejoin="round"/>
<path d="M90.1314 100.141C89.9393 100.713 89.75 101.288 89.5195 101.981C90.1314 101.981 90.4057 101.981 90.927 101.981C90.5402 101.324 91.3798 100.509 90.2686 100.141" stroke="white" stroke-width="0.4" stroke-miterlimit="10" stroke-linecap="round" stroke-linejoin="round"/>
<path d="M88.2095 100.141C88.0174 100.713 87.8281 101.288 87.5977 101.981C88.2095 101.981 88.4839 101.981 89.0052 101.981C88.6183 101.324 89.4579 100.509 88.3467 100.141" stroke="white" stroke-width="0.4" stroke-miterlimit="10" stroke-linecap="round" stroke-linejoin="round"/>
<rect x="16.75" y="34.75" width="30.5" height="30.5" rx="15.25" fill="white"/>
<path fill-rule="evenodd" clip-rule="evenodd" d="M28.4853 51.4944C28.9145 51.4944 29.3186 51.5827 29.672 51.7602C29.937 50.0135 31.4528 48.6719 33.2703 48.6719C35.2528 48.6719 36.8686 50.2669 36.9195 52.241C38.1061 52.3927 39.0278 53.4052 39.0278 54.6585C39.0278 56.0002 37.942 57.0885 36.6036 57.0885H28.4853C26.9453 57.0885 25.6953 55.8352 25.6953 54.2919C25.6953 52.7469 26.9453 51.4944 28.4853 51.4944Z" stroke="#222A2F" stroke-width="1.5" stroke-linecap="round" stroke-linejoin="round"/>
<path d="M30.6315 41.8359V41.1693" stroke="#222A2F" stroke-width="1.5" stroke-linecap="round" stroke-linejoin="round"/>
<path d="M34.8826 43.5917L35.3492 43.1167" stroke="#222A2F" stroke-width="1.5" stroke-linecap="round" stroke-linejoin="round"/>
<path d="M23.9661 47.8385H24.6328" stroke="#222A2F" stroke-width="1.5" stroke-linecap="round" stroke-linejoin="round"/>
<path d="M25.9255 43.1167L26.3922 43.5917" stroke="#222A2F" stroke-width="1.5" stroke-linecap="round" stroke-linejoin="round"/>
<path d="M32.9936 45.4767C32.3902 44.8733 31.5569 44.5 30.6361 44.5C28.7952 44.5 27.3027 45.9925 27.3027 47.8333" stroke="#222A2F" stroke-width="1.5" stroke-linecap="round" stroke-linejoin="round"/>
<rect x="16.75" y="34.75" width="30.5" height="30.5" rx="15.25" stroke="white" stroke-width="1.5"/>
<rect x="62.75" y="78.75" width="30.5" height="30.5" rx="15.25" fill="white"/>
<path d="M83.7383 87.8828L72.5195 90.2028V90.9228L77.7683 89.8372V93.4028H73.9359C73.6398 94.4544 73.4811 95.5636 73.4811 96.7096C73.4811 97.8556 73.635 98.9268 73.9211 99.9628H82.3364C82.6228 98.9272 82.7763 97.8364 82.7763 96.7096C82.7763 95.5828 82.6176 94.4544 82.3215 93.4028H78.4891V89.6884L83.7379 88.6028V87.8828H83.7383ZM74.2697 96.7096C74.2697 95.8156 74.3722 94.9372 74.5738 94.0828H76.0454V98.0428H74.347C74.2961 97.6028 74.2697 97.1584 74.2697 96.7096V96.7096ZM81.6841 94.0828C81.886 94.9376 81.9882 95.8156 81.9882 96.7096C81.9882 97.1584 81.9617 97.6028 81.9108 98.0428H80.2124V94.0828H81.6841V94.0828ZM79.4912 94.0828V98.0428H76.7666V94.0828H79.4912Z" fill="#222A2F"/>
<rect x="62.75" y="78.75" width="30.5" height="30.5" rx="15.25" stroke="white" stroke-width="1.5"/>
<rect x="14.75" y="78.75" width="30.5" height="30.5" rx="15.25" fill="white"/>
<mask id="mask0_321_3727" style="mask-type:alpha" maskUnits="userSpaceOnUse" x="19" y="83" width="21" height="21">
<rect x="19.5" y="83.5" width="20" height="20" fill="#D9D9D9"/>
</mask>
<g mask="url(#mask0_321_3727)">
<path d="M34.916 102.669C34.5549 102.669 34.2043 102.641 33.8643 102.586C33.5238 102.53 33.1938 102.447 32.8743 102.336L21.166 98.0651L21.5827 96.8776L27.3327 98.9818L28.7702 95.2734L25.791 92.1693C25.416 91.7804 25.2668 91.3184 25.3435 90.7834C25.4196 90.249 25.6938 89.8429 26.166 89.5651L29.0618 87.8984C29.298 87.7595 29.5377 87.6795 29.781 87.6584C30.0238 87.6379 30.2632 87.6762 30.4993 87.7734C30.7355 87.8568 30.9405 87.9887 31.1143 88.1693C31.2877 88.3498 31.416 88.5651 31.4993 88.8151L31.7702 89.7109C31.9507 90.3082 32.246 90.8359 32.656 91.2943C33.0655 91.7526 33.5549 92.0998 34.1243 92.3359L34.5618 91.0026L35.7493 91.3776L34.8118 94.2526C33.7841 94.0859 32.8743 93.6832 32.0827 93.0443C31.291 92.4054 30.7077 91.6137 30.3327 90.6693L28.2285 91.8776L30.7493 94.7526L28.8952 99.5443L31.4785 100.482L33.2285 95.1276C33.423 95.197 33.6174 95.2595 33.8118 95.3151C34.0063 95.3707 34.2077 95.4193 34.416 95.4609L32.6452 100.919L33.291 101.148C33.541 101.232 33.8016 101.298 34.0727 101.347C34.3432 101.395 34.6243 101.419 34.916 101.419C35.2771 101.419 35.621 101.385 35.9477 101.315C36.2738 101.246 36.5896 101.141 36.8952 101.003L37.8327 101.94C37.3882 102.176 36.923 102.357 36.4368 102.482C35.9507 102.607 35.4438 102.669 34.916 102.669ZM33.2493 88.9193C32.791 88.9193 32.3988 88.7559 32.0727 88.4293C31.746 88.1032 31.5827 87.7109 31.5827 87.2526C31.5827 86.7943 31.746 86.4018 32.0727 86.0751C32.3988 85.749 32.791 85.5859 33.2493 85.5859C33.7077 85.5859 34.1002 85.749 34.4268 86.0751C34.753 86.4018 34.916 86.7943 34.916 87.2526C34.916 87.7109 34.753 88.1032 34.4268 88.4293C34.1002 88.7559 33.7077 88.9193 33.2493 88.9193Z" fill="#1C1B1F"/>
</g>
<rect x="14.75" y="78.75" width="30.5" height="30.5" rx="15.25" stroke="white" stroke-width="1.5"/>
<rect x="62.75" y="34.75" width="30.5" height="30.5" rx="15.25" fill="white"/>
<path d="M80.834 48.081L83.73 46.2958C83.9871 46.1373 84.3098 46.1304 84.5735 46.2776C84.8372 46.4248 85.0007 46.7032 85.0007 47.0052V52.8359C85.0006 53.1379 84.8372 53.4163 84.5735 53.5635C84.3099 53.7107 83.9871 53.7038 83.7301 53.5453L80.834 51.7601" stroke="#222A2F" stroke-width="1.7" stroke-linecap="round" stroke-linejoin="round"/>
<rect x="70" y="44.5" width="10.8333" height="10.8333" rx="3" stroke="#222A2F" stroke-width="1.7" stroke-linecap="round" stroke-linejoin="round"/>
<rect x="62.75" y="34.75" width="30.5" height="30.5" rx="15.25" stroke="white" stroke-width="1.5"/>
</svg>
