<svg width="18" height="19" viewBox="0 0 18 19" fill="none" xmlns="http://www.w3.org/2000/svg">
<path fill-rule="evenodd" clip-rule="evenodd" d="M13.875 13.75C13.875 13.3358 14.2108 13 14.625 13H17.25C17.6642 13 18 13.3358 18 13.75C18 14.1642 17.6642 14.5 17.25 14.5H15.375V18.25C15.375 18.6642 15.0392 19 14.625 19C14.2108 19 13.875 18.6642 13.875 18.25V13.75Z" fill="#222A2F"/>
<path fill-rule="evenodd" clip-rule="evenodd" d="M1.18934 0.68934C1.47064 0.408036 1.85217 0.25 2.25 0.25H11.25C11.4489 0.25 11.6397 0.329018 11.7803 0.46967L17.0303 5.71967C17.171 5.86032 17.25 6.05109 17.25 6.25V10C17.25 10.4142 16.9142 10.75 16.5 10.75C16.0858 10.75 15.75 10.4142 15.75 10V6.56066L10.9393 1.75H2.25V10C2.25 10.4142 1.91421 10.75 1.5 10.75C1.08579 10.75 0.75 10.4142 0.75 10V1.75C0.75 1.35217 0.908036 0.970644 1.18934 0.68934Z" fill="#222A2F"/>
<path fill-rule="evenodd" clip-rule="evenodd" d="M11.25 0.25C11.6642 0.25 12 0.585786 12 1V5.5H16.5C16.9142 5.5 17.25 5.83579 17.25 6.25C17.25 6.66421 16.9142 7 16.5 7H11.25C10.8358 7 10.5 6.66421 10.5 6.25V1C10.5 0.585786 10.8358 0.25 11.25 0.25Z" fill="#222A2F"/>
<path fill-rule="evenodd" clip-rule="evenodd" d="M0.75 13.75C0.75 13.3358 1.08579 13 1.5 13H3C3.59674 13 4.16903 13.2371 4.59099 13.659C5.01295 14.081 5.25 14.6533 5.25 15.25C5.25 15.8467 5.01295 16.419 4.59099 16.841C4.16903 17.2629 3.59674 17.5 3 17.5H2.25V18.25C2.25 18.6642 1.91421 19 1.5 19C1.08579 19 0.75 18.6642 0.75 18.25V13.75ZM2.25 16H3C3.19891 16 3.38968 15.921 3.53033 15.7803C3.67098 15.6397 3.75 15.4489 3.75 15.25C3.75 15.0511 3.67098 14.8603 3.53033 14.7197C3.38968 14.579 3.19891 14.5 3 14.5H2.25V16Z" fill="#222A2F"/>
<path fill-rule="evenodd" clip-rule="evenodd" d="M13.875 16.375C13.875 15.9608 14.2108 15.625 14.625 15.625H16.875C17.2892 15.625 17.625 15.9608 17.625 16.375C17.625 16.7892 17.2892 17.125 16.875 17.125H14.625C14.2108 17.125 13.875 16.7892 13.875 16.375Z" fill="#222A2F"/>
<path fill-rule="evenodd" clip-rule="evenodd" d="M6.9375 13.75C6.9375 13.3358 7.27329 13 7.6875 13H9C9.79565 13 10.5587 13.3161 11.1213 13.8787C11.6839 14.4413 12 15.2044 12 16C12 16.7956 11.6839 17.5587 11.1213 18.1213C10.5587 18.6839 9.79565 19 9 19H7.6875C7.27329 19 6.9375 18.6642 6.9375 18.25V13.75ZM8.4375 14.5V17.5H9C9.39783 17.5 9.77936 17.342 10.0607 17.0607C10.342 16.7794 10.5 16.3978 10.5 16C10.5 15.6022 10.342 15.2206 10.0607 14.9393C9.77936 14.658 9.39783 14.5 9 14.5H8.4375Z" fill="#222A2F"/>
</svg>
