<svg width="1074" height="351" viewBox="0 0 1074 351" fill="none" xmlns="http://www.w3.org/2000/svg">
<g clip-path="url(#clip0_279_2704)">
<path fill-rule="evenodd" clip-rule="evenodd" d="M570.228 5.49084C561.088 12.5722 553.768 21.4704 549.098 31.1719C544.533 40.6584 544.524 41.2597 548.862 47.7285C552.821 53.6315 569.427 63.3524 587.656 70.4386C594.106 72.9456 599.381 75.5528 599.381 76.2349C599.381 79.0296 593.853 80.806 590.143 79.2026C588.088 78.3136 582.009 77.5862 576.636 77.5862C566.463 77.5862 565.272 78.1035 541.966 92.6396C537.113 95.667 532.916 96.9828 528.109 96.9828C513.499 96.9828 512.178 104.292 513.06 180.226C513.411 210.453 514.46 245.365 515.391 257.808C517.251 282.676 516.89 286.773 512.614 289.377C509.83 291.071 192.582 289.579 -46.2001 286.749C-111.907 285.97 -135.381 286.172 -135.381 287.512C-135.381 288.836 -116.508 289.33 -66.097 289.324C-27.9903 289.321 50.5127 290.024 108.356 290.888C166.199 291.752 280.544 292.773 362.457 293.156L511.39 293.855L515.741 289.691C519.996 285.619 520.074 285.288 519.211 274.903C515.122 225.64 513.178 148.925 515.449 126.445C517.732 103.843 518.945 100.216 524.229 100.216C528.895 100.216 529.238 101.02 526.098 104.591C522.805 108.335 525.71 110.588 533.258 110.143C540.343 109.726 540.413 110.114 535.168 120.873C532.433 126.488 531.664 135.776 533.935 135.776C534.678 135.776 539.847 129.564 545.422 121.972C550.998 114.38 558.189 106.28 561.403 103.974C566.948 99.9925 567.862 99.8405 579.405 100.966C586.093 101.617 596.681 102.624 602.934 103.203L614.304 104.256L614.364 117.188C614.489 144.53 614.244 143.496 621.055 145.599C624.903 146.787 631.734 147.079 639.886 146.405C646.921 145.823 663.549 144.669 676.837 143.842C704.675 142.106 730.132 139.943 751.45 137.501C762.594 136.224 766.823 135.097 768.149 133.049C769.236 131.373 769.926 125.067 769.926 116.798C769.926 99.7791 767.778 94.3481 760.426 92.7786C752.487 91.0862 704.964 93.3879 640.717 98.5797C623.798 99.9456 618.568 99.9068 617.753 98.4084C615.343 93.9715 618.097 92.9418 632.44 92.9127C646.768 92.8853 647.176 92.777 659.072 85.8928C675.686 76.277 684.646 73.1686 706.682 69.3718C719.621 67.1428 721.605 65.916 721.605 60.1342C721.605 50.6121 711.302 23.2435 703.635 12.3928C699.427 6.43804 691.958 6.5916 682.397 12.8292C671.665 19.8297 642.253 56.5733 647.381 56.5733C648.074 56.5733 650.809 53.1175 653.458 48.8955C665.346 29.9434 687.22 9.69828 695.807 9.69828C701.648 9.69828 715.496 37.7554 718.012 54.687C719.297 63.3427 717.325 66.2716 710.214 66.2716C704.063 66.2716 685.275 70.3691 676.713 73.576C673.518 74.7737 665.844 78.6886 659.659 82.2753C647.453 89.3551 636.894 91.7069 625.801 89.8157C620.239 88.8669 619.278 88.159 619.278 85.007C619.278 81.3524 619.439 81.3201 633.371 82.083C647.051 82.8314 647.57 82.7328 651.136 78.6773C653.155 76.3804 654.808 73.8168 654.808 72.9795C654.808 67.4822 640.51 59.979 629.937 59.9289C624.321 59.903 621.677 62.4003 618.418 70.8104C615.937 77.2161 615.513 77.583 613.022 75.4946C610.381 73.2818 610.39 73.1476 613.377 69.75C617.85 64.6633 617.888 54.8341 613.475 44.9968C607.088 30.7565 583.725 0 579.295 0C578.207 0 574.125 2.47144 570.228 5.49084ZM588.185 12.2958C600.761 27.2085 604.893 33.4025 610.835 46.2479C616.021 57.4623 616.102 62.3793 611.196 68.2031C606.634 73.6196 605.369 73.7037 592.78 69.4284C577.071 64.0927 557.011 53.1918 551.613 47.0593C547.513 42.3992 547.418 40.4402 550.918 32.667C555.344 22.8394 573.919 3.23276 578.805 3.23276C579.76 3.23276 583.981 7.31088 588.185 12.2958ZM646.317 67.1008C651.763 70.3044 652.07 76.2769 646.925 78.9424C642.377 81.299 633.955 81.3508 627.662 79.0604C625.006 78.0921 621.924 76.9785 620.817 76.5824C619.282 76.0345 619.197 75.4154 620.462 73.9768C621.374 72.9391 622.121 70.9267 622.121 69.5043C622.121 64.2705 625.306 62.6929 633.881 63.674C638.395 64.1913 643.992 65.7333 646.317 67.1008ZM614.676 79.7312C617.411 81.4591 617.624 82.18 616.096 84.556C614.413 87.173 613.812 87.1843 606.53 84.7241C599.344 82.298 598.964 81.9311 601.475 79.8427C604.807 77.0722 610.391 77.0237 614.676 79.7312ZM585.347 80.819C591.13 80.819 587.359 85.1525 576.56 90.9213C566.525 96.2813 563.948 96.9828 554.278 96.9828C541.84 96.9828 541.877 95.979 554.613 87.9133C563.526 82.2705 573.284 79.0749 578.596 80.0609C580.843 80.4779 583.882 80.819 585.347 80.819ZM602.934 86.5232C606.061 87.8033 609.726 88.8637 611.079 88.8766C613.747 88.9025 615.938 95.5911 614.28 98.6444C613.221 100.591 577.672 99.2732 574.199 97.1573C572.322 96.0146 591.514 84.0808 595.118 84.1519C596.29 84.1746 599.808 85.2414 602.934 86.5232ZM762 96.3508C766.208 98.187 768.671 107.143 768.219 118.97C767.612 134.846 771.694 133.561 704.55 139.007C658.455 142.744 624.187 144.128 620.297 142.411L616.342 140.665L616.744 122.46L617.146 104.256L625.674 103.127C659.309 98.667 756.266 93.8486 762 96.3508ZM558.166 101.722C558.166 102.55 556.407 104.662 554.258 106.416C552.109 108.17 547.472 114.008 543.954 119.392C540.437 124.776 537.08 129.21 536.493 129.246C534.518 129.365 535.44 125.311 538.997 118.235C544.074 108.136 543.714 106.681 536.138 106.681C529.208 106.681 528.381 105.789 532.229 102.466C535.106 99.9828 558.166 99.3217 558.166 101.722ZM529.032 143.855C532.94 144.645 542.213 146.043 549.639 146.96C562.029 148.489 585.556 152.009 600.487 154.568C605.097 155.358 607.332 156.828 609.725 160.644C612.761 165.483 612.856 166.717 612.172 192.349C610.947 238.353 611.759 295.907 613.734 303.053C617.34 316.093 620.772 316.214 623.468 303.394C625.533 293.575 624.628 220.995 622.224 203.664C615.928 158.271 615.711 159.42 630.874 157.742C636.613 157.107 650.58 155.934 661.914 155.132C693.247 152.919 742.488 148.915 753.049 147.724L762.464 146.661L763.32 152.937C767.073 180.47 765.071 278.943 760.532 290.148C757.604 297.372 747.572 301.503 715.92 308.523C700.548 311.932 673.436 315.884 636.333 320.127C620.981 321.883 619.298 321.778 608.619 318.406C602.366 316.431 595.011 314.132 592.275 313.296C589.539 312.462 585.382 311.156 583.037 310.397C553.529 300.828 526.289 292.764 525.692 293.42C523.694 295.615 527.815 297.802 556.035 309.522C563.851 312.768 571.357 316.101 572.714 316.925C574.071 317.751 576.342 318.427 577.759 318.427C579.177 318.427 580.945 319.035 581.687 319.778C582.431 320.522 588.793 323.105 595.828 325.518C602.863 327.933 610.089 330.596 611.884 331.44C616.124 333.433 639.527 333.412 651.692 331.405C656.923 330.542 668.239 328.686 676.837 327.281C691.902 324.818 695.082 324.197 713.788 320.067C726.327 317.3 730.573 315.976 748.608 309.205L764.951 303.071L1060.21 302.638C1252.15 302.355 1355.46 301.649 1355.46 300.617C1355.46 299.585 1254.23 299.03 1065.48 299.03C806.942 299.03 774.303 299.307 764.536 301.581C758.512 302.982 752.974 304.801 752.232 305.622C751.49 306.441 749.449 307.112 747.697 307.112C745.944 307.112 744.162 307.755 743.734 308.543C743.308 309.328 741.19 310.368 739.032 310.849C736.873 311.332 727.432 313.633 718.052 315.962C695.381 321.588 682.886 323.819 645.57 328.903C634.627 330.393 623.374 331.201 620.564 330.698C615.295 329.754 602.262 325.563 597.249 323.2C595.686 322.463 589.291 319.978 583.037 317.677C576.784 315.377 570.558 312.786 569.201 311.919C567.843 311.053 565.444 310.345 563.871 310.345C562.296 310.345 561.009 309.617 561.009 308.728C561.009 307.839 562.608 307.112 564.562 307.112C566.516 307.112 568.115 307.744 568.115 308.515C568.115 309.288 570.514 310.359 573.444 310.898C576.376 311.436 582.291 313.049 586.59 314.483C618.386 325.078 617.625 324.988 646.992 321.685C692.798 316.536 717.271 312.238 740.791 305.21C752.702 301.65 759.767 297.664 762.466 292.982C765.788 287.213 767.359 253.298 766.842 198.469C766.434 155.239 766.074 148.482 764.06 146.192C762.028 143.88 760.225 143.775 749.138 145.322C742.202 146.29 732.493 147.084 727.562 147.086C722.631 147.089 712.718 147.789 705.534 148.644C698.348 149.499 680.958 150.968 666.888 151.909C618.961 155.114 619.258 155.071 617.578 159.263C616.153 162.821 612.172 163.167 612.172 159.734C612.172 156.375 607.707 153.412 600.514 151.998C593.172 150.554 584.137 149.038 562.43 145.608C548.181 143.357 519.011 141.824 529.032 143.855ZM620.164 207.386C622.487 225.795 623.114 294.96 621.03 303.071C619.45 309.221 617.475 308.779 615.984 301.94C614.288 294.16 613.067 222.933 614.283 202.655C615.53 181.835 617.097 183.094 620.164 207.386Z" fill="white"/>
</g>
<defs>
<clipPath id="clip0_279_2704">
<rect width="1074" height="351" fill="white"/>
</clipPath>
</defs>
</svg>
