<svg width="993" height="352" viewBox="0 0 993 352" fill="none" xmlns="http://www.w3.org/2000/svg">
<path fill-rule="evenodd" clip-rule="evenodd" d="M492.154 0.942375C490.243 2.28294 489.122 6.56267 490.011 9.11864C490.8 11.3869 490.466 12.2081 488.752 12.2081C486.795 12.2081 480.254 15.3389 478.234 17.2426C475.829 19.5102 474.262 23.2094 473.673 28.0136C473.212 31.765 473.054 32.023 468.515 36.4001C463.005 41.7147 461.573 44.2068 461.349 48.8748C461.258 50.7689 461.075 52.4275 460.942 52.5611C460.809 52.6946 459.291 52.3785 457.568 51.8592C453.442 50.6154 443.924 50.6547 438.958 51.9366C434.173 53.172 429.389 55.497 426.616 57.9362C425.209 59.1742 423.269 59.9903 420.445 60.5309C415.86 61.4095 414.71 61.7302 407.31 64.1945C394.9 68.3285 381.28 75.8119 376.741 80.9896C374.785 83.2224 374.487 83.3281 367.831 84.1604C358.173 85.3674 351.356 87.2795 347.099 89.9761C342.391 92.9579 336.17 100.623 335.149 104.7C334.756 106.267 334.463 106.396 331.265 106.396C327.892 106.396 324.285 107.405 320.375 109.441C316.334 111.546 309.276 117.32 306.854 120.502L304.333 123.814H299.412C290.175 123.814 287.515 126.187 279.528 141.555C274.934 150.393 272.807 152.663 267.485 154.411C265.407 155.094 262.981 155.996 262.095 156.417C259.351 157.72 256.101 158.761 253.08 159.306C251.486 159.594 248.878 160.257 247.284 160.78C245.69 161.304 241.343 162.652 237.625 163.777C233.906 164.901 230.138 166.071 229.253 166.378C228.367 166.684 225.904 167.426 223.779 168.028C218.372 169.56 214.263 171.02 213.303 171.753C212.854 172.095 211.405 172.596 210.083 172.865C208.761 173.135 205.217 174.137 202.206 175.093C199.196 176.048 195.284 177.26 193.513 177.784C191.742 178.309 189.423 178.997 188.361 179.312C187.298 179.629 184.98 180.313 183.209 180.834C181.438 181.356 177.526 182.554 174.516 183.499C171.505 184.444 167.738 185.602 166.144 186.073C164.55 186.544 159.334 188.134 154.553 189.607C149.771 191.079 144.99 192.535 143.927 192.841C139.446 194.132 135.228 195.41 130.082 197.035C127.071 197.986 123.304 199.149 121.71 199.62C120.116 200.09 113.886 201.975 107.865 203.809C101.844 205.643 95.6133 207.535 94.0195 208.013C92.4256 208.492 87.0646 210.101 82.106 211.588C72.7981 214.38 69.4971 214.751 62.3072 213.81C57.9405 213.239 55.4599 214.052 53.1403 216.814C48.5488 222.28 51.891 229.658 58.9232 229.58C62.8533 229.537 65.7962 227.795 67.325 224.607C68.0495 223.095 69.0637 221.444 69.5789 220.938C70.0934 220.432 82.3958 216.522 96.9173 212.25C111.439 207.977 124.189 204.196 125.252 203.847C126.314 203.498 130.806 202.154 135.233 200.86C139.661 199.567 147.195 197.348 151.977 195.929C156.758 194.511 161.54 193.111 162.602 192.819C164.79 192.215 168.031 191.259 177.735 188.352C181.454 187.238 187.395 185.46 190.937 184.401C194.479 183.343 199.405 181.86 201.884 181.107C207.159 179.506 209.931 178.761 213.476 177.994C217.954 177.025 222.507 175.596 225.572 174.197C227.204 173.452 228.834 172.843 229.195 172.843C229.556 172.843 231.238 172.405 232.933 171.87C240.041 169.624 242.003 169.071 245.674 168.277C247.799 167.818 250.118 167.091 250.826 166.661C252.224 165.813 257.758 164.13 263.383 162.841C265.331 162.395 269.183 161.222 271.943 160.236C276.839 158.485 276.982 158.471 277.835 159.675C280.948 164.072 282.885 165.364 289.731 167.614C295.331 169.455 298.465 169.383 301.125 167.35C303.074 165.861 303.264 165.398 303.44 161.705L303.631 157.683L309.749 157.248C317.433 156.702 322.151 155.769 324.276 154.373C325.187 153.775 326.756 151.652 327.763 149.654C329.494 146.217 329.796 145.958 333.355 144.855C335.425 144.214 338.386 142.991 339.936 142.139C341.891 141.062 343.777 140.587 346.097 140.587C353.353 140.587 362.045 136.805 369.812 130.27C370.625 129.586 372.113 129.366 374.966 129.508C380.721 129.797 384.505 128.844 395.075 124.442C398.933 122.836 403.494 121.904 409.242 121.547C416.554 121.093 435.208 122.15 436.126 123.07C436.506 123.451 436.349 125.538 435.706 128.654C434.372 135.113 434.372 143.969 435.704 147.886L436.729 150.899L433.155 154.977C429.928 158.658 425.663 165.882 425.663 167.665C425.663 168.946 422.339 176.362 420.884 178.327C420.096 179.391 419.264 180.77 419.036 181.391C418.807 182.012 418.067 182.52 417.391 182.52C415.555 182.52 411.392 184.381 409.564 186.018C406.562 188.707 393.225 198.233 390.278 199.792C388.666 200.646 385.898 202.101 384.127 203.028C382.357 203.953 380.328 205.206 379.62 205.81C378.911 206.415 374.13 209.06 368.994 211.687C348.991 221.923 341.477 227.981 333.37 240.412C327.054 250.096 323.544 251.83 312.325 250.808C306.613 250.287 301.798 250.814 295.582 252.638C290.559 254.111 274.414 261.963 263.061 268.453C257.749 271.49 251.953 274.774 250.182 275.75C248.411 276.726 246.672 277.738 246.318 277.998C245.531 278.577 240.121 281.565 233.709 284.962C231.081 286.355 227.917 288.067 226.677 288.769C225.437 289.471 222.684 291.006 220.559 292.182C212.36 296.718 208.559 299.509 206.517 302.495C205.017 304.688 205.13 305.39 207.358 307.673C209.515 309.884 209.748 310.763 208.324 311.311C207.793 311.515 207.358 312.187 207.358 312.803C207.358 314.058 208.541 315.159 211.866 316.999C213.105 317.685 216.003 319.509 218.305 321.052C223.761 324.708 225.255 325.076 226.814 323.147C229.173 320.229 226.494 315.028 220.622 311.131C218.943 310.016 217.518 308.871 217.454 308.585C217.391 308.299 219.223 306.947 221.525 305.58C225.821 303.03 258.348 286.655 264.681 283.855C266.624 282.996 270.531 281.214 273.365 279.895C283.132 275.349 285.844 274.127 286.159 274.127C286.334 274.127 288.452 273.237 290.868 272.151C295.727 269.964 296.532 269.625 300.733 267.998C302.327 267.381 304.211 266.635 304.919 266.341C306.32 265.759 315.051 262.994 324.238 260.225C331.854 257.93 338.4 254.398 344.793 249.135C347.655 246.779 350.142 244.686 350.319 244.486C353.257 241.159 366.488 231.357 374.468 226.595C378.01 224.482 383.516 221.189 386.703 219.278C389.891 217.368 393.779 215.153 395.343 214.356C396.907 213.559 399.225 212.017 400.495 210.929C413.086 200.13 414.096 198.993 418.084 191.128C419.485 188.367 420.539 187.036 421.329 187.036C421.972 187.036 423.863 188.328 425.53 189.907C427.197 191.487 430.652 194.767 433.207 197.196C435.762 199.625 441.337 204.211 445.596 207.388C449.855 210.564 453.461 213.48 453.609 213.867C454.245 215.524 452.633 216.149 446.215 216.735C432.385 217.997 425.971 220.171 425.238 223.843C425.029 224.888 424.822 225.756 424.778 225.772C424.734 225.788 423.104 225.944 421.156 226.119C411.834 226.956 401.064 232.822 369.162 254.442C345.319 270.6 325.587 285.281 316.053 293.956C311.88 297.753 310.267 298.751 305.449 300.518C299.475 302.708 295.477 304.236 293.328 305.151C292.619 305.452 289.722 306.593 286.888 307.685C284.055 308.777 280.722 310.112 279.482 310.651C278.243 311.19 276.649 311.876 275.941 312.176C275.232 312.476 272.045 313.95 268.857 315.452C263.453 317.997 262.669 318.186 257.267 318.25L251.474 318.318L250.795 320.415C249.798 323.496 249.218 323.848 242.984 325.163C238.519 326.103 234.456 326.362 224.008 326.371L210.713 326.382L207.611 323.447C203.195 319.268 197.17 316.508 191.746 316.179C187.553 315.924 187.337 315.986 185.497 317.959C183.847 319.728 183.678 320.235 184.242 321.72C185.209 324.268 186.119 325.143 189.166 326.451C191.985 327.661 200.316 328.962 205.248 328.962C208.813 328.962 210.578 330.624 210.578 333.979C210.578 335.32 210.13 337.057 209.582 337.841C208.202 339.815 203.521 342.448 199.478 343.524C196.069 344.432 179.741 346.024 179.218 345.501C179.064 345.346 178.851 342.787 178.745 339.813C178.59 335.486 178.188 333.638 176.734 330.556C173.525 323.756 166.677 318.177 158.48 315.685C151.536 313.573 148.233 315.101 149.024 320.058C149.435 322.629 153.858 331.702 156.559 335.513C157.226 336.455 157.772 337.689 157.772 338.255C157.772 339.192 150.679 339.284 78.8862 339.284C0.429527 339.284 0 339.291 0 340.574C0 341.858 0.426308 341.865 80.6571 341.855C125.019 341.849 161.691 341.605 162.151 341.313C162.787 340.909 162.218 339.536 159.791 335.616C155.045 327.951 151.187 320.185 151.461 318.85C152.076 315.852 162.811 319.162 168.563 324.125C171.739 326.865 174.111 330.648 175.473 335.145C177.554 342.016 176.33 345.597 171.278 347.417C167.572 348.753 166.463 349.764 167.044 351.279C167.519 352.521 169.486 352.178 173.843 350.092C175.979 349.069 178.688 348.584 184.463 348.195C197.196 347.335 203.637 345.826 208.319 342.609C212.71 339.591 214.362 335.539 213.096 330.898C212.871 330.074 214.6 329.867 224.745 329.506C231.545 329.263 239.008 328.613 242.132 327.991C252.418 325.943 250.431 324.923 259.197 336.747C270.329 351.76 273.007 353.659 277.592 349.795C279.95 347.807 283.345 341.13 283.346 338.478C283.346 337.497 283.706 336.697 284.151 336.688C296.034 336.464 304.431 335.446 308.98 333.678C309.797 333.36 311.488 333.22 312.739 333.367C314.704 333.596 315.171 334.003 316.18 336.361C316.822 337.861 318.14 339.713 319.108 340.476L320.87 341.865H656.935C992.57 341.865 993 341.863 993 340.574C993 339.286 992.57 339.284 657.579 339.284H322.158L320.426 337.92C319.322 337.049 318.765 336.059 318.891 335.186C319.061 333.992 319.74 333.731 324.238 333.132C338.932 331.173 352.147 324.267 356.289 316.383C357.326 314.408 357.633 312.703 357.593 309.125C357.559 305.97 357.787 304.448 358.292 304.448C358.704 304.448 360.865 306.637 363.094 309.313C369.91 317.495 374.897 320.237 380.105 318.666C385.869 316.926 390.394 314.296 408.92 301.909C436.946 283.17 451.579 274.972 460.235 273.158C464.065 272.355 465.146 272.365 469.117 273.238C471.604 273.785 475.233 274.817 477.181 275.533C492.198 281.045 504.213 280.47 511.783 273.875C515.145 270.947 518.553 263.666 519.365 257.677C519.732 254.971 520.269 254.003 522.695 251.669C526.245 248.252 527.937 247.537 529.647 248.727C531.61 250.096 534.373 249.811 535.974 248.074C538.351 245.495 546.929 227.747 548.482 222.195C548.878 220.776 549.574 218.308 550.027 216.711C550.479 215.115 550.882 212.72 550.922 211.39C550.971 209.786 551.538 208.373 552.606 207.196C553.491 206.22 555.208 203.39 556.422 200.906C557.635 198.422 558.949 196.052 559.34 195.639C559.731 195.226 560.416 193.919 560.861 192.735C561.306 191.552 561.921 190.003 562.228 189.294C562.534 188.584 563.239 186.18 563.795 183.952C564.351 181.724 565.074 179.256 565.402 178.469C565.73 177.681 566.601 174.931 567.339 172.359C568.109 169.673 569.031 167.682 569.507 167.682C569.963 167.682 573.298 169.351 576.919 171.392C580.541 173.432 585.17 176.002 587.208 177.104C591.319 179.326 602.475 183.01 605.975 183.301L608.229 183.488L608.598 187.358C609.073 192.337 609.782 193.942 612.985 197.282C615.567 199.973 615.601 200.07 615.228 203.686C614.866 207.193 614.939 207.437 616.858 209.142C618.654 210.738 618.824 211.192 618.463 213.451C618.241 214.839 618.398 217.388 618.812 219.114C619.349 221.359 619.374 223.093 618.901 225.209C617.712 230.526 621.488 240.701 625.616 243.304C628.058 244.844 632.396 244.512 634.995 242.588C636.006 241.839 637.163 241.226 637.565 241.226C637.968 241.226 639.646 242.419 641.294 243.878C650.255 251.809 656.998 252.314 664.354 245.608C665.117 244.912 666.961 244.068 668.45 243.732C671.389 243.071 673.381 243.359 684.539 246.06C688.258 246.96 693.329 248.153 695.808 248.712C704.018 250.562 708.654 251.589 711.586 252.205C713.179 252.539 716.512 253.265 718.991 253.817C721.471 254.369 724.803 255.095 726.397 255.43C727.991 255.765 731.323 256.509 733.803 257.083C736.282 257.657 739.469 258.36 740.886 258.644C742.303 258.929 745.491 259.631 747.97 260.205C750.449 260.78 753.782 261.523 755.375 261.858C758.206 262.453 761.674 263.22 771.475 265.418C781.029 267.561 784.718 268.38 787.252 268.922C788.669 269.225 792.001 269.973 794.658 270.586C797.314 271.198 800.647 271.927 802.063 272.204C803.48 272.481 806.523 273.147 808.825 273.683C812.987 274.651 820.619 276.391 824.924 277.353C826.164 277.629 829.351 278.349 832.008 278.953C838.764 280.486 844.759 281.822 847.785 282.469C849.202 282.772 852.534 283.519 855.191 284.128C857.847 284.737 861.035 285.463 862.274 285.739C866.017 286.575 873.93 288.376 878.374 289.402C880.676 289.934 883.719 290.633 885.135 290.955C886.552 291.278 889.595 291.996 891.897 292.552C894.199 293.108 897.242 293.789 898.659 294.066C901.183 294.558 904.794 295.489 909.284 296.805C910.541 297.173 912.537 298.6 913.798 300.029C915.561 302.03 916.655 302.674 918.775 302.959C922.31 303.434 924.445 302.052 926.152 298.186C929.32 291.011 924.207 286.573 917.066 290.302L914.506 291.639L904.972 289.291C899.729 288 894.569 286.675 893.507 286.347C891.835 285.83 866.731 279.705 859.376 278.02C857.96 277.695 854.917 276.986 852.615 276.445C845.604 274.795 840.306 273.605 834.906 272.464C832.072 271.865 828.015 271.007 825.89 270.555C823.765 270.103 820.577 269.427 818.806 269.051C817.036 268.676 813.558 267.918 811.079 267.368C806.074 266.256 798.286 264.599 794.336 263.805C790.133 262.961 782.417 261.315 777.592 260.234C775.113 259.679 771.781 258.98 770.187 258.681C767.498 258.177 758.066 256.167 747.326 253.809C741.96 252.63 734.164 250.977 730.583 250.258C729.166 249.973 725.978 249.271 723.499 248.696C721.02 248.122 717.577 247.368 715.849 247.02C714.121 246.673 711.658 246.104 710.375 245.756C709.093 245.408 702.828 243.824 696.452 242.236C690.077 240.647 683.412 238.936 681.641 238.433C671.023 235.421 667.152 232.971 667.152 229.267C667.152 225.959 665.888 222.974 663.602 220.882C661.538 218.994 661.486 218.829 662.164 216.288C662.797 213.912 662.69 213.31 661.078 210.182C659.102 206.346 656.097 203.343 653.628 202.736C652.743 202.519 651.661 202.059 651.224 201.715C650.764 201.352 647.378 201.214 643.175 201.385C636.146 201.673 630.303 203.045 624.465 205.778C622.187 206.844 620.918 205.769 620.356 202.298C620.062 200.481 620.259 199.587 621.182 198.565C623.035 196.513 626.899 194.777 629.615 194.777C633.508 194.777 643.423 197.07 646.697 198.727C647.312 199.038 648.343 199.293 648.989 199.293C649.634 199.293 650.725 199.72 651.413 200.24C656.185 203.857 663.053 195.204 659.978 189.448C659.574 188.693 659.128 185.591 658.986 182.555C658.658 175.557 657.366 171.573 654.381 168.363C653.082 166.965 650.727 163.555 649.148 160.785C646.124 155.477 640.696 149.585 631.089 141.182C628.079 138.549 625.471 136.244 625.294 136.061C625.117 135.878 622.074 133.27 618.532 130.265C614.99 127.26 611.948 124.646 611.77 124.455C611.593 124.264 609.71 122.662 607.585 120.897C605.46 119.13 603.576 117.533 603.399 117.347C603.222 117.161 598.295 112.988 592.451 108.074C586.607 103.16 578.162 95.4487 573.684 90.9367C569.205 86.4241 564.445 81.827 563.104 80.7206L560.668 78.7085L561.518 75.6177C562.927 70.5012 563.091 60.2819 561.838 55.7757C559.131 46.046 554.214 39.2903 547.374 35.904C542.779 33.63 535.622 32.0114 532.497 32.5404C530.011 32.961 526.806 35.3525 526.717 36.853C526.499 40.5379 526.366 41.3069 523.194 57.2234C522.68 59.8064 522.259 62.6611 522.259 63.5675C522.259 65.866 520.831 65.2132 519.88 62.4791C518.461 58.3994 518.84 55.5009 521.604 49.3026C526.355 38.6465 524.24 26.4459 516.489 19.7993C513.843 17.5297 511.702 16.5627 504.711 14.4809C502.674 13.8745 501.008 13.2732 501.008 13.1448C501.008 13.0171 501.732 12.1862 502.618 11.2992C505.681 8.23031 503.907 3.41125 498.825 0.995275C496.069 -0.31432 493.969 -0.331093 492.154 0.942375ZM498.23 3.78931C502.645 6.48656 502.372 9.81925 497.669 10.6153C495.241 11.0263 494.803 10.894 493.475 9.34702C491.617 7.18264 491.594 5.53306 493.402 3.84672C495.143 2.22166 495.653 2.21521 498.23 3.78931ZM500.364 16.044C503.02 16.8343 506.699 17.9129 508.539 18.4413C512.796 19.6638 517.124 23.4358 519.307 27.8246C521.693 32.6204 521.694 41.0457 519.311 47.4336C516.627 54.628 516.299 56.1905 516.719 59.7729C516.939 61.6431 516.959 63.1726 516.764 63.1726C516.57 63.1726 515.547 62.5327 514.491 61.7508C512.134 60.0045 508.525 59.8929 495.217 61.1541C481.271 62.4753 474.089 61.3676 468.395 57.0169C461.6 51.825 462.182 46.3163 470.368 38.3355C475.362 33.4655 476.237 31.8462 476.789 26.4427C477.363 20.8463 481.099 17.0517 487.94 15.1215C491.781 14.0377 494.23 14.2196 500.364 16.044ZM541.665 36.5208C548.556 38.6916 554.066 43.3771 556.696 49.3006C559.504 55.6273 559.931 57.7252 559.912 65.108C559.896 71.5237 559.698 72.8978 558.45 75.2687C557.093 77.8466 556.841 78.0104 554.232 78.0104C550.87 78.0104 546.646 80.5877 543.423 84.6068C531.587 99.3691 525.57 104.702 514.059 110.634C510.309 112.566 509.372 112.812 507.898 112.251C505.534 111.35 505.725 110.803 508.913 109.346C521.759 103.477 535.256 91.0535 540.547 80.2264C543.977 73.212 544.458 71.0418 544.409 62.8501C544.37 56.2415 544.111 54.3532 542.635 49.9477C540.379 43.21 537.837 38.1246 536.319 37.3104C534.902 36.5511 535.329 35.4325 537.034 35.4325C537.681 35.4325 539.765 35.9221 541.665 36.5208ZM532.562 36.3247C532.562 36.4608 531.983 36.724 531.274 36.9098C530.566 37.0949 529.986 36.984 529.986 36.6621C529.986 36.3408 530.566 36.0776 531.274 36.0776C531.983 36.0776 532.562 36.1892 532.562 36.3247ZM537.024 43.3352C540.301 50.4476 542.242 58.1291 542.198 63.8178C542.08 79.2174 528.642 96.1783 508.214 106.712C502.915 109.445 501.173 111.39 502.238 113.384C503.122 115.038 502.126 115.427 497.006 115.427C493.373 115.427 492.964 115.272 490.941 113.124C489.749 111.857 488.772 110.609 488.772 110.351C488.772 110.094 490.657 110.003 492.959 110.15C496.494 110.375 497.672 110.157 500.526 108.749C504.316 106.88 509.746 101.931 515.705 94.9171C520.719 89.0155 522.14 85.9983 522.745 79.969C523.207 75.3583 523.294 75.168 525.157 74.659C529.16 73.5642 531.945 66.3821 532.4 55.9763C532.659 50.0561 532.509 48.5904 531.321 45.408C530.022 41.9301 530.004 41.6424 531.03 40.5083C531.628 39.8457 532.804 39.3032 533.642 39.3032C534.884 39.3032 535.51 40.0496 537.024 43.3352ZM529.747 56.3989C529.208 64.3274 526.827 71.5592 524.756 71.5592C523.777 71.5592 524.15 66.9976 525.808 58.7091C526.689 54.3029 527.411 49.9238 527.411 48.9787C527.411 46.3221 528.279 46.0712 529.257 48.4446C529.901 50.0077 530.035 52.1733 529.747 56.3989ZM458.506 55.0215C459.872 55.6699 460.093 56.1744 459.966 58.3504C459.884 59.7606 459.735 64.1126 459.635 68.0207C459.479 74.1281 459.254 75.4061 458.039 77.1163C456.444 79.36 453.354 88.3227 453.354 90.7045C453.354 92.9837 454.987 95.7803 457.378 97.5995C459.545 99.2478 462.097 100.335 468.165 102.197C473.485 103.829 475.662 104.978 482.011 109.507C487.657 113.535 489.416 115.125 489.416 116.2C489.416 116.489 488.656 117.378 487.728 118.174C484.937 120.566 483.418 124.788 483.378 130.265C483.27 144.902 493.623 138.798 494.159 123.909C494.352 118.518 494.754 118.036 499.076 118.01C500.67 118 503.568 117.511 505.516 116.923C507.998 116.173 511.657 115.834 517.751 115.793C529.143 115.714 530.278 115.048 535.073 105.631C536.696 102.443 539.731 99.2897 547.051 93.185C551.048 89.851 555.244 85.8325 556.375 84.2545C557.987 82.0063 558.726 81.4631 559.792 81.7424C560.541 81.9386 565.37 86.3557 570.524 91.5586C575.677 96.7615 581.633 102.446 583.758 104.191C585.883 105.936 587.767 107.519 587.944 107.709C588.121 107.9 592.032 111.238 596.635 115.128C601.239 119.018 605.731 122.825 606.617 123.588C607.504 124.351 613.581 129.576 620.123 135.2C633.843 146.995 643.969 156.525 643.969 157.643C643.969 158.069 644.983 159.605 646.223 161.056C648.708 163.965 649.067 165.243 647.35 165.068C645.033 164.832 643.996 165.14 642.359 166.553C640.706 167.98 640.695 168.047 641.696 170.444C643.52 174.811 649.676 177.247 652.756 174.82C653.673 174.097 654.638 173.638 654.898 173.8C655.159 173.961 655.558 175.867 655.784 178.035C656.221 182.226 655.507 184.642 654.003 184.064C652.735 183.576 647.664 186.048 646.712 187.618C645.496 189.622 646.795 191.706 650.291 193.361C653.704 194.977 654.964 195.117 656.076 194.003C657.181 192.896 657.078 194.743 655.952 196.229C654.698 197.884 652.198 197.63 644.286 195.046C638.4 193.124 636.177 192.716 631.089 192.627C624.592 192.513 623.424 192.904 619.429 196.54L617.75 198.067L614.76 195.156L611.77 192.245V187.707C611.77 183.546 611.958 182.906 614.032 180.014C616.601 176.433 616.513 174.587 613.789 174.905C612.575 175.047 611.692 175.86 610.604 177.843C609.246 180.315 608.86 180.585 606.677 180.585C603.375 180.585 597.738 178.644 590.932 175.165C587.801 173.565 584.214 171.917 582.961 171.502C580.705 170.757 573.218 166.397 571.039 164.561C570.348 163.979 569.912 162.708 569.912 161.275C569.912 158.62 568.417 156.07 566.859 156.07C565.62 156.07 562.829 158.543 562.829 159.641C562.829 160.061 563.579 161.513 564.495 162.866C566.291 165.518 566.291 166.173 564.484 172.198C563.898 174.15 563.134 176.863 562.785 178.227C562.436 179.592 561.434 182.057 560.558 183.706C559.682 185.354 558.965 187.196 558.965 187.799C558.965 188.402 558.708 189.054 558.394 189.249C558.08 189.443 557.627 190.65 557.387 191.93C556.812 195.002 552.852 202.632 550.859 204.507C549.439 205.844 549.064 205.916 547.154 205.224C542.16 203.415 533.282 205.64 530.888 209.301C528.126 213.523 536.179 216.399 543.51 213.808C545.015 213.276 546.501 212.841 546.811 212.841C547.843 212.841 547.39 217.653 546.021 221.236C545.277 223.183 544.52 225.356 544.337 226.066C544.155 226.775 541.793 231.71 539.089 237.033C535.167 244.751 533.878 246.751 532.721 246.916C530.751 247.196 530.171 245.406 531.5 243.151C533.8 239.251 532.178 232.08 528.308 229.03C523.645 225.356 518.72 229.44 520.376 235.606C521.087 238.247 523.612 242.726 524.808 243.468C526.242 244.355 525.353 246.227 522.564 248.196L519.65 250.254L519.022 248.601C518.677 247.692 518.395 246.819 518.395 246.66C518.395 245.698 515.127 239.673 512.822 236.388C502.976 222.35 491.542 217.358 466.824 216.302L456.788 215.873V214.122C456.788 213.14 456.105 211.671 455.233 210.778C453.288 208.787 445.23 203.064 442.983 202.077C442.061 201.673 437.905 198.05 433.748 194.028C429.592 190.005 425.206 186.133 424.001 185.423C422.797 184.713 421.809 183.807 421.806 183.409C421.8 182.672 425.796 174.244 430.028 166.069C431.314 163.586 432.959 160.372 433.683 158.928C434.408 157.484 435.619 155.827 436.374 155.246C437.701 154.224 437.899 154.339 442.313 158.647C447.266 163.482 450.345 164.924 454.185 164.202C456.768 163.717 459.794 160.994 459.794 159.155C459.794 156.953 455.395 152.344 451.555 150.525C448.496 149.075 447.349 148.866 443.961 149.138C441.767 149.314 439.631 149.249 439.216 148.992C437.639 148.015 436.948 140.361 437.813 133.424C438.947 124.316 439.676 122.348 442.098 121.854C447.001 120.854 449.515 117.471 449.582 111.785C449.618 108.735 449.368 107.916 447.972 106.517C446.505 105.048 446.147 104.953 444.797 105.677C442.676 106.814 440.157 110.932 438.795 115.487C437.388 120.193 436.809 120.412 428.51 119.39C419.947 118.336 407.294 118.457 402.038 119.643C396.781 120.828 395.135 121.383 388.957 124.057C384.668 125.914 379.347 127.112 376.27 126.915L373.18 126.717V123.402C373.18 119.395 371.698 117.363 368.775 117.363C366.47 117.363 363.835 119.585 363.86 121.507C363.87 122.244 364.72 123.961 365.75 125.324C366.779 126.686 367.489 128.147 367.327 128.569C366.541 130.62 356.592 135.844 350.707 137.296C346.598 138.309 346.097 137.732 347.459 133.562C348.39 130.709 348.43 129.817 347.732 127.323C346.706 123.653 343.907 120.099 339.372 116.709C334.393 112.988 330.847 111.557 326.604 111.557C322.675 111.557 322.777 110.899 326.889 109.73C331.14 108.521 333.889 108.78 336.038 110.592C338.609 112.759 341.417 113.297 342.615 111.851C343.427 110.871 343.362 110.623 342.057 109.698C341.246 109.124 339.827 108.047 338.904 107.305L337.227 105.957L339.225 102.467C344.488 93.2733 350.983 89.5026 365.875 86.9957C371.43 86.0602 372.858 86.3764 372.858 88.5395C372.858 89.3852 373.519 91.0631 374.328 92.2689C375.615 94.1868 376.189 94.4862 378.922 94.661C381.598 94.8326 382.308 94.6081 383.89 93.0888C384.907 92.114 385.737 90.7096 385.737 89.9677C385.737 87.9698 383.924 85.7358 381.467 84.7074C380.274 84.2081 379.298 83.3669 379.298 82.8391C379.298 79.8671 398.065 69.7716 410.881 65.8493C421.706 62.5366 422.442 62.5043 423.732 65.2835C424.867 67.7304 426.555 68.2472 428.287 66.6776C429.65 65.4422 429.937 62.5514 428.811 61.4224C426.778 59.3858 434.586 55.1764 442.407 54.0932C446.895 53.4713 456.394 54.019 458.506 55.0215ZM466.785 59.1723C469.186 61.0205 472.329 62.4908 476.815 63.8649C479.365 64.6461 492.642 64.3597 503.555 63.2888C510.662 62.5914 512.484 62.952 513.941 65.3467C515.37 67.693 515.648 75.1061 514.445 78.7207C512.975 83.1327 507.354 87.3234 500.686 88.9775C497.319 89.8123 496.079 89.5891 488.219 86.7305C485.041 85.5745 483.697 85.8203 480.191 88.1956C478.698 89.2078 477.557 89.6103 477.294 89.2188C477.055 88.8626 474.686 86.9608 472.029 84.9926C465.859 80.4193 464.709 79.1187 462.997 74.7848C461.86 71.9044 461.659 70.3864 461.931 66.7208C462.263 62.2488 463.383 57.3666 464.078 57.3666C464.276 57.3666 465.494 58.1794 466.785 59.1723ZM519.644 69.8839C520.894 71.9102 520.95 72.4953 520.366 77.464C519.506 84.7752 518.868 86.6318 515.886 90.498C511.951 95.599 504.224 103.415 501.072 105.482C498.738 107.012 497.541 107.343 494.31 107.352C489.481 107.366 486.87 106.135 485.422 103.163C484.011 100.265 480.401 92.1244 480.401 91.8412C480.401 91.7212 481.423 90.8425 482.671 89.8884L484.943 88.153L489.074 89.9123C496.272 92.9772 503.679 92.174 510.432 87.5969C516.093 83.7597 517.741 80.329 517.747 72.3656C517.749 69.7929 517.872 67.6885 518.02 67.6885C518.169 67.6885 518.899 68.6762 519.644 69.8839ZM461.623 81.8321C461.886 83.6881 464.337 87.7092 466.376 89.6291C468.509 91.638 472.9 93.4933 475.521 93.4933C478.195 93.4933 479.13 94.6384 481.116 100.345C481.841 102.431 482.702 104.414 483.028 104.751C483.795 105.544 483.787 106.396 483.014 106.396C482.68 106.396 480.579 105.256 478.345 103.862C476.111 102.47 471.82 100.561 468.809 99.622C462.748 97.7311 459.691 96.3331 457.819 94.5971C456.246 93.1385 456.153 88.5962 457.611 84.4829C458.181 82.8746 458.76 81.1741 458.897 80.7044C459.306 79.3 461.386 80.1606 461.623 81.8321ZM554.457 81.7721C554.457 83.0959 550.092 87.3898 542.866 93.1746C540.209 95.3016 537.683 97.4769 537.252 98.0092C536.713 98.673 536.461 98.7259 536.447 98.1775C536.435 97.7382 536.847 96.8673 537.36 96.2422C537.874 95.6177 540.322 92.6095 542.8 89.5581C546.918 84.4874 549.262 82.3095 551.881 81.1199C553.592 80.3432 554.457 80.5625 554.457 81.7721ZM470.142 86.8808C472.879 88.8201 473.287 89.6226 471.54 89.6226C470.32 89.6226 466.877 86.7453 466.877 85.7261C466.877 84.7674 467.439 84.9661 470.142 86.8808ZM380.93 87.4389C382.943 88.7601 383.015 91.1238 381.069 92.0121C378.234 93.3056 375.09 90.7561 375.864 87.7917C376.308 86.0905 378.63 85.9293 380.93 87.4389ZM535.782 99.1497C535.782 99.422 535.058 100.713 534.172 102.019C533.287 103.324 532.562 104.57 532.562 104.787C532.562 106.105 528.067 111.71 526.36 112.522C524.127 113.583 518.045 113.844 517.464 112.904C517.265 112.581 518.579 111.405 520.385 110.292C522.191 109.179 524.003 107.994 524.413 107.66C524.822 107.325 526.75 105.827 528.698 104.33C530.646 102.833 532.82 100.949 533.528 100.143C534.83 98.6614 535.782 98.2421 535.782 99.1497ZM446.583 112.29C446.575 114.909 446.248 116.138 445.295 117.124C443.493 118.988 441.796 119.49 441.338 118.295C440.598 116.365 444.507 108.126 445.948 108.576C446.303 108.687 446.588 110.357 446.583 112.29ZM321.557 112.964C318.731 114.334 319.528 117.646 322.834 118.272C332.591 120.119 336.937 121.663 337.998 123.659C338.326 124.277 338.909 127.249 339.292 130.265C339.676 133.281 340.168 136.377 340.385 137.145C340.882 138.899 339.308 139.988 333.576 141.854C328.297 143.571 327.716 144.03 325.45 148.272C323.263 152.365 320.255 154.09 315.223 154.136C313.452 154.152 310.937 154.413 309.634 154.717C306.756 155.387 304.362 154.384 304.075 152.388C303.858 150.879 304.879 148.805 307.82 144.78C310.025 141.764 310.256 139.311 308.487 137.707C306.731 136.116 303.443 136.84 300.838 139.39C298.06 142.112 297.802 143.688 299.354 148.46C301.657 155.539 301.183 163.064 298.315 164.946C296.836 165.918 296.386 165.907 292.126 164.809C289.599 164.157 286.477 162.956 285.186 162.141C281.387 159.738 278.987 155.562 280.77 154.457C281.63 153.925 281.586 151.154 280.68 148.642C280.016 146.803 280.184 146.142 282.407 141.823C286.226 134.406 289.747 129.276 291.887 128.01C293.019 127.34 295.683 126.722 298.219 126.54L302.598 126.226L303.043 128.084C303.675 130.731 304.504 131.555 306.529 131.555C309.557 131.555 310.96 128.581 309.069 126.173C308.381 125.296 307.817 124.222 307.817 123.787C307.817 122.613 315.731 115.093 318.048 114.066C319.151 113.577 320.053 112.958 320.053 112.69C320.053 112.421 320.704 112.221 321.501 112.246L322.95 112.289L321.557 112.964ZM330.678 114.858C332.095 115.25 333.399 115.782 333.576 116.038C333.753 116.295 334.477 116.857 335.186 117.287C336.55 118.116 335.774 118.08 329.712 117.036C324.93 116.213 324.599 116.077 324.974 115.098C325.411 113.957 327.16 113.884 330.678 114.858ZM370.226 121.129C370.902 122.393 370.481 125.104 369.609 125.104C368.672 125.104 367.062 123.104 367.062 121.94C367.062 119.703 369.175 119.161 370.226 121.129ZM491.876 122.426C492.108 124.842 489.977 132.487 488.523 134.458C486.274 137.507 484.727 131.154 486.451 125.953C488.479 119.834 491.443 117.908 491.876 122.426ZM342.163 122.685C345.252 125.932 346.302 132.262 344.114 134.454C342.561 136.009 342.075 135.006 341.774 129.62C341.624 126.959 341.279 124.129 341.006 123.33C340.458 121.728 340.977 121.439 342.163 122.685ZM306.529 140.97C306.529 142.004 304.937 144.706 303.187 146.64C302.121 147.819 302.076 147.805 301.663 146.156C301.021 143.592 301.836 141.371 303.798 140.341C305.729 139.327 306.529 139.512 306.529 140.97ZM451.422 153.33C454.281 155.062 455.93 156.906 455.93 158.371C455.93 160.105 454.835 160.586 450.88 160.586C448.217 160.586 447.547 160.274 445.102 157.897C441.727 154.615 440.721 152.938 441.896 152.55C445.029 151.514 448.956 151.836 451.422 153.33ZM275.941 154.78C276.16 155.135 276.031 155.425 275.657 155.425C275.282 155.425 274.975 155.135 274.975 154.78C274.975 154.425 275.102 154.135 275.259 154.135C275.415 154.135 275.722 154.425 275.941 154.78ZM650.143 169.29C651.331 171.108 650.969 172.843 649.399 172.843C647.869 172.843 643.969 170.872 643.969 170.099C643.969 169.082 646.057 167.725 647.657 167.703C648.49 167.691 649.531 168.356 650.143 169.29ZM416.004 186.945C416.004 187.667 412.323 194.606 410.77 196.812C410.106 197.754 409.564 198.817 409.564 199.174C409.564 199.91 400.767 207.68 399.933 207.68C399.314 207.68 393.148 211.739 391.211 213.422C390.503 214.037 387.17 216.09 383.805 217.984C368.442 226.632 360.657 231.97 349.997 241.169C337.092 252.303 333.339 254.685 324.5 257.346C314.519 260.35 303.581 263.844 302.343 264.423C301.635 264.755 296.854 266.753 291.718 268.864C286.582 270.976 280.642 273.498 278.517 274.47C269.118 278.767 266.441 280.016 258.553 283.781C237.776 293.7 220.478 302.636 214.239 306.673C213.037 307.452 212.528 307.455 210.739 306.693C209.504 306.166 208.646 305.334 208.646 304.661C208.646 302.79 213.731 298.928 222.491 294.145C224.616 292.985 227.804 291.238 229.575 290.263C231.346 289.287 234.678 287.469 236.981 286.224C243.796 282.535 247.459 280.466 250.008 278.863C251.329 278.032 252.567 277.353 252.758 277.353C252.949 277.353 254.186 276.673 255.508 275.842C256.828 275.01 259.648 273.367 261.773 272.188C263.898 271.01 266.651 269.463 267.891 268.75C273.055 265.782 286.238 259.148 289.342 257.957C291.18 257.251 293.263 256.395 293.972 256.054C297.744 254.241 303.371 253.483 313.074 253.483C326.905 253.483 328.586 252.635 335.403 242.213C342.035 232.076 347.669 226.668 357.725 220.79C363.857 217.205 381.027 208.325 381.826 208.325C382.503 208.325 390.696 203.36 393.465 201.272C402.801 194.231 408.415 190.242 411.429 188.506C415.246 186.309 416.004 186.05 416.004 186.945ZM654.594 189.294C654.594 190.369 654.165 190.584 652.018 190.584C649.817 190.584 649.412 190.367 649.231 189.093C649.036 187.707 649.218 187.616 651.807 187.803C654.098 187.968 654.594 188.233 654.594 189.294ZM652.674 206.283C657.6 208.902 660.567 212.753 659.345 214.941C658.853 215.821 658.42 215.875 656.676 215.276C655.531 214.882 653.539 213.899 652.248 213.091C650.959 212.283 648.206 211.186 646.131 210.654C642.926 209.831 641.765 209.812 638.406 210.523C636.232 210.984 633.578 211.984 632.511 212.746C631.442 213.508 630.28 214.131 629.928 214.131C629.576 214.131 627.781 215.146 625.939 216.388C624.098 217.629 622.33 218.483 622.011 218.285C621.116 217.731 621.306 210.521 622.235 209.751C622.678 209.384 624.634 208.443 626.582 207.659C634.926 204.301 647.681 203.629 652.674 206.283ZM544.85 208.325C546.216 208.325 545.286 209.409 543.349 210.078C539.865 211.279 537.176 211.671 535.678 211.195C534.299 210.756 534.313 210.714 536.147 209.739C538.307 208.591 542.136 207.714 543.402 208.078C543.873 208.214 544.525 208.325 544.85 208.325ZM646.393 214.064C647.008 214.383 648.235 214.924 649.121 215.266C650.295 215.721 648.639 215.885 643.003 215.872C637.291 215.86 634.645 216.126 632.86 216.895C631.533 217.467 630.446 217.767 630.446 217.56C630.446 216.622 633.383 214.775 634.891 214.766C635.81 214.761 636.998 214.475 637.529 214.131C638.748 213.341 644.906 213.295 646.393 214.064ZM67.1795 217.338C67.4705 217.612 67.108 218.957 66.3745 220.328C65.641 221.699 65.0409 223.143 65.0409 223.537C65.0409 225.202 62.4772 226.537 59.1872 226.587C56.4072 226.629 55.6434 226.379 54.5976 225.085C52.5453 222.546 54.1275 218.155 57.6352 216.653C59.0693 216.039 66.3526 216.562 67.1795 217.338ZM651.755 219.305C659.102 220.945 661.632 222.001 662.918 223.966C663.951 225.545 664.175 229.187 663.795 238.232C663.62 242.403 663.481 242.765 661.356 244.543C656.461 248.641 651.938 248.542 646.104 244.207C640.507 240.049 638.758 238.099 639.475 236.814C642.08 232.141 642.624 228.107 641.059 225.075C638.852 220.799 634.32 222.256 633.027 227.657C632.204 231.092 632.447 233.025 634.155 236.644C635.18 238.814 635.172 238.851 633.301 240.351C632.207 241.227 630.543 241.866 629.351 241.868C626.803 241.872 624.543 239.164 622.693 233.891C620.527 227.718 621.243 223.163 624.376 223.163C625.264 223.163 627.206 222.541 628.693 221.781C636.548 217.766 642.159 217.164 651.755 219.305ZM475.893 219.611C479.966 220.127 484.892 220.952 486.84 221.446C495.745 223.702 503.579 228.553 508.235 234.694C509.748 236.69 511.167 238.468 511.387 238.645C512.328 239.401 515.712 246.98 516.493 250.08C517.288 253.234 517.245 253.659 515.827 256.693C514.994 258.475 513.75 260.442 513.064 261.063C511.337 262.627 506.821 262.386 500.927 260.414C482.72 254.324 476.735 252.832 465.268 251.526C454.807 250.334 444.554 251.736 433.069 255.925C426.567 258.297 408.963 267.414 404.617 270.661C403.489 271.503 402.431 272.192 402.265 272.192C401.585 272.192 388.644 281.233 379.62 288.013C370.929 294.541 366.449 297.386 361.121 299.755C359.497 300.477 359.137 300.338 356.322 297.897C353.453 295.41 348.623 292.836 346.824 292.836C346.377 292.836 345.482 293.422 344.834 294.138C343.68 295.415 343.718 295.499 346.755 298.331C348.46 299.922 350.07 301.222 350.333 301.222C350.597 301.222 350.964 301.803 351.15 302.512C351.346 303.266 351.169 303.803 350.724 303.803C349.443 303.803 342.461 307.639 339.001 310.245C337.204 311.598 333.437 315.086 330.63 317.995C325.077 323.751 316.728 330.898 315.557 330.898C315.154 330.898 315.985 329.518 317.405 327.832C320.534 324.114 321.984 320.819 321.984 317.428C321.984 315.388 321.598 314.559 320.034 313.24C317.024 310.703 313.583 310.378 306.046 311.922C304.724 312.192 303.953 312.097 303.953 311.662C303.953 310.949 311.272 302.112 312.939 300.811C313.456 300.407 316.21 299.131 319.059 297.975C330.657 293.27 339.328 288.331 349.997 280.354C353.369 277.833 359.563 274.174 364.808 271.605C374.1 267.053 381.064 263.805 381.531 263.805C381.678 263.805 384.295 262.644 387.347 261.225C390.4 259.805 393.004 258.644 393.134 258.644C393.414 258.644 401.703 254.863 407.632 252.03C412.609 249.653 421.051 244.509 424.603 241.69C427.781 239.169 430.815 234.458 430.815 232.045C430.815 231.038 430.349 229.501 429.78 228.63C428.596 226.821 428.373 226.962 434.357 225.74C441.019 224.38 445.447 222.923 451.342 220.149C453.812 218.987 455.529 218.742 461.404 218.711C465.3 218.691 471.82 219.096 475.893 219.611ZM441.996 220.385C442.535 220.926 437.36 222.506 433.552 222.963C429.763 223.419 430.124 222.392 434.196 221.133C437.861 220 441.283 219.672 441.996 220.385ZM638.817 229.049C638.817 232.641 637.968 234.775 636.541 234.775C635.158 234.775 635.221 227.502 636.615 226.106C638.147 224.571 638.817 225.466 638.817 229.049ZM425.541 229.023C428.907 230.198 428.841 233.071 425.353 237.224C422.25 240.918 410.943 247.778 399.583 252.859C397.812 253.651 394.479 255.162 392.177 256.217C389.875 257.272 385.528 259.158 382.518 260.407C365.419 267.502 356.954 272.056 345.811 280.153C337.78 285.989 323.022 294.19 321.507 293.657C320.894 293.443 320.917 293.167 321.608 292.476C324.735 289.342 348.269 271.934 362.554 262.185C378.303 251.439 380.526 249.949 388.957 244.486C399.376 237.735 406.397 233.765 413.106 230.832C414.782 230.1 421.182 228.42 422.509 228.366C423.075 228.343 424.44 228.638 425.541 229.023ZM527.595 232.148C529.579 234.51 530.282 238.052 529.336 240.922C528.697 242.863 528.471 243.03 527.395 242.357C525.768 241.339 522.975 236.105 522.795 233.735C522.5 229.858 524.981 229.037 527.595 232.148ZM674.961 239.288C675.537 239.596 677.059 240.045 678.342 240.286C681.909 240.956 681.255 242.125 677.616 241.583C675.934 241.332 673.469 240.974 672.139 240.786C669.528 240.418 668.769 239.752 669.319 238.315C669.598 237.59 670.106 237.538 671.792 238.066C672.958 238.431 674.385 238.98 674.961 239.288ZM685.183 242.516C686.62 242.977 686.533 243.039 684.378 243.097C683.05 243.132 681.963 242.871 681.963 242.516C681.963 241.778 682.881 241.778 685.183 242.516ZM471.385 255.015C477.146 256.097 481.942 257.187 484.587 258.015C485.649 258.347 489.996 259.74 494.246 261.109C505.195 264.635 508.348 265.3 511.725 264.793C514.564 264.366 514.635 264.397 514.189 265.853C513.491 268.133 509.529 272.726 507.235 273.915C501.914 276.673 494.069 277.415 487.484 275.784C485.536 275.302 481.045 273.934 477.503 272.743C471.824 270.834 470.264 270.579 464.302 270.579C458.336 270.579 457.025 270.794 453.174 272.405C444.636 275.976 427.891 285.932 408.832 298.769C395.906 307.475 387.775 312.589 383.805 314.507C379.75 316.466 375.42 316.555 372.485 314.738C370.033 313.22 361.92 304.499 361.914 303.375C361.912 302.962 364.156 301.413 366.901 299.933C369.647 298.451 376.239 293.97 381.552 289.973C399.684 276.331 409.392 270.147 424.155 262.834C441.373 254.305 455.316 251.996 471.385 255.015ZM784.193 264.895C783.573 265.057 782.559 265.057 781.939 264.895C781.319 264.733 781.827 264.6 783.066 264.6C784.306 264.6 784.813 264.733 784.193 264.895ZM791.611 266.164C791.175 266.34 790.306 266.351 789.679 266.188C789.052 266.024 789.409 265.879 790.472 265.866C791.534 265.853 792.047 265.987 791.611 266.164ZM799.979 268.13C799.187 268.283 797.738 268.287 796.76 268.139C795.781 267.991 796.428 267.866 798.199 267.86C799.97 267.856 800.771 267.977 799.979 268.13ZM808.825 269.611C810.097 270.019 809.732 270.142 807.092 270.192C805.253 270.227 803.57 269.966 803.351 269.611C802.881 268.849 806.451 268.849 808.825 269.611ZM816.553 271.547C816.553 272.296 813.735 272.296 811.401 271.547C810.134 271.14 810.511 271.016 813.172 270.966C815.039 270.931 816.553 271.191 816.553 271.547ZM825.153 273.394C825.558 273.724 827.339 274.145 829.11 274.328C830.881 274.511 834.358 275.138 836.838 275.722C839.317 276.305 842.721 277.038 844.402 277.351C846.084 277.664 847.766 278.109 848.142 278.342C848.517 278.574 850.329 279.013 852.168 279.318C859.349 280.508 862.918 281.376 862.918 281.932C862.918 282.252 864.15 282.518 865.655 282.523C867.161 282.529 868.827 282.815 869.358 283.159C870.05 283.607 869.377 283.787 866.981 283.794C865.143 283.799 863.477 283.542 863.28 283.222C863.082 282.903 861.181 282.438 859.055 282.191C856.928 281.944 855.027 281.48 854.829 281.16C854.632 280.84 853.464 280.578 852.234 280.578C851.004 280.578 848.957 280.143 847.686 279.611C846.414 279.078 844.267 278.643 842.915 278.643C841.562 278.643 840.297 278.387 840.104 278.073C839.911 277.76 838.16 277.304 836.212 277.06C834.265 276.817 832.506 276.348 832.302 276.017C832.099 275.688 830.7 275.417 829.195 275.417C827.69 275.417 825.896 274.991 825.208 274.47C824.521 273.949 822.581 273.514 820.899 273.503C819.052 273.49 817.84 273.191 817.84 272.747C817.84 271.885 823.968 272.427 825.153 273.394ZM876.442 285.094C876.442 285.843 873.624 285.843 871.29 285.094C870.023 284.688 870.401 284.564 873.061 284.514C874.928 284.478 876.442 284.738 876.442 285.094ZM882.398 286.84C881.602 286.993 880.297 286.993 879.5 286.84C878.704 286.686 879.356 286.56 880.949 286.56C882.543 286.56 883.195 286.686 882.398 286.84ZM888.838 288.102C888.396 288.281 887.671 288.281 887.228 288.102C886.786 287.923 887.148 287.777 888.033 287.777C888.919 287.777 889.281 287.923 888.838 288.102ZM895.934 290.033C895.498 290.21 894.629 290.221 894.002 290.057C893.375 289.893 893.732 289.749 894.795 289.736C895.857 289.723 896.37 289.856 895.934 290.033ZM923.735 294.908C923.655 301.083 919.888 302.332 915.373 297.679C912.583 294.803 912.573 294.778 914.144 294.383C915.015 294.165 916.813 293.427 918.14 292.745C919.468 292.062 921.278 291.586 922.163 291.686C923.634 291.852 923.77 292.132 923.735 294.908ZM354.827 300.577C354.827 300.932 354.699 301.222 354.543 301.222C354.386 301.222 354.08 300.932 353.861 300.577C353.642 300.222 353.77 299.932 354.145 299.932C354.52 299.932 354.827 300.222 354.827 300.577ZM305.885 303.736C305.885 304.477 299.365 313.036 296.311 316.304C290.865 322.129 282.116 326.152 276.138 325.578C272.944 325.272 265.846 322.077 265.459 320.773C265.334 320.348 266.627 319.368 268.332 318.593C270.037 317.819 273.555 316.206 276.149 315.01C278.743 313.813 281.137 312.834 281.47 312.834C281.803 312.834 282.579 312.558 283.194 312.22C284.358 311.582 287.003 310.478 291.396 308.8C297.152 306.6 303.062 304.301 304.275 303.788C304.984 303.49 305.636 303.225 305.724 303.201C305.812 303.177 305.885 303.417 305.885 303.736ZM353.791 306.123C355.411 306.746 355.742 310.467 354.474 313.793C352.658 318.557 345.869 323.953 337.762 327.077C333.783 328.611 322.718 331.202 322.232 330.715C321.773 330.256 337.071 315.106 340.982 312.148C342.752 310.808 346.085 308.826 348.387 307.744C353.31 305.43 352.568 305.653 353.791 306.123ZM217.801 312.853C221.819 314.85 222.748 315.682 224.459 318.813C226.219 322.036 223.972 321.651 218.154 317.731C215.208 315.748 212.443 314.125 212.01 314.125C210.975 314.125 210.989 311.746 212.027 311.326C213.425 310.761 213.783 310.856 217.801 312.853ZM318.455 315.666C319.311 316.974 319.346 317.673 318.688 320.292C317.69 324.26 312.799 329.607 310.167 329.607C306.865 329.607 302.464 325.772 301.406 321.972C299.963 316.79 303.617 314.289 312.793 314.18C317.02 314.13 317.54 314.266 318.455 315.666ZM198.335 320.413C201.848 322.031 206.071 325.212 205.639 325.914C205.2 326.625 199.362 326.164 193.835 324.982C187.855 323.703 184.876 320.685 188.2 319.273C190.073 318.478 195.445 319.081 198.335 320.413ZM298.158 320.962C298.158 322.716 300.632 326.804 302.904 328.802C304.796 330.467 305.026 330.945 304.367 331.849C303.722 332.732 301.895 332.985 293.907 333.292L284.23 333.665L282.181 331.475C281.054 330.271 280.131 329.127 280.13 328.934C280.128 328.74 281.772 328.075 283.785 327.454C287.115 326.427 295.662 321.367 296.579 319.879C297.092 319.047 298.158 319.778 298.158 320.962ZM263.394 323.163C264.394 323.878 266.975 325.337 269.127 326.407C271.281 327.477 273.043 328.758 273.043 329.253C273.043 330.438 276.707 334.079 278.639 334.815C280.698 335.599 281.067 336.889 280.159 340.113C278.988 344.272 276.223 347.955 274.087 348.203C271.947 348.452 270.741 347.468 266.716 342.187C265.093 340.058 263.606 338.171 263.412 337.994C262.812 337.447 257.864 330.718 256.077 328.019C254.205 325.19 254.269 325.024 257.929 323.195C261.133 321.594 261.192 321.594 263.394 323.163Z" fill="white"/>
</svg>
