<svg width="95" height="58" viewBox="0 0 95 58" fill="none" xmlns="http://www.w3.org/2000/svg">
<path fill-rule="evenodd" clip-rule="evenodd" d="M21.9424 0.56349C22.596 1.59926 24.6103 4.79093 25.4635 8.61456C26.4314 12.9043 26.4038 15.529 25.9889 18.5346C25.2285 23.925 22.8364 28.0736 21.7856 29.4565C21.0666 28.5252 19.9743 26.592 19.2414 24.814C19.2414 24.814 17.8587 21.3991 17.4992 18.0689C17.1397 14.7528 17.2918 11.3803 18.3565 7.57034C19.3382 4.16959 21.2463 1.09339 21.7717 0.289062C21.8068 0.348733 21.8651 0.441048 21.9424 0.56349ZM20.4997 23.0925C20.5688 25.7594 21.3016 27.481 21.7717 28.3841C22.2695 27.4669 23.0991 25.449 23.0162 22.8667C22.9194 20.242 22.0483 18.3088 21.7856 17.8573C21.4952 18.3088 20.4858 20.5242 20.4997 23.0925ZM24.7169 20.2844C24.9658 19.2401 25.1455 17.5186 25.187 15.8817C25.2285 14.259 25.0625 11.4791 24.2882 8.60045C23.5001 5.70769 21.9792 2.94193 21.7579 2.58916C21.5367 2.94193 20.3338 5.17147 19.2691 8.671C18.9925 9.71522 18.481 12.0012 18.398 14.2166C18.3012 16.8977 18.6607 19.5788 18.799 20.3267C18.799 19.4377 18.8128 16.4744 19.352 14.0191C19.8913 11.5779 20.9283 8.74156 21.7579 7.30223C22.6567 8.81211 23.7905 12.0859 24.1915 14.0332C24.5924 16.0087 24.7998 18.5064 24.7169 20.2844ZM35.5015 30.457H29.5421V46.4307H32.667V32.4467H35.5015V30.457ZM39.5682 32.4506L39.029 40.4374H40.2872L39.748 32.4506H39.5682ZM38.6418 46.4346H35.5723L37.2038 30.4609H42.1262L43.7578 46.4346H40.702L40.4117 42.1872H38.9322L38.6418 46.4346ZM48.2372 40.8427V43.8484C48.2372 44.2576 48.5414 44.3705 48.7211 44.3705C49.0115 44.3705 49.2189 44.1165 49.2189 43.8484V40.1231C49.2189 39.6292 49.1359 39.0789 47.9606 39.0789H46.6886V37.3291H48.0159C48.9009 37.3291 49.2189 37.1174 49.2189 36.1438V32.9688C49.2189 32.7007 49.0115 32.4467 48.7211 32.4467C48.5414 32.4467 48.2372 32.5455 48.2372 32.9688V35.5793H45.1123V33.3075C45.1123 32.1927 45.2367 30.457 47.4352 30.457H50.0208C52.2193 30.457 52.3576 32.1927 52.3576 33.3075V35.8615C52.3576 37.5972 51.1685 38.077 50.2282 38.0346V38.1899C52.3299 38.1334 52.3576 39.7844 52.3576 40.3488V43.5662C52.3576 44.695 52.2193 46.4166 50.0208 46.4166H47.4352C45.2367 46.4166 45.1123 44.695 45.1123 43.5662V40.8286H48.2372V40.8427ZM61.6496 30.4609H54.4043V46.4346H57.543V32.4506H58.5247V46.4346H61.6496V30.4609ZM66.8339 39.2521V32.4506H67.2487C67.5805 32.4506 67.8294 32.7328 67.8294 33.2549V38.4478C67.8294 38.9558 67.5805 39.2521 67.2487 39.2521H66.8339ZM63.709 46.4346H66.8339V41.0019H68.6314C70.816 41.0019 70.9543 39.2803 70.9543 38.1514V33.3114C70.9543 32.1966 70.816 30.4609 68.6314 30.4609H63.709V46.4346ZM76.6363 44.3705C76.9267 44.3705 77.1341 44.1165 77.1341 43.8484V32.9688C77.1341 32.7007 76.9267 32.4467 76.6363 32.4467C76.4566 32.4467 76.1524 32.5455 76.1524 32.9688V43.8484C76.1524 44.2576 76.4566 44.3705 76.6363 44.3705ZM75.3366 46.4307C73.1519 46.4307 73.0137 44.7091 73.0137 43.5803V33.3075C73.0137 32.1927 73.1519 30.457 75.3366 30.457H77.936C80.1207 30.457 80.259 32.1927 80.259 33.3075V43.5803C80.259 44.7091 80.1207 46.4307 77.936 46.4307H75.3366ZM90.4505 30.457H94.5294V46.4307H91.4046V36.4119H91.294L89.6624 46.4307H87.1597L85.5558 36.4119H85.4452V46.4307H82.3203V30.457H86.3854L88.4318 41.6894L90.4505 30.457ZM23.4035 30.4596H16.1167V35.4548L16.1305 35.4407C17.8451 33.691 20.6381 33.691 22.3526 35.4407C24.0672 37.1764 24.0672 40.0268 22.3526 41.7766L22.325 41.8048C22.3164 41.8048 22.3132 41.8102 22.3087 41.8176C22.3059 41.8222 22.3026 41.8276 22.2973 41.833C20.5828 43.5546 18.3428 44.4294 16.1029 44.4294C13.8491 44.4294 11.6092 43.5687 9.89462 41.8048C6.86653 38.7286 6.50703 33.945 8.81612 30.4596C9.12031 29.9939 9.47981 29.5423 9.89462 29.119C11.6092 27.3692 13.8629 26.4944 16.1029 26.4944V14.5C7.47491 14.5141 0.478516 21.6402 0.478516 30.4596C0.478516 39.2789 7.47492 46.4191 16.1167 46.4191C20.6243 46.4191 24.6756 44.4718 27.5377 41.3674V30.4596H23.4035ZM0.480469 49.1094H94.5309V57.7876H0.480469V49.1094ZM5.58299 52.2141V51.2969H3.23242V55.8547H4.32475V52.2141H5.58299ZM6.31543 52.4794C6.31543 52.0984 6.42604 51.8021 6.6611 51.5763C6.90999 51.3223 7.28331 51.1953 7.78108 51.1953C8.26502 51.1953 8.62452 51.3223 8.88723 51.5763C9.10846 51.8021 9.2329 52.1125 9.2329 52.4935V54.5396C9.2329 55.0053 9.12229 55.3581 8.88723 55.5979C8.65217 55.8378 8.29267 55.9507 7.79491 55.9507C7.31097 55.9507 6.93764 55.8237 6.70258 55.5838C6.46753 55.3439 6.34308 54.9912 6.34308 54.5255V52.4794H6.31543ZM7.75343 52.0138C7.65664 52.0138 7.55985 52.042 7.49071 52.1125C7.42158 52.1831 7.3801 52.2819 7.3801 52.3947V54.709C7.3801 54.836 7.42158 54.9347 7.49071 55.0053C7.55985 55.0758 7.65664 55.1041 7.75343 55.1041C7.85021 55.1041 7.947 55.0758 8.01614 55.0053C8.08527 54.9347 8.12675 54.836 8.12675 54.6948V52.3806C8.12675 52.2536 8.08527 52.169 8.01614 52.0984C7.947 52.042 7.86404 52.0138 7.75343 52.0138ZM10.1602 51.2969V55.8406H11.2387V54.0626H11.7226C12.0959 54.0626 12.3863 53.978 12.6075 53.7945C12.8841 53.5687 13.0223 53.1877 13.0223 52.6798C13.0223 52.1576 12.8841 51.7766 12.6075 51.5509C12.4001 51.3815 12.1097 51.2969 11.7226 51.2969H10.1602ZM11.4322 53.2583H11.2387V52.1012H11.4184C11.5843 52.1012 11.7088 52.1435 11.8056 52.2282C11.9023 52.3129 11.9438 52.454 11.9438 52.6656C11.9438 52.8773 11.8885 53.0325 11.7917 53.1313C11.6949 53.216 11.5843 53.2583 11.4322 53.2583ZM14.9711 53.9215V55.8547H13.8926V51.2969H14.9711V53.0043H15.6762V51.2969H16.7547V55.8547H15.6762V53.9215H14.9711ZM18.0429 51.5763C17.8079 51.8021 17.6973 52.0984 17.6973 52.4794H17.7249V54.5255C17.7249 54.9912 17.8494 55.3439 18.0844 55.5838C18.3195 55.8237 18.6928 55.9507 19.1767 55.9507C19.6745 55.9507 20.034 55.8378 20.2691 55.5979C20.5041 55.3581 20.6147 55.0053 20.6147 54.5396V52.4935C20.6147 52.1125 20.4903 51.8021 20.2691 51.5763C20.0064 51.3223 19.6469 51.1953 19.1629 51.1953C18.6651 51.1953 18.2918 51.3223 18.0429 51.5763ZM18.8864 52.1125C18.9555 52.042 19.0523 52.0138 19.1491 52.0138C19.2459 52.0138 19.3288 52.042 19.4118 52.0984C19.4809 52.169 19.5224 52.2536 19.5224 52.3806V54.6948C19.5224 54.836 19.4809 54.9347 19.4118 55.0053C19.3427 55.0758 19.2459 55.1041 19.1491 55.1041C19.0523 55.1041 18.9555 55.0758 18.8864 55.0053C18.8172 54.9347 18.7758 54.836 18.7758 54.709V52.3947C18.7758 52.2819 18.8172 52.1831 18.8864 52.1125ZM21.3594 54.6704V53.9648H24.0418V54.6704H21.3594ZM25.5485 52.2141V55.8547H26.5441V52.2141H27.3322V51.2969H24.7051V52.2141H25.5485ZM31.1066 51.2969L31.1028 51.311H29.9866L29.558 53.3994L29.4612 54.2461L29.392 53.3006L28.9911 51.311H27.8711L28.8805 54.8952C28.8666 54.9657 28.8251 55.0081 28.7837 55.0222C28.7422 55.0363 28.6869 55.0504 28.6316 55.0504H28.4933C28.4518 55.0504 28.4104 55.0363 28.3689 55.0222V55.7983C28.4103 55.8406 28.4933 55.8688 28.5901 55.8971C28.6869 55.9112 28.7975 55.9253 28.9081 55.9253C29.2814 55.9253 29.558 55.8406 29.7239 55.6995C29.8898 55.5443 30.0281 55.248 30.1525 54.8105L31.1028 51.311H31.1066V51.2969ZM31.8535 51.2969V55.8406H32.932V54.0626H33.416C33.7893 54.0626 34.0796 53.978 34.3009 53.7945C34.5774 53.5687 34.7157 53.1877 34.7157 52.6798C34.7157 52.1576 34.5774 51.7766 34.3009 51.5509C34.0935 51.3815 33.8031 51.2969 33.416 51.2969H31.8535ZM33.1256 53.2583H32.932V52.1012H33.1118C33.2777 52.1012 33.4021 52.1435 33.4989 52.2282C33.5957 52.3129 33.6372 52.454 33.6372 52.6656C33.6372 52.8773 33.5819 53.0325 33.4851 53.1313C33.3883 53.216 33.2777 53.2583 33.1256 53.2583ZM37.3706 55.8547V54.7964C37.4259 54.232 37.495 53.6535 37.5641 53.075L36.6378 55.8547H35.5869V51.2969H36.6239V52.4399C36.6239 52.5669 36.5825 52.9338 36.5133 53.5264C36.5072 53.5857 36.5011 53.6421 36.4953 53.6959L36.4953 53.6961C36.4748 53.8854 36.458 54.0405 36.458 54.1614L37.3706 51.2969H38.3938V55.8547H37.3706ZM42.1833 54.0457H41.1186V54.6666C41.1186 54.836 41.0771 54.963 41.008 55.0335C40.9388 55.1041 40.842 55.1464 40.7176 55.1464C40.5932 55.1464 40.4964 55.1041 40.4411 55.0335C40.3719 54.963 40.3443 54.836 40.3443 54.6666V52.3806C40.3443 52.2677 40.3858 52.1831 40.4549 52.1266C40.524 52.0702 40.607 52.042 40.7038 52.042C40.8006 52.042 40.8835 52.0843 40.9665 52.1408C41.0494 52.1972 41.0909 52.2819 41.0909 52.3947V52.9027H42.1694V52.4935C42.1694 52.1125 42.0588 51.8021 41.8238 51.5763C41.561 51.3223 41.2015 51.1953 40.7176 51.1953C40.2198 51.1953 39.8465 51.3082 39.5976 51.5622C39.3626 51.788 39.252 52.0984 39.252 52.4794V54.455C39.252 54.9771 39.3764 55.3439 39.6115 55.5838C39.8465 55.8237 40.2198 55.9366 40.7176 55.9366C41.2154 55.9366 41.5887 55.8237 41.8238 55.5838C42.0588 55.3581 42.1833 54.9771 42.1833 54.4691V54.0457ZM43.7595 55.8547V52.2141H42.916V51.2969H45.5431V52.2141H44.755V55.8547H43.7595ZM48.1137 54.7964V55.8547H49.1369V51.2969H48.1137L47.2012 54.1614C47.2012 54.0404 47.218 53.8852 47.2385 53.6957L47.2385 53.6956L47.2385 53.6953C47.2443 53.6418 47.2504 53.5855 47.2565 53.5264C47.3256 52.9338 47.3671 52.5669 47.3671 52.4399V51.2969H46.3301V55.8547H47.3809L48.3073 53.0749C48.2746 53.349 48.2449 53.6231 48.2154 53.8958L48.2154 53.8962L48.2153 53.8966C48.1826 54.1991 48.1501 54.4997 48.1137 54.7964ZM50.0636 51.2969H51.1283V52.835C51.1283 53.0466 51.2251 53.1454 51.4325 53.1454C51.5846 53.1454 51.7229 53.1172 51.8335 53.0607V51.2969H52.912V55.8547H51.8335V53.9356C51.6814 53.9921 51.5569 54.0203 51.4325 54.0344C51.3081 54.0485 51.156 54.0626 50.9624 54.0626C50.755 54.0626 50.5614 53.9921 50.3816 53.8369C50.1604 53.6534 50.0636 53.3994 50.0636 53.089V51.2969ZM54.0176 51.2969V55.8406H56.5202V54.9798H55.0961V53.8933H56.4096V53.0325H55.0961V52.1576H56.5202V51.2969H54.0176ZM59.1205 54.0457H60.1852V54.4691C60.1852 54.9771 60.0608 55.3581 59.8257 55.5838C59.5906 55.8096 59.2173 55.9366 58.7196 55.9366C58.2218 55.9366 57.8485 55.8237 57.6134 55.5838C57.3783 55.3439 57.2539 54.9771 57.2539 54.455V52.4794C57.2539 52.0984 57.3645 51.788 57.5996 51.5622C57.8485 51.3082 58.2218 51.1953 58.7196 51.1953C59.2035 51.1953 59.563 51.3223 59.8257 51.5763C60.0608 51.8021 60.1714 52.1125 60.1714 52.4935V52.9027H59.0929V52.3947C59.0929 52.2819 59.0514 52.1972 58.9684 52.1408C58.8855 52.0843 58.8025 52.042 58.7057 52.042C58.6089 52.042 58.526 52.0702 58.4568 52.1266C58.3877 52.1831 58.3462 52.2677 58.3462 52.3806V54.6666C58.3462 54.836 58.3739 54.963 58.443 55.0335C58.4983 55.1041 58.5951 55.1464 58.7196 55.1464C58.844 55.1464 58.9408 55.1041 59.0099 55.0335C59.0791 54.963 59.1205 54.836 59.1205 54.6666V54.0457ZM61.127 51.2969V55.8406H62.1501V54.7823L62.4405 54.2602L62.9383 55.8406H64.0721L63.0765 53.3006L64.0721 51.2969H62.8968L62.1501 53.1031V51.2969H61.127ZM66.6284 55.8547V54.7964C66.6648 54.4995 66.6973 54.1987 66.73 53.896L66.7301 53.8954L66.7302 53.8949L66.7302 53.8944L66.7303 53.894L66.7303 53.8937L66.7303 53.8934C66.7597 53.6215 66.7893 53.3482 66.822 53.0749L65.8956 55.8547H64.8447V51.2969H65.8817V52.4399C65.8817 52.5669 65.8403 52.9338 65.7711 53.5264C65.7676 53.5601 65.7642 53.5929 65.7607 53.6249C65.7582 53.649 65.7556 53.6725 65.7531 53.6956L65.7531 53.696L65.753 53.6967C65.7326 53.8857 65.7158 54.0407 65.7158 54.1614L66.6284 51.2969H67.6516V55.8547H66.6284ZM70.4441 54.7955V55.8538H71.4672V51.296H70.4441L69.5315 54.1605C69.5315 53.9771 69.5453 53.7654 69.573 53.5255L69.5999 53.2843L69.6 53.2833C69.6528 52.8117 69.6836 52.5362 69.6836 52.439V51.296H68.6604V55.8538H69.7112L70.6376 53.074C70.6049 53.3478 70.5753 53.6215 70.5458 53.8938L70.5458 53.8943L70.5457 53.8949C70.513 54.1976 70.4804 54.4985 70.4441 54.7955ZM70.0707 51.0138C69.7804 51.0138 69.5453 50.9573 69.3932 50.8303C69.2135 50.6892 69.1167 50.4775 69.1305 50.1953H69.5453C69.5453 50.3223 69.6144 50.407 69.7389 50.4634C69.8357 50.5058 69.9463 50.5199 70.0984 50.5199C70.2505 50.5199 70.3611 50.5058 70.4302 50.4634C70.5132 50.4211 70.5823 50.3223 70.6238 50.1953H71.0248C71.0248 50.4634 70.928 50.6751 70.7344 50.8162C70.5547 50.9432 70.3334 51.0138 70.0707 51.0138ZM75.5883 54.936H76.2796V51.2954H77.3581V54.936H77.5932V56.7845H76.5423V55.8391H74.5098V51.2812H75.5883V54.936ZM78.4092 51.2969V55.8406H80.9118V54.9798H79.4877V53.8933H80.8012V53.0325H79.4877V52.1576H80.9118V51.2969H78.4092ZM82.8607 53.9215V55.8547H81.7822V51.2969H82.8607V53.0043H83.5659V51.2969H84.6444V55.8547H83.5659V53.9215H82.8607ZM85.4473 52.2141H86.2907V55.8547H87.2862V52.2141H88.0744V51.2969H85.4473V52.2141ZM88.875 55.8406V51.2969H90.4374C90.8246 51.2969 91.1149 51.3815 91.3223 51.5509C91.5989 51.7766 91.7372 52.1576 91.7372 52.6798C91.7372 53.1877 91.5989 53.5687 91.3223 53.7945C91.1011 53.978 90.8108 54.0626 90.4374 54.0626H89.9535V55.8406H88.875ZM89.9397 53.2583H90.1332C90.2853 53.2583 90.396 53.216 90.4927 53.1313C90.5895 53.0325 90.6448 52.8773 90.6448 52.6656C90.6448 52.454 90.6034 52.3129 90.5066 52.2282C90.4098 52.1435 90.2853 52.1012 90.1194 52.1012H89.9397V53.2583Z" fill="#0F6EB4"/>
</svg>
