<svg width="24" height="24" viewBox="0 0 24 24" fill="none" xmlns="http://www.w3.org/2000/svg"><path fill-rule="evenodd" clip-rule="evenodd" d="M15.97 8.776c-.477 0-.927.098-1.321.295a4.06 4.06 0 00-4.01-3.436 4.078 4.078 0 00-4.065 3.97 2.697 2.697 0 00-2.35 2.69A2.701 2.701 0 006.925 15h9.046a3.112 3.112 0 000-6.224z" stroke="#222A2F" stroke-width="1.5" stroke-linecap="round" stroke-linejoin="round"/><path d="M17.51 18l-.5 1m-8.5 2l-.5 1m-2.505-4.005c-.003 0-.005.002-.005.005s.002.005.005.005.005-.002.005-.005-.002-.005-.005-.005m6 0c-.003 0-.005.002-.005.005s.002.005.005.005.005-.002.005-.005-.002-.005-.005-.005m2.005 2.995c-.003 0-.005.001-.005.004s.002.005.005.005.005-.002.005-.005-.002-.005-.005-.005M11.466 5.728c.234-2.083 1.983-3.708 4.13-3.708a4.176 4.176 0 004.179 4.173 4.159 4.159 0 01-1.746 3.38" stroke="#222A2F" stroke-width="1.5" stroke-linecap="round" stroke-linejoin="round"/></svg>