<svg width="20" height="20" viewBox="0 0 20 20" fill="none" xmlns="http://www.w3.org/2000/svg"><path d="M4.166 6.486v.72l5.329-1.102V7.15a.8.8 0 01-.109.402L7.85 10.184a1.997 1.997 0 00-.143 1.712l1.236 3.274a1.602 1.602 0 001.5 1.036h3.659v-.68h-3.594a.962.962 0 01-.9-.622L8.33 11.518a1.078 1.078 0 01.077-.925l1.595-2.734c.143-.244.218-.522.218-.805v-1.1l5.164-1.068v-.72L4.166 6.486z" fill="#fff"/><path d="M10.256 11.11H8.894l1.218 3.216c.128.292.413.48.733.48h3.258v-1.24h-2.91l-.937-2.456z" fill="#fff"/></svg>