<svg width="141" height="90" viewBox="0 0 141 90" fill="none" xmlns="http://www.w3.org/2000/svg"><path fill="#0F6EB4" d="M0 0h141v90H0z"/><path fill-rule="evenodd" clip-rule="evenodd" d="M43.61 9.636c.688 1.087 2.807 4.439 3.705 8.453 1.018 4.505.99 7.26.553 10.417-.8 5.66-3.317 10.016-4.422 11.468-.757-.978-1.906-3.008-2.677-4.875 0 0-1.455-3.586-1.833-7.082-.378-3.482-.218-7.023.902-11.024 1.033-3.57 3.04-6.8 3.593-7.645.037.062.098.16.18.288zM42.093 33.29c.072 2.8.843 4.608 1.338 5.556.524-.963 1.397-3.081 1.31-5.793-.103-2.756-1.02-4.786-1.295-5.26-.306.474-1.368 2.8-1.353 5.497zm4.436-2.948c.262-1.097.451-2.904.495-4.623.044-1.704-.13-4.623-.945-7.645-.83-3.038-2.43-5.942-2.663-6.312-.232.37-1.498 2.711-2.618 6.386-.29 1.096-.83 3.496-.916 5.823-.102 2.815.276 5.63.421 6.415 0-.933.015-4.045.582-6.623.568-2.563 1.659-5.541 2.532-7.052.945 1.585 2.138 5.022 2.56 7.067.422 2.074.64 4.697.553 6.564zm15.626 12.771l-.567 8.386h1.324l-.568-8.386h-.189zm-.974 14.684h-3.23l1.717-16.773h5.178l1.717 16.773h-3.215l-.306-4.46h-1.556l-.305 4.46zm-3.305-16.773h-6.27v16.773h3.288V43.114h2.982v-2.089zM71.274 51.93v3.156c0 .43.32.549.51.549.305 0 .523-.267.523-.549v-3.911c0-.519-.088-1.097-1.324-1.097h-1.338v-1.837h1.396c.931 0 1.266-.222 1.266-1.245v-3.333c0-.282-.218-.548-.524-.548-.189 0-.509.103-.509.548v2.74h-3.288v-2.385c0-1.17.131-2.993 2.444-2.993h2.72c2.313 0 2.459 1.823 2.459 2.993V46.7c0 1.822-1.251 2.326-2.24 2.282v.163c2.21-.06 2.24 1.674 2.24 2.267v3.378c0 1.185-.145 2.993-2.459 2.993h-2.72c-2.313 0-2.444-1.808-2.444-2.993v-2.874h3.288v.014zm14.112-10.905h-7.622v16.773h3.302V43.114h1.033v14.684h3.287V41.025zm5.454 9.231v-7.142h.437c.349 0 .61.297.61.845v5.452c0 .534-.261.845-.61.845h-.437zm-3.287 7.542h3.287v-5.705h1.891c2.299 0 2.444-1.807 2.444-2.993v-5.082c0-1.17-.145-2.993-2.444-2.993h-5.178v16.773zm13.6-2.163c.306 0 .524-.267.524-.549V43.663c0-.282-.218-.548-.524-.548-.189 0-.509.103-.509.548v11.423c0 .43.32.549.509.549zm-1.367 2.163c-2.299 0-2.444-1.808-2.444-2.993V44.018c0-1.17.145-2.993 2.444-2.993h2.735c2.298 0 2.443 1.823 2.443 2.993v10.787c0 1.185-.145 2.993-2.443 2.993h-2.735zm15.901-16.773h4.291v16.773h-3.288v-10.52h-.116l-1.717 10.52h-2.633l-1.687-10.52h-.116v10.52h-3.288V41.025h4.277l2.153 11.794 2.124-11.794zm-70.539.002h-7.666v5.245l.014-.015a4.576 4.576 0 016.547 0c1.803 1.823 1.803 4.816 0 6.653l-.03.03c-.008 0-.012.005-.017.013a.079.079 0 01-.012.016 9.193 9.193 0 01-6.517 2.726 9.052 9.052 0 01-6.531-2.755c-3.186-3.23-3.564-8.253-1.135-11.913a9.15 9.15 0 011.135-1.407 9.136 9.136 0 016.531-2.756V24.27c-9.077.014-16.438 7.497-16.438 16.757 0 9.26 7.361 16.758 16.453 16.758 4.742 0 9.005-2.045 12.016-5.305V41.027h-4.35zM21.031 60.611h98.949v9.113H21.031V60.61zm5.368 3.262v-.963h-2.473v4.786h1.149v-3.823h1.324zm.77.278c0-.4.117-.711.365-.948.261-.267.654-.4 1.178-.4.51 0 .887.133 1.164.4.232.237.363.563.363.963v2.148c0 .49-.116.86-.363 1.112-.248.251-.626.37-1.15.37-.509 0-.901-.133-1.149-.385-.247-.252-.378-.623-.378-1.112v-2.148h-.03zm1.514-.489a.38.38 0 00-.277.104.418.418 0 00-.116.296v2.43c0 .133.044.237.116.311a.38.38 0 00.277.104.38.38 0 00.276-.104.441.441 0 00.117-.326v-2.43a.393.393 0 00-.117-.296.414.414 0 00-.276-.089zm2.532-.752v4.771h1.134v-1.867h.51c.392 0 .698-.089.93-.281.292-.237.437-.637.437-1.17 0-.549-.145-.95-.436-1.186-.218-.178-.524-.267-.931-.267h-1.644zm1.338 2.06h-.203v-1.215h.189c.174 0 .305.044.407.133.102.089.145.237.145.46 0 .222-.058.385-.16.488a.538.538 0 01-.378.134zm3.722.696v2.03h-1.134V62.91h1.134v1.793h.742V62.91h1.135v4.786h-1.135v-2.03h-.742zm3.231-2.463c-.247.237-.363.548-.363.948h.029v2.148c0 .49.13.86.378 1.112.247.252.64.385 1.15.385.523 0 .901-.119 1.148-.37.248-.252.364-.623.364-1.112v-2.148c0-.4-.13-.726-.364-.963-.276-.267-.654-.4-1.163-.4-.524 0-.917.133-1.179.4zm.888.563a.38.38 0 01.276-.104c.102 0 .19.03.276.089a.393.393 0 01.117.296v2.43a.441.441 0 01-.117.326.38.38 0 01-.276.104.38.38 0 01-.276-.104.429.429 0 01-.117-.31v-2.43c0-.12.044-.223.117-.297zm2.602 2.684v-.741h2.822v.74h-2.822zm4.409-2.577v3.823h1.047v-3.823h.83v-.963h-2.764v.963h.887zm5.847-.963l-.004.015h-1.175l-.45 2.193-.102.889-.073-.993-.422-2.089h-1.178l1.062 3.763c-.015.075-.059.119-.102.134a.516.516 0 01-.16.03h-.146a.416.416 0 01-.13-.03v.815c.043.044.13.074.232.103.102.015.218.03.335.03.392 0 .683-.089.858-.237.175-.163.32-.474.45-.933l1-3.675h.005v-.015zm.785 0v4.771h1.135v-1.867h.509c.393 0 .698-.089.93-.281.292-.237.437-.637.437-1.17 0-.549-.145-.95-.436-1.186-.218-.178-.524-.267-.931-.267h-1.644zm1.338 2.06h-.203v-1.215h.189c.175 0 .305.044.407.133.102.089.146.237.146.46 0 .222-.059.385-.16.488a.538.538 0 01-.379.134zm4.466 2.726v-1.111c.059-.593.131-1.2.204-1.808l-.975 2.919h-1.105V62.91h1.09v1.2c0 .134-.043.519-.115 1.141l-.02.178c-.021.2-.039.362-.039.489l.96-3.008h1.077v4.786H59.84zm5.063-1.9h-1.12v.652c0 .177-.044.31-.116.385a.413.413 0 01-.306.118c-.13 0-.233-.044-.29-.118-.073-.074-.103-.208-.103-.385v-2.4c0-.12.044-.208.117-.267a.402.402 0 01.262-.09.49.49 0 01.276.104c.087.06.131.149.131.267v.534h1.135v-.43c0-.4-.117-.726-.364-.963-.276-.267-.655-.4-1.164-.4-.523 0-.916.118-1.178.385-.247.237-.364.563-.364.963v2.074c0 .549.131.934.379 1.186.247.252.64.37 1.163.37.524 0 .917-.118 1.164-.37.247-.237.378-.637.378-1.17v-.445zm1.66 1.9v-3.823h-.888v-.963h2.764v.963h-.83v3.823h-1.047zm4.58-1.111v1.11h1.077V62.91h-1.077l-.96 3.008c0-.127.018-.29.04-.49a55.277 55.277 0 00.018-.177c.073-.622.117-1.007.117-1.14v-1.2h-1.091v4.785h1.105l.975-2.919c-.035.288-.066.576-.097.862a66.36 66.36 0 01-.107.946zm2.052-3.675h1.12v1.615c0 .222.102.326.32.326.16 0 .306-.03.422-.089V62.91h1.135v4.786h-1.135V65.68c-.16.06-.29.089-.422.104-.13.014-.29.03-.494.03a.91.91 0 01-.611-.238c-.233-.192-.335-.46-.335-.785V62.91zm4.16 0v4.771h2.633v-.904H78.49v-1.14h1.382v-.904H78.49v-.919h1.499v-.904h-2.633zm5.37 2.886h1.12v.444c0 .534-.131.934-.379 1.17-.247.238-.64.371-1.163.371-.524 0-.917-.118-1.164-.37-.247-.252-.378-.637-.378-1.186v-2.074c0-.4.116-.726.363-.963.262-.267.655-.385 1.179-.385.509 0 .887.133 1.163.4.248.237.364.563.364.963v.43h-1.135v-.534a.301.301 0 00-.13-.267.49.49 0 00-.277-.103.404.404 0 00-.262.089.328.328 0 00-.116.266v2.4c0 .178.029.312.102.386.058.074.16.118.29.118a.411.411 0 00.306-.118c.073-.074.117-.208.117-.385v-.652zm2.11-2.886v4.771h1.076V66.57l.306-.548.524 1.66h1.192l-1.047-2.668 1.047-2.104h-1.236l-.786 1.897V62.91h-1.076zm5.789 4.786v-1.111c.038-.311.072-.626.106-.943v-.004c.032-.286.063-.574.097-.861l-.974 2.919h-1.106V62.91h1.091v1.2c0 .134-.044.519-.116 1.141l-.018.167v.007l-.001.004c-.022.2-.04.362-.04.489l.96-3.008h1.077v4.786h-1.076zm4.013-1.114v1.111h1.077v-4.785h-1.077l-.96 3.007c0-.192.015-.415.044-.666l.028-.253c.056-.496.088-.786.088-.888v-1.2h-1.076v4.785h1.105l.975-2.918c-.034.287-.066.574-.097.86v.003c-.034.318-.069.633-.107.944zm-.392-3.97c-.306 0-.553-.06-.713-.193-.19-.148-.291-.37-.277-.667h.437c0 .133.073.222.203.281.102.045.219.06.379.06s.276-.015.349-.06c.087-.044.16-.148.203-.281h.422c0 .281-.102.504-.305.652-.19.133-.422.207-.698.207zm5.805 4.118h.727v-3.823h1.135v3.823h.247v1.941h-1.106v-.993h-2.138v-4.785h1.135v3.837zm2.967-3.82v4.771h2.633v-.904h-1.499v-1.14h1.382v-.904h-1.382v-.919h1.499v-.904h-2.633zm4.683 2.756v2.03h-1.135V62.91h1.135v1.793h.742V62.91h1.135v4.786h-1.135v-2.03h-.742zm2.723-1.793h.887v3.823h1.048v-3.823h.829v-.963h-2.764v.963zm3.605 3.808v-4.77h1.644c.407 0 .713.088.931.266.291.237.437.637.437 1.185 0 .534-.146.934-.437 1.17-.233.193-.538.282-.931.282h-.509v1.867h-1.135zm1.12-2.711h.204c.16 0 .276-.045.378-.134.102-.103.16-.266.16-.489 0-.222-.043-.37-.145-.459a.59.59 0 00-.407-.133h-.19v1.215z" fill="#fff"/></svg>