<svg width="24" height="24" viewBox="0 0 24 24" fill="none" xmlns="http://www.w3.org/2000/svg"><path d="M19.592 12.087H5v3.84h.995c.18.986.97 1.969 2.727 2.102.234.017.447.026.641.026 1.4 0 1.828-.44 2.148-1.018.2-.362.437-.54.785-.54.348 0 .584.178.785.54.32.579.749 1.018 2.148 1.018.194 0 .407-.01.64-.026 1.759-.133 2.548-1.116 2.728-2.102h.995v-3.84zm-2.215 4.442c-.337.37-.867.585-1.572.639a7.66 7.66 0 01-.576.023c-1.076 0-1.222-.265-1.392-.572-.362-.653-.88-.985-1.541-.985-.66 0-1.178.332-1.54.985-.17.307-.317.572-1.393.572-.174 0-.368-.008-.576-.023-.706-.054-1.235-.268-1.572-.639a1.57 1.57 0 01-.398-1.056V12.95h10.957v2.522c0 .232-.051.678-.397 1.056zm1.431-5.786C18.577 7.534 15.75 5 12.296 5c-3.454 0-6.281 2.535-6.512 5.743h13.024z" fill="#222A2F"/></svg>