<svg width="60" height="60" viewBox="0 0 60 60" fill="none" xmlns="http://www.w3.org/2000/svg"><path d="M48.98 30.217H12.5v9.6h2.488c.45 2.467 2.422 4.922 6.818 5.254.584.045 1.117.065 1.602.065 3.498 0 4.57-1.097 5.37-2.543.502-.906 1.092-1.35 1.962-1.35.87 0 1.46.444 1.962 1.35.8 1.446 1.872 2.543 5.37 2.543.486 0 1.018-.021 1.602-.065 4.396-.332 6.368-2.788 6.818-5.254h2.488v-9.6zm-5.537 11.107c-.843.924-2.167 1.461-3.931 1.595-.52.04-1.003.058-1.44.058-2.69 0-3.055-.662-3.48-1.429-.905-1.634-2.2-2.463-3.852-2.463-1.651 0-2.946.829-3.852 2.463-.425.767-.79 1.43-3.48 1.43-.436 0-.92-.021-1.44-.06-1.765-.133-3.088-.669-3.931-1.594-.864-.947-.994-2.062-.994-2.643v-6.303h27.393v6.303c0 .581-.129 1.697-.993 2.643zm3.577-14.467C46.442 18.836 39.375 12.5 30.74 12.5c-8.635 0-15.703 6.337-16.28 14.357h32.56z" fill="#222A2F"/></svg>