<svg width="141" height="90" viewBox="0 0 141 90" fill="none" xmlns="http://www.w3.org/2000/svg"><path fill="#fff" d="M0 0h141v90H0z"/><path fill-rule="evenodd" clip-rule="evenodd" d="M43.61 9.636c.688 1.087 2.807 4.439 3.705 8.453 1.018 4.505.99 7.26.553 10.417-.8 5.66-3.317 10.016-4.422 11.468-.757-.978-1.906-3.008-2.677-4.875 0 0-1.455-3.586-1.833-7.082-.378-3.482-.218-7.023.902-11.024 1.033-3.57 3.04-6.8 3.593-7.645.037.062.098.16.18.288zM42.093 33.29c.072 2.8.843 4.608 1.338 5.556.524-.963 1.397-3.081 1.31-5.793-.103-2.756-1.02-4.786-1.295-5.26-.306.474-1.368 2.8-1.353 5.497zm4.436-2.948c.262-1.097.451-2.904.495-4.623.044-1.704-.13-4.623-.945-7.645-.83-3.038-2.43-5.942-2.663-6.312-.232.37-1.498 2.711-2.618 6.386-.29 1.096-.83 3.496-.916 5.823-.102 2.815.276 5.63.421 6.415 0-.933.015-4.045.582-6.623.568-2.563 1.659-5.541 2.532-7.052.945 1.585 2.138 5.022 2.56 7.067.422 2.074.64 4.697.553 6.564zm11.347 10.682h-6.27v16.773h3.288V43.114h2.982v-2.089zm4.28 2.09l-.568 8.385h1.324l-.568-8.386h-.189zm-.975 14.682h-3.23l1.717-16.772h5.178l1.717 16.773h-3.215l-.306-4.46h-1.556l-.305 4.46zm10.093-5.867v3.156c0 .43.32.548.51.548.305 0 .523-.267.523-.548v-3.911c0-.52-.088-1.097-1.324-1.097h-1.338V48.24h1.396c.931 0 1.266-.222 1.266-1.245v-3.334c0-.281-.218-.548-.524-.548-.189 0-.509.104-.509.549v2.74h-3.288v-2.385c0-1.17.131-2.993 2.444-2.993h2.72c2.313 0 2.459 1.822 2.459 2.993V46.7c0 1.822-1.251 2.326-2.24 2.282v.163c2.21-.06 2.24 1.674 2.24 2.266v3.379c0 1.185-.145 2.993-2.459 2.993h-2.72c-2.313 0-2.444-1.808-2.444-2.993v-2.875h3.288v.015zm14.112-10.905h-7.622v16.773h3.302V43.114h1.033v14.684h3.287V41.025zm5.454 9.23v-7.14h.437c.349 0 .61.296.61.844v5.452c0 .534-.261.845-.61.845h-.437zm-3.287 7.542h3.287v-5.704h1.891c2.299 0 2.444-1.808 2.444-2.993v-5.082c0-1.17-.145-2.993-2.444-2.993h-5.178v16.773zm13.6-2.163c.306 0 .524-.267.524-.548V43.663c0-.282-.218-.549-.524-.549-.189 0-.509.104-.509.549v11.423c0 .43.32.548.509.548zm-1.367 2.163c-2.299 0-2.444-1.807-2.444-2.992V44.017c0-1.17.145-2.993 2.444-2.993h2.735c2.298 0 2.443 1.822 2.443 2.993v10.786c0 1.186-.145 2.993-2.443 2.993h-2.735zm15.901-16.772h4.291v16.773h-3.288v-10.52h-.116l-1.717 10.52h-2.633l-1.687-10.52h-.116v10.52h-3.288V41.025h4.277l2.153 11.794 2.124-11.794zm-70.539.002h-7.666v5.245l.014-.015a4.576 4.576 0 016.547 0c1.803 1.822 1.803 4.815 0 6.653l-.03.03c-.008 0-.012.005-.017.013-.003.005-.006.01-.012.016a9.193 9.193 0 01-6.517 2.726 9.052 9.052 0 01-6.531-2.756c-3.186-3.23-3.564-8.253-1.135-11.912a9.21 9.21 0 011.135-1.408 9.136 9.136 0 016.531-2.756V24.27c-9.077.015-16.438 7.497-16.438 16.758 0 9.26 7.361 16.757 16.453 16.757 4.742 0 9.005-2.044 12.016-5.304V41.027h-4.35zM21.031 60.61h98.949v9.112H21.031V60.61zm5.368 3.262v-.963h-2.473v4.785h1.149v-3.822h1.324zm.77.279c0-.4.117-.711.365-.949.261-.266.654-.4 1.178-.4.51 0 .887.134 1.164.4.232.238.363.563.363.964v2.148c0 .489-.116.86-.363 1.111-.248.252-.626.37-1.15.37-.509 0-.901-.133-1.149-.385-.247-.252-.378-.622-.378-1.11v-2.15h-.03zm1.514-.49a.38.38 0 00-.277.105.418.418 0 00-.116.296v2.43c0 .133.044.237.116.31a.38.38 0 00.277.105.38.38 0 00.276-.104.441.441 0 00.117-.326v-2.43a.393.393 0 00-.117-.296.414.414 0 00-.276-.09zm2.532-.752v4.77h1.134v-1.866h.51c.392 0 .698-.09.93-.282.292-.237.437-.637.437-1.17 0-.548-.145-.948-.436-1.186-.218-.177-.524-.266-.931-.266h-1.644zm1.338 2.06h-.203v-1.216h.189a.59.59 0 01.407.134c.102.089.145.237.145.459 0 .222-.058.385-.16.489a.537.537 0 01-.378.133zm3.722.696v2.03h-1.134V62.91h1.134v1.793h.742V62.91h1.135v4.785h-1.135v-2.03h-.742zm3.231-2.462c-.247.237-.363.548-.363.948h.029V66.3c0 .49.13.86.378 1.111.247.252.64.386 1.15.386.523 0 .901-.119 1.148-.37.248-.253.364-.623.364-1.112v-2.148c0-.4-.13-.726-.364-.964-.276-.266-.654-.4-1.163-.4-.524 0-.917.134-1.179.4zm.888.563a.38.38 0 01.276-.104c.102 0 .19.03.276.089a.393.393 0 01.117.296v2.43a.441.441 0 01-.117.326.38.38 0 01-.276.104.38.38 0 01-.276-.104.429.429 0 01-.117-.311v-2.43a.42.42 0 01.117-.297zm2.602 2.683v-.741h2.822v.74h-2.822zm4.409-2.577v3.822h1.047v-3.822h.83v-.963h-2.764v.963h.887zm5.847-.963l-.004.015h-1.175l-.45 2.192-.102.89-.073-.993-.422-2.09h-1.178l1.062 3.764c-.015.074-.059.118-.102.133a.515.515 0 01-.16.03h-.146a.409.409 0 01-.13-.03v.815c.043.045.13.074.232.104.102.015.218.03.335.03.392 0 .683-.09.858-.237.175-.163.32-.475.45-.934l1-3.675h.005v-.014zm.785 0v4.77h1.135v-1.866h.51c.392 0 .697-.09.93-.282.291-.237.436-.637.436-1.17 0-.548-.145-.949-.436-1.186-.218-.177-.524-.266-.93-.266h-1.645zm1.339 2.06h-.204v-1.216h.189a.59.59 0 01.407.134c.102.089.146.237.146.459 0 .222-.058.385-.16.489a.538.538 0 01-.378.133zm4.465 2.725v-1.11c.059-.593.131-1.2.204-1.808l-.975 2.918h-1.105V62.91h1.09v1.2c0 .133-.043.518-.116 1.14l-.019.178v.001c-.021.199-.039.362-.039.488l.96-3.007h1.077v4.785H59.84zm5.063-1.899h-1.12v.652c0 .178-.044.312-.116.386a.413.413 0 01-.306.118c-.13 0-.233-.044-.29-.118-.073-.075-.103-.208-.103-.386v-2.4c0-.119.044-.207.117-.267a.402.402 0 01.262-.089.49.49 0 01.276.104c.087.06.131.148.131.267v.533h1.135v-.43c0-.4-.117-.725-.364-.962-.276-.267-.655-.4-1.164-.4-.523 0-.916.118-1.178.385-.247.237-.364.563-.364.963v2.074c0 .548.131.933.379 1.185.247.252.64.37 1.163.37.524 0 .917-.118 1.164-.37.247-.237.378-.637.378-1.17v-.445zm1.66 1.9v-3.823h-.888v-.963h2.764v.963h-.83v3.822h-1.047zm4.58-1.112v1.111h1.077V62.91h-1.077l-.96 3.008c0-.128.018-.29.04-.49l.018-.177c.073-.623.117-1.008.117-1.141v-1.2h-1.091v4.785h1.105l.975-2.918c-.035.287-.066.575-.097.862a66.45 66.45 0 01-.107.945zm2.052-3.674h1.12v1.615c0 .222.102.326.32.326.16 0 .306-.03.422-.09v-1.85h1.135v4.785h-1.135V65.68c-.16.06-.29.09-.422.104-.13.015-.29.03-.494.03a.91.91 0 01-.611-.237c-.233-.193-.335-.46-.335-.786V62.91zm4.16 0v4.77h2.633v-.903H78.49v-1.141h1.382v-.904H78.49v-.919h1.499v-.903h-2.633zm5.37 2.886h1.12v.445c0 .533-.131.933-.379 1.17-.247.237-.64.37-1.163.37-.524 0-.917-.118-1.164-.37-.247-.252-.378-.637-.378-1.185v-2.074c0-.4.116-.726.363-.963.262-.267.655-.386 1.179-.386.509 0 .887.134 1.163.4.248.238.364.563.364.964v.43h-1.135v-.534a.301.301 0 00-.13-.267.49.49 0 00-.277-.104.399.399 0 00-.262.09.328.328 0 00-.116.266v2.4c0 .178.029.312.102.386.058.074.16.118.29.118a.411.411 0 00.306-.118c.073-.075.117-.208.117-.386v-.652zm2.11-2.886v4.77h1.076v-1.11l.306-.549.524 1.66h1.192l-1.047-2.667 1.047-2.104h-1.236l-.786 1.896V62.91h-1.076zm5.789 4.785v-1.11c.038-.312.072-.627.106-.944v-.003c.032-.287.063-.574.097-.861l-.974 2.918h-1.106V62.91h1.091v1.2c0 .133-.044.518-.116 1.14l-.01.085a39.54 39.54 0 00-.008.083v.007l-.001.004c-.022.199-.04.361-.04.489l.96-3.008h1.077v4.785h-1.076zm4.013-1.113v1.111h1.077v-4.785h-1.077l-.96 3.007c0-.192.015-.414.044-.666l.028-.253c.056-.496.088-.786.088-.888v-1.2h-1.076v4.785h1.105l.975-2.918c-.034.287-.066.574-.097.86v.003c-.034.318-.069.633-.107.944zm-.392-3.97c-.306 0-.553-.06-.713-.193-.19-.148-.291-.37-.277-.667h.437c0 .133.073.222.203.281.102.045.219.06.379.06s.276-.015.349-.06c.087-.044.16-.148.203-.281h.422c0 .281-.102.504-.305.652-.19.133-.422.207-.698.207zm5.805 4.118h.727v-3.822h1.135v3.822h.247v1.941h-1.106v-.992h-2.138v-4.786h1.135v3.837zm2.966-3.82v4.77h2.633v-.903h-1.498v-1.141h1.382v-.904h-1.382v-.919h1.498v-.903h-2.633zm4.684 2.756v2.03h-1.135V62.91h1.135v1.793h.742V62.91h1.135v4.785h-1.135v-2.03h-.742zm3.61-1.793v3.822h1.048v-3.822h.829v-.963h-2.764v.963h.887zm2.718 3.808v-4.77h1.644c.407 0 .713.089.931.266.291.237.437.637.437 1.186 0 .533-.146.933-.437 1.17-.233.193-.538.282-.931.282h-.509v1.867h-1.135zm1.12-2.712h.204c.16 0 .276-.044.378-.133.102-.104.16-.267.16-.49 0-.221-.043-.37-.145-.458a.59.59 0 00-.407-.134h-.19v1.215z" fill="#0F6EB4"/></svg>