<svg width="1491" height="335" viewBox="0 0 1491 335" fill="none" xmlns="http://www.w3.org/2000/svg"><g clip-path="url(#clip0_556_2622)"><path fill-rule="evenodd" clip-rule="evenodd" d="M522.763 1.1c-3.751 2.089-6.303 5.574-15.954 21.792-11.004 18.49-17.828 27.039-24.171 30.274-4.287 2.188-5.086 2.338-7.738 1.463-1.782-.588-5.425-3.5-9.169-7.327-3.416-3.492-7.479-7.139-9.029-8.102-2.578-1.602-2.931-1.636-4.165-.403-1.233 1.233-1.233 1.799-.001 6.661 5.196 20.5 5.857 21.995 10.847 24.538 4.784 2.438 14.053 1.377 24.035-2.752 7.44-3.078 14.059-5.235 14.552-4.742.819.819-2.612 6.876-8.569 15.129-10.195 14.124-20.772 29.411-22.024 31.832-2.674 5.169-1.634 11.591 3.743 23.111 1.475 3.159 3.085 7.723 3.579 10.141.855 4.192.731 4.81-2.668 13.27-3.01 7.491-5.333 14.377-12.684 37.606-.441 1.395-1.421 4.817-2.178 7.606-.757 2.789-2.097 7.733-2.977 10.986-1.865 6.882-2.052 14.486-.638 25.909 1.227 9.903.377 13.698-3.906 17.457-3.12 2.74-11.092 5.482-14.714 5.063-2.117-.245-1.976-.457 2.538-3.817 4.704-3.502 8.325-7.624 8.325-9.479 0-.52-2.815-3.953-6.254-7.63-12.245-13.087-12.118-19.898.964-51.652 8.712-21.146 9.686-28.609 4.321-33.105-2.499-2.096-3.414-2.324-9.306-2.324-3.594 0-6.743-.337-6.998-.751-.255-.412 1.437-3.659 3.759-7.216 11.881-18.193 14.398-29.803 9.722-44.85-2.965-9.544-2.786-14.06.917-23.041 2.783-6.752 3.049-8.114 3.1-15.934.058-8.775-1.238-15.61-3.283-17.305-.901-.748-1.667-.41-3.487 1.545-2.008 2.155-10.547 16.565-12.188 20.568-.306.746-2.018 2.743-3.805 4.438-1.786 1.694-11.808 11.582-22.27 21.973-19.226 19.095-27.73 25.924-32.281 25.924-1.257 0-3.605-.779-5.22-1.731-2.666-1.573-3.196-1.623-5.766-.55-3.965 1.657-9.911 8.466-19.516 22.35-9.592 13.865-15.244 20.336-19.784 22.647-5.026 2.559-12.591 7.666-21.842 14.744-14.082 10.775-15.682 11.688-22.429 12.802-10.598 1.75-15.81 6.244-28.28 24.388-14.413 20.968-26.049 31.556-44.401 40.397-12.386 5.968-24.433 9.163-49.88 13.226-29.688 4.74-33.554 5.766-46.708 12.396-8.122 4.093-21.88 13.809-34.03 24.029-12.624 10.621-31.43 20.144-49.457 25.042-15.757 4.281-9.705 4.126-181.554 4.642-88.463.264-160.841.807-160.841 1.205 0 .397.856.934 1.902 1.192 1.047.259 74.186.34 162.532.18l160.63-.29 9.723-2.208c11.23-2.549 21.974-6.193 31.959-10.841 7.745-3.605 21.85-12.551 26.922-17.074 6.02-5.369 21.446-16.627 28.445-20.756 11.099-6.552 21.691-10.104 38.007-12.749a5012.59 5012.59 0 0111.413-1.835c24.815-3.955 39.203-7.71 51.493-13.439 18.342-8.552 30.593-19.627 45.606-41.23 12.251-17.628 17.512-22.278 26.455-23.385 5.613-.695 9.674-2.717 17.749-8.838 16.06-12.172 19.488-14.596 24.69-17.45 8.145-4.47 13.511-10.071 22.774-23.771 6.142-9.085 13.508-18.602 15.966-20.628 3.514-2.895 5.486-3.066 8.947-.775 3.19 2.112 3.773 2.102 8.675-.151 6.511-2.991 13.618-9.159 29.986-26.019 8.495-8.752 16.84-16.73 18.544-17.729 3.075-1.803 7.282-7.6 12.297-16.947 1.371-2.556 3.576-6.359 4.898-8.45l2.405-3.803 1.201 2.937c2.004 4.9 1.669 17.23-.631 23.26-1.064 2.79-2.222 5.451-2.573 5.916-.351.465-1.09 2.937-1.642 5.493-1.044 4.834-.815 6.38 2.866 19.437 3.403 12.071.626 22.732-10.446 40.107-6.659 10.448-6.139 11.426 6.227 11.713 5.762.134 6.741.392 8.162 2.148.887 1.097 1.615 3.169 1.615 4.604 0 3.614-3.633 15.168-7.986 25.393-8.789 20.651-11.263 30.9-9.396 38.924 1.293 5.564 5.907 12.914 10.122 16.128 3.994 3.046 4.536 5.097 2.055 7.776-2.214 2.392-12.694 10.432-18.351 14.079-4.759 3.07-3.682 4.852 1.646 2.722 1.958-.784 7.214-2.31 11.679-3.393 13.528-3.278 16.675-5.03 19.714-10.984 1.802-3.529 1.794-2.058.139-26.258-.365-5.345-.08-8.176 1.361-13.521 1.004-3.718 2.324-8.675 2.935-11.013 3.059-11.716 10.912-35.421 15.668-47.298 3.465-8.654 3.126-12.438-2.175-24.227-4.407-9.802-5.355-14.974-3.54-19.307.679-1.62 3.513-6.178 6.299-10.128 2.787-3.951 8.968-12.698 13.737-19.437 9.757-13.788 12.108-17.906 11.729-20.55-.409-2.858-2.553-2.657-12.312 1.159-12.604 4.926-16.538 5.987-22.531 6.078-6.339.096-9.148-1.487-10.508-5.924-2.221-7.244-5.213-18.373-5.213-19.39 0-2.072 1.448-1.072 7.689 5.31 7.31 7.474 9.755 8.95 14.825 8.95 9.33 0 17.375-8.681 33.762-36.43C517.893 9.396 523.654 2.18 526.031 2.18c2.164 0 3.697 2.637 6.145 10.563 3.196 10.353 6.112 15.566 13.954 24.962 14.361 17.201 14.964 20.058 7.498 35.462-5.681 11.719-5.961 12.475-8.688 23.5-2.729 11.03-3.906 13.296-7.526 14.49-4.289 1.415-5.292 3.135-6.43 11.025-2.503 17.35-7.26 24.01-25.812 36.141-12.818 8.379-17.629 12.687-20.047 17.944-2.406 5.231-2.847 6.86-6.293 23.24-1.662 7.901-3.346 15.887-3.742 17.747-.396 1.859-2.064 8.694-3.707 15.189-3.436 13.583-3.801 18.191-1.444 18.191 1.953 0 4.021-2.283 8.799-9.718 25.248-39.286 27.853-42.528 36.006-44.815 2.809-.787 5.855-2.245 6.77-3.239 1.898-2.06 4.106-8.147 4.871-13.426 1.528-10.552 4.831-16.836 9.604-18.274 6.299-1.898 11.095-7.363 18.01-20.523 2.114-4.024 5.499-9.662 7.521-12.526l3.676-5.21-.028-9.868c-.016-5.427-.206-13.86-.423-18.741-.393-8.852-.387-8.887 2.565-14.366 2.556-4.747 2.999-6.431 3.254-12.394.185-4.326-.21-9.12-1.057-12.844-1.637-7.198-1.631-6.875-.127-6.875 2.034 0 5.348 5.19 7.935 12.422 4.575 12.797 9.885 18.132 22.811 22.92 9.592 3.554 11.146 4.646 11.146 7.831 0 1.455.534 2.719 1.268 3 2.218.851 1.427 2.463-5.596 11.415-15.658 19.959-18.56 26.314-15.58 34.114 1.298 3.4 1.327 4.331.275 9.072-1.905 8.595-.283 11.521 2.173 3.919 1.735-5.37 1.778-10.032.129-13.977-.698-1.669-1.268-3.738-1.268-4.598 0-2.981 4.531-11.107 10.722-19.227 11.499-15.08 14.255-19.519 13.111-21.11-.56-.778-1.24-1.985-1.512-2.682-1.542-3.958-2.713-5.198-7.122-7.548-2.678-1.426-5.469-2.593-6.204-2.593-2.886 0-11.071-4.556-14.476-8.059-3.347-3.441-4.662-6.025-8.592-16.871-2.792-7.704-11.954-14.58-13.18-9.892-.219.834.172 3.59.869 6.127.708 2.58 1.287 8.332 1.314 13.06.048 8.093-.083 8.72-3.08 14.766-3.518 7.094-3.566 7.623-2.162 23.686 1.258 14.398.716 18.151-3.42 23.653-1.76 2.341-5.067 7.88-7.349 12.312-6.189 12.016-9.054 15.407-15.99 18.924-5.286 2.681-6.146 3.476-8.105 7.494-1.207 2.473-2.85 7.91-3.653 12.082-2.484 12.906-2.943 13.548-11.486 16.054-5.574 1.636-12.064 8.569-21.373 22.838-4.374 6.704-8.107 12.558-8.297 13.009-.188.45-2.623 4.242-5.409 8.425-6.557 9.843-6.765 8.493-1.799-11.604 2.098-8.492 4.62-19.622 5.602-24.735 2.74-14.248 5.539-23.694 8.191-27.641 1.739-2.59 6.27-6.21 16.339-13.054 15.096-10.262 19.753-14.748 23.663-22.796 2.411-4.963 5.063-15.876 5.064-20.836 0-1.98.596-2.609 3.75-3.96 5.215-2.236 7.046-5.552 9.809-17.77 1.524-6.735 3.798-12.92 7.926-21.55 5.084-10.629 5.568-11.952 5.568-15.228 0-4.808-3.57-11.326-11.565-21.111-9.36-11.457-11.333-14.805-14.582-24.741C531.763 2.7 530.705.876 527.567.11c-1.297-.317-3.141.063-4.804.99zm285.198 67.046c-3.014 2.37-7.011 11.194-12.705 28.055-8.555 25.33-15.713 39.945-23.886 48.769-6.162 6.654-10.051 8.668-21.083 10.92-9.608 1.963-16.534 4.851-23.368 9.746-4.691 3.359-12.676 6.512-22.651 8.945-21.579 5.262-30.706 8.958-43.767 17.72-12.759 8.56-21.154 15.968-48.806 43.066-29.14 28.555-35.676 31.921-68.902 35.482-14.432 1.547-26.732 4.169-34.97 7.457-7.826 3.122-16.866 7.646-20.958 10.489-1.235.857-2.492 1.558-2.794 1.558-.303 0-2.718 1.45-5.365 3.221-6.845 4.578-11.856 7.385-23.38 13.096-15.171 7.519-48.911 20.464-51.733 19.848-.627-.137 1.272-1.866 4.219-3.843 2.947-1.977 9.89-7.404 15.429-12.061 31.228-26.254 44.304-35.823 58.005-42.443 10.828-5.232 15.991-6.891 30.794-9.892 26.221-5.316 33.654-9.3 56.421-30.245 13.733-12.634 22.845-19.39 32.226-23.894 6.416-3.08 9.755-3.96 22.201-5.855 2.901-.442 6.706-1.458 8.454-2.257 4.428-2.027 15.428-9.707 23.469-16.388 10.99-9.131 17.389-13.592 23.672-16.505 5.858-2.716 20.073-7.605 25.785-8.869 1.628-.36 10.187-2.181 19.022-4.046 21.936-4.632 24.095-5.595 24.095-10.748 0-2.261-.913-3.581-5.311-7.686-2.922-2.726-9.91-8.102-15.528-11.947-14.138-9.674-17.565-13.404-25.992-28.286-1.252-2.213-3.435-4.612-4.868-5.353-2.476-1.28-2.796-1.24-6.809.84-2.315 1.2-4.67 2.183-5.231 2.183-.562 0-3.459-1.582-6.436-3.516-6.503-4.224-12.743-6.624-17.217-6.624-6.159 0-9.637-1.64-12.797-6.036-4.329-6.025-9.304-6.535-14.063-1.442-2.706 2.895-4.271 7.494-6.705 19.711-1.614 8.1-3.618 13.232-7.86 20.14-1.943 3.162-2.997 7-4.69 17.064-.468 2.789-1.303 7.732-1.855 10.986-.553 3.254-2.275 8.635-3.829 11.959-2.321 4.97-3.989 7.068-9.384 11.807-3.608 3.171-8.579 7.624-11.047 9.895-4.592 4.229-6.51 4.748-4.13 1.118 2.986-4.556 7.325-13.429 6.902-14.113-.877-1.419-2.954.259-4.606 3.721-3.83 8.024-10.748 17.875-16.398 23.348-3.972 3.849-4.911 5.928-2.677 5.928 1.086 0 6.684-4.182 13.137-9.814 2.421-2.113 9.182-7.894 19.207-16.425 11.462-9.755 13.201-13.32 16.681-34.185 2.593-15.548 3.333-18.078 6.726-23.008 1.57-2.283 3.443-6.216 4.16-8.74 2.287-8.047 3.106-11.506 3.106-13.115 0-3.126 3.628-12.96 5.385-14.6 3.137-2.926 5.887-3.077 8.21-.452 6.01 6.788 7.415 7.768 11.951 8.329 10.202 1.262 13.336 2.286 19.686 6.43 7.026 4.585 9.626 5.061 13.525 2.48 3.135-2.076 5.673-2.149 7.389-.212.721.813 3.321 4.902 5.778 9.085 5.651 9.62 11.348 15.251 23.702 23.427 11.197 7.41 19.351 14.674 19.351 17.237 0 2.815-4.501 4.494-20.29 7.567-9.747 1.898-18.356 3.938-30.012 7.109-12.949 3.524-24.356 9.507-35.508 18.622-23.609 19.295-31.138 23.493-42.343 23.61-4.003.041-12.407 2.643-18.509 5.731-9.513 4.814-16.488 10.21-34.889 26.994-19.595 17.872-27.033 21.507-55.833 27.289-25.635 5.146-40.918 14.24-81.762 48.653-18.554 15.633-24.52 19.61-35.93 23.952-3.845 1.463-6.448 2.955-6.614 3.789-.561 2.821 6.802 1.258 29.44-6.247 28.011-9.288 49.168-18.926 67.634-30.813 22.085-14.217 35.736-19.28 59.179-21.947 17.467-1.987 22.322-2.795 32.126-5.346 11.155-2.903 22.8-12.088 53.262-42.01 23.598-23.18 33.148-30.83 48.266-38.659 8.367-4.334 14.718-6.547 27.399-9.549 15.894-3.762 22.36-6.376 31.28-12.643 2.79-1.96 6.024-3.834 7.186-4.165 5.434-1.546 8.477-2.28 14.077-3.395 19.804-3.944 30.447-18.677 45.513-63.009 7.067-20.797 9.742-26 12.86-25.011 2.772.879 6.794 10.213 9.617 22.315 2.015 8.638 4.459 12.244 9.955 14.688 7.008 3.117 8.143 3.868 9.283 6.138 1.584 3.153-.49 9.312-7.269 21.589-6.176 11.186-7.821 15.945-10.368 30-5.378 29.679-10.462 41.429-23.431 54.153-7.835 7.688-8.789 9.099-6.698 9.901 2.994 1.148 28.565-15.293 43.461-27.944 8.887-7.547 10.345-12.293 10.359-33.731.005-8.695.397-16.4.903-17.746.491-1.309 2.742-4.281 5.003-6.605 6.4-6.578 7.975-10.306 7.323-17.326-.486-5.231-.381-5.849 1.078-6.312.89-.283 3.783.247 6.43 1.177 9.467 3.326 16.899 10.904 23.275 23.729 4.763 9.583 7.842 13.734 11.861 15.991 1.838 1.033 3.12 2.235 2.849 2.672-.269.436-2.652 2.162-5.295 3.836-11.86 7.509-22.907 19.019-28.337 29.523-5.639 10.908-7.962 20.044-9.013 35.444-2.11 30.912-4.669 45.835-11.616 67.751-4.399 13.877-2.694 15.473 5.504 5.153 3.78-4.757 12.026-18.513 12.026-20.06 0-1.011 8.959-14.959 12.093-18.826 6.393-7.888 8.923-16.003 10.738-34.441 2.831-28.75 3.59-32.299 7.914-37.052 2.005-2.203 5.737-4.357 7.551-4.357 1.419 0 3.496 4.511 5.231 11.359 2.705 10.682 10.791 23.29 14.935 23.29 3.646 0 3.63-3.876-.114-28.311-3.005-19.605-2.391-31.974 1.238-24.96 1.532 2.96 6.9 5.897 10.837 5.928 5.691.044 8.941 3.381 15.363 15.775 4.521 8.723 8.194 13.494 14.969 19.441 6.162 5.408 10.049 9.99 18.758 22.11 14.107 19.632 16.557 20.127 34.197 6.918 10.82-8.104 14.02-10.141 15.95-10.141 2.43 0 5.26 3.87 8.34 11.409 3.45 8.448 8.2 15.192 12.44 17.66 2.35 1.367 6.05 2.416 10.77 3.051 11.08 1.494 11.57 1.805 22.63 14.516 22.76 26.163 53.85 44.846 87.7 52.699 18.52 4.297 9.89 4.066 164.01 4.387 79.05.164 144.63.071 145.75-.208 1.21-.304 1.71-.815 1.25-1.273-.45-.45-60.3-.897-144.9-1.081-155.91-.34-147.41-.097-166.79-4.78-34.82-8.412-65.88-27.895-88.67-55.615-6.38-7.766-12.37-11.147-19.77-11.174-8.97-.033-15.44-4.939-19.97-15.135a2631.76 2631.76 0 00-3.75-8.363c-.7-1.529-2.43-4.096-3.84-5.705-3.78-4.299-6.55-4.004-14.18 1.514-20.63 14.92-22.27 15.805-26.27 14.151-2.977-1.233-6.644-5.51-15.211-17.743-3.779-5.396-10.214-12.848-16.421-19.014-9.298-9.24-10.649-10.989-15.214-19.684-5.072-9.662-9.569-14.961-13.358-15.739a143.229 143.229 0 00-5.008-.889c-3.951-.633-7.198-3.202-8.756-6.93-1.489-3.565-3.656-3.524-5.394.099-2.544 5.305-2.15 13.793 1.69 36.528 1.722 10.187 2.057 17.178.826 17.178-1.196 0-5.032-4.897-7.212-9.205-1.083-2.141-3.154-7.856-4.602-12.699-1.447-4.842-3.261-9.501-4.031-10.352-2.693-2.974-7.817-1.493-12.669 3.663-4.969 5.279-6.352 10.142-7.891 27.748-2.479 28.361-4.363 35.413-12.068 45.152-4.662 5.894-8.033 11.338-12.856 20.765-5.914 11.558-13.738 22.731-12.077 17.245.268-.886 1.315-4.273 2.325-7.527 5.024-16.179 10.135-47.733 10.135-62.575 0-5.838.32-8.221 2.661-19.82 1.241-6.147 7.657-19.523 12.198-25.431 4.494-5.843 11.669-12.461 18.455-17.019 12.449-8.361 13.27-9.756 7.167-12.197-4.425-1.769-7.462-5.466-12.536-15.253-2.358-4.549-5.616-10.07-7.238-12.271-5.756-7.806-17.335-15.014-24.121-15.014-3.278 0-6.238 2.891-5.488 5.36 2.378 7.812.919 12.842-5.621 19.379-6.531 6.528-6.818 7.662-7.001 27.656-.185 20.314-.722 22.24-8.153 29.209-7.171 6.726-31.52 24.032-33.812 24.032-.547 0 .69-1.806 2.75-4.015 4.668-5.005 8.221-10.256 11.006-16.267 4.393-9.481 6.466-16.895 9.982-35.705 2.787-14.904 3.582-17.214 10.551-30.607 3.877-7.452 7.307-15.141 7.622-17.086.825-5.094-1.261-9.083-5.76-11.017-10.859-4.666-11.918-6.002-14.924-18.827-2.15-9.172-6.087-17.93-9.14-20.33-2.597-2.042-2.818-2.038-5.535.098z" fill="#fff"/><circle cx="264" cy="85" r="49" stroke="#fff" stroke-width="2"/></g><defs><clipPath id="clip0_556_2622"><path fill="#fff" d="M0 0h1491v335H0z"/></clipPath></defs></svg>