<svg width="931" height="535" viewBox="0 0 931 535" fill="none" xmlns="http://www.w3.org/2000/svg"><path fill-rule="evenodd" clip-rule="evenodd" d="M531.81.707c1.186.84 2.002.895 4.995.34 6.247-1.153 10.485 1.14 9.483 5.133-.439 1.748-3.43 3.673-5.707 3.673-2.801 0-7.583 1.941-9.66 3.922-1.633 1.557-2.076 2.577-2.425 5.577-.248 2.14-.161 4.144.208 4.805.542.967.866.627 2.224-2.323 2.326-5.059 3.562-6.332 6.532-6.73 2.056-.276 2.838-.083 3.878.957 1.539 1.538 1.523 1.612-2.663 12.249-1.602 4.073-2.913 7.63-2.913 7.903 0 .874-2.616 5.482-3.915 6.897l-1.256 1.366 1.48.78c3.483 1.836 3.358 4.448-.298 6.218-3.883 1.88-8.661 1.78-11.638-.243-2.792-1.896-3.258-1.645-1.509.811 2.114 2.969 4.282 4.084 7.101 3.653l4.921-.752c2.151-.328 2.52-.2 2.904 1.01.242.762.251 2.707.021 4.323-.452 3.17-4.275 18.821-5.732 23.46-.49 1.563-1.799 5.825-2.908 9.472-3.473 11.417-5.257 14.051-15.564 22.984-2.962 2.568-4.812 3.644-7.262 4.226-2.058.488-11.086.918-24.127 1.151-16.455.293-21.123.559-22.187 1.267-2.535 1.684-2.95 4.515-3.157 21.521-.184 15.109-.415 17.828-2.069 24.378-.946 3.751-3.691 8.94-6.625 12.527-1.784 2.181-2.178 2.97-1.307 2.62 11.605-4.668 25.708-6.917 42.923-6.845 14.483.061 19.483.846 25.26 3.966 7.445 4.022 10.79 7.082 15.161 13.873 1.677 2.604 3.225 4.878 3.438 5.051.214.174 1.044 1.169 1.845 2.21 3.043 3.959 9.627 11.079 20.741 22.431 15.742 16.08 18.447 19.859 18.477 25.817.014 2.764.022 2.774 1.308 1.611 1.071-.969 1.606-1.055 3.088-.495 1.471.555 2.142.455 3.738-.555 1.389-.88 3.891-1.406 8.753-1.839 3.744-.334 8.272-1.023 10.062-1.529 4.312-1.221 5.631-1.165 8.802.369 4.787 2.318 5.846 7.543 2.757 13.601-1.427 2.8-1.425 2.79-.65 2.79.564 0 8.24-4.347 8.886-5.032.346-.368 2.856-1.708 16.103-8.597 15.187-7.898 24.804-11.666 36.717-14.388 5.012-1.145 13.784-1.367 16.297-.412 1.799.684 5.26 3.932 6.969 6.539.606.925 1.304 1.683 1.551 1.683.247 0 3.979-3.571 8.294-7.935 14.711-14.88 22.815-22.552 29.639-28.059 1.507-1.216 3.187-2.66 3.734-3.209.548-.549 3.411-2.806 6.363-5.015 2.953-2.21 5.51-4.186 5.684-4.391 1.099-1.298 19.514-13.733 22.102-14.926.521-.24 1.374-.79 1.895-1.222 3.286-2.725 28.091-15.981 40.731-21.769 2.431-1.112 5.868-2.702 7.638-3.531 3.806-1.782 5.899-2.033 4.676-.56-.433.521-1.019.947-1.302.947-2.578 0-41.96 20.288-50.272 25.897-1.538 1.038-2.958 1.888-3.154 1.888-.654 0-13.679 8.964-22.314 15.356-13.777 10.199-22.869 18.32-41.489 37.055l-11.608 11.681.399 3.194c.746 5.977-1.698 11.201-8.169 17.459-1.777 1.717-4.935 4.224-7.019 5.569-2.084 1.346-4.073 2.689-4.42 2.985-1.191 1.014-20.836 10.661-26.523 13.024-8.068 3.353-7.95 3.305-10.735 4.354-1.39.523-3.663 1.391-5.052 1.927-1.389.537-4.942 1.83-7.894 2.874-12.894 4.56-18.239 6.59-21.786 8.273-5.479 2.598-10.243 4.707-14.209 6.289-1.91.763-4.278 1.795-5.261 2.294-.983.499-2.276.907-2.873.907-.597 0-1.356.247-1.686.547-.613.558-10.617 3.874-11.69 3.874-1.052 0-.628-1.922.513-2.326.607-.216 1.531-.727 2.052-1.137 1.509-1.187 9.928-4.624 17.998-7.347 2.084-.703 4.357-1.535 5.052-1.848.694-.313 4.154-1.549 7.687-2.746 11.494-3.894 36.935-17.805 54.831-29.981 6.343-4.316 21.89-15.762 22.733-16.737.348-.401 1.906-1.72 3.462-2.93 1.557-1.21 3.276-2.627 3.819-3.148.544-.521 2.218-2.011 3.721-3.311 2.622-2.27 2.7-2.441 1.952-4.247-.429-1.035-2.021-3.026-3.537-4.424l-2.758-2.542h-6.654c-8.379 0-15.171 1.585-27.159 6.335-6.231 2.47-21.181 9.784-26.838 13.131a114.627 114.627 0 01-5.052 2.761c-1.563.8-3.126 1.685-3.474 1.968-.347.282-4.325 2.683-8.84 5.334-4.516 2.651-8.386 5.076-8.601 5.389-.216.313-.926.464-1.579.335-1.038-.206-.949-.43.707-1.789 7.55-6.196 10.892-11.608 10.228-16.56-.649-4.837-4.278-6.27-11.903-4.699-2.552.526-6.771 1.137-9.376 1.358-6.669.565-7.491.803-9.213 2.661-1.432 1.545-1.601 1.583-2.68.606-1.97-1.783-2.693-1.302-5.797 3.851-.68 1.129-1.524 2.053-1.877 2.053-.826 0-.821-.069.353-4.6.799-3.083.855-4.387.285-6.649-1.312-5.213-3.313-7.975-12.897-17.799-9.577-9.818-16.814-17.458-21.544-22.743-3.358-3.752-9.148-11.113-9.148-11.631 0-.924-5.056-7.169-7.212-8.909-3.963-3.197-9.841-6.513-13.547-7.642-2.891-.88-6.259-1.091-18.078-1.127-17.47-.054-23.576.688-36.942 4.489-7.79 2.215-17.557 7.353-20.996 11.044-1.57 1.685-3.001 1.943-3.001.541 0-.297 1.492-1.699 3.316-3.115 1.823-1.415 3.648-2.851 4.056-3.191.408-.339 1.616-1.149 2.684-1.798 4.624-2.812 9.421-8.26 11.785-13.383 3.038-6.587 3.49-9.778 4.024-28.416.284-9.898.781-18.85 1.104-19.892.323-1.041 1.468-2.489 2.544-3.216 1.848-1.249 3.094-1.347 22.534-1.772 23.505-.513 26.178-.923 30.377-4.662a297.558 297.558 0 015.838-5.022c5.114-4.272 7.743-9.448 11.472-22.585 3.197-11.261 4.908-17.75 5.828-22.101 2.023-9.565 1.844-10.243-2.313-8.794-1.389.485-3.037.886-3.662.89-1.396.012-4.629-1.618-6.304-3.177-1.788-1.667-5.545-9.64-4.865-10.328.332-.336 2.106.86 4.332 2.92 4.947 4.58 8.857 5.33 13.183 2.53 2.411-1.562 1.713-2.549-2.368-3.352-4.17-.82-4.79-1.523-1.902-2.157 2.715-.597 5.923-4.694 7.545-9.636.765-2.328 1.613-4.524 1.885-4.878.272-.354 1.024-2.207 1.67-4.117.648-1.91 1.543-4.034 1.989-4.719 1.242-1.906.973-3.444-.741-4.224-2.351-1.071-4.204.52-7.048 6.053-3.812 7.416-5.292 7.239-5.292-.633 0-4.574.221-5.693 1.539-7.78 1.749-2.772 5.22-4.696 10.459-5.799 4.647-.977 5.684-1.601 5.684-3.42 0-2.852-3.638-3.56-10.104-1.967-1.911.47-4.014 1.08-4.673 1.357-1.053.44-1.148.294-.778-1.182.253-1.008.162-1.682-.23-1.682-.86 0-3.14 1.292-4.85 2.75-.756.644-1.692.975-2.08.735-1.369-.846-6.089 3.091-7.896 6.586-1.764 3.41-1.779 6.35-.072 13.922 2.176 9.662 2.171 15.158-.012 15.158-.484 0-.88-.238-.88-.53 0-.69-3.104-2.103-3.747-1.706-.647.4-5.647 10.76-8.547 17.708-.809 1.938-1.147 2.722-3.537 8.209-2.799 6.424-6.411 13.823-7.898 16.178-.842 1.334-1.531 2.704-1.531 3.045 0 .888 4.561 1.993 7.387 1.788 2.785-.2 3.487.878 1.003 1.543-2.991.8-14.128 1.914-14.582 1.458-.241-.242.201-.959.982-1.592.781-.634 1.421-1.413 1.421-1.731 0-.318-3.339-1.691-7.42-3.052-9.645-3.214-16.383-3.581-25.417-1.385l-6 1.459-.358 3.458c-.413 3.998-.818 4.941-5.948 13.878-2.093 3.646-4.416 7.909-5.162 9.472a603.725 603.725 0 00-6.808 14.84c-3.967 9.031-5.048 11.05-5.912 11.05-.714 0-.829-.551-.519-2.488.362-2.265.029-3.097-3.736-9.314-5.669-9.362-5.568-9.2-6.385-10.098-.4-.439-1.347-1.801-2.104-3.026-.756-1.225-1.637-2.227-1.956-2.227-.319 0-.58-.275-.58-.613 0-.995-6.347-7.534-10.194-10.501-1.96-1.512-6.223-4.09-9.473-5.729-9.75-4.917-14.371-9.05-17.529-15.678-3.336-7.004-3.833-13.565-2.19-28.89.264-2.46.165-3.631-.306-3.631-.383 0-3.925 3.197-7.871 7.104-10.258 10.158-14.61 16.415-16.506 23.73-.848 3.276-.854 4.077-.041 6.813.507 1.704 1.652 4.09 2.546 5.301l1.625 2.202 5.814.03c4.069.02 6.385.331 7.71 1.037 1.042.554 3.316 1.704 5.052 2.555 1.737.85 5.874 2.999 9.193 4.775 3.32 1.775 8.293 4.126 11.052 5.224 5.932 2.363 6.066 2.434 5.696 3.035-.982 1.586-27.543-4.847-33.754-8.176-1.25-.67-2.632-1.218-3.071-1.218-.439 0-.798-.284-.798-.631 0-.347-.361-.632-.801-.632-.44 0-1.91-.754-3.266-1.675l-2.466-1.676-3.9 4.097c-2.145 2.253-4.867 4.807-6.048 5.676-2.387 1.755-7.179 3.682-9.159 3.682-1.824 0-9.735 2.196-11.645 3.233-.883.479-3.619 2.365-6.081 4.19-4.815 3.57-11.863 7.43-16.942 9.278-5.724 2.082-9.655 4.047-11.016 5.508-2.038 2.188-4.473 7.782-5.794 13.315-2.274 9.52-1.243 28.9 1.703 32.002.746.785 1.008.782 1.984-.025 2.189-1.81 5.944-3.089 10.139-3.453 4.621-.402 9.062.282 9.452 1.455.235.702-1.056 1.159-12.4 4.389-2.851.811-4.417 1.659-5.332 2.884-1.277 1.713-1.28 1.791-.162 6.099 1.191 4.597 1.436 12.533.711 23.108-.215 3.126-.162 6.017.118 6.424.321.47 1.248.585 2.533.316 1.513-.317 2.509-1.186 3.926-3.424 1.861-2.939 3.822-3.971 3.822-2.011 0 1.438-1.157 3.426-3.564 6.117-2.282 2.552-2.801 5.435-1.214 6.751 1.224 1.016 3.75-.638 4.782-3.132.42-1.013 1.166-2.177 1.659-2.586.762-.632.835-.225.488 2.724-.324 2.764-.215 3.542.539 3.831 1.108.425 4.658-3.03 4.986-4.854.46-2.557 1.635-1.639 1.938 1.515.169 1.758.506 3.395.748 3.638.791.79 4.725-4.052 7.137-8.786 2.229-4.373 2.36-4.96 2.376-10.643l.017-6.015-3.277-6.338c-3.392-6.558-5.223-11.125-5.238-13.064-.005-.619.696-1.389 1.569-1.721 1.827-.694 1.939-1.51.631-4.639-1.421-3.402-1.156-6.759.993-12.55 5.027-13.55.701-23.357-10.945-24.812-4.252-.531-4.743-1.667-1.183-2.734 5.753-1.724 13.611.256 18.105 4.561 2.865 2.745 3.187 3.697 2.861 8.443-.116 1.692.085 2.052 1.15 2.052 1.796 0 8.423-2.888 13.365-5.825 2.478-1.472 3.352-1.666 6.06-1.345 4.074.482 8.956-.581 14.115-3.075 4.228-2.044 7.734-4.236 8.104-5.068a.865.865 0 01.725-.474c.534 0 1.82-1.043 8.755-7.104 2.284-1.997 4.41-3.631 4.723-3.631 1.09 0-.283 6.018-2.292 10.047-4.582 9.19-14.228 15.684-24.12 16.239-1.737.097-3.326.19-3.533.206-.987.079-1.727 10.035-1.106 14.87.456 3.547.444 6.556-.04 10.103-1.261 9.23-2.583 23.782-2.583 28.429 0 5.692 1.666 14.776 2.977 16.234.929 1.031 1.081 1.031 2.818.005 1.01-.596 2.234-1.69 2.719-2.43 1.254-1.915 7.12-7.762 10.266-10.234 3.475-2.731 7.772-5 12.479-6.589 5.706-1.927 16.728-1.894 22.891.07 2.518.802 4.579 1.677 4.579 1.944 0 .267-2.631.671-5.846.896-18.444 1.296-32.319 7.879-40.127 19.036-2.683 3.834-5.814 14.302-5.803 19.406.018 9.016 5.207 16.716 14.518 21.548 6.338 3.288 15.695 5.427 23.838 5.448 7.026.018 20.366-2.487 20.366-3.825 0-.234-.47-1.669-1.043-3.188-1.262-3.341-1.548-17.328-.425-20.761.398-1.215.901-3.011 1.119-3.991.218-.98.732-1.669 1.144-1.532.507.169.793 2.572.885 7.465.275 14.386 2.147 22.328 6.413 27.198 1.757 2.006 10.546 14.886 16.365 23.984 3.804 5.948 7.951 10.335 11.302 11.957 3.276 1.587 3.75 1.307 4.346-2.564.917-5.97 3.398-11.706 6.827-15.787 2.092-2.49 10.329-8.206 11.827-8.208.539-.001 1.335-.356 1.769-.791.476-.476 2.487-.789 5.07-.789 3.497 0 4.966.345 8.02 1.886 2.057 1.037 4.429 2.458 5.273 3.157 4.442 3.682 6.36 5.611 6.36 6.397 0 1.211-.409 1.108-2.782-.702-5.864-4.472-17.834-2.78-24.627 3.481-3.534 3.257-5.306 6.615-5.826 11.039-.322 2.736-.211 3.523.535 3.809 1.732.665 24.126-3.51 30.578-5.7 8.197-2.783 9.007-5.327 3.929-12.337-.994-1.372-1.807-2.651-1.807-2.842 0-.191-.523-.909-1.162-1.595-.639-.686-1.563-2.024-2.053-2.973-.49-.949-1.229-2.085-1.642-2.523-.413-.438-.943-2.072-1.177-3.631-.233-1.558-1.231-4.051-2.216-5.538-1.913-2.888-8.408-9.32-15.116-14.97-2.257-1.901-5.241-4.65-6.63-6.109-1.393-1.463-3.888-3.183-5.562-3.836-4.141-1.616-9.062-6.145-19.341-17.8-13.132-14.891-17.498-18.286-25.446-19.788-2.643-.5-3.453-.883-3.004-1.423.434-.524 1.487-.576 3.618-.181a421.3 421.3 0 006.26 1.101c6.998 1.168 14.917 4.328 20.755 8.283 3.01 2.039 8.805 8.269 9.978 10.726.241.506 1.042 1.914 1.78 3.129.738 1.216 2.183 3.773 3.21 5.684 2.561 4.763 5.589 9.474 6.081 9.462.339-.007 4.116-1.222 9.033-2.906.576-.197 4.27-2.01 8.209-4.028l7.162-3.669.031-6.534c.017-3.65.413-7.788.898-9.375.876-2.868 2.291-5.052 3.274-5.052.71 0 .681 5.716-.047 9.035-1.923 8.765-2.059 10.005-1.302 11.832.416 1.003 1.303 1.998 1.972 2.21 1.898.603 3.497 2.648 6.627 8.476 3.387 6.306 5.662 9.493 6.774 9.493.438 0 1.361.498 2.052 1.105 1.446 1.272 2.07 1.639 8.44 4.968 5.522 2.886 10.469 7.513 12.745 11.924 1.116 2.162 3.182 4.435 6.552 7.211l4.922 4.055 2.264-1.213c1.836-.983 2.401-1.765 2.984-4.128.982-3.975 2.469-6.049 4.919-6.858 2.04-.673 4.149-.353 4.149.628 0 .71-4.869 6.901-7.04 8.952-1.464 1.384-1.8 2.235-1.8 4.564 0 2.362.277 3.044 1.59 3.905 2.132 1.397 4.436.94 11.171-2.214 5.661-2.652 7.359-3.321 14.393-5.673 12.803-4.28 23.996-6.714 23.996-5.218 0 2.207-9.245 8.04-15.155 9.563-1.216.313-4.2 1.134-6.631 1.825-2.431.69-7.831 1.995-11.998 2.899-8.697 1.886-17.454 3.956-20.208 4.777-1.042.31-3.458.975-5.368 1.476-1.91.502-4.752 1.264-6.315 1.693-1.563.43-3.836 1-5.052 1.267-2.553.562-13.795 3.438-17.05 4.363-2.44.694-28.867 7.117-35.364 8.595a2827.155 2827.155 0 00-16.103 3.711c-6.939 1.621-11.59 2.66-17.05 3.811-2.779.585-6.189 1.367-7.578 1.737-1.389.37-3.663.901-5.052 1.179-11.803 2.367-37.527 9.832-39.121 11.353-.33.314-.998.572-1.486.572-1.504 0-13.414 6.222-19.069 9.963-9.534 6.306-16.424 14.589-16.399 19.716.048 9.741 16.331 16.137 35.47 13.932 9.769-1.124 22.476-4.314 29.334-7.364 1.094-.486 2.231-.884 2.526-.883 1.357.003 14.326-5.873 25.795-11.688 12.421-6.296 14.864-7.603 23.05-12.325a424.11 424.11 0 017.578-4.258c1.91-1.04 5.32-2.92 7.578-4.178 5.635-3.141 25.364-12.99 29.996-14.974a378.426 378.426 0 016.63-2.761 282.512 282.512 0 004.737-1.948c2.959-1.265 16.451-5.68 22.733-7.44 11.303-3.166 14.036-3.825 18.945-4.561.695-.104 3.394-.611 5.999-1.126 5.182-1.025 6.294-.678 5.239 1.636-2.114 4.64-7.88 8.902-18.184 13.439-3.874 1.705-6.639 2.781-20.208 7.86-19.752 7.394-21.012 7.888-31.891 12.517-9.042 3.847-18.192 8.308-28.417 13.852-6.041 3.277-24.91 14.865-25.154 15.45-.116.277-.501.503-.856.503s-1.823.795-3.263 1.767c-1.439.972-3.043 1.977-3.564 2.234-1.117.553-2.512 1.404-6.145 3.748-1.469.948-2.831 1.724-3.026 1.724-.195 0-.698.299-1.118.665-.917.798-13.746 8.77-16.866 10.479a98.743 98.743 0 00-4.736 2.828 151.5 151.5 0 01-5.175 3.136c-1.457.836-7.411 4.362-13.232 7.835s-11.023 6.532-11.56 6.797c-.536.265-2.397 1.341-4.133 2.39-1.737 1.048-3.868 2.246-4.737 2.661-.868.416-1.72.916-1.894 1.111-.299.337-6.912 4.153-14.524 8.381a302.706 302.706 0 00-5.368 3.049c-1.042.616-3.173 1.774-4.736 2.574-1.563.799-2.937 1.666-3.052 1.927-.117.26-.473.474-.794.474-.321 0-3.778 1.802-7.683 4.006-3.906 2.204-9.09 5.089-11.521 6.411-2.431 1.322-4.905 2.705-5.497 3.073-1.199.747-2.33.078-1.407-.832.605-.597 14.122-8.238 14.572-8.238.138 0 1.311-.667 2.607-1.482 1.295-.814 4.202-2.481 6.46-3.703 7.852-4.25 11.071-6.039 14.394-7.999 1.839-1.084 3.5-1.972 3.692-1.972.191 0 1.102-.53 2.024-1.178.922-.648 3.665-2.258 6.097-3.578 2.431-1.32 4.562-2.566 4.736-2.769.174-.203 1.594-1.023 3.157-1.824 1.563-.8 3.695-2.004 4.737-2.676 1.042-.672 2.32-1.419 2.841-1.661.521-.241 4.169-2.376 8.108-4.743 3.938-2.367 7.419-4.304 7.736-4.304.316 0 .575-.284.575-.631a.64.64 0 01.644-.632c.355 0 1.846-.772 3.316-1.715 1.468-.944 3.638-2.247 4.819-2.894 1.182-.649 3.313-1.928 4.736-2.842 1.424-.915 3.511-2.17 4.638-2.789 3.003-1.65 16.135-9.803 17.026-10.572.42-.362.947-.658 1.172-.658.225 0 1.586-.795 3.026-1.766 1.44-.972 3.044-1.97 3.565-2.217.521-.248 1.712-.945 2.647-1.549 7.243-4.679 25.895-15.938 26.402-15.938.347 0 .631-.256.631-.57 0-.313.781-.889 1.736-1.281.956-.391 3.584-1.735 5.842-2.984 8.353-4.624 25.325-12.846 26.517-12.846.294 0 1.339-.392 2.322-.87 2.257-1.099 5.409-2.447 9.05-3.873 1.563-.612 3.695-1.47 4.737-1.907 1.042-.437 4.025-1.541 6.63-2.453 2.605-.912 5.305-1.906 5.999-2.21.695-.303 2.684-1.044 4.421-1.646 1.736-.602 4.01-1.445 5.052-1.875 1.042-.43 3.031-1.217 4.42-1.749 4.381-1.679 12.554-5.151 14.525-6.171 5.646-2.922 11.051-7.421 11.051-9.2 0-1.198-17.888 2.439-29.996 6.099-4.445 1.344-15.424 5.057-18.629 6.301-1.911.741-4.034 1.515-4.719 1.72-.686.205-1.964.748-2.842 1.206-.878.458-1.789.834-2.023.837-.643.006-8.886 3.871-17.996 8.437-7.355 3.687-11.218 5.722-18.305 9.642-1.333.738-3.703 2.04-5.266 2.894-2.721 1.485-3.785 2.083-11.147 6.256-8.284 4.696-26.968 14.205-35.268 17.95-6.879 3.104-21.344 8.035-30.392 10.361-1.434.368-6.265 1.05-10.736 1.514-15.083 1.569-28.777-1.275-34.426-7.15-3.597-3.741-4.105-9.88-1.23-14.853 3.254-5.63 9.332-11.128 18.055-16.334a778.508 778.508 0 005.999-3.604c.521-.323 1.516-.84 2.211-1.149 4.405-1.953 9.021-4.011 10.104-4.503 2.769-1.259 11.161-3.922 18.944-6.012 12.672-3.404 13.342-3.569 25.576-6.309 11.474-2.57 13.08-2.94 15.403-3.546a99.06 99.06 0 015.368-1.194c3.96-.754 9.994-2.092 16.803-3.724 21.231-5.092 26.957-6.482 30.311-7.356 3.729-.972 7.837-2.008 14.998-3.782a936.945 936.945 0 0014.998-3.832c8.684-2.318 10.543-2.83 12.359-3.402 1.067-.336 2.417-.611 3-.611 1.584 0 1.287-.901-.834-2.526-1.526-1.169-1.895-1.925-1.895-3.884 0-1.695-.275-2.431-.91-2.431-.501 0-1.085.284-1.3.632-.635 1.028-1.938.728-3.545-.817-.829-.797-2.786-2.415-4.349-3.596-3.887-2.938-4.564-3.68-6.346-6.954-3.044-5.59-7.055-8.984-15.756-13.332-1.563-.781-2.984-1.615-3.158-1.853-.173-.237-1.472-1.018-2.885-1.735-2.614-1.324-4.799-4.087-7.843-9.917-3.193-6.115-4.581-7.941-6.714-8.832-1.173-.491-2.134-1.196-2.134-1.567s-3.054.867-6.788 2.751c-7.881 3.977-10.703 5.207-14.848 6.47-2.666.811-2.935 1.052-2.362 2.123.356.664 3.556 3.681 7.113 6.705 3.556 3.025 8.769 7.865 11.583 10.758 4.758 4.89 5.19 5.557 6.159 9.527.694 2.845 1.882 5.429 3.56 7.743 7.505 10.35 9.496 15.757 6.623 17.981-3.752 2.903-10.852 4.987-27.774 8.151-8.474 1.584-11.481 1.859-11.953 1.095-.847-1.37-.552-6.757.552-10.078 1.462-4.397 5.765-8.892 10.981-11.471 3.251-1.607 5.057-2.047 9.631-2.343 3.096-.2 5.629-.54 5.629-.753 0-.381-.624-.743-5.052-2.933-1.216-.6-3.924-1.223-6.018-1.383-3.306-.251-4.348-.031-7.894 1.671-10.44 5.01-13.966 9.785-17.416 23.585-.664 2.656-1.391 4.263-1.926 4.263-1.739 0-6.384-2.63-8.791-4.978-4.196-4.091-4.481-4.483-13.829-19.018-6.131-9.534-13.847-19.518-14.601-18.892-1.198.994-9.642 2.931-16.402 3.762-5.508.677-7.375.636-13.893-.3-4.143-.595-7.801-1.345-8.131-1.667-.33-.321-1.105-.585-1.723-.585-.618 0-3.322-1.029-6.009-2.287-5.696-2.667-11.915-8.414-13.949-12.889-2.424-5.337-2.907-9.815-1.738-16.125 2.365-12.774 9.893-22.754 21.177-28.071a180.883 180.883 0 003.789-1.828c2.096-1.081 10.097-3.157 15.156-3.932l5.367-.824-4.42-.755c-6.539-1.117-14.001.183-21.105 3.676-4.678 2.3-6.433 3.682-12.85 10.116-4.611 4.624-7.919 7.453-8.713 7.453-.705 0-1.944-.715-2.755-1.59-2.986-3.222-3.712-17.224-1.784-34.404.605-5.383 1.101-14.477 1.104-20.207.002-5.731.25-12.053.55-14.051l.546-3.63h4.229c4.261 0 10.176-1.788 13.825-4.179 5.177-3.392 10.393-10.256 11.49-15.122l.482-2.134-4.775 4.165c-10.962 9.56-19.19 13.481-28.291 13.481-3.328 0-5.527.288-6.059.793-2.297 2.183-14.055 6.784-17.338 6.784h-2.023l.975-2.481c1.235-3.146.713-6.119-1.491-8.496-2.191-2.363-8.049-4.94-10.572-4.652l-1.96.225 2.295 1.049c3.088 1.413 7.331 6.358 8.194 9.55 1.097 4.058.36 11.466-1.563 15.7-2.433 5.358-2.645 7.753-1.048 11.801 1.527 3.871 1.301 6.034-.687 6.554-1.863.487-1.401 2.12 3.339 11.796 3.793 7.744 3.867 7.995 3.898 13.261.045 7.639-3.074 15.148-8.276 19.926-2.899 2.663-3.818 2.72-4.663.293l-.657-1.883-2.054 1.568c-2.389 1.822-3.346 1.93-5.257.591-1.044-.731-1.701-.81-2.625-.316-3.359 1.798-6.147-.611-5.388-4.655l.425-2.263h-5.39l.384-12.471c.222-7.208.126-13.804-.228-15.629a154.282 154.282 0 01-1.003-5.879c-.734-5.101 1.677-7.197 10.674-9.28 2.692-.623 4.894-1.269 4.894-1.435 0-.166-2.202-.165-4.894.003-4.843.303-7.678 1.329-10.502 3.803-.693.608-1.484 1.105-1.757 1.105-.729 0-2.4-3.472-3.457-7.18-1.262-4.426-1.816-18.018-.944-23.131 1.096-6.424 1.88-9.943 2.491-11.177l2.077-4.203c2.133-4.319 4.605-6.105 13.2-9.538 7.362-2.94 15.482-7.272 17.995-9.6 1.394-1.291 4.228-3.222 6.571-4.478.835-.447 4.103-1.403 7.262-2.123 10.945-2.495 11.487-2.766 17.132-8.566l5.164-5.305-2.107-2.658c-5.633-7.105-3.935-16.545 5.051-28.087 4.524-5.81 16.926-17.763 18.708-18.03.936-.14 1.67-.725 1.803-1.438.881-4.721 6.481-12.843 10.965-15.902 5.975-4.075 16.781-7.085 25.438-7.083 4.126 0 11.639 1.146 14.524 2.213 5.808 2.15 9.851 4.71 13.893 8.792 6.129 6.19 9.4 13.169 10.186 21.73.364 3.968.629 4.728 1.839 5.28 5.189 2.364 3.35 13.438-3.688 22.2-.972 1.21-2.998 4.71-4.504 7.776-1.505 3.066-3.481 6.653-4.39 7.97-.909 1.319-1.653 2.538-1.653 2.712 0 .172-.274.657-.61 1.076-.335.42-1.413 1.758-2.396 2.973-4.227 5.231-4.194 5.106-4.554 17.209-.184 6.165-.19 11.21-.014 11.209.175-.001.661-.783 1.079-1.738 3-6.859 4.356-9.882 6.24-13.906 1.182-2.526 2.149-4.705 2.149-4.842 0-.137 1.254-2.37 2.787-4.963 6.83-11.552 7.517-13.132 7.496-17.25l-.019-3.864 5.13-1.078c2.821-.594 6.551-1.373 8.287-1.732 5.358-1.11 12.05-.213 21.009 2.815 8.09 2.734 8.114 2.738 9.077 1.442 1.381-1.856 8.028-15.784 12.236-25.638 1.973-4.62 3.813-8.849 4.088-9.396.275-.548 1.414-2.843 2.53-5.1 1.117-2.258 2.574-4.619 3.239-5.246 1.165-1.102 1.264-1.096 2.882.175 2.812 2.213 3.115.831 1.48-6.756-2.11-9.788-2.346-15.799-.745-18.936 2.042-4.003 7.994-8.884 9.929-8.142.494.19.898.102.898-.195 0-.613 3.321-2.289 5.683-2.867.978-.239 2.118-.005 2.995.615zM396.882 18.42c-15.315 2.797-23.552 9.417-27.057 21.744-2.076 7.3-.919 18.738 2.454 24.273.648 1.064 1.372 2.338 1.609 2.832.237.495.898 1.347 1.469 1.895 1.494 1.43 7.613 4.524 8.215 4.153.868-.537-1.179-6.159-3.449-9.473-2.216-3.233-3.783-8.31-3.109-10.066.464-1.207 1.742-1.274 2.684-.14 1.36 1.639 6.983 2.437 12.976 1.843 3.096-.307 9.348-.422 13.893-.255 4.545.166 10.537.31 13.316.32 5.265.017 21.496-1.62 22.106-2.23.589-.59-.965-9.47-2.303-13.152-2.454-6.756-7.304-12.82-13.285-16.612-4.061-2.573-6.24-3.4-12.833-4.868-6.45-1.436-9.963-1.492-16.686-.264zm31.842 38.284c-3.821.417-7.799.694-8.841.616-1.042-.078-9.994-.225-19.892-.326-12.982-.133-18.409-.405-19.473-.98-.811-.438-1.62-.652-1.797-.476-.738.74.671 4.332 2.945 7.508 1.339 1.87 2.627 4.52 2.862 5.888.958 5.584 1.455 6.26 6.239 8.46 6.449 2.966 10.798 4.447 13.057 4.447 1.083 0 3.577-.887 5.541-1.973 4.672-2.582 8.36-2.675 14.099-.359 2.316.936 5.241 1.7 6.497 1.7 2.356 0 6.5-1.762 7.785-3.31 2.017-2.431 5.339-18.993 4.335-21.61-.344-.896-.946-1.022-3.414-.716-1.648.204-6.123.713-9.943 1.13zm15.216 1.93c-.722 5.838-1.542 10.962-1.969 12.314-.638 2.021.595 1.772 1.565-.315 2.87-6.177 3.796-11.098 2.531-13.46-1.037-1.939-1.768-1.436-2.127 1.462zm-77.087 2.842c1.231 13.713 6.109 21.07 17.739 26.752 2.949 1.441 6.362 3.298 7.583 4.126 1.221.83 2.005 1.147 1.743.707-.873-1.464-3.078-4.585-3.467-4.905-.211-.174-1.706-3.027-3.323-6.34-2.929-6-2.955-6.031-6.879-7.845-4.121-1.904-8.044-5.055-8.044-6.462 0-.452-.245-.823-.544-.823-.727 0-3.245-6.659-3.245-8.581 0-.969-.364-1.523-1.001-1.523-.866 0-.942.663-.562 4.894zm22.114 20.539c5.923 11.351 16.345 21.389 24.285 23.39 4.268 1.075 5.836 3.075 6.922 8.825 1.285 6.813 1.899 6.393 1.909-1.309.012-8.41.48-9.815 5.494-16.476 4.425-5.88 9.504-15.235 8.271-15.235-.48 0-1.196.323-1.591.718-1.347 1.347-7.176.89-11.641-.912-2.316-.935-5.115-1.7-6.219-1.7-1.923 0-6.257 1.63-6.949 2.614-.182.26-1.634.82-3.228 1.246-2.574.689-3.381.617-7.247-.64-2.393-.777-5.913-2.2-7.823-3.16-1.911-.962-3.571-1.504-3.689-1.205-.119.3.558 2.03 1.506 3.844zm96.907 4.247c0 .347.443.631.984.631.541 0 .809-.284.594-.631-.214-.348-.657-.632-.984-.632-.327 0-.594.284-.594.632zM348.84 89.97c0 1.79 14.737 7.92 24.452 10.169 6.947 1.61 5.735.711-9.612-7.123-2.779-1.418-6.446-2.894-8.15-3.28-3.05-.69-6.69-.563-6.69.234zm56.834 14.244c0 .148.364.646.809 1.105 1.238 1.276 6.769 8.589 6.769 8.949 0 .551 6.4 10.008 6.621 9.782.506-.519-1.632-12.084-2.578-13.944-.576-1.133-1.109-2.134-1.186-2.226-.077-.092-1.774-.593-3.772-1.114-1.997-.52-4.235-1.368-4.972-1.884-1.421-.996-1.691-1.103-1.691-.668zm524.748 11.295c-.508.457-7.318 2.9-15.133 5.428-7.815 2.529-15.203 4.956-16.419 5.394-3.003 1.083-5.397 1.904-13.893 4.766-10.375 3.495-19.733 6.859-20.86 7.498-.532.303-1.878.75-2.992.995-1.113.244-2.187.706-2.385 1.027-.198.321-.84.585-1.428.587-.587.002-1.882.429-2.876.947-.995.519-2.416.938-3.158.933-2.355-.019 1.709-2.135 10.018-5.217 14.492-5.376 18.38-6.771 18.881-6.771.278 0 1.4-.379 2.495-.843 2.668-1.131 5.996-2.311 8.305-2.945a53.975 53.975 0 003.788-1.229c5.626-2.103 34.575-11.401 35.498-11.401.943 0 .964.107.159.831zm-85.96 30.038c-1.955 1.557-5.248 1.964-3.666.452.508-.485 1.919-1.087 3.134-1.337l2.21-.452-1.678 1.337zm-6.847 2.155c0 .422-2.199 1.558-4.887 2.525-5.762 2.072-5.424 1.324.625-1.383 2.715-1.215 4.262-1.63 4.262-1.142zm-415.071 59.329c3.787 3.252 6.966 6.562 14.073 14.654 10.615 12.086 15.057 16.131 17.715 16.131.321 0-.36-1.492-1.511-3.315-1.151-1.824-2.729-4.594-3.506-6.157-.778-1.563-1.961-3.694-2.629-4.736-.667-1.042-1.407-2.321-1.643-2.842-.236-.521-2.584-3.094-5.217-5.717-5.571-5.551-13.364-9.832-18.229-10.016-1.292-.048-1.193.161.947 1.998zm62.898 6.276c.202.503.351.354.382-.382.027-.666-.122-1.038-.332-.829-.209.21-.232.755-.05 1.211zm-1.249 3.828c.175.434.318.079.318-.789 0-.869-.143-1.223-.318-.79-.176.435-.176 1.145 0 1.579zm-80.254 31.086c.295 6.647 1.271 10.313 3.038 11.405.79.489.758-.552-.042-1.352-.68-.68-1.711-7.126-2.362-14.775-.573-6.731-.999-3.553-.634 4.722zm283.498 4.933c-3.364 2.879-8.532 7.07-11.484 9.314-2.952 2.244-5.51 4.224-5.683 4.4-2.118 2.141-31.388 21.466-32.514 21.466-.121 0-2.303 1.214-4.85 2.696-2.547 1.484-5.685 3.247-6.974 3.919-1.288.673-2.245 1.321-2.126 1.44.245.245 7.261-2.006 10.153-3.257a108.299 108.299 0 014.105-1.648c11.841-4.436 34.746-15.129 38.205-17.834.347-.272 3.002-2.233 5.9-4.358 6.214-4.558 10.465-9.683 11.78-14.2.814-2.801.743-7.173-.118-7.173-.152 0-3.029 2.356-6.394 5.235zm-143.505 15.604c-.616.868-1.298 2.289-1.516 3.158-.365 1.448-.235 1.396 1.57-.632 1.082-1.216 2.255-2.733 2.608-3.371 1.001-1.819-1.288-1.092-2.662.845zm35.182 5.334c-9.393 2.512-21.958 6.984-25.355 9.025-1.221.733-1.214.759.226.778 3.571.046 24.742-5.601 26.265-7.006.33-.304.97-.553 1.423-.553.453 0 2.172-.847 3.821-1.883 2.856-1.794 2.913-1.883 1.198-1.894-.99-.006-4.4.683-7.578 1.533zm-267.89 169.782c-.275.718-3.663 2.329-4.897 2.329-1.016 0-.289-1.074 1.405-2.074 2.184-1.29 3.939-1.418 3.492-.255zm-7.852 4.149c0 .307-.585.711-1.299.898-1.066.279-1.166.179-.554-.558.834-1.005 1.853-1.191 1.853-.34zm-5.683 2.799c0 .457-.924 1.3-2.053 1.873-1.128.573-4.467 2.373-7.42 3.999-8.964 4.939-26.275 13.891-36.626 18.942-15.251 7.441-18.08 8.769-26.523 12.454-6.668 2.91-10.718 4.623-21.787 9.218-1.3.54-4.729 1.857-9.156 3.517a569.84 569.84 0 00-4.894 1.866c-11.356 4.408-31.651 10.865-50.046 15.924a416.27 416.27 0 00-5.401 1.524c-1.06.313-3.191.846-4.736 1.184-1.545.339-4.656 1.027-6.913 1.531-28.383 6.33-45.906 8.969-71.36 10.748-18.709 1.307-33.242 1.704-42.625 1.164-13.938-.802-9.282-1.62 8.525-1.497 22.906.157 49.848-1.924 72.306-5.587 10.741-1.752 31.369-5.896 37.258-7.485 1.39-.375 4.515-1.153 6.947-1.73 2.431-.576 5.699-1.411 7.262-1.856 1.563-.444 4.547-1.284 6.631-1.865 9.277-2.592 23.122-6.965 29.995-9.475a944.536 944.536 0 019.789-3.488c3.126-1.095 6.251-2.242 6.946-2.55.695-.308 4.815-1.963 9.157-3.676 8.62-3.402 22.477-9.269 27.47-11.632a555.043 555.043 0 017.261-3.347c8.939-4.038 38.009-18.9 52.229-26.703 3.893-2.136 7.232-3.883 7.42-3.883.189 0 .344.374.344.83z" fill="#fff"/></svg>