<svg width="20" height="15" viewBox="0 0 20 15" fill="none" xmlns="http://www.w3.org/2000/svg"><path fill-rule="evenodd" clip-rule="evenodd" d="M18.074 3.87a.15.15 0 00-.152.004l-3.476 2.142a.85.85 0 11-.891-1.447l3.475-2.142a1.85 1.85 0 012.82 1.575v6.997a1.85 1.85 0 01-2.82 1.574l-3.476-2.142a.85.85 0 01.893-1.447l3.475 2.142A.15.15 0 0018.15 11V4.002a.15.15 0 00-.077-.131z" fill="#222A2F"/><path fill-rule="evenodd" clip-rule="evenodd" d="M.15 4A3.85 3.85 0 014 .15h7A3.85 3.85 0 0114.85 4v7A3.85 3.85 0 0111 14.85H4A3.85 3.85 0 01.15 11V4zM4 1.85A2.15 2.15 0 001.85 4v7A2.15 2.15 0 004 13.15h7A2.15 2.15 0 0013.15 11V4A2.15 2.15 0 0011 1.85H4z" fill="#222A2F"/></svg>