<svg width="186" height="36" viewBox="0 0 186 36" fill="none" xmlns="http://www.w3.org/2000/svg"><path fill-rule="evenodd" clip-rule="evenodd" d="M23.866 3.737c-.383.207-.921.74-1.006 2.473-.06 1.222-.24 2.768-.682 4.221-.43 1.418-1.177 2.975-2.53 3.935-2.825 2.007-6.743 5.136-10.03 8.726-3.334 3.643-5.798 7.525-6.124 11.046a1.5 1.5 0 11-2.988-.276c.422-4.546 3.47-9.048 6.9-12.795 3.476-3.8 7.575-7.066 10.506-9.147.551-.392 1.04-1.187 1.396-2.36.345-1.137.503-2.418.556-3.497.113-2.325.928-4.074 2.575-4.964C23.952.28 25.764.429 27.31.79c1.6.375 3.257 1.063 4.679 1.708.591.269 1.124.52 1.605.748.743.351 1.359.642 1.866.84.87.34 1.769.688 2.69 1.044 8.007 3.093 17.737 6.851 24.654 12.292.367.288.73.653 1.047.99.23-1.768.836-3.26 1.75-4.496 1.178-1.59 2.787-2.646 4.502-3.352 3.378-1.39 7.449-1.529 10.347-1.529 3.183 0 5.74 1.166 7.899 2.15.352.16.695.317 1.027.462 2.4 1.048 4.51 1.69 7.375.725 3.21-1.08 5.971-.427 8.346 1.086 2.288 1.459 4.244 3.732 6.009 5.93.375.467.741.93 1.101 1.386 1.396 1.767 2.705 3.425 4.1 4.758 1.738 1.661 3.362 2.567 5.089 2.567.436 0 .83-.218 1.619-.879l.207-.176c.674-.574 1.667-1.421 2.97-1.75 4.901-1.238 10.995.146 15.234 1.49 10.165 3.223 21.358 4.248 32.032 4.248.518 0 1.225-.065 2.122-.148l.335-.03c1.013-.093 2.186-.192 3.33-.193 1.129-.001 2.341.091 3.404.44 1.08.355 2.168 1.033 2.723 2.294a1.5 1.5 0 11-2.746 1.208c-.093-.213-.313-.454-.912-.651-.617-.203-1.457-.292-2.467-.291-.994 0-2.046.087-3.058.18l-.344.032c-.857.08-1.719.16-2.387.16-10.838 0-22.369-1.038-32.938-4.389-4.197-1.33-9.577-2.456-13.593-1.442-.594.15-1.058.54-1.85 1.204l-.136.114c-.756.634-1.909 1.58-3.545 1.58-2.865 0-5.202-1.526-7.162-3.4-1.562-1.492-3.041-3.366-4.45-5.151a199.24 199.24 0 00-1.017-1.283c-1.773-2.209-3.458-4.115-5.283-5.278-1.739-1.108-3.562-1.518-5.775-.773-3.924 1.321-6.894.334-9.534-.819a89.52 89.52 0 01-1.152-.515c-2.168-.978-4.089-1.846-6.573-1.846-2.901 0-6.431.16-9.205 1.303-1.36.56-2.465 1.328-3.232 2.364-.757 1.02-1.266 2.41-1.266 4.365 0 .423-.03.854-.141 1.24-.102.355-.362.98-1.05 1.296-.701.321-1.339.092-1.64-.054a3.588 3.588 0 01-.795-.558c-.346-.31-.725-.725-1.048-1.08l-.147-.162c-.397-.433-.715-.764-.976-.97-6.536-5.14-15.816-8.73-23.896-11.855-.912-.353-1.81-.7-2.686-1.043-.592-.232-1.379-.603-2.21-.995-.464-.218-.942-.444-1.409-.656-1.387-.63-2.823-1.214-4.123-1.519-1.352-.316-2.244-.254-2.76.025z" fill="url(#paint0_linear_795_7067)"/><defs><linearGradient id="paint0_linear_795_7067" x1="184.086" y1="34.038" x2="-5.114" y2="14.492" gradientUnits="userSpaceOnUse"><stop stop-color="#6ED649"/><stop offset="1" stop-color="red"/></linearGradient></defs></svg>