<svg width="57" height="32" viewBox="0 0 57 32" fill="none" xmlns="http://www.w3.org/2000/svg"><path fill-rule="evenodd" clip-rule="evenodd" d="M.873.259a1 1 0 011.413.07A40.184 40.184 0 004.74 2.8c1.56 1.47 2.785 2.623 5.426 6.89l.034.056.027.06c.079.175.357.578.81 1.076.434.476.95.953 1.426 1.288.215.151.402.26.554.327.003-.043.005-.094.005-.151 0-2.12.197-3.65.584-4.738.4-1.12 1.036-1.857 1.924-2.187.81-.3 1.657-.186 2.281-.074.202.037.383.072.55.105.429.086.757.15 1.082.15 1.062 0 1.879.628 2.463 1.218.423.427.842.964 1.209 1.432.133.172.26.334.377.478.508.626.86.954 1.133 1.065a.33.33 0 00.227.024c.083-.02.249-.09.498-.327.651-.62 1.455-1.03 2.348-.819.818.194 1.38.844 1.764 1.46.782 1.253 1.371 3.259 1.897 5.199.108.4.215.8.32 1.197.427 1.607.839 3.158 1.308 4.401.292.775.578 1.35.854 1.715.136.178.244.274.318.321.064.041.092.041.1.041.391 0 .794.13 1.076.228.15.052.303.11.447.165l.02.007c.154.058.298.113.44.162.293.102.512.159.673.174a.607.607 0 00.105.003c1.234-.859 2.604-.752 3.771-.307 1.157.44 2.243 1.253 3.108 2.027C47.756 28.916 51.969 30 56 30a1 1 0 110 2c-4.424 0-9.143-1.204-13.435-5.044-.793-.71-1.664-1.335-2.486-1.648-.803-.306-1.422-.273-1.932.09-.477.34-1.012.375-1.42.336-.408-.038-.812-.162-1.143-.276a24.13 24.13 0 01-.489-.18l-.01-.004a18.04 18.04 0 00-.41-.151 3.472 3.472 0 00-.31-.096.754.754 0 00-.107-.02h.001c-.91 0-1.569-.57-2.012-1.155-.45-.595-.817-1.382-1.132-2.216-.508-1.348-.954-3.03-1.383-4.645-.102-.384-.203-.765-.303-1.136-.546-2.014-1.068-3.709-1.663-4.662-.304-.487-.498-.566-.528-.573a.047.047 0 00-.016-.001.253.253 0 00-.068.018c-.08.031-.223.111-.427.305-.418.397-.877.69-1.388.817a2.33 2.33 0 01-1.468-.111c-.808-.33-1.45-1.063-1.932-1.658a39.92 39.92 0 01-.48-.607c-.337-.43-.639-.817-.974-1.156-.479-.483-.803-.625-1.042-.625-.541 0-1.147-.12-1.626-.217l-.36-.07c-.605-.108-.972-.115-1.231-.019-.183.068-.474.248-.736.983-.273.768-.468 2.032-.468 4.067 0 .489-.074.982-.313 1.395a1.624 1.624 0 01-1.204.817c-.445.061-.867-.054-1.197-.19a5.195 5.195 0 01-.995-.562c-.627-.441-1.251-1.025-1.754-1.578-.462-.506-.899-1.07-1.124-1.533C5.954 6.69 4.938 5.737 3.467 4.358 2.757 3.692 1.94 2.927.804 1.67A1 1 0 01.874.26zm36.165 23.484l-.002.001h.002z" fill="url(#paint0_linear_795_7068)"/><defs><linearGradient id="paint0_linear_795_7068" x1="60.177" y1="32.668" x2="-14.882" y2="29.92" gradientUnits="userSpaceOnUse"><stop stop-color="#6ED649"/><stop offset="1" stop-color="red"/></linearGradient></defs></svg>