<svg width="287" height="84" viewBox="0 0 287 84" fill="none" xmlns="http://www.w3.org/2000/svg"><path d="M147.461 66.577s7.774-10.134 7.801-23.358C155.316 17.261 137.141.406 111.815.38 97.134.352 84.674 7.506 77.116 17.992c-.27-.38-.541-.731-.812-1.11C69.993 8.507 59.077.026 42.147 0 22.238-.027 6.853 13.305 1.787 29.59c-.053.19-.108.406-.162.596v.027A41.317 41.317 0 000 41.702a44.603 44.603 0 001.436 10.893C4.632 64.49 12.948 74.299 23.918 79.583c.081.027.162.082.27.136l.163.081c5.526 2.52 11.729 3.93 18.338 3.956 13.977-.108 26.355-6.964 33.994-17.45.162-.217.298-.434.46-.65C84.511 76.276 96.754 84 111.95 84c10.076 0 17.2-4.308 18.5-4.986l2.682 3.523h25.814l-11.485-15.96zM42.445 60.724c-9.02 0-19.259-7.127-19.448-18.561-.217-11.842 10.022-19.591 19.448-19.266 7.666.27 10.591 2.466 14.844 6.666h13.895v.027a40.356 40.356 0 00-1.381 5.609H45.452v19.7h10.672c0 .514-5.471 5.825-13.679 5.825zm89.306-13.06l-2.194-2.981h-26.193l10.645 15.39C102.93 62.242 92.448 52.975 92.61 42.19c.163-11.029 9.047-19.266 19.692-19.212 11.675.081 23.295 12.654 19.449 24.685z" fill="#DDD"/><path d="M175.072 13.168h-4.902V9.82h13.589v3.35h-4.902V27h-3.785V13.168zm12.632-3.348h6.649c.873 0 1.699.088 2.475.266.793.162 1.48.445 2.063.85a3.996 3.996 0 011.407 1.601c.356.663.534 1.497.534 2.5 0 1.213-.315 2.248-.946 3.106-.631.841-1.553 1.375-2.767 1.601L201.487 27h-4.538l-3.591-6.867h-1.869V27h-3.785V9.82zm3.785 7.11h2.233c.34 0 .696-.009 1.068-.025a3.958 3.958 0 001.043-.218c.308-.13.558-.324.752-.583.211-.258.316-.622.316-1.092 0-.436-.089-.784-.267-1.043a1.685 1.685 0 00-.68-.582 2.818 2.818 0 00-.946-.292 7.711 7.711 0 00-1.043-.072h-2.476v3.907zm19.627-7.11h3.13L221.72 27h-4.271l-1.48-3.64h-6.673L207.864 27h-4.174l7.426-17.18zm1.456 4.998l-2.087 5.339h4.198l-2.111-5.339zm9.707-4.998h4.319l4.247 11.26h.048l4.32-11.26h4.052L232.18 27h-3.034l-6.867-17.18zm20.952 0h11.673v3.494h-7.887v3.203h7.45v3.494h-7.45v3.495h8.323V27h-12.109V9.82zm17.308 0h3.785v13.686h7.013V27h-10.798V9.82zm-83.138 24h3.131L188.006 51h-4.271l-1.48-3.64h-6.674L174.15 51h-4.174l7.425-17.18zm1.456 4.998l-2.087 5.339h4.199l-2.112-5.339zm10.487-4.998h4.126l2.742 11.016h.048l3.592-11.017h3.518l3.568 11.309h.048l2.888-11.309h3.834L208.685 51h-3.373l-3.786-11.89h-.048L197.692 51h-3.252l-5.096-17.18zm33.123 0h3.13L233.071 51H228.8l-1.48-3.64h-6.673L219.215 51h-4.174l7.426-17.18zm1.456 4.998l-2.087 5.339h4.198l-2.111-5.339zm12.899-4.998h6.649c.873 0 1.698.088 2.475.266.793.162 1.48.445 2.063.85a3.996 3.996 0 011.407 1.601c.356.663.534 1.497.534 2.5 0 1.213-.316 2.248-.946 3.106-.631.841-1.554 1.375-2.767 1.601L250.605 51h-4.538l-3.591-6.867h-1.869V51h-3.785V33.82zm3.785 7.11h2.233c.34 0 .695-.009 1.068-.025a3.958 3.958 0 001.043-.218 1.79 1.79 0 00.752-.583c.211-.258.316-.622.316-1.092 0-.436-.089-.784-.267-1.043a1.685 1.685 0 00-.68-.582 2.818 2.818 0 00-.946-.292 7.714 7.714 0 00-1.044-.072h-2.475v3.906zm13.972-7.11h5.679c1.375 0 2.677.153 3.907.46 1.245.308 2.329.81 3.251 1.505.923.68 1.651 1.57 2.184 2.67.55 1.1.825 2.434.825 4.003 0 1.392-.266 2.621-.8 3.689a7.934 7.934 0 01-2.112 2.67 9.524 9.524 0 01-3.081 1.625 11.974 11.974 0 01-3.665.558h-6.188V33.82zm3.786 13.686h1.966c.873 0 1.682-.09 2.426-.267.761-.178 1.416-.47 1.966-.874.55-.42.979-.962 1.286-1.626.323-.68.485-1.504.485-2.475 0-.841-.162-1.57-.485-2.184a4.243 4.243 0 00-1.262-1.553 5.409 5.409 0 00-1.893-.898 7.926 7.926 0 00-2.257-.315h-2.232v10.192zm25.143-9.489c-.307-.388-.728-.67-1.262-.849a4.21 4.21 0 00-1.48-.291c-.275 0-.558.032-.849.097a2.98 2.98 0 00-.825.316c-.259.129-.47.307-.631.533a1.38 1.38 0 00-.243.825c0 .518.194.914.582 1.19.389.274.874.51 1.456.703a57.45 57.45 0 001.917.583 7.62 7.62 0 011.893.825 4.474 4.474 0 011.481 1.431c.388.599.582 1.4.582 2.403 0 .954-.178 1.788-.534 2.5a5.015 5.015 0 01-1.456 1.77 5.998 5.998 0 01-2.111 1.044 9.148 9.148 0 01-2.524.34c-1.116 0-2.152-.17-3.106-.51-.954-.34-1.844-.89-2.669-1.65l2.693-2.96a4.08 4.08 0 001.456 1.213 4.378 4.378 0 002.767.316c.323-.081.606-.195.849-.34a1.69 1.69 0 00.607-.558c.161-.227.242-.494.242-.801 0-.518-.202-.922-.606-1.213-.389-.308-.882-.567-1.481-.777-.598-.21-1.245-.42-1.941-.631a8.697 8.697 0 01-1.941-.85 4.806 4.806 0 01-1.505-1.407c-.388-.582-.582-1.35-.582-2.305 0-.922.178-1.731.534-2.427a5.459 5.459 0 011.456-1.747 6.28 6.28 0 012.111-1.043 8.328 8.328 0 012.451-.364c.971 0 1.909.137 2.815.412a6.492 6.492 0 012.451 1.383l-2.597 2.84zM171.189 71.142l6.673-5.994c.34-.307.68-.655 1.02-1.044a2 2 0 00.509-1.358c0-.583-.21-1.036-.631-1.36a2.282 2.282 0 00-1.48-.509c-.679 0-1.213.21-1.602.63-.372.422-.582.94-.631 1.554l-3.64-.267c.049-.89.235-1.658.559-2.305a4.828 4.828 0 011.286-1.65 5.27 5.27 0 011.868-.971 7.886 7.886 0 012.354-.34c.777 0 1.505.113 2.184.34.68.21 1.27.534 1.772.97.501.421.889.955 1.164 1.602.292.647.437 1.4.437 2.257 0 .55-.056 1.051-.17 1.504a5.009 5.009 0 01-.485 1.214 5.278 5.278 0 01-.704.995c-.275.307-.574.606-.898.898l-5.217 4.489h7.62V75h-11.988v-3.858zm15.995-4.732c0-1.02.089-2.055.267-3.106a9.525 9.525 0 01.995-2.864 5.923 5.923 0 011.965-2.087c.825-.55 1.877-.825 3.155-.825 1.278 0 2.33.275 3.155.825a5.719 5.719 0 011.941 2.087c.485.858.817 1.812.995 2.864.194 1.051.291 2.087.291 3.106a17.1 17.1 0 01-.291 3.106 8.723 8.723 0 01-.995 2.863 5.92 5.92 0 01-1.941 2.112c-.825.533-1.877.8-3.155.8-1.278 0-2.33-.267-3.155-.8a6.136 6.136 0 01-1.965-2.112 9.525 9.525 0 01-.995-2.863 18.588 18.588 0 01-.267-3.106zm3.64 0c0 .453.016.995.048 1.626.049.63.162 1.237.34 1.82.178.582.445 1.075.801 1.48.372.404.89.607 1.553.607.647 0 1.157-.203 1.529-.607.372-.405.647-.898.825-1.48a7.502 7.502 0 00.315-1.82c.049-.631.073-1.173.073-1.626 0-.453-.024-.995-.073-1.626a7.502 7.502 0 00-.315-1.82 3.784 3.784 0 00-.825-1.48c-.372-.405-.882-.607-1.529-.607-.663 0-1.181.202-1.553.607a3.956 3.956 0 00-.801 1.48 8.443 8.443 0 00-.34 1.82c-.032.63-.048 1.173-.048 1.626zm13.131 4.732l6.674-5.994c.339-.307.679-.655 1.019-1.044.34-.388.51-.84.51-1.358 0-.583-.211-1.036-.631-1.36a2.286 2.286 0 00-1.481-.509c-.679 0-1.213.21-1.601.63-.372.422-.583.94-.631 1.554l-3.64-.267c.048-.89.234-1.658.558-2.305a4.828 4.828 0 011.286-1.65 5.275 5.275 0 011.869-.971 7.88 7.88 0 012.353-.34c.777 0 1.505.113 2.184.34.68.21 1.27.534 1.772.97a4.2 4.2 0 011.165 1.602c.291.647.437 1.4.437 2.257 0 .55-.057 1.051-.17 1.504a5.011 5.011 0 01-.486 1.214 5.273 5.273 0 01-.703.995c-.275.307-.575.606-.898.898l-5.218 4.489h7.62V75h-11.988v-3.858zm22.183-9.246l-3.446 3.034-2.062-2.379 5.605-4.732h3.398V75h-3.495V61.896z" fill="#D7D7D7"/></svg>