<svg width="251" height="103" viewBox="0 0 251 103" fill="none" xmlns="http://www.w3.org/2000/svg"><path d="M45.694 51.398c3.476-.03 6.952-.047 10.427-.09a267.91 267.91 0 005.502-.14c.396-.014.523.122.628.516.287 1.07.665 2.116 1.001 3.173.344 1.078.676 2.156 1.022 3.233.523 1.617 1.071 3.233 1.569 4.857.098.324.142.727.042 1.038-1.047 3.276-2.142 6.537-3.197 9.807-.762 2.35-1.485 4.714-2.24 7.068-.626 1.94-1.286 3.88-1.917 5.82-.53 1.635-1.037 3.278-1.555 4.919-.113.359-.214.722-.346 1.077-.038.1-.155.168-.236.251-.074-.09-.185-.168-.214-.271-.575-1.901-1.122-3.812-1.714-5.712-.584-1.863-1.22-3.71-1.821-5.568-1.09-3.377-2.166-6.757-3.259-10.13-.8-2.47-1.616-4.935-2.425-7.402-.044-.136-.08-.275-.118-.414-.183-.686-.23-.749-.937-.74-1.73.02-3.458.079-5.186.094-3.014.026-6.029.018-9.043.046-2.226.022-4.452.072-6.678.12-2.299.051-4.596.11-6.894.176-.444.012-.887.087-1.331.1-.14 0-.282-.102-.422-.157.076-.108.165-.206.264-.294a943.111 943.111 0 015.053-3.597c2.341-1.662 4.681-3.325 7.021-4.989 1.522-1.088 3.027-2.205 4.549-3.289 1.448-1.037 2.91-2.047 4.366-3.079l4.419-3.117c.292-.209.321-.49.214-.813-.404-1.148-.801-2.298-1.206-3.449-.792-2.245-1.591-4.488-2.38-6.734-.929-2.635-1.853-5.271-2.773-7.91-.784-2.25-1.555-4.505-2.34-6.754-.673-1.928-1.362-3.85-2.035-5.776-.643-1.826-1.263-3.656-1.898-5.483-.1-.286-.247-.558-.333-.848-.047-.156-.015-.337-.018-.507.16.054.34.077.476.168.342.226.663.484.994.726 1.871 1.369 3.745 2.738 5.62 4.106 2.31 1.681 4.622 3.36 6.935 5.036 1.227.893 2.441 1.802 3.671 2.694a463.73 463.73 0 005.831 4.17c.455.324.693.714.848 1.242.342 1.166.759 2.311 1.136 3.466.321.987.621 1.982.95 2.968.535 1.596 1.083 3.186 1.614 4.783.356 1.069.69 2.145 1.035 3.217.087.271.03.462-.214.646-2.55 1.868-5.093 3.743-7.631 5.624a1649.619 1649.619 0 00-6.948 5.19c-.257.19-.526.365-.77.571-.083.069-.108.215-.156.323.101.052.21.088.321.108.909.009 1.822 0 2.727 0v-.07z" fill="#DDD"/><path d="M0 63.278c.321-.258.634-.528.964-.773 2.289-1.702 4.581-3.402 6.876-5.1 2.064-1.527 4.132-3.049 6.192-4.583 2.16-1.608 4.309-3.233 6.473-4.842 2.65-1.966 5.31-3.917 7.964-5.88a467.016 467.016 0 004.07-3.038c.603-.453.6-.594.349-1.322-.51-1.472-.974-2.959-1.46-4.439l-1.5-4.539c-.8-2.43-1.602-4.861-2.405-7.293-.659-1.989-1.326-3.975-1.98-5.966-.764-2.33-1.51-4.666-2.276-6.996-.643-1.972-1.315-3.938-1.97-5.909-.214-.661-.418-1.33-.643-1.991-.06-.18-.167-.343-.214-.607.264.166.52.346.766.539 1.017.873 1.986 1.803 3.042 2.623.692.539 1.052 1.204 1.323 2.009.857 2.545 1.773 5.071 2.648 7.611.643 1.863 1.242 3.74 1.886 5.604.61 1.76 1.256 3.506 1.877 5.262.357 1.014.69 2.036 1.04 3.052.486 1.4.979 2.807 1.466 4.211.352 1.014.697 2.032 1.053 3.043.369 1.047.75 2.088 1.122 3.135.23.658.437 1.325.663 1.984.37 1.078.75 2.156 1.12 3.233.064.186.118.376.161.567.057.253-.026.422-.254.583a862.585 862.585 0 00-6.213 4.468c-2.196 1.588-4.39 3.18-6.58 4.776l-6.355 4.623a7498.6 7498.6 0 00-6.696 4.895c-.388.283-.764.59-1.179.835-.216.117-.46.178-.706.175-2.584.023-5.17.017-7.754.047-.921.01-1.84.099-2.76.152L0 63.278zm107 .314a6.037 6.037 0 01-.623.068c-2.692 0-5.384.009-8.075-.013-5.916-.046-11.832-.12-17.749-.157-3.066-.018-6.131.021-9.197.035-.643 0-.672-.021-.48-.625.458-1.433.94-2.858 1.393-4.292a738.606 738.606 0 001.976-6.303c.204-.664.299-.772 1.014-.772 4.6-.004 9.2 0 13.799.01.281.014.553.107.785.268 2.303 1.56 4.599 3.13 6.887 4.712 1.529 1.051 3.045 2.118 4.576 3.166 1.309.898 2.627 1.781 3.947 2.663.516.346 1.049.667 1.571 1.004.054.034.081.105.176.236zM80.284 4.842c-.387 1.111-.769 2.224-1.162 3.332a916.57 916.57 0 01-1.7 4.753c-.614 1.7-1.245 3.394-1.85 5.096-.642 1.822-1.265 3.654-1.907 5.477-.636 1.806-1.312 3.599-1.916 5.418-.249.748-.593 1.344-1.296 1.748-.552.317-1.051.733-1.552 1.134-.378.303-.671.294-1.07-.012-1.367-1.038-2.764-2.032-4.15-3.037a1876.972 1876.972 0 00-5.332-3.856c-.857-.616-1.714-1.222-2.571-1.832-.087-.062-.161-.142-.246-.207-.276-.216-.296-.379.031-.604 1.179-.808 2.331-1.644 3.494-2.47a17460.2 17460.2 0 009.202-6.551c2.25-1.606 4.487-3.226 6.732-4.836 1.61-1.153 3.22-2.303 4.833-3.448.114-.072.232-.137.354-.193l.106.088zM43.005 65.207c.373 0 .75.026 1.12-.007.37-.034.5.127.601.449.977 3.147 1.962 6.29 2.956 9.432 1.081 3.414 2.183 6.823 3.267 10.238.6 1.894 1.178 3.797 1.776 5.692.321 1.008.674 2.004 1 3.008.365 1.125.734 2.248 1.059 3.384.082.31.079.636-.009.944-.329 1.114-.709 2.212-1.062 3.319-.066.204-.085.421-.148.626-.023.072-.107.166-.17.172-.064.005-.16-.079-.187-.147a12.64 12.64 0 01-.356-.957c-.852-2.658-1.703-5.317-2.552-7.975-.57-1.772-1.157-3.539-1.73-5.31-.84-2.604-1.678-5.21-2.512-7.818-.778-2.439-1.532-4.885-2.319-7.322-.763-2.37-1.55-4.725-2.335-7.086-.163-.491-.084-.607.429-.592.39.012.784 0 1.178 0l-.006-.05z" fill="#DDD"/><path d="M63.669 43.08l3.754-3.372c.19-.173.382-.368.573-.587.191-.218.287-.473.287-.764 0-.328-.119-.583-.355-.765a1.285 1.285 0 00-.833-.286c-.382 0-.683.118-.9.355-.21.236-.328.527-.356.873l-2.047-.15c.027-.5.132-.933.314-1.297.182-.373.423-.682.723-.928s.65-.428 1.051-.546c.41-.127.851-.191 1.324-.191.437 0 .847.064 1.229.191.382.118.714.3.996.546.282.237.5.537.655.901.164.364.246.787.246 1.27 0 .309-.032.591-.096.846a2.816 2.816 0 01-.272.682c-.11.2-.242.387-.396.56a6.612 6.612 0 01-.505.505l-2.935 2.525h4.286v1.802h-6.743v-2.17zm8.997-2.662c0-.573.05-1.156.15-1.747.11-.592.296-1.129.56-1.611a3.334 3.334 0 011.105-1.174c.465-.31 1.056-.464 1.775-.464.719 0 1.31.155 1.774.464.465.3.829.692 1.092 1.174.273.482.46 1.02.56 1.61a9.61 9.61 0 01.164 1.748 9.61 9.61 0 01-.164 1.747 4.902 4.902 0 01-.56 1.61 3.331 3.331 0 01-1.092 1.188c-.464.3-1.055.45-1.774.45-.719 0-1.31-.15-1.775-.45a3.454 3.454 0 01-1.105-1.187 5.357 5.357 0 01-.56-1.61c-.1-.592-.15-1.175-.15-1.748zm2.047 0c0 .255.01.56.028.915.027.354.09.696.19 1.023.101.328.251.605.451.833.21.227.5.341.874.341.364 0 .65-.114.86-.341a2.12 2.12 0 00.464-.833c.1-.327.16-.669.177-1.023.028-.355.041-.66.041-.915s-.013-.56-.04-.915a4.232 4.232 0 00-.178-1.023 2.128 2.128 0 00-.464-.833c-.21-.228-.496-.341-.86-.341-.373 0-.664.113-.874.34-.2.228-.35.506-.45.834a4.72 4.72 0 00-.191 1.023c-.018.355-.028.66-.028.915zM82.1 43.08l3.754-3.372c.19-.173.382-.368.573-.587.191-.218.287-.473.287-.764 0-.328-.119-.583-.355-.765a1.285 1.285 0 00-.833-.286c-.382 0-.682.118-.9.355-.21.236-.329.527-.356.873l-2.047-.15c.027-.5.132-.933.314-1.297.182-.373.423-.682.723-.928s.65-.428 1.051-.546c.41-.127.851-.191 1.324-.191.437 0 .847.064 1.229.191.382.118.714.3.996.546.282.237.5.537.655.901.164.364.246.787.246 1.27 0 .309-.032.591-.095.846a2.82 2.82 0 01-.273.682c-.11.2-.242.387-.396.56a6.61 6.61 0 01-.505.505l-2.935 2.525h4.286v1.802H82.1v-2.17zm12.478-5.201l-1.939 1.706-1.16-1.337 3.153-2.662h1.911v9.664h-1.965v-7.371zm107.663 39.066a19.776 19.776 0 00-1.053 1.746 252.702 252.702 0 00-2.507 5.445c-.339.753-.928.82-1.683.972-1.822.361-2.38-.704-2.976-2.046a61.429 61.429 0 00-3.186-6.187c-.062.213-.103.43-.123.65 0 3.865 0 7.73.04 11.595 0 .773-.258 1.094-1.024 1.072a34.067 34.067 0 00-2.573 0c-.856.04-1.12-.362-1.12-1.215.036-6.95.027-13.904.045-20.854 0-.894-.236-2.061.224-2.566.43-.469 1.647-.223 2.519-.279.448-.027.925-.11 1.344.016.372.111.825.397.977.728 1.472 3.201 2.891 6.426 4.314 9.65.224.507.349 1.063.602 1.563.157.243.395.422.673.507.08.026.345-.33.448-.55a2234.76 2234.76 0 004.62-10.257c.102-.2.177-.411.224-.63.137-.848.7-1.056 1.457-1.043.757.014 1.568.016 2.348 0 1.226-.022 1.278.018 1.278 1.208 0 3.868-.021 7.733-.016 11.6 0 3.572.024 7.145.04 10.717 0 1.367-.033 1.414-1.454 1.418-.746 0-1.492-.018-2.241 0-.686.011-1.015-.24-1.008-.982.022-3.495 0-6.989.013-10.495 0-.54.103-1.082.157-1.625l-.359-.158zm22.541-1.577c-.703 1.288-1.393 2.579-2.108 3.858-1.358 2.432-2.734 4.85-4.092 7.28-.524.937-.975 1.92-1.546 2.826-.224.353-.672.746-1.044.79-.957.114-1.934.043-2.913.043-.621 0-.82-.326-.818-.925.018-7.591.013-15.16.029-22.74 0-1.236.11-1.291 1.382-1.247.635.022 1.269 0 1.901 0 1.322-.02 1.328-.024 1.333 1.257.015 3.233.025 6.466.031 9.7a30.053 30.053 0 00.189 3.979c.284-.302.643-.56.84-.91 1.651-2.944 3.274-5.903 4.903-8.861.784-1.427 1.6-2.84 2.319-4.3.294-.595.672-.847 1.291-.856.82 0 1.642.02 2.465-.025.753-.042.979.309.972.996-.018 1.525 0 3.048 0 4.571 0 6.058-.004 12.116-.013 18.173 0 1.15-.034 1.186-1.19 1.199-.784.011-1.569-.051-2.349 0-.896.067-1.154-.328-1.149-1.172.02-4.124 0-8.25-.016-12.375a11.25 11.25 0 00-.145-1.268l-.272.007zm26.181 2.292v11.258c0 1.193-.036 1.235-1.262 1.255-.746.014-1.492-.018-2.24 0-.834.02-1.201-.292-1.177-1.188.059-2.34 0-4.689.063-7.022.018-.792-.224-1.201-1.049-1.185-.448 0-.896-.025-1.344-.027-1.011 0-1.463.527-1.793 1.476-.672 1.958-1.501 3.862-2.27 5.787-.11.275-.26.536-.354.815-.448 1.34-.448 1.34-1.871 1.34a86.38 86.38 0 01-3.137-.014c-.896-.022-1.029-.185-.661-.993 1.107-2.43 2.241-4.843 3.379-7.266.17-.368.352-.734.493-1.116.26-.7.184-1.17-.574-1.648-1.366-.862-2.18-2.233-2.543-3.796-.596-2.565-.352-5.028 1.163-7.261 1.266-1.865 3.119-2.758 5.313-2.82 2.944-.085 5.891 0 8.836-.051.934-.016 1.006.462 1.001 1.18-.018 3.754 0 7.507 0 11.26l.027.016zm-4.641-4.6c0-.778-.058-1.562.016-2.332.087-.934-.358-1.166-1.179-1.13-.927.04-1.859.022-2.789.031-2.071.02-3.406 1.228-3.462 3.126a3.484 3.484 0 00.9 2.51 3.51 3.51 0 002.416 1.145c1.078.058 2.16.016 3.238.051.692.023.916-.314.896-.953-.027-.815-.011-1.63-.011-2.447h-.025zM141.07 77.711v11.151c0 1.262-.045 1.304-1.327 1.306-.746 0-1.494-.038-2.24 0-.821.05-1.121-.268-1.107-1.096.036-3.42.015-6.841.018-10.271v-7.918c0-1.246-.036-1.27-1.231-1.268-1.678 0-3.361-.013-5.035 0-1.45 0-1.452 0-1.452 1.51v17.619c0 1.415 0 1.418-1.423 1.413-.708 0-1.42-.056-2.124 0-.896.067-1.15-.333-1.145-1.177.025-6.133.013-12.267.018-18.4 0-1.45.025-2.903 0-4.348 0-.77.293-1.004 1.075-.998 4.93.032 9.847.014 14.77 0 1.134 0 1.174.011 1.178 1.2v11.264l.025.013zm25.558.089V66.647c0-1.37.085-1.4 1.475-1.393 4.103.022 8.205 0 12.311 0 1.344 0 1.373 0 1.369 1.362v1.672c0 1.309-.045 1.356-1.412 1.358h-7.843c-1.194 0-1.286.076-1.304 1.253-.016 1.078.043 2.156.016 3.235-.02.87.376 1.181 1.221 1.17 2.088-.029 4.177 0 6.274-.011 1.459 0 1.457 0 1.459 1.505 0 .594 0 1.19.013 1.786 0 1.295-.047 1.362-1.4 1.364-2.091 0-4.179 0-6.274-.013-1.188 0-1.298.1-1.302 1.252 0 1.117 0 2.233.027 3.35.027 1.116.152 1.275 1.311 1.272 2.648 0 5.297-.026 7.945-.03 1.255 0 1.264.02 1.273 1.223 0 .708-.022 1.415.038 2.119.065.772-.239 1.094-1.01 1.078-1.121-.022-2.241 0-3.361 0-3.138 0-6.275 0-9.412-.022-1.43 0-1.447-.065-1.441-1.43.014-3.643 0-7.287 0-10.94l.027-.007zm-20.36-.17V66.593c0-1.34.043-1.34 1.401-1.34 2.689.018 5.378 0 8.053.014 3.554 0 6.169 2.248 6.947 5.73a8.608 8.608 0 01-.97 6.396c-1.161 2.041-2.965 3.102-5.264 3.271a42.94 42.94 0 01-4.356.032c-.863-.025-1.219.283-1.204 1.156.041 2.414 0 4.832.063 7.246.023.84-.249 1.14-1.08 1.087-.821-.05-1.644-.05-2.465 0-.896.05-1.152-.326-1.145-1.185.036-3.796.016-7.58.016-11.372l.004.002zm4.643-4.584h.02v2.566c0 .531.198.846.785.837 1.082-.018 2.187.123 3.238-.054 2.066-.35 3.361-1.208 3.197-3.735-.13-1.903-1.272-2.954-3.433-2.997-.97-.02-1.938 0-2.913-.031-.605-.016-.896.239-.896.85.007.856.002 1.711.002 2.564zm44.879-20.998c.264-.306.594-.574.787-.918 1.142-2.038 2.24-4.1 3.383-6.14.379-.67 2.035-1.036 2.586-.55.191.218.293.5.285.789.011 4.122 0 8.243 0 12.365 0 .596-.236.911-.861.893a5.733 5.733 0 00-.782 0c-.793.074-1.046-.306-1.033-1.056.032-1.786.016-3.572.018-5.347a3.037 3.037 0 000-.556c-.067-.344-.172-.681-.26-1.023a6.878 6.878 0 00-.688.864c-1.169 2.066-2.299 4.151-3.484 6.207-.41.713-1.589 1.133-2.34.86a.965.965 0 01-.551-.683c-.033-4.242-.022-8.467-.027-12.703 0-.513.265-.703.749-.763 1.591-.2 1.873.044 1.871 1.681v5.892l.347.188zm-25.574.292c.372-.614.764-1.217 1.12-1.847 1.011-1.817 1.999-3.646 3.003-5.468.351-.64 1.344-.893 2.288-.67.864.203.658.853.658 1.425 0 3.796 0 7.591-.042 11.372 0 .41-.144 1.132-.325 1.167a4.998 4.998 0 01-1.959-.069c-.15-.031-.253-.645-.248-.989.02-2.117.08-4.242.118-6.352a4.193 4.193 0 00-.103-.63c-1.216.85-1.602 2.128-2.24 3.213-.713 1.22-1.271 2.528-2.017 3.72a3.003 3.003 0 01-1.479 1.215c-1.286.401-1.69.017-1.69-1.316 0-3.867.016-7.734-.011-11.61 0-.802.135-1.264 1.091-1.22 1.361.063 1.569.164 1.569 1.273 0 1.858-.034 3.718-.052 5.582v1.081l.319.123zm80.749-.963v6.015c0 1.06-.092 1.079-1.412 1.117-.805.022-1.295-.148-1.248-1.09.054-1.038.027-2.079.027-3.126 0-.493 0-1.038-.652-1.103-.652-.065-1.403-.116-1.719.67a30.453 30.453 0 00-1.047 2.932 2.407 2.407 0 01-2.152 1.801 2.426 2.426 0 01-.985-.127c-.638-.223-.475-.728-.316-1.116a28.32 28.32 0 011.448-3.086c.648-1.148.733-1.467-.224-2.394-1.972-1.909-1.394-5.827.591-6.982.339-.198.726-.426 1.098-.446 1.934-.076 3.87-.085 5.806-.127.758-.016.807.464.794 1.04-.023 1.003-.018 2.01-.021 3.008-.002.998.012 2.011.012 3.014zm-2.465-2.695c-.175-2.128-.82-2.566-2.833-1.847-.21.076-.412.177-.616.264-.672.281-.896.813-.941 1.505-.04.777.356 1.422.979 1.596a6.561 6.561 0 002.812.186c.29-.047.404-1.103.599-1.704zm-30.874 2.593c0-1.934.022-3.867 0-5.806-.014-.806.165-1.255 1.12-1.21 1.367.06 1.542.15 1.546 1.282 0 1.188.02 2.378 0 3.572 0 .646.253.965.926.954.746-.014 1.492 0 2.241.027.788.03 1.169-.288 1.151-1.117-.022-1.152.018-2.304.016-3.456-.002-1.152.054-1.228 1.154-1.255 1.508-.036 1.569-.016 1.593 1.518.054 3.83.076 7.659.09 11.488 0 1.148-.139 1.226-1.699 1.192-1.091-.024-1.194-.127-1.183-1.25.011-1.123 0-2.306.061-3.456.04-.838-.265-1.206-1.136-1.258-3.223-.185-3.22-.205-3.216 3.004 0 .67-.018 1.34.016 2.01.047.944-.569.982-1.253.964-.683-.018-1.394.096-1.38-.958.027-2.083 0-4.167 0-6.252l-.047.007zm-74.647.089c0 1.002.076 2.01-.018 3.003-.188 2.01-1.255 3.447-3.216 3.954-1.92.498-3.809.324-5.205-1.34a4.497 4.497 0 01-.84-1.786c-.648-2.63-.758-5.278 0-7.913.775-2.695 3.361-3.523 5.651-3.086 2.373.447 3.659 2.858 3.688 4.6.014.855 0 1.708 0 2.563l-.06.005zm-7.063-.407c.107 1.34.123 2.307.278 3.254.165 1.02 1.147 1.735 2.173 1.712.932-.02 1.696-.68 1.806-1.748.144-1.398.209-2.807.224-4.211a5.616 5.616 0 00-.3-1.853 1.95 1.95 0 00-.683-1.003 1.967 1.967 0 00-1.145-.409c-.874-.03-1.659.313-1.867 1.26-.24 1.11-.365 2.237-.486 3.005v-.007zm53.872.525v5.79c0 1.065-.132 1.188-1.241 1.19-1.179 0-1.32-.12-1.322-1.226 0-1.188-.032-2.378.036-3.572.051-.893-.328-1.202-1.175-1.16-.706.047-1.415.047-2.122 0-.932-.073-1.165.416-1.145 1.211.029 1.076.043 2.152.043 3.229 0 1.386-.728 1.924-2.068 1.464a1.064 1.064 0 01-.543-.806c-.031-4.16-.015-8.32-.018-12.479 0-.893.614-.893 1.235-.855.621.038 1.345-.143 1.324.873-.02 1.262.018 2.525-.013 3.796-.02.801.314 1.168 1.12 1.148.807-.02 1.569-.018 2.347 0 .728.024 1.003-.335.994-1.019a265.283 265.283 0 01-.022-3.675c0-.998.146-1.116 1.192-1.116 1.221.022 1.396.178 1.394 1.19v6.008l-.016.01zm49.249 7.01c-1.049.223-1.634-.474-1.932-1.505-.186-.646-.574-.905-1.221-.894-.896.012-1.793.018-2.689-.013-.587-.02-.852.24-1.022.786-.426 1.353-.695 1.54-2.035 1.628-1.068.07-1.243-.094-.974-1.103.304-1.15.672-2.284 1.042-3.412.974-2.92 2.016-5.823 2.94-8.757.264-.83.75-.974 1.496-.974.747 0 1.188.21 1.453 1.028a582.437 582.437 0 004.051 12.01c.435 1.24.437 1.297-1.109 1.206zm-4.289-5.1c.358-.127 1.344.415 1.145-.735-.155-.933-.533-1.833-.849-2.735-.061-.176-.287-.295-.449-.447-.162.17-.3.361-.407.57-.2.585-.272 1.221-.534 1.773-.582 1.257-.448 1.525 1.094 1.574zM159.67 30.86c.637-1.06 1.287-2.115 1.912-3.18.56-.957 1.12-1.915 1.636-2.902.448-.867 1.194-.873 2.005-.824.498.031.74.223.735.752a2486.06 2486.06 0 00-.06 10.921c0 .844-.612.784-1.177.808-.645.03-1.241-.024-1.248-.873-.011-1.523 0-3.045 0-4.568 0-.496-.078-.991-.119-1.485l-.313-.07c-.431.778-.874 1.55-1.289 2.334-.69 1.309-1.344 2.63-2.05 3.932-.343.641-1.811 1.023-2.378.587a1.199 1.199 0 01-.34-.855c-.014-3.528.02-7.058 0-10.586 0-.87.49-.973 1.16-.906.601.06 1.332-.112 1.278.924-.099 1.849-.137 3.702-.191 5.555.017.102.051.2.101.29l.338.146zm-14.101-.668v-5.019c0-1.197.051-1.246 1.147-1.232 1.237.015 1.288.076 1.282 1.219-.016 2.563-.036 5.135-.018 7.694 0 1.297.141 1.393 1.429 1.384 2.42-.022 2.241.36 2.259-2.295.011-2.304.025-4.61-.02-6.922-.018-.81.206-1.16 1.069-1.116 1.131.073 1.299.18 1.295 1.156 0 2.602-.013 5.203-.034 7.815 0 .67 0 1.253.897 1.403.224.037.497.535.511.832.051 1.117 0 2.233 0 3.35 0 .54-.263.855-.816.824-.554-.032-1.248.196-1.522-.588a1.927 1.927 0 01-.069-.446c-.15-1.822-.148-1.818-1.961-1.822-1.453 0-2.908-.01-4.365-.03-1.12 0-1.237-.156-1.221-1.312.022-1.635 0-3.269 0-4.912l.137.017zm105.423.054v5.135c0 .985-.108 1.063-1.344 1.068-1.065 0-1.244-.145-1.237-1.088 0-.893.074-1.786.015-2.68-.018-.296-.34-.812-.522-.81-.379 0-.932.181-1.098.467a16.313 16.313 0 00-1.149 2.615c-.469 1.317-1.806 1.973-3.07 1.382-.155-.074-.274-.56-.186-.755.515-1.134 1.093-2.233 1.66-3.35.247-.484.224-.814-.224-1.252-1.949-1.916-1.806-5.3.737-6.723a2.398 2.398 0 011.069-.261c1.455-.043 2.913-.02 4.363-.065.8-.022 1.013.33.993 1.083-.045 1.744-.014 3.492-.014 5.238l.007-.004zm-2.521-2.398c-.018-1.766-.04-1.787-1.499-1.787-1.078 0-2.017.818-2.017 1.744 0 1.083.872 1.693 2.409 1.686 1.04.002 1.134-.12 1.107-1.643zm-18.347 2.329c0 1.71-.049 3.423.018 5.135.038.96-.405 1.132-1.214 1.101-1.121-.045-1.278-.165-1.273-1.183.004-1.018 0-2.01.018-3.012 0-.641-.271-.963-.946-.934-2.913.13-2.572-.551-2.613 2.479v1.002c.018 1.563-.569 2.034-2.108 1.577a1.14 1.14 0 01-.614-.864c-.018-3.573.027-7.146.047-10.718 0-.547.224-.84.804-.802.224.016.449 0 .673.012 1.194.03 1.18.03 1.169 1.187 0 .967.027 1.934.025 2.903 0 .735.504.971 1.033.78.825-.3 2.198.875 2.465-.784.172-1.054.11-2.153.074-3.229-.025-.808.417-.958 1.053-.893.598.067 1.434-.26 1.414.88-.034 1.786 0 3.572 0 5.358l-.025.005zm-15.427 21.182v5.582c0 1.485-.045 1.534-1.345 1.53-1.219 0-1.284-.085-1.275-1.494 0-.855-.042-1.715.018-2.566.061-.85-.342-1.045-1.068-.98-.727.065-1.486.118-2.23.168-1.665.113-3.381-1.309-3.404-3.127-.022-1.817-.011-3.572-.027-5.358 0-.56.262-.82.809-.829.298 0 .598.012.896-.017.821-.083 1.146.285 1.139 1.094-.014 1.375.018 2.75.047 4.126.022 1.063.338 1.373 1.414 1.438.186.007.372.002.558-.016 1.792-.154 1.804-.154 1.817-1.967 0-1.228.04-2.456 0-3.682-.027-.833.401-1.045 1.109-.98.659.06 1.528-.203 1.526.94v6.136l.016.002zm-69.576-.072c0-.78-.029-1.563 0-2.34.173-3.76 3.476-5.806 6.958-4.48 1.479.561 2.349 1.787 2.689 3.35.045.208-.211.62-.426.719-.954.446-2.003.085-2.601-.79-.838-1.226-1.737-1.439-2.913-.641-.267.186-.47.448-.583.752-.748 2.215-.695 4.466-.103 6.699.242.908 1.011 1.321 1.84 1.386.829.065 1.476-.41 1.855-1.177.417-.841 2.27-1.279 2.947-.67a.477.477 0 01.159.369c-.551 1.88-1.869 4.133-4.482 4.062-1.344-.036-2.646-.065-3.751-1.081-1.174-1.08-1.479-2.456-1.6-3.908-.063-.736-.011-1.484-.011-2.233l.022-.017zm42.335-21.055v5.013c0 1.083-.101 1.17-1.235 1.181-1.189 0-1.328-.103-1.344-1.208 0-.965.014-1.932.042-2.903.023-.685-.224-1.047-.968-1.027-3.029.085-2.516-.35-2.507 2.425 0 .594.02 1.188.043 1.786.035.972-.648.914-1.296.911-.647-.002-1.281-.02-1.277-.962.014-3.528.014-7.056 0-10.584 0-.768.41-.949 1.062-.935.652.013 1.403-.065 1.432.94.029 1.005.103 2.01.101 3.005 0 .773.341 1.052 1.093 1.02 2.367-.098 2.331.592 2.295-2.194a12.54 12.54 0 01.02-1.563c.043-.378.157-1.023.336-1.059a4.53 4.53 0 011.849.054c.17.038.289.63.296.97.029 1.707.013 3.415.013 5.135l.045-.005zm-63.437-.146V25.07c0-1.043.107-1.079 1.308-1.117.807-.02 1.282.139 1.208 1.097-.074.958-.015 1.931-.022 2.902 0 .639.262.943.943.934 3.189-.043 2.561.335 2.618-2.457v-1.116c.017-1.286.685-1.786 1.906-1.3.274.11.5.684.507 1.048.051 2.934.047 5.87.058 8.804 0 .37.011.741.011 1.116 0 1.302-.813 1.858-2.016 1.306-.24-.109-.449-.562-.449-.868-.049-1.036-.029-2.079 0-3.126.025-.685-.224-1.05-.945-1.052-3.054 0-2.622-.352-2.689 2.425a22.18 22.18 0 00.016 1.786c.058 1.072-.727.91-1.374.963-.726.06-1.121-.186-1.098-.996.031-1.786 0-3.573 0-5.348l.018.014zm52.618.308c-.04.78-.109 1.563-.114 2.338-.022 3.666-4.069 4.646-6.498 3.313a3.06 3.06 0 01-1.52-1.942 13.06 13.06 0 01.112-8.3c.316-.909 1.029-1.355 1.715-1.62 2.577-1.001 5.808-.224 6.193 2.984.128 1.066.112 2.148.162 3.222l-.05.005zm-2.561.071h-.013c0-.924.049-1.85-.016-2.77-.049-.69-1.273-1.744-1.829-1.689-.701.074-1.474 1.056-1.588 1.85-.224 1.506-.312 2.996-.018 4.514.195 1.014.995 1.945 1.806 1.884.811-.06 1.62-1.009 1.654-2.01.031-.593.004-1.187.004-1.779zm34.812-.186v5.017c0 1.031-.103 1.116-1.282 1.116-1.062 0-1.212-.147-1.212-1.116V28.05c0-.332-.043-.67-.034-1 .027-1.012-.645-.927-1.358-.962-.798-.038-1.04.27-1.071 1.016a139.743 139.743 0 01-.336 5.557 6.465 6.465 0 01-.406 1.728c-.661 1.764-1.727 2.325-3.574 1.992-.65-.116-.867-.447-.518-.996.35-.55.812-1.007 1.208-1.52.305-.393.787-.78.845-1.213.202-1.5.276-3.02.347-4.535.052-1.076.041-2.154.023-3.233 0-.652.242-.947.921-.94 1.792.02 3.585.02 5.378 0 .795-.013 1.12.257 1.095 1.117-.062 1.743-.02 3.492-.02 5.238l-.006-.02zm-66.121 6.126c-.711.07-1.361-.257-1.585-1.237-.127-.56-.529-.748-1.093-.71-.596.05-1.195.062-1.793.038-.896-.047-1.486.178-1.654 1.197-.112.683-1.149 1.011-2.059.72-.831-.263-.484-.872-.311-1.37.99-2.874 2.003-5.738 3-8.61.131-.346.22-.707.264-1.074.088-.947.623-1.34 1.531-1.422.907-.083 1.12.433 1.358 1.116 1.12 3.412 2.272 6.815 3.41 10.222.339 1.003.207 1.172-1.068 1.13zm-4.811-4.604c.448.049.954.127 1.463.152.598.027.86-.344.672-.86-.305-.822-.722-1.603-1.091-2.402l-.325.067-.719 3.043zm98.796-7.846c.672-.078.997.248 1.195 1.023.354 1.377.916 2.717 1.364 4.081.706 2.108 1.392 4.22 2.095 6.328.224.648.041.976-.672 1.038-1.181.103-1.674-.172-2.017-1.34-.139-.468-.331-.685-.84-.67-.854.043-1.712.043-2.568.045-.607 0-.946.264-1.098.876-.202.824-1.586 1.444-2.281.995-.224-.138-.361-.67-.273-.933.721-2.255 1.505-4.49 2.272-6.732.405-1.19.847-2.369 1.214-3.572.325-1.077.372-1.148 1.609-1.14zm-.172 4.729l-.348.031c-.152.67-.224 1.358-.47 1.992-.462 1.232-.5 1.22.862 1.244.184 0 .433.087.54 0 .211-.175.532-.507.478-.67-.3-.88-.697-1.733-1.062-2.597zm-39.217 7.692c-.634.092-1.027-.283-1.228-.929-.247-.786-.737-1.154-1.598-.989-.332.054-.67.054-1.002 0-1.039-.143-1.81.04-2.101 1.24-.142.582-1.869.986-2.356.575-.172-.145-.224-.605-.132-.861.843-2.58 1.739-5.138 2.602-7.715.273-.808.502-1.632.804-2.43.269-.71.608-1.339 1.569-1.339s1.246.67 1.486 1.398c.923 2.828 1.84 5.652 2.751 8.471.139.462.243.934.312 1.411.159 1.01-.007 1.197-1.107 1.168zm-4.5-4.867c-.105.337.265.48.726.446.504-.033 1.271.194 1.208-.694a10.044 10.044 0 00-.473-2.039c-.06-.203-.28-.362-.428-.54-.168.17-.426.312-.486.513-.202.675-.332 1.367-.547 2.314zm18.513-1.421v-5.01c0-.983.173-1.117 1.19-1.148.771-.02 1.313.123 1.248 1.092-.054.848.049 1.708 0 2.559-.049.85.314 1.132 1.12 1.06a9.902 9.902 0 011.569 0c1.842.13 3.372 1.769 3.415 3.633.051 2.266-1.188 3.878-3.234 4.041-1.407.112-2.825.063-4.241.083-.814 0-1.078-.395-1.056-1.192.052-1.706.016-3.417.016-5.125l-.027.007zm3.561.837c-1.071-.06-1.157.018-1.143 1.07 0 .297.018.594.022.893.016 1.34.35 1.612 1.692 1.416 1.152-.166 1.898-.916 1.846-1.854-.051-.937-.625-1.395-1.859-1.518-.184-.022-.372-.007-.558-.007zm-53.111 21.773v4.568c0 1.157-.092 1.229-1.302 1.22-1.21-.01-1.325-.125-1.322-1.235 0-2.71.006-5.421.018-8.132 0-.373-.034-.744-.027-1.117.015-.844-.381-1.232-1.233-1.147-.186.02-.372.018-.558.027-1.402.073-1.591-.155-1.548-1.563.025-.766.347-1.068 1.084-1.066 2.465 0 4.919-.017 7.377.014.979.013 1.134.266 1.087 1.375-.047 1.11-.204 1.289-1.221 1.226-2.445-.15-2.36-.397-2.362 2.367v3.463h.007zm-35.133.061c0 1.599.02 3.2 0 4.796-.018.97-.078.936-1.647 1.016-.795.04-.975-.324-.975-.978 0-4.168-.007-8.332-.022-12.493 0-.551.224-.806.798-.801 2.164.02 4.327 0 6.498.02 1.058 0 1.217.192 1.194 1.14-.031 1.222-.246 1.481-1.275 1.481-1.156 0-2.312 0-3.469-.031-.757-.022-1.089.297-1.08 1.054.021 1.599 0 3.197 0 4.796h-.022z" fill="#D7D7D7"/></svg>