<svg width="923" height="470" viewBox="0 0 923 470" fill="none" xmlns="http://www.w3.org/2000/svg">
<g clip-path="url(#clip0_584_2695)">
<path fill-rule="evenodd" clip-rule="evenodd" d="M746.894 -481.106C741.881 -458.29 723.588 -433.658 689.836 -404.276C677.666 -393.681 665.086 -383.212 664.425 -383.128C664.075 -383.083 661.928 -381.513 659.654 -379.638C644.879 -367.457 618.005 -348.662 549.298 -302.46C510.39 -276.295 476.701 -253.495 474.434 -251.791C446.037 -230.461 435.228 -220.482 431.495 -212.149C425.638 -199.075 438.42 -194.014 473.103 -195.675C490.217 -196.495 501.063 -196.603 536.828 -196.309C608.473 -195.721 646.138 -184.826 648.797 -163.923C650.802 -148.164 631.288 -122.956 592.505 -91.201C586.22 -86.0554 578.861 -79.9683 576.151 -77.6729C573.441 -75.3786 563.227 -67.2214 553.451 -59.5456C543.675 -51.8709 534.933 -44.9879 534.022 -44.2513C533.113 -43.5147 530.333 -41.401 527.844 -39.5537C525.355 -37.7063 522.579 -35.5752 521.674 -34.8179C520.77 -34.0605 517.76 -31.7552 514.985 -29.6965C512.211 -27.6378 507.164 -23.8089 503.771 -21.1884C500.377 -18.5678 495.042 -14.5681 491.915 -12.2997C480.179 -3.7863 474.344 0.736437 473.211 2.19907C472.568 3.02932 471.614 3.76265 471.089 3.82938C470.564 3.89611 455.206 15.1924 436.959 28.9333C418.712 42.673 401.92 55.2488 399.643 56.8806C397.366 58.5114 394.812 60.4111 393.968 61.101C393.125 61.7919 379.909 71.7566 364.6 83.2452C315.751 119.905 249.827 170.434 230.834 185.773C226.328 189.414 219.18 195.141 214.949 198.503C195.543 213.922 189.475 218.882 162.269 241.569C132.84 266.11 85.3664 309.079 72.062 323.219C70.3788 325.008 67.248 328.218 65.104 330.354C59.1296 336.307 50.0205 346.372 41.4395 356.506C20.7223 380.97 8.75624 399.958 3.15321 417.255C-0.386212 428.181 0.358201 441.213 4.9009 447.876C13.8168 460.952 30.8622 468.396 54.1012 469.365C96.2342 471.12 151.945 464.784 268.887 444.94C282.567 442.619 305.974 438.864 320.903 436.595C335.832 434.328 350.554 431.659 353.619 430.666C360.637 428.39 363.209 425.116 361.165 421.062C359.829 418.413 360.047 417.892 363.821 414.712C366.082 412.806 374.894 403.558 383.404 394.159C391.913 384.761 405.477 369.881 413.547 361.094C421.617 352.306 428.698 344.547 429.281 343.852C429.866 343.157 433.245 339.429 436.791 335.566C440.337 331.705 443.453 328.239 443.716 327.866C443.979 327.491 450.66 320.085 458.562 311.406C466.464 302.727 473.675 294.803 474.587 293.796C476.044 292.185 476.685 292.212 479.905 294.012C486.711 297.818 494.962 293.731 499.556 284.281C501.412 280.463 501.548 279.156 500.327 276.868C496.965 270.565 491.806 271.531 483.978 279.928C478.514 285.789 477.936 286.146 477.648 283.837C477.089 279.37 478.518 272.776 480.785 269.344C482.959 266.056 483.077 266.02 490.018 266.417C493.885 266.639 497.675 266.483 498.441 266.072C499.207 265.662 501.136 262.521 502.729 259.094C508.04 247.666 512.973 238.476 519.972 226.973L526.909 215.572L529.869 218.376C533.893 222.187 533.861 223.562 529.721 224.957C522.728 227.314 522.433 227.587 522.902 231.272C523.486 235.865 521.537 248.475 519.269 254.78C517.091 260.835 517.029 260.407 520.429 262.876C523.703 265.255 528.181 266.609 540.102 268.826C554.512 271.507 586.849 273.558 596.172 272.382C598.465 272.093 600.393 272.27 600.457 272.776C600.522 273.282 599.709 276.957 598.649 280.943C596.481 289.11 595.566 294.896 593.069 316.242C590.48 338.383 588.758 342.138 573.689 358.508C558.824 374.656 552.738 383.91 548.895 396.204C546.767 403.012 546.767 403.012 544.34 400.992C540.322 397.649 535.051 396.303 528.96 397.068C519.749 398.224 514.736 397.882 514.507 396.081C513.784 390.401 523.602 372.839 539.778 350.878C552.13 334.107 560.811 315.998 561.741 305.064C562.337 298.051 560.322 289.84 557.858 289.237C555.383 288.632 553.589 291.936 549.962 303.784C542.856 326.99 536.154 345.17 533.577 348.23C532.079 350.01 525.83 355.509 519.69 360.451C501.852 374.812 494.078 384.649 487.107 401.687C485.566 405.452 484.059 408.566 483.76 408.604C483.46 408.642 480.352 407.781 476.853 406.69C473.354 405.598 469.187 404.549 467.594 404.358C463.811 403.906 463.196 399.486 465.651 390.401C468.077 381.416 470.83 377.284 477.965 371.916C485.15 366.51 488.343 362.059 492.071 352.253C496.031 341.837 498.357 339.797 506.369 339.709C512.441 339.642 512.873 339.465 514.339 336.459C515.83 333.402 515.782 333.168 513.089 330.355C511.549 328.746 510.263 327.216 510.23 326.955C510.196 326.694 511.806 321.431 513.805 315.259C515.805 309.087 517.852 301.784 518.354 299.03C518.855 296.277 519.677 291.685 520.18 288.828C520.682 285.97 520.68 280.382 520.174 276.411C519.376 270.136 518.988 269.224 517.208 269.451C514.774 269.76 513.935 273.177 512.344 289.26C509.672 316.279 506.953 322.168 488.777 340.304C478.399 350.659 473.676 356.616 469.428 364.709C465.191 372.779 460.299 386.6 458.548 395.443C457.918 398.627 456.587 403.024 455.589 405.215C454.187 408.295 454.115 409.455 455.271 410.335C456.418 411.211 457.053 410.957 458.012 409.24C459.337 406.869 462.828 406.43 463.827 408.507C464.192 409.267 462.129 410.537 458.506 411.783C449.736 414.798 449.708 418.81 458.43 422.506C465.103 425.333 484.067 429.148 487.195 428.292C491.608 427.084 490.401 423.33 484.175 418.904C481.084 416.707 478.769 414.883 479.03 414.85C479.29 414.817 483.623 415.536 488.658 416.449C514.576 421.148 552.316 423.311 575.325 421.418C587.792 420.392 589.92 419.932 595.107 417.134C604.56 412.035 634.782 406.976 723.375 395.659C799.346 385.953 812.543 384.679 854.457 382.994C869.925 382.371 910.767 382.883 921.758 383.835C942.4 385.625 947.514 386.296 961.955 389.113C1004.9 397.491 1030.8 414.203 1039.57 439.191C1042.21 446.735 1044.08 448.769 1043.39 443.361C1042.75 438.327 1039.75 431.649 1034.59 423.779C1026.66 411.684 1004.21 397.087 986.682 392.629C984.115 391.977 981.053 391.051 979.878 390.573C972.484 387.565 936.594 381.788 921.633 381.198C918.083 381.058 910.828 380.699 905.51 380.4C887.186 379.368 847.372 380.29 813.179 382.538C774.386 385.089 671.357 398.477 618.014 407.899L600.146 411.056L597.988 407.307C594.541 401.321 591.749 400.897 584.588 405.27C579.132 408.602 577.14 409.149 564.241 410.861C556.378 411.906 549.066 413.241 547.993 413.828C542.372 416.909 556.742 418.063 580.672 416.454C593.996 415.558 594.176 415.579 587.85 417.307C575.103 420.788 530.974 420.076 502.351 415.929C496.972 415.149 491.174 414.373 489.466 414.203C486.15 413.873 486.082 413.414 488.259 406.12C493.055 390.059 505.823 374.021 525.988 358.729C535.696 351.365 538.246 347.205 544.706 328.184C551.574 307.956 553.757 301.143 554.835 296.554C556.54 289.308 560.011 295.11 559.188 303.831C558.492 311.224 554.702 322.073 549.898 330.428C545.398 338.254 543.465 341.142 532.711 356.093C516.489 378.65 506.629 401.179 513.352 400.324C515.868 400.003 515.578 401.814 512.723 404.251C509.979 406.591 509.757 409.945 512.238 411.522C515.517 413.604 526.751 415.703 533.426 415.48C542.873 415.163 546.123 413.805 545.685 410.357C545.324 407.521 540.998 404.483 533.284 401.646C530.375 400.577 529.67 399.935 530.922 399.495C533.967 398.425 541.543 401.625 544.794 405.354C548.968 410.141 549.744 410.083 549.908 404.974C550.299 392.78 556.817 382.075 581.515 353.069C590.526 342.485 593.583 335.761 594.638 324.198C595.206 317.966 595.496 317.445 599.869 314.807C602.415 313.271 606.214 310.261 608.311 308.118C611.099 305.269 613.304 304.073 616.521 303.663C629.526 302.009 634.5 295.105 636.931 275.337C637.529 270.476 638.663 261.673 639.452 255.775C641.399 241.232 641.941 226.883 641.155 210.786C640.326 193.839 637.844 173.71 636.508 173.102C635.949 172.847 635.907 176.505 636.417 181.23C637.624 192.435 639.189 228.33 638.851 237.043C638.449 247.381 632.935 285.02 631.059 290.235C630.148 292.767 628.794 295.49 628.049 296.287C626.596 297.842 617.455 301.46 616.618 300.812C616.34 300.597 617.595 298.815 619.406 296.852C625.064 290.719 626.183 288.579 625.703 284.806C625.318 281.776 624.717 281.087 622.196 280.784L619.153 280.42L617.043 258.408L614.932 236.395L617.648 230.083C621.3 221.596 626.918 205.588 626.739 204.178C626.251 200.344 616.783 207.554 615.889 212.441C615.654 213.733 615.187 214.578 614.853 214.319C614.519 214.061 615.338 210.151 616.674 205.629C618.01 201.109 619.033 196.868 618.949 196.206C618.739 194.554 616.902 194.925 616.412 196.719C609.689 221.348 607.578 232.369 607.173 244.941C607.044 248.947 605.672 256.087 604.124 260.807L601.309 269.387L595.328 269.579C584.976 269.911 571.566 269.735 563.295 269.16C543.628 267.791 523.156 263.343 521.389 260.054C520.935 259.21 521.398 256.205 522.419 253.376C524.648 247.197 525.993 238.067 525.392 233.198C524.989 229.932 525.347 229.485 529.929 227.538C536.623 224.694 537.68 222.24 533.911 218.3L531.01 215.268L533.501 213.142C534.871 211.973 536.134 209.44 536.307 207.512C536.482 205.563 538.378 201.92 540.577 199.303C544.619 194.494 544.546 192.033 540.376 192.564C538.947 192.745 538.241 192.281 538.477 191.314C542.684 174.124 543.074 153.185 539.311 146.604C535.018 139.095 528.133 140.93 521.286 151.405C507.765 172.095 482.611 233.011 478.514 254.987C477.763 259.017 477.934 259.613 480.45 261.689C483.051 263.834 483.097 264.021 481.257 264.892C477.946 266.458 475.076 274.225 474.741 282.532C474.496 288.578 473.849 291.008 471.972 292.947C470.624 294.338 468.18 296.998 466.541 298.859C464.901 300.718 460.884 305.093 457.614 308.58C454.344 312.068 450.954 315.801 450.08 316.876C449.206 317.952 447.426 319.938 446.124 321.29C442.627 324.923 431.933 336.629 431.381 337.428C431.119 337.808 423.101 346.686 413.564 357.157C394.866 377.685 375.953 398.511 371.938 402.991C370.565 404.523 366.667 408.313 363.274 411.413C358.042 416.196 356.736 416.909 354.657 416.116C350.318 414.46 347.574 415.446 347.965 418.52C348.329 421.381 351.1 422.354 355.649 421.218C357.154 420.843 358.037 421.399 358.477 422.999C359.564 426.947 354.224 428.527 322.232 433.728C305.802 436.399 279.923 440.7 264.724 443.285C249.525 445.871 210.122 451.718 177.162 456.279C99.9847 466.957 68.8168 469.149 43.6311 465.67C20.6883 462.502 5.54204 451.398 3.55333 436.289C2.26759 426.52 6.94796 410.333 15.0322 396.588C18.5716 390.57 45.9265 354.581 51.6392 348.426C84.6991 312.808 125.473 275.308 180.544 229.875C184.76 226.397 189.934 222.122 192.04 220.376C201.244 212.748 204.214 210.345 215.846 201.113C222.616 195.741 229.763 190.002 231.728 188.359C233.693 186.717 245.476 177.476 257.912 167.824C292.008 141.361 297.14 137.409 302.436 133.538C307.415 129.898 329.739 112.863 332.506 110.593C334.68 108.808 389.183 67.8958 406.213 55.2637C411.321 51.4756 417.118 47.1078 419.095 45.5593C421.071 44.0107 423.394 42.2974 424.257 41.7531C428.482 39.0854 531.816 -39.1289 549.931 -53.3711C578.118 -75.5322 610.439 -102.614 610.992 -104.533C611.136 -105.031 611.738 -105.501 612.332 -105.576C612.924 -105.652 616.669 -108.834 620.654 -112.649C640.888 -132.016 650.891 -147.689 651.267 -160.612C651.846 -180.557 631.256 -191.632 584.818 -196.355C575.693 -197.284 563.127 -198.196 556.892 -198.384C550.657 -198.572 540.964 -198.862 535.352 -199.031C529.741 -199.2 520.331 -199.266 514.441 -199.18C508.552 -199.093 492.321 -198.851 478.372 -198.642C464.423 -198.435 450.441 -198.491 447.3 -198.769C440.42 -199.377 434.277 -201.914 432.996 -204.677C431.736 -207.398 433.834 -212.758 437.925 -217.272C444.713 -224.759 446.228 -226.215 453.238 -231.991C463.395 -240.358 464.863 -241.505 470.684 -245.62C473.542 -247.641 477.735 -250.697 480.001 -252.413C482.267 -254.129 512.918 -274.845 548.114 -298.448C600.831 -333.804 631.905 -355.154 642.62 -363.383C643.469 -364.035 649.268 -368.384 655.507 -373.047C667.232 -381.81 671.006 -384.861 688.274 -399.542C721.344 -427.657 744.561 -457.104 748.014 -475.313C748.912 -480.048 747.859 -485.496 746.894 -481.106ZM578.262 71.9214C565.209 78.3492 557.398 94.265 560.591 107.933C562.805 117.413 573.74 133.005 577.81 132.487C579.803 132.234 579.346 130.748 575.917 126.327C571.845 121.08 570.476 111.152 573.168 106.397C575.721 101.883 577.305 101.359 578.969 104.478C581.683 109.566 589.297 111.283 594.08 107.885C596.095 106.452 597.231 106.948 602.358 111.487L605.328 114.116L602.925 119.881C598.972 129.369 595.636 134.22 591.186 136.948C585.145 140.652 581.591 139.312 570.739 129.239C560.624 119.85 557.17 117.801 552.646 118.508C544.204 119.827 533.372 132.823 536.25 138.18C536.714 139.043 541.762 141.337 547.465 143.277C560.217 147.612 573.204 156.911 576.219 163.864C580.979 174.844 580.833 204.116 575.936 220.776C575.116 223.564 572.519 240.836 571.913 247.534C571.711 249.768 572.068 250.619 573.15 250.481C575.666 250.161 584.201 222.69 590.859 193.479C595.633 172.536 601.454 158.106 608.993 148.524C614.148 141.971 616.887 141.109 621.599 144.555C625.235 147.215 625.394 147.609 625.816 154.929C626.122 160.244 626.613 162.366 627.446 161.969C628.101 161.656 628.71 159.654 628.797 157.52C628.985 152.952 629.865 154.155 632.803 163.006C633.938 166.42 635.378 169.448 636.003 169.733C638.157 170.712 634.197 157.597 629.805 149.2C624.731 139.503 624.891 140.044 627.015 139.774C629.267 139.487 628.983 138.357 625.008 131.772C623.121 128.646 619.993 125.273 617.975 124.192C615.772 123.012 613.468 120.413 612.125 117.594C610.011 113.159 610.009 112.757 612.083 108.827C614.06 105.082 614.1 103.979 612.522 96.6353C610.31 86.3416 605.877 77.9053 601.043 74.7872C593.786 70.1079 584.356 68.9211 578.262 71.9214ZM591.018 73.4086C598.861 75.0005 603.264 78.5017 606.562 85.764L607.7 88.2733L601.926 85.8087C597.362 83.8607 594.787 83.5177 589.635 84.1732C583.88 84.9053 582.851 85.4054 580.845 88.4398C579.596 90.3304 578.732 93.1258 578.926 94.6511C579.183 96.6773 578.491 97.8151 576.356 98.8781C572.2 100.948 568.407 109.612 569.139 115.365C569.908 121.412 568.457 121.405 565.983 115.35C561.394 104.122 562.006 93.1101 567.685 84.7283C573.92 75.5252 582.04 71.5854 591.018 73.4086ZM600.635 87.7565C602.253 88.2697 604.833 90.0614 606.369 91.7366C608.745 94.3276 609.098 95.4939 608.745 99.5587C608.052 107.528 607.962 107.606 603.709 103.849C600.056 100.623 599.255 100.409 593.541 101.136C588.701 101.752 586.704 101.466 584.457 99.8376C580.858 97.2262 580.365 93.8472 583.042 90.1268C584.865 87.5943 585.86 87.226 591.401 87.0369C594.861 86.9185 599.016 87.2422 600.635 87.7565ZM593.229 103.429C598.12 102.81 599.386 103.097 601.659 105.336C605.736 109.349 605.103 110.933 600.967 107.067C597.427 103.758 597.239 103.721 592.747 105.491C587.478 107.564 583.495 107.028 581.307 103.95C579.047 100.771 579.391 100.539 583.584 102.415C586.137 103.558 589.456 103.907 593.229 103.429ZM561.094 124.325C563.616 126.415 568.484 130.662 571.911 133.762C579.913 141 584.616 142.661 590.412 140.297C592.757 139.34 594.697 138.729 594.724 138.939C594.75 139.149 593.264 142.696 591.421 146.822C588.641 153.043 583.825 168.667 584.077 170.648C584.115 170.947 584.783 171.11 585.561 171.011C586.339 170.912 587.709 168.926 588.605 166.597C591.539 158.981 604.163 143.834 608 143.326C608.466 143.265 606.273 147.459 603.127 152.646C595.355 165.462 592.232 174.79 585.51 205.275C582.629 218.334 577.665 234.611 576.772 233.92C576.425 233.651 576.816 230.111 577.642 226.053C582.725 201.048 583.071 197.164 581.662 180.926C580.386 166.236 580.073 164.788 577.223 160.414C572.155 152.637 561.349 145.221 548.97 141.023C542.966 138.987 537.996 136.873 537.926 136.324C537.686 134.441 544.961 125.036 548.108 123.158C553.424 119.986 556.156 120.232 561.094 124.325ZM610.572 119.639C611.262 121.749 610.638 122.675 606.859 125.157L602.317 128.139L603.83 124.329C607.109 116.068 608.982 114.766 610.572 119.639ZM616.209 131.023C617.924 133.927 619.086 136.827 618.796 137.467C618.505 138.106 616.172 138.907 613.612 139.246C607.389 140.071 600.436 144.505 595.394 150.864C593.12 153.734 591.21 155.702 591.151 155.24C590.79 152.4 598.652 136.984 603.016 131.975C609.464 124.574 612.285 124.371 616.209 131.023ZM621.912 131.467C624.962 135.574 625.241 138.301 622.385 136.09C620.571 134.686 616.978 127.505 618.022 127.372C618.449 127.317 620.199 129.161 621.912 131.467ZM536.897 148.699C538.897 152.127 539.203 154.068 539.247 163.622C539.338 183.502 536.763 191.397 525.611 205.414L517.398 215.74L511.531 213.474C507.273 211.83 505.371 211.586 504.599 212.583C502.987 214.663 505.167 218.209 509.102 219.904C511.033 220.736 512.644 221.685 512.68 222.012C512.717 222.339 510.883 224.01 508.606 225.724C504.427 228.87 499.034 238.466 499.446 242.023C499.567 243.063 499.441 246.556 499.166 249.784C498.733 254.874 498.197 255.924 495.127 257.691C488.969 261.234 481.545 261.266 481.098 257.75C480.795 255.367 483.777 244.024 487.827 232.157C498.161 201.88 522.906 149.29 528.224 146.304C532.101 144.126 534.637 144.828 536.897 148.699ZM624.674 166.653C624.481 168.258 624.704 169.866 625.168 170.226C626.257 171.068 627.734 167.925 627.435 165.402C627.084 162.436 625.07 163.348 624.674 166.653ZM623.124 175.761C623.245 176.713 623.844 177.429 624.455 177.352C625.067 177.274 625.507 176.74 625.434 176.165C625.36 175.59 624.761 174.874 624.102 174.574C623.443 174.275 623.003 174.809 623.124 175.761ZM621.554 181.174C621.636 181.82 622.164 181.978 622.727 181.522C623.291 181.067 623.723 180.475 623.689 180.205C623.655 179.935 623.127 179.778 622.515 179.856C621.904 179.934 621.471 180.527 621.554 181.174ZM537.562 198.627C536.125 200.084 534.619 203.272 534.213 205.71C533.759 208.45 532.529 210.729 530.993 211.679C529.628 212.524 528.482 213 528.449 212.736C528.225 210.977 537.048 196.374 538.442 196.196C539.628 196.045 539.352 196.809 537.562 198.627ZM618.629 189.466C618.388 190.786 618.554 192.146 618.999 192.491C619.939 193.218 621.534 190.237 621.301 188.195C621.042 185.94 619.105 186.861 618.629 189.466ZM527.276 209.187C526.909 210.011 523.618 215.636 519.961 221.689C516.305 227.742 511.117 236.783 508.433 241.781C501.871 254.001 501.789 254.091 502.001 248.808C502.512 236.055 505.198 230.363 512.757 226.013C517.312 223.392 517.009 221.407 511.573 218.261C506.411 215.271 506.613 213.614 511.802 216.395C515.36 218.303 521.271 218.458 521.04 216.639C520.974 216.119 522.224 213.928 523.819 211.77C526.778 207.765 528.47 206.501 527.276 209.187ZM620.204 216.348C616.499 226.098 614.419 227.507 616.702 218.72C618.204 212.937 621.175 207.119 622.727 206.922C623.339 206.844 622.204 211.086 620.204 216.348ZM612.601 230.505C612.483 235.763 611.303 240.615 610.325 239.858C610.056 239.649 610.053 237.701 610.321 235.529C610.589 233.357 610.941 230.166 611.104 228.437C611.598 223.197 612.729 224.759 612.601 230.505ZM499.303 260.44C498.54 262.899 497.647 263.462 493.837 263.889L489.284 264.398L494.508 261.075C497.381 259.246 499.841 257.695 499.974 257.626C500.107 257.557 499.806 258.824 499.303 260.44ZM616.309 277.282C616.161 280.043 615.195 281.38 611.882 283.412C605.648 287.233 601.105 299.292 605.197 301.153C607.523 302.211 606.756 304.87 603.472 307.134C601.644 308.394 599.53 310.224 598.773 311.201C598.017 312.178 597.155 312.79 596.859 312.56C594.802 310.968 601.703 275.588 605.271 269.431C606.475 267.352 608.388 261.01 609.521 255.338C610.654 249.667 611.665 244.763 611.766 244.439C612.197 243.075 616.482 274.061 616.309 277.282ZM497.025 276.519C499.455 278.788 498.352 282.997 494 288.063C489.938 292.792 486.323 294.137 482.057 292.509C478.283 291.068 479.036 288.818 485.578 281.992C492.102 275.185 494.413 274.079 497.025 276.519ZM517.671 288.018C517.079 294.59 513.649 309.25 512.848 308.63C512.593 308.432 513.043 303.401 513.85 297.448C514.656 291.494 515.579 283.797 515.901 280.341C516.456 274.383 516.533 274.257 517.362 277.898C517.844 280.009 517.983 284.563 517.671 288.018ZM623.297 285.146C623.659 286.25 622.757 288.748 621.271 290.754C618.064 295.082 616.577 295.562 617.525 291.965C617.906 290.52 618.342 287.891 618.493 286.123C618.804 282.475 622.195 281.786 623.297 285.146ZM616.132 287.627C615.944 290.801 614.349 295.025 611.891 298.854C609.945 301.885 605.783 300.259 606.43 296.721C607.15 292.786 610.502 286.486 612.271 285.745C615.787 284.272 616.315 284.529 616.132 287.627ZM508.19 324.714C508.028 327.431 508.598 329.33 510.058 330.936C513.902 335.164 513.157 336.081 505.338 336.741C498.681 337.304 497.921 337.628 495.063 341.128C493.364 343.207 491.027 347.543 489.868 350.764C486.472 360.207 484.252 363.34 476.878 369.1C473.046 372.093 468.862 376.259 467.58 378.358C464.413 383.54 465.386 379.344 469.3 370.933C474.571 359.61 476.742 356.814 497.016 335.235C501.653 330.299 505.928 325.056 506.516 323.585C508.004 319.855 508.457 320.161 508.19 324.714ZM461.372 401.093C461.232 403.063 460.676 404.474 460.137 404.229C459.598 403.982 459.492 402.201 459.901 400.268C460.837 395.857 461.709 396.348 461.372 401.093ZM475.511 409.128C478.398 409.851 481.604 411.084 482.636 411.868C483.667 412.652 483.987 413.168 483.346 413.014C482.705 412.859 478.905 411.944 474.9 410.979C470.896 410.015 467.557 408.739 467.481 408.145C467.406 407.551 468.001 407.233 468.803 407.439C469.606 407.647 472.624 408.406 475.511 409.128ZM527.439 402.618C538.955 404.951 546.969 411.851 539.297 412.827C534.381 413.452 520.3 412.104 516.24 410.62C511.913 409.038 512.023 407.571 516.716 404.23C521.015 401.17 520.598 401.233 527.439 402.618ZM477.857 418.046C489.852 425.594 489.316 426.672 474.742 424.316C465.147 422.766 455.341 419.237 455.087 417.245C454.84 415.299 456.627 414.505 463.449 413.535C469.042 412.738 469.799 412.975 477.857 418.046ZM596.421 409.707C596.567 410.857 593.611 411.536 582.98 412.801C565.596 414.869 559.783 414.189 573.596 411.703C581.069 410.357 584.495 409.199 587.13 407.124L590.657 404.348L593.445 406.291C594.978 407.36 596.318 408.897 596.421 409.707Z" fill="white"/>
</g>
<defs>
<clipPath id="clip0_584_2695">
<rect width="923" height="470" fill="white"/>
</clipPath>
</defs>
</svg>
