<svg width="29" height="34" viewBox="0 0 29 34" fill="none" xmlns="http://www.w3.org/2000/svg">
<g clip-path="url(#clip0_546_2831)">
<path d="M13.2849 7.5467C13.6801 4.07503 16.6338 1.3667 20.2614 1.3667C20.2614 5.2067 23.4212 8.3217 27.3173 8.3217C27.3173 10.6467 26.1469 12.695 24.3686 13.9567M20.893 12.6266C20.0857 12.6266 19.3258 12.7899 18.6604 13.1183C18.1622 9.87994 15.3114 7.3916 11.8899 7.3916C8.15931 7.3916 5.11944 10.3483 5.02318 14.0099C2.79057 14.2916 1.05615 16.1683 1.05615 18.4933C1.05446 20.9816 3.09624 22.9999 5.61595 22.9999H20.8913C23.7893 22.9999 26.1418 20.6766 26.1418 17.8133C26.1418 14.9499 23.7893 12.6266 20.893 12.6266Z" stroke="white" stroke-width="2" stroke-linecap="round" stroke-linejoin="round"/>
<path fill-rule="evenodd" clip-rule="evenodd" d="M22.3771 26.861C22.2921 26.8375 22.2026 26.825 22.1101 26.825C22.0177 26.825 21.9281 26.8375 21.8431 26.861C21.6908 26.9026 21.5359 26.9828 21.4016 27.1154C21.1854 27.3288 21.1017 27.5995 21.1017 27.8333C21.1017 28.067 21.1854 28.3377 21.4016 28.5511C21.6166 28.7633 21.8843 28.8416 22.1101 28.8416C22.336 28.8416 22.6036 28.7633 22.8187 28.5511C23.0349 28.3377 23.1186 28.067 23.1186 27.8333C23.1186 27.5995 23.0349 27.3288 22.8187 27.1154C22.6844 26.9828 22.5295 26.9026 22.3771 26.861Z" fill="white"/>
<path fill-rule="evenodd" clip-rule="evenodd" d="M12.2442 26.8695C12.1592 26.846 12.0697 26.8335 11.9772 26.8335C11.8847 26.8335 11.7952 26.846 11.7102 26.8695C11.5578 26.9112 11.403 26.9915 11.2686 27.124C11.0524 27.3374 10.9688 27.6081 10.9688 27.8418C10.9688 28.0756 11.0524 28.3462 11.2686 28.5596C11.4837 28.7719 11.7513 28.8502 11.9772 28.8502C12.203 28.8502 12.4707 28.7719 12.6857 28.5596C12.902 28.3462 12.9856 28.0756 12.9856 27.8418C12.9856 27.6081 12.902 27.3374 12.6857 27.124C12.5514 26.9915 12.3966 26.9112 12.2442 26.8695Z" fill="white"/>
<path fill-rule="evenodd" clip-rule="evenodd" d="M2.11139 26.861C2.02639 26.8375 1.93685 26.825 1.84438 26.825C1.75191 26.825 1.66237 26.8375 1.57737 26.861C1.42501 26.9026 1.27016 26.9828 1.13584 27.1154C0.919614 27.3288 0.835938 27.5995 0.835938 27.8333C0.835938 28.067 0.919614 28.3377 1.13584 28.5511C1.35088 28.7633 1.61853 28.8416 1.84438 28.8416C2.07023 28.8416 2.33788 28.7633 2.55293 28.5511C2.76915 28.3377 2.85283 28.067 2.85283 27.8333C2.85283 27.5995 2.76915 27.3288 2.55293 27.1154C2.4186 26.9828 2.26376 26.9026 2.11139 26.861Z" fill="white"/>
<path fill-rule="evenodd" clip-rule="evenodd" d="M7.1778 31.8778C7.0928 31.8544 7.00326 31.8418 6.91079 31.8418C6.81832 31.8418 6.72878 31.8544 6.64378 31.8778C6.49141 31.9195 6.33656 31.9998 6.20224 32.1323C5.98602 32.3457 5.90234 32.6164 5.90234 32.8501C5.90234 33.0839 5.98602 33.3545 6.20224 33.5679C6.41729 33.7802 6.68494 33.8585 6.91079 33.8585C7.13664 33.8585 7.40429 33.7802 7.61933 33.5679C7.83556 33.3545 7.91923 33.0839 7.91923 32.8501C7.91923 32.6164 7.83556 32.3457 7.61933 32.1323C7.48501 31.9998 7.33016 31.9195 7.1778 31.8778Z" fill="white"/>
<path fill-rule="evenodd" clip-rule="evenodd" d="M17.3019 31.8693C17.2169 31.8458 17.1274 31.8333 17.0349 31.8333C16.9425 31.8333 16.8529 31.8458 16.7679 31.8693C16.6156 31.9109 16.4607 31.9912 16.3264 32.1238C16.1102 32.3372 16.0265 32.6078 16.0265 32.8416C16.0265 33.0753 16.1102 33.346 16.3264 33.5594C16.5414 33.7716 16.8091 33.8499 17.0349 33.8499C17.2608 33.8499 17.5284 33.7716 17.7435 33.5594C17.9597 33.346 18.0434 33.0753 18.0434 32.8416C18.0434 32.6078 17.9597 32.3372 17.7435 32.1238C17.6092 31.9912 17.4543 31.9109 17.3019 31.8693Z" fill="white"/>
</g>
<defs>
<clipPath id="clip0_546_2831">
<rect width="29" height="34" fill="white"/>
</clipPath>
</defs>
</svg>
