<svg width="84" height="51" viewBox="0 0 84 51" fill="none" xmlns="http://www.w3.org/2000/svg">
<path fill-rule="evenodd" clip-rule="evenodd" d="M19.8111 0.575607L19.8111 0.575619C20.3851 1.4871 22.1537 4.29569 22.9029 7.6604C23.7528 11.4353 23.7285 13.7449 23.3643 16.3899C22.6965 21.1333 20.5961 24.7841 19.6734 26.001C19.0421 25.1814 18.0829 23.4802 17.4394 21.9156C17.4394 21.9156 16.2253 18.9106 15.9097 15.9801C15.594 13.062 15.7276 10.0942 16.6624 6.74151C17.5244 3.7489 19.1999 1.0419 19.6612 0.334106C19.6921 0.386617 19.7432 0.467856 19.8111 0.575607ZM18.5443 20.4007C18.605 22.7476 19.2485 24.2625 19.6612 25.0572C20.0983 24.2501 20.8268 22.4744 20.7539 20.202C20.6689 17.8924 19.9041 16.1912 19.6734 15.7938C19.4184 16.1912 18.5321 18.1407 18.5443 20.4007ZM22.2473 17.9296C22.4658 17.0107 22.6237 15.4958 22.6601 14.0554C22.6965 12.6274 22.5508 10.1811 21.8709 7.64798C21.1789 5.10241 19.8434 2.66859 19.6491 2.35815C19.4548 2.66859 18.3986 4.63054 17.4637 7.71007C17.2209 8.62896 16.7717 10.6406 16.6988 12.5901C16.6138 14.9494 16.9295 17.3088 17.0509 17.9669C17.0509 17.1846 17.0631 14.5769 17.5366 12.4163C18.0101 10.2681 18.9206 7.77216 19.6491 6.50558C20.4383 7.83424 21.4338 10.7151 21.7859 12.4287C22.138 14.1671 22.3201 16.365 22.2473 17.9296ZM42.8984 36.0223V38.6672C42.8984 39.0273 43.1655 39.1266 43.3233 39.1266C43.5783 39.1266 43.7604 38.9031 43.7604 38.6672V35.389C43.7604 34.9544 43.6875 34.4701 42.6555 34.4701H41.5386V32.9303H42.7041C43.4811 32.9303 43.7604 32.7441 43.7604 31.8873V29.0933C43.7604 28.8574 43.5783 28.6339 43.3233 28.6339C43.1655 28.6339 42.8984 28.7208 42.8984 29.0933V31.3906H40.1545V29.3914C40.1545 28.4104 40.2638 26.883 42.1942 26.883H44.4645C46.395 26.883 46.5164 28.4104 46.5164 29.3914V31.6389C46.5164 33.1663 45.4723 33.5885 44.6467 33.5512V33.6878C46.4921 33.6381 46.5164 35.091 46.5164 35.5877V38.4188C46.5164 39.4122 46.395 40.9272 44.4645 40.9272H42.1942C40.2638 40.9272 40.1545 39.4122 40.1545 38.4188V36.0098H42.8984V36.0223ZM31.7166 26.883H26.4839V40.9396H29.2277V28.6339H31.7166V26.883ZM35.2881 28.6339L34.8146 35.6622H35.9194L35.4459 28.6339H35.2881ZM34.4746 40.9396H31.7793L33.212 26.883H37.5342L38.9668 40.9396H36.2836L36.0287 37.2019H34.7296L34.4746 40.9396ZM54.6763 26.883H48.3144V40.9396H51.0704V28.6339H51.9324V40.9396H54.6763V26.883ZM59.2291 34.6191V28.6339H59.5934C59.8847 28.6339 60.1033 28.8822 60.1033 29.3417V33.9113C60.1033 34.3583 59.8847 34.6191 59.5934 34.6191H59.2291ZM56.4853 40.9396H59.2291V36.1589H60.8075C62.7257 36.1589 62.8472 34.6439 62.8472 33.6505V29.3914C62.8472 28.4104 62.7257 26.883 60.8075 26.883H56.4853V40.9396ZM67.8352 39.1266C68.0902 39.1266 68.2723 38.9031 68.2723 38.6672V29.0933C68.2723 28.8574 68.0902 28.6339 67.8352 28.6339C67.6774 28.6339 67.4103 28.7208 67.4103 29.0933V38.6672C67.4103 39.0273 67.6774 39.1266 67.8352 39.1266ZM66.694 40.9396C64.7757 40.9396 64.6543 39.4246 64.6543 38.4313V29.3914C64.6543 28.4104 64.7757 26.883 66.694 26.883H68.9765C70.8948 26.883 71.0162 28.4104 71.0162 29.3914V38.4313C71.0162 39.4246 70.8948 40.9396 68.9765 40.9396H66.694ZM79.9641 26.883H83.5457V40.9396H80.8018V32.1232H80.7047L79.272 40.9396H77.0745L75.6662 32.1232H75.569V40.9396H72.8252V26.883H76.3946L78.1915 36.7673L79.9641 26.883ZM21.0936 26.8842H14.6952V31.2799L14.7074 31.2675C16.2129 29.7278 18.6653 29.7278 20.1708 31.2675C21.6763 32.7949 21.6763 35.3032 20.1708 36.843L20.1466 36.8678C20.139 36.8678 20.1362 36.8725 20.1322 36.8791C20.1298 36.8831 20.1269 36.8879 20.1223 36.8926C18.6168 38.4076 16.6499 39.1774 14.6831 39.1774C12.7041 39.1774 10.7373 38.42 9.23178 36.8678C6.57289 34.1608 6.25723 29.9513 8.28478 26.8842C8.55188 26.4744 8.86755 26.077 9.23178 25.7045C10.7373 24.1647 12.7162 23.3949 14.6831 23.3949V12.84C7.1071 12.8525 0.963745 19.1233 0.963745 26.8842C0.963745 34.6451 7.1071 40.9283 14.6952 40.9283C18.6532 40.9283 22.2105 39.2147 24.7237 36.4829V26.8842H21.0936ZM0.965856 43.2971H83.549V50.9338H0.965856V43.2971ZM5.44584 46.032V45.2248H3.38187V49.2357H4.34101V46.032H5.44584ZM6.08966 46.2658C6.08966 45.9305 6.18679 45.6697 6.39318 45.471C6.61172 45.2475 6.93953 45.1358 7.37661 45.1358C7.80154 45.1358 8.11721 45.2475 8.34789 45.471C8.54214 45.6697 8.65141 45.9429 8.65141 46.2782V48.0787C8.65141 48.4885 8.55429 48.7989 8.34789 49.01C8.14149 49.2211 7.82582 49.3204 7.38875 49.3204C6.96381 49.3204 6.636 49.2087 6.42961 48.9976C6.22321 48.7865 6.11394 48.4761 6.11394 48.0663V46.2658H6.08966ZM7.35232 45.856C7.26734 45.856 7.18235 45.8808 7.12165 45.9429C7.06094 46.005 7.02452 46.0919 7.02452 46.1912V48.2277C7.02452 48.3395 7.06094 48.4264 7.12165 48.4885C7.18235 48.5506 7.26734 48.5754 7.35232 48.5754C7.43731 48.5754 7.5223 48.5506 7.583 48.4885C7.64371 48.4264 7.68013 48.3395 7.68013 48.2153V46.1788C7.68013 46.0671 7.64371 45.9926 7.583 45.9305C7.5223 45.8808 7.44945 45.856 7.35232 45.856ZM9.46488 45.2248V49.2233H10.4119V47.6587H10.8368C11.1646 47.6587 11.4196 47.5842 11.6138 47.4227C11.8567 47.224 11.9781 46.8888 11.9781 46.4417C11.9781 45.9823 11.8567 45.647 11.6138 45.4484C11.4317 45.2993 11.1768 45.2248 10.8368 45.2248H9.46488ZM10.5819 46.9509H10.4119V45.9326H10.5697C10.7154 45.9326 10.8247 45.9699 10.9097 46.0444C10.9946 46.1189 11.0311 46.2431 11.0311 46.4293C11.0311 46.6156 10.9825 46.7522 10.8975 46.8391C10.8125 46.9136 10.7154 46.9509 10.5819 46.9509ZM13.6892 47.5343V49.2354H12.7422V45.2246H13.6892V46.7271H14.3084V45.2246H15.2554V49.2354H14.3084V47.5343H13.6892ZM16.3866 45.471C16.1802 45.6697 16.0831 45.9305 16.0831 46.2658H16.1074V48.0663C16.1074 48.4761 16.2166 48.7865 16.423 48.9976C16.6294 49.2087 16.9572 49.3204 17.3822 49.3204C17.8192 49.3204 18.1349 49.2211 18.3413 49.01C18.5477 48.7989 18.6448 48.4885 18.6448 48.0787V46.2782C18.6448 45.9429 18.5356 45.6697 18.3413 45.471C18.1106 45.2475 17.795 45.1358 17.37 45.1358C16.9329 45.1358 16.6051 45.2475 16.3866 45.471ZM17.1272 45.9429C17.1879 45.8808 17.2729 45.856 17.3579 45.856C17.4429 45.856 17.5157 45.8808 17.5886 45.9305C17.6493 45.9926 17.6857 46.0671 17.6857 46.1788V48.2153C17.6857 48.3395 17.6493 48.4264 17.5886 48.4885C17.5279 48.5506 17.4429 48.5754 17.3579 48.5754C17.2729 48.5754 17.1879 48.5506 17.1272 48.4885C17.0665 48.4264 17.0301 48.3395 17.0301 48.2277V46.1912C17.0301 46.0919 17.0665 46.005 17.1272 45.9429ZM19.2979 48.1915V47.5706H21.6532V48.1915H19.2979ZM22.977 46.032V49.2357H23.8511V46.032H24.5432V45.2248H22.2364V46.032H22.977ZM27.8578 45.2246L27.8544 45.237H26.8743L26.498 47.0748L26.413 47.8199L26.3523 46.9879L26.0002 45.237H25.0168L25.9031 48.3911C25.8909 48.4531 25.8545 48.4904 25.8181 48.5028C25.7816 48.5152 25.7331 48.5276 25.6845 48.5276H25.5631C25.5267 48.5276 25.4903 48.5152 25.4539 48.5028L25.4538 48.5028V49.1858C25.4903 49.223 25.5631 49.2479 25.6481 49.2727C25.7331 49.2851 25.8302 49.2975 25.9273 49.2975C26.2551 49.2975 26.498 49.223 26.6437 49.0988C26.7894 48.9623 26.9108 48.7015 27.02 48.3165L27.8544 45.237H27.8578V45.2246ZM28.513 45.2246V49.223H29.46V47.6584H29.8849C30.2127 47.6584 30.4677 47.5839 30.6619 47.4225C30.9047 47.2238 31.0261 46.8885 31.0261 46.4415C31.0261 45.9821 30.9047 45.6468 30.6619 45.4481C30.4798 45.2991 30.2248 45.2246 29.8849 45.2246H28.513ZM29.6299 46.9506H29.46V45.9324H29.6178C29.7635 45.9324 29.8727 45.9697 29.9577 46.0442C30.0427 46.1187 30.0791 46.2428 30.0791 46.4291C30.0791 46.6154 30.0306 46.7519 29.9456 46.8389C29.8606 46.9134 29.7635 46.9506 29.6299 46.9506ZM33.3572 49.2357V48.3044C33.4058 47.808 33.4664 47.2993 33.5271 46.7906L33.5271 46.7904L33.5271 46.7903L33.5271 46.7901L33.5271 46.79L33.5272 46.7894L32.7138 49.2357H31.7911V45.2248H32.7016V46.2307C32.7016 46.3424 32.6652 46.6653 32.6045 47.1868C32.5992 47.2385 32.5938 47.2879 32.5888 47.3349L32.5887 47.3358C32.5707 47.5026 32.5559 47.6392 32.5559 47.7456L33.3572 45.2248H34.2557V49.2357H33.3572ZM37.5827 47.6443H36.6479V48.1907C36.6479 48.3397 36.6114 48.4514 36.5507 48.5135C36.49 48.5756 36.405 48.6129 36.2958 48.6129C36.1865 48.6129 36.1015 48.5756 36.053 48.5135C35.9922 48.4514 35.968 48.3397 35.968 48.1907V46.179C35.968 46.0797 36.0044 46.0052 36.0651 45.9555C36.1258 45.9059 36.1986 45.881 36.2836 45.881C36.3686 45.881 36.4415 45.9183 36.5143 45.9679C36.5872 46.0176 36.6236 46.0921 36.6236 46.1915V46.6385H37.5706V46.2784C37.5706 45.9431 37.4735 45.6699 37.2671 45.4712C37.0364 45.2477 36.7207 45.136 36.2958 45.136C35.8587 45.136 35.5309 45.2353 35.3123 45.4588C35.106 45.6575 35.0088 45.9307 35.0088 46.266V48.0044C35.0088 48.4639 35.1181 48.7867 35.3245 48.9978C35.5309 49.2089 35.8587 49.3082 36.2958 49.3082C36.7329 49.3082 37.0607 49.2089 37.2671 48.9978C37.4735 48.7991 37.5827 48.4639 37.5827 48.0168V47.6443ZM38.9674 49.2354V46.0317H38.2268V45.2246H40.5336V46.0317H39.8416V49.2354H38.9674ZM42.7908 48.3044V49.2357H43.6893V45.2248H42.7908L41.9895 47.7456C41.9895 47.6392 42.0043 47.5026 42.0223 47.3359L42.0224 47.3349L42.0227 47.3321L42.0229 47.3297L42.023 47.329L42.0232 47.3269C42.028 47.2823 42.0331 47.2356 42.0381 47.1868C42.0988 46.6653 42.1352 46.3424 42.1352 46.2307V45.2248H41.2246V49.2357H42.1474L42.9608 46.7894C42.932 47.0307 42.906 47.2719 42.8801 47.5118C42.8514 47.7782 42.8228 48.043 42.7908 48.3044ZM44.5032 45.2246H45.4381V46.5781C45.4381 46.7644 45.5231 46.8513 45.7052 46.8513C45.8387 46.8513 45.9602 46.8265 46.0573 46.7768V45.2246H47.0043V49.2354H46.0573V47.5467C45.9237 47.5963 45.8145 47.6212 45.7052 47.6336C45.5959 47.646 45.4624 47.6584 45.2924 47.6584C45.1103 47.6584 44.9403 47.5963 44.7825 47.4597C44.5882 47.2983 44.5032 47.0748 44.5032 46.8016V45.2246ZM47.9754 45.2246V49.223H50.1729V48.4656H48.9224V47.5094H50.0758V46.7519H48.9224V45.9821H50.1729V45.2246H47.9754ZM52.4556 47.6441H53.3905V48.0166C53.3905 48.4636 53.2812 48.7989 53.0748 48.9976C52.8684 49.1963 52.5406 49.308 52.1035 49.308C51.6664 49.308 51.3386 49.2087 51.1322 48.9976C50.9258 48.7865 50.8166 48.4636 50.8166 48.0042V46.2658C50.8166 45.9305 50.9137 45.6573 51.1201 45.4586C51.3386 45.2351 51.6664 45.1358 52.1035 45.1358C52.5284 45.1358 52.8441 45.2475 53.0748 45.471C53.2812 45.6697 53.3783 45.9429 53.3783 46.2782V46.6383H52.4313V46.1912C52.4313 46.0919 52.3949 46.0174 52.3221 45.9677C52.2492 45.9181 52.1764 45.8808 52.0914 45.8808C52.0064 45.8808 51.9335 45.9056 51.8728 45.9553C51.8121 46.005 51.7757 46.0795 51.7757 46.1788V48.1905C51.7757 48.3395 51.8 48.4512 51.8607 48.5133C51.9093 48.5754 51.9942 48.6126 52.1035 48.6126C52.2128 48.6126 52.2978 48.5754 52.3585 48.5133C52.4192 48.4512 52.4556 48.3395 52.4556 48.1905V47.6441ZM54.2177 45.2246V49.223H55.1162V48.2917L55.3711 47.8323L55.8082 49.223H56.8038L55.9296 46.9879L56.8038 45.2246H55.7718L55.1162 46.814V45.2246H54.2177ZM59.0477 49.2357V48.3044C59.0796 48.043 59.1082 47.7782 59.1369 47.5118C59.1628 47.2719 59.1889 47.0307 59.2176 46.7894L58.4042 49.2357H57.4815V45.2248H58.3921V46.2307C58.3921 46.3424 58.3556 46.6653 58.2949 47.1868C58.2899 47.2356 58.2849 47.2823 58.2801 47.3268V47.3269L58.2798 47.329L58.2798 47.3297L58.2795 47.3321L58.2792 47.3349L58.2791 47.3359C58.2611 47.5026 58.2464 47.6392 58.2464 47.7456L59.0477 45.2248H59.9461V49.2357H59.0477ZM62.399 48.3023V49.2336H63.2974V45.2227H62.399L61.5977 47.7435C61.5977 47.5821 61.6098 47.3958 61.6341 47.1847L61.6578 46.9724L61.6578 46.9721C61.7042 46.5567 61.7313 46.3142 61.7313 46.2286V45.2227H60.8328V49.2336H61.7555L62.569 46.7873C62.5403 47.0281 62.5143 47.2689 62.4884 47.5083L62.4884 47.5084L62.4884 47.5086L62.4884 47.5088L62.4884 47.509L62.4883 47.5093L62.4883 47.5097C62.4595 47.7761 62.431 48.0409 62.399 48.3023ZM62.0712 44.9744C61.8162 44.9744 61.6098 44.9247 61.4763 44.813C61.3185 44.6888 61.2335 44.5025 61.2456 44.2542H61.6098C61.6098 44.3659 61.6706 44.4404 61.7798 44.4901C61.8648 44.5274 61.9619 44.5398 62.0955 44.5398C62.229 44.5398 62.3262 44.5274 62.3869 44.4901C62.4597 44.4529 62.5204 44.3659 62.5568 44.2542H62.9089C62.9089 44.4901 62.8239 44.6764 62.654 44.8005C62.4961 44.9123 62.3019 44.9744 62.0712 44.9744ZM66.9158 48.4253H67.5228V45.2216H68.4698V48.4253H68.6762V50.052H67.7535V49.2201H65.9688V45.2092H66.9158V48.4253ZM69.3916 45.2248V49.2233H71.5892V48.4658H70.3386V47.5097H71.492V46.7522H70.3386V45.9823H71.5892V45.2248H69.3916ZM73.3025 47.5343V49.2354H72.3555V45.2246H73.3025V46.7271H73.9217V45.2246H74.8687V49.2354H73.9217V47.5343H73.3025ZM75.5731 46.0317H76.3137V49.2354H77.1878V46.0317H77.8799V45.2246H75.5731V46.0317ZM78.583 49.2233V45.2248H79.955C80.2949 45.2248 80.5499 45.2993 80.732 45.4484C80.9748 45.647 81.0962 45.9823 81.0962 46.4417C81.0962 46.8888 80.9748 47.224 80.732 47.4227C80.5377 47.5842 80.2828 47.6587 79.955 47.6587H79.53V49.2233H78.583ZM79.5179 46.9509H79.6879C79.8214 46.9509 79.9185 46.9136 80.0035 46.8391C80.0885 46.7522 80.1371 46.6156 80.1371 46.4293C80.1371 46.2431 80.1007 46.1189 80.0157 46.0444C79.9307 45.9699 79.8214 45.9326 79.6757 45.9326H79.5179V46.9509Z" fill="white"/>
</svg>
