<svg width="817" height="520" viewBox="0 0 817 520" fill="none" xmlns="http://www.w3.org/2000/svg">
<g clip-path="url(#clip0_671_1332)">
<path fill-rule="evenodd" clip-rule="evenodd" d="M1216.06 -327.723C1135.28 -267.791 1072.42 -204.772 978.808 -89.8754C856.741 59.9526 840.374 78.4633 803.458 108.433C789.573 119.704 785.778 122.468 772.686 130.843C767.857 133.932 762.311 137.596 760.361 138.985C755.152 142.695 743.811 149.084 735.662 152.898C708.067 165.812 701.912 168.594 700.667 168.715C699.894 168.79 697.012 170.112 694.262 171.652C688.71 174.761 670.907 181.061 661.518 183.239C658.174 184.015 653.363 185.61 650.828 186.785C648.292 187.958 642.019 189.627 636.888 190.49C631.757 191.354 624.008 192.937 619.666 194.007C609.223 196.582 567.295 203.02 557.4 203.568C553.098 203.806 549.267 203.591 548.887 203.091C548.506 202.59 544.08 202.581 539.051 203.07C529.139 204.034 515.78 203.533 504.781 201.785C500.961 201.178 494.716 200.261 490.905 199.748C473.557 197.414 458.821 189.486 458.102 182.102C457.917 180.197 457.175 177.723 456.455 176.607C455.735 175.49 452.988 171.032 450.354 166.699C444.025 156.293 432.666 145.141 421.774 138.636C408.647 130.798 403.821 132.029 400.316 144.115C398.331 150.96 394.724 154.013 389.812 153.005C387.819 152.596 383.074 151.886 379.268 151.428C375.462 150.971 371.193 149.956 369.78 149.174C364.189 146.075 356.384 133.835 359.809 133.538C360.318 133.494 364.444 134.206 368.978 135.121C382.628 137.877 386.71 136.78 394.579 128.247C397.494 125.083 399.521 123.903 401.691 124.102C403.561 124.275 405.794 123.328 407.512 121.634C410.005 119.176 410.201 117.987 409.377 110.341C408.87 105.642 407.555 100.11 406.457 98.0487C402.945 91.4646 401.068 91.5863 386.985 99.3075C379.984 103.147 371.569 107.425 368.285 108.817C360.712 112.025 358.274 114.552 358.684 118.769C359.163 123.7 356.646 125.575 350.012 125.231C344.3 124.935 339.8 122.537 340.87 120.36C341.194 119.701 344.075 118.906 347.273 118.595C353.359 118.003 358.31 114.926 358.017 111.917C357.767 109.344 362.148 106.288 372.714 101.666C377.882 99.405 383.543 96.6291 385.294 95.4973C392.06 91.1229 391.603 83.8231 384.199 78.0561C377.454 72.8029 372.498 71.4125 363.596 72.2781C352.231 73.3835 343.151 78.0436 336.685 86.0902C331.811 92.1541 331.547 92.9352 331.649 101.016C331.709 105.706 332.012 110.907 332.322 112.574C332.836 115.34 332.352 115.731 326.807 117.032C323.463 117.816 318.325 119.641 315.388 121.087C312.16 122.676 304.376 124.585 295.712 125.913C281.82 128.042 277.661 129.766 279.764 132.526C281.221 134.439 289.354 136.653 293.462 136.253C298.946 135.72 296.639 138.17 290.133 139.788C282.714 141.634 275.524 144.987 272.972 147.789C271.104 149.841 270.766 149.874 268.537 148.221C267.212 147.238 263.823 145.864 261.007 145.169C254.949 143.674 230.988 142.703 214.162 143.27L202.212 143.674L201.121 140.077C200.521 138.099 198.245 135.013 196.063 133.22C192.617 130.387 191.189 130.047 185.178 130.632C169.483 132.158 160.018 145.541 170.079 151.979C173.168 153.955 174.942 154.103 182.302 152.997C187.037 152.285 191.726 151.216 192.721 150.621C194.064 149.815 195.028 150.584 196.465 153.605C198.616 158.126 199.632 158.594 220.136 164.528C246.907 172.275 259.655 173.573 268.578 169.457C273.421 167.224 273.428 167.225 279.016 171.286C282.091 173.52 286.779 176.123 289.436 177.071C302.312 181.663 328.551 199.946 335.417 209.111C337.124 211.391 338.892 213.497 339.344 213.795C339.797 214.093 342.664 217.728 345.714 221.873C353.138 231.962 361.44 238.95 374.485 246.088C380.445 249.348 385.364 252.458 385.416 253C385.644 255.345 396.013 257.983 402.518 257.35C415.297 256.108 418.191 252.115 418.025 235.961C417.806 214.854 423.641 206.75 441.645 203.149C448.334 201.81 451.037 201.96 460.874 204.208C467.169 205.649 473.779 207.449 475.563 208.21C481.521 210.751 486.628 213.561 489.502 215.878C491.068 217.14 495.559 220.377 499.48 223.071C503.402 225.765 508.084 228.996 509.886 230.249C511.833 231.606 512.945 233.318 512.625 234.469C512.331 235.536 506.499 239.829 499.667 244.008C492.317 248.505 487.316 252.341 487.419 253.405C487.89 258.245 497.123 257.724 514.626 251.872C525.58 248.209 534.283 248.564 540.346 252.921C547.863 258.325 567.88 287.94 566.252 291.252C566.016 291.73 563.243 292.771 560.09 293.56C547.274 296.775 535.063 304.686 528.196 314.224C525.381 318.134 524.162 318.981 522.528 318.159C521.383 317.585 516.227 311.623 511.07 304.912C497.214 286.877 495.19 285.006 485.977 281.705C479.316 279.317 476.195 277.178 469.583 270.469C465.011 265.831 460.265 262.129 458.804 262.059C457.088 261.976 452.828 265.215 446.364 271.516C435.641 281.973 412.403 297.498 401.334 301.602C397.703 302.948 392.377 304.286 389.499 304.573C384.937 305.03 384.299 305.443 384.528 307.798C384.673 309.283 389.337 315.959 394.894 322.631C415.965 347.934 425.807 363.77 428.11 376.074C429.869 385.475 428.328 387.786 419.741 388.621C414.495 389.131 413.383 388.778 410.763 385.767C408.614 383.297 406.765 382.428 404.189 382.679C399.884 383.097 397.371 380.347 393.678 371.178C389.576 360.988 386.125 357.444 374.183 351.15C362.453 344.968 345.891 332.448 345.61 329.55C345.483 328.246 347.33 327.651 353.145 327.124C362.373 326.286 370.846 321.466 376.227 313.991C380.894 307.509 380.596 304.857 375.389 306.522C366.818 309.264 362.122 310.005 353.107 310.037C342.47 310.075 341.641 308.723 351.044 306.672C357.781 305.203 361.172 302.484 359.768 299.677C359.301 298.742 354.505 296.229 349.112 294.093C343.719 291.959 339.265 289.797 339.212 289.289C339.16 288.781 340.694 288.213 342.622 288.025C346.423 287.655 349.886 284.017 349.566 280.729C349.456 279.597 349.626 278.647 349.943 278.616C350.261 278.585 354.643 280.69 359.681 283.292C383.508 295.603 396.7 296.622 400.904 286.477C403.449 280.334 399.239 267.262 393.459 263.36C392.245 262.54 391.201 261.343 391.139 260.701C390.692 256.109 372.983 249.767 358.806 249.123C348.529 248.657 347.595 248.822 337.067 252.979C323.069 258.507 318.185 261.661 313.184 268.405C306.855 276.938 305.709 281.87 306.953 295.222C307.985 306.292 308.337 307.39 313.524 315.705C316.538 320.537 328.526 335.026 340.164 347.903C377.935 389.696 377.696 389.34 372.823 396.505C369.066 402.029 367.92 405.425 368.269 410.008C368.888 418.174 368.619 418.368 353.814 420.43C326.318 424.261 305.1 434.163 298.19 446.388C295.67 450.849 296.292 454.527 300.2 458.263C303.286 461.214 304.107 461.36 312.313 460.423C317.155 459.87 322.265 458.704 323.67 457.833C325.074 456.961 331.415 453.212 337.76 449.501C344.107 445.789 353.518 439.201 358.676 434.857C367.711 427.251 368.224 426.996 372.682 427.871C375.226 428.371 381.127 428.433 385.794 428.009L394.279 427.239L381.292 434.049C368.946 440.523 344.072 451.708 329.135 457.502C325.342 458.974 319.412 461.288 315.957 462.644C312.503 464 303.717 467.124 296.434 469.586C289.15 472.047 281.026 474.811 278.379 475.725C249.461 485.723 173.129 505.556 126.171 515.273C119.802 516.591 109.655 518.696 103.622 519.95C97.5894 521.205 82.4835 524.104 70.0542 526.395C57.6248 528.686 41.728 531.649 34.7287 532.979C27.7293 534.31 18.358 535.76 13.9035 536.204C4.13843 537.173 0.350512 538.461 0.571604 540.734C0.771389 542.789 4.66314 542.505 23.3475 539.067C30.7737 537.701 44.8268 535.178 54.5765 533.462C94.927 526.357 153.077 514.184 186.19 505.911C200.031 502.453 218.121 497.759 225.305 495.762C229.133 494.699 235.128 493.041 238.624 492.078C287.978 478.507 341.736 458.532 379.335 439.796C385.858 436.545 396.54 431.304 403.072 428.149C409.604 424.994 416.01 421.824 417.308 421.105C421.726 418.656 464.062 399.602 484.022 391.079C494.863 386.45 536.815 369.276 542.618 367.091C613.907 340.252 655.109 322.966 673.098 312.345C695.541 299.094 725.204 270.858 729.666 258.497C731.044 254.679 731.073 253.038 729.801 250.84C727.328 246.568 722.253 247.821 710.574 255.583C680.174 275.79 657.167 287.155 615.903 302.351C596.716 309.417 585.139 314.714 582.569 317.604C580.402 320.042 580.142 321.395 581.073 325.368C582.053 329.545 581.728 330.835 578.609 335.168C575.362 339.678 572.432 341.823 562.081 347.267C560.262 348.224 555.549 349.321 551.609 349.704C545.504 350.298 543.705 349.923 539.436 347.161C530.988 341.695 530.583 341.811 479.546 364.241C448.591 377.846 447.002 378.862 435.061 392.683C424.096 405.374 417.593 410.29 400.891 418.511C394.634 421.592 390.208 422.854 382.952 423.628C372.394 424.754 370.32 423.796 371.775 418.469C372.235 416.785 372.432 413.568 372.214 411.318C371.959 408.698 373.085 404.932 375.342 400.844C380.203 392.044 380.459 388.939 376.773 383.425C375.093 380.914 363.257 367.285 350.468 353.14C317.133 316.267 313.594 311.316 310.519 297.256C307.251 282.313 315.996 266.553 331.356 259.709C335.617 257.811 339.937 256.194 340.955 256.116C341.973 256.04 346.385 255.223 350.758 254.302C370.236 250.2 389.811 259.129 396.341 275.095C399.984 284.002 395.647 290.685 387.057 289.398C380.935 288.48 370.243 284.208 358.104 277.832C351.376 274.298 345.128 271.777 344.218 272.232C342.994 272.843 342.895 274.33 343.838 277.936C345.26 283.376 345.395 283.276 335.876 283.757C331.261 283.991 329.871 284.534 329.384 286.291C328.602 289.125 333.599 292.533 344.587 296.656C355.782 300.855 355.62 303.126 344.06 304.028C330.459 305.089 329.572 305.29 329.764 307.263C330.228 312.039 344.783 315.114 360.021 313.653C371.796 312.525 372.833 313.801 364.477 319.136C360.65 321.58 357.184 322.641 351.102 323.232C341.225 324.193 339.146 326.073 342.013 331.448C344.802 336.678 358.747 347.582 371.004 354.116C377.047 357.339 382.968 361.113 384.159 362.504C385.351 363.897 388.186 369.216 390.46 374.325C394.719 383.898 397.914 387.016 402.957 386.526C404.461 386.38 406.087 386.781 406.571 387.417C407.097 388.109 405.622 388.752 402.903 389.016C391.521 390.123 379.748 399.493 380.501 406.844C381.003 411.731 382.42 413.211 387.488 414.145C398.116 416.102 409.006 409.034 412.42 397.961C413.773 393.569 414.015 393.416 420.853 392.588C430.82 391.384 433.6 387.891 432.62 377.808C432.228 373.78 430.722 367.845 429.273 364.619C425.274 355.713 413.118 338.003 401.528 324.199C395.813 317.391 391.057 311.005 390.96 310.006C390.843 308.8 392.055 308.067 394.57 307.823C400.234 307.272 414.13 300.666 425.978 292.89C438.523 284.657 444.533 279.752 452.216 271.471L457.945 265.295L462.132 269.128C464.433 271.235 468.409 275.106 470.966 277.73C473.996 280.84 478.445 283.517 483.737 285.413C492.737 288.639 494.588 290.344 507.581 307.393C512.429 313.755 518.111 320.471 520.206 322.318C522.302 324.164 524.524 326.91 525.144 328.419C526.798 332.443 539.269 344.36 543.658 346.114C548.631 348.1 555.237 347.337 563.596 343.81C575.642 338.724 578.678 333.091 577.31 318.357C576.276 307.218 573.776 303.12 567.281 301.911C558.879 300.349 544.69 306.427 536.589 315.059C530.915 321.105 528.684 320.079 533.854 313.801C540.266 306.015 557.013 296.994 566.832 296.04C573.177 295.422 570.608 285.91 559.64 269.404C550.996 256.398 543.491 248.749 537.301 246.635C531.546 244.67 518.795 245.218 513.904 247.642C512.351 248.412 507.827 249.743 503.852 250.602C497.419 251.99 496.876 251.943 498.919 250.183C500.181 249.095 503.735 246.979 506.819 245.481C512.71 242.617 519.315 236.154 519.057 233.504C518.831 231.176 498.886 215.522 489.989 210.687C485.723 208.37 477.315 204.493 471.304 202.075L460.376 197.676L446.142 199.06C434.078 200.233 431.103 200.932 426.624 203.647C416.123 210.012 412.212 219.298 412.768 236.548C413.22 250.588 412.384 252.097 403.824 252.692C396.269 253.217 394.963 252.752 378.93 243.846C362.873 234.925 356.329 229.738 352.627 222.998C343.714 206.767 314.481 182.757 292.973 174.003C281.049 169.149 276.081 164.42 275.385 157.255C274.948 152.77 275.375 151.369 277.759 149.454C281.239 146.659 292.505 142.975 304.248 140.792C311.288 139.483 312.396 139.511 310.523 140.948C309.272 141.908 306.6 143.201 304.585 143.82C302.007 144.614 300.991 145.662 301.157 147.359C301.526 151.157 309.151 151.707 319.709 148.701C332.761 144.985 332.898 144.988 334.496 149.036C335.276 151.01 336.797 160.088 337.876 169.208C340.048 187.578 341.89 191.938 350.237 198.447C354.214 201.548 355.097 201.699 363.983 200.807C372.07 199.993 374.282 199.271 378.89 195.934C391.002 187.164 401.24 169.488 399.794 159.842C399.204 155.897 399.601 153.83 401.401 151.5C402.717 149.797 404.243 146.553 404.793 144.294C405.343 142.034 406.682 139.593 407.768 138.869C413.819 134.835 437.081 153.098 448.123 170.551C452.806 177.953 452.761 184.986 448.061 180.33C445.241 177.537 429.954 172.578 423.767 172.448C416.971 172.306 413.869 174.774 414.369 179.923C414.785 184.193 419.77 191.57 424.118 194.353C428.043 196.864 427.78 196.889 445.601 192.219L454.883 189.787L461.426 194.293C465.025 196.772 468.792 198.721 469.799 198.623C470.805 198.525 472.203 198.872 472.903 199.396C475.548 201.372 496.186 206.204 503.378 206.531C546.231 208.479 548.703 208.415 582.761 204.495C612.087 201.12 635.687 196.853 639.028 194.32C639.636 193.86 643.703 192.798 648.067 191.961C652.431 191.124 657.891 189.735 660.201 188.873C668.532 185.767 689.742 178.278 694.463 176.775C700.1 174.98 701.656 174.307 711.169 169.55C715.082 167.593 722.011 164.429 726.568 162.519C731.125 160.608 740.815 155.42 748.104 150.989C755.392 146.559 761.906 142.88 762.578 142.814C763.854 142.69 773.947 136.038 776.331 133.751C777.085 133.028 779.435 131.297 781.553 129.906C798.323 118.891 821.39 99.7668 837.677 83.3761C864.806 56.0758 887.108 29.7504 976.581 -80.58C1020.65 -134.926 1037.88 -155.183 1065.84 -185.562C1110.13 -233.676 1163.74 -283.214 1205.6 -314.705C1227.96 -331.532 1237 -338.194 1237.52 -338.245C1237.82 -338.273 1239.77 -339.579 1241.86 -341.146L1245.65 -343.996L1241.25 -343.572C1237.83 -343.243 1232.19 -339.693 1216.06 -327.723ZM378.242 78.6715C383.89 81.6645 386.656 86.3655 384.866 89.9253C384.302 91.045 378.536 94.4548 372.052 97.502C357.503 104.34 355.481 105.752 353.855 110.199C352.661 113.469 352.015 113.785 345.191 114.449L337.816 115.166L336.715 107.818C335.142 97.3207 335.822 93.1382 339.896 88.2429C343.364 84.0751 344.603 83.2053 353.54 78.6647C360.21 75.2763 371.84 75.2796 378.242 78.6715ZM403.071 100.75C403.706 102.393 404.587 106.89 405.03 110.742C405.924 118.51 404.2 121.124 399.1 119.734C396.852 119.12 395.606 119.887 392.587 123.745C387.173 130.661 382.562 132.875 375.417 131.989C365.81 130.798 360.216 128.698 361.737 126.851C362.456 125.977 362.895 123.711 362.71 121.815C362.33 117.9 365.717 113.074 369.075 112.747C371.468 112.515 381.152 107.644 391.803 101.315C399.396 96.8046 401.507 96.6987 403.071 100.75ZM193.037 136.224C198.663 139.824 197.859 144.238 191.075 146.995C183.873 149.92 176.422 150.551 172.85 148.534C169.147 146.445 168.967 144.507 172.141 140.888C177.622 134.64 187.214 132.499 193.037 136.224ZM337.915 124.435C341.67 128.275 343.242 128.97 348.591 129.157C354.69 129.369 354.853 129.474 354.44 132.915C353.647 139.526 362.22 150.783 370.55 154.069C372.483 154.832 376.455 155.617 379.378 155.815C382.299 156.013 385.007 156.59 385.393 157.096C387.366 159.686 365.298 164.081 360.449 162.066C359.14 161.521 356.776 158.032 355.195 154.313C351.75 146.208 345.43 140.555 339.196 140.002C336.765 139.787 333.386 138.682 331.688 137.547C328.941 135.71 328.753 135.168 329.987 132.624C331.153 130.218 331.069 129.517 329.452 128.188C327.793 126.824 325.84 127.05 315.085 129.848C304.251 132.666 295.164 133.48 296.806 131.485C297.099 131.13 301.358 129.652 306.271 128.203C311.183 126.753 317.894 124.477 321.184 123.143C330.868 119.218 332.971 119.381 337.915 124.435ZM237.115 147.328C262.191 148.119 266.205 149.387 269.254 157.486C271.774 164.175 269.9 165.879 258.846 166.954C249.653 167.848 237.144 165.453 214.574 158.477C203.976 155.2 200.974 153.76 200.461 151.703C199.834 149.184 200.233 149.048 211.29 147.982C217.605 147.373 229.226 147.079 237.115 147.328ZM327.22 140.456C327.372 142.027 322.255 144.635 318.257 145.024C314.502 145.389 314.259 143.946 317.713 141.797C321.131 139.67 327.062 138.834 327.22 140.456ZM344.569 146.503C346.546 147.906 349.537 152.277 351.536 156.686C354.491 163.2 355.747 164.676 359.556 166.097C362.04 167.025 366.014 167.614 368.388 167.405C372.263 167.064 387.745 162.057 392.644 159.561C398.991 156.327 394.695 172.831 386.697 182.409C376.995 194.026 362.104 199.748 354.4 194.818C347.778 190.581 345.213 184.825 343.891 171.231C343.21 164.238 342.124 158.665 341.369 158.295C340.639 157.936 340.241 157.239 340.485 156.744C340.727 156.249 340.272 153.551 339.473 150.75C337.413 143.529 338.779 142.39 344.569 146.503ZM437.943 180.309C443.225 182.392 447.78 184.618 448.065 185.258C448.348 185.896 444.17 187.87 438.777 189.645C429.11 192.825 428.934 192.84 426.302 190.677C424.834 189.469 422.421 186.359 420.943 183.764C415.907 174.934 421.454 173.807 437.943 180.309ZM726.307 254.88C726.81 260.061 712.99 276.164 695.034 291.321C684.234 300.436 664.162 313.909 660.91 314.225C659.985 314.315 658.745 314.905 658.157 315.535C656.391 317.428 629.382 328.954 599.119 340.731C590.882 343.937 582.526 347.196 580.55 347.974C573.132 350.894 567 353.283 554.192 358.242C525.909 369.195 528.202 368.286 507.498 376.754C479.87 388.055 453.291 399.699 419.885 415.138C416.966 416.487 414.43 417.47 414.252 417.323C414.072 417.177 417.88 414.177 422.712 410.66C427.716 407.017 434.237 400.702 437.857 395.993C441.355 391.446 446.228 386.118 448.687 384.156C453.688 380.166 518.226 351.153 526.99 348.955C532.128 347.668 533.016 347.837 537.328 350.935C542.911 354.95 546.426 355.647 553.454 354.138C574.089 349.706 589.051 335.765 585.553 324.23C584.692 321.391 584.974 320.306 586.912 319.015C589.503 317.288 599.965 312.778 610.922 308.666C614.551 307.304 621.581 304.663 626.542 302.799C661.395 289.706 692.577 273.772 713.585 258.322C719.789 253.76 726.033 252.07 726.307 254.88ZM570.622 308.707C572.397 310.915 573.032 313.764 573.37 321.035C573.794 330.154 573.662 330.647 569.657 334.847C565.664 339.037 556.94 342.973 550.193 343.63C546.744 343.965 538.639 338.345 533.028 331.726C529.402 327.452 528.925 324.576 531.795 324.297C532.49 324.229 535.964 321.453 539.515 318.13C547.614 310.55 553.674 307.405 561.879 306.526C567.414 305.932 568.634 306.237 570.622 308.707ZM408.062 396.355C408.507 400.926 402.373 407.449 396.167 409.006C384.096 412.032 380.838 408.006 388.727 399.81C392.969 395.403 394.174 394.835 400.616 394.208C407.285 393.56 407.805 393.709 408.062 396.355ZM363.489 423.899C363.881 427.925 327.857 452.154 316.265 455.662C309.588 457.682 302.596 456.451 300.845 452.949C298.131 447.521 312.029 436.228 328.677 430.335C341.327 425.857 363.285 421.797 363.489 423.899Z" fill="white"/>
</g>
<defs>
<clipPath id="clip0_671_1332">
<rect width="817" height="520" fill="white"/>
</clipPath>
</defs>
</svg>
