<svg width="915" height="358" viewBox="0 0 915 358" fill="none" xmlns="http://www.w3.org/2000/svg">
<g clip-path="url(#clip0_573_2679)">
<path fill-rule="evenodd" clip-rule="evenodd" d="M671.237 18.0991C674.988 20.189 677.54 23.6741 687.191 39.8921C698.195 58.3825 705.019 66.9306 711.362 70.1664C715.649 72.3535 716.448 72.5039 719.1 71.6292C720.882 71.041 724.525 68.1297 728.269 64.3024C731.685 60.8096 735.748 57.1631 737.298 56.2005C739.876 54.5983 740.229 54.5645 741.463 55.7974C742.696 57.0304 742.696 57.5958 741.464 62.4584C736.268 82.9584 735.607 84.4525 730.617 86.9962C725.833 89.4342 716.564 88.3728 706.582 84.2438C699.142 81.166 692.523 79.0093 692.03 79.502C691.211 80.3209 694.642 86.3776 700.599 94.6307C710.794 108.755 721.371 124.042 722.623 126.463C725.297 131.632 724.257 138.054 718.88 149.574C717.405 152.733 715.795 157.297 715.301 159.715C714.446 163.907 714.57 164.525 717.969 172.985C720.979 180.476 723.302 187.362 730.653 210.591C731.094 211.986 732.074 215.408 732.831 218.197C733.588 220.986 734.928 225.93 735.808 229.183C737.673 236.065 737.86 243.669 736.446 255.092C735.219 264.995 736.069 268.79 740.352 272.549C743.472 275.289 751.444 278.031 755.066 277.612C757.183 277.367 757.042 277.155 752.528 273.795C747.824 270.293 744.203 266.171 744.203 264.316C744.203 263.796 747.018 260.363 750.457 256.686C762.702 243.599 762.575 236.788 749.493 205.034C740.781 183.888 739.807 176.425 745.172 171.929C747.671 169.833 748.586 169.605 754.478 169.605C758.072 169.605 761.221 169.268 761.476 168.854C761.731 168.442 760.039 165.195 757.717 161.638C745.836 143.445 743.319 131.835 747.995 116.787C750.96 107.244 750.781 102.727 747.078 93.7467C744.295 86.9953 744.029 85.6331 743.978 77.8127C743.92 69.0382 745.216 62.2032 747.261 60.5079C748.162 59.76 748.928 60.0989 750.748 62.0527C752.756 64.2077 761.295 78.6181 762.936 82.6212C763.242 83.3674 764.954 85.3635 766.741 87.0587C768.527 88.7531 778.549 98.6406 789.011 109.032C808.237 128.127 816.741 134.956 821.292 134.956C822.549 134.956 824.897 134.177 826.512 133.225C829.178 131.652 829.708 131.602 832.278 132.675C836.243 134.332 842.189 141.141 851.794 155.025C861.386 168.89 867.038 175.361 871.578 177.672C876.604 180.231 884.169 185.338 893.42 192.416C907.502 203.191 909.102 204.104 915.849 205.218C926.447 206.968 931.659 211.462 944.129 229.606C958.542 250.574 970.178 261.162 988.53 270.003C1000.92 275.971 1012.96 279.166 1038.41 283.229C1068.1 287.969 1071.96 288.995 1085.12 295.625C1093.24 299.718 1107 309.434 1119.15 319.654C1131.77 330.275 1150.58 339.798 1168.6 344.696C1184.36 348.977 1178.31 348.822 1350.16 349.338C1438.62 349.602 1511 350.145 1511 350.543C1511 350.94 1510.14 351.477 1509.1 351.735C1508.05 351.994 1434.91 352.075 1346.57 351.915L1185.94 351.625L1176.21 349.417C1164.98 346.868 1154.24 343.224 1144.25 338.576C1136.51 334.971 1122.4 326.025 1117.33 321.502C1111.31 316.133 1095.89 304.875 1088.89 300.746C1077.79 294.194 1067.2 290.642 1050.88 287.997C1047.74 287.488 1042.6 286.662 1039.47 286.162C1014.65 282.207 1000.26 278.452 987.974 272.723C969.632 264.171 957.381 253.096 942.368 231.493C930.117 213.865 924.856 209.215 915.913 208.108C910.3 207.413 906.239 205.391 898.164 199.27C882.104 187.098 878.676 184.674 873.474 181.82C865.329 177.35 859.963 171.749 850.7 158.049C844.558 148.964 837.192 139.447 834.734 137.421C831.22 134.526 829.248 134.355 825.787 136.646C822.597 138.758 822.014 138.748 817.112 136.495C810.601 133.504 803.494 127.336 787.126 110.476C778.631 101.724 770.286 93.7459 768.582 92.747C765.507 90.9444 761.3 85.1472 756.285 75.8005C754.914 73.2442 752.709 69.4413 751.387 67.3497L748.982 63.5468L747.781 66.4835C745.777 71.3833 746.112 83.7131 748.412 89.7444C749.476 92.5332 750.634 95.1952 750.985 95.66C751.336 96.1248 752.075 98.5966 752.627 101.153C753.671 105.987 753.442 107.533 749.761 120.59C746.358 132.661 749.135 143.322 760.207 160.697C766.866 171.145 766.346 172.123 753.98 172.41C748.218 172.544 747.239 172.802 745.818 174.558C744.931 175.655 744.203 177.727 744.203 179.162C744.203 182.776 747.836 194.33 752.189 204.555C760.978 225.206 763.452 235.455 761.585 243.479C760.292 249.043 755.678 256.393 751.463 259.607C747.469 262.653 746.927 264.704 749.408 267.383C751.622 269.775 762.102 277.815 767.759 281.462C772.518 284.532 771.441 286.314 766.113 284.184C764.155 283.4 758.899 281.874 754.434 280.791C740.906 277.513 737.759 275.761 734.72 269.807C732.918 266.278 732.926 267.749 734.581 243.549C734.946 238.204 734.661 235.373 733.22 230.028C732.216 226.31 730.896 221.353 730.285 219.015C727.226 207.299 719.373 183.594 714.617 171.717C711.152 163.063 711.491 159.279 716.792 147.49C721.199 137.688 722.147 132.516 720.332 128.183C719.653 126.563 716.819 122.005 714.033 118.055C711.246 114.104 705.065 105.357 700.296 98.6178C690.539 84.8302 688.188 80.7122 688.567 78.0679C688.976 75.2098 691.12 75.4109 700.879 79.2265C713.483 84.1525 717.417 85.2139 723.41 85.3052C729.749 85.4007 732.558 83.8178 733.918 79.3812C736.139 72.1371 739.131 61.0082 739.131 59.9916C739.131 57.9194 737.683 58.9192 731.442 65.3004C724.132 72.7752 721.687 74.2515 716.617 74.2515C707.287 74.2515 699.242 65.57 682.855 37.8217C676.107 26.3953 670.346 19.18 667.969 19.18C665.805 19.18 664.272 21.8166 661.824 29.7435C658.628 40.0958 655.712 45.3091 647.87 54.7047C633.509 71.9064 632.906 74.7628 640.372 90.1669C646.053 101.886 646.333 102.642 649.06 113.668C651.789 124.697 652.966 126.963 656.586 128.157C660.875 129.572 661.878 131.292 663.016 139.182C665.519 156.532 670.276 163.192 688.828 175.323C701.646 183.702 706.457 188.01 708.875 193.267C711.281 198.498 711.722 200.127 715.168 216.507C716.83 224.408 718.514 232.394 718.91 234.254C719.306 236.113 720.974 242.948 722.617 249.443C726.053 263.026 726.418 267.634 724.061 267.634C722.108 267.634 720.04 265.351 715.262 257.916C690.014 218.63 687.409 215.388 679.256 213.101C676.447 212.314 673.401 210.856 672.486 209.862C670.588 207.802 668.38 201.715 667.615 196.436C666.087 185.884 662.784 179.6 658.011 178.162C651.712 176.264 646.916 170.799 640.001 157.639C637.887 153.615 634.502 147.977 632.48 145.113L628.804 139.903L628.832 130.035C628.848 124.608 629.038 116.174 629.255 111.294C629.648 102.442 629.642 102.407 626.69 96.9276C624.134 92.1808 623.691 90.4965 623.436 84.5336C623.251 80.2077 623.646 75.4143 624.493 71.69C626.13 64.4916 626.124 64.8145 624.62 64.8145C622.586 64.8145 619.272 70.005 616.685 77.2372C612.11 90.0343 606.8 95.3693 593.874 100.158C584.282 103.711 582.728 104.803 582.728 107.988C582.728 109.443 582.194 110.707 581.46 110.988C579.242 111.839 580.033 113.452 587.056 122.403C602.714 142.362 605.616 148.717 602.636 156.517C601.338 159.917 601.309 160.848 602.361 165.589C604.266 174.184 602.644 177.11 600.188 169.508C598.453 164.138 598.41 159.476 600.059 155.531C600.757 153.862 601.327 151.793 601.327 150.933C601.327 147.952 596.796 139.826 590.605 131.706C579.106 116.626 576.35 112.187 577.494 110.596C578.054 109.818 578.734 108.611 579.006 107.914C580.548 103.956 581.719 102.716 586.128 100.366C588.806 98.9398 591.597 97.7727 592.332 97.7727C595.218 97.7727 603.403 93.2168 606.808 89.714C610.155 86.2728 611.47 83.6894 615.4 72.8428C618.192 65.139 627.354 58.2625 628.58 62.9511C628.799 63.7852 628.408 66.5418 627.711 69.0779C627.003 71.6571 626.424 77.4104 626.397 82.1387C626.349 90.2312 626.48 90.8574 629.477 96.9039C632.995 103.998 633.043 104.527 631.639 120.59C630.381 134.988 630.923 138.741 635.059 144.243C636.819 146.584 640.126 152.123 642.408 156.555C648.597 168.571 651.462 171.962 658.398 175.479C663.684 178.16 664.544 178.955 666.503 182.973C667.71 185.446 669.353 190.883 670.156 195.055C672.64 207.961 673.099 208.603 681.642 211.109C687.216 212.745 693.706 219.678 703.015 233.947C707.389 240.651 711.122 246.505 711.312 246.956C711.5 247.406 713.935 251.198 716.721 255.381C723.278 265.224 723.486 263.874 718.52 243.777C716.422 235.285 713.9 224.155 712.918 219.042C710.178 204.794 707.379 195.348 704.727 191.401C702.988 188.811 698.457 185.191 688.388 178.347C673.292 168.085 668.635 163.599 664.725 155.551C662.314 150.588 659.662 139.675 659.661 134.715C659.661 132.735 659.065 132.106 655.911 130.755C650.696 128.519 648.865 125.203 646.102 112.984C644.578 106.25 642.304 100.065 638.176 91.4346C633.092 80.806 632.608 79.4826 632.608 76.207C632.608 71.3993 636.178 64.8812 644.173 55.096C653.533 43.6392 655.506 40.291 658.755 30.3545C662.237 19.7014 663.295 17.876 666.433 17.1095C667.73 16.7935 669.574 17.1729 671.237 18.0991ZM386.039 85.1463C389.053 87.5159 393.05 96.3403 398.744 113.201C407.299 138.531 414.457 153.146 422.63 161.97C428.792 168.624 432.681 170.638 443.713 172.89C453.321 174.853 460.247 177.741 467.081 182.636C471.772 185.995 479.757 189.148 489.732 191.581C511.311 196.843 520.438 200.539 533.499 209.301C546.258 217.861 554.653 225.269 582.305 252.367C611.445 280.922 617.981 284.288 651.207 287.849C665.639 289.396 677.939 292.018 686.177 295.306C694.003 298.428 703.043 302.952 707.135 305.795C708.37 306.652 709.627 307.353 709.929 307.353C710.232 307.353 712.647 308.803 715.294 310.574C722.139 315.152 727.15 317.959 738.674 323.67C753.845 331.189 787.585 344.134 790.407 343.518C791.034 343.381 789.135 341.652 786.188 339.675C783.241 337.698 776.298 332.271 770.759 327.614C739.531 301.36 726.455 291.791 712.754 285.171C701.926 279.939 696.763 278.28 681.96 275.279C655.739 269.963 648.306 265.979 625.539 245.034C611.806 232.4 602.694 225.644 593.313 221.14C586.897 218.06 583.558 217.18 571.112 215.285C568.211 214.843 564.406 213.827 562.658 213.028C558.23 211.001 547.23 203.321 539.189 196.64C528.199 187.509 521.8 183.048 515.517 180.135C509.659 177.419 495.444 172.53 489.732 171.266C488.104 170.906 479.545 169.085 470.71 167.22C448.774 162.588 446.615 161.625 446.615 156.472C446.615 154.211 447.528 152.891 451.926 148.786C454.848 146.06 461.836 140.684 467.454 136.839C481.592 127.165 485.019 123.435 493.446 108.553C494.698 106.34 496.881 103.941 498.314 103.2C500.79 101.92 501.11 101.959 505.123 104.04C507.438 105.241 509.793 106.224 510.354 106.224C510.916 106.224 513.813 104.641 516.79 102.707C523.293 98.4834 529.533 96.0825 534.007 96.0825C540.166 96.0825 543.644 94.4422 546.804 90.047C551.133 84.0224 556.108 83.5119 560.867 88.6052C563.573 91.5005 565.138 96.0994 567.572 108.316C569.186 116.416 571.19 121.548 575.432 128.456C577.375 131.618 578.429 135.456 580.122 145.52C580.59 148.309 581.425 153.252 581.977 156.506C582.53 159.76 584.252 165.141 585.806 168.465C588.127 173.435 589.795 175.533 595.19 180.272C598.798 183.443 603.769 187.896 606.237 190.167C610.829 194.396 612.747 194.915 610.367 191.285C607.381 186.729 603.042 177.856 603.465 177.172C604.342 175.753 606.419 177.431 608.071 180.893C611.901 188.917 618.819 198.768 624.469 204.241C628.441 208.09 629.38 210.169 627.146 210.169C626.06 210.169 620.462 205.987 614.009 200.355C611.588 198.242 604.827 192.461 594.802 183.93C583.34 174.175 581.601 170.61 578.121 149.745C575.528 134.197 574.788 131.667 571.395 126.737C569.825 124.454 567.952 120.521 567.235 117.997C564.948 109.949 564.129 106.491 564.129 104.882C564.129 101.756 560.501 91.9213 558.744 90.2819C555.607 87.3562 552.857 87.2049 550.534 89.8298C544.524 96.6183 543.119 97.5978 538.583 98.1589C528.381 99.4215 525.247 100.445 518.897 104.588C511.871 109.174 509.271 109.65 505.372 107.069C502.237 104.993 499.699 104.92 497.983 106.857C497.262 107.67 494.662 111.759 492.205 115.942C486.554 125.562 480.857 131.193 468.503 139.369C457.306 146.779 449.152 154.043 449.152 156.606C449.152 159.421 453.653 161.1 469.442 164.173C479.189 166.071 487.798 168.111 499.454 171.282C512.403 174.806 523.81 180.789 534.962 189.904C558.571 209.199 566.1 213.397 577.305 213.514C581.308 213.555 589.712 216.157 595.814 219.245C605.327 224.059 612.302 229.455 630.703 246.239C650.298 264.111 657.736 267.746 686.536 273.528C712.171 278.674 727.454 287.768 768.298 322.181C786.852 337.814 792.818 341.791 804.228 346.133C808.073 347.596 810.676 349.088 810.842 349.922C811.403 352.743 804.04 351.18 781.402 343.675C753.391 334.387 732.234 324.749 713.768 312.862C691.683 298.645 678.032 293.582 654.589 290.915C637.122 288.928 632.267 288.12 622.463 285.569C611.308 282.666 599.663 273.481 569.201 243.559C545.603 220.379 536.053 212.729 520.935 204.9C512.568 200.566 506.217 198.353 493.536 195.351C477.642 191.589 471.176 188.975 462.256 182.708C459.466 180.748 456.232 178.874 455.07 178.543C449.636 176.997 446.593 176.263 440.993 175.148C421.189 171.204 410.546 156.471 395.48 112.139C388.413 91.3416 385.738 86.1384 382.62 87.128C379.848 88.0069 375.826 97.3409 373.003 109.443C370.988 118.081 368.544 121.687 363.048 124.131C356.04 127.248 354.905 127.999 353.765 130.269C352.181 133.422 354.255 139.581 361.034 151.858C367.21 163.044 368.855 167.803 371.402 181.858C376.78 211.537 381.864 223.287 394.833 236.011C402.668 243.699 403.622 245.11 401.531 245.912C398.537 247.06 372.966 230.619 358.07 217.968C349.183 210.421 347.725 205.675 347.711 184.237C347.706 175.542 347.314 167.837 346.808 166.491C346.317 165.182 344.066 162.21 341.805 159.886C335.405 153.308 333.83 149.58 334.482 142.56C334.968 137.329 334.863 136.711 333.404 136.248C332.514 135.965 329.621 136.495 326.974 137.425C317.507 140.751 310.075 148.329 303.699 161.154C298.936 170.737 295.857 174.888 291.838 177.145C290 178.178 288.718 179.38 288.989 179.817C289.258 180.253 291.641 181.979 294.284 183.653C306.144 191.162 317.191 202.672 322.621 213.176C328.26 224.084 330.583 233.22 331.634 248.62C333.744 279.532 336.303 294.455 343.25 316.371C347.649 330.248 345.944 331.844 337.746 321.524C333.966 316.767 325.72 303.011 325.72 301.464C325.72 300.453 316.761 286.505 313.627 282.638C307.234 274.75 304.704 266.635 302.889 248.197C300.058 219.447 299.299 215.898 294.975 211.145C292.97 208.942 289.238 206.788 287.424 206.788C286.005 206.788 283.928 211.299 282.193 218.147C279.488 228.829 271.402 241.437 267.258 241.437C263.612 241.437 263.628 237.561 267.372 213.126C270.377 193.521 269.763 181.152 266.134 188.166C264.602 191.126 259.234 194.063 255.297 194.094C249.606 194.138 246.356 197.475 239.934 209.869C235.413 218.592 231.74 223.363 224.965 229.31C218.803 234.718 214.916 239.3 206.207 251.42C192.1 271.052 189.651 271.547 172.012 258.338C161.189 250.234 157.985 248.197 156.06 248.197C153.628 248.197 150.799 252.067 147.721 259.606C144.272 268.054 139.52 274.798 135.277 277.266C132.927 278.633 129.227 279.682 124.51 280.317C113.428 281.811 112.942 282.122 101.883 294.833C79.1212 320.996 48.0284 339.679 14.1829 347.532C-4.33861 351.829 4.28975 351.598 -149.829 351.919C-228.876 352.083 -294.462 351.99 -295.575 351.711C-296.786 351.407 -297.291 350.896 -296.833 350.438C-296.383 349.988 -236.53 349.541 -151.932 349.357C3.97853 349.017 -4.5179 349.26 14.86 344.577C49.6761 336.165 80.736 316.682 103.528 288.962C109.912 281.196 115.895 277.815 123.303 277.788C132.265 277.755 138.739 272.849 143.273 262.653C144.638 259.582 146.326 255.819 147.025 254.29C147.723 252.761 149.449 250.194 150.862 248.585C154.639 244.286 157.413 244.581 165.041 250.099C185.666 265.019 187.311 265.904 191.309 264.25C194.287 263.017 197.954 258.74 206.521 246.507C210.3 241.111 216.735 233.659 222.942 227.493C232.24 218.253 233.591 216.504 238.156 207.809C243.228 198.147 247.725 192.848 251.514 192.07C252.571 191.852 254.825 191.452 256.522 191.181C260.473 190.548 263.72 187.979 265.278 184.251C266.767 180.686 268.934 180.727 270.672 184.35C273.216 189.655 272.822 198.143 268.982 220.878C267.26 231.065 266.925 238.056 268.156 238.056C269.352 238.056 273.188 233.159 275.368 228.851C276.451 226.71 278.522 220.995 279.97 216.152C281.417 211.31 283.231 206.651 284.001 205.8C286.694 202.826 291.818 204.307 296.67 209.463C301.639 214.742 303.022 219.605 304.561 237.211C307.04 265.572 308.924 272.624 316.629 282.363C321.291 288.257 324.662 293.701 329.485 303.128C335.399 314.686 343.223 325.859 341.562 320.373C341.294 319.487 340.247 316.1 339.237 312.846C334.213 296.667 329.102 265.113 329.102 250.271C329.102 244.433 328.782 242.05 326.441 230.451C325.2 224.304 318.784 210.928 314.243 205.02C309.749 199.177 302.574 192.559 295.788 188.001C283.339 179.64 282.518 178.245 288.621 175.804C293.046 174.035 296.083 170.338 301.157 160.551C303.515 156.002 306.773 150.481 308.395 148.28C314.151 140.474 325.73 133.266 332.516 133.266C335.794 133.266 338.754 136.157 338.004 138.626C335.626 146.438 337.085 151.468 343.625 158.005C350.156 164.533 350.443 165.667 350.626 185.661C350.811 205.975 351.348 207.901 358.779 214.87C365.95 221.596 390.299 238.902 392.591 238.902C393.138 238.902 391.901 237.096 389.841 234.887C385.173 229.882 381.62 224.631 378.835 218.62C374.442 209.139 372.369 201.725 368.853 182.915C366.066 168.011 365.271 165.701 358.302 152.308C354.425 144.856 350.995 137.167 350.68 135.222C349.855 130.128 351.941 126.139 356.44 124.205C367.299 119.539 368.358 118.203 371.364 105.378C373.514 96.2059 377.451 87.4483 380.504 85.0474C383.101 83.0057 383.322 83.0099 386.039 85.1463Z" fill="white"/>
</g>
<defs>
<clipPath id="clip0_573_2679">
<rect width="915" height="358" fill="white"/>
</clipPath>
</defs>
</svg>
