<svg width="14" height="16" viewBox="0 0 14 16" fill="none" xmlns="http://www.w3.org/2000/svg">
<path d="M13.8864 0.65625L0.423828 3.44025V4.30425L6.72237 3.00153V7.28025H2.12347C1.76816 8.54217 1.57776 9.87321 1.57776 11.2484C1.57776 12.6236 1.76239 13.9091 2.10568 15.1523H12.204C12.5478 13.9095 12.7319 12.6006 12.7319 11.2484C12.7319 9.89625 12.5415 8.54217 12.1862 7.28025H7.58733V2.82297L13.8859 1.52025L13.8864 0.65625ZM2.52398 11.2484C2.52398 10.1756 2.64707 9.12153 2.88891 8.09625H4.65491V12.8483H2.61678C2.55571 12.3203 2.52398 11.787 2.52398 11.2484ZM11.4213 8.09625C11.6636 9.12201 11.7862 10.1756 11.7862 11.2484C11.7862 11.787 11.7545 12.3203 11.6934 12.8483H9.65527V8.09625H11.4213ZM8.78983 8.09625V12.8483H5.52036V8.09625H8.78983Z" fill="#222A2F"/>
</svg>
