<svg width="14" height="17" viewBox="0 0 14 17" fill="none" xmlns="http://www.w3.org/2000/svg">
<path d="M0 14.025V5.6525C0 4.3775 0.499375 3.53458 1.49812 3.12375C2.49687 2.71292 4.04458 2.49333 6.14125 2.465L6.82125 1.0625H2.55V0H11.05V1.0625H8.09625L7.45875 2.465C9.24375 2.49333 10.7135 2.70938 11.8681 3.11313C13.0227 3.51688 13.6 4.36333 13.6 5.6525V14.025C13.6 14.8608 13.3131 15.5656 12.7394 16.1394C12.1656 16.7131 11.4608 17 10.625 17H2.975C2.13917 17 1.43437 16.7131 0.860625 16.1394C0.286875 15.5656 0 14.8608 0 14.025ZM10.7312 10.7525H2.8475C2.40833 10.7525 2.03646 10.7525 1.73187 10.7525C1.42729 10.7525 1.275 10.7525 1.275 10.7525H12.3037C12.3037 10.7525 12.155 10.7525 11.8575 10.7525C11.56 10.7525 11.1846 10.7525 10.7312 10.7525ZM6.86375 14.365C7.18958 14.365 7.46583 14.2517 7.6925 14.025C7.91917 13.7983 8.0325 13.5221 8.0325 13.1962C8.0325 12.8704 7.91917 12.5942 7.6925 12.3675C7.46583 12.1408 7.18958 12.0275 6.86375 12.0275C6.53792 12.0275 6.26167 12.1408 6.035 12.3675C5.80833 12.5942 5.695 12.8704 5.695 13.1962C5.695 13.5221 5.80833 13.7983 6.035 14.025C6.26167 14.2517 6.53792 14.365 6.86375 14.365ZM6.82125 4.90875C8.52125 4.90875 9.79979 4.90875 10.6569 4.90875C11.514 4.90875 12.0133 4.90875 12.155 4.90875H1.33875C1.48042 4.90875 1.99396 4.90875 2.87937 4.90875C3.76479 4.90875 5.07875 4.90875 6.82125 4.90875ZM1.275 9.4775H12.3037V6.18375H1.275V9.4775ZM2.8475 15.64H10.7312C11.1846 15.64 11.56 15.4842 11.8575 15.1725C12.155 14.8608 12.3037 14.4783 12.3037 14.025V10.7525H1.275V14.025C1.275 14.4783 1.42729 14.8608 1.73187 15.1725C2.03646 15.4842 2.40833 15.64 2.8475 15.64ZM6.82125 3.74C5.07875 3.74 3.76479 3.84271 2.87937 4.04812C1.99396 4.25354 1.48042 4.54042 1.33875 4.90875H12.155C12.0133 4.62542 11.514 4.35979 10.6569 4.11188C9.79979 3.86396 8.52125 3.74 6.82125 3.74Z" fill="white"/>
</svg>
