<svg width="792" height="362" viewBox="0 0 792 362" fill="none" xmlns="http://www.w3.org/2000/svg">
<g clip-path="url(#clip0_575_2686)">
<path fill-rule="evenodd" clip-rule="evenodd" d="M315.522 0.201899C316.706 0.400232 318.522 0.99685 319.558 1.52718C321.6 2.57382 327.833 6.98189 330.858 9.51926C334.984 12.9793 339.301 16.7606 342.398 19.6273C344.19 21.2851 346.741 23.5891 348.067 24.7473C349.394 25.9055 351.086 27.3989 351.828 28.0656C353.426 29.5014 354.667 29.6081 355.671 28.3965C357.597 26.0715 363.565 23.5573 367.717 23.3212C372.794 23.0329 373.709 23.2824 377.208 25.9098C381.935 29.4593 392.57 40.1893 398.71 47.6026C405.866 56.2441 406.374 57.0304 405.66 58.3675C405.181 59.2633 404.538 59.4595 402.084 59.4595C398.063 59.4595 390.2 57.2659 386.764 55.1856C385.759 54.5771 384.573 53.9191 384.129 53.7229C383.294 53.3542 379.122 50.6994 371.215 45.5033C366.213 42.2168 359.005 37.0316 357.822 35.868C357.41 35.4633 356.508 34.7615 355.817 34.3077C354.587 33.5009 354.363 33.6702 345.589 42.025C329.997 56.8736 323.61 63.3819 320.55 67.5437C312.983 77.835 311.808 82.1676 309.224 109.312C308.435 117.589 308.34 132.072 309 142.997C309.573 152.488 308.95 157.357 306.529 162.281C304.218 166.983 299.572 171.156 292.966 174.462C290.137 175.878 287.684 177.26 287.515 177.533C287.347 177.805 286.846 178.028 286.402 178.028C285.959 178.028 284.702 178.73 283.609 179.587C281.36 181.351 278.15 183.248 273.821 185.372C267.902 188.275 255.659 197.275 248.401 204.057C245.815 206.474 243.273 208.616 242.751 208.817C241.831 209.172 232.69 218.373 227.27 224.399C221.603 230.7 220.66 231.825 216.216 237.582C207.156 249.32 199.37 262.156 195.294 272.075C192.742 278.282 191.35 283.747 191.586 286.627L191.762 288.783L202.255 288.633C208.026 288.55 213.263 288.371 213.894 288.235C214.941 288.008 215.072 287.51 215.414 282.456C215.65 278.966 215.579 276.379 215.223 275.444C214.701 274.077 214.429 273.962 211.717 273.962C207.085 273.962 207.194 273.136 212.576 267.417C227.189 251.888 227.781 251.31 229.658 250.764C232.31 249.992 246.852 248.429 251.726 248.392L255.727 248.361L258.452 252.233C267.774 265.484 268.255 266.34 266.85 267.21C266.568 267.384 263.685 264.803 260.444 261.474C255.144 256.029 254.46 255.497 253.637 256.181C253.134 256.598 252.507 257.435 252.242 258.04C251.147 260.548 246.39 266.983 244.577 268.412C242.319 270.19 242.073 271.332 242.073 280.066C242.073 289.144 242.229 289.581 245.087 288.493C247.877 287.43 255.563 286.068 265.749 284.831L268.709 284.471L268.851 275.039C269.018 263.919 268.829 264.26 274.814 264.26C278.715 264.26 278.804 264.231 277.912 263.244C277.217 262.475 275.887 262.135 272.447 261.848C266.906 261.386 266.742 260.934 270.458 256.369C271.863 254.643 275.642 249.831 278.855 245.676C282.068 241.521 285.095 237.879 285.581 237.582C286.097 237.268 290.033 237.095 295.02 237.166C305.418 237.316 311.283 238.289 322.174 241.671C325.799 242.797 326.377 242.674 328.064 240.412C329.23 238.848 330.185 239.303 333.693 243.093C335.537 245.086 339.346 249.111 342.158 252.036C344.969 254.962 347.27 257.632 347.27 257.971C347.27 259.398 345.465 258.673 342.72 256.144C338.212 251.99 329.344 246.475 327.174 246.475C326.205 246.475 322.698 250.386 313.505 261.72L310.949 264.871V275.3C310.949 282.697 311.129 285.789 311.569 285.936C311.91 286.05 313.303 285.98 314.663 285.781C321.233 284.82 325.445 284.144 327.899 283.655C329.378 283.36 333.01 282.751 335.97 282.3C345.537 280.843 348.333 280.297 349.018 279.753C349.533 279.345 349.691 274.913 349.691 260.912V242.604L355.21 236.051C362.274 227.664 362.285 227.65 361.875 227.239C361.684 227.049 360.136 226.681 358.435 226.423C352.421 225.511 345.046 224.416 339.198 223.568C330.658 222.329 329.203 222.017 329.146 221.414C328.989 219.776 331.654 219.631 348.884 220.341C358.354 220.731 366.647 221.259 367.312 221.513C368.424 221.938 369.853 224.143 375.108 233.54C376.019 235.171 377.393 237.475 378.16 238.66L379.555 240.816L379.824 258.602L380.093 276.387L385.474 276.684C388.433 276.848 391.279 276.88 391.797 276.756C392.678 276.545 392.738 274.75 392.738 248.471C392.738 220.58 392.644 218.9 390.879 215.216C390.349 214.109 387.13 204.325 386.491 201.877C386.102 200.387 384.759 201.349 383.855 203.763C383.329 205.172 381.766 208.506 380.384 211.174C379.001 213.842 377.464 217.055 376.968 218.315C376.324 219.95 375.757 220.606 374.986 220.606C373.756 220.606 373.63 219.644 374.4 216.128C374.672 214.886 375.292 211.322 375.779 208.21C376.265 205.097 376.99 200.853 377.389 198.778C378.648 192.232 379.261 188.204 380.099 180.993C380.908 174.023 381.672 169.527 382.572 166.441C382.83 165.552 383.424 162.399 383.891 159.435C384.357 156.47 385.069 152.105 385.473 149.734C385.877 147.362 386.576 143.239 387.026 140.571C387.476 137.904 388.217 133.659 388.673 131.14C389.13 128.62 389.778 124.861 390.114 122.786C390.741 118.921 391.31 117.666 392.433 117.666C393.005 117.666 393.57 120.507 395.17 131.409C395.344 132.595 395.826 135.869 396.241 138.685C398.123 151.47 398.756 155.93 399.203 159.581C399.746 164.006 400.483 168.459 401.588 173.986C402.718 179.639 404.073 189.162 404.311 193.119C404.586 197.701 405.421 203.153 406.21 205.515C406.604 206.694 406.811 210.691 406.761 216.173C406.718 220.997 406.816 225.162 406.98 225.429C407.144 225.694 408.547 224.657 410.098 223.124C411.648 221.591 413.643 219.974 414.531 219.533C415.419 219.091 417.871 217.697 419.98 216.434C422.089 215.171 423.957 214.138 424.131 214.138C424.871 214.138 432.466 209.179 434.44 207.406C435.624 206.344 437.316 205.084 438.2 204.606C439.084 204.129 441.747 202.119 444.119 200.14C449.055 196.021 458.15 189.81 462.611 187.512C468.875 184.286 478.673 182.943 487.98 184.035C491.039 184.393 496.884 186.651 499.333 188.419C501.136 189.721 508.923 192.941 512.732 193.959C514.36 194.394 516.176 194.972 516.768 195.244C521.655 197.488 526.695 199.586 527.201 199.586C527.537 199.586 528.234 199.804 528.748 200.07C529.262 200.336 530.771 200.969 532.103 201.476C533.435 201.984 535.493 202.829 536.677 203.354C537.861 203.88 539.556 204.478 540.444 204.682C541.977 205.036 548.675 208.119 550.398 209.264C552.03 210.349 559.644 214.677 559.92 214.677C560.077 214.677 560.965 215.293 561.893 216.044C562.822 216.796 565.518 218.916 567.886 220.754C570.254 222.593 572.793 224.646 573.531 225.316C574.267 225.986 575.017 226.534 575.195 226.534C575.375 226.534 576.213 227.13 577.059 227.858C579.807 230.223 587.852 234.014 591.587 234.703C594.368 235.216 596.282 235.218 600.348 234.714C610.476 233.458 612.559 233.695 626.269 237.661C629.68 238.648 631.717 239.121 636.223 239.973C637.999 240.308 640.541 240.808 641.873 241.082C643.205 241.356 645.99 241.725 648.061 241.903C650.133 242.08 653.601 242.473 655.768 242.776C660.424 243.427 662.205 243.066 660.149 241.888C659.42 241.47 658.46 240.978 658.016 240.794C656.083 239.994 639.718 231.786 637.03 230.268C632.608 227.771 615.279 217.236 614.969 216.856C614.309 216.047 603.083 208.81 600.171 207.317C594.716 204.519 593.183 203.645 592.997 203.224C592.898 203.002 592.55 202.82 592.224 202.82C591.898 202.82 591.131 202.368 590.52 201.816C589.909 201.263 586.02 199.056 581.876 196.91C577.733 194.765 574.101 192.821 573.805 192.591C573.509 192.361 572.662 191.995 571.922 191.777C569.041 190.928 561.548 186.9 560.598 185.691C560.048 184.99 558.678 183.707 557.554 182.841C556.43 181.974 554.487 180.476 553.236 179.512C550.238 177.201 543.125 169.158 542.024 166.834C541.546 165.824 540.731 164.573 540.213 164.054C539.695 163.536 537.611 160.343 535.582 156.961C528.014 144.344 519.488 137.949 498.204 128.933C489.408 125.207 484.22 122.465 480.507 119.58C476.532 116.493 474.926 114.73 469.924 107.965C465.18 101.55 463.787 99.8586 459.492 95.2996C449.595 84.7933 436.315 75.0599 424.128 69.3805C417.678 66.3747 417.005 66.0848 415.472 65.6547C413.369 65.0645 414.136 63.5296 418.432 59.7392C420.726 57.7149 426.961 51.8764 432.288 46.764C448.927 30.7954 450.26 29.9207 455.331 31.6469C459.774 33.1603 463.986 37.5474 467.801 44.6383C471.955 52.3599 473.712 53.3456 484.606 54.0705C495.096 54.7684 496.625 54.9932 501.701 56.5863C516.596 61.2612 530.548 73.3924 547.775 96.647C551.583 101.786 558.084 111.311 560.347 115.065C569.332 129.97 577.39 145.759 582.167 157.818C583.106 160.189 584.305 162.978 584.83 164.016C585.356 165.053 586.21 166.993 586.729 168.327C587.248 169.661 588.003 171.517 588.407 172.451C588.81 173.385 589.143 174.476 589.147 174.876C589.158 176.187 594.175 180.552 598.019 182.595C600.091 183.696 602.016 184.817 602.297 185.085C602.578 185.354 603.305 185.573 603.911 185.571C604.899 185.569 608.557 186.625 611.471 187.755C612.063 187.985 613.879 188.582 615.507 189.082C619.342 190.262 624.562 192.856 626.269 194.43C627.009 195.113 628.704 196.303 630.035 197.074C631.367 197.847 633.788 199.576 635.416 200.918C637.044 202.26 639.593 204.205 641.08 205.241C642.567 206.276 644.747 208.253 645.923 209.634C647.099 211.014 649.664 213.865 651.623 215.97C655.838 220.499 660.529 226.017 664.225 230.792C668.938 236.882 674.159 244.009 674.159 244.353C674.159 244.736 678.554 246.039 684.245 247.343C687.21 248.022 689.465 248.155 693.662 247.897C696.696 247.71 701.753 247.402 704.9 247.212C716.189 246.532 722.722 248.738 735.546 257.562C737.79 259.106 741.906 261.78 744.693 263.504C747.48 265.228 754.845 270.249 761.06 274.661C767.275 279.073 772.965 283.107 773.705 283.626C777.349 286.177 784.321 290.256 787.947 291.957C790.419 293.116 792 294.182 792 294.689C792 295.146 791.621 295.52 791.158 295.52C789.863 295.52 785.105 293.373 781.363 291.1C779.508 289.974 777.892 289.052 777.772 289.052C777.354 289.052 767.964 282.513 755.715 273.692C753.245 271.914 749.126 269.125 746.561 267.494C743.995 265.864 738.505 262.283 734.36 259.536C721.052 250.716 717.875 249.56 706.941 249.555C702.922 249.553 698.071 249.847 696.159 250.208C693.261 250.756 691.704 250.721 686.784 249.996C683.54 249.517 680.158 248.897 679.27 248.617C678.383 248.338 675.752 247.499 673.425 246.753C670.233 245.73 667.986 245.39 664.277 245.366C655.621 245.312 644.282 244.172 637.3 242.655C628.04 240.643 626.872 240.348 619.543 238.181C614.175 236.593 610.888 236.132 607.167 236.442C595.382 237.422 591.385 237.436 588.77 236.506C582.366 234.227 577.445 231.299 569.829 225.236C567.345 223.259 564.258 220.883 562.968 219.954C561.678 219.026 560.622 218.092 560.622 217.879C560.622 217.665 559.593 216.984 558.335 216.365C557.077 215.746 554.837 214.509 553.358 213.618C551.878 212.726 550.304 211.854 549.86 211.678C543.861 209.315 538.127 206.828 537.484 206.312C536.428 205.463 525.67 201.359 521.879 200.358C518.72 199.523 516.237 198.576 511.925 196.561C507.79 194.628 500.108 191.502 499.493 191.502C499.191 191.502 497.99 191.049 496.825 190.495C495.659 189.941 493.737 189.075 492.554 188.569C491.37 188.063 489.585 187.25 488.588 186.762C487.228 186.095 485.276 185.877 480.786 185.886C474.645 185.899 471.708 186.511 467.263 188.702C466.08 189.286 463.053 190.736 460.537 191.924C455.818 194.152 442.677 203.569 437.593 208.364C433.303 212.412 430.976 213.938 424.76 216.781C421.593 218.23 418.734 219.683 418.407 220.011C418.081 220.338 417.605 220.606 417.35 220.606C416.421 220.606 411.95 224.407 410.24 226.653C409.273 227.921 408.047 230.172 407.516 231.654C406.286 235.088 405.908 235.502 404.829 234.605C404.078 233.981 403.968 232.413 404.02 223.067C404.053 217.119 403.826 209.948 403.515 207.132C402.344 196.52 402.125 194.987 401.686 194.291C401.147 193.44 399.871 184.208 399.25 176.681C399.006 173.717 398.654 170.928 398.469 170.483C398.284 170.039 397.897 167.735 397.608 165.363C397.32 162.992 396.703 158.505 396.239 155.393C394.728 145.267 393.791 138.503 393.258 133.878C392.97 131.382 392.634 129.239 392.511 129.116C391.966 128.57 390.868 131.761 390.239 135.721C389.586 139.832 388.768 144.722 387.041 154.854C385.506 163.855 385.097 166.452 385.089 167.249C385.082 168.041 384.229 173.745 382.754 182.879C382.056 187.201 381.317 191.057 379.501 199.856C378.322 205.57 378.019 208.21 378.543 208.208C378.804 208.206 379.465 207.055 380.013 205.648C383.442 196.847 384.468 194.718 385.433 194.402C387.294 193.795 388.241 196.089 391.67 209.502C392.512 212.792 393.579 216.213 394.042 217.102C394.758 218.477 394.885 221.482 394.887 237.146C394.889 247.281 395.1 255.704 395.357 255.862C396.015 256.269 396.999 254.955 399.964 249.709C403.242 243.908 410.075 233.549 411.441 232.311C412.435 231.41 412.547 231.42 413.945 232.521L415.408 233.674L416.853 232.341C418.265 231.037 418.599 230.994 431.75 230.377C439.148 230.031 448.471 229.755 452.466 229.766L459.73 229.784L473.897 243.654C484.904 254.431 487.98 257.734 487.695 258.467C487.492 258.985 487.171 259.416 486.981 259.424C486.79 259.432 483.85 259.541 480.447 259.668C477.043 259.794 472.806 260.076 471.03 260.295L467.802 260.692L470.223 261.089C471.555 261.307 474.865 261.504 477.578 261.526C480.291 261.548 482.894 261.713 483.362 261.893C484.112 262.181 484.213 264.104 484.213 277.954C484.213 289.472 484.386 293.86 484.859 294.334C485.214 294.69 486.9 294.981 488.607 294.981C491.123 294.981 491.814 294.784 492.266 293.938C492.583 293.344 492.823 289.181 492.823 284.256C492.823 274.655 492.96 275.008 488.94 274.281C487.841 274.082 486.789 273.672 486.601 273.369C486.415 273.065 487.302 271.316 488.574 269.482C489.847 267.648 493.636 262.024 496.997 256.985C500.356 251.945 503.588 247.449 504.177 246.993C505.24 246.17 505.237 246.142 503.84 243.636C503.064 242.247 502.559 240.901 502.717 240.645C502.874 240.39 511.548 240.018 521.992 239.819C532.436 239.62 543.409 239.307 546.375 239.122L551.769 238.787L557.23 244.921C560.233 248.296 563.183 251.626 563.784 252.323C564.386 253.021 566.426 255.325 568.317 257.443C579.637 270.129 579.442 269.878 578.646 270.683C578.017 271.32 574.16 271.435 555.401 271.377C543.031 271.339 531.215 271.48 529.144 271.692L525.377 272.075V284.202V296.328L547.706 296.149C562.108 296.033 570.275 295.77 570.709 295.409C571.199 295.002 571.384 292.442 571.384 286.049C571.384 278.782 571.525 277.17 572.192 276.796C572.636 276.546 575.119 276.528 577.707 276.755C592.286 278.032 607.301 283.842 626.962 295.815C629.859 297.579 632.649 299.265 633.161 299.562C633.674 299.858 634.816 300.586 635.699 301.179C636.582 301.771 637.788 302.548 638.378 302.904C644.93 306.854 646.16 307.752 646.169 308.589C646.18 309.731 646.814 309.727 630.842 308.695C570.122 304.773 491.289 306.03 429.328 311.907C413.187 313.439 400.963 314.735 395.698 315.474C393.626 315.765 389.752 316.244 387.088 316.54C384.425 316.836 379.703 317.426 376.596 317.85C373.488 318.275 369.008 318.875 366.641 319.184C364.273 319.492 360.883 319.99 359.108 320.289C357.332 320.589 353.458 321.211 350.498 321.672C339.071 323.451 334.767 324.181 331.319 324.927C329.353 325.353 327.202 325.701 326.539 325.701C325.875 325.701 324.457 325.927 323.387 326.204C322.317 326.481 319.262 327.104 316.599 327.588C313.935 328.072 310.182 328.801 308.258 329.207C306.335 329.614 302.945 330.33 300.725 330.799C293.55 332.315 284.169 334.433 280.278 335.415C273.759 337.061 266.827 338.781 265.211 339.153C264.175 339.392 261.875 340.003 260.099 340.513C258.324 341.022 255.66 341.761 254.18 342.156C252.701 342.551 248.826 343.635 245.571 344.568C242.316 345.5 238.844 346.465 237.857 346.714C236.871 346.962 235.418 347.401 234.629 347.688C233.84 347.975 231.863 348.606 230.235 349.09C226.708 350.14 218.857 352.665 201.591 358.302C189.648 362.201 186.778 362.774 187.319 361.15C187.533 360.505 196.01 357.544 215.438 351.329C229.138 346.947 229.086 346.963 232.657 345.907C234.433 345.381 236.531 344.722 237.319 344.442C238.108 344.161 239.561 343.728 240.548 343.477C241.535 343.227 243.674 342.626 245.302 342.143C246.93 341.659 249.472 340.939 250.952 340.542C252.432 340.146 255.095 339.405 256.871 338.896C258.647 338.387 260.947 337.77 261.983 337.524C263.018 337.279 265.319 336.715 267.094 336.272C268.87 335.83 272.865 334.845 275.973 334.084C279.08 333.323 282.47 332.473 283.506 332.196C284.542 331.918 287.206 331.292 289.425 330.804C291.645 330.316 294.403 329.676 295.555 329.381C296.707 329.086 298.765 328.641 300.129 328.391C301.492 328.142 304.424 327.574 306.644 327.13C310.38 326.383 313.069 325.856 323.863 323.753C326.082 323.321 329.23 322.759 330.858 322.504C333.649 322.068 335.891 321.681 343.907 320.25C345.756 319.919 348.723 319.443 350.498 319.189C352.274 318.936 356.269 318.348 359.377 317.883C362.484 317.418 366.843 316.814 369.062 316.542C371.282 316.269 374.551 315.805 376.326 315.511C378.102 315.216 382.945 314.58 387.088 314.098C391.232 313.615 397.208 312.875 400.369 312.454C403.531 312.033 407.09 311.688 408.28 311.688C409.469 311.688 411.604 311.451 413.025 311.162C414.445 310.872 418.634 310.381 422.333 310.07C442.394 308.385 449.133 307.849 455.964 307.39C460.107 307.112 467.25 306.63 471.837 306.319C492.902 304.888 506.107 304.519 544.479 304.285C571.576 304.12 590.056 304.248 598.557 304.66C605.66 305.004 616.072 305.507 621.695 305.777C627.318 306.048 633.614 306.428 635.685 306.623C639.407 306.972 639.439 306.964 638.376 305.946C637.499 305.105 633.395 302.466 624.654 297.122C611.011 288.779 599.193 283.521 588.413 280.997C582.193 279.541 574.365 278.429 573.972 278.947C573.916 279.021 573.734 283.326 573.568 288.513L573.267 297.945L559.008 298.278C533.957 298.863 524.325 298.925 523.359 298.506C522.497 298.133 522.418 296.921 522.418 284.163C522.418 270.936 522.47 270.199 523.458 269.669C524.133 269.307 533.313 269.111 549.556 269.111C563.337 269.111 574.612 268.908 574.612 268.661C574.612 268.253 571.44 264.507 562.019 253.792C556.042 246.994 553.911 244.617 552.374 243.029L550.853 241.458L541.612 241.809C536.531 242.002 526.5 242.161 519.324 242.162C511.826 242.163 506.275 242.373 506.275 242.655C506.275 243.213 516.063 257.917 519.89 263.107C521.28 264.992 522.418 266.858 522.418 267.252C522.418 268.866 521.086 268.689 519.495 266.864C510.576 256.636 505.956 251.516 505.276 251.109C504.669 250.746 504.012 251.156 502.686 252.726C501.709 253.882 500.906 254.982 500.902 255.17C500.892 255.588 491.938 269.023 490.825 270.29C489.781 271.478 490.365 272.345 492.209 272.345C494.874 272.345 494.975 272.8 494.975 284.829C494.975 295.259 494.906 296.058 493.956 296.567C492.323 297.442 483.255 297.12 482.457 296.158C481.977 295.579 481.717 290.995 481.523 279.673L481.254 263.991L475.604 263.608C472.496 263.398 464.143 262.968 457.04 262.653C432.415 261.562 432.48 261.568 432.664 260.274C432.82 259.181 433.278 259.116 445.471 258.458C452.426 258.083 463.665 257.598 470.448 257.38C478.42 257.125 482.848 256.78 482.972 256.406C483.077 256.088 477.564 250.414 470.719 243.798L458.274 231.768L451.469 232.112C447.726 232.301 438.973 232.609 432.019 232.797C419.405 233.137 419.37 233.141 417.894 234.517C417.08 235.277 416.414 236.363 416.414 236.932C416.414 238.223 423.514 252.543 425.555 255.368C425.769 255.664 426.766 257.362 427.771 259.14L429.597 262.374V279.98C429.597 289.663 429.408 297.775 429.176 298.007C428.945 298.239 426.403 298.116 423.527 297.734C406.11 295.423 389.201 294.845 347.27 295.132C307.318 295.404 299.665 295.676 259.561 298.241C247.449 299.016 226.12 301.124 213.286 302.813C209.734 303.28 205.013 303.872 202.793 304.128C200.573 304.384 197.183 304.845 195.26 305.153C193.336 305.461 189.22 306.101 186.112 306.575C183.005 307.049 179.252 307.656 177.772 307.923C176.292 308.19 173.871 308.556 172.391 308.735C170.911 308.915 168.611 309.28 167.279 309.546C165.947 309.813 162.557 310.421 159.746 310.897C146.766 313.096 141.679 314.021 127.191 316.818C124.435 317.35 118.195 318.542 114.815 319.182C113.04 319.519 110.618 320.018 109.435 320.29C108.251 320.563 105.345 321.184 102.977 321.671C93.3494 323.648 90.9861 324.14 87.6419 324.863C85.7183 325.279 82.2072 326.014 79.8396 326.496C77.472 326.979 74.6874 327.581 73.6516 327.833C72.6158 328.085 69.8312 328.697 67.4636 329.193C65.096 329.688 62.2823 330.318 61.211 330.592C60.1391 330.867 58.0809 331.325 56.6373 331.61C53.7434 332.182 48.3668 333.377 42.9806 334.647C41.0569 335.101 37.788 335.841 35.7164 336.293C33.6447 336.745 31.1023 337.314 30.0664 337.557C29.0306 337.8 26.6092 338.368 24.6855 338.818C22.7619 339.269 19.493 340.039 17.4213 340.53C15.3497 341.02 12.2019 341.756 10.4262 342.164C-0.209694 344.611 -0.383525 344.599 0.172859 341.459C0.51024 339.557 1.64834 335.909 2.65133 333.516C2.89993 332.923 3.61345 331.225 4.23709 329.743C9.06805 318.263 16.2865 307.615 24.8308 299.368C33.3515 291.144 37.2736 288.509 50.5138 282.112C51.3683 281.699 60.1144 278.905 64.9695 277.495C66.5569 277.034 68.2982 276.656 68.839 276.656C69.3792 276.656 69.9544 276.441 70.1164 276.178C70.2784 275.916 71.2911 275.535 72.3667 275.333C73.4423 275.131 74.716 274.769 75.1976 274.528C75.6792 274.287 77.8891 273.223 80.1087 272.163C82.3283 271.103 85.5821 269.073 87.3395 267.652C90.3862 265.189 91.7885 263.387 98.7583 252.978C112.814 231.987 131.611 211.463 148.761 198.385C155.057 193.583 170.308 183.123 172.934 181.805C173.825 181.359 175.934 179.962 177.62 178.702C179.306 177.443 180.858 176.412 181.07 176.412C181.281 176.412 181.836 176.073 182.303 175.658C182.771 175.243 184.055 174.402 185.158 173.788C188.906 171.701 201.317 161.621 207.8 155.396C221.738 142.017 229.512 131.337 235.855 116.858C236.633 115.079 237.504 113.203 237.789 112.688C238.074 112.174 238.307 111.483 238.307 111.153C238.307 110.823 238.645 109.789 239.06 108.855C240.01 106.71 242.333 99.5045 243.951 93.6828C244.445 91.9043 245.055 89.8428 245.305 89.1017C245.555 88.3607 246.291 85.9354 246.941 83.7122C247.591 81.489 248.336 79.4394 248.596 79.1581C248.856 78.8768 249.069 78.2408 249.069 77.7455C249.069 76.5884 251.858 70.1673 254.904 64.3127C260.704 53.1624 269.155 43.015 281.166 32.7814C284.543 29.904 288.513 25.435 290.501 22.2714C300.014 7.14196 302.996 3.37362 307.076 1.32399C309.46 0.126985 312.59 -0.289085 315.522 0.201899ZM308.607 3.14025C304.883 4.6989 301.188 9.3301 293.565 21.9922C292.237 24.1987 288.067 29.5979 286.688 30.8951C285.902 31.6362 283.713 33.5753 281.826 35.204C272.621 43.1476 265.453 51.3192 259.711 60.4172C258.752 61.9359 253.583 72.3786 252.847 74.2806C252.618 74.8734 252.141 76.0758 251.786 76.9527C250.91 79.1214 249.465 83.5586 247.744 89.3712C246.953 92.039 245.997 95.1919 245.618 96.3775C245.239 97.5632 244.497 99.9885 243.968 101.767C240.813 112.376 235.92 123.443 230.654 131.882C228.266 135.708 223.614 142.217 222.709 142.997C222.537 143.145 221.841 143.994 221.162 144.883C218.331 148.591 205.813 160.846 200.942 164.677C199.445 165.855 197.276 167.583 196.124 168.516C185.35 177.245 177.693 182.532 160.015 193.449C145.712 202.281 128.326 218.305 115.346 234.618C113.577 236.841 111.984 238.782 111.806 238.93C111.08 239.536 102.162 251.968 98.811 257.047C92.4196 266.732 89.2449 270.002 82.7991 273.536C79.8886 275.132 72.8902 277.838 68.8088 278.946C67.1811 279.387 64.2754 280.174 62.3518 280.695C39.2166 286.951 22.4428 300.622 9.77451 323.545C7.9138 326.911 3.16197 338.711 3.16197 339.965C3.16197 341.343 6.13168 340.974 16.0761 338.361C17.7038 337.933 20.8517 337.199 23.0713 336.728C25.2909 336.258 27.9544 335.639 28.9903 335.353C30.0261 335.066 31.9632 334.609 33.295 334.336C34.6267 334.063 37.4113 333.454 39.483 332.981C41.5546 332.51 44.5593 331.882 46.1596 331.586C47.7598 331.291 49.274 330.922 49.5243 330.767C49.7739 330.613 51.1283 330.281 52.5333 330.031C53.9382 329.781 56.6615 329.211 58.5851 328.765C64.3572 327.425 69.9318 326.177 73.9207 325.332C75.9923 324.892 79.2612 324.192 81.1849 323.774C83.1085 323.356 85.8931 322.783 87.3729 322.501C88.8526 322.218 92.3636 321.475 95.1752 320.85C97.9867 320.225 101.498 319.483 102.977 319.201C104.457 318.918 107.363 318.348 109.435 317.933C119.014 316.017 121.926 315.439 123.425 315.159C124.313 314.992 126.734 314.528 128.806 314.126C130.877 313.724 134.752 313 137.415 312.518C140.079 312.036 143.396 311.39 144.786 311.083C146.177 310.776 148.598 310.321 150.167 310.073C151.736 309.825 155.199 309.249 157.862 308.794C160.526 308.34 164.279 307.718 166.203 307.412C168.127 307.106 170.911 306.621 172.391 306.333C173.871 306.045 177.866 305.418 181.269 304.94C184.673 304.462 188.668 303.852 190.148 303.583C191.628 303.313 194.17 302.948 195.798 302.771C197.425 302.593 199.968 302.222 201.448 301.946C202.927 301.67 206.196 301.21 208.712 300.925C211.227 300.64 216.433 300.027 220.281 299.564C224.128 299.101 229.758 298.5 232.791 298.229C235.824 297.959 240.667 297.488 243.553 297.183C259.385 295.511 277.821 294.507 324.67 292.764C351.381 291.771 401.546 292.69 415.069 294.421C417.436 294.724 421.069 295.035 423.14 295.111L426.907 295.25L427.049 279.488C427.205 262.335 427.328 263.21 423.913 257.254C421.66 253.326 418.841 248.136 416.465 243.545C415.401 241.489 414.289 239.744 413.993 239.666C413.697 239.588 412.424 240.786 411.165 242.326C409.906 243.867 408.208 245.855 407.391 246.745C406.575 247.634 404.241 250.302 402.206 252.673C398.131 257.42 396.711 258.45 395.934 257.22C395.665 256.794 395.399 256.567 395.341 256.715C395.284 256.863 395.099 261.956 394.93 268.033L394.622 279.082L386.824 279.232C379.961 279.364 378.944 279.271 378.349 278.455C377.838 277.756 377.672 273.256 377.672 260.132C377.672 243.425 377.627 242.655 376.534 240.698C375.466 238.783 373.999 236.224 368.958 227.477L366.862 223.839H364.195C361.092 223.839 360.576 224.773 363.543 225.02C364.899 225.132 365.61 225.477 365.724 226.076C365.818 226.572 364.031 229.172 361.693 231.942C359.383 234.678 356.283 238.379 354.803 240.167L352.113 243.417L351.953 262.417C351.832 276.71 351.627 281.554 351.126 281.971C350.759 282.277 348.652 282.786 346.443 283.103C344.234 283.42 340.369 284.02 337.853 284.436C335.338 284.852 330.858 285.594 327.899 286.084C324.939 286.574 320.944 287.197 319.02 287.468C317.096 287.739 314.221 288.252 312.63 288.608C308.27 289.582 308.258 289.548 308.258 275.768V264.305L316.027 254.986C324.709 244.571 324.605 244.926 319.472 243.241C313.104 241.152 304.511 239.782 293.613 239.119L287.846 238.768L285.81 240.872C284.691 242.029 282.201 245.029 280.278 247.538C278.354 250.047 275.767 253.358 274.529 254.895C271.054 259.209 271.165 259.609 275.955 260.038C278.165 260.236 281.797 260.661 284.027 260.984C286.256 261.307 290.572 261.933 293.617 262.377C296.662 262.82 300.066 263.183 301.182 263.183C302.297 263.183 303.653 263.507 304.194 263.903C306.569 265.643 305.017 265.866 288.721 266.131C279.899 266.274 272.454 266.533 272.175 266.705C271.889 266.882 271.668 271.113 271.668 276.4C271.668 287.462 272.203 286.665 264.284 287.423C261.39 287.7 257.691 288.193 256.064 288.518C250.461 289.636 245.567 290.733 243.593 291.312C239.886 292.401 239.921 292.504 239.921 280.397V269.551L243.312 266.232C245.391 264.197 247.903 260.881 249.807 257.658C252.026 253.903 253.208 252.404 253.95 252.404C255.14 252.404 255.36 251.045 254.24 250.614C253.541 250.346 244.36 251.191 235.078 252.379C232.859 252.663 230.773 252.906 230.443 252.919C229.217 252.967 215.923 266.865 216.562 267.431C216.832 267.669 218.505 268.285 220.281 268.8C222.056 269.315 224.115 269.942 224.855 270.193C225.594 270.444 228.621 271.059 231.581 271.56C238.309 272.698 238.446 272.739 238.165 273.558C237.989 274.069 235.681 274.197 228.569 274.088C223.122 274.005 218.867 274.165 218.397 274.472C217.765 274.884 217.532 276.663 217.321 282.699L217.052 290.4L204.202 290.834C197.134 291.073 191.017 291.14 190.607 290.983C187.447 289.768 189.86 277.201 195.404 266.007C201.219 254.267 212.334 237.741 220.865 228.151C232.395 215.189 246.369 201.215 250.733 198.283C252.093 197.369 255.483 194.913 258.267 192.824C261.05 190.735 265.265 187.827 267.633 186.36C270 184.894 272.5 183.208 273.188 182.613C274.85 181.174 282.482 177.011 283.517 176.978C284.221 176.954 292.357 171.931 296.409 169.017C301.573 165.304 304.18 161.387 305.48 155.393C306.754 149.519 306.906 147.083 306.483 139.308C305.508 121.369 307.863 89.8961 310.866 80.748C313.809 71.7826 319.476 64.0287 331.635 52.3313C348.824 35.7952 351.843 32.7459 351.843 31.9234C351.843 31.4702 350.209 29.6884 348.211 27.9638C346.214 26.2391 342.521 22.9558 340.006 20.6675C329.425 11.0423 322.969 5.91315 318.613 3.67166C315.617 2.13026 311.539 1.9136 308.607 3.14025ZM362.067 26.9834C359.371 28.2052 356.686 30.2866 356.686 31.156C356.686 32.9862 375.446 46.1663 387.895 53.0837C390.457 54.507 396.475 56.443 399.896 56.9447C402.66 57.3505 403.08 56.1735 400.984 53.8997C400.114 52.956 398.025 50.4606 396.343 48.3555C390.025 40.4491 375.921 26.9597 372.995 26.0241C370.931 25.3639 364.37 25.94 362.067 26.9834ZM449.223 34.4899C447.566 35.6109 444.421 38.4819 432.832 49.456C427.804 54.2171 422.368 59.3598 420.752 60.8839L417.813 63.6563L425.05 67.2257C429.031 69.1891 432.769 71.0943 433.358 71.4597C448.766 81.0293 460.23 91.333 470.077 104.462C476.656 113.234 478.055 114.805 482.061 117.917C484.516 119.824 496.77 126.289 497.93 126.289C498.118 126.289 499.528 126.864 501.063 127.566C502.598 128.268 505.185 129.405 506.813 130.094C508.441 130.783 510.676 131.906 511.78 132.591C512.884 133.275 513.98 133.835 514.217 133.835C514.453 133.835 516.927 135.312 519.715 137.118C528.273 142.66 533.911 148.86 539.538 158.913C541.037 161.59 542.943 164.41 543.775 165.179C544.606 165.948 546.86 168.487 548.784 170.821C555.382 178.827 558.707 181.608 567.176 186.207C568.635 186.999 570.15 187.914 570.543 188.241C570.935 188.566 573.524 190.003 576.297 191.433C579.07 192.864 582.67 194.72 584.298 195.558C585.925 196.398 587.9 197.526 588.685 198.066C589.471 198.606 590.493 199.048 590.957 199.048C591.893 199.048 599.019 203.147 602.014 205.41C603.072 206.209 604.785 207.333 605.821 207.908C606.857 208.483 609.763 210.435 612.278 212.245C616.86 215.542 632.377 225.1 639.452 228.982C649.552 234.526 667.197 242.702 669.059 242.702C671.004 242.702 655.47 222.77 647.735 215.341C640.277 208.179 635.779 204.042 633.932 202.645C628.645 198.648 624.261 195.745 623.04 195.435C622.3 195.247 620.605 194.557 619.274 193.902C613.866 191.243 608.048 188.807 607.099 188.804C606.544 188.802 605.397 188.438 604.549 187.996C603.701 187.553 602.415 187.191 601.691 187.191C600.209 187.191 595.038 184.883 592.734 183.194C591.899 182.582 590.705 181.169 590.079 180.054C589.454 178.94 588.748 178.028 588.51 178.028C588.273 178.028 587.726 177.241 587.295 176.277C586.864 175.313 586.028 173.676 585.437 172.639C583.874 169.896 582.863 167.404 581.831 163.753C581.329 161.978 580.719 160.159 580.475 159.711C579.814 158.499 577.841 153.879 577.841 153.546C577.841 153.189 574.046 145.033 571.68 140.302C552.655 102.276 527.013 70.6227 507.822 61.4746C500.962 58.2042 495.15 56.9199 485.558 56.5556C477.424 56.2462 474.527 55.544 471.299 53.0988C469.308 51.5897 467.58 49.7481 467.55 49.1014C467.5 48.0019 461.965 39.5016 460.092 37.646C456.103 33.695 452.111 32.5357 449.223 34.4899ZM410.587 237.596C410.093 238.478 409.507 239.28 409.284 239.379C409.062 239.478 408.881 239.916 408.881 240.352C408.881 240.811 409.674 240.28 410.761 239.095C411.796 237.967 412.644 236.72 412.645 236.325C412.649 235.182 411.566 235.851 410.587 237.596ZM329.339 243.96C329.213 244.611 329.547 244.858 330.554 244.858C331.809 244.858 331.878 244.754 331.27 243.779C330.503 242.549 329.596 242.634 329.339 243.96ZM213.017 270.858C213.017 272.247 214.977 272.059 215.349 270.634C215.518 269.99 215.534 269.267 215.387 269.029C214.954 268.327 213.017 269.822 213.017 270.858ZM218.543 271.592C218.722 271.771 219.186 271.791 219.574 271.635C220.004 271.463 219.876 271.335 219.249 271.309C218.682 271.286 218.365 271.413 218.543 271.592Z" fill="white"/>
<path d="M193.863 66C191.063 30 158.697 19 142.863 18C152.03 24 167.363 43.5 155.363 73.5C140.363 111 90.3635 88.5 110.863 104C131.275 119.433 145.739 117.021 148.824 116.507L148.863 116.5C151.863 116 197.363 111 193.863 66Z" stroke="white" stroke-width="2"/>
</g>
<defs>
<clipPath id="clip0_575_2686">
<rect width="792" height="362" fill="white"/>
</clipPath>
</defs>
</svg>
