<svg width="10" height="16" viewBox="0 0 10 16" fill="none" xmlns="http://www.w3.org/2000/svg">
<path d="M3.87965 11.1998C3.87965 10.1198 3.97645 9.343 4.17005 8.8694C4.36312 8.39634 4.77298 7.8798 5.39965 7.3198C5.94631 6.8398 6.36285 6.423 6.64925 6.0694C6.93618 5.71634 7.07965 5.31314 7.07965 4.8598C7.07965 4.31314 6.89645 3.8598 6.53005 3.4998C6.16312 3.1398 5.65298 2.9598 4.99965 2.9598C4.31965 2.9598 3.80285 3.16647 3.44925 3.5798C3.09618 3.99314 2.84632 4.41314 2.69965 4.83981L0.639648 3.9598C0.919648 3.10647 1.43298 2.36647 2.17965 1.7398C2.92632 1.11314 3.86632 0.799805 4.99965 0.799805C6.39965 0.799805 7.47645 1.18994 8.23005 1.9702C8.98312 2.74994 9.35965 3.68647 9.35965 4.7798C9.35965 5.44647 9.21645 6.0166 8.93005 6.4902C8.64312 6.96327 8.19298 7.4998 7.57965 8.0998C6.92632 8.72647 6.52978 9.203 6.39005 9.5294C6.24978 9.85634 6.17965 10.4131 6.17965 11.1998H3.87965ZM4.99965 15.9998C4.55965 15.9998 4.18312 15.8433 3.87005 15.5302C3.55645 15.2166 3.39965 14.8398 3.39965 14.3998C3.39965 13.9598 3.55645 13.583 3.87005 13.2694C4.18312 12.9563 4.55965 12.7998 4.99965 12.7998C5.43965 12.7998 5.81645 12.9563 6.13005 13.2694C6.44311 13.583 6.59965 13.9598 6.59965 14.3998C6.59965 14.8398 6.44311 15.2166 6.13005 15.5302C5.81645 15.8433 5.43965 15.9998 4.99965 15.9998Z" fill="white"/>
</svg>
