<svg width="102" height="31" viewBox="0 0 102 31" fill="none" xmlns="http://www.w3.org/2000/svg">
<path d="M6.33441 0.00880666C2.83278 0.00880666 0 2.86222 0 6.38935V24.6107C0 28.1378 2.83278 30.9912 6.33441 30.9912C9.83166 30.9912 12.6644 28.1378 12.6644 24.6107V6.38935C12.6863 2.86222 9.83166 0.00880666 6.33441 0.00880666V0.00880666ZM30.072 15.6409L26.8895 18.8466L25.5912 20.1544L25.5343 20.2293C23.1475 22.7084 23.1475 26.645 25.5737 29.1638C28.0524 31.6253 32.0349 31.6077 34.5004 29.1242C36.9791 26.6274 36.9791 22.5983 34.5004 20.0972L30.072 15.6409ZM25.036 19.8726L26.3343 18.5692L33.9409 10.9028C36.4239 8.40171 36.4239 4.37259 33.9409 1.87585C31.4622 -0.625284 27.4622 -0.625284 24.9792 1.87585L16.0743 10.8456C13.5912 13.3467 13.5912 17.3759 16.0918 19.8946L24.4808 28.2655C22.5923 25.7864 22.7409 22.224 24.9617 19.9298L25.036 19.8726V19.8726ZM81.4948 14.8747L80.6817 13.2322C80.5899 13.0297 80.4763 12.88 80.3276 12.7655C80.2009 12.6554 80.0347 12.5629 79.8468 12.5233L81.4205 10.4009C81.4424 10.3788 81.4424 10.3612 81.4424 10.3436C81.4424 10.326 81.4205 10.326 81.3855 10.326H81.2369C81.1801 10.326 81.1626 10.326 81.1276 10.3436C81.1058 10.3612 81.0883 10.3788 81.0533 10.4009L79.5145 12.4881C79.497 12.4881 79.4577 12.4881 79.4402 12.4881C79.4052 12.4881 79.3834 12.4881 79.3484 12.4881H78.5353V10.4009C78.5353 10.3612 78.5353 10.3436 78.5134 10.326C78.4959 10.304 78.4785 10.304 78.461 10.304H78.3298C78.2905 10.304 78.273 10.304 78.2555 10.326C78.238 10.3436 78.238 10.3612 78.238 10.4009V14.8747C78.238 14.9144 78.238 14.932 78.2555 14.9496C78.273 14.9672 78.2905 14.9672 78.3298 14.9672H78.461C78.4959 14.9672 78.5134 14.9672 78.5134 14.9496C78.5353 14.932 78.5353 14.9144 78.5353 14.8747V12.7479H79.3659C79.6238 12.7479 79.8468 12.8051 79.9954 12.8976C80.144 12.9901 80.2752 13.1574 80.3845 13.3644L81.1451 14.8923C81.1626 14.932 81.1801 14.9496 81.1976 14.9496C81.2194 14.9672 81.2544 14.9672 81.3112 14.9672H81.4424C81.4774 14.9672 81.4948 14.9496 81.4948 14.9496C81.5167 14.932 81.5167 14.9144 81.4948 14.8747ZM87.9954 12.88H86.4784V10.5858H87.9954C88.3495 10.5858 88.6424 10.6959 88.8478 10.8852C89.0533 11.0878 89.1626 11.3696 89.1626 11.7219C89.1626 12.0786 89.0533 12.356 88.8478 12.5629C88.6424 12.7655 88.3495 12.88 87.9954 12.88V12.88ZM88.0129 10.304H86.2555C86.2161 10.304 86.1986 10.304 86.1812 10.326C86.1637 10.3436 86.1637 10.3612 86.1637 10.4009V14.8747C86.1637 14.9144 86.1637 14.932 86.1812 14.9496C86.1986 14.9672 86.2161 14.9672 86.2555 14.9672H86.3866C86.4216 14.9672 86.4391 14.9672 86.4391 14.9496C86.4609 14.932 86.4609 14.9144 86.4609 14.8747V13.1574H87.9954C88.4413 13.1574 88.791 13.0297 89.0533 12.7875C89.3112 12.5453 89.4424 12.1886 89.4424 11.7439C89.4424 11.2947 89.3112 10.9381 89.0533 10.6959C88.8085 10.4361 88.4588 10.326 88.0129 10.304V10.304ZM93.2719 11.8364V13.4392C93.2719 13.8663 93.1451 14.1834 92.9046 14.4256C92.6642 14.6501 92.2926 14.7822 91.8292 14.7822C91.3484 14.7822 90.9943 14.6722 90.7363 14.4256C90.4959 14.2054 90.3648 13.8663 90.3648 13.4392V11.8364C90.3648 11.4048 90.4959 11.0878 90.7363 10.8456C90.9768 10.621 91.3484 10.4933 91.8292 10.4933C92.2926 10.4933 92.6642 10.621 92.9046 10.8456C93.1626 11.0878 93.2719 11.4268 93.2719 11.8364V11.8364ZM90.0675 11.8364V13.4392C90.0675 13.9412 90.2161 14.3331 90.5134 14.6325C90.8107 14.9144 91.2566 15.0597 91.8292 15.0597C92.4019 15.0597 92.8303 14.9144 93.1232 14.6325C93.4205 14.3507 93.5691 13.9632 93.5691 13.4392V11.8364C93.5691 11.33 93.4205 10.9381 93.1232 10.643C92.8303 10.3612 92.4019 10.2115 91.8292 10.2115C91.2566 10.2115 90.8107 10.3612 90.5134 10.643C90.2161 10.9381 90.0675 11.33 90.0675 11.8364V11.8364ZM96.3276 12.88H94.8106V10.5858H96.3276C96.6817 10.5858 96.9789 10.6959 97.18 10.8852C97.3855 11.0878 97.4948 11.3696 97.4948 11.7219C97.4948 12.0786 97.3855 12.356 97.18 12.5629C96.9571 12.7655 96.6817 12.88 96.3276 12.88V12.88ZM96.3451 10.304H94.5877C94.5527 10.304 94.5309 10.304 94.5134 10.326C94.4959 10.3436 94.4959 10.3612 94.4959 10.4009V14.8747C94.4959 14.9144 94.4959 14.932 94.5134 14.9496C94.5309 14.9672 94.5527 14.9672 94.5877 14.9672H94.7188C94.7538 14.9672 94.7713 14.9672 94.7713 14.9496C94.7932 14.932 94.7932 14.9144 94.7932 14.8747V13.1574H96.3276C96.7735 13.1574 97.1232 13.0297 97.3855 12.7875C97.6434 12.5453 97.7746 12.1886 97.7746 11.7439C97.7746 11.2947 97.6434 10.9381 97.3855 10.6959C97.1451 10.4361 96.791 10.326 96.3451 10.304V10.304ZM101.289 10.304H98.1636C98.1243 10.304 98.1068 10.304 98.0893 10.326C98.0675 10.3436 98.0675 10.3612 98.0675 10.4009V10.5109C98.0675 10.5462 98.0675 10.5682 98.0893 10.5682C98.1068 10.5858 98.1243 10.5858 98.1636 10.5858H99.5713V14.8747C99.5713 14.9144 99.5713 14.932 99.5888 14.9496C99.6063 14.9672 99.6237 14.9672 99.6631 14.9672H99.7899C99.8292 14.9672 99.8467 14.9672 99.8467 14.9496C99.8642 14.932 99.8642 14.9144 99.8642 14.8747V10.5858H101.272C101.311 10.5858 101.329 10.5858 101.346 10.5682C101.364 10.5462 101.364 10.5286 101.364 10.5109V10.4009C101.364 10.3612 101.364 10.3436 101.346 10.326C101.346 10.326 101.329 10.304 101.289 10.304V10.304ZM85.5691 10.304H85.403C85.368 10.304 85.3287 10.304 85.3112 10.326C85.2937 10.326 85.2719 10.3612 85.2544 10.3788L83.72 12.7303L82.1812 10.3788C82.1637 10.3436 82.1462 10.326 82.1243 10.326C82.1069 10.326 82.0719 10.304 82.0325 10.304H81.8489C81.8096 10.304 81.7921 10.304 81.7921 10.326C81.7921 10.3436 81.7921 10.3612 81.7921 10.3788L83.532 12.9901L82.4216 14.8571C82.4041 14.8923 82.4041 14.9144 82.4216 14.932C82.4391 14.9496 82.461 14.9496 82.4959 14.9496H82.6795C82.7189 14.9496 82.7364 14.9496 82.7364 14.932C82.7538 14.9144 82.7539 14.8923 82.7757 14.8571L83.8642 13.0297L85.626 10.3788C85.6435 10.3612 85.6435 10.3436 85.626 10.326C85.626 10.326 85.6085 10.304 85.5691 10.304V10.304ZM41.6261 16.592H43.9605C43.9605 16.592 44.4982 16.6097 44.5725 16.6097C44.7212 16.6097 44.813 16.6273 44.8873 16.6669C44.9441 16.7021 44.9791 16.7946 44.9791 16.9267V21.4974C44.9791 21.5547 44.9616 21.6075 44.9441 21.6472C44.9223 21.6824 44.9048 21.7 44.8698 21.722C44.8305 21.7396 44.7955 21.7573 44.7387 21.7573C44.6818 21.7573 44.6294 21.7573 44.5725 21.7573C44.4982 21.7573 44.4239 21.7572 44.3496 21.7396C44.2753 21.722 44.2184 21.722 44.1441 21.6824C44.0917 21.6648 44.0348 21.6296 43.9999 21.5899C43.9605 21.5547 43.943 21.4974 43.943 21.4402V17.4683H41.6086V21.4578C41.6086 21.5151 41.5911 21.5723 41.5518 21.6075C41.5168 21.6472 41.46 21.6824 41.4075 21.7044C41.3507 21.722 41.2764 21.7396 41.2021 21.7396C41.1277 21.7396 41.0709 21.7573 40.9966 21.7573C40.9223 21.7573 40.8698 21.7573 40.813 21.7573C40.7562 21.7573 40.7212 21.7396 40.6818 21.722C40.6469 21.7044 40.6294 21.6824 40.6075 21.6472C40.59 21.6075 40.59 21.5723 40.59 21.5151V16.9267C40.59 16.8166 40.6294 16.7418 40.6818 16.6845C40.7562 16.6273 40.8523 16.6097 40.9966 16.6097C41.0928 16.6097 41.6261 16.592 41.6261 16.592V16.592ZM48.1441 17.4287C47.8862 17.4287 47.6632 17.4683 47.4971 17.5256C47.331 17.5784 47.2217 17.6753 47.1255 17.803C47.0337 17.9351 46.9813 18.1024 46.9594 18.2874C46.9244 18.4943 46.9244 18.7365 46.9244 19.0139V19.2385C46.9244 19.5203 46.9419 19.7625 46.9594 19.9651C46.9988 20.172 47.0556 20.3394 47.1255 20.4538C47.2217 20.5815 47.331 20.6784 47.4971 20.7313C47.6632 20.7885 47.8687 20.8237 48.1441 20.8237H48.1835C48.4414 20.8237 48.6643 20.7885 48.8305 20.7313C48.9966 20.6784 49.1102 20.5815 49.202 20.4538C49.2938 20.3217 49.3507 20.1544 49.3682 19.9651C49.4031 19.7625 49.4031 19.5203 49.4031 19.2385V19.0139C49.4031 18.7365 49.3856 18.4943 49.3682 18.2874C49.3288 18.0848 49.2764 17.9175 49.202 17.803C49.1102 17.6753 48.9966 17.5784 48.8305 17.5256C48.6643 17.4683 48.4589 17.4287 48.1835 17.4287H48.1441ZM48.1441 21.722C47.7944 21.722 47.5146 21.6824 47.2567 21.6296C47.0163 21.5723 46.8108 21.4798 46.6447 21.3653C46.4785 21.2553 46.3518 21.1232 46.2381 20.9558C46.1463 20.8061 46.0545 20.6212 46.0152 20.4318C45.9627 20.2469 45.9234 20.0399 45.9059 19.8197C45.8884 19.5952 45.8884 19.3706 45.8884 19.146V19.1284C45.8884 18.9038 45.8884 18.6617 45.9059 18.4547C45.9234 18.2345 45.9627 18.0276 46.0152 17.8426C46.072 17.6533 46.1463 17.4683 46.2381 17.3186C46.3299 17.1689 46.4785 17.0192 46.6447 16.9091C46.8108 16.7946 47.0163 16.7021 47.2567 16.6493C47.4971 16.5921 47.7944 16.5524 48.1441 16.5524H48.1835C48.5332 16.5524 48.813 16.5921 49.0709 16.6493C49.3113 16.7021 49.5168 16.7946 49.6829 16.9091C49.849 17.0192 49.9802 17.1513 50.0895 17.3186C50.1813 17.4683 50.2731 17.6533 50.3124 17.8426C50.3692 18.0276 50.4042 18.2345 50.4217 18.4547C50.4436 18.6793 50.4436 18.9038 50.4436 19.1284V19.146C50.4436 19.3706 50.4436 19.6128 50.4217 19.8197C50.4042 20.0399 50.3692 20.2469 50.3124 20.4318C50.2556 20.6212 50.1813 20.8061 50.0895 20.9558C49.9977 21.1055 49.849 21.2553 49.6829 21.3653C49.5168 21.4798 49.3113 21.5723 49.0709 21.6296C48.8305 21.6824 48.5332 21.722 48.1835 21.722H48.1441ZM51.8294 21.2376C51.7944 21.3653 51.7375 21.4578 51.7026 21.5327C51.6632 21.6075 51.6108 21.6472 51.5539 21.6824C51.4971 21.722 51.4403 21.7396 51.3703 21.7396C51.296 21.7396 51.2217 21.7573 51.1255 21.7573C51.0556 21.7573 50.9988 21.7396 50.9419 21.722C50.8851 21.7 50.8326 21.6648 50.8108 21.6075C50.7758 21.5547 50.7583 21.4798 50.7583 21.383C50.7583 21.2905 50.7758 21.1804 50.8326 21.0483L52.166 17.2085C52.2184 17.0412 52.2927 16.9091 52.3671 16.8166C52.4414 16.7242 52.5157 16.6669 52.6075 16.6273C52.6818 16.592 52.7736 16.5744 52.8698 16.5524C52.9616 16.5524 53.0534 16.5524 53.1277 16.5524H53.2938C53.3856 16.5524 53.4774 16.5524 53.5518 16.5524C53.6436 16.5524 53.7179 16.592 53.814 16.6273C53.8884 16.6669 53.9802 16.7418 54.0545 16.8166C54.1288 16.9091 54.2031 17.0412 54.2556 17.2085L55.5889 21.0483C55.6282 21.1804 55.6632 21.2905 55.6457 21.3874C55.6457 21.4798 55.6282 21.5547 55.5889 21.6075C55.5539 21.6648 55.5146 21.7044 55.4621 21.722C55.4053 21.7396 55.331 21.7573 55.2742 21.7573C55.1823 21.7573 55.108 21.7572 55.0337 21.7396C54.9594 21.7396 54.9069 21.722 54.8501 21.6824C54.7933 21.6472 54.7364 21.5899 54.7015 21.5327C54.6621 21.4578 54.6097 21.3653 54.5703 21.2376L53.3288 17.5608C53.3113 17.5256 53.3113 17.5036 53.2938 17.4683C53.2763 17.4507 53.2763 17.4287 53.2589 17.4287H53.2195H53.202H53.1845H53.1452C53.1277 17.4287 53.1102 17.4507 53.1102 17.4683C53.0884 17.4859 53.0884 17.5256 53.0709 17.5608L51.8294 21.2376V21.2376ZM62.1463 18.6969H63.2173H63.9211C64.1091 18.6969 64.2359 18.6969 64.3102 18.6969C64.4064 18.6969 64.4588 18.6969 64.4763 18.6969V16.8915C64.4763 16.8342 64.4982 16.7946 64.5331 16.7418C64.5725 16.7021 64.6249 16.6669 64.6818 16.6273C64.7386 16.592 64.8129 16.5744 64.8872 16.5524C64.9615 16.5348 65.0359 16.5348 65.1058 16.5348C65.2544 16.5348 65.3506 16.5524 65.4206 16.592C65.4949 16.6273 65.5167 16.7242 65.5167 16.8519V21.4578C65.5167 21.5151 65.4949 21.5723 65.4774 21.6075C65.4599 21.6472 65.4206 21.6648 65.4031 21.6824C65.3681 21.7044 65.3288 21.722 65.2763 21.722C65.2195 21.722 65.1626 21.722 65.1058 21.722C65.0359 21.722 64.9616 21.722 64.9047 21.7044C64.8304 21.6824 64.7736 21.6824 64.6993 21.6472C64.6468 21.6296 64.59 21.5899 64.5506 21.5547C64.5157 21.5151 64.4982 21.4578 64.4982 21.405V19.5379H62.1637V21.405C62.1637 21.4578 62.1463 21.5151 62.1069 21.5547C62.0719 21.5899 62.0151 21.6296 61.9583 21.6472C61.9058 21.6648 61.8315 21.6824 61.7572 21.6824C61.6829 21.6824 61.626 21.7044 61.5517 21.7044C61.4774 21.7044 61.425 21.7044 61.3681 21.7044C61.3113 21.7044 61.2763 21.6824 61.237 21.6648C61.202 21.6472 61.1845 21.6296 61.1627 21.5899C61.1452 21.5547 61.1452 21.5151 61.1452 21.4578V16.8695C61.1452 16.7594 61.1845 16.6845 61.237 16.6273C61.3113 16.5744 61.4031 16.5524 61.5517 16.5524C61.626 16.5524 61.7004 16.5524 61.7747 16.5744C61.849 16.592 61.9058 16.6097 61.9801 16.6273C62.0326 16.6493 62.0894 16.6845 62.1288 16.7418C62.1637 16.777 62.1812 16.8342 62.1812 16.9091V18.6969H62.1463ZM67.5539 19.8726H69.3113L68.5331 17.5608C68.5156 17.5256 68.5156 17.5036 68.4982 17.4683C68.4763 17.4507 68.4763 17.4287 68.4588 17.4287H68.4063C68.3845 17.4287 68.367 17.4507 68.367 17.4683C68.3495 17.4859 68.3495 17.5256 68.332 17.5608L67.5539 19.8726V19.8726ZM69.591 20.696H67.2741L67.0905 21.2376C67.0512 21.3653 66.9987 21.4578 66.9594 21.5327C66.9244 21.6075 66.8676 21.6472 66.8107 21.6824C66.7583 21.722 66.7014 21.7396 66.6271 21.7396C66.5528 21.7396 66.4785 21.7573 66.3867 21.7573C66.3124 21.7573 66.2555 21.7396 66.1987 21.722C66.1462 21.7 66.0894 21.6648 66.0719 21.6075C66.0326 21.5547 66.0151 21.4798 66.0151 21.383C66.0151 21.2905 66.0326 21.1804 66.0894 21.0483L67.4227 17.2261C67.4796 17.0588 67.5539 16.9267 67.6282 16.8342C67.7025 16.7418 67.7768 16.6845 67.8686 16.6493C67.943 16.6097 68.0348 16.592 68.1266 16.5744C68.2184 16.5744 68.3102 16.5744 68.3845 16.5744H68.5156C68.6074 16.5744 68.6992 16.5744 68.7736 16.5744C68.8654 16.5744 68.9397 16.6097 69.0359 16.6493C69.1058 16.6845 69.202 16.7594 69.2763 16.8342C69.3506 16.9267 69.4206 17.0588 69.4774 17.2261L70.8107 21.0483C70.8501 21.1804 70.885 21.2905 70.885 21.3874C70.885 21.4798 70.8675 21.5547 70.8282 21.6075C70.7932 21.6648 70.7539 21.7044 70.7014 21.722C70.6446 21.7396 70.5878 21.7573 70.5135 21.7573C70.4216 21.7573 70.3473 21.7572 70.273 21.7396C70.1987 21.7396 70.1462 21.722 70.0894 21.6824C70.0326 21.6472 69.9801 21.5899 69.9408 21.5327C69.9058 21.4578 69.8665 21.3653 69.8096 21.2376L69.591 20.696V20.696ZM59.073 17.4683V18.9611H58.1638C57.9408 18.9611 57.7397 18.9435 57.6086 18.9038C57.4599 18.8686 57.3506 18.829 57.2763 18.7717C57.202 18.7189 57.1452 18.644 57.1102 18.5516C57.0709 18.4547 57.0534 18.327 57.0534 18.2125C57.0534 18.0628 57.0709 17.9703 57.1102 17.8778C57.1452 17.7854 57.202 17.7105 57.2763 17.6533C57.3681 17.6004 57.4599 17.5432 57.6086 17.5256C57.7572 17.4859 57.9583 17.4683 58.1812 17.4683H59.073V17.4683ZM59.073 19.855V21.4974C59.073 21.5547 59.0905 21.6075 59.108 21.6472C59.1474 21.6824 59.1823 21.7044 59.2173 21.722C59.2741 21.7396 59.3135 21.7573 59.3878 21.7573C59.4403 21.7573 59.5146 21.7573 59.5714 21.7573C59.6457 21.7573 59.7026 21.7573 59.7769 21.7573C59.8293 21.7573 59.8862 21.7396 59.943 21.722C59.9954 21.7044 60.0348 21.6824 60.0523 21.6472C60.0698 21.6075 60.0916 21.5723 60.0916 21.5151V17.0588V17.0016C60.0698 16.9267 60.0698 16.8915 60.0523 16.8342C60.0348 16.7946 59.9954 16.7418 59.9605 16.7021C59.9211 16.6669 59.8687 16.6273 59.8118 16.6097C59.755 16.5921 59.6632 16.5744 59.5714 16.5744H58.2381H57.849C57.7397 16.5744 57.4774 16.6097 57.3113 16.6493C57.1452 16.6845 56.9791 16.7418 56.8304 16.8166C56.6818 16.8915 56.5332 16.984 56.4064 17.1117C56.2752 17.2438 56.1834 17.3935 56.1091 17.5608C56.0348 17.7457 55.9955 17.9527 55.9955 18.2125C55.9955 18.4371 56.0173 18.6264 56.0698 18.7938C56.1266 18.9611 56.2009 19.0888 56.2927 19.2033C56.3845 19.3134 56.4982 19.4058 56.6075 19.5027C56.7386 19.5776 56.8698 19.648 56.9966 19.6876L56.0173 21.3653C55.978 21.4226 55.978 21.4578 55.978 21.5151C55.978 21.5547 55.9955 21.5899 56.0348 21.6296C56.0698 21.6648 56.1091 21.6824 56.1659 21.7C56.2184 21.722 56.2752 21.7396 56.3321 21.7573C56.3845 21.7749 56.4414 21.7749 56.4982 21.7749C56.555 21.7749 56.59 21.7749 56.6293 21.7749C56.7211 21.7749 56.7955 21.7573 56.8873 21.722C56.9791 21.6824 57.0359 21.6296 57.0884 21.5547L58.0545 19.855H58.2031H58.5528H59.073V19.855ZM46.5179 12.695C46.5704 12.695 46.6272 12.695 46.7015 12.695C46.7758 12.695 46.8501 12.695 46.9244 12.695H47.1474H47.3485H47.3878C47.6283 12.695 47.8119 12.673 47.9605 12.6378C48.1091 12.5982 48.2184 12.5629 48.2928 12.5057C48.3671 12.4484 48.4239 12.378 48.4414 12.2811C48.4589 12.1886 48.4807 12.0962 48.4807 11.9861V11.9112C48.4807 11.7967 48.4589 11.7043 48.4414 11.6118C48.4239 11.5193 48.3671 11.4445 48.2928 11.3872C48.2184 11.33 48.1091 11.2771 47.978 11.2375C47.8512 11.2023 47.6632 11.1803 47.4403 11.1803C47.4228 11.1803 47.4053 11.1803 47.3878 11.1803C47.3703 11.1803 47.3703 11.1803 47.3485 11.1803H46.5179V12.695V12.695ZM47.331 10.304C47.4796 10.304 47.6283 10.304 47.7769 10.326C47.943 10.3436 48.0917 10.3612 48.2578 10.4009C48.4239 10.4361 48.5725 10.4933 48.7212 10.5682C48.8698 10.643 48.9966 10.7355 49.1102 10.8456C49.2195 10.9601 49.3113 11.1098 49.3856 11.2947C49.46 11.4621 49.4774 11.6867 49.4774 11.9288V11.9465C49.4774 12.1886 49.4425 12.3956 49.3856 12.5805C49.3288 12.7479 49.237 12.8976 49.1452 13.0297C49.0359 13.1398 48.9223 13.2543 48.7736 13.3291C48.6468 13.3996 48.4982 13.4568 48.3321 13.4965C48.1835 13.5317 48.0173 13.5713 47.8687 13.5713C47.7026 13.5889 47.554 13.5889 47.4053 13.5889H46.496V15.2094C46.496 15.2666 46.4785 15.3239 46.4611 15.3415C46.4261 15.3811 46.3867 15.3987 46.3518 15.4163C46.2949 15.434 46.2556 15.4516 46.1813 15.4516C46.1288 15.4516 46.0545 15.4516 45.9977 15.4516C45.9234 15.4516 45.8665 15.4516 45.7922 15.4516C45.7398 15.4516 45.6829 15.434 45.6261 15.4163C45.5736 15.3987 45.5343 15.3811 45.5168 15.3415C45.4993 15.3063 45.4775 15.2666 45.4775 15.2094V10.7928V10.7531V10.7355C45.4775 10.7179 45.4775 10.6959 45.4775 10.6959C45.4775 10.6607 45.4993 10.621 45.5168 10.5858C45.5343 10.5462 45.5736 10.4933 45.6086 10.4537C45.648 10.4185 45.7004 10.3788 45.7572 10.3612C45.8141 10.3436 45.9059 10.326 45.9977 10.326H47.331V10.304V10.304ZM56.7561 10.2864C56.9966 10.2864 57.237 10.304 57.425 10.3436C57.6261 10.3788 57.7922 10.4361 57.9408 10.4933C58.0894 10.5682 58.1812 10.643 58.273 10.7355C58.3474 10.828 58.3867 10.9381 58.3867 11.0526C58.3867 11.0878 58.3867 11.145 58.3692 11.1803C58.3474 11.2375 58.3299 11.2771 58.2949 11.3124C58.2556 11.352 58.2206 11.3872 58.1812 11.4048C58.1288 11.4268 58.072 11.4445 58.0151 11.4445C57.9583 11.4445 57.9058 11.4445 57.849 11.4268C57.7922 11.4048 57.7572 11.3872 57.7004 11.3696C57.6435 11.352 57.5911 11.33 57.5343 11.2947C57.4774 11.2771 57.4031 11.2375 57.3288 11.2199C57.2588 11.2023 57.1627 11.1803 57.0534 11.1626C56.9441 11.145 56.8304 11.145 56.6818 11.145H56.6293C56.367 11.145 56.1441 11.1803 55.978 11.2375C55.8119 11.2947 55.7026 11.3872 55.6064 11.5193C55.5146 11.647 55.4621 11.8143 55.4403 12.0037C55.4053 12.2063 55.4053 12.4484 55.4053 12.7303V12.9548C55.4053 13.2322 55.4228 13.4744 55.4403 13.6814C55.4796 13.8884 55.5321 14.0557 55.6064 14.1658C55.7026 14.2979 55.8119 14.3903 55.978 14.4476C56.1441 14.5004 56.3496 14.5401 56.6293 14.5401H56.6818C56.8304 14.5401 56.9616 14.5401 57.0534 14.5224C57.1627 14.5004 57.2588 14.4828 57.3288 14.4652C57.4031 14.4476 57.4774 14.4256 57.5343 14.3903C57.5911 14.3727 57.6435 14.3331 57.7004 14.3155C57.7572 14.2979 57.7922 14.2803 57.849 14.2582C57.9058 14.2406 57.9408 14.2406 58.0151 14.2406C58.0894 14.2406 58.1463 14.2582 58.1812 14.2803C58.2381 14.2979 58.2731 14.3331 58.2949 14.3727C58.3299 14.408 58.3474 14.4476 58.3692 14.5004C58.3867 14.5577 58.3867 14.5973 58.3867 14.6325C58.3867 14.7426 58.3474 14.8571 58.273 14.9496C58.2031 15.042 58.0894 15.1345 57.9408 15.1918C57.7922 15.2666 57.6261 15.3063 57.425 15.3415C57.2195 15.3811 56.9966 15.3987 56.7561 15.3987H56.6293C56.2752 15.3987 55.978 15.3591 55.7375 15.3063C55.4971 15.249 55.2916 15.1565 55.1255 15.042C54.9594 14.932 54.8326 14.7999 54.719 14.6325C54.6272 14.4828 54.5354 14.2979 54.496 14.1085C54.4436 13.9236 54.4042 13.7166 54.3867 13.4965C54.3692 13.2719 54.3692 13.0473 54.3692 12.8227V12.8051C54.3692 12.5805 54.3692 12.3384 54.3867 12.1314C54.4042 11.9112 54.4436 11.7043 54.496 11.5193C54.5528 11.33 54.6272 11.145 54.719 10.9953C54.8108 10.8456 54.9594 10.6959 55.1255 10.5858C55.2916 10.4757 55.4971 10.3788 55.7375 10.326C55.978 10.2688 56.2752 10.2291 56.6293 10.2291H56.7561V10.2864V10.2864ZM59.978 12.4308H61.0534H61.7572C61.9408 12.4308 62.0719 12.4308 62.1463 12.4308C62.2381 12.4308 62.2949 12.4308 62.3124 12.4308V10.621C62.3124 10.5682 62.3299 10.5286 62.3692 10.4757C62.4042 10.4361 62.461 10.4009 62.5178 10.3612C62.5703 10.326 62.6446 10.304 62.7189 10.2864C62.7933 10.2688 62.8676 10.2688 62.9419 10.2688C63.0905 10.2688 63.1823 10.2864 63.2566 10.326C63.331 10.3612 63.3484 10.4537 63.3484 10.5858V15.1742C63.3484 15.2314 63.331 15.2842 63.3135 15.3063C63.2916 15.3415 63.2741 15.3591 63.2392 15.3811C63.1998 15.3987 63.1648 15.4163 63.108 15.4163C63.0512 15.4163 62.9987 15.4163 62.9419 15.4163C62.8676 15.4163 62.7933 15.4163 62.7189 15.3987C62.6446 15.3811 62.5878 15.3811 62.5178 15.3415C62.461 15.3239 62.4042 15.2842 62.3692 15.249C62.3299 15.2094 62.3124 15.1565 62.3124 15.0993V13.2543H59.978V15.0993C59.978 15.1565 59.9605 15.2094 59.9211 15.249C59.8862 15.2842 59.8293 15.3239 59.7769 15.3415C59.72 15.3591 59.6457 15.3811 59.5714 15.3811C59.4971 15.3811 59.4403 15.3987 59.3659 15.3987C59.2916 15.3987 59.2392 15.3987 59.1823 15.3987C59.1255 15.3987 59.0905 15.3811 59.0512 15.3591C59.0162 15.3415 58.9987 15.3239 58.9769 15.2842C58.9594 15.249 58.9594 15.2094 58.9594 15.1565V10.6034C58.9594 10.4933 58.9987 10.4185 59.0512 10.3612C59.108 10.304 59.2173 10.2864 59.3659 10.2864C59.4403 10.2864 59.5146 10.2864 59.5889 10.304C59.6632 10.326 59.72 10.3436 59.7944 10.3612C59.8468 10.3788 59.9036 10.4185 59.943 10.4757C59.978 10.5109 59.9955 10.5682 59.9955 10.643V12.4308H59.978V12.4308ZM65.3856 13.5889H67.1473L66.3692 11.2771C66.3473 11.2375 66.3473 11.2199 66.3299 11.1803C66.3124 11.1626 66.3124 11.145 66.2949 11.145H66.2381C66.2206 11.145 66.1987 11.1626 66.1987 11.1803C66.1812 11.2023 66.1812 11.2375 66.1637 11.2771L65.3856 13.5889V13.5889ZM67.4227 14.408H65.1058L64.9222 14.932C64.8872 15.0597 64.8304 15.1565 64.7911 15.2314C64.7561 15.3063 64.6993 15.3415 64.6468 15.3811C64.59 15.4163 64.5331 15.434 64.4588 15.434C64.3845 15.434 64.3102 15.4516 64.2184 15.4516C64.1441 15.4516 64.0916 15.434 64.0348 15.4163C63.9779 15.3987 63.9211 15.3591 63.9036 15.3063C63.8687 15.249 63.8468 15.1742 63.8468 15.0817C63.8468 14.9848 63.8687 14.8747 63.9211 14.7426L65.2545 10.9205C65.3113 10.7531 65.3856 10.621 65.4599 10.5286C65.5342 10.4361 65.6085 10.3788 65.7003 10.3436C65.7747 10.304 65.8665 10.2864 65.9583 10.2688C66.0544 10.2688 66.1462 10.2688 66.2206 10.2688H66.3473C66.4435 10.2688 66.5353 10.2688 66.6096 10.2688C66.7014 10.2688 66.7758 10.304 66.8676 10.3436C66.9419 10.3788 67.0337 10.4537 67.108 10.5286C67.1823 10.621 67.2566 10.7531 67.3135 10.9205L68.6468 14.7426C68.6818 14.8747 68.7211 14.9892 68.7211 15.0817C68.7211 15.1742 68.6992 15.249 68.6643 15.3063C68.6249 15.3591 68.59 15.3987 68.5331 15.4163C68.4763 15.434 68.4064 15.4516 68.3495 15.4516C68.2577 15.4516 68.1834 15.4516 68.1091 15.434C68.0348 15.434 67.9779 15.3987 67.9211 15.3811C67.8686 15.3415 67.8118 15.2842 67.7768 15.2314C67.7375 15.1565 67.6807 15.0597 67.6457 14.932L67.4227 14.408V14.408ZM72.144 11.2023V12.695H71.2391C71.0162 12.695 70.8107 12.673 70.6796 12.6378C70.5353 12.5982 70.4216 12.5629 70.3473 12.5057C70.273 12.4484 70.2206 12.378 70.1812 12.2811C70.1462 12.1886 70.1244 12.0609 70.1244 11.9465C70.1244 11.7967 70.1462 11.7043 70.1812 11.6118C70.2206 11.5193 70.273 11.4445 70.3473 11.3872C70.4391 11.33 70.5353 11.2771 70.6796 11.2551C70.8282 11.2199 71.0337 11.2023 71.2566 11.2023H72.144V11.2023ZM72.144 13.5713V15.1918C72.144 15.249 72.1615 15.3063 72.1834 15.3415C72.2184 15.3811 72.2577 15.3987 72.2927 15.4163C72.3495 15.434 72.3845 15.4516 72.4588 15.4516C72.5156 15.4516 72.5899 15.4516 72.6468 15.4516C72.7211 15.4516 72.7736 15.4516 72.8479 15.4516C72.9047 15.4516 72.9615 15.434 73.014 15.4163C73.0708 15.3987 73.1058 15.3811 73.1276 15.3415C73.1626 15.3063 73.1626 15.2666 73.1626 15.2094V10.7928V10.7355C73.1451 10.6607 73.1451 10.621 73.1276 10.5682C73.1058 10.5286 73.0708 10.4757 73.0358 10.4361C72.9965 10.4009 72.9397 10.3612 72.8872 10.3436C72.8304 10.326 72.7386 10.304 72.6468 10.304H71.3134C71.1823 10.304 71.0905 10.304 70.9244 10.304C70.8107 10.304 70.5528 10.3436 70.3867 10.3788C70.2206 10.4185 70.0501 10.4757 69.9058 10.5462C69.7572 10.621 69.6085 10.7179 69.4774 10.8456C69.3506 10.9777 69.2544 11.1274 69.1801 11.2947C69.1058 11.4797 69.0708 11.6867 69.0708 11.9465C69.0708 12.171 69.0883 12.356 69.1451 12.5233C69.202 12.695 69.2763 12.8227 69.3681 12.9372C69.4599 13.0473 69.5692 13.1398 69.6828 13.2322C69.8096 13.3071 69.9408 13.382 70.0719 13.4216L69.1058 15.0597C69.0708 15.1169 69.0708 15.1565 69.0708 15.2094C69.0708 15.249 69.0883 15.2842 69.1277 15.3239C69.1626 15.3591 69.202 15.3811 69.2544 15.3987C69.3113 15.4163 69.3681 15.434 69.4206 15.4516C69.4774 15.4736 69.5342 15.4736 69.591 15.4736C69.6435 15.4736 69.6828 15.4736 69.7178 15.4736C69.8096 15.4736 69.8839 15.4516 69.9801 15.4163C70.0719 15.3811 70.1244 15.3239 70.1812 15.249L71.1255 13.5889H71.2741H71.6282H72.144V13.5713V13.5713ZM50.7758 13.5889H52.5332L51.755 11.2771C51.7375 11.2375 51.7375 11.2199 51.7201 11.1803C51.7026 11.1626 51.7026 11.145 51.6851 11.145H51.6283C51.6108 11.145 51.5889 11.1626 51.5889 11.1803C51.5714 11.2023 51.5714 11.2375 51.5539 11.2771L50.7758 13.5889ZM52.813 14.408H50.496L50.3124 14.932C50.2731 15.0597 50.2206 15.1565 50.1813 15.2314C50.1463 15.3063 50.0895 15.3415 50.0326 15.3811C49.9802 15.4163 49.9233 15.434 49.849 15.434C49.7747 15.434 49.7004 15.4516 49.6086 15.4516C49.5343 15.4516 49.4774 15.434 49.425 15.4163C49.3682 15.3987 49.3113 15.3591 49.2938 15.3063C49.2589 15.249 49.237 15.1742 49.237 15.0817C49.237 14.9848 49.2589 14.8747 49.2938 14.7426L50.6272 10.9205C50.684 10.7531 50.7583 10.621 50.8326 10.5286C50.907 10.4361 50.9813 10.3788 51.0731 10.3436C51.1474 10.304 51.2392 10.2864 51.331 10.2688C51.4228 10.2688 51.5146 10.2688 51.5889 10.2688H51.7201C51.8119 10.2688 51.9037 10.2688 51.978 10.2688C52.0698 10.2688 52.1441 10.304 52.2403 10.3436C52.3146 10.3788 52.4064 10.4537 52.4807 10.5286C52.555 10.621 52.6294 10.7531 52.6818 10.9205L54.0151 14.7426C54.0545 14.8747 54.0895 14.9892 54.0895 15.0817C54.0895 15.1742 54.072 15.249 54.0326 15.3063C53.9977 15.3591 53.9627 15.3987 53.9058 15.4163C53.849 15.434 53.7747 15.4516 53.7179 15.4516C53.6261 15.4516 53.5518 15.4516 53.4774 15.434C53.4031 15.434 53.3507 15.3987 53.2938 15.3811C53.237 15.3415 53.1845 15.2842 53.1452 15.2314C53.1102 15.1565 53.0534 15.0597 53.014 14.932L52.813 14.408V14.408ZM41.6261 15.2094C41.6261 15.2666 41.6086 15.3239 41.5736 15.3591C41.5343 15.3987 41.4818 15.434 41.425 15.4516C41.3682 15.4736 41.2939 15.4912 41.2195 15.4912C41.1452 15.4912 41.0928 15.5088 41.0185 15.5088C40.9441 15.5088 40.8873 15.5088 40.8305 15.5088C40.778 15.5088 40.7387 15.4912 40.7037 15.4736C40.6644 15.4516 40.6469 15.434 40.6294 15.3987C40.6075 15.3591 40.6075 15.3239 40.6075 15.2666V10.643C40.6075 10.5286 40.6469 10.4537 40.7037 10.4009C40.778 10.3436 40.8698 10.326 41.0185 10.326C41.0928 10.326 41.1671 10.326 41.237 10.3436C41.3114 10.3612 41.3682 10.3788 41.4425 10.4009C41.4993 10.4185 41.5518 10.4537 41.5911 10.5109C41.6261 10.5462 41.648 10.6034 41.648 10.6783V12.378C41.648 12.378 41.648 12.4308 41.6654 12.4484C41.6829 12.4705 41.7004 12.4705 41.7223 12.4705C41.7573 12.4705 41.7747 12.4705 41.7966 12.4484C41.8141 12.4308 41.8491 12.4132 41.8491 12.4132L43.7594 10.5858C43.8119 10.5286 43.8687 10.4933 43.9256 10.4537C43.978 10.4185 44.0174 10.4009 44.0742 10.3788C44.1266 10.3612 44.1835 10.3436 44.2403 10.3436C44.2928 10.3436 44.3496 10.3436 44.4064 10.3436C44.4414 10.3436 44.4982 10.3436 44.5332 10.3612C44.5725 10.3788 44.6294 10.4009 44.6643 10.4361C44.7037 10.4713 44.7387 10.5109 44.7561 10.5462C44.7736 10.6034 44.7955 10.6607 44.7955 10.7179C44.7955 10.7531 44.7955 10.7928 44.7736 10.828C44.7736 10.8632 44.7562 10.9028 44.7212 10.9601C44.7037 10.9953 44.6643 11.0526 44.6075 11.1098C44.5725 11.1626 44.4982 11.2199 44.4239 11.2947L42.8676 12.7655C42.8327 12.8051 42.8108 12.8227 42.8108 12.8624C42.8108 12.88 42.8108 12.8976 42.8108 12.9152C42.8108 12.9372 42.8108 12.9548 42.8108 12.9724C42.8108 12.9901 42.8327 13.0297 42.8676 13.0649L44.4239 14.5401C44.4982 14.6149 44.5551 14.6678 44.6075 14.725C44.6469 14.7822 44.6818 14.8395 44.7212 14.8747C44.7387 14.9144 44.7561 14.9672 44.7736 15.0068C44.7736 15.0421 44.7955 15.0817 44.7955 15.1169C44.7955 15.1918 44.7736 15.249 44.7561 15.2842C44.7387 15.3415 44.7037 15.3811 44.6643 15.3987C44.6294 15.434 44.59 15.4516 44.5551 15.4736C44.5157 15.4912 44.4589 15.5088 44.4064 15.5088C44.3496 15.5088 44.2753 15.5088 44.2403 15.5088C44.1835 15.5088 44.1266 15.4912 44.0917 15.4736C44.0348 15.4516 43.9999 15.434 43.943 15.3987C43.8862 15.3591 43.8294 15.3239 43.7769 15.2666C43.7769 15.2666 41.9802 13.5493 41.8665 13.4216C41.8491 13.3996 41.8316 13.382 41.8141 13.382C41.7747 13.3643 41.7573 13.3644 41.7398 13.3644C41.7223 13.3644 41.7004 13.3643 41.6829 13.382C41.6654 13.3996 41.6654 13.4568 41.6654 13.4568V15.2094H41.6261V15.2094ZM75.72 10.4757C75.72 10.3788 75.7943 10.304 75.8861 10.304H76.402C76.4981 10.304 76.5724 10.3788 76.5724 10.4757V21.5723C76.5724 21.6648 76.4981 21.7396 76.402 21.7396H75.8861C75.7943 21.7396 75.72 21.6648 75.72 21.5723V10.4757V10.4757Z" fill="white"/>
</svg>
