<svg width="134" height="22" viewBox="0 0 134 22" fill="none" xmlns="http://www.w3.org/2000/svg">
<path d="M30.3527 12.7845L29.8412 6.03937C29.794 5.41055 29.4058 4.87878 28.8039 4.61795C28.1835 4.34903 27.4687 4.44002 26.9408 4.85047L20.8954 9.55551L20.1908 8.99544L21.9101 7.43046C22.2943 7.08067 22.4956 6.58327 22.4627 6.0697C22.4278 5.55411 22.1628 5.08704 21.7335 4.78981L15.3143 0.317302C14.8295 -0.0203612 14.2112 -0.093151 13.6607 0.121174C13.1122 0.335499 12.7137 0.804588 12.5987 1.37275L11.5593 6.47004L11.5367 6.47611C11.3559 6.52666 11.1957 6.5954 11.0457 6.69043L10.6287 6.95733L10.6698 6.77131C10.7746 6.26987 10.6452 5.75428 10.3144 5.35596C9.98167 4.95561 9.49072 4.72713 8.96486 4.72713L1.75065 4.72309C1.0358 4.72309 0.419557 5.12343 0.144299 5.76843C-0.130958 6.40938 0.00461678 7.11706 0.497615 7.61648L4.02461 11.1852L2.34431 12.2609C1.8472 12.5803 1.5514 13.1202 1.55551 13.7045C1.55961 14.2889 1.86568 14.8247 2.37101 15.1361L12.3542 21.2686C12.6397 21.4445 12.9581 21.5314 13.2786 21.5314C13.599 21.5314 13.9215 21.4425 14.2071 21.2666C14.774 20.9168 15.0821 20.294 15.0102 19.6409L14.4207 14.2525L15.0821 13.652L15.8586 18.9575C15.9428 19.5317 16.2818 20.0291 16.7891 20.3243C17.3006 20.6236 17.9128 20.6762 18.4674 20.4719L26.3286 17.5745C26.8997 17.3622 27.329 16.9154 27.5036 16.3452C27.6782 15.779 27.5755 15.1583 27.2304 14.6852L27.1893 14.6285L28.5944 14.6164C29.0976 14.6103 29.5763 14.4001 29.9111 14.0422C30.2356 13.6944 30.3938 13.2476 30.3568 12.7845H30.3527ZM20.7927 11.4865L22.2203 12.5318L20.1046 12.5439C20.0039 12.5439 19.9176 12.4833 19.8848 12.3903C19.8498 12.2973 19.8807 12.1962 19.9608 12.1355L20.7927 11.4885V11.4865ZM11.6147 13.6499L12.4467 8.85592L12.8164 13.2152L12.8041 13.2273C12.6685 13.3527 12.5411 13.472 12.4241 13.5832L12.081 13.9027C11.9886 13.9856 11.8571 13.9997 11.7524 13.9411C11.6476 13.8825 11.5942 13.7692 11.6168 13.652L11.6147 13.6499ZM2.94412 6.76524C2.84347 6.66415 2.81677 6.51857 2.87223 6.38916C2.92975 6.25774 3.05505 6.17484 3.20089 6.17484L8.82107 6.17888C8.95254 6.17888 9.06757 6.23145 9.12508 6.29818C9.18466 6.36895 9.22779 6.49228 9.20314 6.61158L8.88269 8.07344L6.03152 9.89722L2.94823 6.76322L2.94412 6.76524ZM8.52527 10.0003L8.21715 11.262C8.18839 11.4036 8.08568 11.5127 7.946 11.5532C7.80837 11.5916 7.65636 11.5532 7.55571 11.4501L7.07709 10.9648L8.52527 10.0003ZM13.1923 18.8342C13.0588 18.9171 12.8801 18.9171 12.7466 18.8342L4.18689 13.563C4.05542 13.4841 3.97737 13.3446 3.97531 13.195C3.97531 13.0434 4.05132 12.9018 4.18073 12.8209L5.07634 12.2487L6.45879 13.6459C6.91892 14.1089 7.57009 14.2767 8.20071 14.0948C8.83134 13.9128 9.28531 13.4295 9.41472 12.7987L10.2138 8.96107L11.1772 8.34438L10.0104 14.0462C9.86047 14.7842 10.1953 15.498 10.8629 15.868C11.5346 16.24 12.3357 16.147 12.9027 15.6334L13.0609 15.4879L13.3854 18.446C13.4039 18.6016 13.3299 18.7513 13.1944 18.8362L13.1923 18.8342ZM15.2978 6.66819C14.5912 7.06449 14.3057 7.68118 14.4104 8.55263C14.4803 9.12484 14.7494 11.3935 14.7494 11.3935L14.735 11.4056C14.5583 11.5734 14.3878 11.7352 14.2173 11.8949L14.1639 11.9454L13.7264 7.93392C13.673 7.45472 13.4285 7.03618 13.0362 6.75109L13.0177 6.73896L13.8538 2.57984C13.8764 2.47066 13.9298 2.29273 14.1105 2.226C14.3098 2.15523 14.4659 2.25229 14.5583 2.32103L19.7225 5.96456C19.8314 6.04139 19.8991 6.15866 19.9074 6.29009C19.9176 6.41949 19.8704 6.54688 19.7738 6.63786C19.7738 6.63786 19.324 7.06449 18.6358 7.71758L18.6132 7.73982L17.4876 6.8441C16.8487 6.33659 16.0106 6.26785 15.2958 6.66819H15.2978ZM16.214 10.0104L16.1626 10.059L15.9161 8.37268C15.8956 8.22912 15.9613 8.09568 16.0887 8.02491C16.1441 7.99458 16.2037 7.9784 16.2633 7.9784C16.3413 7.9784 16.4194 8.00469 16.4831 8.05524L17.4588 8.83368L17.428 8.86199C17.3335 8.95096 17.239 9.03992 17.1425 9.13091L16.6166 9.6283C16.4831 9.75366 16.3496 9.88104 16.2119 10.0104H16.214ZM25.2132 15.3504C25.1824 15.5404 25.0551 15.6961 24.8722 15.7649L18.0792 18.2862C17.9189 18.3469 17.73 18.3327 17.5779 18.2458C17.4259 18.1568 17.3232 18.0072 17.2986 17.8353L16.4975 12.3579L19.0117 10.0711L19.6177 10.5523L18.2435 11.7534C17.5307 12.3094 17.4074 13.013 17.6026 13.5549C17.8429 14.2262 18.4859 14.6427 19.2932 14.6427L24.7613 14.6488L25.0201 14.855C25.1721 14.9763 25.244 15.1603 25.2132 15.3504ZM27.9021 12.3862C27.8343 12.461 27.7357 12.5035 27.631 12.5035L24.6114 12.5197L22.0642 10.4896L27.027 6.62573C27.1195 6.55294 27.2489 6.46802 27.3824 6.52261C27.5262 6.57923 27.5283 6.70459 27.5385 6.82186L27.9925 12.1133C28.0007 12.2144 27.9679 12.3114 27.898 12.3842L27.9021 12.3862Z" fill="white"/>
<path d="M65.0167 11.7317C65.6596 11.1756 65.9863 10.4821 65.9863 9.66526C65.9863 8.70889 65.6576 7.94055 65.0105 7.38452C64.3676 6.83253 63.4863 6.55149 62.3935 6.55149C61.4815 6.55149 60.59 6.77188 59.9511 7.15402C59.3554 7.5119 58.8686 7.98504 58.5214 8.53703C59.1213 9.02836 59.7827 9.5763 60.1134 9.86341C60.6064 9.14361 61.4014 8.71495 62.2806 8.71495C62.7201 8.71495 63.0652 8.81807 63.3056 9.02027C63.5439 9.22246 63.6609 9.48936 63.6609 9.83713C63.6609 10.1647 63.55 10.4235 63.32 10.6257C63.0899 10.8279 62.7674 10.929 62.3607 10.929H61.0296V12.8721H62.5188C63.0447 12.8721 63.4494 12.9792 63.7226 13.1875C63.9917 13.3937 64.1211 13.6687 64.1211 14.0266C64.1211 14.4249 63.9609 14.7302 63.6301 14.9648C63.2933 15.2013 62.8557 15.3226 62.3278 15.3226C61.2781 15.3226 60.3476 14.8212 59.7005 13.9093C59.187 14.3359 58.5502 14.8596 58.0983 15.2276C58.4824 15.9009 59.0186 16.4448 59.6944 16.8371C60.4133 17.2556 61.3541 17.4861 62.3422 17.4861C63.5726 17.4861 64.573 17.1768 65.3166 16.5681C66.0664 15.9535 66.4464 15.1366 66.4464 14.1378C66.4464 13.0439 65.9637 12.2351 65.0146 11.7317H65.0167ZM41.2747 6.73953H37.2773V17.2981H39.7505V14.2146H41.2747C42.8092 14.2146 45.4036 13.4261 45.4036 10.47C45.4036 7.51393 42.8071 6.73953 41.2747 6.73953ZM41.2172 12.1603H39.7526V8.80796H41.2172C41.9341 8.80796 43.0002 9.25077 43.0002 10.468C43.0002 11.8024 41.8807 12.1603 41.2172 12.1603ZM51.868 6.41602C48.7293 6.41602 46.176 8.92928 46.176 12.0188C46.176 15.1083 48.7293 17.6216 51.868 17.6216C55.0068 17.6216 57.5601 15.1083 57.5601 12.0188C57.5601 8.92928 55.0068 6.41602 51.868 6.41602ZM54.1338 14.3824C53.5298 14.9991 52.776 15.3065 51.868 15.3065C50.9601 15.3065 50.1939 14.9991 49.5961 14.3824C48.9984 13.7657 48.6985 12.9772 48.6985 12.0168C48.6985 11.0564 48.9984 10.2678 49.5961 9.65111C50.1939 9.03442 50.9519 8.72709 51.868 8.72709C52.7842 8.72709 53.5298 9.03846 54.1338 9.6592C54.7377 10.2799 55.0376 11.0665 55.0376 12.0168C55.0376 12.9671 54.7356 13.7657 54.1338 14.3824ZM71.7338 6.73953L67.0585 17.3142H69.768L70.3575 15.9656H74.5254L75.1149 17.3142H77.8244L73.1655 6.73953H71.7317H71.7338ZM71.1299 14.0043L72.4425 10.6055L73.7551 14.0043H71.1319H71.1299ZM129.729 6.73953H125.731V17.2981H128.205V14.2146H129.729C131.263 14.2146 133.858 13.4261 133.858 10.47C133.858 7.51393 131.261 6.73953 129.729 6.73953ZM129.671 12.1603H128.207V8.80796H129.671C130.388 8.80796 131.454 9.25077 131.454 10.468C131.454 11.8024 130.335 12.1603 129.671 12.1603ZM118.462 6.41602C115.323 6.41602 112.77 8.92928 112.77 12.0188C112.77 15.1083 115.323 17.6216 118.462 17.6216C121.601 17.6216 124.154 15.1083 124.154 12.0188C124.154 8.92928 121.601 6.41602 118.462 6.41602ZM120.728 14.3824C120.124 14.9991 119.37 15.3065 118.462 15.3065C117.554 15.3065 116.788 14.9991 116.19 14.3824C115.592 13.7657 115.292 12.9772 115.292 12.0168C115.292 11.0564 115.592 10.2678 116.19 9.65111C116.788 9.03442 117.546 8.72709 118.462 8.72709C119.378 8.72709 120.124 9.03846 120.728 9.6592C121.331 10.2799 121.631 11.0665 121.631 12.0168C121.631 12.9671 121.329 13.7657 120.728 14.3824ZM92.4808 6.7375H89.5639L87.6145 9.96249L85.6487 6.7375H82.7153L86.0656 11.8651L82.4483 17.296H85.5583L87.6145 13.8992L89.6707 17.296H92.7643L89.1798 11.8651L92.4808 6.73953V6.7375ZM103.483 8.91108H106.788V17.296H109.261V8.91513H112.583V6.74155H103.483V8.91513V8.91108ZM98.3598 12.0997L95.7592 6.7375H93.0025L97.156 14.7666C96.8192 15.1771 96.357 15.3934 95.8147 15.3934H95.1348L95.2416 17.3527C95.5743 17.4275 95.903 17.4679 96.2276 17.4679C97.1088 17.4477 97.8319 17.203 98.3187 16.7602C98.7973 16.3275 99.2513 15.63 99.7094 14.6291L103.177 6.7375H100.42L98.3577 12.0997H98.3598Z" fill="white"/>
</svg>
