<svg width="32" height="32" viewBox="0 0 32 32" fill="none" xmlns="http://www.w3.org/2000/svg">
<path fill-rule="evenodd" clip-rule="evenodd" d="M16.1667 0.416504C16.719 0.416504 17.1667 0.864219 17.1667 1.4165V5.58317C17.1667 6.13546 16.719 6.58317 16.1667 6.58317C15.6144 6.58317 15.1667 6.13546 15.1667 5.58317V1.4165C15.1667 0.864219 15.6144 0.416504 16.1667 0.416504ZM5.00124 4.98069C5.38918 4.5876 6.02233 4.58342 6.41542 4.97135L9.40462 7.92134C9.79771 8.30928 9.8019 8.94243 9.41396 9.33553C9.02602 9.72862 8.39287 9.7328 7.99977 9.34486L5.01057 6.39487C4.61748 6.00694 4.6133 5.37378 5.00124 4.98069ZM27.3323 4.98069C27.7202 5.37379 27.716 6.00694 27.3229 6.39487L24.3337 9.34486C23.9406 9.7328 23.3075 9.72862 22.9195 9.33553C22.5316 8.94243 22.5358 8.30928 22.9289 7.92134L25.9181 4.97135C26.3112 4.58342 26.9443 4.5876 27.3323 4.98069ZM10.0999 16C10.0999 12.6739 12.8284 10 16.1664 10C19.5043 10 22.2328 12.6739 22.2328 16C22.2328 19.3261 19.5043 22 16.1664 22C12.8284 22 10.0999 19.3261 10.0999 16ZM16.1664 12C13.908 12 12.0999 13.8033 12.0999 16C12.0999 18.1967 13.908 20 16.1664 20C18.4247 20 20.2328 18.1967 20.2328 16C20.2328 13.8033 18.4247 12 16.1664 12ZM0.389587 15.9998C0.389587 15.4475 0.837303 14.9998 1.38959 14.9998H5.6116C6.16388 14.9998 6.6116 15.4475 6.6116 15.9998C6.6116 16.5521 6.16388 16.9998 5.6116 16.9998H1.38959C0.837303 16.9998 0.389587 16.5521 0.389587 15.9998ZM25.7218 15.9998C25.7218 15.4475 26.1695 14.9998 26.7218 14.9998H30.9438C31.4961 14.9998 31.9438 15.4475 31.9438 15.9998C31.9438 16.5521 31.4961 16.9998 30.9438 16.9998H26.7218C26.1695 16.9998 25.7218 16.5521 25.7218 15.9998ZM9.41396 22.6641C9.80189 23.0572 9.79772 23.6903 9.40462 24.0783L6.41542 27.0283C6.02233 27.4162 5.38918 27.412 5.00124 27.0189C4.6133 26.6258 4.61748 25.9927 5.01057 25.6047L7.99977 22.6547C8.39287 22.2668 9.02602 22.271 9.41396 22.6641ZM22.9195 22.6641C23.3075 22.271 23.9406 22.2668 24.3337 22.6547L27.3229 25.6047C27.716 25.9927 27.7202 26.6258 27.3323 27.0189C26.9443 27.412 26.3112 27.4162 25.9181 27.0283L22.9289 24.0783C22.5358 23.6903 22.5316 23.0572 22.9195 22.6641ZM16.1667 25.4165C16.719 25.4165 17.1667 25.8642 17.1667 26.4165V30.5832C17.1667 31.1355 16.719 31.5832 16.1667 31.5832C15.6144 31.5832 15.1667 31.1355 15.1667 30.5832V26.4165C15.1667 25.8642 15.6144 25.4165 16.1667 25.4165Z" fill="white"/>
</svg>
