<svg width="20" height="15" viewBox="0 0 20 15" fill="none" xmlns="http://www.w3.org/2000/svg">
<path fill-rule="evenodd" clip-rule="evenodd" d="M18.0736 3.87087C18.0262 3.84437 17.9681 3.84563 17.9218 3.87416L14.4465 6.01633C14.0469 6.26266 13.5233 6.1384 13.2769 5.73877C13.0306 5.33915 13.1549 4.81551 13.5545 4.56918L17.0297 2.42705V2.42705C17.6004 2.07522 18.3169 2.05969 18.9023 2.38653C19.4877 2.71336 19.8505 3.33138 19.8505 4.00187V4.00187V10.9987C19.8505 11.6691 19.4877 12.2871 18.9023 12.614C18.3169 12.9408 17.6005 12.9253 17.0298 12.5735L13.5545 10.4313C13.1549 10.185 13.0306 9.66133 13.2769 9.26171C13.5233 8.86209 14.0469 8.73783 14.4465 8.98416L17.9218 11.1264V11.1264C17.9681 11.1549 18.0262 11.1561 18.0736 11.1296C18.1211 11.1031 18.1505 11.053 18.1505 10.9987V10.9987V4.00187C18.1505 3.9475 18.1211 3.89737 18.0736 3.87087Z" fill="#222A2F"/>
<path fill-rule="evenodd" clip-rule="evenodd" d="M0.150391 3.9999C0.150391 1.87361 1.87409 0.149902 4.00039 0.149902H11.0004C13.1267 0.149902 14.8504 1.87361 14.8504 3.9999V10.9999C14.8504 13.1262 13.1267 14.8499 11.0004 14.8499H4.00039C1.87409 14.8499 0.150391 13.1262 0.150391 10.9999V3.9999ZM4.00039 1.8499C2.81298 1.8499 1.85039 2.81249 1.85039 3.9999V10.9999C1.85039 12.1873 2.81298 13.1499 4.00039 13.1499H11.0004C12.1878 13.1499 13.1504 12.1873 13.1504 10.9999V3.9999C13.1504 2.81249 12.1878 1.8499 11.0004 1.8499H4.00039Z" fill="#222A2F"/>
</svg>
