<svg width="186" height="36" viewBox="0 0 186 36" fill="none" xmlns="http://www.w3.org/2000/svg">
<path fill-rule="evenodd" clip-rule="evenodd" d="M23.8663 3.7371C23.4834 3.94425 22.9447 4.4771 22.86 6.20979C22.8003 7.43154 22.6197 8.97771 22.1782 10.4315C21.7478 11.8485 21.0012 13.4058 19.6487 14.3662C16.8227 16.3729 12.9048 19.5015 9.61808 23.0923C6.28413 26.7347 3.81996 30.6169 3.4937 34.1384C3.41728 34.9633 2.68661 35.57 1.86172 35.4936C1.03682 35.4172 0.430069 34.6865 0.506496 33.8616C0.927615 29.3164 3.97508 24.8141 7.40513 21.0667C10.8824 17.2678 14.9809 14.0013 17.9118 11.9201C18.4634 11.5284 18.9514 10.7328 19.3076 9.55972C19.6527 8.42346 19.8108 7.14239 19.8636 6.06327C19.9773 3.73846 20.7925 1.98922 22.4387 1.09853C23.9517 0.279986 25.7636 0.428728 27.3112 0.791475C28.9105 1.16634 30.568 1.85413 31.9899 2.49942C32.5812 2.76775 33.1144 3.0198 33.5946 3.24678C34.3378 3.59809 34.9539 3.88932 35.4614 4.08781C36.3307 4.42782 37.2298 4.77511 38.1518 5.13124C46.158 8.22374 55.8884 11.9823 62.8053 17.4228C63.1722 17.7113 63.5345 18.0756 63.8519 18.4137C64.0818 16.6448 64.6877 15.1524 65.6029 13.9168C66.78 12.3278 68.3886 11.2709 70.104 10.5647C73.4816 9.17418 77.5528 9.03603 80.4509 9.03603C83.6339 9.03603 86.1911 10.2018 88.3495 11.1858C88.7024 11.3466 89.0446 11.5026 89.3772 11.6479C91.7761 12.6958 93.8872 13.3378 96.7524 12.3733C99.9621 11.2928 102.723 11.9462 105.098 13.4592C107.386 14.9176 109.342 17.1906 111.107 19.3896C111.482 19.8562 111.848 20.3192 112.208 20.7749C113.604 22.5424 114.913 24.1998 116.308 25.5331C118.046 27.1942 119.67 28.1005 121.397 28.1005C121.833 28.1005 122.227 27.8821 123.016 27.221C123.081 27.1663 123.15 27.1074 123.223 27.0454C123.897 26.4707 124.89 25.6236 126.193 25.2946C131.094 24.0573 137.188 25.4414 141.427 26.7856C151.592 30.0084 162.785 31.0335 173.459 31.0335C173.977 31.0335 174.684 30.9682 175.581 30.8854C175.69 30.8753 175.802 30.865 175.916 30.8545C176.929 30.7617 178.102 30.6625 179.246 30.6616C180.375 30.6607 181.587 30.7534 182.65 31.1023C183.73 31.4569 184.818 32.135 185.373 33.3958C185.707 34.154 185.363 35.0392 184.604 35.3729C183.846 35.7066 182.961 35.3625 182.627 34.6042C182.534 34.3914 182.314 34.1495 181.715 33.9528C181.098 33.7504 180.258 33.6608 179.248 33.6616C178.254 33.6624 177.202 33.7492 176.19 33.8419C176.076 33.8524 175.961 33.8631 175.846 33.8737C174.989 33.9534 174.127 34.0335 173.459 34.0335C162.621 34.0335 151.09 32.9963 140.521 29.6453C136.324 28.3147 130.944 27.1892 126.928 28.2033C126.334 28.3533 125.87 28.7426 125.078 29.4065C125.034 29.4437 124.989 29.4818 124.942 29.5207C124.186 30.1546 123.033 31.1005 121.397 31.1005C118.532 31.1005 116.195 29.5747 114.235 27.7018C112.673 26.2086 111.194 24.3346 109.785 22.5497C109.442 22.1147 109.103 21.685 108.768 21.2673C106.995 19.0585 105.31 17.1519 103.485 15.9891C101.746 14.8808 99.9233 14.4713 97.7095 15.2165C93.7858 16.5374 90.8158 15.55 88.1763 14.3971C87.782 14.2248 87.3992 14.0519 87.0238 13.8824C84.8562 12.9036 82.9351 12.036 80.4509 12.036C77.55 12.036 74.0199 12.1968 71.246 13.3388C69.8856 13.8989 68.7809 14.6666 68.0136 15.7025C67.257 16.7239 66.7483 18.113 66.7483 20.0683C66.7483 20.4909 66.7171 20.9216 66.6068 21.3073C66.5051 21.6631 66.2449 22.2886 65.5562 22.6043C64.8559 22.9252 64.218 22.6964 63.9173 22.5498C63.5954 22.3928 63.3213 22.1701 63.1222 21.9922C62.7761 21.6828 62.3971 21.2666 62.0741 20.912C62.0235 20.8564 61.9742 20.8023 61.9266 20.7503C61.5304 20.3175 61.2121 19.9864 60.9506 19.7808C54.4146 14.6399 45.135 11.0502 37.0554 7.92481C36.1426 7.57171 35.2451 7.22453 34.3686 6.8817C33.7766 6.65017 32.9905 6.27948 32.1591 5.88738C31.6949 5.66852 31.2167 5.44299 30.7501 5.23127C29.3633 4.6019 27.9265 4.017 26.6266 3.71231C25.275 3.39551 24.3825 3.45782 23.8663 3.7371Z" fill="url(#paint0_linear_795_7067)"/>
<defs>
<linearGradient id="paint0_linear_795_7067" x1="184.086" y1="34.0375" x2="-5.11395" y2="14.4918" gradientUnits="userSpaceOnUse">
<stop stop-color="#6ED649"/>
<stop offset="1" stop-color="#FF0000"/>
</linearGradient>
</defs>
</svg>
