<svg width="57" height="32" viewBox="0 0 57 32" fill="none" xmlns="http://www.w3.org/2000/svg">
<path fill-rule="evenodd" clip-rule="evenodd" d="M0.873483 0.258954C1.28276 -0.111875 1.91515 -0.0807109 2.28598 0.328562C3.27582 1.42101 4.04141 2.14211 4.74005 2.80014C6.29925 4.26871 7.52499 5.4232 10.1658 9.69066L10.2002 9.74636L10.2272 9.80609C10.3059 9.98085 10.5836 10.3838 11.0371 10.8816C11.4711 11.3581 11.987 11.8348 12.4635 12.17C12.6784 12.3211 12.8653 12.4293 13.0172 12.4972C13.02 12.4536 13.0218 12.4033 13.0218 12.3456C13.0218 10.2266 13.2193 8.69538 13.6062 7.60825C14.0051 6.48736 14.6418 5.7508 15.5297 5.42121C16.3407 5.12015 17.1866 5.235 17.8114 5.34733C18.0133 5.38364 18.1943 5.4195 18.3601 5.45234C18.79 5.53751 19.1176 5.60242 19.4431 5.60242C20.5051 5.60242 21.3218 6.22989 21.9062 6.8199C22.3293 7.24699 22.7484 7.7836 23.1146 8.25233C23.2483 8.42354 23.375 8.58569 23.4922 8.73015C23.9998 9.35581 24.3527 9.68429 24.6253 9.79535C24.7225 9.83494 24.7858 9.8361 24.8524 9.81938C24.9351 9.79864 25.1007 9.72858 25.3499 9.49184C26.0015 8.87292 26.8053 8.4628 27.6976 8.67346C28.5163 8.86677 29.0774 9.51696 29.4623 10.1336C30.2441 11.3861 30.8334 13.3916 31.359 15.3319C31.4673 15.7318 31.5737 16.1321 31.679 16.5288C32.1061 18.1364 32.518 19.6869 32.9868 20.93C33.2791 21.7052 33.5651 22.2799 33.8414 22.6448C33.9765 22.8233 34.0852 22.9189 34.159 22.9663C34.2226 23.0072 34.2507 23.0071 34.2585 23.0071H34.259C34.6503 23.0071 35.0527 23.1363 35.3346 23.2348C35.4841 23.287 35.6384 23.3453 35.7818 23.3995L35.8022 23.4072C35.9559 23.4653 36.0999 23.5195 36.2414 23.5687C36.5346 23.6707 36.754 23.728 36.9151 23.7433C36.9686 23.7483 37.0021 23.7475 37.0205 23.7459C38.2537 22.887 39.624 22.994 40.791 23.4387C41.9484 23.8798 43.0338 24.6917 43.8989 25.4656C47.7563 28.9167 51.9689 30 56.0004 30C56.5527 30 57.0004 30.4477 57.0004 31C57.0004 31.5523 56.5527 32 56.0004 32C51.5763 32 46.8574 30.7961 42.5653 26.9561C41.7724 26.2467 40.9014 25.6211 40.0788 25.3076C39.2764 25.0018 38.6575 25.0351 38.1469 25.3988C37.6702 25.7384 37.135 25.773 36.7267 25.7344C36.3186 25.6958 35.9146 25.5725 35.5844 25.4577C35.4142 25.3985 35.2465 25.3352 35.0953 25.2781L35.0853 25.2743C34.9336 25.217 34.8004 25.1667 34.6751 25.1229C34.547 25.0782 34.4457 25.0469 34.3652 25.0273C34.2895 25.009 34.2576 25.0073 34.2576 25.0071C34.2576 25.0071 34.2581 25.0071 34.259 25.0071C33.3497 25.0071 32.6901 24.4375 32.2468 23.852C31.7965 23.2572 31.4299 22.4698 31.1154 21.6357C30.6071 20.2879 30.161 18.6067 29.7322 16.9912C29.6302 16.6069 29.5292 16.2263 29.4286 15.8548C28.8832 13.8413 28.3608 12.1461 27.7657 11.1926C27.4621 10.7063 27.2684 10.6271 27.238 10.6199C27.2335 10.6189 27.2296 10.6184 27.2221 10.619C27.2138 10.6197 27.192 10.6226 27.1542 10.6372C27.0738 10.6682 26.9309 10.7485 26.7273 10.9419C26.3094 11.3389 25.8498 11.6311 25.3391 11.7593C24.8123 11.8914 24.3139 11.828 23.8709 11.6476C23.0631 11.3186 22.4216 10.585 21.9391 9.99022C21.7678 9.77911 21.6096 9.57656 21.4585 9.38291C21.1223 8.95233 20.8205 8.56582 20.4853 8.22736C20.0061 7.7436 19.6817 7.60242 19.4431 7.60242C18.9016 7.60242 18.296 7.48131 17.8167 7.38543C17.6863 7.35936 17.5653 7.33516 17.4574 7.31577C16.852 7.2069 16.4851 7.1999 16.2257 7.29619C16.0431 7.36396 15.7519 7.54398 15.4904 8.27877C15.2169 9.04731 15.0218 10.3109 15.0218 12.3456C15.0218 12.835 14.9481 13.328 14.7095 13.7411C14.4411 14.2058 14.0083 14.4889 13.5049 14.5581C13.0602 14.6193 12.6381 14.5043 12.3078 14.3689C11.9642 14.2281 11.6259 14.026 11.3128 13.8058C10.6859 13.3648 10.0618 12.7809 9.55854 12.2284C9.09719 11.7219 8.66031 11.1579 8.43513 10.6947C5.95392 6.69064 4.93777 5.73749 3.46684 4.35775C2.75701 3.69192 1.94127 2.92676 0.803876 1.67145C0.433047 1.26218 0.464211 0.629783 0.873483 0.258954ZM37.0384 23.7434C37.0384 23.7434 37.0376 23.7436 37.0358 23.744C37.0375 23.7435 37.0384 23.7433 37.0384 23.7434Z" fill="url(#paint0_linear_795_7068)"/>
<defs>
<linearGradient id="paint0_linear_795_7068" x1="60.1774" y1="32.668" x2="-14.8817" y2="29.9201" gradientUnits="userSpaceOnUse">
<stop stop-color="#6ED649"/>
<stop offset="1" stop-color="#FF0000"/>
</linearGradient>
</defs>
</svg>
