<svg width="14" height="14" viewBox="0 0 14 14" fill="none" xmlns="http://www.w3.org/2000/svg">
<path fill-rule="evenodd" clip-rule="evenodd" d="M13.1357 0.292893C13.5262 0.683417 13.5262 1.31658 13.1357 1.70711L1.70711 13.1357C1.31658 13.5262 0.683417 13.5262 0.292893 13.1357C-0.0976311 12.7452 -0.0976311 12.112 0.292893 11.7215L11.7215 0.292893C12.112 -0.0976311 12.7452 -0.0976311 13.1357 0.292893Z" fill="#E32B31"/>
<path fill-rule="evenodd" clip-rule="evenodd" d="M0.292893 0.292893C0.683417 -0.0976311 1.31658 -0.0976311 1.70711 0.292893L13.1357 11.7215C13.5262 12.112 13.5262 12.7452 13.1357 13.1357C12.7452 13.5262 12.112 13.5262 11.7215 13.1357L0.292893 1.70711C-0.0976311 1.31658 -0.0976311 0.683417 0.292893 0.292893Z" fill="#E32B31"/>
</svg>
