<svg width="923" height="470" viewBox="0 0 923 470" fill="none" xmlns="http://www.w3.org/2000/svg"><g clip-path="url(#clip0_584_2695)"><path fill-rule="evenodd" clip-rule="evenodd" d="M746.894-481.106c-5.013 22.816-23.306 47.448-57.058 76.83-12.17 10.595-24.75 21.064-25.411 21.148-.35.045-2.497 1.615-4.771 3.49-14.775 12.181-41.649 30.976-110.356 77.178-38.908 26.165-72.597 48.965-74.864 50.669-28.397 21.33-39.206 31.309-42.939 39.642-5.857 13.074 6.925 18.135 41.608 16.474 17.114-.82 27.96-.928 63.725-.634 71.645.588 109.31 11.483 111.969 32.386 2.005 15.759-17.509 40.967-56.292 72.722-6.285 5.146-13.644 11.233-16.354 13.528-2.71 2.294-12.924 10.452-22.7 18.127-9.776 7.675-18.518 14.558-19.429 15.295-.909.736-3.689 2.85-6.178 4.697-2.489 1.848-5.265 3.979-6.17 4.736-.904.758-3.914 3.063-6.689 5.121a897.796 897.796 0 00-11.214 8.509 601.47 601.47 0 01-11.856 8.888C480.179-3.786 474.344.736 473.211 2.2c-.643.83-1.597 1.563-2.122 1.63-.525.066-15.883 11.362-34.13 25.103-18.247 13.74-35.039 26.316-37.316 27.948-2.277 1.63-4.831 3.53-5.675 4.22-.843.69-14.059 10.656-29.368 22.144-48.849 36.66-114.773 87.189-133.766 102.528a3019.061 3019.061 0 01-15.885 12.73c-19.406 15.419-25.474 20.379-52.68 43.066-29.429 24.541-76.903 67.51-90.207 81.65a377.104 377.104 0 01-6.958 7.135c-5.974 5.953-15.084 16.018-23.664 26.152-20.718 24.464-32.684 43.452-38.287 60.749-3.54 10.926-2.795 23.958 1.748 30.621 8.916 13.076 25.961 20.52 49.2 21.489 42.133 1.755 97.844-4.581 214.786-24.425 13.68-2.321 37.087-6.076 52.016-8.345 14.929-2.267 29.651-4.936 32.716-5.929 7.018-2.276 9.59-5.55 7.546-9.604-1.336-2.649-1.118-3.17 2.656-6.35 2.261-1.906 11.073-11.154 19.583-20.553a7650.752 7650.752 0 0130.143-33.065c8.07-8.788 15.151-16.547 15.734-17.242.585-.695 3.964-4.423 7.51-8.286 3.546-3.861 6.662-7.327 6.925-7.7.263-.375 6.944-7.781 14.846-16.46a26772.05 26772.05 0 0016.025-17.61c1.457-1.611 2.098-1.584 5.318.216 6.806 3.806 15.057-.281 19.651-9.731 1.856-3.818 1.992-5.125.771-7.413-3.362-6.303-8.521-5.337-16.349 3.06-5.464 5.861-6.042 6.218-6.33 3.909-.559-4.467.87-11.061 3.137-14.493 2.174-3.288 2.292-3.324 9.233-2.927 3.867.222 7.657.066 8.423-.345.766-.41 2.695-3.551 4.288-6.978 5.311-11.428 10.244-20.618 17.243-32.121l6.937-11.401 2.96 2.804c4.024 3.811 3.992 5.186-.148 6.581-6.993 2.357-7.288 2.63-6.819 6.315.584 4.593-1.365 17.203-3.633 23.508-2.178 6.055-2.24 5.627 1.16 8.096 3.274 2.379 7.752 3.733 19.673 5.95 14.41 2.681 46.747 4.732 56.07 3.556 2.293-.289 4.221-.112 4.285.394.065.506-.748 4.181-1.808 8.167-2.168 8.167-3.083 13.953-5.58 35.299-2.589 22.141-4.311 25.896-19.38 42.266-14.865 16.148-20.951 25.402-24.794 37.696-2.128 6.808-2.128 6.808-4.555 4.788-4.018-3.343-9.289-4.689-15.38-3.924-9.211 1.156-14.224.814-14.453-.987-.723-5.68 9.095-23.242 25.271-45.203 12.352-16.771 21.033-34.88 21.963-45.814.596-7.013-1.419-15.224-3.883-15.827-2.475-.605-4.269 2.699-7.896 14.547-7.106 23.206-13.808 41.386-16.385 44.446-1.498 1.78-7.747 7.279-13.887 12.221-17.838 14.361-25.612 24.198-32.583 41.236-1.541 3.765-3.048 6.879-3.347 6.917-.3.038-3.408-.823-6.907-1.914-3.499-1.092-7.666-2.141-9.259-2.332-3.783-.452-4.398-4.872-1.943-13.957 2.426-8.985 5.179-13.117 12.314-18.485 7.185-5.406 10.378-9.857 14.106-19.663 3.96-10.416 6.286-12.456 14.298-12.544 6.072-.067 6.504-.244 7.97-3.25 1.491-3.057 1.443-3.291-1.25-6.104-1.54-1.609-2.826-3.139-2.859-3.4-.034-.261 1.576-5.524 3.575-11.696 2-6.172 4.047-13.475 4.549-16.229a2189.19 2189.19 0 001.826-10.202c.502-2.858.5-8.446-.006-12.417-.798-6.275-1.186-7.187-2.966-6.96-2.434.309-3.273 3.726-4.864 19.809-2.672 27.019-5.391 32.908-23.567 51.044-10.378 10.355-15.101 16.312-19.349 24.405-4.237 8.07-9.129 21.891-10.88 30.734-.63 3.184-1.961 7.581-2.959 9.772-1.402 3.08-1.474 4.24-.318 5.12 1.147.876 1.782.622 2.741-1.095 1.325-2.371 4.816-2.81 5.815-.733.365.76-1.698 2.03-5.321 3.276-8.77 3.015-8.798 7.027-.076 10.723 6.673 2.827 25.637 6.642 28.765 5.786 4.413-1.208 3.206-4.962-3.02-9.388-3.091-2.197-5.406-4.021-5.145-4.054.26-.033 4.593.686 9.628 1.599 25.918 4.699 63.658 6.862 86.667 4.969 12.467-1.026 14.595-1.486 19.782-4.284 9.453-5.099 39.675-10.158 128.268-21.475 75.971-9.706 89.168-10.98 131.082-12.665 15.468-.623 56.31-.111 67.301.841 20.642 1.79 25.756 2.461 40.197 5.278 42.945 8.378 68.845 25.09 77.615 50.078 2.64 7.544 4.51 9.578 3.82 4.17-.64-5.034-3.64-11.712-8.8-19.582-7.93-12.095-30.38-26.692-47.908-31.15-2.567-.652-5.629-1.578-6.804-2.056-7.394-3.008-43.284-8.785-58.245-9.375-3.55-.14-10.805-.499-16.123-.798-18.324-1.032-58.138-.11-92.331 2.138-38.793 2.551-141.822 15.939-195.165 25.361l-17.868 3.157-2.158-3.749c-3.447-5.986-6.239-6.41-13.4-2.037-5.456 3.332-7.448 3.879-20.347 5.591-7.863 1.045-15.175 2.38-16.248 2.967-5.621 3.081 8.749 4.235 32.679 2.626 13.324-.896 13.504-.875 7.178.853-12.747 3.481-56.876 2.769-85.499-1.378-5.379-.78-11.177-1.556-12.885-1.726-3.316-.33-3.384-.789-1.207-8.083 4.796-16.061 17.564-32.099 37.729-47.391 9.708-7.364 12.258-11.524 18.718-30.545 6.868-20.228 9.051-27.041 10.129-31.63 1.705-7.246 5.176-1.444 4.353 7.277-.696 7.393-4.486 18.242-9.29 26.597-4.5 7.826-6.433 10.714-17.187 25.665-16.222 22.557-26.082 45.086-19.359 44.231 2.516-.321 2.226 1.49-.629 3.927-2.744 2.34-2.966 5.694-.485 7.271 3.279 2.082 14.513 4.181 21.188 3.958 9.447-.317 12.697-1.675 12.259-5.123-.361-2.836-4.687-5.874-12.401-8.711-2.909-1.069-3.614-1.711-2.362-2.151 3.045-1.07 10.621 2.13 13.872 5.859 4.174 4.787 4.95 4.729 5.114-.38.391-12.194 6.909-22.899 31.607-51.905 9.011-10.584 12.068-17.308 13.123-28.871.568-6.232.858-6.753 5.231-9.391 2.546-1.536 6.345-4.546 8.442-6.689 2.788-2.849 4.993-4.045 8.21-4.455 13.005-1.654 17.979-8.558 20.41-28.326a2275.81 2275.81 0 012.521-19.562c1.947-14.543 2.489-28.892 1.703-44.989-.829-16.947-3.311-37.076-4.647-37.684-.559-.255-.601 3.403-.091 8.128 1.207 11.205 2.772 47.1 2.434 55.813-.402 10.338-5.916 47.977-7.792 53.192-.911 2.532-2.265 5.255-3.01 6.052-1.453 1.555-10.594 5.173-11.431 4.525-.278-.215.977-1.997 2.788-3.96 5.658-6.133 6.777-8.273 6.297-12.046-.385-3.03-.986-3.719-3.507-4.022l-3.043-.364-2.11-22.012-2.111-22.013 2.716-6.312c3.652-8.487 9.27-24.495 9.091-25.905-.488-3.834-9.956 3.376-10.85 8.263-.235 1.292-.702 2.137-1.036 1.878-.334-.258.485-4.168 1.821-8.69 1.336-4.52 2.359-8.761 2.275-9.423-.21-1.652-2.047-1.281-2.537.513-6.723 24.629-8.834 35.65-9.239 48.222-.129 4.006-1.501 11.146-3.049 15.866l-2.815 8.58-5.981.192c-10.352.332-23.762.156-32.033-.419-19.667-1.369-40.139-5.817-41.906-9.106-.454-.844.009-3.849 1.03-6.678 2.229-6.179 3.574-15.309 2.973-20.178-.403-3.266-.045-3.713 4.537-5.66 6.694-2.844 7.751-5.298 3.982-9.238l-2.901-3.032 2.491-2.126c1.37-1.169 2.633-3.702 2.806-5.63.175-1.949 2.071-5.592 4.27-8.209 4.042-4.809 3.969-7.27-.201-6.739-1.429.181-2.135-.283-1.899-1.25 4.207-17.19 4.597-38.129.834-44.71-4.293-7.509-11.178-5.674-18.025 4.801-13.521 20.69-38.675 81.606-42.772 103.582-.751 4.03-.58 4.626 1.936 6.702 2.601 2.145 2.647 2.332.807 3.203-3.311 1.566-6.181 9.333-6.516 17.64-.245 6.046-.892 8.476-2.769 10.415-1.348 1.391-3.792 4.051-5.431 5.912-1.64 1.859-5.657 6.234-8.927 9.721-3.27 3.488-6.66 7.221-7.534 8.296-.874 1.076-2.654 3.062-3.956 4.414-3.497 3.633-14.191 15.339-14.743 16.138-.262.38-8.28 9.258-17.817 19.729-18.698 20.528-37.611 41.354-41.626 45.834-1.373 1.532-5.271 5.322-8.664 8.422-5.232 4.783-6.538 5.496-8.617 4.703-4.339-1.656-7.083-.67-6.692 2.404.364 2.861 3.135 3.834 7.684 2.698 1.505-.375 2.388.181 2.828 1.781 1.087 3.948-4.253 5.528-36.245 10.729a9682.422 9682.422 0 00-57.508 9.557c-15.199 2.586-54.602 8.433-87.562 12.994-77.177 10.678-108.345 12.87-133.53 9.391-22.944-3.168-38.09-14.272-40.079-29.381-1.285-9.769 3.395-25.956 11.48-39.701 3.539-6.018 30.893-42.007 36.606-48.162 33.06-35.618 73.834-73.118 128.905-118.551 4.216-3.478 9.39-7.753 11.496-9.499 9.204-7.628 12.174-10.031 23.806-19.263 6.77-5.372 13.917-11.111 15.882-12.754 1.965-1.642 13.748-10.883 26.184-20.535 34.096-26.463 39.228-30.415 44.524-34.286 4.979-3.64 27.303-20.675 30.07-22.945 2.174-1.785 56.677-42.697 73.707-55.33 5.108-3.787 10.905-8.155 12.882-9.704 1.976-1.548 4.299-3.262 5.162-3.806 4.225-2.668 107.559-80.882 125.674-95.124 28.187-22.161 60.508-49.243 61.061-51.162.144-.498.746-.968 1.34-1.043.592-.076 4.337-3.258 8.322-7.073 20.234-19.367 30.237-35.04 30.613-47.963.579-19.945-20.011-31.02-66.449-35.743-9.125-.929-21.691-1.841-27.926-2.029l-21.54-.647c-5.611-.169-15.021-.235-20.911-.149l-36.069.538c-13.949.207-27.931.151-31.072-.127-6.88-.608-13.023-3.145-14.304-5.908-1.26-2.721.838-8.081 4.929-12.595 6.788-7.487 8.303-8.943 15.313-14.719 10.157-8.367 11.625-9.514 17.446-13.629 2.858-2.021 7.051-5.077 9.317-6.793 2.266-1.716 32.917-22.432 68.113-46.035 52.717-35.356 83.791-56.706 94.506-64.935.849-.652 6.648-5.001 12.887-9.664 11.725-8.763 15.499-11.814 32.767-26.495 33.07-28.115 56.287-57.562 59.74-75.771.898-4.735-.155-10.183-1.12-5.793zM578.262 71.921c-13.053 6.428-20.864 22.344-17.671 36.012 2.214 9.48 13.149 25.072 17.219 24.554 1.993-.253 1.536-1.739-1.893-6.16-4.072-5.247-5.441-15.175-2.749-19.93 2.553-4.514 4.137-5.038 5.801-1.919 2.714 5.088 10.328 6.805 15.111 3.407 2.015-1.433 3.151-.937 8.278 3.602l2.97 2.629-2.403 5.765c-3.953 9.488-7.289 14.339-11.739 17.067-6.041 3.704-9.595 2.364-20.447-7.709-10.115-9.389-13.569-11.438-18.093-10.731-8.442 1.319-19.274 14.315-16.396 19.672.464.863 5.512 3.157 11.215 5.097 12.752 4.335 25.739 13.634 28.754 20.587 4.76 10.98 4.614 40.252-.283 56.912-.82 2.788-3.417 20.06-4.023 26.758-.202 2.234.155 3.085 1.237 2.947 2.516-.32 11.051-27.791 17.709-57.002 4.774-20.943 10.595-35.373 18.134-44.955 5.155-6.553 7.894-7.415 12.606-3.969 3.636 2.66 3.795 3.054 4.217 10.374.306 5.315.797 7.437 1.63 7.04.655-.313 1.264-2.315 1.351-4.449.188-4.568 1.068-3.365 4.006 5.486 1.135 3.414 2.575 6.442 3.2 6.727 2.154.979-1.806-12.136-6.198-20.533-5.074-9.697-4.914-9.156-2.79-9.426 2.252-.287 1.968-1.417-2.007-8.002-1.887-3.126-5.015-6.499-7.033-7.58-2.203-1.18-4.507-3.779-5.85-6.598-2.114-4.435-2.116-4.837-.042-8.767 1.977-3.745 2.017-4.848.439-12.192-2.212-10.293-6.645-18.73-11.479-21.848-7.257-4.68-16.687-5.866-22.781-2.866zm12.756 1.488c7.843 1.591 12.246 5.093 15.544 12.355l1.138 2.51-5.774-2.465c-4.564-1.948-7.139-2.291-12.291-1.636-5.755.732-6.784 1.232-8.79 4.267-1.249 1.89-2.113 4.686-1.919 6.211.257 2.026-.435 3.164-2.57 4.227-4.156 2.07-7.949 10.734-7.217 16.487.769 6.047-.682 6.04-3.156-.015-4.589-11.228-3.977-22.24 1.702-30.622 6.235-9.203 14.355-13.143 23.333-11.32zm9.617 14.347c1.618.514 4.198 2.305 5.734 3.98 2.376 2.592 2.729 3.758 2.376 7.823-.693 7.969-.783 8.047-5.036 4.29-3.653-3.226-4.454-3.44-10.168-2.713-4.84.616-6.837.33-9.084-1.298-3.599-2.612-4.092-5.99-1.415-9.711 1.823-2.533 2.818-2.901 8.359-3.09 3.46-.119 7.615.205 9.234.72zm-7.406 15.673c4.891-.619 6.157-.332 8.43 1.907 4.077 4.013 3.444 5.597-.692 1.731-3.54-3.309-3.728-3.346-8.22-1.576-5.269 2.073-9.252 1.537-11.44-1.541-2.26-3.179-1.916-3.411 2.277-1.535 2.553 1.143 5.872 1.492 9.645 1.014zm-32.135 20.896c2.522 2.09 7.39 6.337 10.817 9.437 8.002 7.238 12.705 8.899 18.501 6.535 2.345-.957 4.285-1.568 4.312-1.358.026.21-1.46 3.757-3.303 7.883-2.78 6.221-7.596 21.845-7.344 23.826.038.299.706.462 1.484.363.778-.099 2.148-2.085 3.044-4.414 2.934-7.616 15.558-22.763 19.395-23.271.466-.061-1.727 4.133-4.873 9.32-7.772 12.816-10.895 22.144-17.617 52.629-2.881 13.059-7.845 29.336-8.738 28.645-.347-.269.044-3.809.87-7.867 5.083-25.005 5.429-28.889 4.02-45.127-1.276-14.69-1.589-16.138-4.439-20.512-5.068-7.777-15.874-15.193-28.253-19.391-6.004-2.036-10.974-4.15-11.044-4.699-.24-1.883 7.035-11.288 10.182-13.166 5.316-3.172 8.048-2.926 12.986 1.167zm49.478-4.686c.69 2.11.066 3.036-3.713 5.518l-4.542 2.982 1.513-3.81c3.279-8.261 5.152-9.563 6.742-4.69zm5.637 11.384c1.715 2.904 2.877 5.804 2.587 6.444-.291.639-2.624 1.44-5.184 1.779-6.223.825-13.176 5.259-18.218 11.618-2.274 2.87-4.184 4.838-4.243 4.376-.361-2.84 7.501-18.256 11.865-23.265 6.448-7.401 9.269-7.604 13.193-.952zm5.703.444c3.05 4.107 3.329 6.834.473 4.623-1.814-1.404-5.407-8.585-4.363-8.718.427-.055 2.177 1.789 3.89 4.095zm-85.015 17.232c2 3.428 2.306 5.369 2.35 14.923.091 19.88-2.484 27.775-13.636 41.792l-8.213 10.326-5.867-2.266c-4.258-1.644-6.16-1.888-6.932-.891-1.612 2.08.568 5.626 4.503 7.321 1.931.832 3.542 1.781 3.578 2.108.037.327-1.797 1.998-4.074 3.712-4.179 3.146-9.572 12.742-9.16 16.299.121 1.04-.005 4.533-.28 7.761-.433 5.09-.969 6.14-4.039 7.907-6.158 3.543-13.582 3.575-14.029.059-.303-2.383 2.679-13.726 6.729-25.593 10.334-30.277 35.079-82.867 40.397-85.853 3.877-2.178 6.413-1.476 8.673 2.395zm87.777 17.954c-.193 1.605.03 3.213.494 3.573 1.089.842 2.566-2.301 2.267-4.824-.351-2.966-2.365-2.054-2.761 1.251zm-1.55 9.108c.121.952.72 1.668 1.331 1.591.612-.078 1.052-.612.979-1.187-.074-.575-.673-1.291-1.332-1.591-.659-.299-1.099.235-.978 1.187zm-1.57 5.413c.082.646.61.804 1.173.348.564-.455.996-1.047.962-1.317-.034-.27-.562-.427-1.174-.349-.611.078-1.044.671-.961 1.318zm-83.992 17.453c-1.437 1.457-2.943 4.645-3.349 7.083-.454 2.74-1.684 5.019-3.22 5.969-1.365.845-2.511 1.321-2.544 1.057-.224-1.759 8.599-16.362 9.993-16.54 1.186-.151.91.613-.88 2.431zm81.067-9.161c-.241 1.32-.075 2.68.37 3.025.94.727 2.535-2.254 2.302-4.296-.259-2.255-2.196-1.334-2.672 1.271zm-91.353 19.721c-.367.824-3.658 6.449-7.315 12.502-3.656 6.053-8.844 15.094-11.528 20.092-6.562 12.22-6.644 12.31-6.432 7.027.511-12.753 3.197-18.445 10.756-22.795 4.555-2.621 4.252-4.606-1.184-7.752-5.162-2.99-4.96-4.647.229-1.866 3.558 1.908 9.469 2.063 9.238.244-.066-.52 1.184-2.711 2.779-4.869 2.959-4.005 4.651-5.269 3.457-2.583zm92.928 7.161c-3.705 9.75-5.785 11.159-3.502 2.372 1.502-5.783 4.473-11.601 6.025-11.798.612-.078-.523 4.164-2.523 9.426zm-7.603 14.157c-.118 5.258-1.298 10.11-2.276 9.353-.269-.209-.272-2.157-.004-4.329.268-2.172.62-5.363.783-7.092.494-5.24 1.625-3.678 1.497 2.068zM499.303 260.44c-.763 2.459-1.656 3.022-5.466 3.449l-4.553.509 5.224-3.323c2.873-1.829 5.333-3.38 5.466-3.449.133-.069-.168 1.198-.671 2.814zm117.006 16.842c-.148 2.761-1.114 4.098-4.427 6.13-6.234 3.821-10.777 15.88-6.685 17.741 2.326 1.058 1.559 3.717-1.725 5.981-1.828 1.26-3.942 3.09-4.699 4.067-.756.977-1.618 1.589-1.914 1.359-2.057-1.592 4.844-36.972 8.412-43.129 1.204-2.079 3.117-8.421 4.25-14.093 1.133-5.671 2.144-10.575 2.245-10.899.431-1.364 4.716 29.622 4.543 32.843zm-119.284-.763c2.43 2.269 1.327 6.478-3.025 11.544-4.062 4.729-7.677 6.074-11.943 4.446-3.774-1.441-3.021-3.691 3.521-10.517 6.524-6.807 8.835-7.913 11.447-5.473zm20.646 11.499c-.592 6.572-4.022 21.232-4.823 20.612-.255-.198.195-5.229 1.002-11.182.806-5.954 1.729-13.651 2.051-17.107.555-5.958.632-6.084 1.461-2.443.482 2.111.621 6.665.309 10.12zm105.626-2.872c.362 1.104-.54 3.602-2.026 5.608-3.207 4.328-4.694 4.808-3.746 1.211.381-1.445.817-4.074.968-5.842.311-3.648 3.702-4.337 4.804-.977zm-7.165 2.481c-.188 3.174-1.783 7.398-4.241 11.227-1.946 3.031-6.108 1.405-5.461-2.133.72-3.935 4.072-10.235 5.841-10.976 3.516-1.473 4.044-1.216 3.861 1.882zM508.19 324.714c-.162 2.717.408 4.616 1.868 6.222 3.844 4.228 3.099 5.145-4.72 5.805-6.657.563-7.417.887-10.275 4.387-1.699 2.079-4.036 6.415-5.195 9.636-3.396 9.443-5.616 12.576-12.99 18.336-3.832 2.993-8.016 7.159-9.298 9.258-3.167 5.182-2.194.986 1.72-7.425 5.271-11.323 7.442-14.119 27.716-35.698 4.637-4.936 8.912-10.179 9.5-11.65 1.488-3.73 1.941-3.424 1.674 1.129zm-46.818 76.379c-.14 1.97-.696 3.381-1.235 3.136-.539-.247-.645-2.028-.236-3.961.936-4.411 1.808-3.92 1.471.825zm14.139 8.035c2.887.723 6.093 1.956 7.125 2.74 1.031.784 1.351 1.3.71 1.146l-8.446-2.035c-4.004-.964-7.343-2.24-7.419-2.834-.075-.594.52-.912 1.322-.706.803.208 3.821.967 6.708 1.689zm51.928-6.51c11.516 2.333 19.53 9.233 11.858 10.209-4.916.625-18.997-.723-23.057-2.207-4.327-1.582-4.217-3.049.476-6.39 4.299-3.06 3.882-2.997 10.723-1.612zm-49.582 15.428c11.995 7.548 11.459 8.626-3.115 6.27-9.595-1.55-19.401-5.079-19.655-7.071-.247-1.946 1.54-2.74 8.362-3.71 5.593-.797 6.35-.56 14.408 4.511zm118.564-8.339c.146 1.15-2.81 1.829-13.441 3.094-17.384 2.068-23.197 1.388-9.384-1.098 7.473-1.346 10.899-2.504 13.534-4.579l3.527-2.776 2.788 1.943c1.533 1.069 2.873 2.606 2.976 3.416z" fill="#fff"/></g><defs><clipPath id="clip0_584_2695"><path fill="#fff" d="M0 0h923v470H0z"/></clipPath></defs></svg>