<svg width="29" height="34" viewBox="0 0 29 34" fill="none" xmlns="http://www.w3.org/2000/svg"><g clip-path="url(#clip0_546_2831)"><path d="M13.285 7.547c.395-3.472 3.349-6.18 6.976-6.18 0 3.84 3.16 6.955 7.056 6.955 0 2.325-1.17 4.373-2.948 5.635m-3.476-1.33c-.807 0-1.567.163-2.233.491-.498-3.238-3.349-5.726-6.77-5.726-3.73 0-6.77 2.956-6.867 6.618a4.515 4.515 0 00-3.967 4.483C1.054 20.982 3.096 23 5.616 23H20.89c2.898 0 5.25-2.323 5.25-5.187 0-2.863-2.352-5.186-5.248-5.186z" stroke="#fff" stroke-width="2" stroke-linecap="round" stroke-linejoin="round"/><path fill-rule="evenodd" clip-rule="evenodd" d="M22.377 26.861a1 1 0 00-.534 0 1.008 1.008 0 10.534 0zm-10.133.009a1 1 0 00-.534 0 1.002 1.002 0 00-.741.972 1.008 1.008 0 101.275-.973zm-10.133-.009a1 1 0 00-.534 0 1.008 1.008 0 10.534 0zm5.067 5.017a1.005 1.005 0 00-.976.254 1.008 1.008 0 10.976-.254zm10.124-.008a1 1 0 00-.534 0 1.008 1.008 0 10.534 0z" fill="#fff"/></g><defs><clipPath id="clip0_546_2831"><path fill="#fff" d="M0 0h29v34H0z"/></clipPath></defs></svg>