<svg width="84" height="51" viewBox="0 0 84 51" fill="none" xmlns="http://www.w3.org/2000/svg"><path fill-rule="evenodd" clip-rule="evenodd" d="M19.811.576c.574.911 2.343 3.72 3.092 7.084.85 3.775.826 6.085.461 8.73-.668 4.743-2.768 8.394-3.69 9.611-.632-.82-1.591-2.52-2.235-4.085 0 0-1.214-3.005-1.53-5.936-.315-2.918-.181-5.886.753-9.238.862-2.993 2.538-5.7 3-6.408.03.053.081.134.15.242zM18.544 20.4c.061 2.347.704 3.861 1.117 4.656.437-.807 1.166-2.583 1.093-4.855-.085-2.31-.85-4.01-1.08-4.408-.256.397-1.142 2.347-1.13 4.607zm3.703-2.471c.219-.92.377-2.434.413-3.875.037-1.428-.11-3.874-.79-6.407-.691-2.546-2.027-4.98-2.22-5.29-.195.31-1.251 2.273-2.186 5.352-.243.919-.692 2.93-.765 4.88-.085 2.36.23 4.719.352 5.377 0-.782.012-3.39.486-5.55.473-2.149 1.384-4.645 2.112-5.911.79 1.328 1.785 4.21 2.137 5.923.352 1.738.534 3.936.461 5.5zm20.651 18.092v2.645c0 .36.267.46.425.46.255 0 .437-.224.437-.46V35.39c0-.435-.072-.919-1.104-.919h-1.117v-1.54h1.165c.777 0 1.056-.186 1.056-1.043v-2.794c0-.236-.182-.46-.437-.46-.157 0-.425.088-.425.46v2.298h-2.744v-2c0-.98.11-2.508 2.04-2.508h2.27c1.931 0 2.052 1.527 2.052 2.508v2.248c0 1.527-1.044 1.95-1.87 1.912v.137c1.846-.05 1.87 1.403 1.87 1.9v2.83c0 .994-.121 2.51-2.051 2.51h-2.27c-1.931 0-2.04-1.516-2.04-2.51V36.01h2.743v.012zm-11.181-9.139h-5.233V40.94h2.744V28.634h2.489v-1.751zm3.571 1.75l-.473 7.03h1.104l-.473-7.03h-.158zm-.813 12.307h-2.696l1.433-14.057h4.322l1.433 14.057h-2.683l-.255-3.738h-1.3l-.254 3.738zm20.201-14.057h-6.362V40.94h2.756V28.634h.862V40.94h2.744V26.883zm4.553 7.736v-5.985h.364c.292 0 .51.248.51.708v4.57c0 .446-.218.707-.51.707h-.364zm-2.744 6.32h2.744v-4.78h1.578c1.919 0 2.04-1.515 2.04-2.508v-4.26c0-.98-.121-2.508-2.04-2.508h-4.322V40.94zm11.35-1.812c.255 0 .437-.224.437-.46v-9.574c0-.236-.182-.46-.437-.46-.158 0-.425.088-.425.46v9.574c0 .36.267.46.425.46zm-1.141 1.813c-1.918 0-2.04-1.515-2.04-2.509v-9.04c0-.98.122-2.508 2.04-2.508h2.282c1.919 0 2.04 1.527 2.04 2.508v9.04c0 .994-.121 2.509-2.04 2.509h-2.282zm13.27-14.057h3.582V40.94h-2.744v-8.817h-.097l-1.433 8.817h-2.198l-1.408-8.817h-.097v8.817h-2.744V26.883h3.57l1.797 9.884 1.772-9.884zm-58.87.001h-6.399v4.396l.012-.013a3.808 3.808 0 015.464 0c1.505 1.528 1.505 4.036 0 5.576l-.024.025c-.008 0-.01.005-.015.011a7.657 7.657 0 01-5.45 2.298 7.539 7.539 0 01-5.45-2.31c-2.66-2.706-2.975-6.916-.947-9.983a7.74 7.74 0 01.947-1.18 7.609 7.609 0 015.451-2.31V12.84C7.107 12.852.963 19.123.963 26.884s6.144 14.044 13.732 14.044c3.958 0 7.515-1.713 10.029-4.445v-9.599h-3.63zM.966 43.297h82.583v7.637H.966v-7.637zm4.48 2.735v-.807H3.382v4.01h.959v-3.203h1.105zm.644.234c0-.335.097-.596.303-.795.219-.223.547-.335.984-.335.425 0 .74.111.97.335.195.199.304.472.304.807v1.8c0 .41-.097.72-.303.932-.207.211-.522.31-.96.31-.424 0-.752-.111-.958-.322-.207-.212-.316-.522-.316-.932v-1.8H6.09zm1.262-.41a.316.316 0 00-.23.087.35.35 0 00-.097.248v2.037a.36.36 0 00.097.26.31.31 0 00.23.087c.085 0 .17-.024.231-.087a.37.37 0 00.097-.273V46.18a.33.33 0 00-.097-.248.345.345 0 00-.23-.075zm2.113-.631v3.998h.947V47.66h.425c.328 0 .583-.075.777-.236.243-.199.364-.534.364-.981 0-.46-.121-.795-.364-.994-.182-.149-.437-.223-.777-.223H9.465zm1.117 1.726h-.17v-1.018h.158a.49.49 0 01.34.111c.085.075.121.2.121.385 0 .187-.049.323-.133.41a.448.448 0 01-.316.112zm3.107.583v1.701h-.947v-4.01h.947v1.502h.62v-1.502h.946v4.01h-.947v-1.7h-.619zm2.698-2.063c-.207.199-.304.46-.304.795h.024v1.8c0 .41.11.72.316.932.206.21.534.322.96.322.436 0 .752-.099.958-.31.207-.211.304-.521.304-.931v-1.8c0-.336-.11-.61-.304-.808-.23-.223-.546-.335-.971-.335-.437 0-.765.111-.983.335zm.74.472a.316.316 0 01.23-.087c.086 0 .159.025.232.075a.33.33 0 01.097.248v2.036a.37.37 0 01-.097.273.316.316 0 01-.231.087.316.316 0 01-.23-.087.36.36 0 01-.098-.26V46.19c0-.1.037-.186.097-.248zm2.17 2.248v-.62h2.356v.62h-2.355zm3.68-2.159v3.204h.874v-3.204h.692v-.807h-2.307v.807h.741zm4.88-.807l-.003.012h-.98l-.376 1.838-.085.745-.06-.832L26 45.237h-.983l.886 3.154c-.012.062-.048.1-.085.112a.429.429 0 01-.134.025h-.12c-.037 0-.074-.013-.11-.025v.683a.49.49 0 00.194.087c.085.012.182.024.28.024.327 0 .57-.074.716-.198.145-.137.267-.397.376-.782l.834-3.08h.004v-.012zm.656 0v3.998h.947v-1.565h.425c.328 0 .583-.074.777-.236.243-.198.364-.533.364-.98 0-.46-.121-.795-.364-.994-.182-.149-.437-.223-.777-.223h-1.372zm1.117 1.726h-.17v-1.019h.158a.49.49 0 01.34.112c.085.075.121.199.121.385s-.048.323-.133.41a.448.448 0 01-.316.112zm3.727 2.285v-.932c.049-.496.11-1.005.17-1.513v-.001l-.813 2.446h-.923v-4.011h.91v1.006c0 .111-.036.434-.096.956l-.016.148c-.018.168-.033.304-.033.41l.801-2.52h.899v4.01h-.899zm4.226-1.592h-.935v.547c0 .149-.037.26-.097.322a.344.344 0 01-.255.1c-.11 0-.194-.037-.243-.1-.06-.062-.085-.173-.085-.322v-2.012c0-.1.036-.174.097-.224a.334.334 0 01.219-.074c.085 0 .157.037.23.087.073.05.11.124.11.223v.447h.947v-.36c0-.335-.097-.608-.304-.807-.23-.223-.546-.335-.971-.335-.437 0-.765.1-.984.323-.206.198-.303.472-.303.807v1.738c0 .46.11.783.316.994.206.21.534.31.97.31.438 0 .766-.1.972-.31.206-.199.316-.534.316-.981v-.373zm1.384 1.591v-3.203h-.74v-.807h2.307v.807h-.692v3.203h-.875zm3.824-.93v.93h.898v-4.01h-.898l-.801 2.52c0-.106.014-.242.032-.41v-.005l.001-.001v-.002l.015-.14c.06-.522.097-.845.097-.956v-1.006h-.91v4.01h.922l.814-2.446c-.029.242-.055.483-.08.723-.03.266-.058.531-.09.792zm1.712-3.08h.935v1.353c0 .186.085.273.267.273a.777.777 0 00.352-.074v-1.552h.947v4.01h-.947v-1.688c-.133.05-.242.074-.352.087a3.52 3.52 0 01-.413.024.758.758 0 01-.51-.198c-.194-.162-.279-.385-.279-.658v-1.577zm3.472 0v3.998h2.198v-.757h-1.25v-.957h1.153v-.757h-1.154v-.77h1.25v-.757h-2.197zm4.48 2.42h.936v.372c0 .447-.11.782-.316.98-.207.2-.534.311-.972.311-.437 0-.764-.1-.97-.31-.207-.212-.316-.534-.316-.994v-1.738c0-.335.097-.609.303-.807.219-.224.546-.323.983-.323.425 0 .741.111.972.335.206.199.303.472.303.807v.36h-.947v-.447c0-.1-.036-.174-.109-.223a.41.41 0 00-.23-.087.334.334 0 00-.22.074.276.276 0 00-.096.224v2.011c0 .15.024.261.085.323.048.062.133.1.242.1.11 0 .195-.038.255-.1.061-.062.098-.173.098-.322v-.547zm1.763-2.42v3.998h.898v-.931l.255-.46.437 1.391h.996l-.874-2.235.874-1.763h-1.032l-.656 1.589v-1.59h-.898zm4.83 4.01v-.93c.032-.262.06-.527.089-.793.026-.24.052-.481.08-.723l-.813 2.447h-.923v-4.011h.911v1.006c0 .111-.036.434-.097.956l-.015.14v.008a4.232 4.232 0 00-.034.41l.802-2.52h.898v4.01h-.898zm3.351-.933v.932h.898v-4.011H62.4l-.801 2.52c0-.16.012-.347.036-.558l.024-.213c.046-.415.073-.658.073-.743v-1.006h-.898v4.01h.922l.814-2.446c-.029.241-.055.482-.08.721v.001c-.03.267-.058.532-.09.793zm-.328-3.328c-.255 0-.461-.05-.595-.161-.157-.124-.242-.31-.23-.559h.364c0 .112.06.186.17.236.085.037.182.05.316.05.133 0 .23-.013.29-.05.074-.037.134-.124.17-.236h.353c0 .236-.085.422-.255.547a.986.986 0 01-.583.173zm4.845 3.451h.607v-3.203h.947v3.203h.206v1.627h-.922v-.832h-1.785v-4.01h.947v3.215zm2.476-3.2v3.998h2.197v-.757h-1.25v-.956h1.153v-.758h-1.153v-.77h1.25v-.757h-2.197zm3.91 2.31v1.7h-.947v-4.01h.947v1.502h.62v-1.502h.947v4.01h-.947v-1.7h-.62zm2.271-1.503h.74v3.203h.875v-3.203h.692v-.807h-2.307v.807zm3.01 3.191v-3.998h1.372c.34 0 .595.074.777.223.243.199.364.534.364.994 0 .447-.121.782-.364.98-.194.162-.45.237-.777.237h-.425v1.564h-.947zm.935-2.272h.17a.45.45 0 00.316-.112c.084-.087.133-.223.133-.41 0-.186-.036-.31-.121-.385a.49.49 0 00-.34-.111h-.158v1.018z" fill="#fff"/></svg>