<svg width="817" height="520" viewBox="0 0 817 520" fill="none" xmlns="http://www.w3.org/2000/svg"><g clip-path="url(#clip0_671_1332)"><path fill-rule="evenodd" clip-rule="evenodd" d="M1216.06-327.723c-80.78 59.932-143.64 122.951-237.252 237.848C856.741 59.953 840.374 78.463 803.458 108.433c-13.885 11.271-17.68 14.035-30.772 22.41-4.829 3.089-10.375 6.753-12.325 8.142-5.209 3.71-16.55 10.099-24.699 13.913-27.595 12.914-33.75 15.696-34.995 15.817-.773.075-3.655 1.397-6.405 2.937-5.552 3.109-23.355 9.409-32.744 11.587-3.344.776-8.155 2.371-10.69 3.546-2.536 1.173-8.809 2.842-13.94 3.705-5.131.864-12.88 2.447-17.222 3.517-10.443 2.575-52.371 9.013-62.266 9.561-4.302.238-8.133.023-8.513-.477-.381-.501-4.807-.51-9.836-.021-9.912.964-23.271.463-34.27-1.285a715.033 715.033 0 00-13.876-2.037c-17.348-2.334-32.084-10.262-32.803-17.646-.185-1.905-.927-4.379-1.647-5.495-.72-1.117-3.467-5.575-6.101-9.908-6.329-10.406-17.688-21.558-28.58-28.063-13.127-7.838-17.953-6.607-21.458 5.479-1.985 6.845-5.592 9.898-10.504 8.89-1.993-.409-6.738-1.119-10.544-1.577-3.806-.457-8.075-1.472-9.488-2.254-5.591-3.099-13.396-15.339-9.971-15.636.509-.044 4.635.668 9.169 1.583 13.65 2.756 17.732 1.659 25.601-6.874 2.915-3.164 4.942-4.344 7.112-4.145 1.87.173 4.103-.774 5.821-2.468 2.493-2.458 2.689-3.647 1.865-11.293-.507-4.699-1.822-10.231-2.92-12.292-3.512-6.584-5.389-6.463-19.472 1.258-7.001 3.84-15.416 8.118-18.7 9.51-7.573 3.208-10.011 5.735-9.601 9.952.479 4.931-2.038 6.806-8.672 6.462-5.712-.296-10.212-2.694-9.142-4.871.324-.659 3.205-1.454 6.403-1.765 6.086-.592 11.037-3.669 10.744-6.678-.25-2.573 4.131-5.629 14.697-10.251 5.168-2.261 10.829-5.037 12.58-6.169 6.766-4.374 6.309-11.674-1.095-17.44-6.745-5.254-11.701-6.645-20.603-5.779-11.365 1.105-20.445 5.766-26.911 13.812-4.874 6.064-5.138 6.845-5.036 14.926.06 4.69.363 9.891.673 11.558.514 2.766.03 3.157-5.515 4.458-3.344.784-8.482 2.609-11.419 4.055-3.228 1.589-11.012 3.498-19.676 4.826-13.892 2.129-18.051 3.853-15.948 6.613 1.457 1.913 9.59 4.127 13.698 3.727 5.484-.533 3.177 1.917-3.329 3.535-7.419 1.846-14.609 5.199-17.161 8.001-1.868 2.052-2.206 2.085-4.435.432-1.325-.983-4.714-2.357-7.53-3.052-6.058-1.495-30.019-2.466-46.845-1.899l-11.95.404-1.091-3.597c-.6-1.978-2.876-5.064-5.058-6.857-3.446-2.833-4.874-3.173-10.885-2.588-15.695 1.526-25.16 14.909-15.099 21.347 3.089 1.976 4.863 2.124 12.223 1.018 4.735-.712 9.424-1.781 10.419-2.376 1.343-.806 2.307-.037 3.744 2.984 2.151 4.521 3.167 4.989 23.671 10.923 26.771 7.747 39.519 9.045 48.442 4.929 4.843-2.233 4.85-2.232 10.438 1.829 3.075 2.234 7.763 4.837 10.42 5.785 12.876 4.592 39.115 22.875 45.981 32.04 1.707 2.28 3.475 4.386 3.927 4.684.453.298 3.32 3.933 6.37 8.078 7.424 10.089 15.726 17.077 28.771 24.215 5.96 3.26 10.879 6.37 10.931 6.912.228 2.345 10.597 4.983 17.102 4.35 12.779-1.242 15.673-5.235 15.507-21.389-.219-21.107 5.616-29.211 23.62-32.812 6.689-1.339 9.392-1.189 19.229 1.059 6.295 1.441 12.905 3.241 14.689 4.002 5.958 2.541 11.065 5.351 13.939 7.668 1.566 1.262 6.057 4.499 9.978 7.193 3.922 2.694 8.604 5.925 10.406 7.178 1.947 1.357 3.059 3.069 2.739 4.22-.294 1.067-6.126 5.36-12.958 9.539-7.35 4.497-12.351 8.333-12.248 9.397.471 4.84 9.704 4.319 27.207-1.533 10.954-3.663 19.657-3.308 25.72 1.049 7.517 5.404 27.534 35.019 25.906 38.331-.236.478-3.009 1.519-6.162 2.308-12.816 3.215-25.027 11.126-31.894 20.664-2.815 3.91-4.034 4.757-5.668 3.935-1.145-.574-6.301-6.536-11.458-13.247-13.856-18.035-15.88-19.906-25.093-23.207-6.661-2.388-9.782-4.527-16.394-11.236-4.572-4.638-9.318-8.34-10.779-8.41-1.716-.083-5.976 3.156-12.44 9.457-10.723 10.457-33.961 25.982-45.03 30.086-3.631 1.346-8.957 2.684-11.835 2.971-4.562.457-5.2.87-4.971 3.225.145 1.485 4.809 8.161 10.366 14.833 21.071 25.303 30.913 41.139 33.216 53.443 1.759 9.401.218 11.712-8.369 12.547-5.246.51-6.358.157-8.978-2.854-2.149-2.47-3.998-3.339-6.574-3.088-4.305.418-6.818-2.332-10.511-11.501-4.102-10.19-7.553-13.734-19.495-20.028-11.73-6.182-28.292-18.702-28.573-21.6-.127-1.304 1.72-1.899 7.535-2.426 9.228-.838 17.701-5.658 23.082-13.133 4.667-6.482 4.369-9.134-.838-7.469-8.571 2.742-13.267 3.483-22.282 3.515-10.637.038-11.466-1.314-2.063-3.365 6.737-1.469 10.128-4.188 8.724-6.995-.467-.935-5.263-3.448-10.656-5.584-5.393-2.134-9.847-4.296-9.9-4.804-.052-.508 1.482-1.076 3.41-1.264 3.801-.37 7.264-4.008 6.944-7.296-.11-1.132.06-2.082.377-2.113.318-.031 4.7 2.074 9.738 4.676 23.827 12.311 37.019 13.33 41.223 3.185 2.545-6.143-1.665-19.215-7.445-23.117-1.214-.82-2.258-2.017-2.32-2.659-.447-4.592-18.156-10.934-32.333-11.578-10.277-.466-11.211-.301-21.739 3.856-13.998 5.528-18.882 8.682-23.883 15.426-6.329 8.533-7.475 13.465-6.231 26.817 1.032 11.07 1.384 12.168 6.571 20.483 3.014 4.832 15.002 19.321 26.64 32.198 37.771 41.793 37.532 41.437 32.659 48.602-3.757 5.524-4.903 8.92-4.554 13.503.619 8.166.35 8.36-14.455 10.422-27.496 3.831-48.714 13.733-55.624 25.958-2.52 4.461-1.898 8.139 2.01 11.875 3.086 2.951 3.907 3.097 12.113 2.16 4.842-.553 9.952-1.719 11.357-2.59 1.404-.872 7.745-4.621 14.09-8.332 6.347-3.712 15.758-10.3 20.916-14.644 9.035-7.606 9.548-7.861 14.006-6.986 2.544.5 8.445.562 13.112.138l8.485-.77-12.987 6.81c-12.346 6.474-37.22 17.659-52.157 23.453a4505.31 4505.31 0 00-13.178 5.142c-3.454 1.356-12.24 4.48-19.523 6.942a4157.776 4157.776 0 00-18.055 6.139c-28.918 9.998-105.25 29.831-152.208 39.548-6.369 1.318-16.516 3.423-22.549 4.677-6.033 1.255-21.138 4.154-33.568 6.445a8459.964 8459.964 0 00-35.325 6.584c-7 1.331-16.371 2.781-20.825 3.225-9.766.969-13.553 2.257-13.332 4.53.2 2.055 4.091 1.771 22.776-1.667a5070.89 5070.89 0 0131.229-5.605c40.35-7.105 98.5-19.278 131.613-27.551 13.841-3.458 31.931-8.152 39.115-10.149 3.828-1.063 9.823-2.721 13.319-3.684 49.354-13.571 103.112-33.546 140.711-52.282a2584.992 2584.992 0 0123.737-11.647c6.532-3.155 12.938-6.325 14.236-7.044 4.418-2.449 46.754-21.503 66.714-30.026 10.841-4.629 52.793-21.803 58.596-23.988 71.289-26.839 112.491-44.125 130.48-54.746 22.443-13.251 52.106-41.487 56.568-53.848 1.378-3.818 1.407-5.459.135-7.657-2.473-4.272-7.548-3.019-19.227 4.743-30.4 20.207-53.407 31.572-94.671 46.768-19.187 7.066-30.764 12.363-33.334 15.253-2.167 2.438-2.427 3.791-1.496 7.764.98 4.177.655 5.467-2.464 9.8-3.247 4.51-6.177 6.655-16.528 12.099-1.819.957-6.532 2.054-10.472 2.437-6.105.594-7.904.219-12.173-2.543-8.448-5.466-8.853-5.35-59.89 17.08-30.955 13.605-32.544 14.621-44.485 28.442-10.965 12.691-17.468 17.607-34.17 25.828-6.257 3.081-10.683 4.343-17.939 5.117-10.558 1.126-12.632.168-11.177-5.159.46-1.684.657-4.901.439-7.151-.255-2.62.871-6.386 3.128-10.474 4.861-8.8 5.117-11.905 1.431-17.419-1.68-2.511-13.516-16.14-26.305-30.285-33.335-36.873-36.874-41.824-39.949-55.884-3.268-14.943 5.477-30.703 20.837-37.547 4.261-1.898 8.581-3.515 9.599-3.593 1.018-.076 5.43-.893 9.803-1.814 19.478-4.102 39.053 4.827 45.583 20.793 3.643 8.907-.694 15.59-9.284 14.303-6.122-.918-16.814-5.19-28.953-11.566-6.728-3.534-12.976-6.055-13.886-5.6-1.224.611-1.323 2.098-.38 5.704 1.422 5.44 1.557 5.34-7.962 5.821-4.615.234-6.005.777-6.492 2.534-.782 2.834 4.215 6.242 15.203 10.365 11.195 4.199 11.033 6.47-.527 7.372-13.601 1.061-14.488 1.262-14.296 3.235.464 4.776 15.019 7.851 30.257 6.39 11.775-1.128 12.812.148 4.456 5.483-3.827 2.444-7.293 3.505-13.375 4.096-9.877.961-11.956 2.841-9.089 8.216 2.789 5.23 16.734 16.134 28.991 22.668 6.043 3.223 11.964 6.997 13.155 8.388 1.192 1.393 4.027 6.712 6.301 11.821 4.259 9.573 7.454 12.691 12.497 12.201 1.504-.146 3.13.255 3.614.891.526.692-.949 1.335-3.668 1.599-11.382 1.107-23.155 10.477-22.402 17.828.502 4.887 1.919 6.367 6.987 7.301 10.628 1.957 21.518-5.111 24.932-16.184 1.353-4.392 1.595-4.545 8.433-5.373 9.967-1.204 12.747-4.697 11.767-14.78-.392-4.028-1.898-9.963-3.347-13.189-3.999-8.906-16.155-26.616-27.745-40.42-5.715-6.808-10.471-13.194-10.568-14.193-.117-1.206 1.095-1.939 3.61-2.183 5.664-.551 19.56-7.157 31.408-14.933 12.545-8.233 18.555-13.138 26.238-21.419l5.729-6.176 4.187 3.833c2.301 2.107 6.277 5.978 8.834 8.602 3.03 3.11 7.479 5.787 12.771 7.683 9 3.226 10.851 4.931 23.844 21.98 4.848 6.362 10.53 13.078 12.625 14.925 2.096 1.846 4.318 4.592 4.938 6.101 1.654 4.024 14.125 15.941 18.514 17.695 4.973 1.986 11.579 1.223 19.938-2.304 12.046-5.086 15.082-10.719 13.714-25.453-1.034-11.139-3.534-15.237-10.029-16.446-8.402-1.562-22.591 4.516-30.692 13.148-5.674 6.046-7.905 5.02-2.735-1.258 6.412-7.786 23.159-16.807 32.978-17.761 6.345-.618 3.776-10.13-7.192-26.636-8.644-13.006-16.149-20.655-22.339-22.769-5.755-1.965-18.506-1.417-23.397 1.007-1.553.77-6.077 2.101-10.052 2.96-6.433 1.388-6.976 1.341-4.933-.419 1.262-1.088 4.816-3.204 7.9-4.702 5.891-2.864 12.496-9.327 12.238-11.977-.226-2.328-20.171-17.982-29.068-22.817-4.266-2.317-12.674-6.194-18.685-8.612l-10.928-4.399-14.234 1.384c-12.064 1.173-15.039 1.872-19.518 4.587-10.501 6.365-14.412 15.651-13.856 32.901.452 14.04-.384 15.549-8.944 16.144-7.555.525-8.861.06-24.894-8.846-16.057-8.921-22.601-14.108-26.303-20.848-8.913-16.231-38.146-40.241-59.654-48.995-11.924-4.854-16.892-9.583-17.588-16.748-.437-4.485-.01-5.886 2.374-7.801 3.48-2.795 14.746-6.479 26.489-8.662 7.04-1.309 8.148-1.281 6.275.156-1.251.96-3.923 2.253-5.938 2.872-2.578.794-3.594 1.842-3.428 3.539.369 3.798 7.994 4.348 18.552 1.342 13.052-3.716 13.189-3.713 14.787.335.78 1.974 2.301 11.052 3.38 20.172 2.172 18.37 4.014 22.73 12.361 29.239 3.977 3.101 4.86 3.252 13.746 2.36 8.087-.814 10.299-1.536 14.907-4.873 12.112-8.77 22.35-26.446 20.904-36.092-.59-3.945-.193-6.012 1.607-8.342 1.316-1.703 2.842-4.947 3.392-7.206.55-2.26 1.889-4.701 2.975-5.425 6.051-4.034 29.313 14.229 40.355 31.682 4.683 7.402 4.638 14.435-.062 9.779-2.82-2.793-18.107-7.752-24.294-7.882-6.796-.142-9.898 2.326-9.398 7.475.416 4.27 5.401 11.647 9.749 14.43 3.925 2.511 3.662 2.536 21.483-2.134l9.282-2.432 6.543 4.506c3.599 2.479 7.366 4.428 8.373 4.33 1.006-.098 2.404.249 3.104.773 2.645 1.976 23.283 6.808 30.475 7.135 42.853 1.948 45.325 1.884 79.383-2.036 29.326-3.375 52.926-7.642 56.267-10.175.608-.46 4.675-1.522 9.039-2.359s9.824-2.226 12.134-3.088c8.331-3.106 29.541-10.595 34.262-12.098 5.637-1.795 7.193-2.468 16.706-7.225 3.913-1.957 10.842-5.121 15.399-7.031 4.557-1.911 14.247-7.099 21.536-11.53 7.288-4.43 13.802-8.109 14.474-8.175 1.276-.124 11.369-6.776 13.753-9.063.754-.723 3.104-2.454 5.222-3.845 16.77-11.015 39.837-30.14 56.124-46.53 27.129-27.3 49.431-53.626 138.904-163.956 44.069-54.346 61.299-74.603 89.259-104.982 44.29-48.114 97.9-97.652 139.76-129.143 22.36-16.827 31.4-23.489 31.92-23.54.3-.028 2.25-1.334 4.34-2.901l3.79-2.85-4.4.424c-3.42.329-9.06 3.879-25.19 15.849zM378.242 78.671c5.648 2.993 8.414 7.694 6.624 11.254-.564 1.12-6.33 4.53-12.814 7.577-14.549 6.838-16.571 8.25-18.197 12.697-1.194 3.27-1.84 3.586-8.664 4.25l-7.375.717-1.101-7.348c-1.573-10.497-.893-14.68 3.181-19.575 3.468-4.168 4.707-5.038 13.644-9.578 6.67-3.389 18.3-3.385 24.702.006zm24.829 22.079c.635 1.643 1.516 6.14 1.959 9.992.894 7.768-.83 10.382-5.93 8.992-2.248-.614-3.494.153-6.513 4.011-5.414 6.916-10.025 9.13-17.17 8.244-9.607-1.191-15.201-3.291-13.68-5.138.719-.874 1.158-3.14.973-5.036-.38-3.915 3.007-8.741 6.365-9.068 2.393-.232 12.077-5.103 22.728-11.432 7.593-4.51 9.704-4.616 11.268-.565zm-210.034 35.474c5.626 3.6 4.822 8.014-1.962 10.771-7.202 2.925-14.653 3.556-18.225 1.539-3.703-2.089-3.883-4.027-.709-7.646 5.481-6.248 15.073-8.389 20.896-4.664zm144.878-11.789c3.755 3.84 5.327 4.535 10.676 4.722 6.099.212 6.262.317 5.849 3.758-.793 6.611 7.78 17.868 16.11 21.154 1.933.763 5.905 1.548 8.828 1.746 2.921.198 5.629.775 6.015 1.281 1.973 2.59-20.095 6.985-24.944 4.97-1.309-.545-3.673-4.034-5.254-7.753-3.445-8.105-9.765-13.758-15.999-14.311-2.431-.215-5.81-1.32-7.508-2.455-2.747-1.837-2.935-2.379-1.701-4.923 1.166-2.406 1.082-3.107-.535-4.436-1.659-1.364-3.612-1.138-14.367 1.66-10.834 2.818-19.921 3.632-18.279 1.637.293-.355 4.552-1.833 9.465-3.282 4.912-1.45 11.623-3.726 14.913-5.06 9.684-3.925 11.787-3.762 16.731 1.292zm-100.8 22.893c25.076.791 29.09 2.059 32.139 10.158 2.52 6.689.646 8.393-10.408 9.468-9.193.894-21.702-1.501-44.272-8.477-10.598-3.277-13.6-4.717-14.113-6.774-.627-2.519-.228-2.655 10.829-3.721 6.315-.609 17.936-.903 25.825-.654zm90.105-6.872c.152 1.571-4.965 4.179-8.963 4.568-3.755.365-3.998-1.078-.544-3.227 3.418-2.127 9.349-2.963 9.507-1.341zm17.349 6.047c1.977 1.403 4.968 5.774 6.967 10.183 2.955 6.514 4.211 7.99 8.02 9.411 2.484.928 6.458 1.517 8.832 1.308 3.875-.341 19.357-5.348 24.256-7.844 6.347-3.234 2.051 13.27-5.947 22.848-9.702 11.617-24.593 17.339-32.297 12.409-6.622-4.237-9.187-9.993-10.509-23.587-.681-6.993-1.767-12.566-2.522-12.936-.73-.359-1.128-1.056-.884-1.551.242-.495-.213-3.193-1.012-5.994-2.06-7.221-.694-8.36 5.096-4.247zm93.374 33.806c5.282 2.083 9.837 4.309 10.122 4.949.283.638-3.895 2.612-9.288 4.387-9.667 3.18-9.843 3.195-12.475 1.032-1.468-1.208-3.881-4.318-5.359-6.913-5.036-8.83.511-9.957 17-3.455zm288.364 74.571c.503 5.181-13.317 21.284-31.273 36.441-10.8 9.115-30.872 22.588-34.124 22.904-.925.09-2.165.68-2.753 1.31-1.766 1.893-28.775 13.419-59.038 25.196a9398.853 9398.853 0 00-18.569 7.243c-7.418 2.92-13.55 5.309-26.358 10.268-28.283 10.953-25.99 10.044-46.694 18.512-27.628 11.301-54.207 22.945-87.613 38.384-2.919 1.349-5.455 2.332-5.633 2.185-.18-.146 3.628-3.146 8.46-6.663 5.004-3.643 11.525-9.958 15.145-14.667 3.498-4.547 8.371-9.875 10.83-11.837 5.001-3.99 69.539-33.003 78.303-35.201 5.138-1.287 6.026-1.118 10.338 1.98 5.583 4.015 9.098 4.712 16.126 3.203 20.635-4.432 35.597-18.373 32.099-29.908-.861-2.839-.579-3.924 1.359-5.215 2.591-1.727 13.053-6.237 24.01-10.349 3.629-1.362 10.659-4.003 15.62-5.867 34.853-13.093 66.035-29.027 87.043-44.477 6.204-4.562 12.448-6.252 12.722-3.442zm-155.685 53.827c1.775 2.208 2.41 5.057 2.748 12.328.424 9.119.292 9.612-3.713 13.812-3.993 4.19-12.717 8.126-19.464 8.783-3.449.335-11.554-5.285-17.165-11.904-3.626-4.274-4.103-7.15-1.233-7.429.695-.068 4.169-2.844 7.72-6.167 8.099-7.58 14.159-10.725 22.364-11.604 5.535-.594 6.755-.289 8.743 2.181zm-162.56 87.648c.445 4.571-5.689 11.094-11.895 12.651-12.071 3.026-15.329-1-7.44-9.196 4.242-4.407 5.447-4.975 11.889-5.602 6.669-.648 7.189-.499 7.446 2.147zm-44.573 27.544c.392 4.026-35.632 28.255-47.224 31.763-6.677 2.02-13.669.789-15.42-2.713-2.714-5.428 11.184-16.721 27.832-22.614 12.65-4.478 34.608-8.538 34.812-6.436z" fill="#fff"/></g><defs><clipPath id="clip0_671_1332"><path fill="#fff" d="M0 0h817v520H0z"/></clipPath></defs></svg>