<svg width="14" height="16" viewBox="0 0 14 16" fill="none" xmlns="http://www.w3.org/2000/svg"><path d="M13.886.656L.424 3.44v.864l6.298-1.302V7.28H2.123a14.622 14.622 0 00-.545 3.968c0 1.376.184 2.661.528 3.904h10.098a14.721 14.721 0 00-.018-7.872H7.587V2.823l6.299-1.303V.656zM2.524 11.248c0-1.072.123-2.126.365-3.152h1.766v4.752H2.617a13.913 13.913 0 01-.093-1.6zm8.897-3.152c.243 1.026.365 2.08.365 3.152 0 .539-.031 1.072-.093 1.6H9.655V8.096h1.766zm-2.631 0v4.752H5.52V8.096h3.27z" fill="#fff"/></svg>