<svg width="14" height="17" viewBox="0 0 14 17" fill="none" xmlns="http://www.w3.org/2000/svg"><path d="M0 14.025V5.652c0-1.274.5-2.117 1.498-2.528.999-.411 2.547-.63 4.643-.659l.68-1.402H2.55V0h8.5v1.063H8.096L7.46 2.465c1.785.028 3.255.244 4.41.648 1.154.404 1.731 1.25 1.731 2.54v8.372c0 .836-.287 1.54-.86 2.114-.574.574-1.28.861-2.115.861h-7.65c-.836 0-1.54-.287-2.114-.86C.287 15.565 0 14.86 0 14.024zm10.731-3.273H1.275h10.582-1.126zm-3.867 3.613c.326 0 .602-.113.829-.34.226-.227.34-.503.34-.829 0-.326-.114-.602-.34-.829a1.128 1.128 0 00-.83-.34 1.13 1.13 0 00-.828.34c-.227.227-.34.503-.34.83 0 .325.113.601.34.828.227.227.503.34.829.34zM6.82 4.909h5.334H1.339 6.82zM1.275 9.477h11.029V6.184H1.275v3.293zm1.573 6.163h7.883a1.49 1.49 0 001.127-.468 1.6 1.6 0 00.446-1.147v-3.273H1.275v3.273c0 .453.152.836.457 1.147a1.5 1.5 0 001.116.468zM6.82 3.74c-1.742 0-3.056.103-3.942.308-.885.206-1.399.492-1.54.86h10.816c-.142-.283-.641-.548-1.498-.796S8.52 3.74 6.82 3.74z" fill="#fff"/></svg>