<svg width="792" height="362" viewBox="0 0 792 362" fill="none" xmlns="http://www.w3.org/2000/svg"><g clip-path="url(#clip0_575_2686)"><path fill-rule="evenodd" clip-rule="evenodd" d="M315.522.202c1.184.198 3 .795 4.036 1.325 2.042 1.047 8.275 5.455 11.3 7.992 4.126 3.46 8.443 7.242 11.54 10.108a331.431 331.431 0 005.669 5.12 447.909 447.909 0 013.761 3.319c1.598 1.435 2.839 1.542 3.843.33 1.926-2.325 7.894-4.839 12.046-5.075 5.077-.288 5.992-.039 9.491 2.589 4.727 3.55 15.362 14.28 21.502 21.693 7.156 8.641 7.664 9.427 6.95 10.764-.479.896-1.122 1.093-3.576 1.093-4.021 0-11.884-2.194-15.32-4.274-1.005-.609-2.191-1.267-2.635-1.463-.835-.369-5.007-3.024-12.914-8.22-5.002-3.286-12.21-8.471-13.393-9.635-.412-.405-1.314-1.107-2.005-1.56-1.23-.807-1.454-.638-10.228 7.717-15.592 14.849-21.979 21.357-25.039 25.519-7.567 10.291-8.742 14.624-11.326 41.768-.789 8.277-.884 22.76-.224 33.685.573 9.491-.05 14.36-2.471 19.284-2.311 4.702-6.957 8.875-13.563 12.181-2.829 1.416-5.282 2.798-5.451 3.071-.168.272-.669.495-1.113.495-.443 0-1.7.702-2.793 1.559-2.249 1.764-5.459 3.661-9.788 5.785-5.919 2.903-18.162 11.903-25.42 18.685-2.586 2.417-5.128 4.559-5.65 4.76-.92.355-10.061 9.556-15.481 15.582-5.667 6.301-6.61 7.426-11.054 13.183-9.06 11.738-16.846 24.574-20.922 34.493-2.552 6.207-3.944 11.672-3.708 14.552l.176 2.156 10.493-.15c5.771-.083 11.008-.262 11.639-.398 1.047-.227 1.178-.725 1.52-5.779.236-3.49.165-6.077-.191-7.012-.522-1.367-.794-1.482-3.506-1.482-4.632 0-4.523-.826.859-6.545 14.613-15.529 15.205-16.107 17.082-16.653 2.652-.772 17.194-2.335 22.068-2.372l4.001-.031 2.725 3.872c9.322 13.251 9.803 14.107 8.398 14.977-.282.174-3.165-2.407-6.406-5.736-5.3-5.445-5.984-5.977-6.807-5.293-.503.417-1.13 1.254-1.395 1.859-1.095 2.508-5.852 8.943-7.665 10.372-2.258 1.778-2.504 2.92-2.504 11.654 0 9.078.156 9.515 3.014 8.427 2.79-1.063 10.476-2.425 20.662-3.662l2.96-.36.142-9.432c.167-11.12-.022-10.779 5.963-10.779 3.901 0 3.99-.029 3.098-1.016-.695-.769-2.025-1.109-5.465-1.396-5.541-.462-5.705-.914-1.989-5.479 1.405-1.726 5.184-6.538 8.397-10.693 3.213-4.155 6.24-7.797 6.726-8.094.516-.314 4.452-.487 9.439-.416 10.398.15 16.263 1.123 27.154 4.505 3.625 1.126 4.203 1.003 5.89-1.259 1.166-1.564 2.121-1.109 5.629 2.681a805.598 805.598 0 008.465 8.943c2.811 2.926 5.112 5.596 5.112 5.935 0 1.427-1.805.702-4.55-1.827-4.508-4.154-13.376-9.669-15.546-9.669-.969 0-4.476 3.911-13.669 15.245l-2.556 3.151V275.3c0 7.397.18 10.489.62 10.636.341.114 1.734.044 3.094-.155 6.57-.961 10.782-1.637 13.236-2.126 1.479-.295 5.111-.904 8.071-1.355 9.567-1.457 12.363-2.003 13.048-2.547.515-.408.673-4.84.673-18.841v-18.308l5.519-6.553c7.064-8.387 7.075-8.401 6.665-8.812-.191-.19-1.739-.558-3.44-.816a3237.672 3237.672 0 00-19.237-2.855c-8.54-1.239-9.995-1.551-10.052-2.154-.157-1.638 2.508-1.783 19.738-1.073 9.47.39 17.763.918 18.428 1.172 1.112.425 2.541 2.63 7.796 12.027.911 1.631 2.285 3.935 3.052 5.12l1.395 2.156.269 17.786.269 17.785 5.381.297c2.959.164 5.805.196 6.323.072.881-.211.941-2.006.941-28.285 0-27.891-.094-29.571-1.859-33.255-.53-1.107-3.749-10.891-4.388-13.339-.389-1.49-1.732-.528-2.636 1.886-.526 1.409-2.089 4.743-3.471 7.411-1.383 2.668-2.92 5.881-3.416 7.141-.644 1.635-1.211 2.291-1.982 2.291-1.23 0-1.356-.962-.586-4.478.272-1.242.892-4.806 1.379-7.918.486-3.113 1.211-7.357 1.61-9.432 1.259-6.546 1.872-10.574 2.71-17.785.809-6.97 1.573-11.466 2.473-14.552.258-.889.852-4.042 1.319-7.006.466-2.965 1.178-7.33 1.582-9.701a7002.25 7002.25 0 001.553-9.163c.45-2.667 1.191-6.912 1.647-9.431a548.57 548.57 0 001.441-8.354c.627-3.865 1.196-5.12 2.319-5.12.572 0 1.137 2.841 2.737 13.743l1.071 7.276c1.882 12.785 2.515 17.245 2.962 20.896.543 4.425 1.28 8.878 2.385 14.405 1.13 5.653 2.485 15.176 2.723 19.133.275 4.582 1.11 10.034 1.899 12.396.394 1.179.601 5.176.551 10.658-.043 4.824.055 8.989.219 9.256.164.265 1.567-.772 3.118-2.305 1.55-1.533 3.545-3.15 4.433-3.591.888-.442 3.34-1.836 5.449-3.099 2.109-1.263 3.977-2.296 4.151-2.296.74 0 8.335-4.959 10.309-6.732 1.184-1.062 2.876-2.322 3.76-2.8.884-.477 3.547-2.487 5.919-4.466 4.936-4.119 14.031-10.33 18.492-12.628 6.264-3.226 16.062-4.569 25.369-3.477 3.059.358 8.904 2.616 11.353 4.384 1.803 1.302 9.59 4.522 13.399 5.54 1.628.435 3.444 1.013 4.036 1.285 4.887 2.244 9.927 4.342 10.433 4.342.336 0 1.033.218 1.547.484s2.023.899 3.355 1.406c1.332.508 3.39 1.353 4.574 1.878 1.184.526 2.879 1.124 3.767 1.328 1.533.354 8.231 3.437 9.954 4.582 1.632 1.085 9.246 5.413 9.522 5.413.157 0 1.045.616 1.973 1.367.929.752 3.625 2.872 5.993 4.71 2.368 1.839 4.907 3.892 5.645 4.562.736.67 1.486 1.218 1.664 1.218.18 0 1.018.596 1.864 1.324 2.748 2.365 10.793 6.156 14.528 6.845 2.781.513 4.695.515 8.761.011 10.128-1.256 12.211-1.019 25.921 2.947 3.411.987 5.448 1.46 9.954 2.312 1.776.335 4.318.835 5.65 1.109 1.332.274 4.117.643 6.188.821 2.072.177 5.54.57 7.707.873 4.656.651 6.437.29 4.381-.888-.729-.418-1.689-.91-2.133-1.094-1.933-.8-18.298-9.008-20.986-10.526-4.422-2.497-21.751-13.032-22.061-13.412-.66-.809-11.886-8.046-14.798-9.539-5.455-2.798-6.988-3.672-7.174-4.093-.099-.222-.447-.404-.773-.404s-1.093-.452-1.704-1.004c-.611-.553-4.5-2.76-8.644-4.906-4.143-2.145-7.775-4.089-8.071-4.319-.296-.23-1.143-.596-1.883-.814-2.881-.849-10.374-4.877-11.324-6.086-.55-.701-1.92-1.984-3.044-2.85l-4.318-3.329c-2.998-2.311-10.111-10.354-11.212-12.678-.478-1.01-1.293-2.261-1.811-2.78-.518-.518-2.602-3.711-4.631-7.093-7.568-12.617-16.094-19.012-37.378-28.028-8.796-3.726-13.984-6.468-17.697-9.353-3.975-3.087-5.581-4.85-10.583-11.615-4.744-6.415-6.137-8.106-10.432-12.665-9.897-10.507-23.177-20.24-35.364-25.92-6.45-3.005-7.123-3.295-8.656-3.725-2.103-.59-1.336-2.125 2.96-5.916 2.294-2.024 8.529-7.863 13.856-12.975 16.639-15.969 17.972-16.843 23.043-15.117 4.443 1.513 8.655 5.9 12.47 12.991 4.154 7.722 5.911 8.708 16.805 9.433 10.49.697 12.019.922 17.095 2.515 14.895 4.675 28.847 16.806 46.074 40.061 3.808 5.139 10.309 14.664 12.572 18.418 8.985 14.905 17.043 30.694 21.82 42.753.939 2.371 2.138 5.16 2.663 6.198.526 1.037 1.38 2.977 1.899 4.311.519 1.334 1.274 3.19 1.678 4.124.403.934.736 2.025.74 2.425.011 1.311 5.028 5.676 8.872 7.719 2.072 1.101 3.997 2.222 4.278 2.49.281.269 1.008.488 1.614.486.988-.002 4.646 1.054 7.56 2.184.592.23 2.408.827 4.036 1.327 3.835 1.18 9.055 3.774 10.762 5.348.74.683 2.435 1.873 3.766 2.644 1.332.773 3.753 2.502 5.381 3.844 1.628 1.342 4.177 3.287 5.664 4.323 1.487 1.035 3.667 3.012 4.843 4.393 1.176 1.38 3.741 4.231 5.7 6.336 4.215 4.529 8.906 10.047 12.602 14.822 4.713 6.09 9.934 13.217 9.934 13.561 0 .383 4.395 1.686 10.086 2.99 2.965.679 5.22.812 9.417.554 3.034-.187 8.091-.495 11.238-.685 11.289-.68 17.822 1.526 30.646 10.35 2.244 1.544 6.36 4.218 9.147 5.942 2.787 1.724 10.152 6.745 16.367 11.157a7731.07 7731.07 0 0012.645 8.965c3.644 2.551 10.616 6.63 14.242 8.331 2.472 1.159 4.053 2.225 4.053 2.732a.84.84 0 01-.842.831c-1.295 0-6.053-2.147-9.795-4.42-1.855-1.126-3.471-2.048-3.591-2.048-.418 0-9.808-6.539-22.057-15.36a232.835 232.835 0 00-9.154-6.198c-2.566-1.63-8.056-5.211-12.201-7.958-13.308-8.82-16.485-9.976-27.419-9.981-4.019-.002-8.87.292-10.782.653-2.898.548-4.455.513-9.375-.212-3.244-.479-6.626-1.099-7.514-1.379-.887-.279-3.518-1.118-5.845-1.864-3.192-1.023-5.439-1.363-9.148-1.387-8.656-.054-19.995-1.194-26.977-2.711-9.26-2.012-10.428-2.307-17.757-4.474-5.368-1.588-8.655-2.049-12.376-1.739-11.785.98-15.782.994-18.397.064-6.404-2.279-11.325-5.207-18.941-11.27-2.484-1.977-5.571-4.353-6.861-5.282-1.29-.928-2.346-1.862-2.346-2.075 0-.214-1.029-.895-2.287-1.514s-3.498-1.856-4.977-2.747c-1.48-.892-3.054-1.764-3.498-1.94-5.999-2.363-11.733-4.85-12.376-5.366-1.056-.849-11.814-4.953-15.605-5.954-3.159-.835-5.642-1.782-9.954-3.797-4.135-1.933-11.817-5.059-12.432-5.059-.302 0-1.503-.453-2.668-1.007a144.2 144.2 0 00-4.271-1.926 103.45 103.45 0 01-3.966-1.807c-1.36-.667-3.312-.885-7.802-.876-6.141.013-9.078.625-13.523 2.816-1.183.584-4.21 2.034-6.726 3.222-4.719 2.228-17.86 11.645-22.944 16.44-4.29 4.048-6.617 5.574-12.833 8.417-3.167 1.449-6.026 2.902-6.353 3.23-.326.327-.802.595-1.057.595-.929 0-5.4 3.801-7.11 6.047-.967 1.268-2.193 3.519-2.724 5.001-1.23 3.434-1.608 3.848-2.687 2.951-.751-.624-.861-2.192-.809-11.538.033-5.948-.194-13.119-.505-15.935-1.171-10.612-1.39-12.145-1.829-12.841-.539-.851-1.815-10.083-2.436-17.61-.244-2.964-.596-5.753-.781-6.198-.185-.444-.572-2.748-.861-5.12a457.462 457.462 0 00-1.369-9.97c-1.511-10.126-2.448-16.89-2.981-21.515-.288-2.496-.624-4.639-.747-4.762-.545-.546-1.643 2.645-2.272 6.605-.653 4.111-1.471 9.001-3.198 19.133-1.535 9.001-1.944 11.598-1.952 12.395-.007.792-.86 6.496-2.335 15.63-.698 4.322-1.437 8.178-3.253 16.977-1.179 5.714-1.482 8.354-.958 8.352.261-.002.922-1.153 1.47-2.56 3.429-8.801 4.455-10.93 5.42-11.246 1.861-.607 2.808 1.687 6.237 15.1.842 3.29 1.909 6.711 2.372 7.6.716 1.375.843 4.38.845 20.044.002 10.135.213 18.558.47 18.716.658.407 1.642-.907 4.607-6.153 3.278-5.801 10.111-16.16 11.477-17.398.994-.901 1.106-.891 2.504.21l1.463 1.153 1.445-1.333c1.412-1.304 1.746-1.347 14.897-1.964 7.398-.346 16.721-.622 20.716-.611l7.264.018 14.167 13.87c11.007 10.777 14.083 14.08 13.798 14.813-.203.518-.524.949-.714.957l-6.534.244c-3.404.126-7.641.408-9.417.627l-3.228.397 2.421.397c1.332.218 4.642.415 7.355.437 2.713.022 5.316.187 5.784.367.75.288.851 2.211.851 16.061 0 11.518.173 15.906.646 16.38.355.356 2.041.647 3.748.647 2.516 0 3.207-.197 3.659-1.043.317-.594.557-4.757.557-9.682 0-9.601.137-9.248-3.883-9.975-1.099-.199-2.151-.609-2.339-.912-.186-.304.701-2.053 1.973-3.887 1.273-1.834 5.062-7.458 8.423-12.497 3.359-5.04 6.591-9.536 7.18-9.992 1.063-.823 1.06-.851-.337-3.357-.776-1.389-1.281-2.735-1.123-2.991.157-.255 8.831-.627 19.275-.826 10.444-.199 21.417-.512 24.383-.697l5.394-.335 5.461 6.134c3.003 3.375 5.953 6.705 6.554 7.402.602.698 2.642 3.002 4.533 5.12 11.32 12.686 11.125 12.435 10.329 13.24-.629.637-4.486.752-23.245.694-12.37-.038-24.186.103-26.257.315l-3.767.383v24.253l22.329-.179c14.402-.116 22.569-.379 23.003-.74.49-.407.675-2.967.675-9.36 0-7.267.141-8.879.808-9.253.444-.25 2.927-.268 5.515-.041 14.579 1.277 29.594 7.087 49.255 19.06a737.49 737.49 0 006.199 3.747c.513.296 1.655 1.024 2.538 1.617a84.377 84.377 0 002.679 1.725c6.552 3.95 7.782 4.848 7.791 5.685.011 1.142.645 1.138-15.327.106-60.72-3.922-139.553-2.665-201.514 3.212-16.141 1.532-28.365 2.828-33.63 3.567-2.072.291-5.946.77-8.61 1.066-2.663.296-7.385.886-10.492 1.31a2024.78 2024.78 0 01-9.955 1.334c-2.368.308-5.758.806-7.533 1.105-1.776.3-5.65.922-8.61 1.383-11.427 1.779-15.731 2.509-19.179 3.255-1.966.426-4.117.774-4.78.774-.664 0-2.082.226-3.152.503-1.07.277-4.125.9-6.788 1.384a371.897 371.897 0 00-8.341 1.619l-7.533 1.592c-7.175 1.516-16.556 3.634-20.447 4.616-6.519 1.646-13.451 3.366-15.067 3.738-1.036.239-3.336.85-5.112 1.36a405.886 405.886 0 01-5.919 1.643 668.08 668.08 0 00-8.609 2.412c-3.255.932-6.727 1.897-7.714 2.146-.986.248-2.439.687-3.228.974-.789.287-2.766.918-4.394 1.402-3.527 1.05-11.378 3.575-28.644 9.212-11.943 3.899-14.813 4.472-14.272 2.848.214-.645 8.691-3.606 28.119-9.821 13.7-4.382 13.648-4.366 17.219-5.422 1.776-.526 3.874-1.185 4.662-1.465a44.255 44.255 0 013.229-.965c.987-.25 3.126-.851 4.754-1.334 1.628-.484 4.17-1.204 5.65-1.601 1.48-.396 4.143-1.137 5.919-1.646 1.776-.509 4.076-1.126 5.112-1.372 1.035-.245 3.336-.809 5.111-1.252a3068.79 3068.79 0 018.879-2.188 566.28 566.28 0 007.533-1.888c1.036-.278 3.7-.904 5.919-1.392 2.22-.488 4.978-1.128 6.13-1.423a82.12 82.12 0 014.574-.99c1.363-.249 4.295-.817 6.515-1.261 3.736-.747 6.425-1.274 17.219-3.377 2.219-.432 5.367-.994 6.995-1.249 2.791-.436 5.033-.823 13.049-2.254a231.17 231.17 0 016.591-1.061c1.776-.253 5.771-.841 8.879-1.306a457.061 457.061 0 019.685-1.341 214.92 214.92 0 007.264-1.031c1.776-.295 6.619-.931 10.762-1.413 4.144-.483 10.12-1.223 13.281-1.644 3.162-.421 6.721-.766 7.911-.766 1.189 0 3.324-.237 4.745-.526 1.42-.29 5.609-.781 9.308-1.092 20.061-1.685 26.8-2.221 33.631-2.68 4.143-.278 11.286-.76 15.873-1.071 21.065-1.431 34.27-1.8 72.642-2.034 27.097-.165 45.577-.037 54.078.375 7.103.344 17.515.847 23.138 1.117 5.623.271 11.919.651 13.99.846 3.722.349 3.754.341 2.691-.677-.877-.841-4.981-3.48-13.722-8.824-13.643-8.343-25.461-13.601-36.241-16.125-6.22-1.456-14.048-2.568-14.441-2.05-.056.074-.238 4.379-.404 9.566l-.301 9.432-14.259.333c-25.051.585-34.683.647-35.649.228-.862-.373-.941-1.585-.941-14.343 0-13.227.052-13.964 1.04-14.494.675-.362 9.855-.558 26.098-.558 13.781 0 25.056-.203 25.056-.45 0-.408-3.172-4.154-12.593-14.869-5.977-6.798-8.108-9.175-9.645-10.763l-1.521-1.571-9.241.351c-5.081.193-15.112.352-22.288.353-7.498.001-13.049.211-13.049.493 0 .558 9.788 15.262 13.615 20.452 1.39 1.885 2.528 3.751 2.528 4.145 0 1.614-1.332 1.437-2.923-.388-8.919-10.228-13.539-15.348-14.219-15.755-.607-.363-1.264.047-2.59 1.617-.977 1.156-1.78 2.256-1.784 2.444-.01.418-8.964 13.853-10.077 15.12-1.044 1.188-.46 2.055 1.384 2.055 2.665 0 2.766.455 2.766 12.484 0 10.43-.069 11.229-1.019 11.738-1.633.875-10.701.553-11.499-.409-.48-.579-.74-5.163-.934-16.485l-.269-15.682-5.65-.383c-3.108-.21-11.461-.64-18.564-.955-24.625-1.091-24.56-1.085-24.376-2.379.156-1.093.614-1.158 12.807-1.816 6.955-.375 18.194-.86 24.977-1.078 7.972-.255 12.4-.6 12.524-.974.105-.318-5.408-5.992-12.253-12.608l-12.445-12.03-6.805.344c-3.743.189-12.496.497-19.45.685-12.614.34-12.649.344-14.125 1.72-.814.76-1.48 1.846-1.48 2.415 0 1.291 7.1 15.611 9.141 18.436.214.296 1.211 1.994 2.216 3.772l1.826 3.234v17.606c0 9.683-.189 17.795-.421 18.027-.231.232-2.773.109-5.649-.273-17.417-2.311-34.326-2.889-76.257-2.602-39.952.272-47.605.544-87.709 3.109-12.112.775-33.441 2.883-46.275 4.572a844.673 844.673 0 01-10.493 1.315c-2.22.256-5.61.717-7.533 1.025-1.924.308-6.04.948-9.148 1.422-3.107.474-6.86 1.081-8.34 1.348-1.48.267-3.901.633-5.381.812-1.48.18-3.78.545-5.112.811-1.332.267-4.722.875-7.533 1.351-12.98 2.199-18.067 3.124-32.555 5.921-2.756.532-8.996 1.724-12.376 2.364-1.775.337-4.197.836-5.38 1.108-1.184.273-4.09.894-6.458 1.381-9.628 1.977-11.99 2.469-15.335 3.192a802.194 802.194 0 01-7.802 1.633c-2.368.483-5.153 1.085-6.188 1.337-1.036.252-3.82.864-6.188 1.36-2.368.495-5.182 1.125-6.253 1.399-1.072.275-3.13.733-4.574 1.018-2.894.572-8.27 1.767-13.656 3.037a533.828 533.828 0 01-7.265 1.646 494.382 494.382 0 00-5.65 1.264l-5.38 1.261a3722.77 3722.77 0 00-7.265 1.712c-2.071.49-5.22 1.226-6.995 1.634-10.636 2.447-10.81 2.435-10.253-.705.337-1.902 1.475-5.55 2.478-7.943l1.586-3.773c4.831-11.48 12.05-22.128 20.594-30.375 8.52-8.224 12.443-10.859 25.683-17.256.854-.413 9.6-3.207 14.455-4.617 1.588-.461 3.33-.839 3.87-.839s1.115-.215 1.277-.478c.162-.262 1.175-.643 2.25-.845 1.076-.202 2.35-.564 2.832-.805a569.45 569.45 0 014.91-2.365c2.22-1.06 5.474-3.09 7.231-4.511 3.047-2.463 4.45-4.265 11.42-14.674 14.055-20.991 32.852-41.515 50.002-54.593 6.296-4.802 21.547-15.262 24.173-16.58.891-.446 3-1.843 4.686-3.103 1.686-1.259 3.238-2.29 3.45-2.29.211 0 .766-.339 1.233-.754.468-.415 1.752-1.256 2.855-1.87 3.748-2.087 16.159-12.167 22.642-18.392 13.938-13.379 21.712-24.059 28.055-38.538.778-1.779 1.649-3.655 1.934-4.17.285-.514.518-1.205.518-1.535 0-.33.338-1.364.753-2.298.95-2.145 3.273-9.35 4.891-15.172.494-1.779 1.104-3.84 1.354-4.581.25-.741.986-3.167 1.636-5.39.65-2.223 1.395-4.273 1.655-4.554.26-.281.473-.917.473-1.412 0-1.158 2.789-7.579 5.835-13.433 5.8-11.15 14.251-21.298 26.262-31.532 3.377-2.877 7.347-7.346 9.335-10.51 9.513-15.129 12.495-18.897 16.575-20.947C309.46.127 312.59-.289 315.522.202zm-6.915 2.938c-3.724 1.559-7.419 6.19-15.042 18.852-1.328 2.207-5.498 7.606-6.877 8.903-.786.741-2.975 2.68-4.862 4.309-9.205 7.944-16.373 16.115-22.115 25.213-.959 1.519-6.128 11.962-6.864 13.864-.229.592-.706 1.795-1.061 2.672-.876 2.168-2.321 6.606-4.042 12.418a482.269 482.269 0 01-2.126 7.007 349.42 349.42 0 00-1.65 5.389c-3.155 10.609-8.048 21.676-13.314 30.115-2.388 3.826-7.04 10.335-7.945 11.115-.172.148-.868.997-1.547 1.886-2.831 3.708-15.349 15.963-20.22 19.794a539.597 539.597 0 00-4.818 3.839c-10.774 8.729-18.431 14.016-36.109 24.933-14.303 8.832-31.689 24.856-44.669 41.169-1.769 2.223-3.362 4.164-3.54 4.312-.726.606-9.644 13.038-12.995 18.117-6.391 9.685-9.566 12.955-16.012 16.489-2.91 1.596-9.909 4.302-13.99 5.41l-6.457 1.749c-23.135 6.256-39.91 19.927-52.577 42.85-1.861 3.366-6.613 15.166-6.613 16.42 0 1.378 2.97 1.009 12.914-1.604 1.628-.428 4.776-1.162 6.995-1.633 2.22-.47 4.883-1.089 5.92-1.375a79.67 79.67 0 014.304-1.017c1.332-.273 4.116-.882 6.188-1.355a206.414 206.414 0 016.677-1.395c1.6-.295 3.114-.664 3.364-.819.25-.154 1.604-.486 3.01-.736 1.404-.25 4.127-.82 6.051-1.266 5.772-1.34 11.347-2.588 15.336-3.433 2.071-.44 5.34-1.14 7.264-1.558 1.924-.418 4.708-.991 6.188-1.273 1.48-.283 4.99-1.026 7.802-1.651 2.812-.625 6.323-1.367 7.802-1.649 1.48-.283 4.386-.853 6.458-1.268 9.579-1.916 12.491-2.494 13.99-2.774.888-.167 3.309-.631 5.381-1.033a848.46 848.46 0 018.609-1.608c2.664-.482 5.981-1.128 7.371-1.435 1.391-.307 3.812-.762 5.381-1.01 1.569-.248 5.032-.824 7.695-1.279a946.952 946.952 0 018.341-1.382c1.924-.306 4.708-.791 6.188-1.079 1.48-.288 5.475-.915 8.878-1.393 3.404-.478 7.399-1.088 8.879-1.357 1.48-.27 4.022-.635 5.65-.812a91.93 91.93 0 005.65-.825c1.479-.276 4.748-.736 7.264-1.021 2.515-.285 7.721-.898 11.569-1.361 3.847-.463 9.477-1.064 12.51-1.335 3.033-.27 7.876-.741 10.762-1.046 15.832-1.672 34.268-2.676 81.117-4.419 26.711-.993 76.876-.074 90.399 1.657 2.367.303 6 .614 8.071.69l3.767.139.142-15.762c.156-17.153.279-16.278-3.136-22.234-2.253-3.928-5.072-9.118-7.448-13.709-1.064-2.056-2.176-3.801-2.472-3.879-.296-.078-1.569 1.12-2.828 2.66-1.259 1.541-2.957 3.529-3.774 4.419-.816.889-3.15 3.557-5.185 5.928-4.075 4.747-5.495 5.777-6.272 4.547-.269-.426-.535-.653-.593-.505-.057.148-.242 5.241-.411 11.318l-.308 11.049-7.798.15c-6.863.132-7.88.039-8.475-.777-.511-.699-.677-5.199-.677-18.323 0-16.707-.045-17.477-1.138-19.434-1.068-1.915-2.535-4.474-7.576-13.221l-2.096-3.638h-2.667c-3.103 0-3.619.934-.652 1.181 1.356.112 2.067.457 2.181 1.056.094.496-1.693 3.096-4.031 5.866-2.31 2.736-5.41 6.437-6.89 8.225l-2.69 3.25-.16 19c-.121 14.293-.326 19.137-.827 19.554-.367.306-2.474.815-4.683 1.132-2.209.317-6.074.917-8.59 1.333l-9.954 1.648c-2.96.49-6.955 1.113-8.879 1.384-1.924.271-4.799.784-6.39 1.14-4.36.974-4.372.94-4.372-12.84v-11.463l7.769-9.319c8.682-10.415 8.578-10.06 3.445-11.745-6.368-2.089-14.961-3.459-25.859-4.122l-5.767-.351-2.036 2.104c-1.119 1.157-3.609 4.157-5.532 6.666a496.837 496.837 0 01-5.749 7.357c-3.475 4.314-3.364 4.714 1.426 5.143 2.21.198 5.842.623 8.072.946 2.229.323 6.545.949 9.59 1.393 3.045.443 6.449.806 7.565.806 1.115 0 2.471.324 3.012.72 2.375 1.74.823 1.963-15.473 2.228-8.822.143-16.267.402-16.546.574-.286.177-.507 4.408-.507 9.695 0 11.062.535 10.265-7.384 11.023-2.894.277-6.593.77-8.22 1.095-5.603 1.118-10.497 2.215-12.471 2.794-3.707 1.089-3.672 1.192-3.672-10.915v-10.846l3.391-3.319c2.079-2.035 4.591-5.351 6.495-8.574 2.219-3.755 3.401-5.254 4.143-5.254 1.19 0 1.41-1.359.29-1.79-.699-.268-9.88.577-19.162 1.765-2.219.284-4.305.527-4.635.54-1.226.048-14.52 13.946-13.881 14.512.27.238 1.943.854 3.719 1.369 1.775.515 3.834 1.142 4.574 1.393.739.251 3.766.866 6.726 1.367 6.728 1.138 6.865 1.179 6.584 1.998-.176.511-2.484.639-9.596.53-5.447-.083-9.702.077-10.172.384-.632.412-.865 2.191-1.076 8.227l-.269 7.701-12.85.434c-7.068.239-13.185.306-13.595.149-3.16-1.215-.747-13.782 4.797-24.976 5.815-11.74 16.93-28.266 25.461-37.856 11.53-12.962 25.504-26.936 29.868-29.868 1.36-.914 4.75-3.37 7.534-5.459 2.783-2.089 6.998-4.997 9.366-6.464 2.367-1.466 4.867-3.152 5.555-3.747 1.662-1.439 9.294-5.602 10.329-5.635.704-.024 8.84-5.047 12.892-7.961 5.164-3.713 7.771-7.63 9.071-13.624 1.274-5.874 1.426-8.31 1.003-16.085-.975-17.939 1.38-49.412 4.383-58.56 2.943-8.965 8.61-16.72 20.769-28.417 17.189-16.536 20.208-19.585 20.208-20.408 0-.453-1.634-2.235-3.632-3.96a520.866 520.866 0 01-8.205-7.296c-10.581-9.625-17.037-14.754-21.393-16.995-2.996-1.542-7.074-1.758-10.006-.532zm53.46 23.843c-2.696 1.222-5.381 3.304-5.381 4.173 0 1.83 18.76 15.01 31.209 21.928 2.562 1.423 8.58 3.359 12.001 3.86 2.764.406 3.184-.77 1.088-3.044-.87-.944-2.959-3.44-4.641-5.544-6.318-7.907-20.422-21.396-23.348-22.332-2.064-.66-8.625-.084-10.928.96zm87.156 7.507c-1.657 1.12-4.802 3.992-16.391 14.966-5.028 4.761-10.464 9.904-12.08 11.428l-2.939 2.772 7.237 3.57c3.981 1.963 7.719 3.868 8.308 4.234 15.408 9.57 26.872 19.873 36.719 33.002 6.579 8.772 7.978 10.343 11.984 13.455 2.455 1.907 14.709 8.372 15.869 8.372.188 0 1.598.575 3.133 1.277s4.122 1.839 5.75 2.528c1.628.689 3.863 1.812 4.967 2.497 1.104.684 2.2 1.244 2.437 1.244.236 0 2.71 1.477 5.498 3.283 8.558 5.542 14.196 11.742 19.823 21.795 1.499 2.677 3.405 5.497 4.237 6.266.831.769 3.085 3.308 5.009 5.642 6.598 8.006 9.923 10.787 18.392 15.386 1.459.792 2.974 1.707 3.367 2.034.392.325 2.981 1.762 5.754 3.192 2.773 1.431 6.373 3.287 8.001 4.125 1.627.84 3.602 1.968 4.387 2.508.786.54 1.808.982 2.272.982.936 0 8.062 4.099 11.057 6.362 1.058.799 2.771 1.923 3.807 2.498 1.036.575 3.942 2.527 6.457 4.337 4.582 3.297 20.099 12.855 27.174 16.737 10.1 5.544 27.745 13.72 29.607 13.72 1.945 0-13.589-19.932-21.324-27.361-7.458-7.162-11.956-11.299-13.803-12.696-5.287-3.997-9.671-6.9-10.892-7.21-.74-.188-2.435-.878-3.766-1.533-5.408-2.659-11.226-5.095-12.175-5.098-.555-.002-1.702-.366-2.55-.808-.848-.443-2.134-.805-2.858-.805-1.482 0-6.653-2.308-8.957-3.997-.835-.612-2.029-2.025-2.655-3.14-.625-1.114-1.331-2.026-1.569-2.026-.237 0-.784-.787-1.215-1.751a50.884 50.884 0 00-1.858-3.638c-1.563-2.743-2.574-5.235-3.606-8.886-.502-1.775-1.112-3.594-1.356-4.042-.661-1.212-2.634-5.832-2.634-6.165 0-.357-3.795-8.513-6.161-13.244-19.025-38.026-44.667-69.68-63.858-78.827-6.86-3.27-12.672-4.555-22.264-4.92-8.134-.309-11.031-1.011-14.259-3.456-1.991-1.51-3.719-3.35-3.749-3.998-.05-1.1-5.585-9.6-7.458-11.455-3.989-3.951-7.981-5.11-10.869-3.156zm-38.636 203.106c-.494.882-1.08 1.684-1.303 1.783-.222.099-.403.537-.403.973 0 .459.793-.072 1.88-1.257 1.035-1.128 1.883-2.375 1.884-2.77.004-1.143-1.079-.474-2.058 1.271zm-81.248 6.364c-.126.651.208.898 1.215.898 1.255 0 1.324-.104.716-1.079-.767-1.23-1.674-1.145-1.931.181zm-116.322 26.898c0 1.389 1.96 1.201 2.332-.224.169-.644.185-1.367.038-1.605-.433-.702-2.37.793-2.37 1.829zm5.526.734c.179.179.643.199 1.031.043.43-.172.302-.3-.325-.326-.567-.023-.884.104-.706.283z" fill="#fff"/><path d="M193.863 66c-2.8-36-35.166-47-51-48 9.167 6 24.5 25.5 12.5 55.5-15 37.5-65 15-44.5 30.5 20.412 15.433 34.876 13.021 37.961 12.507l.039-.007c3-.5 48.5-5.5 45-50.5z" stroke="#fff" stroke-width="2"/></g><defs><clipPath id="clip0_575_2686"><path fill="#fff" d="M0 0h792v362H0z"/></clipPath></defs></svg>