<svg width="10" height="16" viewBox="0 0 10 16" fill="none" xmlns="http://www.w3.org/2000/svg"><path d="M3.88 11.2c0-1.08.096-1.857.29-2.33.193-.474.603-.99 1.23-1.55.546-.48.963-.897 1.25-1.25.286-.354.43-.757.43-1.21 0-.547-.184-1-.55-1.36-.367-.36-.877-.54-1.53-.54-.68 0-1.197.206-1.55.62-.354.413-.604.833-.75 1.26L.64 3.96c.28-.854.793-1.594 1.54-2.22C2.926 1.113 3.866.8 5 .8c1.4 0 2.476.39 3.23 1.17.753.78 1.13 1.716 1.13 2.81 0 .666-.144 1.237-.43 1.71-.287.473-.737 1.01-1.35 1.61-.654.626-1.05 1.103-1.19 1.43-.14.326-.21.883-.21 1.67h-2.3zM5 16a1.54 1.54 0 01-1.13-.47 1.541 1.541 0 01-.47-1.13c0-.44.156-.817.47-1.13A1.54 1.54 0 015 12.8c.44 0 .816.156 1.13.47.313.313.47.69.47 1.13 0 .44-.157.817-.47 1.13-.314.313-.69.47-1.13.47z" fill="#fff"/></svg>