<svg width="102" height="31" viewBox="0 0 102 31" fill="none" xmlns="http://www.w3.org/2000/svg"><path d="M6.334.009C2.833.009 0 2.862 0 6.389v18.222c0 3.527 2.833 6.38 6.334 6.38 3.498 0 6.33-2.853 6.33-6.38V6.389A6.339 6.339 0 006.334.01zM30.072 15.64l-3.182 3.206-1.299 1.307-.057.075c-2.386 2.48-2.386 6.416.04 8.935a6.299 6.299 0 008.926-.04 6.409 6.409 0 000-9.027l-4.428-4.456zm-5.036 4.232l1.298-1.304 7.607-7.666a6.4 6.4 0 000-9.027 6.29 6.29 0 00-8.962 0l-8.905 8.97c-2.483 2.5-2.483 6.53.018 9.049l8.389 8.37c-1.889-2.479-1.74-6.041.48-8.335l.075-.057zm56.459-4.998l-.813-1.643a1.177 1.177 0 00-.354-.466 1.083 1.083 0 00-.481-.243l1.574-2.122c.021-.022.021-.04.021-.057 0-.018-.021-.018-.056-.018h-.15c-.056 0-.073 0-.108.018-.022.017-.04.035-.075.057l-1.538 2.087h-.98V10.4c0-.04 0-.057-.022-.075-.017-.022-.035-.022-.052-.022h-.131c-.04 0-.057 0-.075.022-.017.018-.017.035-.017.075v4.474c0 .04 0 .057.017.075.018.017.035.017.075.017h.131c.035 0 .052 0 .052-.017.022-.018.022-.036.022-.075v-2.127h.83c.259 0 .482.057.63.15.149.092.28.26.39.466l.76 1.528c.018.04.035.058.053.058.021.017.056.017.113.017h.131c.035 0 .053-.017.053-.017.022-.018.022-.036 0-.075zm6.5-1.995h-1.517v-2.294h1.517c.355 0 .647.11.853.3.205.202.315.484.315.836 0 .357-.11.634-.315.84-.206.204-.498.318-.853.318zm.018-2.576h-1.758c-.039 0-.056 0-.074.022-.017.018-.017.035-.017.075v4.474c0 .04 0 .057.017.075.018.017.035.017.075.017h.13c.036 0 .053 0 .053-.017.022-.018.022-.036.022-.075v-1.718h1.534c.446 0 .796-.127 1.058-.37.258-.242.39-.598.39-1.043 0-.45-.132-.806-.39-1.048-.245-.26-.594-.37-1.04-.392zm5.259 1.532v1.603c0 .427-.127.744-.367.987-.24.224-.612.356-1.076.356-.48 0-.835-.11-1.093-.356-.24-.22-.371-.56-.371-.987v-1.603c0-.431.13-.748.371-.99.24-.225.612-.353 1.093-.353.464 0 .835.128 1.076.353.258.242.367.58.367.99zm-3.205 0v1.603c0 .502.15.894.446 1.194.298.281.744.427 1.316.427.573 0 1.001-.146 1.294-.428.297-.281.446-.669.446-1.193v-1.603c0-.506-.148-.898-.446-1.193-.293-.282-.721-.432-1.294-.432-.572 0-1.018.15-1.316.432-.297.295-.446.687-.446 1.193zm6.26 1.044h-1.516v-2.294h1.517c.354 0 .65.11.852.3.205.202.315.484.315.836 0 .357-.11.634-.315.84a1.212 1.212 0 01-.852.318zm.018-2.576h-1.757c-.035 0-.057 0-.075.022-.017.018-.017.035-.017.075v4.474c0 .04 0 .057.017.075.018.017.04.017.075.017h.13c.036 0 .053 0 .053-.017.022-.018.022-.036.022-.075v-1.718h1.535c.445 0 .795-.127 1.057-.37.258-.242.39-.598.39-1.043 0-.45-.132-.806-.39-1.048-.24-.26-.594-.37-1.04-.392zm4.944 0h-3.125c-.04 0-.057 0-.075.022-.022.018-.022.035-.022.075v.11c0 .035 0 .057.022.057.018.018.035.018.075.018h1.407v4.289c0 .04 0 .057.018.075.017.017.035.017.074.017h.127c.04 0 .057 0 .057-.017.017-.018.017-.036.017-.075v-4.29h1.408c.039 0 .057 0 .074-.017.018-.022.018-.04.018-.057v-.11c0-.04 0-.057-.018-.075 0 0-.017-.022-.057-.022zm-15.72 0h-.166c-.035 0-.074 0-.092.022-.017 0-.04.035-.057.053L83.72 12.73l-1.539-2.351c-.017-.035-.035-.053-.057-.053-.017 0-.052-.022-.091-.022h-.184c-.04 0-.057 0-.057.022v.053l1.74 2.611-1.11 1.867c-.018.035-.018.057 0 .075.017.018.039.018.074.018h.184c.039 0 .056 0 .056-.018.018-.018.018-.04.04-.075l1.088-1.827 1.762-2.651c.017-.018.017-.035 0-.053 0 0-.017-.022-.057-.022zm-43.943 6.288h2.335s.537.018.611.018c.15 0 .241.017.315.057.057.035.092.128.092.26v4.57c0 .058-.017.11-.035.15a.202.202 0 01-.074.075c-.04.018-.075.035-.131.035h-.166c-.075 0-.15 0-.223-.017-.075-.018-.132-.018-.206-.058A.354.354 0 0144 21.59a.2.2 0 01-.057-.15v-3.972h-2.334v3.99a.2.2 0 01-.057.15.416.416 0 01-.145.096.715.715 0 01-.205.036c-.074 0-.131.017-.205.017h-.184c-.057 0-.092-.017-.131-.035a.175.175 0 01-.075-.075c-.017-.04-.017-.075-.017-.132v-4.588c0-.11.04-.185.092-.242.074-.058.17-.075.315-.075.096 0 .63-.018.63-.018zm6.518.837c-.258 0-.48.04-.647.097a.723.723 0 00-.371.277c-.092.132-.145.3-.167.484-.035.207-.035.45-.035.727v.224c0 .282.018.524.035.727.04.207.097.374.166.489a.723.723 0 00.372.277c.166.057.372.093.647.093h.04c.257 0 .48-.036.647-.093a.706.706 0 00.371-.277c.092-.132.149-.3.166-.489.035-.203.035-.445.035-.727v-.224c0-.277-.017-.52-.035-.727-.04-.202-.092-.37-.166-.484a.705.705 0 00-.371-.277 1.947 1.947 0 00-.648-.097h-.039zm0 4.293c-.35 0-.63-.04-.887-.092a1.818 1.818 0 01-.612-.265 1.443 1.443 0 01-.407-.41 1.704 1.704 0 01-.223-.523 3.173 3.173 0 01-.11-.612c-.017-.225-.017-.45-.017-.674v-.018c0-.224 0-.466.018-.673a3.1 3.1 0 01.11-.612c.056-.19.13-.375.222-.524.092-.15.24-.3.407-.41.166-.114.371-.207.612-.26a3.85 3.85 0 01.887-.097h.04c.35 0 .629.04.887.097.24.053.446.146.612.26.166.11.297.242.407.41.091.15.183.334.222.524.057.185.092.392.11.612.022.224.022.449.022.673v.018c0 .225 0 .467-.022.674-.018.22-.053.427-.11.612a2.27 2.27 0 01-.222.524c-.092.15-.241.3-.407.41a1.818 1.818 0 01-.612.264 4.19 4.19 0 01-.887.092h-.04zm3.685-.484c-.035.127-.092.22-.126.295a.374.374 0 01-.15.15.303.303 0 01-.183.057c-.074 0-.148.017-.244.017a.584.584 0 01-.184-.035c-.057-.022-.11-.057-.131-.114a.405.405 0 01-.053-.225c0-.092.018-.203.075-.335l1.333-3.84c.052-.167.127-.299.201-.391a.605.605 0 01.24-.19c.075-.035.167-.053.263-.075h.682c.092 0 .166.04.262.075.074.04.166.115.24.19.075.092.15.224.202.392l1.333 3.84c.04.131.074.242.057.338a.365.365 0 01-.057.22.242.242 0 01-.127.115.708.708 0 01-.188.035c-.092 0-.166 0-.24-.017a.295.295 0 01-.184-.058.484.484 0 01-.148-.15c-.04-.074-.092-.167-.132-.294l-1.24-3.677c-.018-.035-.018-.057-.035-.093-.018-.017-.018-.04-.035-.04h-.115c-.017 0-.035.023-.035.04-.022.018-.022.058-.04.093l-1.24 3.677zm10.317-2.541h2.33v-1.805c0-.058.022-.097.057-.15.04-.04.092-.075.149-.115.057-.035.13-.053.205-.075.075-.017.149-.017.219-.017.148 0 .245.017.315.057.074.035.096.132.096.26v4.606a.356.356 0 01-.04.15c-.017.04-.056.057-.074.074a.229.229 0 01-.127.04h-.17c-.07 0-.144 0-.201-.018-.075-.022-.131-.022-.206-.057a.472.472 0 01-.148-.092.232.232 0 01-.053-.15v-1.867h-2.334v1.867c0 .053-.018.11-.057.15a.39.39 0 01-.149.092.66.66 0 01-.2.035c-.075 0-.132.022-.206.022h-.184c-.057 0-.092-.022-.131-.04a.153.153 0 01-.074-.074c-.018-.035-.018-.075-.018-.132V16.87c0-.11.04-.186.092-.243.074-.053.166-.075.315-.075.074 0 .148 0 .223.022.074.018.13.036.205.053.053.022.11.058.149.115.035.035.052.092.052.167v1.788h-.035zm5.408 1.176h1.757l-.778-2.312c-.017-.035-.017-.057-.035-.093-.022-.017-.022-.04-.04-.04h-.052c-.022 0-.039.023-.039.04-.017.018-.017.058-.035.093l-.778 2.312zm2.037.823h-2.317l-.183.542c-.04.127-.092.22-.132.295a.35.35 0 01-.148.15.286.286 0 01-.184.057c-.074 0-.148.017-.24.017a.578.578 0 01-.188-.035c-.053-.022-.11-.057-.127-.114a.37.37 0 01-.057-.225.85.85 0 01.074-.335l1.334-3.822c.057-.167.13-.3.205-.392a.556.556 0 01.24-.185.93.93 0 01.259-.075h.647c.091 0 .166.036.262.075.07.035.166.11.24.185.075.093.145.225.201.392l1.334 3.822c.04.132.074.243.074.34a.365.365 0 01-.057.22.244.244 0 01-.127.114.578.578 0 01-.188.035c-.091 0-.166 0-.24-.017a.295.295 0 01-.184-.058.536.536 0 01-.148-.15c-.035-.074-.075-.167-.131-.294l-.219-.542zm-10.518-3.228v1.493h-.91c-.222 0-.423-.017-.554-.057a.882.882 0 01-.333-.132.47.47 0 01-.166-.22.953.953 0 01-.057-.34c0-.15.018-.242.057-.334a.505.505 0 01.166-.225c.092-.053.184-.11.333-.127.148-.04.35-.058.572-.058h.892zm0 2.387v1.642c0 .058.017.11.035.15a.5.5 0 00.11.075c.056.018.095.035.17.035h.389c.052 0 .11-.017.166-.035.052-.018.092-.04.11-.075.017-.04.039-.075.039-.132v-4.512c-.022-.075-.022-.11-.04-.168a.607.607 0 00-.091-.132.427.427 0 00-.15-.092.87.87 0 00-.24-.036H57.85c-.11 0-.372.036-.538.075a2.012 2.012 0 00-.48.168 1.604 1.604 0 00-.425.295 1.458 1.458 0 00-.297.449 1.703 1.703 0 00-.114.651c0 .225.022.414.075.582.057.167.13.295.223.41.092.11.205.202.315.299.13.075.262.145.389.185l-.98 1.677c-.039.058-.039.093-.039.15 0 .04.017.075.057.115a.29.29 0 00.13.07c.053.022.11.04.167.057a.52.52 0 00.166.018h.131a.675.675 0 00.258-.053.446.446 0 00.201-.167l.966-1.7h1.018zm-12.555-7.16h.87c.24 0 .424-.022.573-.057.148-.04.257-.075.332-.132a.362.362 0 00.148-.225c.018-.092.04-.185.04-.295v-.075c0-.114-.022-.207-.04-.3a.374.374 0 00-.148-.224 1.005 1.005 0 00-.315-.15 2.132 2.132 0 00-.538-.057h-.922v1.515zm.813-2.391c.149 0 .297 0 .446.022.166.018.315.035.48.075.167.035.316.092.464.167.149.075.276.168.39.278.108.114.2.264.275.449.074.167.091.392.091.634v.018c0 .242-.034.449-.091.634a1.83 1.83 0 01-.24.449c-.11.11-.224.224-.372.3-.127.07-.276.127-.442.166a2.07 2.07 0 01-.463.075c-.166.018-.315.018-.464.018h-.909v1.62c0 .058-.018.115-.035.133-.035.04-.074.057-.11.074-.056.018-.095.036-.17.036h-.389a.588.588 0 01-.166-.036c-.052-.017-.092-.035-.11-.075-.017-.035-.038-.074-.038-.132v-4.514c0-.034.021-.074.039-.11a.602.602 0 01.092-.131.427.427 0 01.148-.093.872.872 0 01.24-.035h1.334v-.022zm9.425-.018c.24 0 .481.018.669.058.201.035.367.092.516.15.148.074.24.149.332.242a.503.503 0 01.114.317c0 .035 0 .092-.018.127a.347.347 0 01-.074.132.419.419 0 01-.114.093.437.437 0 01-.166.04c-.057 0-.11 0-.166-.018-.057-.022-.092-.04-.149-.057a.687.687 0 01-.166-.075c-.057-.018-.13-.057-.205-.075a3.302 3.302 0 00-.276-.057c-.109-.018-.223-.018-.371-.018h-.053a2.05 2.05 0 00-.651.093.73.73 0 00-.372.281 1.027 1.027 0 00-.166.485c-.035.202-.035.444-.035.726v.225c0 .277.018.52.035.726.04.207.092.375.166.485a.73.73 0 00.372.282c.166.052.372.092.651.092h.053c.148 0 .28 0 .371-.018.11-.022.206-.04.276-.057a.71.71 0 00.205-.075c.057-.017.11-.057.166-.075.057-.017.092-.035.149-.057.057-.017.092-.017.166-.017.074 0 .131.017.166.04a.189.189 0 01.114.092.363.363 0 01.092.26c0 .11-.04.224-.114.317a.763.763 0 01-.332.242 1.83 1.83 0 01-.516.15c-.206.04-.428.057-.669.057h-.127a4.15 4.15 0 01-.892-.093 1.818 1.818 0 01-.611-.264 1.443 1.443 0 01-.407-.41 1.707 1.707 0 01-.223-.524 3.181 3.181 0 01-.11-.612c-.017-.224-.017-.449-.017-.673v-.018c0-.224 0-.467.018-.674.017-.22.057-.427.109-.612.057-.189.131-.374.223-.524.092-.15.24-.3.407-.41.166-.11.371-.206.611-.259.241-.057.538-.097.892-.097h.127v.057zm3.222 2.145h2.334v-1.81c0-.053.018-.092.057-.145.035-.04.092-.075.149-.115a.64.64 0 01.2-.075c.075-.017.15-.017.224-.017.148 0 .24.017.315.057.074.035.091.128.091.26v4.588a.24.24 0 01-.035.132.203.203 0 01-.074.075c-.04.018-.074.035-.131.035h-.166c-.074 0-.149 0-.223-.017-.074-.018-.131-.018-.201-.057a.39.39 0 01-.149-.093.207.207 0 01-.057-.15v-1.845h-2.334V15.1c0 .057-.017.11-.057.15a.408.408 0 01-.144.092.712.712 0 01-.206.04c-.074 0-.13.018-.205.018h-.184a.243.243 0 01-.13-.04.153.153 0 01-.075-.075c-.018-.035-.018-.075-.018-.128v-4.553c0-.11.04-.184.092-.242.057-.057.166-.075.315-.075.074 0 .149 0 .223.018.074.022.131.04.205.057a.3.3 0 01.149.115c.035.035.053.092.053.167v1.788h-.018zm5.408 1.158h1.761l-.778-2.312c-.022-.04-.022-.057-.04-.097-.017-.017-.017-.035-.034-.035h-.057c-.017 0-.04.018-.04.035-.017.022-.017.058-.034.097l-.778 2.312zm2.037.819h-2.317l-.184.524c-.035.128-.092.224-.13.3-.036.074-.093.11-.145.15a.336.336 0 01-.188.052c-.075 0-.149.018-.24.018-.075 0-.127-.018-.184-.036-.057-.017-.114-.057-.131-.11a.426.426 0 01-.057-.224.92.92 0 01.074-.34l1.333-3.822c.057-.167.132-.299.206-.391a.556.556 0 01.24-.185.901.901 0 01.258-.075h.652c.091 0 .166.035.258.075.074.035.166.11.24.185.074.092.149.224.206.392l1.333 3.822c.035.132.074.246.074.339a.426.426 0 01-.057.224c-.04.053-.074.093-.13.11a.673.673 0 01-.184.036c-.092 0-.167 0-.24-.018-.075 0-.132-.035-.189-.053a.666.666 0 01-.144-.15c-.04-.075-.096-.171-.131-.299l-.223-.524zm4.721-3.206v1.493h-.905c-.223 0-.428-.022-.56-.057-.144-.04-.257-.075-.332-.132a.513.513 0 01-.166-.225 1.012 1.012 0 01-.057-.335c0-.15.022-.242.057-.334a.54.54 0 01.166-.225.823.823 0 01.333-.132c.148-.035.354-.053.577-.053h.887zm0 2.37v1.62c0 .057.017.114.04.15.034.04.074.057.109.074.056.018.091.036.166.036h.388a.531.531 0 00.167-.036c.057-.017.092-.035.114-.075.035-.035.035-.074.035-.132v-4.472c-.018-.075-.018-.115-.035-.168a.797.797 0 00-.092-.132.47.47 0 00-.149-.092.854.854 0 00-.24-.04h-1.723c-.113 0-.371.04-.537.075a2.39 2.39 0 00-.481.167 1.715 1.715 0 00-.429.3 1.542 1.542 0 00-.297.449c-.074.185-.11.392-.11.652 0 .224.018.409.075.576.057.172.131.3.223.414.092.11.201.203.315.295.127.075.258.15.389.19l-.966 1.638c-.035.057-.035.096-.035.15 0 .039.017.074.057.114a.304.304 0 00.126.075c.057.017.114.035.167.053.056.022.113.022.17.022h.127a.722.722 0 00.262-.058.441.441 0 00.201-.167l.945-1.66h1.018v-.018zm-21.368.017h1.757l-.778-2.312c-.018-.04-.018-.057-.035-.097-.017-.017-.017-.035-.035-.035h-.057c-.017 0-.04.018-.04.035-.017.022-.017.058-.034.097l-.778 2.312zm2.037.819h-2.317l-.184.524c-.039.128-.091.224-.13.3-.036.074-.093.11-.15.15a.312.312 0 01-.183.052c-.074 0-.149.018-.24.018a.543.543 0 01-.184-.036c-.057-.017-.114-.057-.131-.11a.426.426 0 01-.057-.224c0-.097.022-.207.057-.34l1.333-3.822c.057-.167.131-.299.206-.391a.557.557 0 01.24-.185.928.928 0 01.258-.075h.647c.092 0 .166.035.262.075a.95.95 0 01.24.185c.075.092.15.224.202.392l1.333 3.822c.04.132.075.246.075.339a.389.389 0 01-.057.224c-.035.053-.07.093-.127.11a.704.704 0 01-.188.036c-.092 0-.166 0-.24-.018-.075 0-.127-.035-.184-.053a.687.687 0 01-.149-.15c-.035-.075-.092-.171-.131-.299l-.201-.524zm-11.187.801a.215.215 0 01-.052.15.37.37 0 01-.149.093.589.589 0 01-.206.04c-.074 0-.126.017-.2.017h-.188a.27.27 0 01-.127-.035.154.154 0 01-.075-.075c-.021-.04-.021-.075-.021-.132v-4.624a.31.31 0 01.096-.242c.074-.057.166-.075.315-.075.074 0 .148 0 .218.018.074.017.131.035.206.057a.28.28 0 01.148.11c.035.035.057.092.057.167v1.7s0 .053.017.07c.018.022.035.022.057.022.035 0 .053 0 .075-.022a.252.252 0 01.052-.035l1.91-1.827c.053-.057.11-.093.167-.132a.677.677 0 01.314-.11h.166c.035 0 .092 0 .127.017.04.018.096.04.131.075a.39.39 0 01.092.11c.018.057.04.115.04.172 0 .035 0 .075-.022.11 0 .035-.018.075-.053.132a.64.64 0 01-.113.15c-.035.053-.11.11-.184.185l-1.556 1.47c-.035.04-.057.058-.057.097v.11c0 .018.022.058.057.093l1.556 1.475c.074.075.131.128.184.185.039.057.074.114.113.15.018.04.035.092.053.132 0 .035.021.075.021.11a.373.373 0 01-.039.167.178.178 0 01-.092.115c-.035.035-.074.053-.109.075a.39.39 0 01-.149.035h-.166a.352.352 0 01-.148-.035.78.78 0 01-.149-.075c-.057-.04-.114-.075-.166-.132 0 0-1.797-1.718-1.91-1.845-.018-.022-.035-.04-.053-.04-.04-.018-.057-.018-.074-.018-.018 0-.04 0-.057.018-.018.018-.018.075-.018.075v1.752h-.039zm34.094-4.733c0-.097.074-.172.166-.172h.516c.096 0 .17.075.17.172v11.096a.168.168 0 01-.17.168h-.516a.167.167 0 01-.166-.168V10.476z" fill="#fff"/></svg>