<svg width="134" height="22" viewBox="0 0 134 22" fill="none" xmlns="http://www.w3.org/2000/svg"><path d="M30.353 12.784L29.84 6.04c-.047-.628-.435-1.16-1.037-1.421a1.842 1.842 0 00-1.863.232l-6.046 4.706-.704-.56 1.72-1.566c.383-.35.585-.847.552-1.36a1.689 1.689 0 00-.73-1.28L15.314.317a1.767 1.767 0 00-1.653-.196 1.71 1.71 0 00-1.062 1.252l-1.04 5.097-.022.006c-.181.05-.341.12-.491.214l-.417.267.04-.186a1.67 1.67 0 00-.355-1.415 1.746 1.746 0 00-1.35-.629l-7.213-.004c-.715 0-1.331.4-1.607 1.045-.275.641-.14 1.35.354 1.848l3.527 3.57-1.68 1.075c-.498.32-.794.86-.79 1.444.005.584.31 1.12.816 1.431l9.983 6.133a1.755 1.755 0 001.853-.002c.567-.35.875-.973.803-1.626l-.59-5.388.662-.601.777 5.306c.084.574.423 1.071.93 1.366.512.3 1.124.352 1.678.148l7.862-2.898c.57-.212 1-.659 1.175-1.229a1.886 1.886 0 00-.274-1.66l-.04-.056 1.404-.013a1.838 1.838 0 001.317-.574c.325-.348.483-.794.446-1.258h-.004zm-9.56-1.298l1.427 1.046-2.115.012a.23.23 0 01-.22-.154.22.22 0 01.076-.255l.832-.646v-.003zm-9.178 2.164l.832-4.794.37 4.36-.013.011c-.136.126-.263.245-.38.356l-.343.32a.284.284 0 01-.329.038.269.269 0 01-.135-.289l-.002-.002zm-8.67-6.885a.338.338 0 01-.073-.376.354.354 0 01.329-.214l5.62.004c.132 0 .247.052.304.12.06.07.103.193.078.313l-.32 1.461-2.851 1.824-3.084-3.134-.004.002zM8.524 10l-.308 1.262a.38.38 0 01-.271.291.399.399 0 01-.39-.103l-.479-.485L8.525 10zm4.667 8.834a.43.43 0 01-.445 0l-8.56-5.271a.435.435 0 01-.006-.742l.895-.572 1.383 1.397c.46.463 1.111.63 1.742.449a1.689 1.689 0 001.214-1.296l.799-3.838.963-.617-1.167 5.702c-.15.738.185 1.452.853 1.822a1.743 1.743 0 002.04-.235l.158-.145.324 2.958a.403.403 0 01-.19.39l-.003-.002zm2.106-12.166c-.707.396-.992 1.013-.888 1.885.07.572.34 2.84.34 2.84l-.015.013c-.177.167-.347.33-.518.489l-.053.05-.438-4.011a1.674 1.674 0 00-.69-1.183l-.018-.012.836-4.16c.022-.108.076-.286.257-.353.199-.07.355.026.447.095l5.165 3.644a.43.43 0 01.184.325.429.429 0 01-.133.348l-1.138 1.08-.023.022-1.125-.896a1.94 1.94 0 00-2.192-.176h.002zm.916 3.342l-.051.049-.247-1.686a.336.336 0 01.173-.348.354.354 0 01.394.03l.976.779-.031.028-.286.269-.525.497-.405.382h.002zm9 5.34a.53.53 0 01-.342.415l-6.793 2.521a.598.598 0 01-.501-.04.57.57 0 01-.28-.41l-.8-5.478 2.514-2.287.606.481-1.374 1.201c-.713.556-.837 1.26-.641 1.802.24.671.883 1.088 1.69 1.088l5.468.006.26.206a.52.52 0 01.192.495zm2.688-2.964a.365.365 0 01-.271.118l-3.02.016-2.547-2.03 4.963-3.864c.092-.073.222-.158.355-.103.144.056.146.182.156.299l.454 5.291a.346.346 0 01-.094.271l.004.002zm37.116-.654c.643-.556.97-1.25.97-2.067 0-.956-.33-1.724-.977-2.28-.642-.552-1.524-.834-2.617-.834-.912 0-1.803.22-2.442.603a4.28 4.28 0 00-1.43 1.383c.6.491 1.262 1.04 1.592 1.326a2.608 2.608 0 012.168-1.148c.44 0 .784.103 1.025.305.238.202.355.47.355.817 0 .328-.111.587-.341.789-.23.202-.553.303-.96.303h-1.33v1.943h1.489c.526 0 .93.107 1.204.316.269.206.398.48.398.839 0 .398-.16.703-.49.938-.338.236-.775.358-1.303.358-1.05 0-1.98-.502-2.628-1.414-.513.427-1.15.95-1.602 1.319.384.673.92 1.217 1.596 1.61.72.418 1.66.648 2.648.648 1.23 0 2.231-.31 2.975-.918.75-.615 1.13-1.431 1.13-2.43 0-1.094-.483-1.903-1.432-2.406h.002zM41.275 6.74h-3.998v10.558h2.474v-3.083h1.524c1.534 0 4.129-.789 4.129-3.745s-2.597-3.73-4.13-3.73zm-.058 5.42h-1.464V8.808h1.464c.717 0 1.783.443 1.783 1.66 0 1.334-1.12 1.692-1.783 1.692zm10.651-5.744c-3.139 0-5.692 2.513-5.692 5.603s2.553 5.603 5.692 5.603c3.139 0 5.692-2.514 5.692-5.603 0-3.09-2.553-5.603-5.692-5.603zm2.266 7.966c-.604.617-1.358.925-2.266.925-.908 0-1.674-.308-2.272-.925-.598-.616-.897-1.405-.897-2.365 0-.96.3-1.75.897-2.366.598-.617 1.356-.924 2.272-.924.916 0 1.662.311 2.266.932.604.62.904 1.407.904 2.358 0 .95-.302 1.749-.904 2.365zm17.6-7.642l-4.675 10.574h2.709l.59-1.348h4.167l.59 1.348h2.71L73.164 6.74h-1.433.002zm-.604 7.264l1.313-3.399 1.312 3.4H71.13zm58.599-7.264h-3.998v10.558h2.474v-3.083h1.524c1.534 0 4.129-.789 4.129-3.745s-2.597-3.73-4.129-3.73zm-.058 5.42h-1.464V8.808h1.464c.717 0 1.783.443 1.783 1.66 0 1.334-1.119 1.692-1.783 1.692zm-11.209-5.744c-3.139 0-5.692 2.513-5.692 5.603s2.553 5.603 5.692 5.603c3.139 0 5.692-2.514 5.692-5.603 0-3.09-2.553-5.603-5.692-5.603zm2.266 7.966c-.604.617-1.358.925-2.266.925-.908 0-1.674-.308-2.272-.925-.598-.616-.898-1.405-.898-2.365 0-.96.3-1.75.898-2.366.598-.617 1.356-.924 2.272-.924.916 0 1.662.311 2.266.932.603.62.903 1.407.903 2.358 0 .95-.302 1.749-.903 2.365zM92.481 6.738h-2.917l-1.95 3.224-1.965-3.224h-2.934l3.35 5.127-3.617 5.431h3.11l2.056-3.397 2.057 3.397h3.093l-3.584-5.43 3.3-5.126v-.003zm11.002 2.173h3.305v8.385h2.473v-8.38h3.322V6.741h-9.1v2.173-.004zM98.36 12.1l-2.6-5.362h-2.758l4.154 8.029a1.68 1.68 0 01-1.341.626h-.68l.107 1.96c.332.074.661.115.986.115.88-.02 1.604-.265 2.09-.708.48-.433.933-1.13 1.391-2.13l3.468-7.893h-2.757L98.358 12.1h.002z" fill="#fff"/></svg>