<svg width="32" height="32" viewBox="0 0 32 32" fill="none" xmlns="http://www.w3.org/2000/svg"><path fill-rule="evenodd" clip-rule="evenodd" d="M16.167.417a1 1 0 011 1v4.166a1 1 0 11-2 0V1.416a1 1 0 011-1zM5 4.98a1 1 0 011.414-.01l2.99 2.95A1 1 0 018 9.345l-2.99-2.95a1 1 0 01-.009-1.414zm22.331 0a1 1 0 01-.01 1.414l-2.988 2.95a1 1 0 11-1.405-1.424l2.99-2.95a1 1 0 011.413.01zM10.1 16c0-3.326 2.728-6 6.066-6 3.338 0 6.067 2.674 6.067 6s-2.729 6-6.067 6-6.066-2.674-6.066-6zm6.066-4c-2.258 0-4.066 1.803-4.066 4s1.808 4 4.066 4c2.259 0 4.067-1.803 4.067-4s-1.808-4-4.067-4zM.39 16a1 1 0 011-1h4.222a1 1 0 110 2H1.39a1 1 0 01-1-1zm25.332 0a1 1 0 011-1h4.222a1 1 0 110 2h-4.222a1 1 0 01-1-1zM9.414 22.664a1 1 0 01-.01 1.414l-2.989 2.95a1 1 0 01-1.404-1.423L8 22.655a1 1 0 011.414.01zm13.505 0a1 1 0 011.415-.01l2.989 2.95a1 1 0 01-1.405 1.424l-2.99-2.95a1 1 0 01-.009-1.414zm-6.752 2.752a1 1 0 011 1v4.167a1 1 0 11-2 0v-4.166a1 1 0 011-1z" fill="#fff"/></svg>