<svg width="80" height="48" viewBox="0 0 80 48" fill="none" xmlns="http://www.w3.org/2000/svg"><path fill-rule="evenodd" clip-rule="evenodd" d="M18.702.299c.544.863 2.223 3.523 2.934 6.71.807 3.574.784 5.761.438 8.266-.634 4.492-2.627 7.95-3.503 9.101-.6-.776-1.51-2.387-2.12-3.868 0 0-1.152-2.846-1.452-5.621-.3-2.764-.173-5.574.714-8.749C16.532 3.304 18.122.741 18.56.07c.029.05.077.127.142.229zm-1.203 18.774c.058 2.223.669 3.657 1.06 4.41.415-.765 1.107-2.446 1.038-4.598-.081-2.187-.807-3.798-1.026-4.175-.242.377-1.083 2.223-1.072 4.363zm3.515-2.34c.207-.87.357-2.305.392-3.669.034-1.352-.104-3.669-.75-6.068-.656-2.41-1.924-4.715-2.108-5.009-.184.294-1.187 2.152-2.074 5.068-.23.87-.657 2.775-.726 4.622-.08 2.234.219 4.468.334 5.091 0-.74.012-3.21.461-5.256.45-2.034 1.314-4.398 2.005-5.597.749 1.258 1.694 3.986 2.028 5.609.334 1.646.507 3.727.438 5.21zM30 25.211h-4.966v13.311h2.604V26.87H30v-1.66zm3.389 1.658l-.45 6.655h1.05l-.45-6.655h-.15zm-.772 11.653H30.06l1.36-13.311h4.102l1.36 13.311h-2.547l-.242-3.54H32.86l-.242 3.54zm7.996-4.657v2.505c0 .341.253.435.403.435.242 0 .415-.211.415-.435v-3.104c0-.412-.07-.87-1.049-.87h-1.06v-1.459h1.106c.738 0 1.003-.176 1.003-.987v-2.646c0-.224-.173-.435-.415-.435-.15 0-.403.082-.403.435v2.175H38.01v-1.893c0-.929.103-2.375 1.936-2.375H42.1c1.832 0 1.947 1.446 1.947 2.375v2.129c0 1.446-.99 1.846-1.774 1.81v.13c1.751-.047 1.774 1.328 1.774 1.799v2.681c0 .94-.115 2.375-1.947 2.375h-2.154c-1.833 0-1.936-1.434-1.936-2.375v-2.281h2.604v.011zm11.178-8.654h-6.038v13.311h2.616V26.87h.818v11.653h2.604V25.211zm4.32 7.326v-5.668h.345c.276 0 .484.235.484.67v4.327c0 .424-.208.67-.484.67h-.346zm-2.605 5.985h2.604v-4.527h1.498c1.82 0 1.936-1.435 1.936-2.375v-4.034c0-.929-.115-2.375-1.936-2.375h-4.102v13.311zm10.773-1.717c.242 0 .415-.211.415-.435v-9.066c0-.224-.173-.435-.415-.435-.15 0-.403.082-.403.435v9.066c0 .341.253.435.403.435zm-1.083 1.717c-1.82 0-1.936-1.434-1.936-2.375v-8.56c0-.93.116-2.376 1.936-2.376h2.166c1.82 0 1.936 1.446 1.936 2.375v8.56c0 .941-.115 2.376-1.936 2.376h-2.166zm12.595-13.311h3.399v13.311h-2.604v-8.349h-.093l-1.36 8.35H73.05l-1.336-8.35h-.092v8.35h-2.605V25.21h3.388l1.705 9.36 1.683-9.36zm-55.873.003h-6.072v4.162l.011-.011a3.62 3.62 0 015.186 0c1.428 1.446 1.428 3.821 0 5.28l-.023.023c-.008 0-.01.005-.014.01a.033.033 0 01-.01.014 7.275 7.275 0 01-5.162 2.163 7.162 7.162 0 01-5.173-2.187c-2.523-2.563-2.823-6.55-.899-9.454.254-.388.553-.765.899-1.117a7.229 7.229 0 015.173-2.188v-9.995c-7.19.012-13.02 5.95-13.02 13.3 0 7.35 5.83 13.3 13.032 13.3 3.756 0 7.132-1.623 9.518-4.21v-9.09h-3.446zM.817 40.756h78.375v7.232H.817v-7.232zm4.252 2.586v-.764H3.11v3.798h.91v-3.034h1.05zm.61.223c0-.317.093-.564.289-.752.207-.212.518-.318.933-.318.403 0 .703.106.922.318.184.188.288.446.288.764v1.705c0 .388-.092.682-.288.882-.196.2-.496.294-.91.294-.404 0-.715-.106-.91-.306-.197-.2-.3-.494-.3-.882v-1.705H5.68zm1.199-.388a.3.3 0 00-.219.082.332.332 0 00-.092.236v1.928a.34.34 0 00.092.247.301.301 0 00.219.082c.08 0 .161-.023.219-.082a.35.35 0 00.092-.259v-1.928a.312.312 0 00-.092-.235.327.327 0 00-.22-.071zm2.006-.6v3.787h.898v-1.481h.404c.31 0 .553-.07.737-.224.23-.188.346-.505.346-.929 0-.435-.116-.752-.346-.94-.173-.142-.415-.212-.737-.212H8.884zm1.06 1.636h-.162v-.965h.15c.138 0 .242.035.323.106.08.07.115.188.115.365 0 .176-.046.305-.127.388a.426.426 0 01-.3.105zm2.949.552v1.611h-.9v-3.798h.9V44h.587v-1.423h.899v3.798h-.899v-1.61h-.587zm2.559-1.953c-.196.189-.288.436-.288.753h.023v1.705c0 .388.103.682.3.882.195.2.506.306.91.306.414 0 .714-.094.91-.294.196-.2.288-.494.288-.882v-1.705c0-.318-.104-.576-.288-.764-.22-.212-.519-.318-.922-.318-.415 0-.726.106-.933.318zm.702.447a.3.3 0 01.22-.082c.08 0 .15.023.218.07.058.06.093.13.093.236v1.928a.35.35 0 01-.093.259.301.301 0 01-.219.082.3.3 0 01-.219-.082.34.34 0 01-.092-.247v-1.928c0-.095.035-.177.092-.236zm2.062 2.131v-.587h2.235v.587h-2.235zm3.491-2.048v3.034h.83v-3.034h.656v-.764h-2.189v.764h.703zm4.632-.764l-.004.012h-.93l-.357 1.74-.08.706-.058-.788-.334-1.658h-.934l.841 2.986c-.011.06-.046.095-.08.106a.406.406 0 01-.127.024h-.115a.32.32 0 01-.104-.024v.647a.457.457 0 00.184.082c.081.012.173.024.265.024.312 0 .542-.07.68-.188.139-.13.254-.377.358-.741l.791-2.916h.004v-.012zm.622 0v3.786h.899v-1.481h.403c.311 0 .553-.07.738-.224.23-.188.345-.505.345-.929 0-.435-.115-.752-.345-.94-.173-.142-.415-.212-.738-.212h-1.302zm1.06 1.634h-.161v-.964h.15c.138 0 .242.035.322.106.081.07.116.188.116.365 0 .176-.047.305-.127.388a.425.425 0 01-.3.105zm3.537 2.164v-.882c.046-.47.104-.952.161-1.434l-.772 2.316h-.875v-3.798h.864v.952c0 .106-.035.412-.093.906l-.015.141a3.995 3.995 0 00-.03.388l.76-2.387h.853v3.798h-.853zm4.011-1.506h-.887v.518c0 .14-.035.247-.092.306a.326.326 0 01-.242.093c-.104 0-.184-.035-.23-.093-.058-.06-.081-.165-.081-.306v-1.905a.26.26 0 01.092-.212.317.317 0 01.207-.07c.081 0 .15.035.22.082a.24.24 0 01.103.212v.423h.899v-.341c0-.318-.093-.576-.288-.764-.22-.212-.519-.318-.922-.318-.415 0-.726.094-.934.306-.195.188-.288.447-.288.764v1.646c0 .435.104.741.3.941.196.2.507.294.922.294.415 0 .726-.094.922-.294.195-.188.3-.506.3-.929v-.353zm1.313 1.506v-3.034h-.703v-.764h2.19v.764h-.657v3.034h-.83zm3.63-.882v.882h.852v-3.798h-.852l-.761 2.387c0-.1.014-.23.031-.388l.015-.141c.058-.494.092-.8.092-.906v-.952h-.864v3.798h.876l.772-2.316c-.028.228-.052.457-.077.684-.027.252-.054.503-.084.75zm1.624-2.916h.887v1.282c0 .176.081.258.254.258a.738.738 0 00.334-.07v-1.47h.899v3.798h-.899v-1.6c-.127.048-.23.071-.334.083-.104.012-.23.024-.392.024a.72.72 0 01-.484-.188c-.184-.153-.265-.365-.265-.624v-1.493zm3.295 0v3.786h2.086v-.717H46.33v-.905h1.094v-.718H46.33v-.729h1.187v-.717H45.43zm4.252 2.292h.888v.353c0 .423-.104.74-.3.93-.196.187-.507.293-.922.293-.415 0-.726-.094-.922-.294-.196-.2-.3-.506-.3-.94v-1.647c0-.317.093-.576.289-.764.207-.212.518-.306.933-.306.404 0 .703.106.922.318.196.188.288.446.288.764v.34h-.899v-.422c0-.095-.034-.165-.103-.212a.388.388 0 00-.22-.083c-.08 0-.15.024-.207.071a.26.26 0 00-.092.212v1.905c0 .14.023.247.08.306.047.058.127.093.231.093a.327.327 0 00.242-.093c.058-.06.092-.165.092-.306v-.518zm1.672-2.292v3.786h.852v-.882l.242-.435.415 1.317h.945l-.83-2.116.83-1.67h-.98l-.622 1.505v-1.505h-.852zm4.585 3.798v-.882c.03-.247.058-.498.085-.75.025-.227.05-.456.077-.684l-.772 2.316h-.876v-3.798h.864v.952c0 .106-.035.412-.092.906l-.01.096-.005.045a3.993 3.993 0 00-.031.388l.76-2.387h.853v3.798h-.853zm3.18-.882v.882h.852v-3.798h-.852l-.76 2.387c0-.153.01-.329.034-.529l.022-.201c.044-.393.07-.623.07-.704v-.953h-.853v3.798h.876l.772-2.316c-.027.228-.052.456-.076.683v.002c-.028.252-.055.502-.085.75zm-.311-3.151c-.242 0-.438-.047-.565-.153-.15-.117-.23-.294-.219-.53h.346c0 .107.057.177.161.224.08.036.173.047.3.047s.219-.011.276-.047c.07-.035.127-.117.162-.223h.334c0 .223-.08.4-.242.517a.937.937 0 01-.553.165zm4.597 3.269h.576v-3.034h.9v3.034h.195v1.54h-.876v-.788h-1.693v-3.798h.898v3.046zm2.351-3.034v3.786h2.086v-.717h-1.187v-.905h1.094v-.718h-1.094v-.729h1.187v-.717h-2.086zm3.71 2.187v1.611h-.898v-3.798h.898V44h.588v-1.423h.899v3.798h-.899v-1.61h-.588zm2.156-1.423h.703v3.034h.83v-3.034h.656v-.764h-2.19v.764zm2.856 3.022v-3.786h1.302c.323 0 .565.07.738.212.23.188.345.505.345.94 0 .424-.115.741-.345.93-.185.152-.427.223-.738.223h-.403v1.481h-.899zm.888-2.151h.16a.426.426 0 00.3-.106c.081-.083.127-.212.127-.388 0-.177-.034-.294-.115-.365a.466.466 0 00-.323-.106h-.15v.965z" fill="#0F6EB4"/></svg>