<svg width="16" height="17" viewBox="0 0 16 17" fill="none" xmlns="http://www.w3.org/2000/svg"><g clip-path="url(#clip0_790_4470)" fill-rule="evenodd" clip-rule="evenodd" fill="#222A2F"><path d="M11.283 0c.34 0 .616.278.616.622v3.317a.619.619 0 01-.616.622.619.619 0 01-.615-.622V.622c0-.344.276-.622.615-.622zM4.717 0c.34 0 .615.278.615.622v3.317a.619.619 0 01-.615.622.619.619 0 01-.615-.622V.622c0-.344.275-.622.615-.622zM0 6.427c0-.344.276-.622.615-.622h14.77c.34 0 .615.278.615.622a.619.619 0 01-.615.622H.615A.619.619 0 010 6.427z"/><path d="M0 3.94c0-1.26 1.01-2.281 2.256-2.281h11.488c1.246 0 2.256 1.02 2.256 2.28v10.78C16 15.98 14.99 17 13.744 17H2.256C1.01 17 0 15.98 0 14.72V3.94zm2.256-1.037a1.03 1.03 0 00-1.025 1.036v10.78a1.03 1.03 0 001.025 1.037h11.488a1.03 1.03 0 001.025-1.036V3.94a1.03 1.03 0 00-1.025-1.037H2.256z"/></g><defs><clipPath id="clip0_790_4470"><path fill="#fff" d="M0 0h16v17H0z"/></clipPath></defs></svg>