<svg width="173" height="201" viewBox="0 0 173 201" fill="none" xmlns="http://www.w3.org/2000/svg"><path d="M62.083 20.037c-.995-.629-8.572-5.881-9.542-6.548-1.51-1.04-3.042-2.056-4.452-3.228-.596-.493-1.271-1.348-1.268-2.037.015-2.934-2.319-3.812-4.202-4.622-3.464-1.495-7.114-2.466-10.958-2.798-3.106-.267-4.952 1.243-6.518 3.476-3.303 4.712-3.31 9.83-1.484 15.047 1.712 4.892 4.113 9.442 7.264 13.559 1.711 2.237 2.833 4.625 2.296 7.849-1.126 1.137-2.528 2.425-3.78 3.849-2.167 2.463-4.423 4.877-6.313 7.548-3.132 4.421-6.984 7.867-11.771 10.353C7 64.745 3.838 68.161 2.39 73.005c-.112.38-.37.757-.354 1.13.156 3.706.347 7.408.548 11.11.033.63.219 1.34.257 1.876.346.624.2.576.73 1.01 1.771 1.454 2.57 2.13 4.196 3.735 2.192 2.158 3.575 4.863 4.317 7.88.988 4.022 1.753 8.052 1.977 12.236.119 2.294 1.454 4.505 2.11 6.791 1.477 5.133 3.069 10.244 4.22 15.457.59 2.659.452 5.506.422 8.267-.033 2.825-.578 5.661-.466 8.47.146 3.68-.75 7.115-2.174 10.332-2.2 4.971-1.555 9.204 1.26 13.841 3.778 6.233 9.818 8.93 15.762 11.996.965.497 1.946 1.02 2.785 1.702 2.968 2.41 6.122 4.463 9.702 5.838.936.358 1.376 1.16 1.327 2.241-.067 1.367.198 2.617 1.98 3.31 1.63-2.165 4.262-3.54 5.503-6.308.284-.629 1.007-1.322 1.649-1.473 2.759-.652 3.217-3.043 3.821-5.16.276-.964.66-1.518 1.38-2.056 2.946-2.2 4.773-5.002 5.13-8.832.112-1.183 1.09-2.467 2-3.36 2.117-2.071 4.399-3.977 6.688-5.856 1.104-.904 2.431-1.292 3.87-1.65 1.682-.418 3.323-1.556 4.647-2.753 1.868-1.688 3.986-2.818 6.185-3.929a31.773 31.773 0 008.807-6.534c2.7-2.848 5.963-4.301 10.045-3.273 1.932.486 4.016.945 5.948.708 3.702-.456 7.338-1.454 11.01-2.166 3.613-.696 5.974-3.51 8.949-5.28.984-.584 1.95-1.213 2.987-1.684 5.018-2.29 10.399-3.996 15.004-6.937 5.145-3.284 10.667-6.203 14.847-10.941 2.633-2.983 2.569-6.294 1.835-9.819-.388-1.865-2.025-2.614-3.382-3.337-5.586-2.983-10.411-6.926-14.672-11.567-2.23-2.433-3.781-5.287-3.587-8.824.093-1.691.208-3.416-.027-5.077-.391-2.76-2.792-4.727-5.548-4.693-1.927.023-3.851.279-5.779.347-3.151.113-3.356-1.496-3.546-3.567-.097-1.07-.306-2.132-.351-3.202-.033-.873-.126-1.864.213-2.613.925-2.053.682-4.173.44-6.226-.142-1.179-.873-2.407-1.633-3.375-2.718-3.453-5.328-7.043-8.419-10.131-3.617-3.616-7.372-7.122-12.037-9.521-6.614-3.405-13.06-7.13-19.601-10.685-4.825-2.625-9.847-4.787-15.09-6.433-1.48-.464-2.826-1.36-4.306-1.83-2.353-.747-4.654-.72-6.328 1.28-2.017-1.247-3.9-2.41-5.783-3.57" stroke="#222A2F" stroke-miterlimit="10" stroke-linecap="round" stroke-linejoin="round"/><path d="M120.244 130.793c.265-2.241.526-4.482.791-6.722a18.574 18.574 0 00-.472-.008 682.6 682.6 0 01-2-1.694c.091-.858.243-1.54.214-2.211-.055-1.167-.378-2.333-.32-3.484.298-5.75-.359-11.321-2.537-16.7-1.013-2.498-2.047-5.069-2.49-7.702-.628-3.722-1.038-7.58 1.372-10.987 2.287-3.234 3.202-7.026 3.136-10.815-.05-2.823-1.187-5.67-2.072-8.427-2.197-6.854-7.301-11.189-13.272-14.405-3.289-1.771-6.977-2.923-10.843-3.036a3.416 3.416 0 01-1.445-.367c-2.737-1.438-5.402-3.033-8.197-4.338-1.386-.646-3.013-.745-4.512-1.16-1.365-.377-2.704-.85-4.382-1.385-2.312 1.206-4.98 2.541-7.594 3.975-2.577 1.415-3.971 3.748-4.53 6.59-.367 1.866-1.332 3.476-2.944 4.151-4.044 1.683-6.32 4.837-7.965 8.68-.323.752-.718 1.471-1.081 2.205" stroke="#222A2F" stroke-width=".4" stroke-miterlimit="10" stroke-linecap="round" stroke-linejoin="round"/><path d="M89.956 132.583c1.151-1.159 12.179-8.514 13.595-8.708 4.581-.635 6.508-2.435 6.871-7.019.215-2.681.429-5.384.345-8.065-.163-5.335-1.862-10.345-3.354-15.42-1.336-4.548-1.706-9.029 1.292-13.437 2.03-2.978 3.427-6.513 3.191-10.382-.149-2.442-.247-4.888-.366-7.334-.008-.184.076-.448-.015-.54-2.022-1.98-2.563-5.002-4.861-6.835-1.43-1.14-2.544-2.68-3.858-3.98-.371-.362-.933-.55-1.438-.744-5.514-2.141-11.246-3.447-17.061-4.386-.581-.095-1.206.143-1.812.154-1.452.026-2.922.158-4.352-.025-2.425-.312-4.476-.21-6.233 2.002-1.728 2.175-3.83 4.089-5.98 5.857-.997.825-2.468 1.137-3.77 1.503-3.703 1.045-5.936 3.52-6.865 7.177-.508 2.002-.959 3.972-2.175 5.699-.326.466-.272 1.199-.395 1.812" stroke="#222A2F" stroke-width=".4" stroke-miterlimit="10" stroke-linecap="round" stroke-linejoin="round"/><path d="M90.477 117.407c1.916.469 3.706.455 5.085-1.28 1.322-1.661 2.843-3.191 3.935-4.987.94-1.544.857-3.525.008-5.072-2.222-4.053-4.596-8.02-7.068-11.922-1.017-1.6-1.518-3.121-1.064-4.977.309-1.265.305-2.644.795-3.825.476-1.144 1.314-2.174 2.138-3.128a587.409 587.409 0 018.161-9.175c1.27-1.405.544-2.938.33-4.405-.247-1.668-.78-3.293-1.045-4.958-.592-3.689-2.701-6.436-5.518-8.54-1.18-.88-2.959-1.237-4.483-1.303-4.168-.172-8.346-.084-12.52-.025-.549.007-1.224.322-1.612.722-2.854 2.934-6.814 3.87-10.168 5.879-1.623.971-3.293 2.075-4.502 3.498-2.022 2.38-1.361 6.821 1.038 8.934 1.133.997 2.324 1.929 3.442 2.944 2.276 2.076 2.196 5.34-.182 7.324-1.793 1.496-3.626 2.941-5.441 4.408" stroke="#222A2F" stroke-width=".4" stroke-miterlimit="10" stroke-linecap="round" stroke-linejoin="round"/><path d="M94.47 117.406h7.111c2.991-2.42 4.113-5.981 3.717-9.894-.421-4.169-1.369-8.302-3.245-12.087-.915-1.84-1.521-3.623-1.467-5.706.022-.847-.425-1.786-.878-2.552-1.307-2.208-1.285-3.294.762-5.505.904-.976 1.957-1.812 2.886-2.765 2.428-2.483 3.96-5.263 3.492-8.985-.534-4.21-.922-8.38-3.274-12.116-2.509-3.99-6.208-5.901-10.557-6.96-2.773-.68-5.51-.932-8.36-.404-1.52.282-3.245-.308-4.686.132-2.447.748-5.115 1.544-7.021 3.139-3.249 2.721-6.897 4.335-10.807 5.537-.813.25-1.063.58-1.503 1.288-1.953 3.135-2.421 6.498-2.57 10.121-.12 2.92-1.292 5.71-3.172 8.072" stroke="#222A2F" stroke-width=".4" stroke-miterlimit="10" stroke-linecap="round" stroke-linejoin="round"/><path d="M62.905 22.875c.788.843.69 1.1 1.594 2.068 1.143 1.078-1.895 2.996.595 4.427.578-.583 1.202-1.178 1.783-1.812.61-.667 3.768-.766 4.911-.187 2.225 1.126 4.429 2.321 6.723 3.279 2.915 1.217 5.954 2.141 8.869 3.359 1.942.814 3.76 1.932 5.64 2.9 1.326.683 2.669 1.332 3.99 2.025 2.066 1.085 4.095 2.24 6.182 3.278 1.289.642 2.672 1.075 3.983 1.676 1.771.814 3.648 1.5 5.241 2.597 3.79 2.61 7.311 5.633 9.598 9.707 2.16 3.843 3.983 7.888 5.809 11.911.432.957.312 2.178.403 3.279.141 1.708.384 3.425.326 5.134-.051 1.532-.032 3.315-.777 4.529-1.306 2.123-1.234 4.36-.918 6.461.675 4.474 2.487 8.655 5.423 12.062 2.669 3.099 3.601 6.784 4.549 9.846l7.369 7.991" stroke="#222A2F" stroke-width=".4" stroke-miterlimit="10" stroke-linecap="round" stroke-linejoin="round"/><path d="M49.638 21.32c1.95-2.168 3.089-2.293 5.456-.936 3.285 1.889 6.018 4.298 7.844 7.767-.493 1.313-.936 2.674.76 3.598 2.021-2.068 4.533-1.056 6.802-.642 3.194.583 6.335 1.544 9.438 2.534 1.877.598 3.82 1.291 5.424 2.395 4.918 3.385 10.237 5.878 15.827 7.83 6.138 2.145 10.814 5.995 15.021 11.07 4.091 4.937 5.725 10.555 7.373 16.419.646 2.296-.385 4.016-1.016 5.875-1.282 3.766-2.305 7.558-2.302 11.566 0 .613.196 1.229.352 1.834.835 3.242 1.659 6.487 2.559 9.714.218.774.716 1.467 1.064 2.208.374.789 1.133 1.654 1.02 2.373-.428 2.714.73 5.057 1.347 7.529.033.128.203.293.167.359-1.158 2.156.298 3.51 1.314 4.775h9.587c2.058 0 4.233-.426 6.139.113 2.189.617 4.123 2.131 6.211 3.173 1.256.627 2.595 1.089 4.396 1.833-.948.943-1.568 1.603-2.233 2.212-.951.876-1.945 1.701-2.893 2.578-.631.583-1.216 1.217-1.819 1.83m-18.359 7.892c-2.087.924-7.929 4.241-10.336 3.933-2.066-.264-4.233.172-6.364.458-3.768.503-6.864 2.644-10.494 3.341-5.834 1.119-11.602 2.501-17.614 2.431-1.263-.014-2.824.855-3.739 1.812-1.194 1.247-2.098 2.901-2.74 4.536-.872 2.208-2.153 3.503-4.589 3.484-.603-.003-1.205.25-1.808.385-1.51 1.621-3.038 3.257-4.748 5.094h-2.182c-.12 1.76-.04 3.4-.392 4.94-.356 1.562-1.14 3.029-1.837 4.782-3.88 3.249-8.69 4.265-13.903 3.847" stroke="#222A2F" stroke-width=".4" stroke-miterlimit="10" stroke-linecap="round" stroke-linejoin="round"/><path d="M111.894 138.492c-1.27.246-2.533.598-3.815.704-1.503.125-3.046.184-4.527-.033-.766-.113-1.441-.883-2.192-1.261-1.634-.902-3.307-1.735-4.886-2.728-1.652-1.038-2.781-.928-4.19.014-2.225 1.489-4.77 2.63-6.643 4.478-3.093 3.044-5.677 6.605-8.628 9.806-1.717 1.863-3.122 3.015-5.032 4.687-.846.744-2.74 1.503-3.63 2.2-1.481 1.163-1.452 3.301-1.815 4.401m-1.089-.183c-1.452.366-2.723.222-4.156 3.967-1.29 3.367-4.073 5.798-7.66 6.957-.309.099-.606.238-1.107.44-2.066-1.936-4.785-.642-7.239-1.188-.2-.044-.366-.235-.548-.356M67.97 66.434c.268 1.537.54 3.07.729 4.152 1.488 1.1 2.585 2.06 3.819 2.794 3.521 2.09 6.527 4.958 10.317 6.66 3.445 1.544 8.247.106 9.518-3.866.875-2.735 2.624-5.189 3.5-7.928 1.194-3.737-.593-8.97-4.11-10.25-.127-.048-.24-.169-.363-.176-3.51-.132-7.042-.54-10.516-.25-1.692.14-3.282 1.578-4.908 2.447-1.1.59-2.146 1.298-3.278 1.811-2.11.957-3.935 2.182-4.894 4.42m-5.624 79.944c.788-.488 1.623-.913 2.35-1.478 2.145-1.676 4.2-3.469 6.374-5.105 2.548-1.918 3.565-4.943 5.387-7.386 2.218-2.97 4.41-5.79 7.398-8.148 3.13-2.472 5.576-5.839 8.24-8.886 1.086-1.24 1.946-2.681 2.926-4.016 1.336-1.819.82-4.309-.54-5.691-2.2-2.237-4.393-4.489-6.531-6.788-1.844-1.98-4.48-2.329-6.727-3.47-3.038-1.54-6.17-1.415-9.449-.817-1.735.315-3.62-.308-5.43-.26-3.743.095-7.29.806-10.005 3.802-.835.92-1.906 1.618-2.886 2.402-3.184 2.553-5.333 5.839-6.498 9.73-.512 1.708-.642 3.535-.944 5.306-.486 2.871-1.18 5.728-1.397 8.622-.258 3.44-1.685 6.491-2.578 9.718-.348 1.254-.519 2.56-.737 3.847a38.71 38.71 0 00-.363 2.75c-.355 3.594.632 6.957 1.84 10.257.273.745.901 1.354 1.308 1.937 2.66-.825 5.02-1.562 7.376-2.296M30.216 61.484c.098 1.36-.294 2.41-1.43 3.327-3.528 2.849-7.616 4.697-11.67 6.498-3.464 1.537-5.126 3.814-5.479 7.587-.33 3.565.774 6.664 2.49 9.498 1.583 2.612 1.86 5.512 2.625 8.303 1.053 3.825 1.63 7.749 1.87 11.724.09 1.537.297 3.11.762 4.566.283.898 1.06 1.709 1.779 2.376.911.844 1.99 1.504 2.973 2.226h1.543" stroke="#222A2F" stroke-width=".4" stroke-miterlimit="10" stroke-linecap="round" stroke-linejoin="round"/><path d="M46.189 86.42l-3.812 1.103c-5.71-4.76-12.012-8.361-19.958-7.353-.287.576-.567 1.14-.9 1.816.504 1.327 1.056 2.79 1.619 4.25 1.87 4.819 6.026 7.448 9.79 10.462 1.205.969 2.501 1.922 3.412 3.14 1.322 1.771.9 3.931.803 6.018-.215 4.518-.23 9.047-.403 13.565-.182 4.635-.53 9.256-1.79 13.755-.094.342.004.73-.015 1.097-.177 3.484-.613 6.979-.457 10.448.113 2.527.911 5.042 1.583 7.51.414 1.519 1.198 2.934 1.775 4.412.878 2.255 2.523 3.88 4.567 4.896 2.185 1.085 4.57 1.148 6.875.062.149-.069.36-.007.54-.007M48.186 18.026c-1.068-2.835-3.627-4.584-6.716-4.584h-2.722c-1.238-2.211-2.843-3.78-5.83-3.205-2.03.964-1.852 3.073-1.972 5.039-.28 4.62.509 8.977 2.868 13.037 1.256 2.16 2.11 4.562 3.34 6.74.599 1.06 1.71 1.812 2.483 2.787.74.94 1.343 1.995 2.004 2.996-.178.037-.356.074-.534.114 0 1.709-.09 3.425.022 5.127.189 2.857-.512 5.413-2.2 7.701m41.201 5.873c-2.24 1.896-4.49 3.774-6.708 5.692-.94.814-1.318 1.852-.922 3.11.13.407.174.843.236 1.162 1.092.847 2.181 1.643 3.212 2.508 2.643 2.227 5.63 3.785 9.08 3.774 2.286-.007 3.92-1.577 5.096-3.587 1.583-2.706 1.677-5.684 1.365-8.617-.193-1.82-2.055-2.535-3.572-3.081a25.835 25.835 0 00-5.434-1.287c-1.877-.239-3.71 0-5.286 1.393a13.673 13.673 0 01-3.434 2.2c-3.213 1.438-4.23 4.618-1.946 7.148 1.75 1.944 3.688 3.792 5.816 5.285 1.793 1.258 3.982 1.943 5.924 2.849 2.577-.15 5.21-.235 7.703-3.473.722-2.435 1.695-6.04 2.897-9.56.388-1.145.218-1.904-.407-2.773-.686-.96-1.31-1.969-2.054-3.095-3.453-.187-6.963-.378-10.477-.565" stroke="#222A2F" stroke-width=".4" stroke-miterlimit="10" stroke-linecap="round" stroke-linejoin="round"/><path d="M39.654 69.914c-3.622 1.614-6.842 3.986-10.505 5.549-1.917.817-3.87.898-5.83 1.015-2.563.154-4.603 1.137-6.385 3.638 1.238 3.855 2.584 7.903 3.837 11.985 1.735 5.67 3.612 11.313 5.016 17.067.94 3.851 2.248 7.514 3.656 11.185.657 1.72.955 3.634 1.1 5.483.261 3.289.472 6.604.348 9.898-.123 3.307-.62 6.608-1.049 9.901-.57 4.379.142 8.578 1.67 12.645.813 2.171 1.26 4.554 3.064 6.241" stroke="#222A2F" stroke-width=".4" stroke-miterlimit="10" stroke-linecap="round" stroke-linejoin="round"/><path d="M33.847 65.148c-2.302 1.618-3.688 4.262-6.331 5.542-1.68.814-3.096 2.174-4.766 3.021-.94.48-2.2.28-3.228.639a20.57 20.57 0 00-3.811 1.819c-2.469 1.496-1.478 3.923-1.013 5.823.755 3.077 2.11 6.003 3.17 9.01.533 1.511 1.223 3.022 1.415 4.588.58 4.72 1.597 9.337 2.766 13.928.185.734.476 1.46.523 2.201.112 1.76.893 3.098 2.185 4.232.512.447.86 1.081 1.285 1.632m35.03 23.845c.606-.121 1.314-.08 1.797-.392 4.262-2.758 8.538-5.563 11.427-9.891 4.11-6.157 9.562-11.17 13.973-17.056 1.201-1.603 2.069-3.462 3.096-5.211-.272-.668-.374-1.306-.73-1.72-2.352-2.747-4.867-5.318-8.516-6.238-2.381-.601-4.447-2.24-7.075-2.054-1.746.125-3.514-.07-5.26.048-2.305.15-4.6.462-6.897.715-.367.04-.78.022-1.082.194-5.409 3.118-10.338 6.763-12.124 13.203-.81 2.919-1.111 5.981-1.688 8.97-.378 1.965-.919 3.898-1.245 5.871-.494 2.981-.959 5.977-1.256 8.985-.186 1.877-.113 3.791-.015 5.68.138 2.633 1.583 3.48 4.156 2.574.164-.058.36-.007.541-.007" stroke="#222A2F" stroke-width=".4" stroke-miterlimit="10" stroke-linecap="round" stroke-linejoin="round"/><path d="M64.173 134.057c-.35.229-7.906 2.885-8.346 2.974-1.87.663-4.183.048-4.284-1.879-.07-1.382-.124-2.783.01-4.157.217-2.2.555-4.393.913-6.574.237-1.444.63-2.859.904-4.297.42-2.187.638-4.428 1.226-6.564 1.297-4.713 4.877-7.38 8.805-9.661.219-.126.52-.113.786-.142 1.668-.186 3.334-.414 5.008-.524 1.268-.086 2.552.057 3.82-.035 1.909-.137 3.409 1.063 5.138 1.503 2.65.674 4.477 2.555 6.185 4.565.258.303.332.77.53 1.259-.746 1.28-1.376 2.64-2.249 3.813-3.203 4.307-7.163 7.976-10.147 12.482-2.098 3.166-5.204 5.219-8.299 7.237z" stroke="#222A2F" stroke-width=".4" stroke-miterlimit="10" stroke-linecap="round" stroke-linejoin="round"/><path d="M66.6 126.106c-.217.143-4.898 1.8-5.17 1.855-1.159.413-2.593.03-2.654-1.172-.045-.862-.077-1.736.006-2.593.134-1.372.343-2.74.565-4.101.147-.9.39-1.782.56-2.679.26-1.365.396-2.762.76-4.095.803-2.939 3.021-4.603 5.455-6.026.136-.078.322-.07.487-.089 1.034-.115 2.066-.257 3.103-.326.786-.053 1.581.035 2.367-.022 1.182-.085 2.112.663 3.183.938 1.641.42 2.773 1.593 3.832 2.847.16.189.206.48.328.785-.462.798-.852 1.647-1.393 2.379-1.985 2.686-4.438 4.974-6.287 7.785-1.3 1.975-3.224 3.256-5.141 4.514z" stroke="#222A2F" stroke-width=".4" stroke-miterlimit="10" stroke-linecap="round" stroke-linejoin="round"/><path d="M69.305 117.749c-.092.059-2.063.744-2.177.767-.488.171-1.092.013-1.118-.485a7.156 7.156 0 01.003-1.073 25.64 25.64 0 01.238-1.697c.062-.372.164-.737.236-1.108.11-.565.166-1.143.32-1.695.338-1.216 1.272-1.904 2.296-2.493.058-.033.136-.029.205-.037.436-.048.87-.107 1.307-.135.33-.022.666.015.997-.009.497-.035.889.274 1.34.388.691.174 1.168.659 1.613 1.178.068.078.087.199.139.325-.195.33-.36.682-.587.984-.836 1.112-1.869 2.059-2.647 3.222-.547.817-1.358 1.347-2.165 1.868zm68.725 18.548c-3.328 1.955-6.635 3.946-9.997 5.842-.748.422-1.666.653-2.53.733-2.886.272-5.805.261-8.538 1.467-.407.18-.959.051-1.441.018-1.351-.088-2.501.22-3.656 1.068-2.2 1.617-4.61 1.426-7.068.44-.628-.253-1.564-.29-2.138.007-1.877.976-3.692 2.094-5.46 3.268-3.056 2.031-6.105 4.077-9.064 6.248-1.39 1.02-2.926.624-4.385.84-.991.147-2.051-.183-3.26-.319-2.588 1.962-5.547 3.744-7.91 6.132-2.113 2.131-3.822 4.819-4.233 7.991-.352 2.728-1.484 4.793-4.2 5.666-.87.278-1.797.377-2.962.616-1.6 3.99-5.394 6.531-8.44 9.854h-1.517l-.97-3.829c-.787-.172-1.724-.308-2.62-.587-1.409-.436-2.904-.763-4.153-1.5-1.91-1.129-3.964-1.8-6.015-2.519m-11.249-59.78c1.444 1.262 1.506 3.103 1.775 4.775.4 2.479.69 5.002.719 7.51.029 2.505-.29 5.013-.505 7.518-.443 5.248-1.594 10.459-.897 15.769.7 5.343 1.812 10.569 4.723 15.216.294.469.635 1.012 1.096 1.261 1.29.693 2.647 1.251 3.979 1.863" stroke="#222A2F" stroke-width=".4" stroke-miterlimit="10" stroke-linecap="round" stroke-linejoin="round"/><path d="M43.285 76.883c-1.696.55-3.355 1.309-5.09 1.606-3.35.572-6.73.891-10.16.447-2.846-.37-5.74-.583-8.608.275-.526 3.198.698 5.707 2.091 8.12 3.707 6.414 7.319 12.85 9.098 20.17.925 3.813 1.691 7.616 1.815 11.559.058 1.841.591 3.663.66 5.504.084 2.318-.014 4.65-.163 6.964-.24 3.734-.6 7.456-.89 11.185-.42 5.398.97 10.393 2.796 15.443 1.473 4.078 4.298 6.143 7.91 7.661" stroke="#222A2F" stroke-width=".4" stroke-miterlimit="10" stroke-linecap="round" stroke-linejoin="round"/><path d="M52.36 94.117c-4.113 5.112-7.94 10.415-10.128 16.701-.606 1.745-.817 3.645-1.115 5.49-.758 4.639-1.089 9.391-2.301 13.902-1.024 3.799-1.441 7.529-1.347 11.402.054 2.2.022 4.4.007 6.601-.01 2.09.44 3.971 1.986 5.515 1.158 1.155 2.138 2.486 3.296 3.638 1.256 1.247 2.585 1.342 3.957.172 1.503-1.28 3.3-1.599 5.104-1.991m49.185-37.594c-3.568 2.567-7.14 5.134-10.709 7.705-.316.227-.733.422-.889.741-1.242 2.512-3.322 4.202-5.46 5.867-2.791 2.179-4.908 4.988-6.886 7.889-.951 1.393-1.597 3.007-2.585 4.367-1.455 2.003-3.278 3.55-5.746 3.51-2.25 2.574-4.4 5.053-6.585 7.499-.254.283-.712.382-1.075.565M49.275 21.694c-.545-.43-1.238-.756-1.605-1.302-1.027-1.533-2.378-2.223-4.196-2.42-1.184-.129-2.302-.811-3.456-1.226-1.01-.359-2.033-.685-3.002-1.012-2.316 1.416-1.834 3.616-1.685 5.593.363 4.87 2.76 8.87 5.594 12.655 1.84 2.458 2.313 2.854 7.609 5.292.17 1.467.526 3.129.53 4.793.007 3.756.323 7.507-.984 11.211-.748 2.12-2.457 3.18-3.703 4.742m-20.332 57.933c1.575 3.044 2.203 6.304 2.182 9.718-.018 3.238.221 6.499-.058 9.715-.393 4.54-1.227 9.043-1.728 13.576-.207 1.87-.127 3.792-.008 5.677.124 1.903.549 3.784.675 5.688.153 2.303 1.55 4.052 2.386 6.047.283.678.602 1.346.903 2.017" stroke="#222A2F" stroke-width=".4" stroke-miterlimit="10" stroke-linecap="round" stroke-linejoin="round"/><path d="M89.956 132.586c-1.333.733-2.486 1.545-3.84 2.235-3.386 1.723-6.073 4.063-7.663 7.69-1.252 2.86-2.759 5.669-5.42 7.51-1.107.767-2.428 1.199-3.608 1.87-2.828 1.61-4.948 3.921-6.56 6.763a19.268 19.268 0 01-2.37 3.282m32.885-43.983c-4.9 4.889-9.913 9.671-14.654 14.717-2.334 2.482-4.273 5.38-6.193 8.222-2.799 4.147-7.231 6.388-10.742 9.692-.065.063-.236.007-.355.007M55.809 30.673c-.418-2.608-1.492-4.647-4.513-5.142-1.288.987-2.773.95-4.392.407-1.22-.41-2.523-.425-3.637.536.798 4.206 3.619 6.685 7.3 8.185 2.243.913 4.733-1.063 5.242-3.8M33.846 87.337c0-.184.08-.433-.01-.54-1.638-1.928-3.696-3.197-6.168-3.626-.548-.096-1.354.3-1.746.737-.218.242.069 1.107.326 1.58.461.84 1.075 1.596 1.39 2.058 1.914.81 3.518 1.492 5.272 2.237.366-.745.744-1.504 1.118-2.263" stroke="#222A2F" stroke-width=".4" stroke-miterlimit="10" stroke-linecap="round" stroke-linejoin="round"/><path d="M61.072 36.908c.588-.613 1.507-1.086.94-2.211-1.807.066-3.51-.063-4.704-1.841.494-.638.947-1.222 1.5-1.926v-1.954c-.825-1.354-1.616-2.659-2.411-3.964-4.207-3.264-5.663-3.301-7.315.01l-3.361-3.66c-1.764-.77-4.059.653-6.51.532.208.411.444.66.437.899-.153 4.327 2.297 7.705 4.32 11.108.79 1.331 3.016 1.793 4.591 2.64.287.154.603.25.904.37m78.948 81.042c2.498 2.534 5.144 4.955 6.709 8.255.947 1.995 1.292 4.023.018 6.055-1.03 1.477-5.253 4.569-6.021 4.956M82.671 69.37c.243-.968 1.01-1.9.12-2.974-.483-.14-1.03-.297-2.018-.584-.15.679-.407 1.38-.436 2.09-.054 1.321.937 1.636 1.975 1.834m-34.127 6.228c.367.22.734.444 1.362.822v-2.747h-1.162c-.109.499-.247 1.122-.381 1.742m13.25 74.629v-1.558h-1.361v2.746c.628-.381.994-.601 1.36-.821m-6.171 16.322c-.192.392-.388.781-.58 1.174l-.444-.096c-.373-.887-.602-1.764.578-2.615.156.474.3.914.446 1.354M53.63 90.453c.669-.062 1.297.044 1.046.903-.09.304-.69.454-1.318.836v-2.934c.621.187 1.082.323 1.543.462m-3.993 76.272v2.574c-1.568-1.074-1.416-1.969-.726-2.941m-11.253 7.341l1.532-.396.479.781c-.715.378-1.43.756-2.149 1.134.098.172.196.341.29.513.552.059 1.108.114 1.66.172m-3.99-112.227l1.532-.396.48.781-2.15 1.133c.098.172.196.341.29.514.553.058 1.108.113 1.66.172m12.708 80.134c-.305.638-.418 1.265.544 1.265.963 0 .85-.627.545-1.265m-5.264-68.768V74.25c-.138.004-.275.007-.413.007l-1.503 1.519h2.646m11.794 87.099l-2.54 2.017M42.922 68.266c-.062.429-.12.854-.182 1.283-.425-.12-.846-.246-1.27-.367m72.601 65.459c-.062.429-.12.854-.181 1.283-.425-.121-.846-.246-1.271-.367m-60.622 13.201h1.724l-1.18 2.384m60.804-16.684c.323-.128.65-.257.973-.389l-.109-.553-1.59.209M42.196 68.083c.323-.128.65-.257.973-.389l-.11-.553-1.59.209" stroke="#222A2F" stroke-width=".4" stroke-miterlimit="10" stroke-linecap="round" stroke-linejoin="round"/><path d="M52.542 144.544c-.367-1.009-.915-.54-1.528-.239.334 1.082.87.998 1.528.422m-4.357 21.82c-.294.132-.591.26-.885.392.112.176.225.349.341.525h.908m.181-1.839v2.567m5.445-24.2c-.254.77-.505 1.544-.81 2.476h1.862c-.511-.884.6-1.981-.87-2.476m2.359 0c-.254.77-.505 1.544-.81 2.476h1.863c-.512-.884.599-1.981-.872-2.476m4.538-54.64c-.254.77-.504 1.543-.809 2.475h1.862c-.512-.884.6-1.98-.871-2.475m-2.723 0c-.255.77-.505 1.543-.81 2.475h1.862c-.512-.884.6-1.98-.871-2.475m-2.722 0c-.254.77-.504 1.543-.81 2.475h1.863c-.512-.884.6-1.98-.871-2.475m-27.77-3.664c-.09.707-.066.762.726 1.466 1.07-.964.759-1.4-.545-1.466" stroke="#222A2F" stroke-width=".4" stroke-miterlimit="10" stroke-linecap="round" stroke-linejoin="round"/><path d="M24.227 81.281c-1.34.825-1.597 1.746-.385 2.956.334.334.327.99.581 1.438.5.88.893 1.984 1.655 2.523 1.95 1.379 4.044 2.56 6.15 3.693 1.26.678 4.287-.99 4.89-2.542.097-.253.243-.488.399-.8-1.34-4.165-4.988-5.133-8.57-6.157-1.496-.429-3.025-.744-4.535-1.11m34.845 62.71c-.247.752-.494 1.504-.81 2.476h1.862c-.511-.884.6-1.981-.87-2.476m-4.175 4.766c-.255.77-.505 1.544-.81 2.475h1.862c-.512-.884.6-1.98-.87-2.475m-1.634-74.805c-.254.77-.504 1.544-.81 2.475h1.863c-.512-.883.6-1.98-.871-2.475m-2.723 0c-.254.77-.504 1.544-.81 2.475h1.863c-.512-.883.6-1.98-.871-2.475m6.353 74.805c-.255.77-.505 1.544-.81 2.475h1.862c-.511-.884.6-1.98-.87-2.475M49.82 66.984c-.255.77-.505 1.544-.81 2.476h1.862c-.512-.884.599-1.98-.871-2.476m-2.723 0c-.254.77-.504 1.544-.81 2.476h1.863c-.512-.884.599-1.98-.871-2.476m-2.724 0c-.254.77-.504 1.544-.81 2.476h1.863c-.512-.884.599-1.98-.871-2.476m37.028-4.039c-1.39.98-2.854 1.87-4.153 2.963-.97.81-.98 1.98-.381 3.088 1.415 2.619 3.735 3.704 6.708 3.1.454-.093 1.104-.375 1.23-.73.6-1.673 1.046-3.397 1.562-5.164-.955-2.054-2.955-2.432-4.785-3.073M45.1 62.578c-.247.752-.494 1.504-.81 2.475h1.862c-.512-.883.6-1.98-.87-2.475m-2.723 0c-.255.77-.505 1.544-.81 2.475h1.862c-.512-.883.6-1.98-.871-2.475m-2.723 0c-.254.77-.504 1.544-.809 2.475h1.862c-.512-.883.6-1.98-.871-2.475" stroke="#222A2F" stroke-width=".4" stroke-miterlimit="10" stroke-linecap="round" stroke-linejoin="round"/><path d="M81.038 60.75c-1.619.51-2.552 1.76-3.47 3.102-.86 1.251-1.899 2.373-2.82 3.503 1.92 5.005 5.52 7.048 10.465 6.942.548-.011 1.227-.195 1.612-.55 2.167-2.017 3.742-6.66 2.577-9.517-.494-1.21-1.216-1.973-2.552-2.215-1.891-.345-3.754-.836-5.63-1.261" stroke="#222A2F" stroke-width=".4" stroke-miterlimit="10" stroke-linecap="round" stroke-linejoin="round"/><path d="M80.311 55.61c-1.572.854-3.154 1.694-4.715 2.57-2.487 1.394-4.984 2.773-7.438 4.225-3.293 1.947-3.213 2.879-2.578 6.78.313 1.93 1.681 3.033 2.977 3.968 2.643 1.911 5.536 3.462 8.299 5.208.61.385 1.248.869 1.615 1.467 1.477 2.398 3.416 4.118 6.64 4.793.863-.558 2.029-1.298 3.187-2.061.617-.407 1.158-1.009 1.826-1.254 3.622-1.331 5.84-4.126 7.58-7.379a6.33 6.33 0 00.718-2.915c-.014-2.934-.084-5.879-.356-8.798-.272-2.923-2.443-4.962-5.209-5.926-1.982-.693-3.819-.602-5.837-.389-2.142.224-4.35-.165-6.527-.29M52.179 165.812c1.488.683 1.11 1.511.116 2.443-.897-.653-.893-1.408-.298-2.259m-9.801 6.598c-.254.77-.504 1.544-.81 2.475h1.863c-.512-.884.599-1.98-.871-2.475m2.358 0c-.254.77-.504 1.544-.81 2.475h1.863c-.512-.884.599-1.98-.871-2.475m2.36 0c-.254.77-.504 1.544-.81 2.475h1.863c-.512-.884.599-1.98-.871-2.475m73.509-39.235c-.254.77-.505 1.544-.81 2.476h1.862c-.511-.884.599-1.981-.871-2.476m-2.721 0c-.254.77-.505 1.544-.81 2.476h1.862c-.511-.884.599-1.981-.871-2.476m-2.723 0c-.254.77-.505 1.544-.81 2.476h1.862c-.511-.884.599-1.981-.871-2.476" stroke="#222A2F" stroke-width=".4" stroke-miterlimit="10" stroke-linecap="round" stroke-linejoin="round"/><rect x="35.25" y="55.75" width="38.5" height="38.5" rx="19.25" fill="#fff"/><path fill-rule="evenodd" clip-rule="evenodd" d="M50.884 77.387c.515 0 1 .106 1.424.319A4.375 4.375 0 0156.626 74c2.38 0 4.318 1.914 4.38 4.283a2.907 2.907 0 012.53 2.901 2.913 2.913 0 01-2.91 2.916h-9.742a3.354 3.354 0 01-3.348-3.356c0-1.854 1.5-3.357 3.348-3.357z" stroke="#222A2F" stroke-width="1.5" stroke-linecap="round" stroke-linejoin="round"/><path d="M53.46 65.798v-.8m5.1 2.912l.56-.57M45.46 73h.8m1.55-5.66l.56.57m7.923 2.262A4 4 0 0049.464 73" stroke="#222A2F" stroke-width="1.5" stroke-linecap="round" stroke-linejoin="round"/><rect x="35.25" y="55.75" width="38.5" height="38.5" rx="19.25" stroke="#222A2F" stroke-width="1.5"/><rect x="83.25" y="55.75" width="38.5" height="38.5" rx="19.25" fill="#fff"/><path d="M109.386 66.656L95.924 69.44v.864l6.298-1.303v4.28h-4.598a14.622 14.622 0 00-.546 3.967c0 1.376.184 2.661.528 3.904h10.098a14.72 14.72 0 00-.018-7.872h-4.599v-4.457l6.299-1.303v-.864zM98.024 77.248a13.7 13.7 0 01.365-3.152h1.766v4.752h-2.038a13.907 13.907 0 01-.093-1.6zm8.897-3.152c.243 1.026.365 2.08.365 3.152 0 .539-.032 1.072-.093 1.6h-2.038v-4.752h1.766zm-2.631 0v4.752h-3.27v-4.752h3.27z" fill="#222A2F"/><rect x="83.25" y="55.75" width="38.5" height="38.5" rx="19.25" stroke="#222A2F" stroke-width="1.5"/><rect x="35.25" y="103.75" width="38.5" height="38.5" rx="19.25" fill="#fff"/><mask id="mask0_345_4378" style="mask-type:alpha" maskUnits="userSpaceOnUse" x="40" y="111" width="25" height="24"><path fill="#D9D9D9" d="M40.5 111h24v24h-24z"/></mask><g mask="url(#mask0_345_4378)"><path d="M59 134a7.78 7.78 0 01-1.262-.1 7.14 7.14 0 01-1.188-.3l-14.05-5.125.5-1.425 6.9 2.525 1.725-4.45-3.575-3.725a1.894 1.894 0 01-.537-1.663c.091-.641.42-1.129.987-1.462l3.475-2a2.03 2.03 0 01.863-.288c.291-.025.579.021.862.138.283.1.53.258.738.475.208.217.362.475.462.775l.325 1.075a4.97 4.97 0 001.063 1.9c.491.55 1.079.967 1.762 1.25l.525-1.6 1.425.45-1.125 3.45a6.872 6.872 0 01-3.275-1.45 6.858 6.858 0 01-2.1-2.85l-2.525 1.45L54 124.5l-2.225 5.75 3.1 1.125 2.1-6.425c.233.083.467.158.7.225.233.067.475.125.725.175l-2.125 6.55.775.275c.3.1.613.179.938.238.325.058.662.087 1.012.087.433 0 .846-.042 1.238-.125a5.49 5.49 0 001.137-.375l1.125 1.125a7.6 7.6 0 01-1.675.65A7.3 7.3 0 0159 134zm-2-16.5c-.55 0-1.02-.196-1.412-.588A1.923 1.923 0 0155 115.5c0-.55.196-1.021.588-1.413A1.926 1.926 0 0157 113.5c.55 0 1.021.196 1.413.587.391.392.587.863.587 1.413s-.196 1.021-.587 1.412A1.927 1.927 0 0157 117.5z" fill="#1C1B1F"/></g><rect x="35.25" y="103.75" width="38.5" height="38.5" rx="19.25" stroke="#222A2F" stroke-width="1.5"/><rect x="83.25" y="103.75" width="38.5" height="38.5" rx="19.25" fill="#fff"/><path d="M106.5 121.291l3.475-2.142a1 1 0 011.525.851v6.997a1 1 0 01-1.525.851l-3.475-2.142" stroke="#222A2F" stroke-width="1.7" stroke-linecap="round" stroke-linejoin="round"/><rect x="93.5" y="117" width="13" height="13" rx="3" stroke="#222A2F" stroke-width="1.7" stroke-linecap="round" stroke-linejoin="round"/><rect x="83.25" y="103.75" width="38.5" height="38.5" rx="19.25" stroke="#222A2F" stroke-width="1.5"/></svg>