<svg width="49" height="66" viewBox="0 0 49 66" fill="none" xmlns="http://www.w3.org/2000/svg"><path d="M24.396 29.406C10.943 29.406 0 40.35 0 53.802V66h48.792V53.802c0-13.452-10.943-24.396-24.396-24.396zm-4.574 33.98H2.614v-9.584c0-10.442 7.386-19.19 17.208-21.296v30.88zm6.534 0h-3.92V32.11a21.646 21.646 0 013.92 0v31.277zm19.822 0H28.97v-30.88c9.822 2.106 17.208 10.856 17.208 21.296v9.584zM24.396 22.218c6.136 0 11.109-4.973 11.109-11.11C35.505 4.974 30.532 0 24.396 0S13.287 4.973 13.287 11.109s4.973 11.109 11.109 11.109zm0-19.604c4.683 0 8.495 3.812 8.495 8.495s-3.812 8.495-8.495 8.495-8.495-3.812-8.495-8.495 3.812-8.495 8.495-8.495z" fill="#222A2F"/><path d="M41.6 51.624h-7.832v2.614H41.6v-2.614z" fill="#222A2F"/></svg>