<svg width="134" height="154" viewBox="0 0 134 154" fill="none" xmlns="http://www.w3.org/2000/svg"><path d="M47.598 15.649c-.773-.479-6.653-4.473-7.405-4.98-1.172-.79-2.361-1.564-3.455-2.454-.463-.375-.986-1.026-.984-1.55.012-2.23-1.8-2.898-3.26-3.514-2.689-1.137-5.521-1.876-8.505-2.128-2.41-.203-3.842.945-5.057 2.644-2.564 3.583-2.57 7.475-1.152 11.441 1.328 3.72 3.191 7.18 5.636 10.31 1.329 1.702 2.2 3.517 1.783 5.969-.874.865-1.962 1.844-2.934 2.927-1.681 1.873-3.432 3.709-4.899 5.74-2.43 3.361-5.42 5.982-9.135 7.872-3.38 1.719-5.833 4.316-6.956 8-.086.288-.286.575-.275.858.122 2.819.27 5.634.426 8.45.026.477.17 1.018.2 1.425.268.475.155.438.566.769 1.374 1.105 1.994 1.62 3.256 2.84 1.701 1.641 2.775 3.697 3.35 5.991.767 3.059 1.36 6.123 1.534 9.305.093 1.744 1.128 3.426 1.638 5.164 1.146 3.904 2.381 7.79 3.275 11.754.457 2.022.35 4.187.327 6.286-.026 2.148-.448 4.305-.361 6.441.112 2.798-.582 5.41-1.687 7.856-1.708 3.78-1.207 6.999.978 10.525 2.93 4.74 7.618 6.79 12.23 9.122.75.378 1.51.776 2.162 1.294 2.303 1.833 4.751 3.394 7.529 4.439.726.272 1.067.882 1.03 1.704-.052 1.04.153 1.991 1.536 2.518 1.265-1.647 3.308-2.692 4.271-4.797.22-.479.781-1.006 1.28-1.12 2.14-.496 2.496-2.314 2.965-3.924.214-.733.512-1.154 1.07-1.564 2.286-1.672 3.704-3.803 3.982-6.716.087-.899.845-1.875 1.551-2.554 1.644-1.575 3.414-3.025 5.19-4.454.857-.687 1.887-.982 3.004-1.254 1.305-.318 2.578-1.183 3.606-2.094 1.45-1.283 3.093-2.142 4.8-2.987a24.626 24.626 0 006.835-4.969c2.094-2.165 4.626-3.27 7.795-2.488 1.498.369 3.116.718 4.615.538 2.873-.347 5.694-1.105 8.544-1.647 2.804-.53 4.636-2.669 6.945-4.015.764-.444 1.513-.922 2.317-1.28 3.895-1.742 8.07-3.039 11.644-5.276 3.993-2.497 8.278-4.717 11.522-8.32 2.043-2.268 1.993-4.785 1.423-7.466-.3-1.417-1.571-1.987-2.624-2.537-4.334-2.268-8.079-5.267-11.386-8.795-1.73-1.85-2.934-4.021-2.783-6.71.072-1.287.162-2.598-.021-3.861-.304-2.1-2.167-3.594-4.305-3.569-1.496.017-2.989.212-4.485.264-2.445.086-2.604-1.137-2.752-2.712-.075-.814-.237-1.621-.272-2.435-.026-.664-.098-1.417.165-1.987.718-1.561.53-3.174.341-4.734-.11-.897-.677-1.83-1.267-2.566-2.109-2.627-4.135-5.356-6.534-7.705-2.806-2.749-5.72-5.415-9.34-7.24-5.133-2.589-10.136-5.421-15.21-8.125a66.262 66.262 0 00-11.71-4.891c-1.15-.353-2.194-1.034-3.343-1.392-1.826-.567-3.611-.547-4.91.974l-4.488-2.716" stroke="#fff" stroke-width="1.5" stroke-miterlimit="10" stroke-linecap="round" stroke-linejoin="round"/><path d="M91.503 98.23l.598-4.997c-.118-.002-.238-.005-.356-.005-.55-.455-1.095-.91-1.512-1.26.069-.638.184-1.145.162-1.644-.041-.867-.286-1.733-.242-2.59.225-4.274-.271-8.415-1.918-12.415-.765-1.856-1.547-3.767-1.882-5.725-.474-2.767-.784-5.635 1.037-8.168 1.729-2.404 2.42-5.223 2.371-8.04-.038-2.099-.897-4.214-1.567-6.265-1.66-5.095-5.517-8.317-10.03-10.708-2.486-1.317-5.274-2.173-8.196-2.258a2.616 2.616 0 01-1.092-.272c-2.069-1.069-4.083-2.255-6.195-3.225-1.048-.48-2.277-.554-3.41-.862-1.032-.28-2.045-.632-3.312-1.03-1.748.897-3.765 1.889-5.74 2.955-1.948 1.052-3.002 2.786-3.424 4.899-.277 1.388-1.007 2.585-2.225 3.086-3.057 1.251-4.777 3.596-6.02 6.453-.244.559-.543 1.093-.818 1.639" stroke="#fff" stroke-width=".4" stroke-miterlimit="10" stroke-linecap="round" stroke-linejoin="round"/><path d="M68.614 99.558c.87-.862 9.205-6.33 10.275-6.474 3.463-.471 4.92-1.81 5.194-5.218.162-1.993.324-4.002.26-5.995-.123-3.966-1.407-7.69-2.534-11.464-1.01-3.38-1.29-6.712.977-9.989 1.533-2.213 2.59-4.841 2.411-7.718-.112-1.815-.186-3.634-.277-5.452-.005-.136.058-.333-.01-.401-1.53-1.472-1.938-3.719-3.675-5.082-1.08-.848-1.923-1.993-2.916-2.958-.28-.27-.705-.409-1.087-.553-4.167-1.592-8.5-2.563-12.895-3.26-.44-.072-.911.106-1.37.114-1.097.019-2.208.117-3.289-.02-1.833-.231-3.383-.155-4.71 1.49-1.307 1.616-2.895 3.039-4.52 4.353-.754.614-1.865.845-2.85 1.118-2.799.777-4.486 2.617-5.189 5.335-.384 1.489-.724 2.953-1.643 4.237-.247.346-.206.891-.3 1.346" stroke="#fff" stroke-width=".4" stroke-miterlimit="10" stroke-linecap="round" stroke-linejoin="round"/><path d="M69.005 88.28c1.449.349 2.801.338 3.844-.951.998-1.235 2.148-2.372 2.974-3.708.71-1.148.647-2.62.005-3.77a162.353 162.353 0 00-5.342-8.864c-.768-1.188-1.146-2.32-.803-3.7.233-.94.23-1.965.6-2.843.36-.85.994-1.616 1.616-2.325a440.023 440.023 0 016.168-6.821c.96-1.044.412-2.184.25-3.275-.187-1.24-.59-2.448-.79-3.685-.448-2.743-2.042-4.785-4.17-6.35-.892-.654-2.237-.919-3.39-.968-3.149-.128-6.307-.062-9.462-.019-.414.006-.925.24-1.218.537-2.157 2.181-5.15 2.877-7.685 4.37-1.227.723-2.489 1.544-3.403 2.601-1.528 1.77-1.028 5.071.785 6.642.856.741 1.756 1.434 2.601 2.189 1.72 1.543 1.66 3.97-.137 5.444-1.355 1.112-2.741 2.187-4.113 3.277" stroke="#fff" stroke-width=".4" stroke-miterlimit="10" stroke-linecap="round" stroke-linejoin="round"/><path d="M72.024 88.281H77.4c2.26-1.799 3.109-4.446 2.81-7.355-.319-3.1-1.035-6.172-2.453-8.986-.692-1.368-1.15-2.693-1.109-4.242.017-.63-.32-1.327-.664-1.897-.987-1.641-.97-2.448.576-4.092.684-.726 1.48-1.347 2.182-2.056 1.835-1.846 2.993-3.912 2.64-6.68-.404-3.129-.698-6.229-2.476-9.007-1.895-2.966-4.691-4.386-7.978-5.174-2.097-.505-4.165-.693-6.319-.3-1.15.21-2.453-.23-3.542.098-1.85.556-3.866 1.148-5.306 2.334-2.456 2.023-5.213 3.222-8.168 4.116-.615.186-.804.431-1.136.957-1.476 2.331-1.83 4.831-1.943 7.525-.09 2.17-.977 4.245-2.398 6" stroke="#fff" stroke-width=".4" stroke-miterlimit="10" stroke-linecap="round" stroke-linejoin="round"/><path d="M48.168 18c.595.627.521.818 1.205 1.538.864.801-1.433 2.227.45 3.29.436-.433.908-.875 1.347-1.347.46-.496 2.848-.57 3.712-.139 1.682.837 3.347 1.726 5.081 2.438 2.203.905 4.5 1.592 6.703 2.497 1.468.605 2.842 1.437 4.264 2.156 1.001.508 2.016.99 3.015 1.505 1.561.807 3.095 1.666 4.673 2.438.974.477 2.019.798 3.01 1.245 1.338.606 2.757 1.115 3.961 1.93 2.865 1.942 5.526 4.188 7.255 7.217 1.632 2.857 3.01 5.864 4.39 8.855.326.712.235 1.62.304 2.437.107 1.27.29 2.546.247 3.817-.038 1.14-.025 2.465-.587 3.367-.988 1.578-.933 3.241-.694 4.803.51 3.327 1.879 6.434 4.099 8.967 2.016 2.304 2.721 5.044 3.438 7.32 2.046 2.184 3.808 4.062 5.569 5.94" stroke="#fff" stroke-width=".4" stroke-miterlimit="10" stroke-linecap="round" stroke-linejoin="round"/><path d="M38.139 16.852c1.473-1.61 2.335-1.703 4.123-.695 2.483 1.404 4.55 3.195 5.93 5.774-.374.976-.708 1.988.573 2.675 1.528-1.538 3.427-.785 5.142-.477 2.414.433 4.787 1.148 7.133 1.884 1.419.444 2.887.96 4.1 1.78 3.717 2.516 7.736 4.37 11.962 5.82 4.64 1.595 8.173 4.458 11.353 8.231 3.092 3.67 4.327 7.846 5.573 12.206.488 1.706-.291 2.985-.769 4.367-.968 2.8-1.742 5.619-1.74 8.599 0 .455.149.913.267 1.363.631 2.41 1.254 4.822 1.934 7.221.165.576.54 1.091.804 1.642.283.586.856 1.23.771 1.764-.324 2.017.552 3.76 1.018 5.597.025.095.154.218.126.267-.875 1.603.225 2.609.994 3.55h7.246c1.555 0 3.199-.317 4.639.084 1.655.458 3.117 1.584 4.695 2.358.949.466 1.961.81 3.322 1.363-.716.7-1.185 1.192-1.687 1.644-.719.652-1.471 1.265-2.187 1.917-.477.433-.919.905-1.374 1.36m-13.877 5.87c-1.577.687-5.993 3.153-7.812 2.924-1.56-.197-3.199.128-4.81.34-2.847.374-5.188 1.966-7.931 2.484-4.41.831-8.77 1.859-13.313 1.807-.955-.01-2.134.636-2.826 1.347-.903.927-1.586 2.157-2.071 3.373-.659 1.641-1.627 2.603-3.468 2.59-.456-.003-.911.185-1.367.286-1.141 1.205-2.296 2.421-3.588 3.787h-1.65c-.09 1.308-.03 2.527-.296 3.672-.269 1.161-.861 2.252-1.388 3.555-2.933 2.415-6.568 3.17-10.508 2.86" stroke="#fff" stroke-width=".4" stroke-miterlimit="10" stroke-linecap="round" stroke-linejoin="round"/><path d="M85.194 103.96c-.96.182-1.915.444-2.884.523-1.136.093-2.302.136-3.421-.024-.58-.085-1.09-.657-1.657-.938-1.235-.671-2.5-1.29-3.693-2.029-1.249-.771-2.102-.689-3.167.011-1.681 1.107-3.605 1.955-5.02 3.329-2.338 2.263-4.292 4.91-6.522 7.29-1.298 1.385-2.36 2.241-3.803 3.484-.64.554-2.072 1.118-2.744 1.636-1.12.864-1.097 2.454-1.372 3.272m-.823-.137c-1.097.273-2.057.166-3.141 2.95-.974 2.503-3.079 4.31-5.79 5.172-.233.073-.458.177-.836.327-1.561-1.44-3.616-.477-5.471-.883-.151-.033-.277-.175-.415-.265m17.558-77.294c.203 1.142.41 2.282.552 3.086 1.125.818 1.953 1.532 2.886 2.077 2.662 1.554 4.933 3.686 7.798 4.951 2.604 1.148 6.234.08 7.194-2.873.661-2.034 1.983-3.858 2.645-5.894.902-2.779-.447-6.669-3.106-7.62-.096-.036-.181-.126-.275-.131-2.653-.098-5.322-.4-7.948-.185-1.278.103-2.48 1.172-3.71 1.818-.83.439-1.621.965-2.477 1.347-1.594.711-2.974 1.622-3.699 3.285m-4.248 59.436c.595-.363 1.227-.679 1.775-1.099 1.622-1.246 3.175-2.579 4.818-3.795 1.926-1.426 2.694-3.675 4.072-5.49 1.676-2.209 3.333-4.305 5.591-6.058 2.365-1.838 4.215-4.34 6.229-6.606.82-.922 1.47-1.993 2.211-2.985 1.01-1.353.62-3.204-.409-4.231a252.32 252.32 0 01-4.936-5.047c-1.394-1.472-3.385-1.731-5.084-2.579-2.296-1.145-4.664-1.052-7.142-.608-1.311.235-2.735-.229-4.104-.193-2.829.07-5.51.6-7.562 2.827-.63.684-1.44 1.202-2.181 1.786-2.406 1.897-4.03 4.34-4.911 7.232-.387 1.27-.486 2.628-.714 3.945-.367 2.135-.891 4.258-1.056 6.41-.195 2.557-1.273 4.825-1.948 7.224-.263.933-.392 1.903-.557 2.86-.115.676-.208 1.36-.274 2.045-.27 2.671.477 5.171 1.39 7.625.207.553.681 1.006.988 1.439 2.012-.613 3.795-1.161 5.576-1.706M23.46 46.703c.073 1.012-.223 1.791-1.082 2.473-2.666 2.118-5.756 3.492-8.82 4.83-2.618 1.143-3.875 2.836-4.14 5.641-.25 2.65.584 4.954 1.881 7.061 1.197 1.942 1.405 4.098 1.984 6.173.796 2.843 1.232 5.76 1.413 8.716.069 1.142.225 2.311.576 3.394.214.668.801 1.27 1.345 1.766.688.627 1.503 1.118 2.247 1.655h1.166" stroke="#fff" stroke-width=".4" stroke-miterlimit="10" stroke-linecap="round" stroke-linejoin="round"/><path d="M35.53 65.24l-2.88.822c-4.316-3.54-9.079-6.216-15.085-5.467-.217.428-.428.848-.68 1.35.381.987.798 2.074 1.223 3.16 1.413 3.582 4.555 5.537 7.4 7.778.911.72 1.89 1.428 2.58 2.333.998 1.317.68 2.923.606 4.474-.162 3.359-.173 6.726-.305 10.085-.137 3.445-.4 6.88-1.353 10.226-.07.253.003.542-.01.815-.135 2.59-.464 5.188-.346 7.767.085 1.878.688 3.749 1.196 5.583.313 1.129.905 2.181 1.342 3.28.664 1.677 1.907 2.884 3.451 3.64 1.652.806 3.455.853 5.197.046.112-.052.271-.006.409-.006M37.041 14.403c-.806-2.107-2.74-3.408-5.076-3.408h-2.057c-.936-1.644-2.149-2.81-4.407-2.382-1.534.717-1.4 2.284-1.49 3.745-.21 3.435.384 6.674 2.168 9.692.95 1.606 1.594 3.392 2.524 5.011.453.788 1.292 1.347 1.877 2.072.56.698 1.015 1.483 1.514 2.227a20.5 20.5 0 00-.403.085c0 1.27-.069 2.546.016 3.811.143 2.124-.386 4.024-1.662 5.725m31.14 4.357c-1.693 1.41-3.394 2.805-5.07 4.231-.71.605-.996 1.377-.697 2.312.099.302.132.627.178.864.826.63 1.65 1.221 2.429 1.865 1.997 1.655 4.255 2.813 6.862 2.805 1.728-.005 2.963-1.172 3.852-2.666 1.196-2.012 1.267-4.226 1.031-6.407-.145-1.352-1.552-1.884-2.7-2.29a19.794 19.794 0 00-4.107-.957c-1.418-.177-2.804 0-3.995 1.036a10.36 10.36 0 01-2.595 1.636c-2.428 1.069-3.196 3.432-1.47 5.313 1.322 1.445 2.787 2.82 4.395 3.929 1.355.935 3.01 1.445 4.477 2.118 1.948-.112 3.938-.174 5.822-2.582.547-1.81 1.282-4.49 2.19-7.107.294-.85.165-1.415-.307-2.06-.519-.715-.99-1.465-1.553-2.302l-7.919-.42" stroke="#fff" stroke-width=".4" stroke-miterlimit="10" stroke-linecap="round" stroke-linejoin="round"/><path d="M30.593 52.977c-2.738 1.2-5.172 2.963-7.94 4.124-1.45.608-2.925.668-4.407.756-1.937.114-3.479.845-4.826 2.704.935 2.865 1.953 5.875 2.9 8.91 1.311 4.214 2.73 8.41 3.792 12.687.71 2.863 1.698 5.587 2.763 8.316.496 1.278.721 2.701.831 4.075.198 2.446.357 4.91.263 7.358-.093 2.459-.469 4.913-.793 7.361-.43 3.255.108 6.377 1.263 9.4.614 1.614.952 3.386 2.315 4.641" stroke="#fff" stroke-width=".4" stroke-miterlimit="10" stroke-linecap="round" stroke-linejoin="round"/><path d="M26.203 49.43c-1.74 1.202-2.788 3.168-4.785 4.12-1.27.604-2.34 1.616-3.603 2.245-.71.358-1.662.208-2.439.475a15.66 15.66 0 00-2.88 1.352c-1.866 1.112-1.117 2.917-.766 4.33.57 2.287 1.594 4.462 2.395 6.698.403 1.123.925 2.246 1.07 3.41.44 3.509 1.207 6.941 2.09 10.355.14.545.36 1.085.396 1.635.085 1.309.675 2.304 1.652 3.147.387.332.65.804.97 1.213m26.479 17.726c.459-.09.994-.06 1.359-.291 3.22-2.051 6.453-4.136 8.637-7.353 3.105-4.578 7.226-8.304 10.56-12.68.908-1.191 1.564-2.573 2.34-3.874-.205-.496-.282-.97-.551-1.279-1.778-2.041-3.68-3.953-6.437-4.637-1.8-.447-3.36-1.666-5.347-1.527-1.32.093-2.656-.051-3.976.036-1.742.112-3.476.343-5.213.531-.277.03-.59.017-.817.145-4.089 2.317-7.814 5.027-9.164 9.814-.612 2.17-.84 4.447-1.276 6.669-.285 1.461-.694 2.898-.941 4.365-.373 2.216-.725 4.443-.95 6.679-.14 1.396-.085 2.819-.01 4.223.104 1.957 1.196 2.587 3.141 1.914.123-.044.272-.006.409-.006" stroke="#fff" stroke-width=".4" stroke-miterlimit="10" stroke-linecap="round" stroke-linejoin="round"/><path d="M49.126 100.652c-.265.17-5.975 2.145-6.308 2.211-1.413.492-3.162.036-3.238-1.397-.053-1.027-.093-2.069.008-3.09.164-1.636.419-3.266.69-4.888.179-1.073.476-2.125.683-3.194.317-1.626.482-3.292.927-4.88.98-3.503 3.686-5.486 6.654-7.182.166-.094.393-.084.594-.106 1.261-.138 2.52-.307 3.786-.389.958-.064 1.929.042 2.887-.026 1.443-.102 2.576.79 3.884 1.117 2.002.501 3.383 1.9 4.674 3.394.195.225.25.573.4.936-.563.951-1.04 1.963-1.7 2.835-2.42 3.202-5.413 5.929-7.668 9.279-1.586 2.354-3.934 3.88-6.273 5.38z" stroke="#fff" stroke-width=".4" stroke-miterlimit="10" stroke-linecap="round" stroke-linejoin="round"/><path d="M50.96 94.752c-.164.105-3.702 1.337-3.908 1.378-.876.308-1.96.023-2.006-.87-.034-.642-.058-1.291.005-1.928.1-1.02.259-2.037.427-3.049.11-.67.295-1.325.423-1.992.196-1.014.299-2.053.574-3.044.608-2.185 2.284-3.422 4.123-4.48.103-.058.244-.052.368-.066.782-.085 1.562-.191 2.346-.242.594-.04 1.195.026 1.788-.017.894-.063 1.597.493 2.407.697 1.24.313 2.096 1.185 2.896 2.117.12.14.155.357.248.584-.35.593-.645 1.224-1.053 1.768-1.5 1.997-3.354 3.698-4.752 5.788-.982 1.468-2.437 2.42-3.886 3.356z" stroke="#fff" stroke-width=".4" stroke-miterlimit="10" stroke-linecap="round" stroke-linejoin="round"/><path d="M53.003 88.54c-.07.044-1.56.554-1.646.57-.369.128-.825.01-.845-.36a5.23 5.23 0 01.002-.797c.043-.422.11-.843.18-1.262.047-.277.124-.548.179-.824.082-.42.125-.85.241-1.26.256-.904.962-1.416 1.736-1.853.044-.025.103-.022.155-.028.33-.035.658-.079.988-.1.25-.017.503.01.753-.007.376-.026.672.204 1.013.289.522.129.883.49 1.22.876.05.058.065.147.104.241-.147.246-.271.507-.444.732-.631.826-1.412 1.53-2 2.395-.414.607-1.026 1.001-1.636 1.388zm51.945 13.78c-2.516 1.453-5.015 2.934-7.556 4.343-.565.314-1.26.486-1.912.545-2.181.202-4.387.194-6.453 1.091-.308.134-.725.038-1.09.014-1.02-.066-1.89.163-2.763.793-1.662 1.202-3.484 1.06-5.342.327-.474-.188-1.182-.215-1.615.006-1.419.725-2.79 1.556-4.127 2.429-2.31 1.51-4.615 3.031-6.851 4.645-1.05.758-2.211.464-3.314.625-.75.109-1.55-.137-2.464-.238-1.956 1.459-4.193 2.784-5.979 4.559-1.597 1.584-2.889 3.582-3.199 5.94-.266 2.028-1.122 3.563-3.174 4.212-.659.207-1.358.281-2.24.458-1.21 2.966-4.076 4.856-6.378 7.326h-1.147l-.733-2.847c-.595-.128-1.303-.229-1.98-.436-1.065-.324-2.196-.567-3.14-1.115-1.443-.839-2.995-1.338-4.546-1.873m-8.504-44.436c1.092.937 1.139 2.306 1.342 3.55.302 1.842.521 3.718.543 5.582.022 1.863-.22 3.727-.381 5.589-.335 3.902-1.204 7.776-.678 11.723.53 3.972 1.37 7.857 3.57 11.311.222.349.48.753.828.938.974.516 2 .93 3.008 1.385" stroke="#fff" stroke-width=".4" stroke-miterlimit="10" stroke-linecap="round" stroke-linejoin="round"/><path d="M33.337 58.156c-1.282.41-2.535.974-3.847 1.194-2.532.426-5.087.663-7.68.333-2.15-.275-4.337-.434-6.505.204-.398 2.378.527 4.242 1.58 6.036 2.802 4.769 5.532 9.553 6.876 14.995.7 2.835 1.279 5.662 1.372 8.593.044 1.368.447 2.723.5 4.092.063 1.723-.011 3.457-.124 5.177-.181 2.776-.453 5.543-.672 8.315-.319 4.013.732 7.726 2.113 11.481 1.113 3.031 3.248 4.566 5.978 5.695" stroke="#fff" stroke-width=".4" stroke-miterlimit="10" stroke-linecap="round" stroke-linejoin="round"/><path d="M40.196 70.969c-3.108 3.8-6 7.742-7.655 12.415-.458 1.298-.617 2.71-.842 4.081-.574 3.449-.823 6.982-1.74 10.336a28.884 28.884 0 00-1.017 8.475c.04 1.636.016 3.272.005 4.908-.008 1.554.332 2.952 1.5 4.1.876.859 1.617 1.848 2.492 2.704.95.927 1.953.998 2.99.129 1.136-.952 2.495-1.189 3.858-1.481m37.176-27.948c-2.697 1.908-5.397 3.816-8.094 5.727-.239.17-.555.314-.672.551-.939 1.868-2.51 3.124-4.127 4.362-2.11 1.619-3.71 3.708-5.205 5.864-.719 1.036-1.207 2.236-1.953 3.247-1.1 1.489-2.478 2.639-4.343 2.609-1.702 1.914-3.326 3.757-4.978 5.575-.192.21-.537.284-.812.42m-8.916-99.918c-.412-.319-.936-.561-1.213-.967-.776-1.14-1.797-1.653-3.172-1.8-.894-.095-1.74-.602-2.612-.91-.762-.267-1.536-.51-2.269-.753-1.75 1.053-1.385 2.688-1.273 4.158.275 3.62 2.085 6.595 4.228 9.408 1.391 1.827 1.748 2.121 5.751 3.934.129 1.09.398 2.326.4 3.563.006 2.792.245 5.581-.743 8.334-.565 1.576-1.857 2.364-2.799 3.526m-15.364 43.07c1.19 2.262 1.665 4.686 1.649 7.224-.014 2.407.167 4.831-.044 7.222-.296 3.375-.927 6.723-1.306 10.093-.157 1.39-.096 2.818-.006 4.22.094 1.415.415 2.813.51 4.228.116 1.712 1.172 3.013 1.803 4.496.214.504.456 1 .684 1.499" stroke="#fff" stroke-width=".4" stroke-miterlimit="10" stroke-linecap="round" stroke-linejoin="round"/><path d="M68.612 99.563c-1.007.545-1.878 1.148-2.901 1.661-2.56 1.281-4.59 3.02-5.792 5.717-.947 2.126-2.085 4.214-4.097 5.583-.836.57-1.835.892-2.727 1.39-2.137 1.197-3.74 2.915-4.958 5.028a14.397 14.397 0 01-1.791 2.44m24.855-32.694c-3.704 3.634-7.493 7.189-11.076 10.94-1.764 1.846-3.23 3.999-4.68 6.112-2.116 3.084-5.466 4.749-8.12 7.206-.049.046-.178.005-.268.005m-4.253-89.144c-.316-1.939-1.128-3.455-3.41-3.823-.975.734-2.097.706-3.32.303-.922-.305-1.907-.316-2.75.398.604 3.127 2.736 4.97 5.518 6.085 1.695.679 3.578-.79 3.962-2.824M26.202 65.92c0-.136.06-.322-.008-.4-1.238-1.435-2.793-2.378-4.662-2.697-.414-.07-1.023.224-1.32.548-.164.18.053.824.247 1.175.349.624.813 1.186 1.051 1.53 1.446.602 2.659 1.11 3.984 1.663.277-.554.563-1.118.845-1.683" stroke="#fff" stroke-width=".4" stroke-miterlimit="10" stroke-linecap="round" stroke-linejoin="round"/><path d="M46.78 28.438c.445-.455 1.139-.807.71-1.644-1.365.05-2.652-.046-3.555-1.368.373-.474.716-.908 1.133-1.431V22.54c-.623-1.006-1.22-1.976-1.822-2.947-3.18-2.426-4.28-2.453-5.528.008l-2.54-2.72c-1.334-.573-3.068.485-4.92.395.156.305.335.49.33.668-.116 3.217 1.736 5.728 3.264 8.258.598.99 2.28 1.333 3.47 1.963.218.114.456.185.684.275m59.67 60.248c1.887 1.883 3.888 3.683 5.07 6.136.716 1.483.977 2.991.014 4.501-.779 1.099-3.97 3.398-4.55 3.685M63.106 52.566c.183-.72.762-1.412.09-2.21l-1.525-.434c-.113.504-.308 1.025-.33 1.554-.04.981.708 1.216 1.493 1.363M37.041 57.47l1.03.611v-2.042h-.879l-.288 1.295m10.014 55.481v-1.159h-1.03v2.042c.475-.283.752-.447 1.03-.61m-4.664 12.132c-.146.292-.294.581-.44.873-.112-.025-.222-.047-.334-.071-.283-.66-.455-1.311.436-1.944l.338 1.006M41.157 68.24c.505-.046.98.033.79.671-.069.226-.521.338-.996.622v-2.181l1.166.343m-3.018 56.703v1.913c-1.185-.798-1.07-1.464-.549-2.186m-8.504 5.458l1.157-.294.363.581c-.54.281-1.081.561-1.625.842.075.128.149.254.22.382.417.043.837.084 1.254.128M28.4 47.794l1.157-.294.362.58c-.54.282-1.08.562-1.624.843.074.128.148.254.22.382.416.043.836.084 1.253.128M39.373 109c-.23.474-.315.941.412.941s.642-.467.411-.941m-3.978-51.123v-1.682c-.104.003-.208.006-.313.006l-1.136 1.128h2m8.913 64.757l-1.92 1.499m-10.7-71.843c-.046.32-.09.635-.137.954l-.96-.272m54.873 48.67c-.047.319-.09.635-.137.954-.322-.09-.64-.183-.96-.273m-45.819 9.811h1.303l-.892 1.772m45.956-12.4c.244-.095.491-.19.735-.289l-.082-.411-1.202.155M32.514 51.615c.244-.096.49-.191.735-.29l-.082-.41c-.401.05-.802.103-1.202.154" stroke="#fff" stroke-width=".4" stroke-miterlimit="10" stroke-linecap="round" stroke-linejoin="round"/><path d="M40.333 108.449c-.277-.75-.692-.401-1.155-.178.252.805.658.742 1.155.314m-3.291 16.227c-.222.099-.447.194-.669.292.085.131.17.259.258.39h.686m.134-1.369v1.908m4.116-17.986c-.192.572-.382 1.148-.612 1.84h1.408c-.387-.657.452-1.472-.659-1.84m1.786 0c-.191.572-.38 1.148-.611 1.84h1.407c-.386-.657.453-1.472-.658-1.84m3.429-40.625c-.192.572-.381 1.148-.612 1.84h1.408c-.387-.657.453-1.472-.659-1.84m-2.059.008c-.192.572-.381 1.147-.612 1.84h1.408c-.387-.657.453-1.472-.658-1.84m-2.058-.008c-.192.572-.381 1.148-.612 1.84h1.408c-.387-.657.453-1.472-.659-1.84m-20.991-2.727c-.068.527-.049.567.55 1.09.808-.716.573-1.04-.412-1.09" stroke="#fff" stroke-width=".4" stroke-miterlimit="10" stroke-linecap="round" stroke-linejoin="round"/><path d="M18.933 61.43c-1.013.613-1.207 1.297-.291 2.197.252.248.247.736.439 1.069.379.654.675 1.475 1.251 1.875 1.473 1.026 3.057 1.903 4.648 2.746.952.504 3.24-.736 3.696-1.89.074-.188.184-.362.302-.594-1.013-3.097-3.77-3.817-6.478-4.577-1.13-.32-2.286-.554-3.427-.826m26.336 46.617c-.187.559-.373 1.118-.612 1.84h1.407c-.386-.657.453-1.472-.658-1.84m-3.155 3.539c-.192.572-.381 1.148-.612 1.84h1.408c-.387-.657.453-1.472-.659-1.84m-1.234-55.609c-.193.572-.382 1.147-.612 1.84h1.407c-.387-.657.453-1.472-.658-1.84m-2.057 0c-.193.572-.382 1.147-.612 1.84h1.407c-.387-.657.453-1.472-.658-1.84m4.802 55.609c-.192.572-.381 1.148-.612 1.84h1.408c-.387-.657.452-1.472-.659-1.84M38.276 50.79c-.192.572-.382 1.147-.612 1.84h1.408c-.387-.658.452-1.473-.659-1.84m-2.057 0c-.192.572-.381 1.147-.612 1.84h1.408c-.387-.658.452-1.473-.659-1.84m-2.059 0c-.192.572-.381 1.147-.612 1.84h1.408c-.387-.658.453-1.473-.659-1.84m27.986-2.993c-1.051.728-2.157 1.39-3.14 2.203-.732.602-.74 1.472-.287 2.295 1.07 1.947 2.823 2.754 5.07 2.304.343-.068.834-.278.93-.543.453-1.243.79-2.524 1.18-3.838-.722-1.527-2.233-1.808-3.616-2.285m-27.984-.41c-.187.56-.374 1.118-.612 1.84h1.407c-.387-.656.453-1.471-.658-1.84m-2.059 0c-.192.573-.382 1.148-.612 1.84h1.407c-.387-.656.453-1.471-.658-1.84m-2.057 0c-.192.573-.382 1.148-.612 1.84h1.407c-.387-.656.453-1.471-.658-1.84" stroke="#fff" stroke-width=".4" stroke-miterlimit="10" stroke-linecap="round" stroke-linejoin="round"/><path d="M61.872 46.156c-1.224.38-1.929 1.309-2.623 2.307-.65.93-1.435 1.764-2.132 2.603 1.452 3.722 4.173 5.24 7.91 5.161.415-.008.928-.144 1.218-.409 1.638-1.5 2.83-4.95 1.948-7.075-.373-.9-.919-1.466-1.928-1.646-1.43-.257-2.837-.622-4.256-.938" stroke="#fff" stroke-width=".4" stroke-miterlimit="10" stroke-linecap="round" stroke-linejoin="round"/><path d="M61.322 42.344c-1.188.635-2.384 1.26-3.564 1.91-1.88 1.037-3.767 2.062-5.622 3.142-2.489 1.447-2.428 2.14-1.948 5.04.236 1.434 1.27 2.255 2.25 2.95 1.997 1.42 4.184 2.574 6.272 3.871.46.287.944.647 1.22 1.09 1.118 1.784 2.583 3.063 5.02 3.564.652-.414 1.533-.965 2.408-1.532.466-.303.875-.75 1.38-.932 2.738-.99 4.415-3.067 5.729-5.486a4.633 4.633 0 00.543-2.167c-.01-2.181-.063-4.37-.269-6.54-.206-2.173-1.846-3.689-3.937-4.406-1.498-.515-2.886-.447-4.412-.289-1.618.166-3.287-.123-4.933-.215M40.06 124.266c1.124.507.839 1.123.087 1.815-.678-.485-.675-1.047-.225-1.679m-7.408 4.91c-.192.573-.381 1.148-.612 1.841h1.408c-.387-.657.453-1.472-.659-1.841m1.783 0c-.192.573-.381 1.148-.612 1.841h1.408c-.387-.657.453-1.472-.659-1.841m1.785 0c-.192.573-.381 1.148-.612 1.841h1.408c-.387-.657.452-1.472-.659-1.841m55.558-29.171c-.192.572-.381 1.147-.612 1.84h1.408c-.387-.657.453-1.472-.658-1.84m-2.058 0c-.192.572-.381 1.147-.612 1.84h1.408c-.387-.657.453-1.472-.658-1.84m-2.059 0c-.193.572-.382 1.147-.612 1.84h1.407c-.387-.657.453-1.472-.658-1.84" stroke="#fff" stroke-width=".4" stroke-miterlimit="10" stroke-linecap="round" stroke-linejoin="round"/><rect x="16.75" y="34.75" width="30.5" height="30.5" rx="15.25" fill="#fff"/><path fill-rule="evenodd" clip-rule="evenodd" d="M28.485 51.494c.43 0 .834.089 1.187.266a3.646 3.646 0 013.598-3.088c1.983 0 3.599 1.595 3.65 3.569a2.423 2.423 0 012.108 2.417 2.428 2.428 0 01-2.424 2.43h-8.119a2.795 2.795 0 01-2.79-2.796 2.794 2.794 0 012.79-2.798z" stroke="#222A2F" stroke-width="1.5" stroke-linecap="round" stroke-linejoin="round"/><path d="M30.631 41.836v-.667m4.252 2.423l.466-.475m-11.383 4.722h.667m1.292-4.722l.467.475m6.602 1.885a3.333 3.333 0 00-5.69 2.357" stroke="#222A2F" stroke-width="1.5" stroke-linecap="round" stroke-linejoin="round"/><rect x="16.75" y="34.75" width="30.5" height="30.5" rx="15.25" stroke="#fff" stroke-width="1.5"/><rect x="62.75" y="78.75" width="30.5" height="30.5" rx="15.25" fill="#fff"/><path d="M83.738 87.883l-11.219 2.32v.72l5.25-1.086v3.566h-3.833a12.185 12.185 0 00-.455 3.307 12.1 12.1 0 00.44 3.253h8.415a12.17 12.17 0 00.44-3.253 12.29 12.29 0 00-.454-3.307h-3.833v-3.715l5.249-1.085v-.72zM74.27 96.71c0-.894.102-1.773.304-2.627h1.471v3.96h-1.698c-.05-.44-.077-.885-.077-1.333zm7.414-2.627a11.404 11.404 0 01.227 3.96h-1.699v-3.96h1.472zm-2.193 0v3.96h-2.724v-3.96h2.724z" fill="#222A2F"/><rect x="62.75" y="78.75" width="30.5" height="30.5" rx="15.25" stroke="#fff" stroke-width="1.5"/><rect x="14.75" y="78.75" width="30.5" height="30.5" rx="15.25" fill="#fff"/><mask id="mask0_321_3727" style="mask-type:alpha" maskUnits="userSpaceOnUse" x="19" y="83" width="21" height="21"><path fill="#D9D9D9" d="M19.5 83.5h20v20h-20z"/></mask><g mask="url(#mask0_321_3727)"><path d="M34.916 102.669c-.361 0-.712-.028-1.052-.083a5.955 5.955 0 01-.99-.25l-11.708-4.27.417-1.188 5.75 2.104 1.437-3.709-2.979-3.104a1.578 1.578 0 01-.448-1.386c.077-.534.35-.94.823-1.218l2.896-1.667a1.7 1.7 0 01.719-.24c.243-.02.482.018.718.115.236.084.442.216.615.396.174.18.302.396.385.646l.271.896c.18.597.476 1.125.886 1.583.41.459.899.806 1.468 1.042l.438-1.333 1.187.375-.937 2.875a5.73 5.73 0 01-2.73-1.209 5.712 5.712 0 01-1.75-2.375l-2.104 1.209 2.521 2.875-1.854 4.791 2.584.938 1.75-5.354c.194.069.388.132.583.187.194.056.396.104.604.146l-1.77 5.458.645.229c.25.084.51.15.782.199.27.048.551.072.843.072a4.92 4.92 0 001.032-.104 4.61 4.61 0 00.947-.312l.938.937a6.34 6.34 0 01-1.396.542 6.083 6.083 0 01-1.521.187zm-1.667-13.75a1.6 1.6 0 01-1.176-.49 1.603 1.603 0 01-.49-1.176c0-.459.163-.851.49-1.178.326-.326.718-.49 1.176-.49.459 0 .851.164 1.178.49.326.327.489.72.489 1.178a1.6 1.6 0 01-.49 1.176c-.326.327-.718.49-1.177.49z" fill="#1C1B1F"/></g><rect x="14.75" y="78.75" width="30.5" height="30.5" rx="15.25" stroke="#fff" stroke-width="1.5"/><rect x="62.75" y="34.75" width="30.5" height="30.5" rx="15.25" fill="#fff"/><path d="M80.834 48.081l2.896-1.785a.833.833 0 011.27.71v5.83a.834.834 0 01-1.27.71l-2.896-1.786" stroke="#222A2F" stroke-width="1.7" stroke-linecap="round" stroke-linejoin="round"/><rect x="70" y="44.5" width="10.833" height="10.833" rx="3" stroke="#222A2F" stroke-width="1.7" stroke-linecap="round" stroke-linejoin="round"/><rect x="62.75" y="34.75" width="30.5" height="30.5" rx="15.25" stroke="#fff" stroke-width="1.5"/></svg>