<svg width="18" height="19" viewBox="0 0 18 19" fill="none" xmlns="http://www.w3.org/2000/svg"><path fill-rule="evenodd" clip-rule="evenodd" d="M13.875 13.75a.75.75 0 01.75-.75h2.625a.75.75 0 010 1.5h-1.875v3.75a.75.75 0 01-1.5 0v-4.5zM1.19.69A1.5 1.5 0 012.25.25h9a.75.75 0 01.53.22l5.25 5.25c.141.14.22.331.22.53V10a.75.75 0 01-1.5 0V6.56l-4.81-4.81H2.25V10a.75.75 0 01-1.5 0V1.75c0-.398.158-.78.44-1.06z" fill="#222A2F"/><path fill-rule="evenodd" clip-rule="evenodd" d="M11.25.25A.75.75 0 0112 1v4.5h4.5a.75.75 0 010 1.5h-5.25a.75.75 0 01-.75-.75V1a.75.75 0 01.75-.75zM.75 13.75A.75.75 0 011.5 13H3a2.25 2.25 0 010 4.5h-.75v.75a.75.75 0 01-1.5 0v-4.5zM2.25 16H3a.75.75 0 100-1.5h-.75V16zm11.625.375a.75.75 0 01.75-.75h2.25a.75.75 0 010 1.5h-2.25a.75.75 0 01-.75-.75zM6.938 13.75a.75.75 0 01.75-.75H9a3 3 0 010 6H7.687a.75.75 0 01-.75-.75v-4.5zm1.5.75v3H9a1.5 1.5 0 100-3h-.563z" fill="#222A2F"/></svg>