<svg width="1074" height="351" viewBox="0 0 1074 351" fill="none" xmlns="http://www.w3.org/2000/svg"><g clip-path="url(#clip0_279_2704)"><path fill-rule="evenodd" clip-rule="evenodd" d="M570.228 5.49c-9.14 7.082-16.46 15.98-21.13 25.682-4.565 9.486-4.574 10.088-.236 16.556 3.959 5.904 20.565 15.624 38.794 22.71 6.45 2.508 11.725 5.115 11.725 5.797 0 2.795-5.528 4.571-9.238 2.968-2.055-.89-8.134-1.617-13.507-1.617-10.173 0-11.364.517-34.67 15.054-4.853 3.027-9.05 4.343-13.857 4.343-14.61 0-15.931 7.309-15.049 83.243.351 30.227 1.4 65.139 2.331 77.582 1.86 24.868 1.499 28.965-2.777 31.569-2.784 1.694-320.032.202-558.814-2.628-65.707-.779-89.181-.577-89.181.763 0 1.324 18.873 1.818 69.284 1.812 38.107-.003 116.61.7 174.453 1.564 57.843.864 172.188 1.885 254.101 2.268l148.933.699 4.351-4.164c4.255-4.072 4.333-4.403 3.47-14.788-4.089-49.263-6.033-125.978-3.762-148.458 2.283-22.602 3.496-26.229 8.78-26.229 4.666 0 5.009.804 1.869 4.375-3.293 3.744-.388 5.997 7.16 5.552 7.085-.417 7.155-.029 1.91 10.73-2.735 5.615-3.504 14.903-1.233 14.903.743 0 5.912-6.212 11.487-13.804 5.576-7.592 12.767-15.692 15.981-17.998 5.545-3.981 6.459-4.133 18.002-3.008 6.688.651 17.276 1.658 23.529 2.237l11.37 1.053.06 12.932c.125 27.342-.12 26.308 6.691 28.411 3.848 1.188 10.679 1.48 18.831.806 7.035-.582 23.663-1.736 36.951-2.563 27.838-1.736 53.295-3.899 74.613-6.341 11.144-1.277 15.373-2.404 16.699-4.452 1.087-1.676 1.777-7.982 1.777-16.251 0-17.019-2.148-22.45-9.5-24.02-7.939-1.692-55.462.61-119.709 5.802-16.919 1.366-22.149 1.327-22.964-.172-2.41-4.436.344-5.466 14.687-5.495 14.328-.028 14.736-.136 26.632-7.02 16.614-9.616 25.574-12.724 47.61-16.521 12.939-2.23 14.923-3.456 14.923-9.238 0-9.522-10.303-36.89-17.97-47.741-4.208-5.955-11.677-5.801-21.238.436-10.732 7-40.144 43.744-35.016 43.744.693 0 3.428-3.456 6.077-7.678 11.888-18.952 33.762-39.197 42.349-39.197 5.841 0 19.689 28.057 22.205 44.989 1.285 8.656-.687 11.585-7.798 11.585-6.151 0-24.939 4.097-33.501 7.304-3.195 1.198-10.869 5.113-17.054 8.7-12.206 7.08-22.765 9.43-33.858 7.54-5.562-.95-6.523-1.657-6.523-4.809 0-3.655.161-3.687 14.093-2.924 13.68.748 14.199.65 17.765-3.406 2.019-2.297 3.672-4.86 3.672-5.698 0-5.497-14.298-13-24.871-13.05-5.616-.026-8.26 2.471-11.519 10.881-2.481 6.406-2.905 6.773-5.396 4.685-2.641-2.213-2.632-2.347.355-5.745 4.473-5.087 4.511-14.916.098-24.753C607.088 30.757 583.725 0 579.295 0c-1.088 0-5.17 2.471-9.067 5.49zm17.957 6.806c12.576 14.913 16.708 21.107 22.65 33.952 5.186 11.214 5.267 16.131.361 21.955-4.562 5.417-5.827 5.5-18.416 1.225-15.709-5.335-35.769-16.236-41.167-22.369-4.1-4.66-4.195-6.619-.695-14.392 4.426-9.828 23.001-29.434 27.887-29.434.955 0 5.176 4.078 9.38 9.063zM646.317 67.1c5.446 3.203 5.753 9.176.608 11.841-4.548 2.357-12.97 2.409-19.263.118-2.656-.968-5.738-2.082-6.845-2.478-1.535-.547-1.62-1.167-.355-2.605.912-1.038 1.659-3.05 1.659-4.473 0-5.234 3.185-6.811 11.76-5.83 4.514.517 10.111 2.06 12.436 3.427zm-31.641 12.63c2.735 1.728 2.948 2.449 1.42 4.825-1.683 2.617-2.284 2.628-9.566.168-7.186-2.426-7.566-2.793-5.055-4.881 3.332-2.77 8.916-2.82 13.201-.112zm-29.329 1.088c5.783 0 2.012 4.334-8.787 10.102-10.035 5.36-12.612 6.062-22.282 6.062-12.438 0-12.401-1.004.335-9.07 8.913-5.642 18.671-8.838 23.983-7.852 2.247.417 5.286.758 6.751.758zm17.587 5.704c3.127 1.28 6.792 2.34 8.145 2.354 2.668.026 4.859 6.714 3.201 9.767-1.059 1.947-36.608.63-40.081-1.487-1.877-1.142 17.315-13.076 20.919-13.005 1.172.023 4.69 1.09 7.816 2.371zM762 96.351c4.208 1.836 6.671 10.792 6.219 22.619-.607 15.876 3.475 14.591-63.669 20.037-46.095 3.737-80.363 5.121-84.253 3.404l-3.955-1.746.402-18.205.402-18.204 8.528-1.129c33.635-4.46 130.592-9.278 136.326-6.776zm-203.834 5.371c0 .828-1.759 2.94-3.908 4.694s-6.786 7.592-10.304 12.976c-3.517 5.384-6.874 9.818-7.461 9.854-1.975.119-1.053-3.935 2.504-11.011 5.077-10.099 4.717-11.554-2.859-11.554-6.93 0-7.757-.892-3.909-4.215 2.877-2.483 25.937-3.144 25.937-.744zm-29.134 42.133c3.908.79 13.181 2.188 20.607 3.105 12.39 1.529 35.917 5.049 50.848 7.608 4.61.79 6.845 2.26 9.238 6.076 3.036 4.839 3.131 6.073 2.447 31.705-1.225 46.004-.413 103.558 1.562 110.704 3.606 13.04 7.038 13.161 9.734.341 2.065-9.819 1.16-82.399-1.244-99.73-6.296-45.393-6.513-44.244 8.65-45.922 5.739-.635 19.706-1.808 31.04-2.61 31.333-2.213 80.574-6.217 91.135-7.408l9.415-1.063.856 6.276c3.753 27.533 1.751 126.006-2.788 137.211-2.928 7.224-12.96 11.355-44.612 18.375-15.372 3.409-42.484 7.361-79.587 11.604-15.352 1.756-17.035 1.651-27.714-1.721a2531.197 2531.197 0 00-16.344-5.11 685.954 685.954 0 01-9.238-2.899c-29.508-9.569-56.748-17.633-57.345-16.977-1.998 2.195 2.123 4.382 30.343 16.102 7.816 3.246 15.322 6.579 16.679 7.403 1.357.826 3.628 1.502 5.045 1.502 1.418 0 3.186.608 3.928 1.351.744.744 7.106 3.327 14.141 5.74 7.035 2.415 14.261 5.078 16.056 5.922 4.24 1.993 27.643 1.972 39.808-.035 5.231-.863 16.547-2.719 25.145-4.124 15.065-2.463 18.245-3.084 36.951-7.214 12.539-2.767 16.785-4.091 34.82-10.862l16.343-6.134 295.259-.433c191.94-.283 295.25-.989 295.25-2.021s-101.23-1.587-289.98-1.587c-258.538 0-291.177.277-300.944 2.551-6.024 1.401-11.562 3.22-12.304 4.041-.742.819-2.783 1.49-4.535 1.49-1.753 0-3.535.643-3.963 1.431-.426.785-2.544 1.825-4.702 2.306-2.159.483-11.6 2.784-20.98 5.113-22.671 5.626-35.166 7.857-72.482 12.941-10.943 1.49-22.196 2.298-25.006 1.795-5.269-.944-18.302-5.135-23.315-7.498-1.563-.737-7.958-3.222-14.212-5.523-6.253-2.3-12.479-4.891-13.836-5.758-1.358-.866-3.757-1.574-5.33-1.574-1.575 0-2.862-.728-2.862-1.617s1.599-1.616 3.553-1.616 3.553.632 3.553 1.403c0 .773 2.399 1.844 5.329 2.383 2.932.538 8.847 2.151 13.146 3.585 31.796 10.595 31.035 10.505 60.402 7.202 45.806-5.149 70.279-9.447 93.799-16.475 11.911-3.56 18.976-7.546 21.675-12.228 3.322-5.769 4.893-39.684 4.376-94.513-.408-43.23-.768-49.987-2.782-52.277-2.032-2.312-3.835-2.417-14.922-.87-6.936.968-16.645 1.762-21.576 1.764-4.931.003-14.844.703-22.028 1.558-7.186.855-24.576 2.324-38.646 3.265-47.927 3.205-47.63 3.162-49.31 7.354-1.425 3.558-5.406 3.904-5.406.471 0-3.359-4.465-6.322-11.658-7.736-7.342-1.444-16.377-2.96-38.084-6.39-14.249-2.251-43.419-3.784-33.398-1.753zm91.132 63.531c2.323 18.409 2.95 87.574.866 95.685-1.58 6.15-3.555 5.708-5.046-1.131-1.696-7.78-2.917-79.007-1.701-99.285 1.247-20.82 2.814-19.561 5.881 4.731z" fill="#fff"/></g><defs><clipPath id="clip0_279_2704"><path fill="#fff" d="M0 0h1074v351H0z"/></clipPath></defs></svg>