<svg width="993" height="352" viewBox="0 0 993 352" fill="none" xmlns="http://www.w3.org/2000/svg"><path fill-rule="evenodd" clip-rule="evenodd" d="M492.154.942c-1.911 1.34-3.032 5.62-2.143 8.177.789 2.268.455 3.09-1.259 3.09-1.957 0-8.498 3.13-10.518 5.034-2.405 2.267-3.972 5.966-4.561 10.77-.461 3.752-.619 4.01-5.158 8.387-5.51 5.315-6.942 7.807-7.166 12.475-.091 1.894-.274 3.553-.407 3.686-.133.134-1.651-.182-3.374-.702-4.126-1.244-13.644-1.204-18.61.078-4.785 1.235-9.569 3.56-12.342 6-1.407 1.237-3.347 2.053-6.171 2.594-4.585.879-5.735 1.2-13.135 3.664-12.41 4.134-26.03 11.617-30.569 16.795-1.956 2.232-2.254 2.338-8.91 3.17-9.658 1.207-16.475 3.12-20.732 5.816-4.708 2.982-10.929 10.647-11.95 14.724-.393 1.567-.686 1.696-3.884 1.696-3.373 0-6.98 1.009-10.89 3.045-4.041 2.105-11.099 7.879-13.521 11.061l-2.521 3.312h-4.921c-9.237 0-11.897 2.373-19.884 17.741-4.594 8.838-6.721 11.108-12.043 12.856-2.078.683-4.504 1.585-5.39 2.006-2.744 1.303-5.994 2.344-9.015 2.889-1.594.288-4.202.951-5.796 1.474-1.594.524-5.941 1.872-9.659 2.997-3.719 1.124-7.487 2.294-8.372 2.601-.886.306-3.349 1.048-5.474 1.65-5.407 1.532-9.516 2.992-10.476 3.725-.449.342-1.898.843-3.22 1.112-1.322.27-4.866 1.272-7.877 2.228-3.01.955-6.922 2.167-8.693 2.691l-5.152 1.528c-1.063.317-3.381 1.001-5.152 1.522-1.771.522-5.683 1.72-8.693 2.665a686.409 686.409 0 01-8.372 2.574c-1.594.471-6.81 2.061-11.591 3.534-4.782 1.472-9.563 2.928-10.626 3.234a549.102 549.102 0 00-13.845 4.194 620.208 620.208 0 01-8.372 2.585c-1.594.47-7.824 2.355-13.845 4.189a5854.73 5854.73 0 01-13.846 4.204c-1.593.479-6.954 2.088-11.913 3.575-9.308 2.792-12.609 3.163-19.799 2.222-4.367-.571-6.847.242-9.167 3.004-4.591 5.466-1.249 12.844 5.783 12.766 3.93-.043 6.873-1.785 8.402-4.973.724-1.512 1.739-3.163 2.254-3.669.514-.506 12.817-4.416 27.338-8.688 14.522-4.273 27.272-8.054 28.335-8.403 1.062-.349 5.554-1.693 9.981-2.987a4866.537 4866.537 0 0016.744-4.931c4.781-1.418 9.563-2.818 10.625-3.11 2.188-.604 5.429-1.56 15.133-4.467l13.202-3.951a3044.98 3044.98 0 0010.947-3.294c5.275-1.601 8.047-2.346 11.592-3.113 4.478-.969 9.031-2.398 12.096-3.797 1.632-.745 3.262-1.354 3.623-1.354.361 0 2.043-.438 3.738-.973 7.108-2.246 9.07-2.799 12.741-3.593 2.125-.459 4.444-1.186 5.152-1.616 1.398-.848 6.932-2.531 12.557-3.82 1.948-.446 5.8-1.619 8.56-2.605 4.896-1.751 5.039-1.765 5.892-.561 3.113 4.397 5.05 5.689 11.896 7.939 5.6 1.841 8.734 1.769 11.394-.264 1.949-1.489 2.139-1.952 2.315-5.645l.191-4.022 6.118-.435c7.684-.546 12.402-1.479 14.527-2.875.911-.598 2.48-2.721 3.487-4.719 1.731-3.437 2.033-3.696 5.592-4.799 2.07-.641 5.031-1.864 6.581-2.716 1.955-1.077 3.841-1.552 6.161-1.552 7.256 0 15.948-3.782 23.715-10.317.813-.684 2.301-.904 5.154-.762 5.755.289 9.539-.664 20.109-5.066 3.858-1.606 8.419-2.538 14.167-2.895 7.312-.454 25.966.603 26.884 1.523.38.381.223 2.468-.42 5.584-1.334 6.459-1.334 15.315-.002 19.232l1.025 3.013-3.574 4.078c-3.227 3.681-7.492 10.905-7.492 12.688 0 1.281-3.324 8.697-4.779 10.662-.788 1.064-1.62 2.443-1.848 3.064-.229.621-.969 1.129-1.645 1.129-1.836 0-5.999 1.861-7.827 3.498-3.002 2.689-16.339 12.215-19.286 13.774-1.612.854-4.38 2.309-6.151 3.236-1.77.925-3.799 2.178-4.507 2.782-.709.605-5.49 3.25-10.626 5.877-20.003 10.236-27.517 16.294-35.624 28.725-6.316 9.684-9.826 11.418-21.045 10.396-5.712-.521-10.527.006-16.743 1.83-5.023 1.473-21.168 9.325-32.521 15.815-5.312 3.037-11.108 6.321-12.879 7.297-1.771.976-3.51 1.988-3.864 2.248-.787.579-6.197 3.567-12.609 6.964-2.628 1.393-5.792 3.105-7.032 3.807-1.24.702-3.993 2.237-6.118 3.413-8.199 4.536-12 7.327-14.042 10.313-1.5 2.193-1.387 2.895.841 5.178 2.157 2.211 2.39 3.09.966 3.638-.531.204-.966.876-.966 1.492 0 1.255 1.183 2.356 4.508 4.196 1.239.686 4.137 2.51 6.439 4.053 5.456 3.656 6.95 4.024 8.509 2.095 2.359-2.918-.32-8.119-6.192-12.016-1.679-1.115-3.104-2.26-3.168-2.546-.063-.286 1.769-1.638 4.071-3.005 4.296-2.55 36.823-18.925 43.156-21.725a617.69 617.69 0 008.684-3.96c9.767-4.546 12.479-5.768 12.794-5.768.175 0 2.293-.89 4.709-1.976 4.859-2.187 5.664-2.526 9.865-4.153a255.693 255.693 0 004.186-1.657c1.401-.582 10.132-3.347 19.319-6.116 7.616-2.295 14.162-5.827 20.555-11.09 2.862-2.356 5.349-4.449 5.526-4.649 2.938-3.327 16.169-13.129 24.149-17.891 3.542-2.113 9.048-5.406 12.235-7.317 3.188-1.91 7.076-4.125 8.64-4.922 1.564-.797 3.882-2.339 5.152-3.427 12.591-10.799 13.601-11.936 17.589-19.801 1.401-2.761 2.455-4.092 3.245-4.092.643 0 2.534 1.292 4.201 2.871 1.667 1.58 5.122 4.86 7.677 7.289 2.555 2.429 8.13 7.015 12.389 10.192 4.259 3.176 7.865 6.092 8.013 6.479.636 1.657-.976 2.282-7.394 2.868-13.83 1.262-20.244 3.436-20.977 7.108-.209 1.045-.416 1.913-.46 1.929-.044.016-1.674.172-3.622.347-9.322.837-20.092 6.703-51.994 28.323-23.843 16.158-43.575 30.839-53.109 39.514-4.173 3.797-5.786 4.795-10.604 6.562-5.974 2.19-9.972 3.718-12.121 4.633-.709.301-3.606 1.442-6.44 2.534-2.833 1.092-6.166 2.427-7.406 2.966a516.311 516.311 0 01-3.541 1.525c-.709.3-3.896 1.774-7.084 3.276-5.404 2.545-6.188 2.734-11.59 2.798l-5.793.068-.679 2.097c-.997 3.081-1.577 3.433-7.811 4.748-4.465.94-8.528 1.199-18.976 1.208l-13.295.011-3.102-2.935c-4.416-4.179-10.441-6.939-15.865-7.268-4.193-.255-4.409-.193-6.249 1.78-1.65 1.769-1.819 2.276-1.255 3.761.967 2.548 1.877 3.423 4.924 4.731 2.819 1.21 11.15 2.511 16.082 2.511 3.565 0 5.33 1.662 5.33 5.017 0 1.341-.448 3.078-.996 3.862-1.38 1.974-6.061 4.607-10.104 5.683-3.409.908-19.737 2.5-20.26 1.977-.154-.155-.367-2.714-.473-5.688-.155-4.327-.557-6.175-2.011-9.257-3.209-6.8-10.057-12.379-18.254-14.871-6.944-2.112-10.247-.584-9.456 4.373.411 2.571 4.834 11.644 7.535 15.455.667.942 1.213 2.176 1.213 2.742 0 .937-7.093 1.029-78.886 1.029-78.456 0-78.886.007-78.886 1.29 0 1.284.426 1.291 80.657 1.281 44.362-.006 81.034-.25 81.494-.542.636-.404.067-1.777-2.36-5.697-4.746-7.665-8.604-15.431-8.33-16.766.615-2.998 11.35.312 17.102 5.275 3.176 2.74 5.548 6.523 6.91 11.02 2.081 6.871.857 10.452-4.195 12.272-3.706 1.336-4.815 2.347-4.234 3.862.475 1.242 2.442.899 6.799-1.187 2.136-1.023 4.845-1.508 10.62-1.897 12.733-.86 19.174-2.369 23.856-5.586 4.391-3.018 6.043-7.07 4.777-11.711-.225-.824 1.504-1.031 11.649-1.392 6.8-.243 14.263-.893 17.387-1.515 10.286-2.048 8.299-3.068 17.065 8.756 11.132 15.013 13.81 16.912 18.395 13.048 2.358-1.988 5.753-8.665 5.754-11.317 0-.981.36-1.781.805-1.79 11.883-.224 20.28-1.242 24.829-3.01.817-.318 2.508-.458 3.759-.311 1.965.229 2.432.636 3.441 2.994.642 1.5 1.96 3.352 2.928 4.115l1.762 1.389h336.065c335.635 0 336.065-.002 336.065-1.291 0-1.288-.43-1.29-335.421-1.29H322.158l-1.732-1.364c-1.104-.871-1.661-1.861-1.535-2.734.17-1.194.849-1.455 5.347-2.054 14.694-1.959 27.909-8.865 32.051-16.749 1.037-1.975 1.344-3.68 1.304-7.258-.034-3.155.194-4.677.699-4.677.412 0 2.573 2.189 4.802 4.865 6.816 8.182 11.803 10.924 17.011 9.353 5.764-1.74 10.289-4.37 28.815-16.757 28.026-18.739 42.659-26.937 51.315-28.751 3.83-.803 4.911-.793 8.882.08 2.487.547 6.116 1.579 8.064 2.295 15.017 5.512 27.032 4.937 34.602-1.658 3.362-2.928 6.77-10.209 7.582-16.198.367-2.706.904-3.674 3.33-6.008 3.55-3.417 5.242-4.132 6.952-2.942 1.963 1.369 4.726 1.084 6.327-.653 2.377-2.579 10.955-20.327 12.508-25.879.396-1.419 1.092-3.887 1.545-5.484.452-1.596.855-3.991.895-5.321.049-1.604.616-3.017 1.684-4.194.885-.976 2.602-3.806 3.816-6.29 1.213-2.484 2.527-4.854 2.918-5.267.391-.413 1.076-1.72 1.521-2.904a96.786 96.786 0 011.367-3.441c.306-.71 1.011-3.114 1.567-5.342.556-2.228 1.279-4.696 1.607-5.483.328-.788 1.199-3.538 1.937-6.11.77-2.686 1.692-4.677 2.168-4.677.456 0 3.791 1.669 7.412 3.71 3.622 2.04 8.251 4.61 10.289 5.712 4.111 2.222 15.267 5.906 18.767 6.197l2.254.187.369 3.87c.475 4.979 1.184 6.584 4.387 9.924 2.582 2.691 2.616 2.788 2.243 6.404-.362 3.507-.289 3.751 1.63 5.456 1.796 1.596 1.966 2.05 1.605 4.309-.222 1.388-.065 3.937.349 5.663.537 2.245.562 3.979.089 6.095-1.189 5.317 2.587 15.492 6.715 18.095 2.442 1.54 6.78 1.208 9.379-.716 1.011-.749 2.168-1.362 2.57-1.362.403 0 2.081 1.193 3.729 2.652 8.961 7.931 15.704 8.436 23.06 1.73.763-.696 2.607-1.54 4.096-1.876 2.939-.661 4.931-.373 16.089 2.328 3.719.9 8.79 2.093 11.269 2.652 8.21 1.85 12.846 2.877 15.778 3.493 1.593.334 4.926 1.06 7.405 1.612 2.48.552 5.812 1.278 7.406 1.613 1.594.335 4.926 1.079 7.406 1.653 2.479.574 5.666 1.277 7.083 1.561 1.417.285 4.605.987 7.084 1.561a461.86 461.86 0 007.405 1.653c2.831.595 6.299 1.362 16.1 3.56 9.554 2.143 13.243 2.962 15.777 3.504 1.417.303 4.749 1.051 7.406 1.664 2.656.612 5.989 1.341 7.405 1.618 1.417.277 4.46.943 6.762 1.479 4.162.968 11.794 2.708 16.099 3.67 1.24.276 4.427.996 7.084 1.6 6.756 1.533 12.751 2.869 15.777 3.516 1.417.303 4.749 1.05 7.406 1.659 2.656.609 5.844 1.335 7.083 1.611 3.743.836 11.656 2.637 16.1 3.663 2.302.532 5.345 1.231 6.761 1.553 1.417.323 4.46 1.041 6.762 1.597 2.302.556 5.345 1.237 6.762 1.514 2.524.492 6.135 1.423 10.625 2.739 1.257.368 3.253 1.795 4.514 3.224 1.763 2.001 2.857 2.645 4.977 2.93 3.535.475 5.67-.907 7.377-4.773 3.168-7.175-1.945-11.613-9.086-7.884l-2.56 1.337-9.534-2.348c-5.243-1.291-10.403-2.616-11.465-2.944-1.672-.517-26.776-6.642-34.131-8.327-1.416-.325-4.459-1.034-6.761-1.575-7.011-1.65-12.309-2.84-17.709-3.981-2.834-.599-6.891-1.457-9.016-1.909l-7.084-1.504c-1.77-.375-5.248-1.133-7.727-1.683-5.005-1.112-12.793-2.769-16.743-3.563a956.635 956.635 0 01-16.744-3.571c-2.479-.555-5.811-1.254-7.405-1.553-2.689-.504-12.121-2.514-22.861-4.872-5.366-1.179-13.162-2.832-16.743-3.551a317.572 317.572 0 01-7.084-1.562 338.588 338.588 0 00-7.65-1.676c-1.728-.347-4.191-.916-5.474-1.264-1.282-.348-7.547-1.932-13.923-3.52-6.375-1.589-13.04-3.3-14.811-3.803-10.618-3.012-14.489-5.462-14.489-9.166 0-3.308-1.264-6.293-3.55-8.385-2.064-1.888-2.116-2.053-1.438-4.594.633-2.376.526-2.978-1.086-6.106-1.976-3.836-4.981-6.839-7.45-7.446-.885-.217-1.967-.677-2.404-1.021-.46-.363-3.846-.501-8.049-.33-7.029.288-12.872 1.66-18.71 4.393-2.278 1.066-3.547-.009-4.109-3.48-.294-1.817-.097-2.711.826-3.733 1.853-2.052 5.717-3.788 8.433-3.788 3.893 0 13.808 2.293 17.082 3.95.615.311 1.646.566 2.292.566.645 0 1.736.427 2.424.947 4.772 3.617 11.64-5.036 8.565-10.792-.404-.755-.85-3.857-.992-6.893-.328-6.998-1.62-10.982-4.605-14.192-1.299-1.398-3.654-4.808-5.233-7.578-3.024-5.308-8.452-11.2-18.059-19.603-3.01-2.633-5.618-4.938-5.795-5.121-.177-.183-3.22-2.791-6.762-5.796-3.542-3.005-6.584-5.619-6.762-5.81-.177-.191-2.06-1.793-4.185-3.558-2.125-1.767-4.009-3.364-4.186-3.55-.177-.186-5.104-4.359-10.948-9.273s-14.289-12.625-18.767-17.137c-4.479-4.513-9.239-9.11-10.58-10.216l-2.436-2.013.85-3.09c1.409-5.117 1.573-15.336.32-19.842-2.707-9.73-7.624-16.486-14.464-19.872-4.595-2.274-11.752-3.893-14.877-3.364-2.486.421-5.691 2.813-5.78 4.313-.218 3.685-.351 4.454-3.523 20.37-.514 2.583-.935 5.438-.935 6.345 0 2.298-1.428 1.645-2.379-1.089-1.419-4.08-1.04-6.978 1.724-13.176 4.751-10.656 2.636-22.857-5.115-29.504-2.646-2.27-4.787-3.236-11.778-5.318-2.037-.607-3.703-1.208-3.703-1.336 0-.128.724-.959 1.61-1.846 3.063-3.069 1.289-7.888-3.793-10.304-2.756-1.31-4.856-1.326-6.671-.053zm6.076 2.847c4.415 2.698 4.142 6.03-.561 6.826-2.428.411-2.866.279-4.194-1.268-1.858-2.164-1.881-3.814-.073-5.5 1.741-1.625 2.251-1.632 4.828-.058zm2.134 12.255c2.656.79 6.335 1.869 8.175 2.397 4.257 1.223 8.585 4.995 10.768 9.384 2.386 4.795 2.387 13.22.004 19.609-2.684 7.194-3.012 8.757-2.592 12.339.22 1.87.24 3.4.045 3.4-.194 0-1.217-.64-2.273-1.422-2.357-1.746-5.966-1.858-19.274-.597-13.946 1.321-21.128.214-26.822-4.137-6.795-5.192-6.213-10.7 1.973-18.681 4.994-4.87 5.869-6.49 6.421-11.893.574-5.597 4.31-9.391 11.151-11.322 3.841-1.083 6.29-.901 12.424.923zm41.301 20.477c6.891 2.17 12.401 6.856 15.031 12.78 2.808 6.326 3.235 8.424 3.216 15.807-.016 6.416-.214 7.79-1.462 10.16-1.357 2.579-1.609 2.742-4.218 2.742-3.362 0-7.586 2.578-10.809 6.597-11.836 14.762-17.853 20.095-29.364 26.027-3.75 1.932-4.687 2.178-6.161 1.617-2.364-.901-2.173-1.448 1.015-2.905 12.846-5.869 26.343-18.293 31.634-29.12 3.43-7.014 3.911-9.184 3.862-17.376-.039-6.608-.298-8.497-1.774-12.902-2.256-6.738-4.798-11.823-6.316-12.638-1.417-.759-.99-1.878.715-1.878.647 0 2.731.49 4.631 1.089zm-9.103-.196c0 .136-.579.399-1.288.585-.708.185-1.288.074-1.288-.248 0-.321.58-.584 1.288-.584.709 0 1.288.111 1.288.247zm4.462 7.01c3.277 7.113 5.218 14.794 5.174 20.483-.118 15.4-13.556 32.36-33.984 42.894-5.299 2.733-7.041 4.678-5.976 6.672.884 1.654-.112 2.043-5.232 2.043-3.633 0-4.042-.155-6.065-2.303-1.192-1.267-2.169-2.515-2.169-2.773 0-.257 1.885-.348 4.187-.201 3.535.225 4.713.007 7.567-1.401 3.79-1.869 9.22-6.818 15.179-13.832 5.014-5.901 6.435-8.919 7.04-14.948.462-4.61.549-4.801 2.412-5.31 4.003-1.095 6.788-8.277 7.243-18.683.259-5.92.109-7.386-1.079-10.568-1.299-3.478-1.317-3.766-.291-4.9.598-.662 1.774-1.205 2.612-1.205 1.242 0 1.868.747 3.382 4.032zM529.747 56.4c-.539 7.928-2.92 15.16-4.991 15.16-.979 0-.606-4.561 1.052-12.85.881-4.406 1.603-8.785 1.603-9.73 0-2.657.868-2.908 1.846-.534.644 1.563.778 3.728.49 7.954zm-71.241-1.377c1.366.648 1.587 1.152 1.46 3.328-.082 1.41-.231 5.763-.331 9.67-.156 6.108-.381 7.386-1.596 9.096-1.595 2.244-4.685 11.207-4.685 13.588 0 2.28 1.633 5.076 4.024 6.896 2.167 1.648 4.719 2.735 10.787 4.597 5.32 1.632 7.497 2.781 13.846 7.31 5.646 4.028 7.405 5.618 7.405 6.693 0 .289-.76 1.178-1.688 1.974-2.791 2.392-4.31 6.614-4.35 12.091-.108 14.637 10.245 8.533 10.781-6.356.193-5.391.595-5.873 4.917-5.899 1.594-.01 4.492-.499 6.44-1.087 2.482-.75 6.141-1.089 12.235-1.13 11.392-.079 12.527-.745 17.322-10.162 1.623-3.188 4.658-6.341 11.978-12.446 3.997-3.334 8.193-7.353 9.324-8.93 1.612-2.249 2.351-2.792 3.417-2.513.749.197 5.578 4.614 10.732 9.817 5.153 5.203 11.109 10.887 13.234 12.632 2.125 1.745 4.009 3.328 4.186 3.518.177.191 4.088 3.529 8.691 7.419 4.604 3.89 9.096 7.697 9.982 8.46l13.506 11.612c13.72 11.795 23.846 21.325 23.846 22.443 0 .426 1.014 1.962 2.254 3.413 2.485 2.909 2.844 4.187 1.127 4.012-2.317-.236-3.354.072-4.991 1.485-1.653 1.427-1.664 1.494-.663 3.891 1.824 4.367 7.98 6.803 11.06 4.376.917-.723 1.882-1.182 2.142-1.02.261.161.66 2.067.886 4.235.437 4.191-.277 6.607-1.781 6.029-1.268-.488-6.339 1.984-7.291 3.554-1.216 2.004.083 4.088 3.579 5.743 3.413 1.616 4.673 1.756 5.785.642 1.105-1.107 1.002.74-.124 2.226-1.254 1.655-3.754 1.401-11.666-1.183-5.886-1.922-8.109-2.33-13.197-2.419-6.497-.114-7.665.277-11.66 3.913l-1.679 1.527-2.99-2.911-2.99-2.911v-4.538c0-4.161.188-4.801 2.262-7.693 2.569-3.581 2.481-5.427-.243-5.109-1.214.142-2.097.955-3.185 2.938-1.358 2.472-1.744 2.742-3.927 2.742-3.302 0-8.939-1.941-15.745-5.42-3.131-1.6-6.718-3.248-7.971-3.663-2.256-.745-9.743-5.105-11.922-6.941-.691-.582-1.127-1.853-1.127-3.286 0-2.655-1.495-5.205-3.053-5.205-1.239 0-4.03 2.473-4.03 3.571 0 .42.75 1.872 1.666 3.225 1.796 2.652 1.796 3.307-.011 9.332a189.504 189.504 0 00-1.699 6.029c-.349 1.365-1.351 3.83-2.227 5.479-.876 1.648-1.593 3.49-1.593 4.093 0 .603-.257 1.255-.571 1.45-.314.194-.767 1.401-1.007 2.681-.575 3.072-4.535 10.702-6.528 12.577-1.42 1.337-1.795 1.409-3.705.717-4.994-1.809-13.872.416-16.266 4.077-2.762 4.222 5.291 7.098 12.622 4.507 1.505-.532 2.991-.967 3.301-.967 1.032 0 .579 4.812-.79 8.395-.744 1.947-1.501 4.12-1.684 4.83-.182.709-2.544 5.644-5.248 10.967-3.922 7.718-5.211 9.718-6.368 9.883-1.97.28-2.55-1.51-1.221-3.765 2.3-3.9.678-11.071-3.192-14.121-4.663-3.674-9.588.41-7.932 6.576.711 2.641 3.236 7.12 4.432 7.862 1.434.887.545 2.759-2.244 4.728l-2.914 2.058-.628-1.653c-.345-.909-.627-1.782-.627-1.941 0-.962-3.268-6.987-5.573-10.272-9.846-14.038-21.28-19.03-45.998-20.086l-10.036-.429v-1.751c0-.982-.683-2.451-1.555-3.344-1.945-1.991-10.003-7.714-12.25-8.701-.922-.404-5.078-4.027-9.235-8.049-4.156-4.023-8.542-7.895-9.747-8.605-1.204-.71-2.192-1.616-2.195-2.014-.006-.737 3.99-9.165 8.222-17.34a788.067 788.067 0 003.655-7.141c.725-1.444 1.936-3.101 2.691-3.682 1.327-1.022 1.525-.907 5.939 3.401 4.953 4.835 8.032 6.277 11.872 5.555 2.583-.485 5.609-3.208 5.609-5.047 0-2.202-4.399-6.811-8.239-8.63-3.059-1.45-4.206-1.659-7.594-1.387-2.194.176-4.33.111-4.745-.146-1.577-.977-2.268-8.631-1.403-15.568 1.134-9.108 1.863-11.076 4.285-11.57 4.903-1 7.417-4.383 7.484-10.069.036-3.05-.214-3.869-1.61-5.268-1.467-1.469-1.825-1.564-3.175-.84-2.121 1.137-4.64 5.255-6.002 9.81-1.407 4.706-1.986 4.925-10.285 3.903-8.563-1.054-21.216-.933-26.472.253-5.257 1.185-6.903 1.74-13.081 4.414-4.289 1.857-9.61 3.055-12.687 2.858l-3.09-.198v-3.315c0-4.007-1.482-6.039-4.405-6.039-2.305 0-4.94 2.222-4.915 4.144.01.737.86 2.454 1.89 3.817 1.029 1.362 1.739 2.823 1.577 3.245-.786 2.051-10.735 7.275-16.62 8.727-4.109 1.013-4.61.436-3.248-3.734.931-2.853.971-3.745.273-6.239-1.026-3.67-3.825-7.224-8.36-10.614-4.979-3.721-8.525-5.152-12.768-5.152-3.929 0-3.827-.658.285-1.827 4.251-1.209 7-.95 9.149.862 2.571 2.167 5.379 2.705 6.577 1.259.812-.98.747-1.228-.558-2.153a78.906 78.906 0 01-3.153-2.393l-1.677-1.348 1.998-3.49c5.263-9.194 11.758-12.964 26.65-15.471 5.555-.936 6.983-.62 6.983 1.544 0 .845.661 2.523 1.47 3.729 1.287 1.918 1.861 2.217 4.594 2.392 2.676.172 3.386-.053 4.968-1.572 1.017-.975 1.847-2.38 1.847-3.121 0-1.998-1.813-4.232-4.27-5.26-1.193-.5-2.169-1.341-2.169-1.869 0-2.972 18.767-13.067 31.583-16.99 10.825-3.312 11.561-3.345 12.851-.566 1.135 2.447 2.823 2.964 4.555 1.395 1.363-1.236 1.65-4.127.524-5.256-2.033-2.036 5.775-6.246 13.596-7.329 4.488-.622 13.987-.074 16.099.928zm8.279 4.15c2.401 1.849 5.544 3.319 10.03 4.693 2.55.781 15.827.495 26.74-.576 7.107-.698 8.929-.337 10.386 2.058 1.429 2.346 1.707 9.76.504 13.374-1.47 4.412-7.091 8.602-13.759 10.257-3.367.834-4.607.611-12.467-2.247-3.178-1.156-4.522-.91-8.028 1.465-1.493 1.012-2.634 1.414-2.897 1.023-.239-.356-2.608-2.258-5.265-4.226-6.17-4.574-7.32-5.874-9.032-10.208-1.137-2.88-1.338-4.399-1.066-8.064.332-4.472 1.452-9.354 2.147-9.354.198 0 1.416.812 2.707 1.805zm52.859 10.712c1.25 2.026 1.306 2.611.722 7.58-.86 7.311-1.498 9.168-4.48 13.034-3.935 5.101-11.662 12.917-14.814 14.984-2.334 1.53-3.531 1.861-6.762 1.87-4.829.014-7.44-1.217-8.888-4.189-1.411-2.898-5.021-11.039-5.021-11.322 0-.12 1.022-.998 2.27-1.953l2.272-1.735 4.131 1.76c7.198 3.064 14.605 2.261 21.358-2.316 5.661-3.837 7.309-7.268 7.315-15.231.002-2.573.125-4.677.273-4.677.149 0 .879.987 1.624 2.195zm-58.021 11.948c.263 1.856 2.714 5.877 4.753 7.797 2.133 2.009 6.524 3.864 9.145 3.864 2.674 0 3.609 1.145 5.595 6.852.725 2.086 1.586 4.069 1.912 4.406.767.793.759 1.645-.014 1.645-.334 0-2.435-1.14-4.669-2.534-2.234-1.392-6.525-3.301-9.536-4.24-6.061-1.89-9.118-3.289-10.99-5.025-1.573-1.459-1.666-6-.208-10.114.57-1.608 1.149-3.309 1.286-3.779.409-1.404 2.489-.543 2.726 1.128zm92.834-.06c0 1.324-4.365 5.618-11.591 11.403-2.657 2.127-5.183 4.302-5.614 4.834-.539.664-.791.717-.805.168-.012-.439.4-1.31.913-1.935.514-.624 2.962-3.633 5.44-6.684 4.118-5.07 6.462-7.249 9.081-8.438 1.711-.777 2.576-.558 2.576.652zm-84.315 5.109c2.737 1.94 3.145 2.742 1.398 2.742-1.22 0-4.663-2.878-4.663-3.897 0-.959.562-.76 3.265 1.155zm-89.212.558c2.013 1.321 2.085 3.685.139 4.573-2.835 1.294-5.979-1.256-5.205-4.22.444-1.701 2.766-1.863 5.066-.353zm154.852 11.71c0 .273-.724 1.564-1.61 2.87-.885 1.305-1.61 2.551-1.61 2.768 0 1.318-4.495 6.923-6.202 7.735-2.233 1.061-8.315 1.322-8.896.382-.199-.323 1.115-1.499 2.921-2.612 1.806-1.113 3.618-2.298 4.028-2.632.409-.335 2.337-1.833 4.285-3.33s4.122-3.381 4.83-4.187c1.302-1.482 2.254-1.9 2.254-.993zm-89.199 13.141c-.008 2.619-.335 3.848-1.288 4.834-1.802 1.864-3.499 2.366-3.957 1.171-.74-1.93 3.169-10.169 4.61-9.719.355.111.64 1.781.635 3.714zm-125.026.674c-2.826 1.37-2.029 4.682 1.277 5.308 9.757 1.847 14.103 3.391 15.164 5.387.328.618.911 3.59 1.294 6.606.384 3.016.876 6.112 1.093 6.88.497 1.754-1.077 2.843-6.809 4.709-5.279 1.717-5.86 2.176-8.126 6.418-2.187 4.093-5.195 5.818-10.227 5.864-1.771.016-4.286.277-5.589.581-2.878.67-5.272-.333-5.559-2.329-.217-1.509.804-3.583 3.745-7.608 2.205-3.016 2.436-5.469.667-7.073-1.756-1.591-5.044-.867-7.649 1.683-2.778 2.722-3.036 4.298-1.484 9.07 2.303 7.079 1.829 14.604-1.039 16.486-1.479.972-1.929.961-6.189-.137-2.527-.652-5.649-1.853-6.94-2.668-3.799-2.403-6.199-6.579-4.416-7.684.86-.532.816-3.303-.09-5.815-.664-1.839-.496-2.5 1.727-6.819 3.819-7.417 7.34-12.547 9.48-13.813 1.132-.67 3.796-1.288 6.332-1.47l4.379-.314.445 1.858c.632 2.647 1.461 3.471 3.486 3.471 3.028 0 4.431-2.974 2.54-5.382-.688-.877-1.252-1.951-1.252-2.386 0-1.174 7.914-8.694 10.231-9.721 1.103-.489 2.005-1.108 2.005-1.376 0-.269.651-.469 1.448-.444l1.449.043-1.393.675zm9.121 1.894c1.417.392 2.721.924 2.898 1.18.177.257.901.819 1.61 1.249 1.364.829.588.793-5.474-.251-4.782-.823-5.113-.959-4.738-1.938.437-1.141 2.186-1.214 5.704-.24zm39.548 6.271c.676 1.264.255 3.975-.617 3.975-.937 0-2.547-2-2.547-3.164 0-2.237 2.113-2.779 3.164-.811zm121.65 1.297c.232 2.416-1.899 10.061-3.353 12.032-2.249 3.049-3.796-3.304-2.072-8.505 2.028-6.119 4.992-8.045 5.425-3.527zm-149.713.259c3.089 3.247 4.139 9.577 1.951 11.769-1.553 1.555-2.039.552-2.34-4.834-.15-2.661-.495-5.491-.768-6.29-.548-1.602-.029-1.891 1.157-.645zm-35.634 18.285c0 1.034-1.592 3.736-3.342 5.67-1.066 1.179-1.111 1.165-1.524-.484-.642-2.564.173-4.785 2.135-5.815 1.931-1.014 2.731-.829 2.731.629zm144.893 12.36c2.859 1.732 4.508 3.576 4.508 5.041 0 1.734-1.095 2.215-5.05 2.215-2.663 0-3.333-.312-5.778-2.689-3.375-3.282-4.381-4.959-3.206-5.347 3.133-1.036 7.06-.714 9.526.78zm-175.481 1.45c.219.355.09.645-.284.645-.375 0-.682-.29-.682-.645 0-.355.127-.645.284-.645.156 0 .463.29.682.645zm374.202 14.51c1.188 1.818.826 3.553-.744 3.553-1.53 0-5.43-1.971-5.43-2.744 0-1.017 2.088-2.374 3.688-2.396.833-.012 1.874.653 2.486 1.587zm-234.139 17.655c0 .722-3.681 7.661-5.234 9.867-.664.942-1.206 2.005-1.206 2.362 0 .736-8.797 8.506-9.631 8.506-.619 0-6.785 4.059-8.722 5.742-.708.615-4.041 2.668-7.406 4.562-15.363 8.648-23.148 13.986-33.808 23.185-12.905 11.134-16.658 13.516-25.497 16.177-9.981 3.004-20.919 6.498-22.157 7.077-.708.332-5.489 2.33-10.625 4.441-5.136 2.112-11.076 4.634-13.201 5.606-9.399 4.297-12.076 5.546-19.964 9.311-20.777 9.919-38.075 18.855-44.314 22.892-1.202.779-1.711.782-3.5.02-1.235-.527-2.093-1.359-2.093-2.032 0-1.871 5.085-5.733 13.845-10.516 2.125-1.16 5.313-2.907 7.084-3.882 1.771-.976 5.103-2.794 7.406-4.039 6.815-3.689 10.478-5.758 13.027-7.361 1.321-.831 2.559-1.51 2.75-1.51.191 0 1.428-.68 2.75-1.511 1.32-.832 4.14-2.475 6.265-3.654a575.929 575.929 0 006.118-3.438c5.164-2.968 18.347-9.602 21.451-10.793 1.838-.706 3.921-1.562 4.63-1.903 3.772-1.813 9.399-2.571 19.102-2.571 13.831 0 15.512-.848 22.329-11.27 6.632-10.137 12.266-15.545 22.322-21.423 6.132-3.585 23.302-12.465 24.101-12.465.677 0 8.87-4.965 11.639-7.053 9.336-7.041 14.95-11.03 17.964-12.766 3.817-2.197 4.575-2.456 4.575-1.561zm238.59 2.349c0 1.075-.429 1.29-2.576 1.29-2.201 0-2.606-.217-2.787-1.491-.195-1.386-.013-1.477 2.576-1.29 2.291.165 2.787.43 2.787 1.491zm-1.92 16.989c4.926 2.619 7.893 6.47 6.671 8.658-.492.88-.925.934-2.669.335-1.145-.394-3.137-1.377-4.428-2.185-1.289-.808-4.042-1.905-6.117-2.437-3.205-.823-4.366-.842-7.725-.131-2.174.461-4.828 1.461-5.895 2.223-1.069.762-2.231 1.385-2.583 1.385-.352 0-2.147 1.015-3.989 2.257-1.841 1.241-3.609 2.095-3.928 1.897-.895-.554-.705-7.764.224-8.534.443-.367 2.399-1.308 4.347-2.092 8.344-3.358 21.099-4.03 26.092-1.376zm-107.824 2.042c1.366 0 .436 1.084-1.501 1.753-3.484 1.201-6.173 1.593-7.671 1.117-1.379-.439-1.365-.481.469-1.456 2.16-1.148 5.989-2.025 7.255-1.661.471.136 1.123.247 1.448.247zm101.543 5.739c.615.319 1.842.86 2.728 1.202 1.174.455-.482.619-6.118.606-5.712-.012-8.358.254-10.143 1.023-1.327.572-2.414.872-2.414.665 0-.938 2.937-2.785 4.445-2.794.919-.005 2.107-.291 2.638-.635 1.219-.79 7.377-.836 8.864-.067zm-579.214 3.274c.291.274-.071 1.619-.805 2.99-.733 1.371-1.333 2.815-1.333 3.209 0 1.665-2.564 3-5.854 3.05-2.78.042-3.544-.208-4.59-1.502-2.052-2.539-.47-6.93 3.038-8.432 1.434-.614 8.718-.091 9.545.685zm584.576 1.967c7.347 1.64 9.877 2.696 11.163 4.661 1.033 1.579 1.257 5.221.877 14.266-.175 4.171-.314 4.533-2.439 6.311-4.895 4.098-9.418 3.999-15.252-.336-5.597-4.158-7.346-6.108-6.629-7.393 2.605-4.673 3.149-8.707 1.584-11.739-2.207-4.276-6.739-2.819-8.032 2.582-.823 3.435-.58 5.368 1.128 8.987 1.025 2.17 1.017 2.207-.854 3.707-1.094.876-2.758 1.515-3.95 1.517-2.548.004-4.808-2.704-6.658-7.977-2.166-6.173-1.45-10.728 1.683-10.728.888 0 2.83-.622 4.317-1.382 7.855-4.015 13.466-4.617 23.062-2.476zm-175.862.306c4.073.516 8.999 1.341 10.947 1.835 8.905 2.256 16.739 7.107 21.395 13.248 1.513 1.996 2.932 3.774 3.152 3.951.941.756 4.325 8.335 5.106 11.435.795 3.154.752 3.579-.666 6.613-.833 1.782-2.077 3.749-2.763 4.37-1.727 1.564-6.243 1.323-12.137-.649-18.207-6.09-24.192-7.582-35.659-8.888-10.461-1.192-20.714.21-32.199 4.399-6.502 2.372-24.106 11.489-28.452 14.736-1.128.842-2.186 1.531-2.352 1.531-.68 0-13.621 9.041-22.645 15.821-8.691 6.528-13.171 9.373-18.499 11.742-1.624.722-1.984.583-4.799-1.858-2.869-2.487-7.699-5.061-9.498-5.061-.447 0-1.342.586-1.99 1.302-1.154 1.277-1.116 1.361 1.921 4.193 1.705 1.591 3.315 2.891 3.578 2.891.264 0 .631.581.817 1.29.196.754.019 1.291-.426 1.291-1.281 0-8.263 3.836-11.723 6.442-1.797 1.353-5.564 4.841-8.371 7.75-5.553 5.756-13.902 12.903-15.073 12.903-.403 0 .428-1.38 1.848-3.066 3.129-3.718 4.579-7.013 4.579-10.404 0-2.04-.386-2.869-1.95-4.188-3.01-2.537-6.451-2.862-13.988-1.318-1.322.27-2.093.175-2.093-.26 0-.713 7.319-9.55 8.986-10.851.517-.404 3.271-1.68 6.12-2.836 11.598-4.705 20.269-9.644 30.938-17.621 3.372-2.521 9.566-6.18 14.811-8.749 9.292-4.552 16.256-7.8 16.723-7.8.147 0 2.764-1.161 5.816-2.58 3.053-1.42 5.657-2.581 5.787-2.581.28 0 8.569-3.781 14.498-6.614 4.977-2.377 13.419-7.521 16.971-10.34 3.178-2.521 6.212-7.232 6.212-9.645 0-1.007-.466-2.544-1.035-3.415-1.184-1.809-1.407-1.668 4.577-2.89 6.662-1.36 11.09-2.817 16.985-5.591 2.47-1.162 4.187-1.407 10.062-1.438 3.896-.02 10.416.385 14.489.9zm-33.897.774c.539.541-4.636 2.121-8.444 2.578-3.789.456-3.428-.571.644-1.83 3.665-1.133 7.087-1.461 7.8-.748zm196.821 8.664c0 3.592-.849 5.726-2.276 5.726-1.383 0-1.32-7.273.074-8.669 1.532-1.535 2.202-.64 2.202 2.943zm-213.276-.026c3.366 1.175 3.3 4.048-.188 8.201-3.103 3.694-14.41 10.554-25.77 15.635-1.771.792-5.104 2.303-7.406 3.358-2.302 1.055-6.649 2.941-9.659 4.19-17.099 7.095-25.564 11.649-36.707 19.746-8.031 5.836-22.789 14.037-24.304 13.504-.613-.214-.59-.49.101-1.181 3.127-3.134 26.661-20.542 40.946-30.291 15.749-10.746 17.972-12.236 26.403-17.699 10.419-6.751 17.44-10.721 24.149-13.654 1.676-.732 8.076-2.412 9.403-2.466.566-.023 1.931.272 3.032.657zm102.054 3.125c1.984 2.362 2.687 5.904 1.741 8.774-.639 1.941-.865 2.108-1.941 1.435-1.627-1.018-4.42-6.252-4.6-8.622-.295-3.877 2.186-4.698 4.8-1.587zm147.366 7.14c.576.308 2.098.757 3.381.998 3.567.67 2.913 1.839-.726 1.297a874.041 874.041 0 00-5.477-.797c-2.611-.368-3.37-1.034-2.82-2.471.279-.725.787-.777 2.473-.249 1.166.365 2.593.914 3.169 1.222zm10.222 3.228c1.437.461 1.35.523-.805.581-1.328.035-2.415-.226-2.415-.581 0-.738.918-.738 3.22 0zm-213.798 12.499c5.761 1.082 10.557 2.172 13.202 3 1.062.332 5.409 1.725 9.659 3.094 10.949 3.526 14.102 4.191 17.479 3.684 2.839-.427 2.91-.396 2.464 1.06-.698 2.28-4.66 6.873-6.954 8.062-5.321 2.758-13.166 3.5-19.751 1.869-1.948-.482-6.439-1.85-9.981-3.041-5.679-1.909-7.239-2.164-13.201-2.164-5.966 0-7.277.215-11.128 1.826-8.538 3.571-25.283 13.527-44.342 26.364-12.926 8.706-21.057 13.82-25.027 15.738-4.055 1.959-8.385 2.048-11.32.231-2.452-1.518-10.565-10.239-10.571-11.363-.002-.413 2.242-1.962 4.987-3.442 2.746-1.482 9.338-5.963 14.651-9.96 18.132-13.642 27.84-19.826 42.603-27.139 17.218-8.529 31.161-10.838 47.23-7.819zm312.808 9.88c-.62.162-1.634.162-2.254 0-.62-.162-.112-.295 1.127-.295 1.24 0 1.747.133 1.127.295zm7.418 1.269c-.436.176-1.305.187-1.932.024-.627-.164-.27-.309.793-.322 1.062-.013 1.575.121 1.139.298zm8.368 1.966c-.792.153-2.241.157-3.219.009-.979-.148-.332-.273 1.439-.279 1.771-.004 2.572.117 1.78.27zm8.846 1.481c1.272.408.907.531-1.733.581-1.839.035-3.522-.226-3.741-.581-.47-.762 3.1-.762 5.474 0zm7.728 1.936c0 .749-2.818.749-5.152 0-1.267-.407-.89-.531 1.771-.581 1.867-.035 3.381.225 3.381.581zm8.6 1.847c.405.33 2.186.751 3.957.934 1.771.183 5.248.81 7.728 1.394 2.479.583 5.883 1.316 7.564 1.629 1.682.313 3.364.758 3.74.991.375.232 2.187.671 4.026.976 7.181 1.19 10.75 2.058 10.75 2.614 0 .32 1.232.586 2.737.591 1.506.006 3.172.292 3.703.636.692.448.019.628-2.377.635-1.838.005-3.504-.252-3.701-.572-.198-.319-2.099-.784-4.225-1.031-2.127-.247-4.028-.711-4.226-1.031-.197-.32-1.365-.582-2.595-.582-1.23 0-3.277-.435-4.548-.967-1.272-.533-3.419-.968-4.771-.968-1.353 0-2.618-.256-2.811-.57-.193-.313-1.944-.769-3.892-1.013-1.947-.243-3.706-.712-3.91-1.043-.203-.329-1.602-.6-3.107-.6-1.505 0-3.299-.426-3.987-.947-.687-.521-2.627-.956-4.309-.967-1.847-.013-3.059-.312-3.059-.756 0-.862 6.128-.32 7.313.647zm51.289 11.7c0 .749-2.818.749-5.152 0-1.267-.406-.889-.53 1.771-.58 1.867-.036 3.381.224 3.381.58zm5.956 1.746c-.796.153-2.101.153-2.898 0-.796-.154-.144-.28 1.449-.28 1.594 0 2.246.126 1.449.28zm6.44 1.262c-.442.179-1.167.179-1.61 0-.442-.179-.08-.325.805-.325.886 0 1.248.146.805.325zm7.096 1.931c-.436.177-1.305.188-1.932.024s-.27-.308.793-.321c1.062-.013 1.575.12 1.139.297zm27.801 4.875c-.08 6.175-3.847 7.424-8.362 2.771-2.79-2.876-2.8-2.901-1.229-3.296.871-.218 2.669-.956 3.996-1.638 1.328-.683 3.138-1.159 4.023-1.059 1.471.166 1.607.446 1.572 3.222zm-568.908 5.669c0 .355-.128.645-.284.645-.157 0-.463-.29-.682-.645-.219-.355-.091-.645.284-.645s.682.29.682.645zm-48.942 3.159c0 .741-6.52 9.3-9.574 12.568-5.446 5.825-14.195 9.848-20.173 9.274-3.194-.306-10.292-3.501-10.679-4.805-.125-.425 1.168-1.405 2.873-2.18 1.705-.774 5.223-2.387 7.817-3.583 2.594-1.197 4.988-2.176 5.321-2.176.333 0 1.109-.276 1.724-.614 1.164-.638 3.809-1.742 8.202-3.42 5.756-2.2 11.666-4.499 12.879-5.012.709-.298 1.361-.563 1.449-.587.088-.024.161.216.161.535zm47.906 2.387c1.62.623 1.951 4.344.683 7.67-1.816 4.764-8.605 10.16-16.712 13.284-3.979 1.534-15.044 4.125-15.53 3.638-.459-.459 14.839-15.609 18.75-18.567 1.77-1.34 5.103-3.322 7.405-4.404 4.923-2.314 4.181-2.091 5.404-1.621zm-135.99 6.73c4.018 1.997 4.947 2.829 6.658 5.96 1.76 3.223-.487 2.838-6.305-1.082-2.946-1.983-5.711-3.606-6.144-3.606-1.035 0-1.021-2.379.017-2.799 1.398-.565 1.756-.47 5.774 1.527zm100.654 2.813c.856 1.308.891 2.007.233 4.626-.998 3.968-5.889 9.315-8.521 9.315-3.302 0-7.703-3.835-8.761-7.635-1.443-5.182 2.211-7.683 11.387-7.792 4.227-.05 4.747.086 5.662 1.486zm-120.12 4.747c3.513 1.618 7.736 4.799 7.304 5.501-.439.711-6.277.25-11.804-.932-5.98-1.279-8.959-4.297-5.635-5.709 1.873-.795 7.245-.192 10.135 1.14zm99.823.549c0 1.754 2.474 5.842 4.746 7.84 1.892 1.665 2.122 2.143 1.463 3.047-.645.883-2.472 1.136-10.46 1.443l-9.677.373-2.049-2.19c-1.127-1.204-2.05-2.348-2.051-2.541-.002-.194 1.642-.859 3.655-1.48 3.33-1.027 11.877-6.087 12.794-7.575.513-.832 1.579-.101 1.579 1.083zm-34.764 2.201c1 .715 3.581 2.174 5.733 3.244 2.154 1.07 3.916 2.351 3.916 2.846 0 1.185 3.664 4.826 5.596 5.562 2.059.784 2.428 2.074 1.52 5.298-1.171 4.159-3.936 7.842-6.072 8.09-2.14.249-3.346-.735-7.371-6.016-1.623-2.129-3.11-4.016-3.304-4.193-.6-.547-5.548-7.276-7.335-9.975-1.872-2.829-1.808-2.995 1.852-4.824 3.204-1.601 3.263-1.601 5.465-.032z" fill="#fff"/></svg>