<svg width="95" height="58" viewBox="0 0 95 58" fill="none" xmlns="http://www.w3.org/2000/svg"><path fill-rule="evenodd" clip-rule="evenodd" d="M21.942.563c.654 1.036 2.668 4.228 3.521 8.052.968 4.29.94 6.914.526 9.92-.76 5.39-3.153 9.539-4.203 10.921-.72-.93-1.812-2.864-2.545-4.642 0 0-1.382-3.415-1.742-6.745-.36-3.316-.207-6.689.858-10.499.981-3.4 2.89-6.477 3.415-7.28.035.059.093.151.17.273zM20.5 23.093c.069 2.666.802 4.388 1.272 5.291.498-.917 1.327-2.935 1.244-5.517-.097-2.625-.968-4.558-1.23-5.01-.29.452-1.3 2.667-1.286 5.236zm4.217-2.809c.249-1.044.428-2.765.47-4.402.041-1.623-.125-4.403-.899-7.282-.788-2.892-2.309-5.658-2.53-6.01-.221.352-1.424 2.581-2.489 6.081-.276 1.044-.788 3.33-.871 5.546-.097 2.68.263 5.362.401 6.11 0-.89.014-3.853.553-6.308.54-2.441 1.576-5.277 2.406-6.717.899 1.51 2.033 4.784 2.434 6.731.4 1.976.608 4.473.525 6.251zm10.785 10.173h-5.96v15.974h3.125V32.447h2.834v-1.99zm4.066 1.994l-.539 7.986h1.258l-.539-7.986h-.18zm-.926 13.984h-3.07l1.632-15.974h4.922l1.632 15.974h-3.056l-.29-4.248h-1.48l-.29 4.248zm9.595-5.592v3.005c0 .41.304.523.484.523.29 0 .498-.255.498-.523v-3.725c0-.494-.083-1.044-1.258-1.044h-1.272v-1.75h1.327c.885 0 1.203-.212 1.203-1.185v-3.175c0-.268-.208-.522-.498-.522-.18 0-.484.098-.484.522v2.61h-3.125v-2.272c0-1.114.125-2.85 2.323-2.85h2.586c2.198 0 2.337 1.736 2.337 2.85v2.554c0 1.736-1.19 2.216-2.13 2.174v.155c2.102-.057 2.13 1.594 2.13 2.159v3.217c0 1.129-.139 2.85-2.337 2.85h-2.586c-2.198 0-2.323-1.721-2.323-2.85V40.83h3.125v.014zM61.65 30.46h-7.246v15.974h3.139V32.45h.982v13.984h3.125V30.46zm5.184 8.791V32.45h.415c.332 0 .58.282.58.804v5.193c0 .508-.248.804-.58.804h-.415zm-3.125 7.183h3.125v-5.433h1.797c2.185 0 2.323-1.722 2.323-2.85v-4.84c0-1.115-.138-2.851-2.323-2.851H63.71v15.974zm12.927-2.065c.29 0 .498-.253.498-.522v-10.88c0-.267-.207-.521-.498-.521-.18 0-.484.098-.484.522v10.88c0 .409.305.522.484.522zm-1.3 2.06c-2.184 0-2.322-1.72-2.322-2.85V33.307c0-1.114.138-2.85 2.323-2.85h2.599c2.185 0 2.323 1.736 2.323 2.85V43.58c0 1.13-.138 2.85-2.323 2.85h-2.6zm15.115-15.973h4.078V46.43h-3.124V36.41h-.111l-1.632 10.02H87.16l-1.604-10.02h-.11v10.02H82.32V30.457h4.065l2.047 11.232 2.019-11.232zm-67.047.003h-7.287v4.995l.014-.014a4.344 4.344 0 016.222 0c1.714 1.735 1.714 4.586 0 6.336l-.028.028c-.009 0-.012.005-.016.013a.08.08 0 01-.012.015 8.73 8.73 0 01-6.194 2.596 8.595 8.595 0 01-6.208-2.624c-3.028-3.076-3.388-7.86-1.079-11.345a8.77 8.77 0 011.079-1.341 8.675 8.675 0 016.208-2.625V14.5C7.475 14.514.479 21.64.479 30.46c0 8.819 6.996 15.96 15.638 15.96 4.507 0 8.559-1.948 11.42-5.053V30.46h-4.133zM.48 49.11h94.05v8.678H.48v-8.679zm5.103 3.104v-.917h-2.35v4.558h1.092v-3.64h1.258zm.732.265c0-.38.111-.677.346-.903.249-.254.622-.38 1.12-.38.484 0 .844.126 1.106.38.221.226.346.536.346.917v2.047c0 .465-.11.818-.346 1.058-.235.24-.594.353-1.092.353-.484 0-.857-.127-1.092-.367-.235-.24-.36-.593-.36-1.059V52.48h-.028zm1.438-.465a.36.36 0 00-.262.098.397.397 0 00-.11.283v2.314c0 .127.04.226.11.296.069.07.166.1.262.1a.361.361 0 00.263-.1.42.42 0 00.11-.31V52.38a.375.375 0 00-.11-.283.394.394 0 00-.263-.084zm2.407-.717v4.544h1.079v-1.778h.484c.373 0 .663-.085.884-.269.277-.225.415-.606.415-1.114 0-.522-.138-.903-.415-1.13-.207-.168-.497-.253-.884-.253H10.16zm1.272 1.961h-.193v-1.157h.18a.56.56 0 01.387.127c.096.085.138.226.138.438 0 .211-.056.367-.152.465a.51.51 0 01-.36.127zm3.54.663v1.934h-1.08v-4.558h1.08v1.707h.704v-1.707h1.079v4.558h-1.079v-1.933h-.705zm3.07-2.345c-.234.226-.345.522-.345.903h.028v2.047c0 .465.124.818.36 1.058.235.24.608.367 1.092.367.497 0 .857-.113 1.092-.353.235-.24.346-.593.346-1.058v-2.047c0-.38-.125-.69-.346-.917-.263-.254-.622-.38-1.106-.38-.498 0-.871.126-1.12.38zm.844.536a.36.36 0 01.263-.098.45.45 0 01.263.084c.069.071.11.156.11.283v2.314a.42.42 0 01-.11.31.36.36 0 01-.263.1.36.36 0 01-.263-.1.409.409 0 01-.11-.296v-2.314a.4.4 0 01.11-.283zm2.473 2.558v-.705h2.683v.705h-2.683zm4.19-2.456v3.64h.995v-3.64h.788v-.917h-2.627v.917h.844zm5.558-.917l-.004.014h-1.116l-.429 2.088-.097.847-.069-.945-.4-1.99h-1.12l1.009 3.584c-.014.07-.056.113-.097.127a.489.489 0 01-.152.028h-.139a.397.397 0 01-.124-.028v.776c.041.043.124.07.221.1.097.013.207.027.318.027.373 0 .65-.084.816-.225.166-.156.304-.452.428-.89l.95-3.499h.005v-.014zm.747 0v4.544h1.078v-1.778h.484c.373 0 .664-.085.885-.269.276-.225.415-.606.415-1.114 0-.522-.139-.903-.415-1.13-.208-.168-.498-.253-.885-.253h-1.562zm1.272 1.961h-.194v-1.157h.18c.166 0 .29.043.387.127.097.085.138.226.138.438 0 .211-.055.367-.152.465a.51.51 0 01-.36.127zm4.245 2.597v-1.059c.055-.564.124-1.142.193-1.721l-.926 2.78h-1.051v-4.558h1.037v1.143c0 .127-.041.494-.11 1.086l-.019.17c-.02.19-.037.345-.037.465l.913-2.864h1.023v4.558H37.37zm4.812-1.81H41.12v.622c0 .169-.042.296-.111.366a.392.392 0 01-.29.113c-.125 0-.222-.042-.277-.113-.07-.07-.097-.197-.097-.366V52.38c0-.113.042-.198.11-.254a.381.381 0 01.25-.085c.097 0 .18.042.263.099.082.056.124.14.124.254v.508h1.078v-.41c0-.38-.11-.69-.345-.917-.263-.254-.622-.38-1.106-.38-.498 0-.872.112-1.12.366-.235.226-.346.536-.346.917v1.976c0 .522.124.889.36 1.129.234.24.608.353 1.106.353.497 0 .87-.113 1.106-.353.235-.226.36-.607.36-1.115v-.423zm1.577 1.81v-3.64h-.844v-.918h2.627v.917h-.788v3.64h-.995zm4.354-1.059v1.059h1.023v-4.558h-1.023L47.2 54.16c0-.12.017-.276.038-.465l.018-.17c.069-.592.11-.96.11-1.086v-1.143H46.33v4.558h1.05l.927-2.78c-.032.274-.062.548-.092.82v.001a63.16 63.16 0 01-.101.9zm1.95-3.5h1.064v1.539c0 .212.097.31.304.31.153 0 .29-.028.401-.084v-1.764h1.079v4.558h-1.078v-1.92a1.645 1.645 0 01-.402.1 4.014 4.014 0 01-.47.028.865.865 0 01-.58-.226c-.222-.184-.318-.438-.318-.748v-1.792zm3.954 0v4.545h2.502v-.861h-1.424v-1.087h1.314v-.86h-1.314v-.875h1.424v-.861h-2.502zm5.102 2.75h1.065v.423c0 .508-.124.89-.36 1.115-.234.226-.608.353-1.105.353-.498 0-.871-.113-1.107-.353-.235-.24-.36-.607-.36-1.129v-1.976c0-.38.111-.691.347-.917.248-.254.622-.367 1.12-.367.483 0 .843.127 1.106.381.235.226.345.536.345.917v.41h-1.078v-.508c0-.113-.042-.198-.125-.254a.465.465 0 00-.262-.099.381.381 0 00-.25.085.313.313 0 00-.11.254v2.286c0 .169.028.296.097.366.055.071.152.113.277.113a.391.391 0 00.29-.113c.07-.07.11-.197.11-.366v-.621zm2.007-2.75v4.545h1.023v-1.059l.29-.522.498 1.58h1.134l-.995-2.54.995-2.003h-1.175l-.747 1.806v-1.806h-1.023zm5.501 4.559v-1.059c.037-.297.07-.597.102-.9v-.002c.03-.273.06-.546.092-.82l-.926 2.78h-1.051v-4.557h1.037v1.143c0 .127-.042.494-.11 1.086l-.011.099-.008.07v.001c-.02.19-.037.345-.037.465l.912-2.864h1.024v4.558h-1.024zm3.816-1.06v1.059h1.023v-4.558h-1.023l-.913 2.864c0-.183.014-.395.042-.634l.027-.242c.053-.472.084-.748.084-.845v-1.143H68.66v4.558h1.051l.927-2.78c-.033.274-.063.547-.092.82-.033.304-.066.605-.102.901zm-.373-3.781c-.29 0-.526-.057-.678-.184-.18-.14-.276-.352-.263-.635h.415c0 .127.07.212.194.268a.876.876 0 00.36.057c.151 0 .262-.014.331-.057.083-.042.152-.14.194-.268h.4c0 .268-.096.48-.29.621-.18.127-.4.198-.663.198zm5.517 3.922h.692v-3.64h1.078v3.64h.235v1.849h-1.05v-.946H74.51v-4.558h1.078v3.655zm2.821-3.64v4.545h2.503v-.861h-1.424v-1.087H80.8v-.86h-1.313v-.875h1.424v-.861h-2.503zm4.452 2.626v1.933h-1.079v-4.558h1.079v1.707h.705v-1.707h1.078v4.558h-1.078v-1.933h-.705zm2.586-1.708h.844v3.64h.995v-3.64h.788v-.917h-2.627v.917zm3.428 3.627v-4.544h1.562c.388 0 .678.085.885.254.277.226.415.607.415 1.129 0 .508-.138.889-.415 1.114-.22.184-.511.269-.885.269h-.483v1.778h-1.079zm1.065-2.583h.193a.51.51 0 00.36-.127c.097-.099.152-.254.152-.465 0-.212-.042-.353-.138-.438a.56.56 0 00-.388-.127h-.18v1.157z" fill="#0F6EB4"/></svg>