<svg width="1491" height="335" viewBox="0 0 1491 335" fill="none" xmlns="http://www.w3.org/2000/svg">
<g clip-path="url(#clip0_556_2622)">
<path fill-rule="evenodd" clip-rule="evenodd" d="M522.763 1.09912C519.012 3.18901 516.46 6.67414 506.809 22.8921C495.805 41.3825 488.981 49.9306 482.638 53.1664C478.351 55.3535 477.552 55.5039 474.9 54.6292C473.118 54.041 469.475 51.1297 465.731 47.3024C462.315 43.8096 458.252 40.1631 456.702 39.2005C454.124 37.5983 453.771 37.5645 452.537 38.7974C451.304 40.0304 451.304 40.5958 452.536 45.4584C457.732 65.9584 458.393 67.4525 463.383 69.9962C468.167 72.4342 477.436 71.3728 487.418 67.2438C494.858 64.166 501.477 62.0093 501.97 62.502C502.789 63.3209 499.358 69.3776 493.401 77.6307C483.206 91.7554 472.629 107.042 471.377 109.463C468.703 114.632 469.743 121.054 475.12 132.574C476.595 135.733 478.205 140.297 478.699 142.715C479.554 146.907 479.43 147.525 476.031 155.985C473.021 163.476 470.698 170.362 463.347 193.591C462.906 194.986 461.926 198.408 461.169 201.197C460.412 203.986 459.072 208.93 458.192 212.183C456.327 219.065 456.14 226.669 457.554 238.092C458.781 247.995 457.931 251.79 453.648 255.549C450.528 258.289 442.556 261.031 438.934 260.612C436.817 260.367 436.958 260.155 441.472 256.795C446.176 253.293 449.797 249.171 449.797 247.316C449.797 246.796 446.982 243.363 443.543 239.686C431.298 226.599 431.425 219.788 444.507 188.034C453.219 166.888 454.193 159.425 448.828 154.929C446.329 152.833 445.414 152.605 439.522 152.605C435.928 152.605 432.779 152.268 432.524 151.854C432.269 151.442 433.961 148.195 436.283 144.638C448.164 126.445 450.681 114.835 446.005 99.7871C443.04 90.2444 443.219 85.7274 446.922 76.7467C449.705 69.9953 449.971 68.6331 450.022 60.8127C450.08 52.0382 448.784 45.2032 446.739 43.5079C445.838 42.76 445.072 43.0989 443.252 45.0527C441.244 47.2077 432.705 61.6181 431.064 65.6212C430.758 66.3674 429.046 68.3635 427.259 70.0587C425.473 71.7531 415.451 81.6406 404.989 92.0317C385.763 111.127 377.259 117.956 372.708 117.956C371.451 117.956 369.103 117.177 367.488 116.225C364.822 114.652 364.292 114.602 361.722 115.675C357.757 117.332 351.811 124.141 342.206 138.025C332.614 151.89 326.962 158.361 322.422 160.672C317.396 163.231 309.831 168.338 300.58 175.416C286.498 186.191 284.898 187.104 278.151 188.218C267.553 189.968 262.341 194.462 249.871 212.606C235.458 233.574 223.822 244.162 205.47 253.003C193.084 258.971 181.037 262.166 155.59 266.229C125.902 270.969 122.036 271.995 108.882 278.625C100.76 282.718 87.002 292.434 74.8524 302.654C62.2278 313.275 43.4214 322.798 25.3954 327.696C9.63756 331.977 15.6899 331.822 -156.159 332.338C-244.622 332.602 -317 333.145 -317 333.543C-317 333.94 -316.144 334.477 -315.098 334.735C-314.051 334.994 -240.912 335.075 -152.566 334.915L8.06421 334.625L17.7866 332.417C29.0171 329.868 39.7607 326.224 49.746 321.576C57.4909 317.971 71.5967 309.025 76.6684 304.502C82.6887 299.133 98.1142 287.875 105.113 283.746C116.212 277.194 126.804 273.642 143.12 270.997C146.258 270.488 151.395 269.662 154.533 269.162C179.348 265.207 193.736 261.452 206.026 255.723C224.368 247.171 236.619 236.096 251.632 214.493C263.883 196.865 269.144 192.215 278.087 191.108C283.7 190.413 287.761 188.391 295.836 182.27C311.896 170.098 315.324 167.674 320.526 164.82C328.671 160.35 334.037 154.749 343.3 141.049C349.442 131.964 356.808 122.447 359.266 120.421C362.78 117.526 364.752 117.355 368.213 119.646C371.403 121.758 371.986 121.748 376.888 119.495C383.399 116.504 390.506 110.336 406.874 93.476C415.369 84.7243 423.714 76.7459 425.418 75.747C428.493 73.9444 432.7 68.1472 437.715 58.8005C439.086 56.2442 441.291 52.4413 442.613 50.3497L445.018 46.5468L446.219 49.4835C448.223 54.3833 447.888 66.7131 445.588 72.7444C444.524 75.5332 443.366 78.1952 443.015 78.66C442.664 79.1248 441.925 81.5966 441.373 84.153C440.329 88.9869 440.558 90.5326 444.239 103.59C447.642 115.661 444.865 126.322 433.793 143.697C427.134 154.145 427.654 155.123 440.02 155.41C445.782 155.544 446.761 155.802 448.182 157.558C449.069 158.655 449.797 160.727 449.797 162.162C449.797 165.776 446.164 177.33 441.811 187.555C433.022 208.206 430.548 218.455 432.415 226.479C433.708 232.043 438.322 239.393 442.537 242.607C446.531 245.653 447.073 247.704 444.592 250.383C442.378 252.775 431.898 260.815 426.241 264.462C421.482 267.532 422.559 269.314 427.887 267.184C429.845 266.4 435.101 264.874 439.566 263.791C453.094 260.513 456.241 258.761 459.28 252.807C461.082 249.278 461.074 250.749 459.419 226.549C459.054 221.204 459.339 218.373 460.78 213.028C461.784 209.31 463.104 204.353 463.715 202.015C466.774 190.299 474.627 166.594 479.383 154.717C482.848 146.063 482.509 142.279 477.208 130.49C472.801 120.688 471.853 115.516 473.668 111.183C474.347 109.563 477.181 105.005 479.967 101.055C482.754 97.1039 488.935 88.3573 493.704 81.6178C503.461 67.8302 505.812 63.7122 505.433 61.0679C505.024 58.2098 502.88 58.4109 493.121 62.2265C480.517 67.1525 476.583 68.2139 470.59 68.3052C464.251 68.4007 461.442 66.8178 460.082 62.3812C457.861 55.1371 454.869 44.0082 454.869 42.9916C454.869 40.9194 456.317 41.9192 462.558 48.3004C469.868 55.7752 472.313 57.2515 477.383 57.2515C486.713 57.2515 494.758 48.57 511.145 20.8217C517.893 9.39531 523.654 2.17999 526.031 2.17999C528.195 2.17999 529.728 4.81664 532.176 12.7435C535.372 23.0958 538.288 28.3091 546.13 37.7047C560.491 54.9064 561.094 57.7628 553.628 73.1669C547.947 84.8857 547.667 85.6421 544.94 96.6678C542.211 107.697 541.034 109.963 537.414 111.157C533.125 112.572 532.122 114.292 530.984 122.182C528.481 139.532 523.724 146.192 505.172 158.323C492.354 166.702 487.543 171.01 485.125 176.267C482.719 181.498 482.278 183.127 478.832 199.507C477.17 207.408 475.486 215.394 475.09 217.254C474.694 219.113 473.026 225.948 471.383 232.443C467.947 246.026 467.582 250.634 469.939 250.634C471.892 250.634 473.96 248.351 478.738 240.916C503.986 201.63 506.591 198.388 514.744 196.101C517.553 195.314 520.599 193.856 521.514 192.862C523.412 190.802 525.62 184.715 526.385 179.436C527.913 168.884 531.216 162.6 535.989 161.162C542.288 159.264 547.084 153.799 553.999 140.639C556.113 136.615 559.498 130.977 561.52 128.113L565.196 122.903L565.168 113.035C565.152 107.608 564.962 99.1744 564.745 94.294C564.352 85.4418 564.358 85.4071 567.31 79.9276C569.866 75.1808 570.309 73.4965 570.564 67.5336C570.749 63.2077 570.354 58.4143 569.507 54.69C567.87 47.4916 567.876 47.8145 569.38 47.8145C571.414 47.8145 574.728 53.005 577.315 60.2372C581.89 73.0343 587.2 78.3693 600.126 83.1575C609.718 86.7111 611.272 87.803 611.272 90.9881C611.272 92.4433 611.806 93.7067 612.54 93.9881C614.758 94.8391 613.967 96.4515 606.944 105.403C591.286 125.362 588.384 131.717 591.364 139.517C592.662 142.917 592.691 143.848 591.639 148.589C589.734 157.184 591.356 160.11 593.812 152.508C595.547 147.138 595.59 142.476 593.941 138.531C593.243 136.862 592.673 134.793 592.673 133.933C592.673 130.952 597.204 122.826 603.395 114.706C614.894 99.6256 617.65 95.1873 616.506 93.596C615.946 92.8177 615.266 91.6109 614.994 90.9137C613.452 86.9562 612.281 85.7156 607.872 83.3663C605.194 81.9398 602.403 80.7727 601.668 80.7727C598.782 80.7727 590.597 76.2168 587.192 72.714C583.845 69.2728 582.53 66.6894 578.6 55.8428C575.808 48.139 566.646 41.2625 565.42 45.9511C565.201 46.7852 565.592 49.5418 566.289 52.0779C566.997 54.6571 567.576 60.4104 567.603 65.1387C567.651 73.2312 567.52 73.8574 564.523 79.9039C561.005 86.9984 560.957 87.5266 562.361 103.59C563.619 117.988 563.077 121.741 558.941 127.243C557.181 129.584 553.874 135.123 551.592 139.555C545.403 151.571 542.538 154.962 535.602 158.479C530.316 161.16 529.456 161.955 527.497 165.973C526.29 168.446 524.647 173.883 523.844 178.055C521.36 190.961 520.901 191.603 512.358 194.109C506.784 195.745 500.294 202.678 490.985 216.947C486.611 223.651 482.878 229.505 482.688 229.956C482.5 230.406 480.065 234.198 477.279 238.381C470.722 248.224 470.514 246.874 475.48 226.777C477.578 218.285 480.1 207.155 481.082 202.042C483.822 187.794 486.621 178.348 489.273 174.401C491.012 171.811 495.543 168.191 505.612 161.347C520.708 151.085 525.365 146.599 529.275 138.551C531.686 133.588 534.338 122.675 534.339 117.715C534.339 115.735 534.935 115.106 538.089 113.755C543.304 111.519 545.135 108.203 547.898 95.9842C549.422 89.2497 551.696 83.0654 555.824 74.4346C560.908 63.806 561.392 62.4826 561.392 59.207C561.392 54.3993 557.822 47.8812 549.827 38.096C540.467 26.6392 538.494 23.291 535.245 13.3545C531.763 2.70141 530.705 0.876025 527.567 0.109535C526.27 -0.206526 524.426 0.172907 522.763 1.09912ZM807.961 68.1463C804.947 70.5159 800.95 79.3403 795.256 96.2005C786.701 121.531 779.543 136.146 771.37 144.97C765.208 151.624 761.319 153.638 750.287 155.89C740.679 157.853 733.753 160.741 726.919 165.636C722.228 168.995 714.243 172.148 704.268 174.581C682.689 179.843 673.562 183.539 660.501 192.301C647.742 200.861 639.347 208.269 611.695 235.367C582.555 263.922 576.019 267.288 542.793 270.849C528.361 272.396 516.061 275.018 507.823 278.306C499.997 281.428 490.957 285.952 486.865 288.795C485.63 289.652 484.373 290.353 484.071 290.353C483.768 290.353 481.353 291.803 478.706 293.574C471.861 298.152 466.85 300.959 455.326 306.67C440.155 314.189 406.415 327.134 403.593 326.518C402.966 326.381 404.865 324.652 407.812 322.675C410.759 320.698 417.702 315.271 423.241 310.614C454.469 284.36 467.545 274.791 481.246 268.171C492.074 262.939 497.237 261.28 512.04 258.279C538.261 252.963 545.694 248.979 568.461 228.034C582.194 215.4 591.306 208.644 600.687 204.14C607.103 201.06 610.442 200.18 622.888 198.285C625.789 197.843 629.594 196.827 631.342 196.028C635.77 194.001 646.77 186.321 654.811 179.64C665.801 170.509 672.2 166.048 678.483 163.135C684.341 160.419 698.556 155.53 704.268 154.266C705.896 153.906 714.455 152.085 723.29 150.22C745.226 145.588 747.385 144.625 747.385 139.472C747.385 137.211 746.472 135.891 742.074 131.786C739.152 129.06 732.164 123.684 726.546 119.839C712.408 110.165 708.981 106.435 700.554 91.5526C699.302 89.3402 697.119 86.941 695.686 86.1998C693.21 84.9195 692.89 84.9592 688.877 87.0398C686.562 88.2407 684.207 89.2235 683.646 89.2235C683.084 89.2235 680.187 87.6407 677.21 85.7071C670.707 81.4834 664.467 79.0825 659.993 79.0825C653.834 79.0825 650.356 77.4422 647.196 73.047C642.867 67.0224 637.892 66.5119 633.133 71.6052C630.427 74.5005 628.862 79.0994 626.428 91.316C624.814 99.4161 622.81 104.548 618.568 111.456C616.625 114.618 615.571 118.456 613.878 128.52C613.41 131.309 612.575 136.252 612.023 139.506C611.47 142.76 609.748 148.141 608.194 151.465C605.873 156.435 604.205 158.533 598.81 163.272C595.202 166.443 590.231 170.896 587.763 173.167C583.171 177.396 581.253 177.915 583.633 174.285C586.619 169.729 590.958 160.856 590.535 160.172C589.658 158.753 587.581 160.431 585.929 163.893C582.099 171.917 575.181 181.768 569.531 187.241C565.559 191.09 564.62 193.169 566.854 193.169C567.94 193.169 573.538 188.987 579.991 183.355C582.412 181.242 589.173 175.461 599.198 166.93C610.66 157.175 612.399 153.61 615.879 132.745C618.472 117.197 619.212 114.667 622.605 109.737C624.175 107.454 626.048 103.521 626.765 100.997C629.052 92.9495 629.871 89.4914 629.871 87.8815C629.871 84.7556 633.499 74.9213 635.256 73.2819C638.393 70.3562 641.143 70.2049 643.466 72.8298C649.476 79.6183 650.881 80.5978 655.417 81.1589C665.619 82.4215 668.753 83.4448 675.103 87.5883C682.129 92.1737 684.729 92.6503 688.628 90.0686C691.763 87.9931 694.301 87.9204 696.017 89.8573C696.738 90.6703 699.338 94.7588 701.795 98.942C707.446 108.562 713.143 114.193 725.497 122.369C736.694 129.779 744.848 137.043 744.848 139.606C744.848 142.421 740.347 144.1 724.558 147.173C714.811 149.071 706.202 151.111 694.546 154.282C681.597 157.806 670.19 163.789 659.038 172.904C635.429 192.199 627.9 196.397 616.695 196.514C612.692 196.555 604.288 199.157 598.186 202.245C588.673 207.059 581.698 212.455 563.297 229.239C543.702 247.111 536.264 250.746 507.464 256.528C481.829 261.674 466.546 270.768 425.702 305.181C407.148 320.814 401.182 324.791 389.772 329.133C385.927 330.596 383.324 332.088 383.158 332.922C382.597 335.743 389.96 334.18 412.598 326.675C440.609 317.387 461.766 307.749 480.232 295.862C502.317 281.645 515.968 276.582 539.411 273.915C556.878 271.928 561.733 271.12 571.537 268.569C582.692 265.666 594.337 256.481 624.799 226.559C648.397 203.379 657.947 195.729 673.065 187.9C681.432 183.566 687.783 181.353 700.464 178.351C716.358 174.589 722.824 171.975 731.744 165.708C734.534 163.748 737.768 161.874 738.93 161.543C744.364 159.997 747.407 159.263 753.007 158.148C772.811 154.204 783.454 139.471 798.52 95.1391C805.587 74.3416 808.262 69.1384 811.38 70.128C814.152 71.0069 818.174 80.3409 820.997 92.4433C823.012 101.081 825.456 104.687 830.952 107.131C837.96 110.248 839.095 110.999 840.235 113.269C841.819 116.422 839.745 122.581 832.966 134.858C826.79 146.044 825.145 150.803 822.598 164.858C817.22 194.537 812.136 206.287 799.167 219.011C791.332 226.699 790.378 228.11 792.469 228.912C795.463 230.06 821.034 213.619 835.93 200.968C844.817 193.421 846.275 188.675 846.289 167.237C846.294 158.542 846.686 150.837 847.192 149.491C847.683 148.182 849.934 145.21 852.195 142.886C858.595 136.308 860.17 132.58 859.518 125.56C859.032 120.329 859.137 119.711 860.596 119.248C861.486 118.965 864.379 119.495 867.026 120.425C876.493 123.751 883.925 131.329 890.301 144.154C895.064 153.737 898.143 157.888 902.162 160.145C904 161.178 905.282 162.38 905.011 162.817C904.742 163.253 902.359 164.979 899.716 166.653C887.856 174.162 876.809 185.672 871.379 196.176C865.74 207.084 863.417 216.22 862.366 231.62C860.256 262.532 857.697 277.455 850.75 299.371C846.351 313.248 848.056 314.844 856.254 304.524C860.034 299.767 868.28 286.011 868.28 284.464C868.28 283.453 877.239 269.505 880.373 265.638C886.766 257.75 889.296 249.635 891.111 231.197C893.942 202.447 894.701 198.898 899.025 194.145C901.03 191.942 904.762 189.788 906.576 189.788C907.995 189.788 910.072 194.299 911.807 201.147C914.512 211.829 922.598 224.437 926.742 224.437C930.388 224.437 930.372 220.561 926.628 196.126C923.623 176.521 924.237 164.152 927.866 171.166C929.398 174.126 934.766 177.063 938.703 177.094C944.394 177.138 947.644 180.475 954.066 192.869C958.587 201.592 962.26 206.363 969.035 212.31C975.197 217.718 979.084 222.3 987.793 234.42C1001.9 254.052 1004.35 254.547 1021.99 241.338C1032.81 233.234 1036.01 231.197 1037.94 231.197C1040.37 231.197 1043.2 235.067 1046.28 242.606C1049.73 251.054 1054.48 257.798 1058.72 260.266C1061.07 261.633 1064.77 262.682 1069.49 263.317C1080.57 264.811 1081.06 265.122 1092.12 277.833C1114.88 303.996 1145.97 322.679 1179.82 330.532C1198.34 334.829 1189.71 334.598 1343.83 334.919C1422.88 335.083 1488.46 334.99 1489.58 334.711C1490.79 334.407 1491.29 333.896 1490.83 333.438C1490.38 332.988 1430.53 332.541 1345.93 332.357C1190.02 332.017 1198.52 332.26 1179.14 327.577C1144.32 319.165 1113.26 299.682 1090.47 271.962C1084.09 264.196 1078.1 260.815 1070.7 260.788C1061.73 260.755 1055.26 255.849 1050.73 245.653C1049.36 242.582 1047.67 238.819 1046.98 237.29C1046.28 235.761 1044.55 233.194 1043.14 231.585C1039.36 227.286 1036.59 227.581 1028.96 233.099C1008.33 248.019 1006.69 248.904 1002.69 247.25C999.713 246.017 996.046 241.74 987.479 229.507C983.7 224.111 977.265 216.659 971.058 210.493C961.76 201.253 960.409 199.504 955.844 190.809C950.772 181.147 946.275 175.848 942.486 175.07C941.429 174.852 939.175 174.452 937.478 174.181C933.527 173.548 930.28 170.979 928.722 167.251C927.233 163.686 925.066 163.727 923.328 167.35C920.784 172.655 921.178 181.143 925.018 203.878C926.74 214.065 927.075 221.056 925.844 221.056C924.648 221.056 920.812 216.159 918.632 211.851C917.549 209.71 915.478 203.995 914.03 199.152C912.583 194.31 910.769 189.651 909.999 188.8C907.306 185.826 902.182 187.307 897.33 192.463C892.361 197.742 890.978 202.605 889.439 220.211C886.96 248.572 885.076 255.624 877.371 265.363C872.709 271.257 869.338 276.701 864.515 286.128C858.601 297.686 850.777 308.859 852.438 303.373C852.706 302.487 853.753 299.1 854.763 295.846C859.787 279.667 864.898 248.113 864.898 233.271C864.898 227.433 865.218 225.05 867.559 213.451C868.8 207.304 875.216 193.928 879.757 188.02C884.251 182.177 891.426 175.559 898.212 171.001C910.661 162.64 911.482 161.245 905.379 158.804C900.954 157.035 897.917 153.338 892.843 143.551C890.485 139.002 887.227 133.481 885.605 131.28C879.849 123.474 868.27 116.266 861.484 116.266C858.206 116.266 855.246 119.157 855.996 121.626C858.374 129.438 856.915 134.468 850.375 141.005C843.844 147.533 843.557 148.667 843.374 168.661C843.189 188.975 842.652 190.901 835.221 197.87C828.05 204.596 803.701 221.902 801.409 221.902C800.862 221.902 802.099 220.096 804.159 217.887C808.827 212.882 812.38 207.631 815.165 201.62C819.558 192.139 821.631 184.725 825.147 165.915C827.934 151.011 828.729 148.701 835.698 135.308C839.575 127.856 843.005 120.167 843.32 118.222C844.145 113.128 842.059 109.139 837.56 107.205C826.701 102.539 825.642 101.203 822.636 88.3784C820.486 79.2059 816.549 70.4483 813.496 68.0474C810.899 66.0057 810.678 66.0099 807.961 68.1463Z" fill="white"/>
<circle cx="264" cy="85" r="49" stroke="white" stroke-width="2"/>
</g>
<defs>
<clipPath id="clip0_556_2622">
<rect width="1491" height="335" fill="white"/>
</clipPath>
</defs>
</svg>
