<svg width="931" height="535" viewBox="0 0 931 535" fill="none" xmlns="http://www.w3.org/2000/svg">
<path fill-rule="evenodd" clip-rule="evenodd" d="M531.81 0.707492C532.996 1.54609 533.812 1.60166 536.805 1.04786C543.052 -0.10648 547.29 2.18642 546.288 6.17987C545.849 7.92779 542.858 9.85315 540.581 9.85315C537.78 9.85315 532.998 11.7943 530.921 13.7746C529.288 15.3318 528.845 16.3517 528.496 19.3518C528.248 21.4912 528.335 23.4962 528.704 24.1567C529.246 25.1241 529.57 24.7844 530.928 21.8335C533.254 16.7754 534.49 15.5023 537.46 15.1039C539.516 14.8279 540.298 15.0211 541.338 16.0606C542.877 17.5995 542.861 17.6727 538.675 28.3099C537.073 32.3829 535.762 35.9394 535.762 36.2128C535.762 37.0874 533.146 41.6953 531.847 43.1098L530.591 44.4763L532.071 45.2562C535.554 47.0919 535.429 49.7043 531.773 51.4743C527.89 53.3543 523.112 53.2545 520.135 51.2312C517.343 49.3349 516.877 49.5856 518.626 52.042C520.74 55.0106 522.908 56.1258 525.727 55.6951C527.078 55.4886 529.293 55.1502 530.648 54.943C532.799 54.6147 533.168 54.7429 533.552 55.9528C533.794 56.715 533.803 58.6605 533.573 60.2758C533.121 63.4452 529.298 79.097 527.841 83.7358C527.351 85.2987 526.042 89.5612 524.933 93.2079C521.46 104.625 519.676 107.259 509.369 116.192C506.407 118.76 504.557 119.836 502.107 120.418C500.049 120.906 491.021 121.336 477.98 121.569C461.525 121.862 456.857 122.128 455.793 122.836C453.258 124.52 452.843 127.351 452.636 144.357C452.452 159.466 452.221 162.185 450.567 168.735C449.621 172.486 446.876 177.675 443.942 181.262C442.158 183.443 441.764 184.232 442.635 183.882C454.24 179.214 468.343 176.965 485.558 177.037C500.041 177.098 505.041 177.883 510.818 181.003C518.263 185.025 521.608 188.085 525.979 194.876C527.656 197.48 529.204 199.754 529.417 199.927C529.631 200.101 530.461 201.096 531.262 202.137C534.305 206.096 540.889 213.216 552.003 224.568C567.745 240.648 570.45 244.427 570.48 250.385C570.494 253.149 570.502 253.159 571.788 251.996C572.859 251.027 573.394 250.941 574.876 251.501C576.347 252.056 577.018 251.956 578.614 250.946C580.003 250.066 582.505 249.54 587.367 249.107C591.111 248.773 595.639 248.084 597.429 247.578C601.741 246.357 603.06 246.413 606.231 247.947C611.018 250.265 612.077 255.49 608.988 261.548C607.561 264.348 607.563 264.338 608.338 264.338C608.902 264.338 616.578 259.991 617.224 259.306C617.57 258.938 620.08 257.598 633.327 250.709C648.514 242.811 658.131 239.043 670.044 236.321C675.056 235.176 683.828 234.954 686.341 235.909C688.14 236.593 691.601 239.841 693.31 242.448C693.916 243.373 694.614 244.131 694.861 244.131C695.108 244.131 698.84 240.56 703.155 236.196C717.866 221.316 725.97 213.644 732.794 208.137C734.301 206.921 735.981 205.477 736.528 204.928C737.076 204.379 739.939 202.122 742.891 199.913C745.844 197.703 748.401 195.727 748.575 195.522C749.674 194.224 768.089 181.789 770.677 180.596C771.198 180.356 772.051 179.806 772.572 179.374C775.858 176.649 800.663 163.393 813.303 157.605C815.734 156.493 819.171 154.903 820.941 154.074C824.747 152.292 826.84 152.041 825.617 153.514C825.184 154.035 824.598 154.461 824.315 154.461C821.737 154.461 782.355 174.749 774.043 180.358C772.505 181.396 771.085 182.246 770.889 182.246C770.235 182.246 757.21 191.21 748.575 197.602C734.798 207.801 725.706 215.922 707.086 234.657L695.478 246.338L695.877 249.532C696.623 255.509 694.179 260.733 687.708 266.991C685.931 268.708 682.773 271.215 680.689 272.56C678.605 273.906 676.616 275.249 676.269 275.545C675.078 276.559 655.433 286.206 649.746 288.569C641.678 291.922 641.796 291.874 639.011 292.923C637.621 293.446 635.348 294.314 633.959 294.85C632.57 295.387 629.017 296.68 626.065 297.724C613.171 302.284 607.826 304.314 604.279 305.997C598.8 308.595 594.036 310.704 590.07 312.286C588.16 313.049 585.792 314.081 584.809 314.58C583.826 315.079 582.533 315.487 581.936 315.487C581.339 315.487 580.58 315.734 580.25 316.034C579.637 316.592 569.633 319.908 568.56 319.908C567.508 319.908 567.932 317.986 569.073 317.582C569.68 317.366 570.604 316.855 571.125 316.445C572.634 315.258 581.053 311.821 589.123 309.098C591.207 308.395 593.48 307.563 594.175 307.25C594.869 306.937 598.329 305.701 601.862 304.504C613.356 300.61 638.797 286.699 656.693 274.523C663.036 270.207 678.583 258.761 679.426 257.786C679.774 257.385 681.332 256.066 682.888 254.856C684.445 253.646 686.164 252.229 686.707 251.708C687.251 251.187 688.925 249.697 690.428 248.397C693.05 246.127 693.128 245.956 692.38 244.15C691.951 243.115 690.359 241.124 688.843 239.726L686.085 237.184H679.431C671.052 237.184 664.26 238.769 652.272 243.519C646.041 245.989 631.091 253.303 625.434 256.65C624.218 257.369 621.945 258.612 620.382 259.411C618.819 260.211 617.256 261.096 616.908 261.379C616.561 261.661 612.583 264.062 608.068 266.713C603.552 269.364 599.682 271.789 599.467 272.102C599.251 272.415 598.541 272.566 597.888 272.437C596.85 272.231 596.939 272.007 598.595 270.648C606.145 264.452 609.487 259.04 608.823 254.088C608.174 249.251 604.545 247.818 596.92 249.389C594.368 249.915 590.149 250.526 587.544 250.747C580.875 251.312 580.053 251.55 578.331 253.408C576.899 254.953 576.73 254.991 575.651 254.014C573.681 252.231 572.958 252.712 569.854 257.865C569.174 258.994 568.33 259.918 567.977 259.918C567.151 259.918 567.156 259.849 568.33 255.318C569.129 252.235 569.185 250.931 568.615 248.669C567.303 243.456 565.302 240.694 555.718 230.87C546.141 221.052 538.904 213.412 534.174 208.127C530.816 204.375 525.026 197.014 525.026 196.496C525.026 195.572 519.97 189.327 517.814 187.587C513.851 184.39 507.973 181.074 504.267 179.945C501.376 179.065 498.008 178.854 486.189 178.818C468.719 178.764 462.613 179.506 449.247 183.307C441.457 185.522 431.69 190.66 428.251 194.351C426.681 196.036 425.25 196.294 425.25 194.892C425.25 194.595 426.742 193.193 428.566 191.777C430.389 190.362 432.214 188.926 432.622 188.586C433.03 188.247 434.238 187.437 435.306 186.788C439.93 183.976 444.727 178.528 447.091 173.405C450.129 166.818 450.581 163.627 451.115 144.989C451.399 135.091 451.896 126.139 452.219 125.097C452.542 124.056 453.687 122.608 454.763 121.881C456.611 120.632 457.857 120.534 477.297 120.109C500.802 119.596 503.475 119.186 507.674 115.447C509.124 114.156 511.751 111.896 513.512 110.425C518.626 106.153 521.255 100.977 524.984 87.8404C528.181 76.5787 529.892 70.0896 530.812 65.7387C532.835 56.1738 532.656 55.4956 528.499 56.9455C527.11 57.4298 525.462 57.8308 524.837 57.8358C523.441 57.8472 520.208 56.2174 518.533 54.6576C516.745 52.9911 512.988 45.0181 513.668 44.3305C514 43.9939 515.774 45.1893 518 47.2504C522.947 51.8305 526.857 52.5807 531.183 49.7795C533.594 48.2184 532.896 47.2315 528.815 46.4282C524.645 45.6079 524.025 44.9045 526.913 44.2705C529.628 43.6737 532.836 39.5773 534.458 34.6348C535.223 32.3065 536.071 30.1109 536.343 29.7573C536.615 29.403 537.367 27.5503 538.013 25.64C538.661 23.7298 539.556 21.6062 540.002 20.921C541.244 19.0146 540.975 17.477 539.261 16.6965C536.91 15.6255 535.057 17.2168 532.213 22.7504C528.401 30.1658 526.921 29.989 526.921 22.117C526.921 17.5426 527.142 16.4237 528.46 14.3366C530.209 11.5651 533.68 9.64098 538.919 8.53842C543.566 7.5609 544.603 6.937 544.603 5.11709C544.603 2.26597 540.965 1.55808 534.499 3.15066C532.588 3.62111 530.485 4.23176 529.826 4.50772C528.773 4.94722 528.678 4.80198 529.048 3.32622C529.301 2.31776 529.21 1.64397 528.818 1.64397C527.958 1.64397 525.678 2.93598 523.968 4.39405C523.212 5.03816 522.276 5.36905 521.888 5.12909C520.519 4.28292 515.799 8.22016 513.992 11.7154C512.228 15.1247 512.213 18.0642 513.92 25.6375C516.096 35.2991 516.091 40.7955 513.908 40.7955C513.424 40.7955 513.028 40.5568 513.028 40.2657C513.028 39.5748 509.924 38.1622 509.281 38.5594C508.634 38.9591 503.634 49.3191 500.734 56.2666C499.925 58.2052 499.587 58.9889 497.197 64.4758C494.398 70.8998 490.786 78.2994 489.299 80.6542C488.457 81.9879 487.768 83.3582 487.768 83.6992C487.768 84.587 492.329 85.6915 495.155 85.4875C497.94 85.2867 498.642 86.3653 496.158 87.0296C493.167 87.8297 482.03 88.9436 481.576 88.4883C481.335 88.2458 481.777 87.5291 482.558 86.8957C483.339 86.2617 483.979 85.4831 483.979 85.1648C483.979 84.8466 480.64 83.4737 476.559 82.1135C466.914 78.8987 460.176 78.5318 451.142 80.7281L445.142 82.1868L444.784 85.6454C444.371 89.6426 443.966 90.586 438.836 99.5227C436.743 103.169 434.42 107.432 433.674 108.995C431.578 113.386 428.701 119.66 426.866 123.835C422.899 132.866 421.818 134.885 420.954 134.885C420.24 134.885 420.125 134.334 420.435 132.397C420.797 130.132 420.464 129.3 416.699 123.083C411.03 113.721 411.131 113.883 410.314 112.985C409.914 112.546 408.967 111.184 408.21 109.959C407.454 108.734 406.573 107.732 406.254 107.732C405.935 107.732 405.674 107.457 405.674 107.119C405.674 106.124 399.327 99.5846 395.48 96.6179C393.52 95.1061 389.257 92.5285 386.007 90.8892C376.257 85.9719 371.636 81.8382 368.478 75.2109C365.142 68.2072 364.645 61.6462 366.288 46.3209C366.552 43.8613 366.453 42.6899 365.982 42.6899C365.599 42.6899 362.057 45.887 358.111 49.794C347.853 59.9519 343.501 66.2086 341.605 73.5242C340.757 76.8003 340.751 77.601 341.564 80.3366C342.071 82.0409 343.216 84.4273 344.11 85.6384L345.735 87.8404L351.549 87.8694C355.618 87.8896 357.934 88.201 359.259 88.907C360.301 89.4614 362.575 90.6113 364.311 91.4619C366.048 92.3125 370.185 94.4608 373.504 96.2365C376.824 98.0116 381.797 100.363 384.556 101.461C390.488 103.824 390.622 103.895 390.252 104.496C389.27 106.082 362.709 99.649 356.498 96.3199C355.248 95.6505 353.866 95.1024 353.427 95.1024C352.988 95.1024 352.629 94.8182 352.629 94.4709C352.629 94.1236 352.268 93.8394 351.828 93.8394C351.388 93.8394 349.918 93.0854 348.562 92.1641L346.096 90.4882L342.196 94.5845C340.051 96.8377 337.329 99.392 336.148 100.261C333.761 102.016 328.969 103.943 326.989 103.943C325.165 103.943 317.254 106.139 315.344 107.176C314.461 107.655 311.725 109.541 309.263 111.366C304.448 114.936 297.4 118.796 292.321 120.644C286.597 122.726 282.666 124.691 281.305 126.152C279.267 128.34 276.832 133.934 275.511 139.467C273.237 148.987 274.268 168.367 277.214 171.469C277.96 172.254 278.222 172.251 279.198 171.444C281.387 169.634 285.142 168.355 289.337 167.991C293.958 167.589 298.399 168.273 298.789 169.446C299.024 170.148 297.733 170.605 286.389 173.835C283.538 174.646 281.972 175.494 281.057 176.719C279.78 178.432 279.777 178.51 280.895 182.818C282.086 187.415 282.331 195.351 281.606 205.926C281.391 209.052 281.444 211.943 281.724 212.35C282.045 212.82 282.972 212.935 284.257 212.666C285.77 212.349 286.766 211.48 288.183 209.242C290.044 206.303 292.005 205.271 292.005 207.231C292.005 208.669 290.848 210.657 288.441 213.348C286.159 215.9 285.64 218.783 287.227 220.099C288.451 221.115 290.977 219.461 292.009 216.967C292.429 215.954 293.175 214.79 293.668 214.381C294.43 213.749 294.503 214.156 294.156 217.105C293.832 219.869 293.941 220.647 294.695 220.936C295.803 221.361 299.353 217.906 299.681 216.082C300.141 213.525 301.316 214.443 301.619 217.597C301.788 219.355 302.125 220.992 302.367 221.235C303.158 222.025 307.092 217.183 309.504 212.449C311.733 208.076 311.864 207.489 311.88 201.806L311.897 195.791L308.62 189.453C305.228 182.895 303.397 178.328 303.382 176.389C303.377 175.77 304.078 175 304.951 174.668C306.778 173.974 306.89 173.158 305.582 170.029C304.161 166.627 304.426 163.27 306.575 157.479C311.602 143.929 307.276 134.122 295.63 132.667C291.378 132.136 290.887 131 294.447 129.933C300.2 128.209 308.058 130.189 312.552 134.494C315.417 137.239 315.739 138.191 315.413 142.937C315.297 144.629 315.498 144.989 316.563 144.989C318.359 144.989 324.986 142.101 329.928 139.164C332.406 137.692 333.28 137.498 335.988 137.819C340.062 138.301 344.944 137.238 350.103 134.744C354.331 132.7 357.837 130.508 358.207 129.676C358.323 129.415 358.649 129.202 358.932 129.202C359.466 129.202 360.752 128.159 367.687 122.098C369.971 120.101 372.097 118.467 372.41 118.467C373.5 118.467 372.127 124.485 370.118 128.514C365.536 137.704 355.89 144.198 345.998 144.753C344.261 144.85 342.672 144.943 342.465 144.959C341.478 145.038 340.738 154.994 341.359 159.829C341.815 163.376 341.803 166.385 341.319 169.932C340.058 179.162 338.736 193.714 338.736 198.361C338.736 204.053 340.402 213.137 341.713 214.595C342.642 215.626 342.794 215.626 344.531 214.6C345.541 214.004 346.765 212.91 347.25 212.17C348.504 210.255 354.37 204.408 357.516 201.936C360.991 199.205 365.288 196.936 369.995 195.347C375.701 193.42 386.723 193.453 392.886 195.417C395.404 196.219 397.465 197.094 397.465 197.361C397.465 197.628 394.834 198.032 391.619 198.257C373.175 199.553 359.3 206.136 351.492 217.293C348.809 221.127 345.678 231.595 345.689 236.699C345.707 245.715 350.896 253.415 360.207 258.247C366.545 261.535 375.902 263.674 384.045 263.695C391.071 263.713 404.411 261.208 404.411 259.87C404.411 259.636 403.941 258.201 403.368 256.682C402.106 253.341 401.82 239.354 402.943 235.921C403.341 234.706 403.844 232.91 404.062 231.93C404.28 230.95 404.794 230.261 405.206 230.398C405.713 230.567 405.999 232.97 406.091 237.863C406.366 252.249 408.238 260.191 412.504 265.061C414.261 267.067 423.05 279.947 428.869 289.045C432.673 294.993 436.82 299.38 440.171 301.002C443.447 302.589 443.921 302.309 444.517 298.438C445.434 292.468 447.915 286.732 451.344 282.651C453.436 280.161 461.673 274.445 463.171 274.443C463.71 274.442 464.506 274.087 464.94 273.652C465.416 273.176 467.427 272.863 470.01 272.863C473.507 272.863 474.976 273.208 478.03 274.749C480.087 275.786 482.459 277.207 483.303 277.906C487.745 281.588 489.663 283.517 489.663 284.303C489.663 285.514 489.254 285.411 486.881 283.601C481.017 279.129 469.047 280.821 462.254 287.082C458.72 290.339 456.948 293.697 456.428 298.121C456.106 300.857 456.217 301.644 456.963 301.93C458.695 302.595 481.089 298.42 487.541 296.23C495.738 293.447 496.548 290.903 491.47 283.893C490.476 282.521 489.663 281.242 489.663 281.051C489.663 280.86 489.14 280.142 488.501 279.456C487.862 278.77 486.938 277.432 486.448 276.483C485.958 275.534 485.219 274.398 484.806 273.96C484.393 273.522 483.863 271.888 483.629 270.329C483.396 268.771 482.398 266.278 481.413 264.791C479.5 261.903 473.005 255.471 466.297 249.821C464.04 247.92 461.056 245.171 459.667 243.712C458.274 242.249 455.779 240.529 454.105 239.876C449.964 238.26 445.043 233.731 434.764 222.076C421.632 207.185 417.266 203.79 409.318 202.288C406.675 201.788 405.865 201.405 406.314 200.865C406.748 200.341 407.801 200.289 409.932 200.684C411.584 200.991 414.401 201.486 416.192 201.785C423.19 202.953 431.109 206.113 436.947 210.068C439.957 212.107 445.752 218.337 446.925 220.794C447.166 221.3 447.967 222.708 448.705 223.923C449.443 225.139 450.888 227.696 451.915 229.607C454.476 234.37 457.504 239.081 457.996 239.069C458.335 239.062 462.112 237.847 467.029 236.163C467.605 235.966 471.299 234.153 475.238 232.135L482.4 228.466L482.431 221.932C482.448 218.282 482.844 214.144 483.329 212.557C484.205 209.689 485.62 207.505 486.603 207.505C487.313 207.505 487.284 213.221 486.556 216.54C484.633 225.305 484.497 226.545 485.254 228.372C485.67 229.375 486.557 230.37 487.226 230.582C489.124 231.185 490.723 233.23 493.853 239.058C497.24 245.364 499.515 248.551 500.627 248.551C501.065 248.551 501.988 249.049 502.679 249.656C504.125 250.928 504.749 251.295 511.119 254.624C516.641 257.51 521.588 262.137 523.864 266.548C524.98 268.71 527.046 270.983 530.416 273.759L535.338 277.814L537.602 276.601C539.438 275.618 540.003 274.836 540.586 272.473C541.568 268.498 543.055 266.424 545.505 265.615C547.545 264.942 549.654 265.262 549.654 266.243C549.654 266.953 544.785 273.144 542.614 275.195C541.15 276.579 540.814 277.43 540.814 279.759C540.814 282.121 541.091 282.803 542.404 283.664C544.536 285.061 546.84 284.604 553.575 281.45C559.236 278.798 560.934 278.129 567.968 275.777C580.771 271.497 591.964 269.063 591.964 270.559C591.964 272.766 582.719 278.599 576.809 280.122C575.593 280.435 572.609 281.256 570.178 281.947C567.747 282.637 562.347 283.942 558.18 284.846C549.483 286.732 540.726 288.802 537.972 289.623C536.93 289.933 534.514 290.598 532.604 291.099C530.694 291.601 527.852 292.363 526.289 292.792C524.726 293.222 522.453 293.792 521.237 294.059C518.684 294.621 507.442 297.497 504.187 298.422C501.747 299.116 475.32 305.539 468.823 307.017C462.999 308.343 457.828 309.534 452.72 310.728C445.781 312.349 441.13 313.388 435.67 314.539C432.891 315.124 429.481 315.906 428.092 316.276C426.703 316.646 424.429 317.177 423.04 317.455C411.237 319.822 385.513 327.287 383.919 328.808C383.589 329.122 382.921 329.38 382.433 329.38C380.929 329.38 369.019 335.602 363.364 339.343C353.83 345.649 346.94 353.932 346.965 359.059C347.013 368.8 363.296 375.196 382.435 372.991C392.204 371.867 404.911 368.677 411.769 365.627C412.863 365.141 414 364.743 414.295 364.744C415.652 364.747 428.621 358.871 440.09 353.056C452.511 346.76 454.954 345.453 463.14 340.731C465.397 339.428 468.808 337.513 470.718 336.473C472.628 335.433 476.038 333.553 478.296 332.295C483.931 329.154 503.66 319.305 508.292 317.321C510.376 316.429 513.359 315.186 514.922 314.56C516.485 313.934 518.617 313.057 519.659 312.612C522.618 311.347 536.11 306.932 542.392 305.172C553.695 302.006 556.428 301.347 561.337 300.611C562.032 300.507 564.731 300 567.336 299.485C572.518 298.46 573.63 298.807 572.575 301.121C570.461 305.761 564.695 310.023 554.391 314.56C550.517 316.265 547.752 317.341 534.183 322.42C514.431 329.814 513.171 330.308 502.292 334.937C493.25 338.784 484.1 343.245 473.875 348.789C467.834 352.066 448.965 363.654 448.721 364.239C448.605 364.516 448.22 364.742 447.865 364.742C447.51 364.742 446.042 365.537 444.602 366.509C443.163 367.481 441.559 368.486 441.038 368.743C439.921 369.296 438.526 370.147 434.893 372.491C433.424 373.439 432.062 374.215 431.867 374.215C431.672 374.215 431.169 374.514 430.749 374.88C429.832 375.678 417.003 383.65 413.883 385.359C412.668 386.025 410.537 387.297 409.147 388.187C407.758 389.076 405.429 390.487 403.972 391.323C402.515 392.159 396.561 395.685 390.74 399.158C384.919 402.631 379.717 405.69 379.18 405.955C378.644 406.22 376.783 407.296 375.047 408.345C373.31 409.393 371.179 410.591 370.31 411.006C369.442 411.422 368.59 411.922 368.416 412.117C368.117 412.454 361.504 416.27 353.892 420.498C351.981 421.559 349.566 422.932 348.524 423.547C347.482 424.163 345.351 425.321 343.788 426.121C342.225 426.92 340.851 427.787 340.736 428.048C340.619 428.308 340.263 428.522 339.942 428.522C339.621 428.522 336.164 430.324 332.259 432.528C328.353 434.732 323.169 437.617 320.738 438.939C318.307 440.261 315.833 441.644 315.241 442.012C314.042 442.759 312.911 442.09 313.834 441.18C314.439 440.583 327.956 432.942 328.406 432.942C328.544 432.942 329.717 432.275 331.013 431.46C332.308 430.646 335.215 428.979 337.473 427.757C345.325 423.507 348.544 421.718 351.867 419.758C353.706 418.674 355.367 417.786 355.559 417.786C355.75 417.786 356.661 417.256 357.583 416.608C358.505 415.96 361.248 414.35 363.68 413.03C366.111 411.71 368.242 410.464 368.416 410.261C368.59 410.058 370.01 409.238 371.573 408.437C373.136 407.637 375.268 406.433 376.31 405.761C377.352 405.089 378.63 404.342 379.151 404.1C379.672 403.859 383.32 401.724 387.259 399.357C391.197 396.99 394.678 395.053 394.995 395.053C395.311 395.053 395.57 394.769 395.57 394.422C395.57 394.075 395.86 393.79 396.214 393.79C396.569 393.79 398.06 393.018 399.53 392.075C400.998 391.131 403.168 389.828 404.349 389.181C405.531 388.532 407.662 387.253 409.085 386.339C410.509 385.424 412.596 384.169 413.723 383.55C416.726 381.9 429.858 373.747 430.749 372.978C431.169 372.616 431.696 372.32 431.921 372.32C432.146 372.32 433.507 371.525 434.947 370.554C436.387 369.582 437.991 368.584 438.512 368.337C439.033 368.089 440.224 367.392 441.159 366.788C448.402 362.109 467.054 350.85 467.561 350.85C467.908 350.85 468.192 350.594 468.192 350.28C468.192 349.967 468.973 349.391 469.928 348.999C470.884 348.608 473.512 347.264 475.77 346.015C484.123 341.391 501.095 333.169 502.287 333.169C502.581 333.169 503.626 332.777 504.609 332.299C506.866 331.2 510.018 329.852 513.659 328.426C515.222 327.814 517.354 326.956 518.396 326.519C519.438 326.082 522.421 324.978 525.026 324.066C527.631 323.154 530.331 322.16 531.025 321.856C531.72 321.553 533.709 320.812 535.446 320.21C537.182 319.608 539.456 318.765 540.498 318.335C541.54 317.905 543.529 317.118 544.918 316.586C549.299 314.907 557.472 311.435 559.443 310.415C565.089 307.493 570.494 302.994 570.494 301.215C570.494 300.017 552.606 303.654 540.498 307.314C536.053 308.658 525.074 312.371 521.869 313.615C519.958 314.356 517.835 315.13 517.15 315.335C516.464 315.54 515.186 316.083 514.308 316.541C513.43 316.999 512.519 317.375 512.285 317.378C511.642 317.384 503.399 321.249 494.289 325.815C486.934 329.502 483.071 331.537 475.984 335.457C474.651 336.195 472.281 337.497 470.718 338.351C467.997 339.836 466.933 340.434 459.571 344.607C451.287 349.303 432.603 358.812 424.303 362.557C417.424 365.661 402.959 370.592 393.911 372.918C392.477 373.286 387.646 373.968 383.175 374.432C368.092 376.001 354.398 373.157 348.749 367.282C345.152 363.541 344.644 357.402 347.519 352.429C350.773 346.799 356.851 341.301 365.574 336.095C368.353 334.437 371.052 332.815 371.573 332.491C372.094 332.168 373.089 331.651 373.784 331.342C378.189 329.389 382.805 327.331 383.888 326.839C386.657 325.58 395.049 322.917 402.832 320.827C415.504 317.423 416.174 317.258 428.408 314.518C439.882 311.948 441.488 311.578 443.811 310.972C445.163 310.619 447.579 310.082 449.179 309.778C453.139 309.024 459.173 307.686 465.982 306.054C487.213 300.962 492.939 299.572 496.293 298.698C500.022 297.726 504.13 296.69 511.291 294.916C516.864 293.536 522.459 292.106 526.289 291.084C534.973 288.766 536.832 288.254 538.648 287.682C539.715 287.346 541.065 287.071 541.648 287.071C543.232 287.071 542.935 286.17 540.814 284.545C539.288 283.376 538.919 282.62 538.919 280.661C538.919 278.966 538.644 278.23 538.009 278.23C537.508 278.23 536.924 278.514 536.709 278.862C536.074 279.89 534.771 279.59 533.164 278.045C532.335 277.248 530.378 275.63 528.815 274.449C524.928 271.511 524.251 270.769 522.469 267.495C519.425 261.905 515.414 258.511 506.713 254.163C505.15 253.382 503.729 252.548 503.555 252.31C503.382 252.073 502.083 251.292 500.67 250.575C498.056 249.251 495.871 246.488 492.827 240.658C489.634 234.543 488.246 232.717 486.113 231.826C484.94 231.335 483.979 230.63 483.979 230.259C483.979 229.888 480.925 231.126 477.191 233.01C469.31 236.987 466.488 238.217 462.343 239.48C459.677 240.291 459.408 240.532 459.981 241.603C460.337 242.267 463.537 245.284 467.094 248.308C470.65 251.333 475.863 256.173 478.677 259.066C483.435 263.956 483.867 264.623 484.836 268.593C485.53 271.438 486.718 274.022 488.396 276.336C495.901 286.686 497.892 292.093 495.019 294.317C491.267 297.22 484.167 299.304 467.245 302.468C458.771 304.052 455.764 304.327 455.292 303.563C454.445 302.193 454.74 296.806 455.844 293.485C457.306 289.088 461.609 284.593 466.825 282.014C470.076 280.407 471.882 279.967 476.456 279.671C479.552 279.471 482.085 279.131 482.085 278.918C482.085 278.537 481.461 278.175 477.033 275.985C475.817 275.385 473.109 274.762 471.015 274.602C467.709 274.351 466.667 274.571 463.121 276.273C452.681 281.283 449.155 286.058 445.705 299.858C445.041 302.514 444.314 304.121 443.779 304.121C442.04 304.121 437.395 301.491 434.988 299.143C430.792 295.052 430.507 294.66 421.159 280.125C415.028 270.591 407.312 260.607 406.558 261.233C405.36 262.227 396.916 264.164 390.156 264.995C384.648 265.672 382.781 265.631 376.263 264.695C372.12 264.1 368.462 263.35 368.132 263.028C367.802 262.707 367.027 262.443 366.409 262.443C365.791 262.443 363.087 261.414 360.4 260.156C354.704 257.489 348.485 251.742 346.451 247.267C344.027 241.93 343.544 237.452 344.713 231.142C347.078 218.368 354.606 208.388 365.89 203.071C367.453 202.334 369.158 201.512 369.679 201.243C371.775 200.162 379.776 198.086 384.835 197.311L390.202 196.487L385.782 195.732C379.243 194.615 371.781 195.915 364.677 199.408C359.999 201.708 358.244 203.09 351.827 209.524C347.216 214.148 343.908 216.977 343.114 216.977C342.409 216.977 341.17 216.262 340.359 215.387C337.373 212.165 336.647 198.163 338.575 180.983C339.18 175.6 339.676 166.506 339.679 160.776C339.681 155.045 339.929 148.723 340.229 146.725L340.775 143.095H345.004C349.265 143.095 355.18 141.307 358.829 138.916C364.006 135.524 369.222 128.66 370.319 123.794L370.801 121.66L366.026 125.825C355.064 135.385 346.836 139.306 337.735 139.306C334.407 139.306 332.208 139.594 331.676 140.099C329.379 142.282 317.621 146.883 314.338 146.883H312.315L313.29 144.402C314.525 141.256 314.003 138.283 311.799 135.906C309.608 133.543 303.75 130.966 301.227 131.254L299.267 131.479L301.562 132.528C304.65 133.941 308.893 138.886 309.756 142.078C310.853 146.136 310.116 153.544 308.193 157.778C305.76 163.136 305.548 165.531 307.145 169.579C308.672 173.45 308.446 175.613 306.458 176.133C304.595 176.62 305.057 178.253 309.797 187.929C313.59 195.673 313.664 195.924 313.695 201.19C313.74 208.829 310.621 216.338 305.419 221.116C302.52 223.779 301.601 223.836 300.756 221.409L300.099 219.526L298.045 221.094C295.656 222.916 294.699 223.024 292.788 221.685C291.744 220.954 291.087 220.875 290.163 221.369C286.804 223.167 284.016 220.758 284.775 216.714L285.2 214.451H282.505H279.81L280.194 201.98C280.416 194.772 280.32 188.176 279.966 186.351C279.631 184.614 279.179 181.968 278.963 180.472C278.229 175.371 280.64 173.275 289.637 171.192C292.329 170.569 294.531 169.923 294.531 169.757C294.531 169.591 292.329 169.592 289.637 169.76C284.794 170.063 281.959 171.089 279.135 173.563C278.442 174.171 277.651 174.668 277.378 174.668C276.649 174.668 274.978 171.196 273.921 167.488C272.659 163.062 272.105 149.47 272.977 144.357C274.073 137.933 274.857 134.414 275.468 133.18C275.777 132.555 276.712 130.663 277.545 128.977C279.678 124.658 282.15 122.872 290.745 119.439C298.107 116.499 306.227 112.167 308.74 109.839C310.134 108.548 312.968 106.617 315.311 105.361C316.146 104.914 319.414 103.958 322.573 103.238C333.518 100.743 334.06 100.472 339.705 94.6723L344.869 89.3673L342.762 86.7094C337.129 79.6041 338.827 70.1641 347.813 58.622C352.337 52.8112 364.739 40.8592 366.521 40.5921C367.457 40.4513 368.191 39.8666 368.324 39.1543C369.205 34.4327 374.805 26.3113 379.289 23.2524C385.264 19.1769 396.07 16.1673 404.727 16.1685C408.853 16.1692 416.366 17.3147 419.251 18.3825C425.059 20.5327 429.102 23.0914 433.144 27.1739C439.273 33.3649 442.544 40.3427 443.33 48.9042C443.694 52.8718 443.959 53.6321 445.169 54.1834C450.358 56.5476 448.519 67.6224 441.481 76.3848C440.509 77.5947 438.483 81.0937 436.977 84.1602C435.472 87.226 433.496 90.8128 432.587 92.1306C431.678 93.4485 430.934 94.6685 430.934 94.8416C430.934 95.014 430.66 95.4989 430.324 95.9182C429.989 96.3375 428.911 97.6756 427.928 98.8912C423.701 104.122 423.734 103.997 423.374 116.1C423.19 122.265 423.184 127.31 423.36 127.309C423.535 127.308 424.021 126.526 424.439 125.571C427.439 118.712 428.795 115.689 430.679 111.665C431.861 109.139 432.828 106.96 432.828 106.823C432.828 106.686 434.082 104.453 435.615 101.86C442.445 90.3076 443.132 88.7282 443.111 84.6091L443.092 80.7464L448.222 79.6678C451.043 79.0743 454.773 78.295 456.509 77.9357C461.867 76.8262 468.559 77.7229 477.518 80.7508C485.608 83.4851 485.632 83.4889 486.595 82.1931C487.976 80.3372 494.623 66.4094 498.831 56.5552C500.804 51.9353 502.644 47.7063 502.919 47.1588C503.194 46.6113 504.333 44.3159 505.449 42.0584C506.566 39.8009 508.023 37.4404 508.688 36.8127C509.853 35.7108 509.952 35.7165 511.57 36.9883C514.382 39.201 514.685 37.8193 513.05 30.2321C510.94 20.4436 510.704 14.4332 512.305 11.2961C514.347 7.29315 520.299 2.41184 522.234 3.15446C522.728 3.3439 523.132 3.25613 523.132 2.95934C523.132 2.34555 526.453 0.670231 528.815 0.091799C529.793 -0.146899 530.933 0.0873825 531.81 0.707492ZM396.882 18.4204C381.567 21.2172 373.33 27.8369 369.825 40.164C367.749 47.4645 368.906 58.9024 372.279 64.4373C372.927 65.5007 373.651 66.775 373.888 67.2695C374.125 67.7639 374.786 68.6164 375.357 69.1639C376.851 70.5948 382.97 73.6884 383.572 73.3165C384.44 72.7797 382.393 67.1583 380.123 63.8443C377.907 60.6112 376.34 55.5347 377.014 53.778C377.478 52.5706 378.756 52.5037 379.698 53.6378C381.058 55.2765 386.681 56.0753 392.674 55.4811C395.77 55.1742 402.022 55.0592 406.567 55.2259C411.112 55.392 417.104 55.536 419.883 55.5455C425.148 55.5625 441.379 53.9257 441.989 53.3164C442.578 52.7266 441.024 43.8467 439.686 40.164C437.232 33.4078 432.382 27.3431 426.401 23.5524C422.34 20.9785 420.161 20.1519 413.568 18.6843C407.118 17.2477 403.605 17.1922 396.882 18.4204ZM428.724 56.7036C424.903 57.121 420.925 57.3982 419.883 57.3199C418.841 57.2416 409.889 57.0951 399.991 56.9941C387.009 56.8615 381.582 56.5887 380.518 56.014C379.707 55.5758 378.898 55.3617 378.721 55.5385C377.983 56.2773 379.392 59.8704 381.666 63.0455C383.005 64.9159 384.293 67.5656 384.528 68.934C385.486 74.5182 385.983 75.1932 390.767 77.3939C397.216 80.3599 401.565 81.8414 403.824 81.8414C404.907 81.8414 407.401 80.9535 409.365 79.868C414.037 77.2859 417.725 77.1925 423.464 79.5093C425.78 80.4446 428.705 81.2099 429.961 81.2099C432.317 81.2099 436.461 79.4468 437.746 77.8984C439.763 75.4679 443.085 58.9062 442.081 56.2887C441.737 55.3933 441.135 55.267 438.667 55.5733C437.019 55.7772 432.544 56.2862 428.724 56.7036ZM443.94 58.6346C443.218 64.472 442.398 69.5964 441.971 70.9484C441.333 72.9691 442.566 72.7203 443.536 70.6327C446.406 64.4556 447.332 59.5345 446.067 57.1721C445.03 55.2341 444.299 55.7368 443.94 58.6346ZM366.853 61.4763C368.084 75.1894 372.962 82.5461 384.592 88.2275C387.541 89.6692 390.954 91.5257 392.175 92.3542C393.396 93.1833 394.18 93.5009 393.918 93.0608C393.045 91.597 390.84 88.4763 390.451 88.1561C390.24 87.9825 388.745 85.1295 387.128 81.8161C384.199 75.8158 384.173 75.7849 380.249 73.9713C376.128 72.0674 372.205 68.9157 372.205 67.5094C372.205 67.0566 371.96 66.686 371.661 66.686C370.934 66.686 368.416 60.0271 368.416 58.1048C368.416 57.1362 368.052 56.5823 367.415 56.5823C366.549 56.5823 366.473 57.2454 366.853 61.4763ZM388.967 82.015C394.89 93.3664 405.312 103.404 413.252 105.405C417.52 106.48 419.088 108.48 420.174 114.23C421.459 121.043 422.073 120.623 422.083 112.921C422.095 104.511 422.563 103.106 427.577 96.4449C432.002 90.5658 437.081 81.2099 435.848 81.2099C435.368 81.2099 434.652 81.5332 434.257 81.9279C432.91 83.2748 427.081 82.8183 422.616 81.016C420.3 80.0808 417.501 79.3155 416.397 79.3155C414.474 79.3155 410.14 80.9466 409.448 81.9304C409.266 82.1893 407.814 82.7501 406.22 83.1763C403.646 83.8646 402.839 83.7933 398.973 82.5366C396.58 81.7593 393.06 80.3366 391.15 79.3755C389.239 78.4137 387.579 77.8725 387.461 78.1712C387.342 78.4706 388.019 80.2002 388.967 82.015ZM485.874 86.2617C485.874 86.609 486.317 86.8932 486.858 86.8932C487.399 86.8932 487.667 86.609 487.452 86.2617C487.238 85.9144 486.795 85.6302 486.468 85.6302C486.141 85.6302 485.874 85.9144 485.874 86.2617ZM348.84 89.9704C348.84 91.76 363.577 97.8891 373.292 100.139C380.239 101.749 379.027 100.85 363.68 93.016C360.901 91.5977 357.234 90.1219 355.53 89.7361C352.48 89.0453 348.84 89.1728 348.84 89.9704ZM405.674 104.214C405.674 104.362 406.038 104.86 406.483 105.319C407.721 106.595 413.252 113.908 413.252 114.268C413.252 114.819 419.652 124.276 419.873 124.05C420.379 123.531 418.241 111.966 417.295 110.106C416.719 108.973 416.186 107.972 416.109 107.88C416.032 107.788 414.335 107.287 412.337 106.766C410.34 106.246 408.102 105.398 407.365 104.882C405.944 103.886 405.674 103.779 405.674 104.214ZM930.422 115.509C929.914 115.966 923.104 118.409 915.289 120.937C907.474 123.466 900.086 125.893 898.87 126.331C895.867 127.414 893.473 128.235 884.977 131.097C874.602 134.592 865.244 137.956 864.117 138.595C863.585 138.898 862.239 139.345 861.125 139.59C860.012 139.834 858.938 140.296 858.74 140.617C858.542 140.938 857.9 141.202 857.312 141.204C856.725 141.206 855.43 141.633 854.436 142.151C853.441 142.67 852.02 143.089 851.278 143.084C848.923 143.065 852.987 140.949 861.296 137.867C875.788 132.491 879.676 131.096 880.177 131.096C880.455 131.096 881.577 130.717 882.672 130.253C885.34 129.122 888.668 127.942 890.977 127.308C892.018 127.022 893.724 126.468 894.765 126.079C900.391 123.976 929.34 114.678 930.263 114.678C931.206 114.678 931.227 114.785 930.422 115.509ZM844.462 145.547C842.507 147.104 839.214 147.511 840.796 145.999C841.304 145.514 842.715 144.912 843.93 144.662L846.14 144.21L844.462 145.547ZM837.615 147.702C837.615 148.124 835.416 149.26 832.728 150.227C826.966 152.299 827.304 151.551 833.353 148.844C836.068 147.629 837.615 147.214 837.615 147.702ZM422.544 207.031C426.331 210.283 429.51 213.593 436.617 221.685C447.232 233.771 451.674 237.816 454.332 237.816C454.653 237.816 453.972 236.324 452.821 234.501C451.67 232.677 450.092 229.907 449.315 228.344C448.537 226.781 447.354 224.65 446.686 223.608C446.019 222.566 445.279 221.287 445.043 220.766C444.807 220.245 442.459 217.672 439.826 215.049C434.255 209.498 426.462 205.217 421.597 205.033C420.305 204.985 420.404 205.194 422.544 207.031ZM485.442 213.307C485.644 213.81 485.793 213.661 485.824 212.925C485.851 212.259 485.702 211.887 485.492 212.096C485.283 212.306 485.26 212.851 485.442 213.307ZM484.193 217.135C484.368 217.569 484.511 217.214 484.511 216.346C484.511 215.477 484.368 215.123 484.193 215.556C484.017 215.991 484.017 216.701 484.193 217.135ZM403.939 248.221C404.234 254.868 405.21 258.534 406.977 259.626C407.767 260.115 407.735 259.074 406.935 258.274C406.255 257.594 405.224 251.148 404.573 243.499C404 236.768 403.574 239.946 403.939 248.221ZM687.437 253.154C684.073 256.033 678.905 260.224 675.953 262.468C673.001 264.712 670.443 266.692 670.27 266.868C668.152 269.009 638.882 288.334 637.756 288.334C637.635 288.334 635.453 289.548 632.906 291.03C630.359 292.514 627.221 294.277 625.932 294.949C624.644 295.622 623.687 296.27 623.806 296.389C624.051 296.634 631.067 294.383 633.959 293.132C635.001 292.681 636.848 291.94 638.064 291.484C649.905 287.048 672.81 276.355 676.269 273.65C676.616 273.378 679.271 271.417 682.169 269.292C688.383 264.734 692.634 259.609 693.949 255.092C694.763 252.291 694.692 247.919 693.831 247.919C693.679 247.919 690.802 250.275 687.437 253.154ZM543.932 268.758C543.316 269.626 542.634 271.047 542.416 271.916C542.051 273.364 542.181 273.312 543.986 271.284C545.068 270.068 546.241 268.551 546.594 267.913C547.595 266.094 545.306 266.821 543.932 268.758ZM579.114 274.092C569.721 276.604 557.156 281.076 553.759 283.117C552.538 283.85 552.545 283.876 553.985 283.895C557.556 283.941 578.727 278.294 580.25 276.889C580.58 276.585 581.22 276.336 581.673 276.336C582.126 276.336 583.845 275.489 585.494 274.453C588.35 272.659 588.407 272.57 586.692 272.559C585.702 272.553 582.292 273.242 579.114 274.092ZM311.224 443.874C310.949 444.592 307.561 446.203 306.327 446.203C305.311 446.203 306.038 445.129 307.732 444.129C309.916 442.839 311.671 442.711 311.224 443.874ZM303.372 448.023C303.372 448.33 302.787 448.734 302.073 448.921C301.007 449.2 300.907 449.1 301.519 448.363C302.353 447.358 303.372 447.172 303.372 448.023ZM297.689 450.822C297.689 451.279 296.765 452.122 295.636 452.695C294.508 453.268 291.169 455.068 288.216 456.694C279.252 461.633 261.941 470.585 251.59 475.636C236.339 483.077 233.51 484.405 225.067 488.09C218.399 491 214.349 492.713 203.28 497.308C201.98 497.848 198.551 499.165 194.124 500.825C192.735 501.346 190.532 502.186 189.23 502.691C177.874 507.099 157.579 513.556 139.184 518.615C137.274 519.141 134.843 519.827 133.783 520.139C132.723 520.452 130.592 520.985 129.047 521.323C127.502 521.662 124.391 522.35 122.134 522.854C93.7505 529.184 76.2285 531.823 50.7749 533.602C32.065 534.909 17.5318 535.306 8.14908 534.766C-5.78924 533.964 -1.13261 533.146 16.6742 533.269C39.5804 533.426 66.5224 531.345 88.9802 527.682C99.7213 525.93 120.349 521.786 126.238 520.197C127.628 519.822 130.753 519.044 133.185 518.467C135.616 517.891 138.884 517.056 140.447 516.611C142.01 516.167 144.994 515.327 147.078 514.746C156.355 512.154 170.2 507.781 177.073 505.271C179.331 504.446 183.736 502.877 186.862 501.783C189.988 500.688 193.113 499.541 193.808 499.233C194.503 498.925 198.623 497.27 202.965 495.557C211.585 492.155 225.442 486.288 230.435 483.925C232.171 483.104 235.439 481.597 237.696 480.578C246.635 476.54 275.705 461.678 289.925 453.875C293.818 451.739 297.157 449.992 297.345 449.992C297.534 449.992 297.689 450.366 297.689 450.822Z" fill="white"/>
</svg>
