<svg width="20" height="21" viewBox="0 0 20 21" fill="none" xmlns="http://www.w3.org/2000/svg"><path fill-rule="evenodd" clip-rule="evenodd" d="M8.664 11.12a.75.75 0 01.75-.75h4.652a.75.75 0 010 1.5H9.414a.75.75 0 01-.75-.75z" fill="#989899"/><path fill-rule="evenodd" clip-rule="evenodd" d="M10.02 2.263a8.254 8.254 0 100 16.507 8.254 8.254 0 000-16.507zM.265 10.516C.266 5.13 4.633.763 10.019.763c5.387 0 9.754 4.367 9.754 9.753 0 5.387-4.367 9.754-9.754 9.754-5.386 0-9.753-4.367-9.753-9.754z" fill="#989899"/><path fill-rule="evenodd" clip-rule="evenodd" d="M9.414 4.765a.75.75 0 01.75.75v5.604a.75.75 0 01-1.5 0V5.515a.75.75 0 01.75-.75z" fill="#989899"/></svg>