<svg width="16" height="20" viewBox="0 0 16 20" fill="none" xmlns="http://www.w3.org/2000/svg"><path fill-rule="evenodd" clip-rule="evenodd" d="M8 5.75a2.25 2.25 0 100 4.5 2.25 2.25 0 000-4.5zM4.25 8a3.75 3.75 0 117.5 0 3.75 3.75 0 01-7.5 0z" fill="#989899"/><path fill-rule="evenodd" clip-rule="evenodd" d="M8 1.75A6.25 6.25 0 001.75 8c0 2.338 1.587 4.908 3.325 6.988A29.786 29.786 0 008 18.008c.16-.145.357-.323.578-.533a29.784 29.784 0 002.347-2.487c1.738-2.08 3.325-4.65 3.325-6.988A6.25 6.25 0 008 1.75zM8 19l-.476.58-.002-.002-.005-.004-.017-.015-.063-.052a28.456 28.456 0 01-1.046-.942 31.295 31.295 0 01-2.466-2.615C2.163 13.842.25 10.912.25 8a7.75 7.75 0 1115.5 0c0 2.912-1.913 5.842-3.675 7.95a31.294 31.294 0 01-3.512 3.557l-.063.052-.017.015-.005.004h-.001s0 .002-.477-.578zm0 0l.476.58a.75.75 0 01-.952 0L8 19z" fill="#989899"/></svg>