<svg width="20" height="20" viewBox="0 0 20 20" fill="none" xmlns="http://www.w3.org/2000/svg"><g clip-path="url(#clip0_771_4403)"><path d="M11 4.99a3.944 3.944 0 012.854 1.156m2.828-2.828A8.012 8.012 0 0011 .964M15.01 9a3.944 3.944 0 00-1.155-2.854m2.825-2.829A8.012 8.012 0 0119.034 9m-2.07 5.611l-1.172-1.173a1.5 1.5 0 00-2.121 0l-.922.922a.71.71 0 01-.785.158c-1.335-.585-2.655-1.472-3.832-2.649A12.645 12.645 0 015.49 8.051a.733.733 0 01.162-.811l.826-.826c.67-.671.67-1.62.085-2.206L5.39 3.035a2 2 0 00-2.828 0l-.652.651c-.741.741-1.05 1.81-.85 2.87.494 2.613 2.012 5.474 4.46 7.923 2.45 2.449 5.31 3.967 7.924 4.461 1.06.2 2.128-.109 2.87-.85l.65-.651a2 2 0 000-2.829z" stroke="#989899" stroke-width="1.5" stroke-linecap="round" stroke-linejoin="round"/></g><defs><clipPath id="clip0_771_4403"><path fill="#fff" d="M0 0h20v20H0z"/></clipPath></defs></svg>