<svg width="24" height="24" viewBox="0 0 24 24" fill="none" xmlns="http://www.w3.org/2000/svg">
<path fill-rule="evenodd" clip-rule="evenodd" d="M15.9706 8.77577C15.4926 8.77577 15.0426 8.87377 14.6486 9.07077C14.3536 7.12777 12.6656 5.63477 10.6396 5.63477C8.43061 5.63477 6.63061 7.40877 6.57361 9.60577C5.25161 9.77477 4.22461 10.9008 4.22461 12.2958C4.22361 13.7888 5.43261 14.9998 6.92461 14.9998H15.9696C17.6856 14.9998 19.0786 13.6058 19.0786 11.8878C19.0786 10.1698 17.6856 8.77577 15.9706 8.77577Z" stroke="#222A2F" stroke-width="1.5" stroke-linecap="round" stroke-linejoin="round"/>
<path d="M17.5098 18L17.0098 19" stroke="#222A2F" stroke-width="1.5" stroke-linecap="round" stroke-linejoin="round"/>
<path d="M8.50977 21L8.00977 22" stroke="#222A2F" stroke-width="1.5" stroke-linecap="round" stroke-linejoin="round"/>
<path d="M5.50488 17.995C5.50188 17.995 5.49988 17.997 5.49988 18C5.49988 18.003 5.50188 18.005 5.50488 18.005C5.50788 18.005 5.50988 18.003 5.50988 18C5.50988 17.997 5.50788 17.995 5.50488 17.995" stroke="#222A2F" stroke-width="1.5" stroke-linecap="round" stroke-linejoin="round"/>
<path d="M11.5049 17.995C11.5019 17.995 11.4999 17.997 11.4999 18C11.4999 18.003 11.5019 18.005 11.5049 18.005C11.5079 18.005 11.5099 18.003 11.5099 18C11.5099 17.997 11.5079 17.995 11.5049 17.995" stroke="#222A2F" stroke-width="1.5" stroke-linecap="round" stroke-linejoin="round"/>
<path d="M13.5098 20.9891C13.5068 20.9891 13.5048 20.9911 13.5048 20.9941C13.5048 20.9971 13.5068 20.9991 13.5098 20.9991C13.5128 20.9991 13.5148 20.9971 13.5148 20.9941C13.5148 20.9911 13.5128 20.9891 13.5098 20.9891" stroke="#222A2F" stroke-width="1.5" stroke-linecap="round" stroke-linejoin="round"/>
<path d="M11.4658 5.72753C11.6998 3.64453 13.4488 2.01953 15.5968 2.01953C15.5968 4.32353 17.4678 6.19253 19.7748 6.19253C19.7748 7.58753 19.0818 8.81653 18.0288 9.57353" stroke="#222A2F" stroke-width="1.5" stroke-linecap="round" stroke-linejoin="round"/>
</svg>
