<svg width="10" height="15" viewBox="0 0 10 15" fill="none" xmlns="http://www.w3.org/2000/svg">
<path d="M7.34102 2.30153C7.28102 3.45153 7.04102 8.61153 7.04102 8.61153H8.13102V14.3015H9.31102V0.511527C9.05972 0.477832 8.80409 0.499465 8.56203 0.574912C8.31996 0.650358 8.09731 0.777795 7.90966 0.948302C7.72201 1.11881 7.57388 1.32827 7.47566 1.56202C7.37743 1.79577 7.33148 2.04816 7.34102 2.30153V2.30153Z" fill="black"/>
<path d="M3.8512 4.09062H3.1412V0.640625H2.3312V4.09062H1.6212V0.640625H0.811201V4.43062C0.800371 4.84433 0.924206 5.25037 1.16407 5.58762C1.40393 5.92487 1.74685 6.17509 2.1412 6.30062V14.3006H3.3212V6.30062C3.71079 6.17881 4.0511 5.9354 4.29225 5.60607C4.5334 5.27673 4.6627 4.87881 4.6612 4.47062V0.640625H3.8512V4.09062Z" fill="black"/>
</svg>
