<svg width="11" height="16" viewBox="0 0 11 16" fill="none" xmlns="http://www.w3.org/2000/svg">
<path d="M10.8204 5.95937V5.02937L0.260512 0.609375V1.53938L4.74049 3.36938V6.67937H1.74049C1.51147 6.67112 1.28323 6.70981 1.06972 6.79307C0.856201 6.87632 0.6619 7.00239 0.498916 7.1635C0.335931 7.32461 0.207682 7.51737 0.121962 7.7299C0.0362428 7.94244 -0.00510275 8.17027 0.000502426 8.39938V13.9094C0.000502426 14.13 0.0440042 14.3485 0.128432 14.5523C0.21286 14.7561 0.336565 14.9413 0.492568 15.0973C0.64857 15.2533 0.833785 15.3771 1.03761 15.4615C1.24144 15.5459 1.45994 15.5894 1.68056 15.5894H8.42055C8.64117 15.5894 8.85954 15.5459 9.06337 15.4615C9.2672 15.3771 9.45241 15.2533 9.60841 15.0973C9.76442 14.9413 9.88824 14.7561 9.97267 14.5523C10.0571 14.3485 10.1005 14.13 10.1005 13.9094V8.39938C10.1005 7.95381 9.92347 7.52649 9.60841 7.21143C9.29335 6.89637 8.86611 6.71938 8.42055 6.71938H5.42055V3.71938L10.8204 5.95937ZM3.11049 11.8894H0.860488V8.80938H3.11049V11.8894ZM7.01051 8.80938H9.26051V11.8894H7.0005L7.01051 8.80938ZM6.18056 11.8894H3.94044V8.80938H6.18056V11.8894Z" fill="white"/>
</svg>
