<svg width="20" height="20" viewBox="0 0 20 20" fill="none" xmlns="http://www.w3.org/2000/svg">
<path d="M4.16602 6.48562V7.20562L9.49493 6.10362V7.14962C9.49493 7.29122 9.45727 7.43002 9.38595 7.55242L7.85098 10.184C7.54767 10.704 7.49479 11.3328 7.70754 11.896L8.94361 15.1704C9.1788 15.7936 9.7762 16.206 10.4433 16.206H14.1026V15.526H10.5094C10.1092 15.526 9.75096 15.2784 9.60952 14.9044L8.33098 11.5176C8.21599 11.2136 8.24444 10.874 8.40831 10.5932L10.0034 7.85922C10.146 7.61482 10.2213 7.33682 10.2213 7.05402V5.95402L15.3852 4.88602V4.16602L4.16602 6.48562Z" fill="white"/>
<path d="M10.2562 11.1096H8.89393L10.112 14.3256C10.2402 14.6176 10.5247 14.8056 10.8452 14.8056H14.1026V13.5656H11.1938L10.2562 11.1096Z" fill="white"/>
</svg>
