<svg width="141" height="90" viewBox="0 0 141 90" fill="none" xmlns="http://www.w3.org/2000/svg">
<rect width="141" height="90" fill="#0F6EB4"/>
<path fill-rule="evenodd" clip-rule="evenodd" d="M43.6105 9.63582C44.2983 10.7234 46.4174 14.0746 47.3151 18.0894C48.3334 22.5937 48.3043 25.3495 47.8678 28.5055C47.0678 34.1654 44.5511 38.5215 43.4456 39.9735C42.6891 38.9956 41.5399 36.9657 40.7689 35.0988C40.7689 35.0988 39.3142 31.5132 38.936 28.0165C38.5578 24.5346 38.7178 20.9935 39.8379 16.993C40.8707 13.4222 42.8782 10.1922 43.431 9.34766C43.4679 9.4103 43.5292 9.5072 43.6104 9.63572L43.6105 9.63582ZM42.0927 33.2912C42.1654 36.0915 42.9364 37.8992 43.431 38.8474C43.9547 37.8843 44.8275 35.7656 44.7402 33.0541C44.6384 30.2983 43.7219 28.2684 43.4456 27.7943C43.1401 28.2684 42.0781 30.5946 42.0927 33.2912ZM46.5295 30.3427C46.7914 29.2463 46.9805 27.4387 47.0241 25.72C47.0678 24.016 46.8932 21.0972 46.0786 18.0746C45.2494 15.0372 43.6492 12.1332 43.4165 11.7628C43.1837 12.1332 41.9181 14.4742 40.798 18.1487C40.5071 19.2451 39.9688 21.6454 39.8815 23.9716C39.7797 26.7867 40.1579 29.6019 40.3034 30.3872C40.3034 29.4537 40.3179 26.3422 40.8853 23.7642C41.4526 21.2009 42.5436 18.2228 43.4165 16.7115C44.362 18.2969 45.5549 21.7343 45.9767 23.779C46.3986 25.8533 46.6168 28.4758 46.5295 30.3427ZM62.1551 43.1143L61.5878 51.5004H62.9116L62.3442 43.1143H62.1551ZM61.1805 57.7975H57.951L59.6676 41.0251H64.8463L66.5629 57.7975H63.348L63.0425 53.3377H61.486L61.1805 57.7975ZM57.8761 41.0254H51.6063V57.7977H54.894V43.1145H57.8761V41.0254ZM71.274 51.9303V55.0863C71.274 55.516 71.594 55.6345 71.7831 55.6345C72.0886 55.6345 72.3068 55.3678 72.3068 55.0863V51.1747C72.3068 50.6561 72.2195 50.0783 70.983 50.0783H69.6447V48.241H71.0412C71.9722 48.241 72.3068 48.0188 72.3068 46.9964V43.6627C72.3068 43.3812 72.0886 43.1145 71.7831 43.1145C71.594 43.1145 71.274 43.2182 71.274 43.6627V46.4038H67.9863V44.0183C67.9863 42.8478 68.1173 41.0254 70.4302 41.0254H73.1505C75.4635 41.0254 75.609 42.8478 75.609 44.0183V46.7001C75.609 48.5225 74.3579 49.0263 73.3687 48.9819V49.1448C75.5799 49.0856 75.609 50.8191 75.609 51.4118V54.7899C75.609 55.9753 75.4635 57.7829 73.1505 57.7829H70.4302C68.1173 57.7829 67.9863 55.9753 67.9863 54.7899V51.9155H71.274V51.9303ZM85.3863 41.0254H77.7637V57.7977H81.0658V43.1145H82.0987V57.7977H85.3863V41.0254ZM90.8404 50.2561V43.1145H91.2768C91.6259 43.1145 91.8877 43.4108 91.8877 43.959V49.4115C91.8877 49.9449 91.6259 50.2561 91.2768 50.2561H90.8404ZM87.5527 57.7977H90.8404V52.0933H92.7315C95.0299 52.0933 95.1754 50.2857 95.1754 49.1004V44.0183C95.1754 42.8478 95.0299 41.0254 92.7315 41.0254H87.5527V57.7977ZM101.153 55.6345C101.459 55.6345 101.677 55.3678 101.677 55.0863V43.6627C101.677 43.3812 101.459 43.1145 101.153 43.1145C100.964 43.1145 100.644 43.2182 100.644 43.6627V55.0863C100.644 55.516 100.964 55.6345 101.153 55.6345ZM99.7857 57.7977C97.4873 57.7977 97.3418 55.9901 97.3418 54.8048V44.0183C97.3418 42.8478 97.4873 41.0254 99.7857 41.0254H102.521C104.819 41.0254 104.964 42.8478 104.964 44.0183V54.8048C104.964 55.9901 104.819 57.7977 102.521 57.7977H99.7857ZM115.687 41.0251H119.978V57.7975H116.69V47.2777H116.574L114.857 57.7975H112.224L110.537 47.2777H110.421V57.7975H107.133V41.0251H111.41L113.563 52.8191L115.687 41.0251ZM45.1483 41.027H37.482V46.2721L37.4965 46.2573C39.3004 44.42 42.2389 44.42 44.0427 46.2573C45.8465 48.0797 45.8465 51.0727 44.0427 52.9099L44.0136 52.9395C44.0046 52.9395 44.0012 52.9452 43.9964 52.953C43.9935 52.9579 43.9901 52.9635 43.9845 52.9692C42.1807 54.7768 39.8241 55.6954 37.4674 55.6954C35.0963 55.6954 32.7397 54.7916 30.9358 52.9395C27.75 49.7095 27.3718 44.6867 29.8012 41.027C30.1212 40.5381 30.4994 40.064 30.9358 39.6195C32.7397 37.7822 35.1108 36.8636 37.4674 36.8636V24.2695C28.3901 24.2843 21.0293 31.7667 21.0293 41.027C21.0293 50.2874 28.3901 57.7846 37.482 57.7846C42.2243 57.7846 46.4866 55.7399 49.4978 52.4802V41.027H45.1483ZM21.0312 60.6113H119.98V69.7235H21.0312V60.6113ZM26.3988 63.8732V62.9102H23.9258V67.6959H25.075V63.8732H26.3988ZM27.1699 64.151C27.1699 63.751 27.2863 63.4399 27.5336 63.2028C27.7954 62.9361 28.1882 62.8027 28.7119 62.8027C29.2211 62.8027 29.5993 62.9361 29.8757 63.2028C30.1084 63.4399 30.2393 63.7658 30.2393 64.1659V66.3143C30.2393 66.8032 30.123 67.1736 29.8757 67.4255C29.6284 67.6774 29.2501 67.7959 28.7265 67.7959C28.2173 67.7959 27.8245 67.6626 27.5772 67.4107C27.3299 67.1588 27.199 66.7884 27.199 66.2994V64.151H27.1699ZM28.6828 63.6621C28.581 63.6621 28.4792 63.6917 28.4064 63.7658C28.3337 63.8399 28.29 63.9436 28.29 64.0621V66.4921C28.29 66.6254 28.3337 66.7291 28.4064 66.8032C28.4792 66.8773 28.581 66.9069 28.6828 66.9069C28.7846 66.9069 28.8865 66.8773 28.9592 66.8032C29.0319 66.7291 29.0756 66.6254 29.0756 66.4772V64.0473C29.0756 63.914 29.0319 63.8251 28.9592 63.751C28.8865 63.6917 28.7992 63.6621 28.6828 63.6621ZM31.2148 62.9102V67.6811H32.3495V65.8142H32.8587C33.2514 65.8142 33.5569 65.7253 33.7897 65.5327C34.0806 65.2956 34.2261 64.8956 34.2261 64.3622C34.2261 63.814 34.0806 63.4139 33.7897 63.1769C33.5715 62.9991 33.266 62.9102 32.8587 62.9102H31.2148ZM32.5532 64.9697H32.3495V63.7547H32.5386C32.7132 63.7547 32.8441 63.7992 32.9459 63.8881C33.0478 63.977 33.0914 64.1251 33.0914 64.3474C33.0914 64.5696 33.0332 64.7326 32.9314 64.8363C32.8296 64.9252 32.7132 64.9697 32.5532 64.9697ZM36.2753 65.666V67.6959H35.1406V62.9102H36.2753V64.703H37.0172V62.9102H38.1519V67.6959H37.0172V65.666H36.2753ZM39.5063 63.2028C39.259 63.4399 39.1426 63.751 39.1426 64.151H39.1717V66.2994C39.1717 66.7884 39.3026 67.1588 39.5499 67.4107C39.7972 67.6626 40.19 67.7959 40.6991 67.7959C41.2228 67.7959 41.601 67.6774 41.8483 67.4255C42.0956 67.1736 42.212 66.8032 42.212 66.3143V64.1659C42.212 63.7658 42.0811 63.4399 41.8483 63.2028C41.5719 62.9361 41.1937 62.8027 40.6846 62.8027C40.1609 62.8027 39.7681 62.9361 39.5063 63.2028ZM40.3936 63.7658C40.4664 63.6917 40.5682 63.6621 40.67 63.6621C40.7718 63.6621 40.8591 63.6917 40.9464 63.751C41.0191 63.8251 41.0628 63.914 41.0628 64.0473V66.4772C41.0628 66.6254 41.0191 66.7291 40.9464 66.8032C40.8737 66.8773 40.7718 66.9069 40.67 66.9069C40.5682 66.9069 40.4664 66.8773 40.3936 66.8032C40.3209 66.7291 40.2772 66.6254 40.2772 66.4921V64.0621C40.2772 63.9436 40.3209 63.8399 40.3936 63.7658ZM42.9962 66.4497V65.7088H45.8183V66.4497H42.9962ZM47.4049 63.8732V67.6959H48.4523V63.8732H49.2815V62.9102H46.5176V63.8732H47.4049ZM53.2517 62.9102L53.2476 62.925H52.0734L51.6224 65.1178L51.5206 66.0068L51.4478 65.0141L51.026 62.925H49.8477L50.9096 66.6884C50.895 66.7625 50.8514 66.8069 50.8078 66.8217C50.7641 66.8365 50.7059 66.8514 50.6477 66.8514H50.5023C50.4586 66.8514 50.415 66.8366 50.3713 66.8217V67.6366C50.415 67.6811 50.5023 67.7107 50.6041 67.7404C50.7059 67.7552 50.8223 67.77 50.9387 67.77C51.3315 67.77 51.6224 67.6811 51.797 67.5329C51.9715 67.3699 52.117 67.0588 52.2479 66.5995L53.2476 62.925H53.2517V62.9102ZM54.0371 62.9102V67.6811H55.1718V65.8142H55.6809C56.0737 65.8142 56.3792 65.7253 56.6119 65.5327C56.9029 65.2956 57.0483 64.8956 57.0483 64.3622C57.0483 63.814 56.9029 63.4139 56.6119 63.1769C56.3937 62.9991 56.0882 62.9102 55.6809 62.9102H54.0371ZM55.3754 64.9697H55.1718V63.7547H55.3609C55.5355 63.7547 55.6664 63.7992 55.7682 63.8881C55.87 63.977 55.9137 64.1251 55.9137 64.3474C55.9137 64.5696 55.8555 64.7326 55.7537 64.8363C55.6518 64.9252 55.5355 64.9697 55.3754 64.9697ZM59.8414 67.6959V66.5847C59.8996 65.992 59.9723 65.3846 60.0451 64.7771L59.0704 67.6959H57.9648V62.9102H59.0559V64.1103C59.0559 64.2437 59.0122 64.6289 58.9395 65.2512C58.9331 65.3133 58.9266 65.3726 58.9205 65.429L58.9205 65.429L58.9205 65.4295C58.8989 65.6282 58.8813 65.791 58.8813 65.9179L59.8414 62.9102H60.9179V67.6959H59.8414ZM64.9043 65.7957H63.7842V66.4476C63.7842 66.6254 63.7405 66.7588 63.6678 66.8328C63.5951 66.9069 63.4932 66.9514 63.3623 66.9514C63.2314 66.9514 63.1295 66.9069 63.0714 66.8328C62.9986 66.7588 62.9695 66.6254 62.9695 66.4476V64.0473C62.9695 63.9288 63.0132 63.8399 63.0859 63.7806C63.1586 63.7214 63.2459 63.6917 63.3478 63.6917C63.4496 63.6917 63.5369 63.7362 63.6241 63.7954C63.7114 63.8547 63.7551 63.9436 63.7551 64.0621V64.5955H64.8897V64.1659C64.8897 63.7658 64.7734 63.4399 64.5261 63.2028C64.2497 62.9361 63.8714 62.8027 63.3623 62.8027C62.8386 62.8027 62.4458 62.9213 62.184 63.188C61.9367 63.425 61.8203 63.751 61.8203 64.151V66.2254C61.8203 66.7736 61.9512 67.1588 62.1985 67.4107C62.4458 67.6626 62.8386 67.7811 63.3623 67.7811C63.886 67.7811 64.2788 67.6626 64.5261 67.4107C64.7734 67.1736 64.9043 66.7736 64.9043 66.2402V65.7957ZM66.5632 67.6959V63.8732H65.6758V62.9102H68.4397V63.8732H67.6105V67.6959H66.5632ZM71.1441 66.5847V67.6959H72.2206V62.9102H71.1441L70.184 65.9179C70.184 65.7909 70.2017 65.6279 70.2233 65.4289C70.2275 65.3901 70.2318 65.3499 70.2362 65.3084C70.2382 65.2896 70.2402 65.2705 70.2422 65.2512C70.315 64.6289 70.3586 64.2437 70.3586 64.1103V62.9102H69.2676V67.6959H70.3731L71.3478 64.777C71.3133 65.0649 71.2821 65.3527 71.2511 65.639C71.2167 65.9569 71.1824 66.2728 71.1441 66.5847ZM73.1962 62.9102H74.3163V64.5252C74.3163 64.7474 74.4181 64.8511 74.6363 64.8511C74.7964 64.8511 74.9418 64.8215 75.0582 64.7622V62.9102H76.1929V67.6959H75.0582V65.6809C74.8982 65.7401 74.7673 65.7698 74.6363 65.7846C74.5054 65.7994 74.3454 65.8142 74.1417 65.8142C73.9235 65.8142 73.7199 65.7401 73.5308 65.5771C73.298 65.3845 73.1962 65.1178 73.1962 64.7919V62.9102ZM77.3555 62.9102V67.6811H79.9885V66.7773H78.4901V65.6364H79.8721V64.7326H78.4901V63.814H79.9885V62.9102H77.3555ZM82.7256 65.7957H83.8457V66.2402C83.8457 66.7736 83.7148 67.1736 83.4675 67.4107C83.2202 67.6478 82.8274 67.7811 82.3037 67.7811C81.78 67.7811 81.3872 67.6626 81.1399 67.4107C80.8926 67.1588 80.7617 66.7736 80.7617 66.2254V64.151C80.7617 63.751 80.8781 63.425 81.1254 63.188C81.3872 62.9213 81.78 62.8027 82.3037 62.8027C82.8128 62.8027 83.1911 62.9361 83.4675 63.2028C83.7148 63.4399 83.8311 63.7658 83.8311 64.1659V64.5955H82.6965V64.0621C82.6965 63.9436 82.6528 63.8547 82.5655 63.7954C82.4783 63.7362 82.391 63.6917 82.2892 63.6917C82.1873 63.6917 82.1 63.7214 82.0273 63.7806C81.9546 63.8399 81.9109 63.9288 81.9109 64.0473V66.4476C81.9109 66.6254 81.94 66.7588 82.0128 66.8328C82.0709 66.9069 82.1728 66.9514 82.3037 66.9514C82.4346 66.9514 82.5365 66.9069 82.6092 66.8328C82.6819 66.7588 82.7256 66.6254 82.7256 66.4476V65.7957ZM84.8359 62.9102V67.6811H85.9124V66.5698L86.2179 66.0216L86.7416 67.6811H87.9344L86.8871 65.0141L87.9344 62.9102H86.698L85.9124 64.8067V62.9102H84.8359ZM90.6246 67.6959V66.5847C90.6628 66.2737 90.6969 65.9587 90.7313 65.6417L90.7314 65.641L90.7314 65.6403L90.7315 65.6397L90.7316 65.6391L90.7317 65.6382L90.7317 65.6376C90.7627 65.3518 90.7939 65.0644 90.8283 64.777L89.8536 67.6959H88.748V62.9102H89.8391V64.1103C89.8391 64.2437 89.7954 64.6289 89.7227 65.2512C89.7167 65.3094 89.7106 65.3651 89.7049 65.4183L89.7041 65.4254L89.7037 65.4291L89.7037 65.4294C89.6822 65.6282 89.6645 65.791 89.6645 65.9179L90.6246 62.9102H91.7011V67.6959H90.6246ZM94.6383 66.5822V67.6934H95.7148V62.9076H94.6383L93.6782 65.9154C93.6782 65.7228 93.6927 65.5005 93.7218 65.2487L93.7501 64.9955C93.8057 64.4996 93.8382 64.21 93.8382 64.1078V62.9076H92.7617V67.6934H93.8673L94.8419 64.7745C94.8075 65.062 94.7764 65.3494 94.7454 65.6352L94.7453 65.6359L94.7452 65.6367L94.7452 65.6374L94.7451 65.638L94.745 65.6387C94.7106 65.9558 94.6765 66.271 94.6383 66.5822ZM94.2455 62.6113C93.94 62.6113 93.6927 62.5521 93.5327 62.4187C93.3436 62.2705 93.2418 62.0483 93.2563 61.752H93.6927C93.6927 61.8853 93.7655 61.9742 93.8964 62.0335C93.9982 62.0779 94.1146 62.0927 94.2746 62.0927C94.4346 62.0927 94.551 62.0779 94.6237 62.0335C94.711 61.989 94.7838 61.8853 94.8274 61.752H95.2493C95.2493 62.0335 95.1474 62.2557 94.9438 62.4039C94.7547 62.5372 94.5219 62.6113 94.2455 62.6113ZM100.051 66.7301H100.778V62.9074H101.913V66.7301H102.16V68.671H101.054V67.6783H98.916V62.8926H100.051V66.7301ZM103.018 62.9102V67.6811H105.651V66.7773H104.152V65.6364H105.534V64.7326H104.152V63.814H105.651V62.9102H103.018ZM107.701 65.666V67.6959H106.566V62.9102H107.701V64.703H108.443V62.9102H109.578V67.6959H108.443V65.666H107.701ZM110.424 63.8732H111.311V67.6959H112.359V63.8732H113.188V62.9102H110.424V63.8732ZM114.029 67.6811V62.9102H115.673C116.08 62.9102 116.386 62.9991 116.604 63.1769C116.895 63.4139 117.041 63.814 117.041 64.3622C117.041 64.8956 116.895 65.2956 116.604 65.5327C116.371 65.7253 116.066 65.8142 115.673 65.8142H115.164V67.6811H114.029ZM115.149 64.9697H115.353C115.513 64.9697 115.629 64.9252 115.731 64.8363C115.833 64.7326 115.891 64.5696 115.891 64.3474C115.891 64.1251 115.848 63.977 115.746 63.8881C115.644 63.7992 115.513 63.7547 115.339 63.7547H115.149V64.9697Z" fill="white"/>
</svg>
