<svg width="13" height="13" viewBox="0 0 13 13" fill="none" xmlns="http://www.w3.org/2000/svg">
<path opacity="0.5" d="M6.65967 12.2803C9.82426 12.2803 12.3897 9.71488 12.3897 6.55029C12.3897 3.3857 9.82426 0.820312 6.65967 0.820312C3.49508 0.820312 0.929688 3.3857 0.929688 6.55029C0.929688 9.71488 3.49508 12.2803 6.65967 12.2803Z" fill="white"/>
<path d="M3.76093 7.60001C4.34082 7.60001 4.81091 7.12989 4.81091 6.54999C4.81091 5.97009 4.34082 5.5 3.76093 5.5C3.18103 5.5 2.71094 5.97009 2.71094 6.54999C2.71094 7.12989 3.18103 7.60001 3.76093 7.60001Z" fill="black"/>
<path d="M6.65936 7.60001C7.23926 7.60001 7.70941 7.12989 7.70941 6.54999C7.70941 5.97009 7.23926 5.5 6.65936 5.5C6.07946 5.5 5.60938 5.97009 5.60938 6.54999C5.60938 7.12989 6.07946 7.60001 6.65936 7.60001Z" fill="black"/>
<path d="M9.55975 7.60001C10.1397 7.60001 10.6097 7.12989 10.6097 6.54999C10.6097 5.97009 10.1397 5.5 9.55975 5.5C8.97985 5.5 8.50977 5.97009 8.50977 6.54999C8.50977 7.12989 8.97985 7.60001 9.55975 7.60001Z" fill="black"/>
</svg>
