<svg width="24" height="24" viewBox="0 0 24 24" fill="none" xmlns="http://www.w3.org/2000/svg">
<path d="M19.592 12.0867H5V15.9267H5.99504C6.17504 16.9135 6.96416 17.8956 8.7224 18.0286C8.95616 18.0463 9.16928 18.0545 9.3632 18.0545C10.7624 18.0545 11.191 17.6158 11.5112 17.0374C11.7118 16.675 11.948 16.4974 12.296 16.4974C12.644 16.4974 12.8802 16.675 13.0808 17.0374C13.401 17.6158 13.8296 18.0545 15.2288 18.0545C15.4232 18.0545 15.6358 18.0459 15.8696 18.0286C17.6278 17.8956 18.417 16.9131 18.597 15.9267H19.592V12.0867ZM17.3773 16.5295C17.0398 16.8991 16.5104 17.1142 15.8048 17.1675C15.597 17.1833 15.4035 17.191 15.2288 17.191C14.1531 17.191 14.0067 16.926 13.8368 16.6193C13.4749 15.9655 12.9565 15.6339 12.296 15.6339C11.6355 15.6339 11.1176 15.9655 10.7552 16.6193C10.5853 16.926 10.4389 17.191 9.3632 17.191C9.18896 17.191 8.99504 17.1828 8.7872 17.1675C8.08112 17.1142 7.55216 16.8996 7.21472 16.5295C6.86912 16.1508 6.81728 15.7049 6.81728 15.4726V12.9511H17.7742V15.4726C17.7742 15.7049 17.7229 16.1513 17.3773 16.5295Z" fill="#222A2F"/>
<path d="M18.8082 10.7427C18.5768 7.5344 15.7501 5 12.296 5C8.84192 5 6.01472 7.53488 5.78384 10.7427H18.8082Z" fill="#222A2F"/>
</svg>
