<svg width="60" height="60" viewBox="0 0 60 60" fill="none" xmlns="http://www.w3.org/2000/svg">
<path d="M48.98 30.2166H12.5V39.8166H14.9876C15.4376 42.2838 17.4104 44.739 21.806 45.0714C22.3904 45.1158 22.9232 45.1362 23.408 45.1362C26.906 45.1362 27.9776 44.0394 28.778 42.5934C29.2796 41.6874 29.87 41.2434 30.74 41.2434C31.61 41.2434 32.2004 41.6874 32.702 42.5934C33.5024 44.0394 34.574 45.1362 38.072 45.1362C38.558 45.1362 39.0896 45.1146 39.674 45.0714C44.0696 44.739 46.0424 42.2826 46.4924 39.8166H48.98V30.2166ZM43.4432 41.3238C42.5996 42.2478 41.276 42.7854 39.512 42.9186C38.9924 42.9582 38.5088 42.9774 38.072 42.9774C35.3828 42.9774 35.0168 42.315 34.592 41.5482C33.6872 39.9138 32.3912 39.0846 30.74 39.0846C29.0888 39.0846 27.794 39.9138 26.888 41.5482C26.4632 42.315 26.0972 42.9774 23.408 42.9774C22.9724 42.9774 22.4876 42.957 21.968 42.9186C20.2028 42.7854 18.8804 42.249 18.0368 41.3238C17.1728 40.377 17.0432 39.2622 17.0432 38.6814V32.3778H44.4356V38.6814C44.4356 39.2622 44.3072 40.3782 43.4432 41.3238Z" fill="#222A2F"/>
<path d="M47.0204 26.8568C46.442 18.836 39.3752 12.5 30.74 12.5C22.1048 12.5 15.0368 18.8372 14.4596 26.8568H47.0204Z" fill="#222A2F"/>
</svg>
