<svg width="141" height="90" viewBox="0 0 141 90" fill="none" xmlns="http://www.w3.org/2000/svg">
<rect width="141" height="90" fill="white"/>
<path fill-rule="evenodd" clip-rule="evenodd" d="M43.6105 9.63582C44.2983 10.7234 46.4174 14.0746 47.3151 18.0894C48.3334 22.5937 48.3043 25.3495 47.8678 28.5055C47.0678 34.1654 44.5511 38.5215 43.4456 39.9735C42.6891 38.9956 41.5399 36.9657 40.7689 35.0988C40.7689 35.0988 39.3142 31.5132 38.936 28.0165C38.5578 24.5346 38.7178 20.9935 39.8379 16.993C40.8707 13.4222 42.8782 10.1922 43.431 9.34765C43.4679 9.41029 43.5292 9.50719 43.6104 9.63571L43.6105 9.63582ZM42.0927 33.2912C42.1654 36.0915 42.9364 37.8992 43.431 38.8474C43.9547 37.8843 44.8275 35.7656 44.7402 33.0541C44.6384 30.2983 43.7219 28.2684 43.4456 27.7943C43.1401 28.2684 42.0781 30.5946 42.0927 33.2912ZM46.5295 30.3427C46.7914 29.2463 46.9805 27.4387 47.0241 25.7199C47.0678 24.016 46.8932 21.0972 46.0786 18.0746C45.2494 15.0372 43.6492 12.1332 43.4165 11.7628C43.1837 12.1332 41.9181 14.4742 40.798 18.1487C40.5071 19.2451 39.9688 21.6454 39.8815 23.9716C39.7797 26.7867 40.1579 29.6019 40.3034 30.3872C40.3034 29.4537 40.3179 26.3422 40.8853 23.7642C41.4526 21.2009 42.5436 18.2228 43.4165 16.7115C44.362 18.2969 45.5549 21.7343 45.9767 23.779C46.3986 25.8533 46.6168 28.4758 46.5295 30.3427ZM57.8761 41.0251H51.6063V57.7975H54.894V43.1142H57.8761V41.0251ZM62.1551 43.1143L61.5878 51.5004H62.9116L62.3442 43.1143H62.1551ZM61.1805 57.7975H57.951L59.6676 41.0251H64.8463L66.5629 57.7975H63.348L63.0425 53.3377H61.486L61.1805 57.7975ZM71.274 51.9301V55.086C71.274 55.5157 71.594 55.6342 71.7831 55.6342C72.0886 55.6342 72.3068 55.3675 72.3068 55.086V51.1745C72.3068 50.6559 72.2195 50.078 70.983 50.078H69.6447V48.2408H71.0412C71.9722 48.2408 72.3068 48.0185 72.3068 46.9962V43.6625C72.3068 43.3809 72.0886 43.1142 71.7831 43.1142C71.594 43.1142 71.274 43.218 71.274 43.6625V46.4035H67.9863V44.0181C67.9863 42.8475 68.1173 41.0251 70.4302 41.0251H73.1505C75.4635 41.0251 75.609 42.8475 75.609 44.0181V46.6999C75.609 48.5223 74.3579 49.0261 73.3687 48.9816V49.1446C75.5799 49.0853 75.609 50.8189 75.609 51.4115V54.7897C75.609 55.975 75.4635 57.7826 73.1505 57.7826H70.4302C68.1173 57.7826 67.9863 55.975 67.9863 54.7897V51.9153H71.274V51.9301ZM85.3863 41.0251H77.7637V57.7975H81.0658V43.1142H82.0987V57.7975H85.3863V41.0251ZM90.8404 50.2558V43.1142H91.2768C91.6259 43.1142 91.8877 43.4106 91.8877 43.9588V49.4113C91.8877 49.9447 91.6259 50.2558 91.2768 50.2558H90.8404ZM87.5527 57.7975H90.8404V52.0931H92.7315C95.0299 52.0931 95.1754 50.2855 95.1754 49.1001V44.0181C95.1754 42.8475 95.0299 41.0251 92.7315 41.0251H87.5527V57.7975ZM101.153 55.6342C101.459 55.6342 101.677 55.3675 101.677 55.086V43.6625C101.677 43.3809 101.459 43.1142 101.153 43.1142C100.964 43.1142 100.644 43.218 100.644 43.6625V55.086C100.644 55.5157 100.964 55.6342 101.153 55.6342ZM99.7857 57.7975C97.4873 57.7975 97.3418 55.9898 97.3418 54.8045V44.0181C97.3418 42.8475 97.4873 41.0251 99.7857 41.0251H102.521C104.819 41.0251 104.964 42.8475 104.964 44.0181V54.8045C104.964 55.9898 104.819 57.7975 102.521 57.7975H99.7857ZM115.687 41.0251H119.978V57.7975H116.69V47.2777H116.574L114.857 57.7975H112.224L110.537 47.2777H110.421V57.7975H107.133V41.0251H111.41L113.563 52.8191L115.687 41.0251ZM45.1483 41.0267H37.482V46.2717L37.4965 46.2569C39.3004 44.4197 42.2389 44.4197 44.0427 46.2569C45.8465 48.0794 45.8465 51.0723 44.0427 52.9096L44.0136 52.9392C44.0046 52.9392 44.0012 52.9449 43.9964 52.9527C43.9935 52.9575 43.9901 52.9632 43.9845 52.9688C42.1807 54.7764 39.8241 55.6951 37.4674 55.6951C35.0963 55.6951 32.7397 54.7913 30.9358 52.9392C27.75 49.7092 27.3718 44.6864 29.8012 41.0267C30.1212 40.5377 30.4994 40.0636 30.9358 39.6191C32.7397 37.7819 35.1108 36.8632 37.4674 36.8632V24.2692C28.3901 24.284 21.0293 31.7663 21.0293 41.0267C21.0293 50.287 28.3901 57.7842 37.482 57.7842C42.2243 57.7842 46.4866 55.7395 49.4978 52.4799V41.0267H45.1483ZM21.0312 60.6111H119.98V69.7232H21.0312V60.6111ZM26.3988 63.8728V62.9097H23.9258V67.6954H25.075V63.8728H26.3988ZM27.1699 64.1517C27.1699 63.7517 27.2863 63.4406 27.5336 63.2035C27.7954 62.9368 28.1882 62.8034 28.7119 62.8034C29.2211 62.8034 29.5993 62.9368 29.8757 63.2035C30.1084 63.4406 30.2393 63.7665 30.2393 64.1666V66.315C30.2393 66.8039 30.123 67.1743 29.8757 67.4262C29.6284 67.6781 29.2501 67.7966 28.7265 67.7966C28.2173 67.7966 27.8245 67.6633 27.5772 67.4114C27.3299 67.1595 27.199 66.7891 27.199 66.3001V64.1517H27.1699ZM28.6828 63.6628C28.581 63.6628 28.4792 63.6924 28.4064 63.7665C28.3337 63.8406 28.29 63.9443 28.29 64.0628V66.4928C28.29 66.6261 28.3337 66.7298 28.4064 66.8039C28.4792 66.878 28.581 66.9076 28.6828 66.9076C28.7846 66.9076 28.8865 66.878 28.9592 66.8039C29.0319 66.7298 29.0756 66.6261 29.0756 66.4779V64.048C29.0756 63.9147 29.0319 63.8258 28.9592 63.7517C28.8865 63.6924 28.7992 63.6628 28.6828 63.6628ZM31.2148 62.9097V67.6806H32.3495V65.8137H32.8587C33.2514 65.8137 33.5569 65.7248 33.7897 65.5322C34.0806 65.2952 34.2261 64.8951 34.2261 64.3617C34.2261 63.8135 34.0806 63.4135 33.7897 63.1764C33.5715 62.9986 33.266 62.9097 32.8587 62.9097H31.2148ZM32.5532 64.9692H32.3495V63.7542H32.5386C32.7132 63.7542 32.8441 63.7987 32.9459 63.8876C33.0478 63.9765 33.0914 64.1247 33.0914 64.3469C33.0914 64.5691 33.0332 64.7321 32.9314 64.8358C32.8296 64.9248 32.7132 64.9692 32.5532 64.9692ZM36.2753 65.6656V67.6954H35.1406V62.9097H36.2753V64.7025H37.0172V62.9097H38.1519V67.6954H37.0172V65.6656H36.2753ZM39.5063 63.2035C39.259 63.4406 39.1426 63.7517 39.1426 64.1517H39.1717V66.3001C39.1717 66.7891 39.3026 67.1595 39.5499 67.4114C39.7972 67.6633 40.19 67.7966 40.6991 67.7966C41.2228 67.7966 41.601 67.6781 41.8483 67.4262C42.0956 67.1743 42.212 66.8039 42.212 66.315V64.1666C42.212 63.7665 42.0811 63.4406 41.8483 63.2035C41.5719 62.9368 41.1937 62.8034 40.6846 62.8034C40.1609 62.8034 39.7681 62.9368 39.5063 63.2035ZM40.3936 63.7665C40.4664 63.6924 40.5682 63.6628 40.67 63.6628C40.7718 63.6628 40.8591 63.6924 40.9464 63.7517C41.0191 63.8258 41.0628 63.9147 41.0628 64.048V66.4779C41.0628 66.6261 41.0191 66.7298 40.9464 66.8039C40.8737 66.878 40.7718 66.9076 40.67 66.9076C40.5682 66.9076 40.4664 66.878 40.3936 66.8039C40.3209 66.7298 40.2772 66.6261 40.2772 66.4928V64.0628C40.2772 63.9443 40.3209 63.8406 40.3936 63.7665ZM42.9962 66.4497V65.7089H45.8183V66.4497H42.9962ZM47.4049 63.8728V67.6954H48.4523V63.8728H49.2815V62.9097H46.5176V63.8728H47.4049ZM53.2516 62.9097L53.2476 62.9245H52.0733L51.6223 65.1174L51.5205 66.0063L51.4478 65.0136L51.0259 62.9245H49.8476L50.9095 66.6879C50.895 66.762 50.8514 66.8064 50.8077 66.8213C50.7641 66.8361 50.7059 66.8509 50.6477 66.8509H50.5022C50.4586 66.8509 50.415 66.8361 50.3713 66.8213V67.6362C50.4149 67.6806 50.5022 67.7103 50.6041 67.7399C50.7059 67.7547 50.8223 67.7695 50.9386 67.7695C51.3314 67.7695 51.6223 67.6806 51.7969 67.5325C51.9715 67.3695 52.1169 67.0583 52.2479 66.599L53.2476 62.9245H53.2516V62.9097ZM54.0373 62.9097V67.6806H55.1719V65.8137H55.6811C56.0739 65.8137 56.3793 65.7248 56.6121 65.5322C56.903 65.2952 57.0485 64.8951 57.0485 64.3617C57.0485 63.8135 56.903 63.4134 56.6121 63.1764C56.3939 62.9986 56.0884 62.9097 55.6811 62.9097H54.0373ZM55.3756 64.9692H55.1719V63.7542H55.361C55.5356 63.7542 55.6665 63.7987 55.7684 63.8876C55.8702 63.9765 55.9138 64.1246 55.9138 64.3469C55.9138 64.5691 55.8556 64.7321 55.7538 64.8358C55.652 64.9247 55.5356 64.9692 55.3756 64.9692ZM59.8413 67.6954V66.5842C59.8995 65.9917 59.9722 65.3845 60.0449 64.7772L59.0703 67.6954H57.9647V62.9097H59.0558V64.1098C59.0558 64.2432 59.0121 64.6284 58.9394 65.2507C58.933 65.3129 58.9265 65.3721 58.9204 65.4285L58.9204 65.4286L58.9204 65.429C58.8988 65.6278 58.8812 65.7906 58.8812 65.9174L59.8413 62.9097H60.9178V67.6954H59.8413ZM64.9043 65.7964H63.7842V66.4483C63.7842 66.6261 63.7405 66.7595 63.6678 66.8335C63.5951 66.9076 63.4932 66.9521 63.3623 66.9521C63.2314 66.9521 63.1295 66.9076 63.0714 66.8335C62.9986 66.7595 62.9695 66.6261 62.9695 66.4483V64.048C62.9695 63.9295 63.0132 63.8406 63.0859 63.7813C63.1586 63.7221 63.2459 63.6924 63.3478 63.6924C63.4496 63.6924 63.5369 63.7369 63.6241 63.7961C63.7114 63.8554 63.7551 63.9443 63.7551 64.0628V64.5962H64.8897V64.1666C64.8897 63.7665 64.7734 63.4406 64.5261 63.2035C64.2497 62.9368 63.8714 62.8034 63.3623 62.8034C62.8386 62.8034 62.4458 62.922 62.184 63.1887C61.9367 63.4257 61.8203 63.7517 61.8203 64.1517V66.2261C61.8203 66.7743 61.9512 67.1595 62.1985 67.4114C62.4458 67.6633 62.8386 67.7818 63.3623 67.7818C63.886 67.7818 64.2788 67.6633 64.5261 67.4114C64.7734 67.1743 64.9043 66.7743 64.9043 66.2409V65.7964ZM66.5632 67.6954V63.8728H65.6758V62.9097H68.4397V63.8728H67.6105V67.6954H66.5632ZM71.1441 66.5842V67.6954H72.2206V62.9097H71.1441L70.184 65.9175C70.184 65.7904 70.2017 65.6274 70.2233 65.4284C70.2294 65.3721 70.2358 65.3128 70.2422 65.2507C70.315 64.6284 70.3586 64.2432 70.3586 64.1098V62.9097H69.2676V67.6954H70.3731L71.3478 64.7766C71.3133 65.0644 71.2821 65.3523 71.2511 65.6386C71.2167 65.9564 71.1824 66.2724 71.1441 66.5842ZM73.1963 62.9097H74.3164V64.5247C74.3164 64.7469 74.4183 64.8507 74.6365 64.8507C74.7965 64.8507 74.942 64.821 75.0583 64.7618V62.9097H76.193V67.6954H75.0583V65.6804C74.8983 65.7396 74.7674 65.7693 74.6365 65.7841C74.5056 65.7989 74.3455 65.8137 74.1419 65.8137C73.9237 65.8137 73.72 65.7397 73.5309 65.5767C73.2982 65.3841 73.1963 65.1174 73.1963 64.7914V62.9097ZM77.3555 62.9097V67.6806H79.9885V66.7768H78.4901V65.6359H79.8721V64.7321H78.4901V63.8135H79.9885V62.9097H77.3555ZM82.7256 65.7964H83.8457V66.2409C83.8457 66.7743 83.7148 67.1743 83.4675 67.4114C83.2202 67.6485 82.8274 67.7818 82.3037 67.7818C81.78 67.7818 81.3872 67.6633 81.1399 67.4114C80.8926 67.1595 80.7617 66.7743 80.7617 66.2261V64.1517C80.7617 63.7517 80.8781 63.4257 81.1254 63.1887C81.3872 62.922 81.78 62.8034 82.3037 62.8034C82.8128 62.8034 83.1911 62.9368 83.4675 63.2035C83.7148 63.4406 83.8311 63.7665 83.8311 64.1666V64.5962H82.6965V64.0628C82.6965 63.9443 82.6528 63.8554 82.5655 63.7961C82.4783 63.7369 82.391 63.6924 82.2892 63.6924C82.1873 63.6924 82.1 63.7221 82.0273 63.7813C81.9546 63.8406 81.9109 63.9295 81.9109 64.048V66.4483C81.9109 66.6261 81.94 66.7595 82.0128 66.8335C82.0709 66.9076 82.1728 66.9521 82.3037 66.9521C82.4346 66.9521 82.5365 66.9076 82.6092 66.8335C82.6819 66.7595 82.7256 66.6261 82.7256 66.4483V65.7964ZM84.8359 62.9097V67.6806H85.9124V66.5694L86.2179 66.0212L86.7416 67.6806H87.9344L86.8871 65.0136L87.9344 62.9097H86.698L85.9124 64.8062V62.9097H84.8359ZM90.6246 67.6954V66.5842C90.6628 66.2732 90.6969 65.9582 90.7313 65.6412L90.7314 65.6405L90.7314 65.6399L90.7315 65.6392L90.7316 65.6386L90.7317 65.6378L90.7317 65.6371C90.7627 65.3513 90.7939 65.0639 90.8283 64.7766L89.8536 67.6954H88.748V62.9097H89.8391V64.1098C89.8391 64.2432 89.7954 64.6284 89.7227 65.2507C89.7197 65.2792 89.7168 65.3072 89.7139 65.3345C89.7108 65.3629 89.7078 65.3906 89.7049 65.4177V65.4178V65.4179L89.7041 65.4249L89.7037 65.4286L89.7037 65.4289C89.6822 65.6277 89.6645 65.7905 89.6645 65.9175L90.6246 62.9097H91.7011V67.6954H90.6246ZM94.6383 66.5822V67.6934H95.7148V62.9077H94.6383L93.6782 65.9154C93.6782 65.7228 93.6927 65.5006 93.7218 65.2487L93.7501 64.9955C93.8057 64.4996 93.8382 64.21 93.8382 64.1078V62.9077H92.7617V67.6934H93.8673L94.8419 64.7746C94.8075 65.062 94.7764 65.3494 94.7454 65.6352L94.7453 65.6359L94.7452 65.6368L94.7452 65.6374L94.7451 65.638L94.745 65.6387C94.7106 65.9558 94.6765 66.2711 94.6383 66.5822ZM94.2455 62.6113C93.94 62.6113 93.6927 62.5521 93.5327 62.4187C93.3436 62.2706 93.2418 62.0483 93.2563 61.752H93.6927C93.6927 61.8853 93.7655 61.9742 93.8964 62.0335C93.9982 62.0779 94.1146 62.0928 94.2746 62.0928C94.4346 62.0928 94.551 62.0779 94.6237 62.0335C94.711 61.9891 94.7838 61.8853 94.8274 61.752H95.2493C95.2493 62.0335 95.1474 62.2557 94.9438 62.4039C94.7547 62.5373 94.5219 62.6113 94.2455 62.6113ZM100.051 66.7304H100.778V62.9077H101.913V66.7304H102.16V68.6714H101.054V67.6787H98.916V62.8929H100.051V66.7304ZM103.017 62.9097V67.6806H105.65V66.7768H104.152V65.6359H105.534V64.7321H104.152V63.8135H105.65V62.9097H103.017ZM107.701 65.6656V67.6954H106.566V62.9097H107.701V64.7025H108.443V62.9097H109.578V67.6954H108.443V65.6656H107.701ZM111.311 63.8728V67.6954H112.359V63.8728H113.188V62.9097H110.424V63.8728H111.311ZM114.029 67.6806V62.9097H115.673C116.08 62.9097 116.386 62.9986 116.604 63.1764C116.895 63.4135 117.041 63.8135 117.041 64.3617C117.041 64.8951 116.895 65.2952 116.604 65.5322C116.371 65.7248 116.066 65.8137 115.673 65.8137H115.164V67.6806H114.029ZM115.149 64.9692H115.353C115.513 64.9692 115.629 64.9248 115.731 64.8358C115.833 64.7321 115.891 64.5691 115.891 64.3469C115.891 64.1247 115.848 63.9765 115.746 63.8876C115.644 63.7987 115.513 63.7542 115.339 63.7542H115.149V64.9692Z" fill="#0F6EB4"/>
</svg>
