<svg width="20" height="21" viewBox="0 0 20 21" fill="none" xmlns="http://www.w3.org/2000/svg">
<path fill-rule="evenodd" clip-rule="evenodd" d="M8.66406 11.1191C8.66406 10.7049 8.99985 10.3691 9.41406 10.3691H14.066C14.4802 10.3691 14.816 10.7049 14.816 11.1191C14.816 11.5334 14.4802 11.8691 14.066 11.8691H9.41406C8.99985 11.8691 8.66406 11.5334 8.66406 11.1191Z" fill="#989899"/>
<path fill-rule="evenodd" clip-rule="evenodd" d="M10.0194 2.2627C5.46095 2.2627 1.76562 5.95802 1.76562 10.5164C1.76562 15.0749 5.46095 18.7702 10.0194 18.7702C14.5778 18.7702 18.2731 15.0749 18.2731 10.5164C18.2731 5.95802 14.5778 2.2627 10.0194 2.2627ZM0.265625 10.5164C0.265625 5.1296 4.63253 0.762695 10.0194 0.762695C15.4062 0.762695 19.7731 5.1296 19.7731 10.5164C19.7731 15.9033 15.4062 20.2702 10.0194 20.2702C4.63253 20.2702 0.265625 15.9033 0.265625 10.5164Z" fill="#989899"/>
<path fill-rule="evenodd" clip-rule="evenodd" d="M9.41406 4.76465C9.82828 4.76465 10.1641 5.10043 10.1641 5.51465V11.1192C10.1641 11.5334 9.82828 11.8691 9.41406 11.8691C8.99985 11.8691 8.66406 11.5334 8.66406 11.1191V5.51465C8.66406 5.10043 8.99985 4.76465 9.41406 4.76465Z" fill="#989899"/>
</svg>
