<svg width="31" height="26" viewBox="0 0 31 26" fill="none" xmlns="http://www.w3.org/2000/svg">
<path fill-rule="evenodd" clip-rule="evenodd" d="M20.2407 1.07446H1.5V19.8152H20.2407V1.07446ZM0.5 0.0744629V20.8152H21.2407V0.0744629H0.5Z" fill="white"/>
<path fill-rule="evenodd" clip-rule="evenodd" d="M19.6848 24.4815C24.8599 24.4815 29.0552 20.2862 29.0552 15.1111C29.0552 9.93598 24.8599 5.74072 19.6848 5.74072C14.5097 5.74072 10.3145 9.93598 10.3145 15.1111C10.3145 20.2862 14.5097 24.4815 19.6848 24.4815ZM19.6848 25.4815C25.4122 25.4815 30.0552 20.8385 30.0552 15.1111C30.0552 9.3837 25.4122 4.74072 19.6848 4.74072C13.9574 4.74072 9.31445 9.3837 9.31445 15.1111C9.31445 20.8385 13.9574 25.4815 19.6848 25.4815Z" fill="white"/>
</svg>
