<svg width="20" height="20" viewBox="0 0 20 20" fill="none" xmlns="http://www.w3.org/2000/svg">
<g clip-path="url(#clip0_771_4403)">
<path d="M11 4.99061C12.031 4.97661 13.067 5.35861 13.854 6.14561M16.682 3.31787C15.113 1.74887 13.056 0.963867 11 0.963867M15.0105 8.99951C15.0245 7.96851 14.6425 6.93251 13.8555 6.14551M16.6797 3.31738C18.2487 4.88638 19.0337 6.94338 19.0337 8.99938M16.9645 14.61L15.7915 13.437C15.2055 12.851 14.2555 12.851 13.6705 13.437L12.7485 14.359C12.5425 14.565 12.2305 14.634 11.9645 14.517C10.6285 13.932 9.30854 13.045 8.13154 11.868C6.95954 10.696 6.07554 9.38197 5.48954 8.05097C5.36754 7.77597 5.43854 7.45297 5.65154 7.23997L6.47754 6.41397C7.14854 5.74297 7.14854 4.79397 6.56254 4.20797L5.38954 3.03497C4.60854 2.25397 3.34254 2.25397 2.56154 3.03497L1.90954 3.68597C1.16854 4.42697 0.859533 5.49597 1.05954 6.55597C1.55354 9.16897 3.07154 12.03 5.52054 14.479C7.96954 16.928 10.8305 18.446 13.4435 18.94C14.5035 19.14 15.5725 18.831 16.3135 18.09L16.9645 17.439C17.7455 16.658 17.7455 15.392 16.9645 14.61Z" stroke="#989899" stroke-width="1.5" stroke-linecap="round" stroke-linejoin="round"/>
</g>
<defs>
<clipPath id="clip0_771_4403">
<rect width="20" height="20" fill="white"/>
</clipPath>
</defs>
</svg>
