<svg width="287" height="84" viewBox="0 0 287 84" fill="none" xmlns="http://www.w3.org/2000/svg">
<path d="M147.461 66.5768C147.461 66.5768 155.235 56.4426 155.262 43.2194C155.316 17.2607 137.141 0.406493 111.815 0.379396C97.1336 0.352299 84.6736 7.50585 77.1164 17.9923C76.8455 17.6129 76.5746 17.2607 76.3037 16.8813C69.9925 8.50843 59.0765 0.027138 42.1472 4.12331e-05C22.2383 -0.0270555 6.85298 13.3046 1.78773 29.5897C1.73356 29.7794 1.67939 29.9962 1.62521 30.1858V30.2129C0.568825 33.871 0 37.7187 0 41.702C0.0270869 45.4955 0.541738 49.1536 1.4356 52.5949C4.63186 64.4904 12.9475 74.2994 23.9177 79.5833C23.999 79.6104 24.0802 79.6646 24.1886 79.7188C24.2428 79.7458 24.2969 79.7729 24.3511 79.8C29.8768 82.32 36.0797 83.7291 42.6889 83.7562C56.6658 83.6478 69.0445 76.7923 76.683 66.3058C76.8455 66.0891 76.9809 65.8723 77.1434 65.6555C84.5111 76.2775 96.7543 84 111.95 84C122.026 84 129.15 79.6916 130.45 79.0142L133.132 82.5368H158.946L147.461 66.5768ZM42.4451 60.7239C33.4252 60.7239 23.1864 53.5975 22.9968 42.1626C22.7801 30.3213 33.0189 22.5717 42.4451 22.8968C50.1107 23.1678 53.0361 25.3626 57.2888 29.5626C57.2888 29.5626 63.4646 29.5626 69.7487 29.5626C70.2363 29.5626 70.6968 29.5626 71.1843 29.5626C71.1843 29.5626 71.1843 29.5626 71.1843 29.5897C70.5884 31.4323 70.1279 33.302 69.8029 35.1987H45.4518V54.8981H56.124C56.124 55.4129 50.6525 60.7239 42.4451 60.7239ZM131.751 47.6633L129.557 44.6826H103.364L114.009 60.0736C102.93 62.2413 92.4475 52.9742 92.61 42.1897C92.7726 31.1613 101.657 22.9239 112.302 22.9781C123.977 23.0594 135.597 35.6323 131.751 47.6633Z" fill="#DDDDDD"/>
<path d="M175.072 13.1682H170.17V9.81935H183.759V13.1682H178.857V27.0002H175.072V13.1682Z" fill="#D7D7D7"/>
<path d="M187.704 9.81935H194.353C195.226 9.81935 196.052 9.90833 196.828 10.0863C197.621 10.2481 198.308 10.5312 198.891 10.9356C199.489 11.3239 199.958 11.8578 200.298 12.5372C200.654 13.2005 200.832 14.0337 200.832 15.0367C200.832 16.25 200.517 17.2854 199.886 18.1428C199.255 18.9841 198.333 19.5179 197.119 19.7444L201.487 27.0002H196.949L193.358 20.1327H191.489V27.0002H187.704V9.81935ZM191.489 16.9295H193.722C194.062 16.9295 194.418 16.9214 194.79 16.9052C195.178 16.8729 195.526 16.8001 195.833 16.6868C196.141 16.5574 196.391 16.3633 196.585 16.1044C196.796 15.8456 196.901 15.4816 196.901 15.0124C196.901 14.5756 196.812 14.2278 196.634 13.969C196.456 13.7101 196.229 13.516 195.954 13.3866C195.679 13.241 195.364 13.1439 195.008 13.0954C194.652 13.0468 194.304 13.0226 193.965 13.0226H191.489V16.9295Z" fill="#D7D7D7"/>
<path d="M211.116 9.81935H214.246L221.72 27.0002H217.449L215.969 23.3602H209.296L207.864 27.0002H203.69L211.116 9.81935ZM212.572 14.8183L210.485 20.157H214.683L212.572 14.8183Z" fill="#D7D7D7"/>
<path d="M222.279 9.81935H226.598L230.845 21.0791H230.893L235.213 9.81935H239.265L232.18 27.0002H229.146L222.279 9.81935Z" fill="#D7D7D7"/>
<path d="M243.231 9.81935H254.904V13.3138H247.017V16.517H254.467V20.0114H247.017V23.5058H255.34V27.0002H243.231V9.81935Z" fill="#D7D7D7"/>
<path d="M260.539 9.81935H264.324V23.5058H271.337V27.0002H260.539V9.81935Z" fill="#D7D7D7"/>
<path d="M177.401 33.8194H180.532L188.006 51.0002H183.735L182.255 47.3602H175.581L174.15 51.0002H169.976L177.401 33.8194ZM178.857 38.8183L176.77 44.157H180.969L178.857 38.8183Z" fill="#D7D7D7"/>
<path d="M189.344 33.8194H193.47L196.212 44.8364H196.26L199.852 33.8194H203.37L206.938 45.1276H206.986L209.874 33.8194H213.708L208.685 51.0002H205.312L201.526 39.1095H201.478L197.692 51.0002H194.44L189.344 33.8194Z" fill="#D7D7D7"/>
<path d="M222.467 33.8194H225.597L233.071 51.0002H228.8L227.32 47.3602H220.647L219.215 51.0002H215.041L222.467 33.8194ZM223.923 38.8183L221.836 44.157H226.034L223.923 38.8183Z" fill="#D7D7D7"/>
<path d="M236.822 33.8194H243.471C244.344 33.8194 245.169 33.9083 245.946 34.0863C246.739 34.2481 247.426 34.5312 248.009 34.9356C248.607 35.3239 249.076 35.8578 249.416 36.5372C249.772 37.2005 249.95 38.0337 249.95 39.0367C249.95 40.25 249.634 41.2854 249.004 42.1428C248.373 42.9841 247.45 43.5179 246.237 43.7444L250.605 51.0002H246.067L242.476 44.1327H240.607V51.0002H236.822V33.8194ZM240.607 40.9295H242.84C243.18 40.9295 243.535 40.9214 243.908 40.9052C244.296 40.8729 244.644 40.8001 244.951 40.6868C245.258 40.5574 245.509 40.3633 245.703 40.1044C245.914 39.8456 246.019 39.4816 246.019 39.0124C246.019 38.5756 245.93 38.2278 245.752 37.969C245.574 37.7101 245.347 37.516 245.072 37.3866C244.797 37.241 244.482 37.1439 244.126 37.0954C243.77 37.0468 243.422 37.0226 243.082 37.0226H240.607V40.9295Z" fill="#D7D7D7"/>
<path d="M254.579 33.8194H260.258C261.633 33.8194 262.935 33.973 264.165 34.2804C265.41 34.5878 266.494 35.0893 267.416 35.785C268.339 36.4644 269.067 37.3542 269.6 38.4543C270.15 39.5544 270.425 40.889 270.425 42.4583C270.425 43.8496 270.159 45.0791 269.625 46.1468C269.107 47.1984 268.403 48.0882 267.513 48.8162C266.624 49.528 265.596 50.0699 264.432 50.442C263.267 50.8141 262.045 51.0002 260.767 51.0002H254.579V33.8194ZM258.365 47.5058H260.331C261.204 47.5058 262.013 47.4168 262.757 47.2388C263.518 47.0609 264.173 46.7697 264.723 46.3652C265.273 45.9446 265.702 45.4026 266.009 44.7394C266.332 44.0599 266.494 43.2348 266.494 42.2642C266.494 41.4229 266.332 40.6949 266.009 40.0802C265.702 39.4492 265.281 38.9315 264.747 38.5271C264.213 38.1226 263.582 37.8234 262.854 37.6292C262.142 37.4189 261.39 37.3138 260.597 37.3138H258.365V47.5058Z" fill="#D7D7D7"/>
<path d="M283.508 38.0175C283.201 37.6292 282.78 37.3461 282.246 37.1682C281.729 36.974 281.235 36.877 280.766 36.877C280.491 36.877 280.208 36.9093 279.917 36.974C279.625 37.0387 279.35 37.1439 279.092 37.2895C278.833 37.4189 278.622 37.5969 278.461 37.8234C278.299 38.0498 278.218 38.3249 278.218 38.6484C278.218 39.1661 278.412 39.5625 278.8 39.8375C279.189 40.1125 279.674 40.3471 280.256 40.5412C280.855 40.7354 281.494 40.9295 282.173 41.1236C282.853 41.3178 283.484 41.5928 284.066 41.9487C284.665 42.3046 285.158 42.7818 285.547 43.3804C285.935 43.979 286.129 44.7798 286.129 45.7828C286.129 46.7373 285.951 47.5705 285.595 48.2823C285.239 48.9941 284.754 49.5846 284.139 50.0538C283.541 50.5229 282.837 50.8707 282.028 51.0972C281.235 51.3237 280.394 51.437 279.504 51.437C278.388 51.437 277.352 51.2671 276.398 50.9274C275.444 50.5876 274.554 50.0376 273.729 49.2772L276.422 46.3167C276.811 46.8344 277.296 47.2388 277.878 47.53C278.477 47.805 279.092 47.9426 279.723 47.9426C280.03 47.9426 280.337 47.9102 280.645 47.8455C280.968 47.7646 281.251 47.6514 281.494 47.5058C281.753 47.3602 281.955 47.1741 282.101 46.9476C282.262 46.7211 282.343 46.4542 282.343 46.1468C282.343 45.6291 282.141 45.2247 281.737 44.9335C281.348 44.6261 280.855 44.3673 280.256 44.157C279.658 43.9466 279.011 43.7363 278.315 43.526C277.619 43.3157 276.972 43.0326 276.374 42.6767C275.775 42.3208 275.274 41.8516 274.869 41.2692C274.481 40.6868 274.287 39.9184 274.287 38.9639C274.287 38.0418 274.465 37.2329 274.821 36.5372C275.193 35.8416 275.678 35.2592 276.277 34.79C276.891 34.3209 277.595 33.973 278.388 33.7466C279.181 33.5039 279.998 33.3826 280.839 33.3826C281.81 33.3826 282.748 33.5201 283.654 33.7951C284.56 34.0701 285.377 34.5312 286.105 35.1783L283.508 38.0175Z" fill="#D7D7D7"/>
<path d="M171.189 71.1418L177.862 65.1479C178.202 64.8405 178.542 64.4927 178.882 64.1044C179.221 63.7161 179.391 63.2632 179.391 62.7455C179.391 62.1631 179.181 61.7101 178.76 61.3866C178.34 61.0468 177.846 60.877 177.28 60.877C176.601 60.877 176.067 61.0873 175.678 61.5079C175.306 61.9285 175.096 62.4462 175.047 63.061L171.407 62.794C171.456 61.9042 171.642 61.1358 171.966 60.4887C172.289 59.8254 172.718 59.2753 173.252 58.8386C173.786 58.4018 174.408 58.0782 175.12 57.8679C175.848 57.6414 176.633 57.5282 177.474 57.5282C178.251 57.5282 178.979 57.6414 179.658 57.8679C180.338 58.0782 180.928 58.4018 181.43 58.8386C181.931 59.2592 182.319 59.793 182.594 60.4402C182.886 61.0873 183.031 61.8395 183.031 62.697C183.031 63.247 182.975 63.7485 182.861 64.2015C182.748 64.6383 182.586 65.0427 182.376 65.4148C182.182 65.7707 181.947 66.1024 181.672 66.4098C181.397 66.7171 181.098 67.0164 180.774 67.3076L175.557 71.797H183.177V75.0002H171.189V71.1418Z" fill="#D7D7D7"/>
<path d="M187.184 66.4098C187.184 65.3906 187.273 64.3552 187.451 63.3036C187.645 62.2521 187.977 61.2976 188.446 60.4402C188.931 59.5827 189.586 58.8871 190.411 58.3532C191.236 57.8032 192.288 57.5282 193.566 57.5282C194.844 57.5282 195.896 57.8032 196.721 58.3532C197.546 58.8871 198.193 59.5827 198.662 60.4402C199.147 61.2976 199.479 62.2521 199.657 63.3036C199.851 64.3552 199.948 65.3906 199.948 66.4098C199.948 67.429 199.851 68.4643 199.657 69.5159C199.479 70.5674 199.147 71.5219 198.662 72.3793C198.193 73.2368 197.546 73.9405 196.721 74.4906C195.896 75.0244 194.844 75.2914 193.566 75.2914C192.288 75.2914 191.236 75.0244 190.411 74.4906C189.586 73.9405 188.931 73.2368 188.446 72.3793C187.977 71.5219 187.645 70.5674 187.451 69.5159C187.273 68.4643 187.184 67.429 187.184 66.4098ZM190.824 66.4098C190.824 66.8627 190.84 67.4047 190.872 68.0356C190.921 68.6666 191.034 69.2732 191.212 69.8556C191.39 70.438 191.657 70.9314 192.013 71.3359C192.385 71.7403 192.903 71.9426 193.566 71.9426C194.213 71.9426 194.723 71.7403 195.095 71.3359C195.467 70.9314 195.742 70.438 195.92 69.8556C196.098 69.2732 196.203 68.6666 196.235 68.0356C196.284 67.4047 196.308 66.8627 196.308 66.4098C196.308 65.9568 196.284 65.4148 196.235 64.7839C196.203 64.1529 196.098 63.5463 195.92 62.9639C195.742 62.3815 195.467 61.8881 195.095 61.4836C194.723 61.0792 194.213 60.877 193.566 60.877C192.903 60.877 192.385 61.0792 192.013 61.4836C191.657 61.8881 191.39 62.3815 191.212 62.9639C191.034 63.5463 190.921 64.1529 190.872 64.7839C190.84 65.4148 190.824 65.9568 190.824 66.4098Z" fill="#D7D7D7"/>
<path d="M203.955 71.1418L210.629 65.1479C210.968 64.8405 211.308 64.4927 211.648 64.1044C211.988 63.7161 212.158 63.2632 212.158 62.7455C212.158 62.1631 211.947 61.7101 211.527 61.3866C211.106 61.0468 210.613 60.877 210.046 60.877C209.367 60.877 208.833 61.0873 208.445 61.5079C208.073 61.9285 207.862 62.4462 207.814 63.061L204.174 62.794C204.222 61.9042 204.408 61.1358 204.732 60.4887C205.055 59.8254 205.484 59.2753 206.018 58.8386C206.552 58.4018 207.175 58.0782 207.887 57.8679C208.615 57.6414 209.399 57.5282 210.24 57.5282C211.017 57.5282 211.745 57.6414 212.424 57.8679C213.104 58.0782 213.694 58.4018 214.196 58.8386C214.697 59.2592 215.086 59.793 215.361 60.4402C215.652 61.0873 215.798 61.8395 215.798 62.697C215.798 63.247 215.741 63.7485 215.628 64.2015C215.514 64.6383 215.353 65.0427 215.142 65.4148C214.948 65.7707 214.714 66.1024 214.439 66.4098C214.164 66.7171 213.864 67.0164 213.541 67.3076L208.323 71.797H215.943V75.0002H203.955V71.1418Z" fill="#D7D7D7"/>
<path d="M226.138 61.8962L222.692 64.9295L220.63 62.5514L226.235 57.8194H229.633V75.0002H226.138V61.8962Z" fill="#D7D7D7"/>
</svg>
