<svg width="251" height="103" viewBox="0 0 251 103" fill="none" xmlns="http://www.w3.org/2000/svg">
<path d="M45.6937 51.398C49.1698 51.3689 52.646 51.3506 56.121 51.3075C57.955 51.2849 59.7889 51.2288 61.6229 51.1685C62.0193 51.1545 62.1457 51.2903 62.2506 51.6836C62.5377 52.7537 62.9159 53.8002 63.2522 54.8574C63.5961 55.9351 63.9282 57.0127 64.2742 58.0904C64.797 59.7069 65.3454 61.3235 65.8425 62.9475C65.941 63.2708 65.985 63.6739 65.8853 63.9853C64.8377 67.2615 63.7429 70.5225 62.6877 73.7922C61.9261 76.1415 61.203 78.506 60.4478 80.8596C59.8222 82.7994 59.1623 84.7393 58.5313 86.6791C58.0011 88.315 57.4944 89.9585 56.9759 91.5987C56.8634 91.9576 56.7616 92.3207 56.6299 92.6764C56.5924 92.7755 56.4746 92.8445 56.3942 92.9275C56.3203 92.8369 56.2089 92.7594 56.18 92.6559C55.6047 90.7549 55.0584 88.8441 54.466 86.9442C53.8822 85.0809 53.2459 83.2337 52.6449 81.3758C51.5544 77.9995 50.4789 74.6188 49.3862 71.2456C48.586 68.7756 47.7697 66.311 46.9609 63.8441C46.917 63.7084 46.8806 63.5693 46.8431 63.4303C46.6599 62.7438 46.6128 62.6813 45.9058 62.6899C44.1768 62.7093 42.4478 62.7686 40.7199 62.7837C37.7055 62.8096 34.6911 62.802 31.6766 62.83C29.4506 62.8516 27.2246 62.9022 24.9985 62.9507C22.7004 63.001 20.4026 63.0596 18.1052 63.1264C17.6606 63.1383 17.2182 63.2126 16.7736 63.2256C16.6344 63.2256 16.4919 63.1243 16.3516 63.0693C16.4283 62.9614 16.5171 62.8627 16.6162 62.7751C18.2958 61.571 19.9802 60.3719 21.6692 59.1778C24.0102 57.516 26.3504 55.8531 28.69 54.1892C30.2122 53.1008 31.7173 51.9843 33.2385 50.9001C34.6868 49.8634 36.149 48.8525 37.6048 47.8212C39.0781 46.7823 40.551 45.7431 42.0236 44.7035C42.3161 44.4955 42.345 44.2131 42.2379 43.8909C41.834 42.7432 41.4366 41.5933 41.0317 40.4423C40.24 38.1975 39.4409 35.9538 38.6514 33.7079C37.723 31.0733 36.7989 28.4366 35.879 25.7977C35.0949 23.5476 34.3236 21.293 33.5395 19.0439C32.8657 17.116 32.1769 15.1945 31.5041 13.2676C30.8614 11.442 30.2412 9.61208 29.6059 7.78541C29.5063 7.49875 29.3595 7.22717 29.2728 6.93728C29.2256 6.78101 29.2578 6.59996 29.2545 6.42969C29.4152 6.48357 29.5952 6.50728 29.7312 6.59781C30.073 6.82412 30.3943 7.08168 30.7254 7.32416C32.5964 8.69281 34.4697 10.0615 36.345 11.4301C38.6553 13.1113 40.967 14.79 43.2802 16.4661C44.5068 17.3595 45.7215 18.268 46.9513 19.1603C48.8881 20.5613 50.827 21.9623 52.782 23.3309C53.2373 23.6542 53.4751 24.0444 53.6304 24.5724C53.9722 25.7385 54.3889 26.883 54.7659 28.0382C55.0873 29.0254 55.3873 30.0201 55.7151 31.0062C56.2507 32.6022 56.7991 34.1918 57.3305 35.7889C57.6861 36.858 58.0203 37.9335 58.3653 39.0058C58.452 39.2774 58.3953 39.4681 58.151 39.6524C55.6015 41.5204 53.0577 43.3948 50.5196 45.2757C48.1986 47 45.8826 48.73 43.5716 50.4658C43.3155 50.6566 43.0456 50.8312 42.8013 51.037C42.7189 51.106 42.6942 51.2525 42.646 51.3603C42.7473 51.4119 42.8556 51.4482 42.9674 51.4681C43.8758 51.4767 44.7885 51.4681 45.6937 51.4681V51.398Z" fill="#DDDDDD"/>
<path d="M0 63.2781C0.32137 63.0195 0.634169 62.75 0.964109 62.5054C3.25297 60.8027 5.54505 59.1028 7.84035 57.4058C9.90354 55.8777 11.9721 54.356 14.0321 52.8225C16.1927 51.2135 18.3406 49.5894 20.5045 47.9804C23.1547 46.0137 25.8156 44.0631 28.4691 42.1006C29.8317 41.0948 31.1886 40.0818 32.5397 39.0616C33.1418 38.6089 33.1396 38.4678 32.8879 37.7403C32.378 36.2682 31.9141 34.781 31.4278 33.3014C30.9279 31.7883 30.428 30.2753 29.9281 28.7622C29.1275 26.3317 28.3259 23.9008 27.5232 21.4695C26.8644 19.4801 26.197 17.494 25.5435 15.5035C24.7787 13.1736 24.0331 10.8371 23.2672 8.5072C22.6244 6.53505 21.9517 4.56936 21.2972 2.59829C21.0829 1.93659 20.8794 1.26843 20.6544 0.606734C20.5944 0.427839 20.4873 0.264031 20.4402 0C20.7045 0.166348 20.9601 0.346197 21.2061 0.53884C22.2227 1.41176 23.1922 2.3418 24.2484 3.16191C24.9404 3.70075 25.3004 4.36568 25.5714 5.17071C26.4284 7.71618 27.3443 10.2423 28.2195 12.7824C28.8622 14.6446 29.461 16.5219 30.1048 18.3863C30.7144 20.1461 31.3614 21.892 31.9816 23.6475C32.3394 24.6616 32.6726 25.6843 33.0229 26.6995C33.5081 28.1005 34.0009 29.5069 34.4883 30.9111C34.8397 31.9252 35.1846 32.9425 35.5413 33.9544C35.9098 35.0009 36.2912 36.0419 36.6629 37.0894C36.8932 37.7468 37.1 38.4139 37.326 39.0734C37.6967 40.1511 38.0759 41.2288 38.4465 42.3065C38.5102 42.4924 38.5638 42.6816 38.6072 42.8733C38.664 43.1255 38.5815 43.2947 38.3533 43.4563C36.2758 44.9364 34.2048 46.4257 32.1402 47.9244C29.9441 49.5122 27.7506 51.1039 25.5596 52.6996C23.4457 54.2378 21.3275 55.7789 19.205 57.3228C16.9733 58.9523 14.7412 60.5839 12.5088 62.2177C12.121 62.5011 11.745 62.8072 11.3304 63.0529C11.1135 63.1703 10.8707 63.2307 10.6245 63.2285C8.0396 63.2512 5.45471 63.2447 2.86983 63.2749C1.94857 63.2857 1.02945 63.374 0.109266 63.4268L0 63.2781Z" fill="#DDDDDD"/>
<path d="M107 63.5922C106.794 63.6256 106.586 63.6482 106.377 63.6601C103.685 63.6601 100.993 63.6688 98.3015 63.6472C92.3861 63.6009 86.4697 63.5265 80.5533 63.4899C77.4874 63.4716 74.4216 63.5114 71.3557 63.5254C70.713 63.5254 70.684 63.5039 70.8768 62.9004C71.3343 61.4671 71.8152 60.0424 72.2694 58.608C72.9372 56.5101 73.5956 54.409 74.2448 52.3046C74.4494 51.6408 74.5437 51.533 75.2593 51.533C79.8591 51.5287 84.4586 51.5323 89.0578 51.5438C89.3392 51.5575 89.6111 51.6501 89.843 51.8111C92.1462 53.3708 94.4418 54.9414 96.73 56.5227C98.2586 57.5745 99.7755 58.6414 101.306 59.6889C102.615 60.5866 103.933 61.4703 105.253 62.3518C105.769 62.6978 106.302 63.0189 106.824 63.3562C106.878 63.3896 106.905 63.4608 107 63.5922Z" fill="#DDDDDD"/>
<path d="M80.2842 4.84228C79.8975 5.95337 79.5151 7.06553 79.1219 8.17446C78.5599 9.75937 77.9932 11.3436 77.4219 12.927C76.8081 14.6265 76.1771 16.3206 75.5729 18.0234C74.9302 19.8447 74.3068 21.6767 73.6651 23.5001C73.0288 25.3063 72.3528 27.0985 71.7486 28.9176C71.5001 29.6655 71.1563 30.2615 70.4525 30.6656C69.9008 30.9835 69.4016 31.3995 68.9013 31.8004C68.5232 32.1033 68.2297 32.0936 67.8301 31.7875C66.4643 30.7497 65.0674 29.7561 63.6801 28.7506C61.9055 27.4624 60.1283 26.1771 58.3486 24.8947C57.4916 24.2793 56.6346 23.6726 55.7777 23.0626C55.6909 23.0012 55.617 22.9214 55.5323 22.8557C55.256 22.6402 55.2356 22.4774 55.5634 22.2522C56.7418 21.4439 57.8944 20.6077 59.0567 19.7811C62.1261 17.5977 65.1934 15.4143 68.2586 13.2309C70.5082 11.6252 72.746 10.0054 74.9913 8.39539C76.6003 7.24155 78.211 6.09203 79.8236 4.94681C79.9375 4.8749 80.056 4.81047 80.1782 4.75391L80.2842 4.84228Z" fill="#DDDDDD"/>
<path d="M43.0046 65.2071C43.3785 65.2071 43.7545 65.233 44.1251 65.1996C44.4958 65.1662 44.6254 65.3268 44.7261 65.649C45.703 68.7958 46.6882 71.9398 47.6816 75.0808C48.7635 78.4949 49.8648 81.9036 50.9489 85.3188C51.5498 87.2134 52.1272 89.1165 52.725 91.0111C53.0463 92.0187 53.3988 93.0145 53.7244 94.0189C54.0897 95.144 54.4593 96.2669 54.7839 97.4028C54.8657 97.7125 54.8627 98.0387 54.7753 98.3469C54.4464 99.4612 54.0661 100.559 53.7126 101.666C53.6473 101.87 53.628 102.087 53.5648 102.292C53.5423 102.364 53.4577 102.458 53.3945 102.464C53.3313 102.469 53.2359 102.385 53.2081 102.317C53.0785 102.002 52.9563 101.684 52.8524 101.36C51.9997 98.7018 51.1488 96.0435 50.2997 93.3852C49.7298 91.6135 49.1428 89.8461 48.5707 88.0755C47.7295 85.4711 46.8917 82.8649 46.0576 80.2569C45.2799 77.8182 44.5258 75.3718 43.7395 72.9352C42.9757 70.5643 42.1883 68.2096 41.4042 65.8494C41.2414 65.358 41.3196 65.2416 41.8327 65.2567C42.2237 65.2686 42.6168 65.2567 43.011 65.2567L43.0046 65.2071Z" fill="#DDDDDD"/>
<path d="M63.6688 43.0797L67.4226 39.7081C67.6137 39.5352 67.8048 39.3396 67.9959 39.1212C68.187 38.9028 68.2825 38.648 68.2825 38.3568C68.2825 38.0292 68.1643 37.7744 67.9277 37.5924C67.6911 37.4013 67.4135 37.3057 67.095 37.3057C66.7128 37.3057 66.4125 37.424 66.1941 37.6606C65.9848 37.8972 65.8665 38.1884 65.8392 38.5342L63.7917 38.3841C63.819 37.8836 63.9237 37.4513 64.1057 37.0873C64.2877 36.7142 64.5288 36.4048 64.8291 36.1591C65.1294 35.9134 65.4797 35.7314 65.8801 35.6131C66.2896 35.4857 66.731 35.422 67.2042 35.422C67.641 35.422 68.0505 35.4857 68.4327 35.6131C68.8149 35.7314 69.147 35.9134 69.4291 36.1591C69.7112 36.3957 69.9297 36.696 70.0844 37.06C70.2482 37.424 70.33 37.8472 70.33 38.3295C70.33 38.6389 70.2982 38.921 70.2345 39.1758C70.1708 39.4215 70.0798 39.649 69.9615 39.8583C69.8523 40.0585 69.7204 40.245 69.5657 40.4179C69.411 40.5908 69.2426 40.7592 69.0606 40.923L66.1258 43.4482H70.4119V45.25H63.6688V43.0797Z" fill="#D7D7D7"/>
<path d="M72.666 40.4179C72.666 39.8446 72.716 39.2622 72.8161 38.6707C72.9253 38.0792 73.1119 37.5423 73.3758 37.06C73.6488 36.5777 74.0173 36.1864 74.4814 35.8861C74.9455 35.5767 75.537 35.422 76.2559 35.422C76.9748 35.422 77.5663 35.5767 78.0304 35.8861C78.4945 36.1864 78.8585 36.5777 79.1224 37.06C79.3954 37.5423 79.582 38.0792 79.6821 38.6707C79.7913 39.2622 79.8459 39.8446 79.8459 40.4179C79.8459 40.9912 79.7913 41.5736 79.6821 42.1651C79.582 42.7566 79.3954 43.2935 79.1224 43.7758C78.8585 44.2581 78.4945 44.654 78.0304 44.9634C77.5663 45.2637 76.9748 45.4138 76.2559 45.4138C75.537 45.4138 74.9455 45.2637 74.4814 44.9634C74.0173 44.654 73.6488 44.2581 73.3758 43.7758C73.1119 43.2935 72.9253 42.7566 72.8161 42.1651C72.716 41.5736 72.666 40.9912 72.666 40.4179ZM74.7135 40.4179C74.7135 40.6727 74.7226 40.9776 74.7408 41.3325C74.7681 41.6874 74.8318 42.0286 74.9319 42.3562C75.032 42.6838 75.1821 42.9614 75.3823 43.1889C75.5916 43.4164 75.8828 43.5301 76.2559 43.5301C76.6199 43.5301 76.9066 43.4164 77.1159 43.1889C77.3252 42.9614 77.4799 42.6838 77.58 42.3562C77.6801 42.0286 77.7392 41.6874 77.7574 41.3325C77.7847 40.9776 77.7984 40.6727 77.7984 40.4179C77.7984 40.1631 77.7847 39.8583 77.7574 39.5034C77.7392 39.1485 77.6801 38.8072 77.58 38.4796C77.4799 38.152 77.3252 37.8745 77.1159 37.6469C76.9066 37.4194 76.6199 37.3057 76.2559 37.3057C75.8828 37.3057 75.5916 37.4194 75.3823 37.6469C75.1821 37.8745 75.032 38.152 74.9319 38.4796C74.8318 38.8072 74.7681 39.1485 74.7408 39.5034C74.7226 39.8583 74.7135 40.1631 74.7135 40.4179Z" fill="#D7D7D7"/>
<path d="M82.0999 43.0797L85.8537 39.7081C86.0448 39.5352 86.2358 39.3396 86.4269 39.1212C86.618 38.9028 86.7136 38.648 86.7136 38.3568C86.7136 38.0292 86.5953 37.7744 86.3587 37.5924C86.1221 37.4013 85.8446 37.3057 85.5261 37.3057C85.1439 37.3057 84.8436 37.424 84.6252 37.6606C84.4159 37.8972 84.2975 38.1884 84.2702 38.5342L82.2228 38.3841C82.2501 37.8836 82.3547 37.4513 82.5367 37.0873C82.7187 36.7142 82.9599 36.4048 83.2602 36.1591C83.5605 35.9134 83.9108 35.7314 84.3112 35.6131C84.7207 35.4857 85.1621 35.422 85.6353 35.422C86.0721 35.422 86.4816 35.4857 86.8638 35.6131C87.246 35.7314 87.5781 35.9134 87.8602 36.1591C88.1423 36.3957 88.3607 36.696 88.5154 37.06C88.6792 37.424 88.7611 37.8472 88.7611 38.3295C88.7611 38.6389 88.7292 38.921 88.6656 39.1758C88.6018 39.4215 88.5109 39.649 88.3926 39.8583C88.2834 40.0585 88.1514 40.245 87.9967 40.4179C87.842 40.5908 87.6737 40.7592 87.4917 40.923L84.5569 43.4482H88.843V45.25H82.0999V43.0797Z" fill="#D7D7D7"/>
<path d="M94.5778 37.879L92.6395 39.5853L91.4792 38.2476L94.6324 35.5858H96.5434V45.25H94.5778V37.879Z" fill="#D7D7D7"/>
<path d="M202.241 76.9445C201.86 77.508 201.509 78.0908 201.188 78.6906C200.326 80.4947 199.499 82.3145 198.681 84.1364C198.342 84.8889 197.753 84.9559 196.998 85.1077C195.176 85.4695 194.618 84.4044 194.022 83.0625C193.078 80.9417 192.014 78.876 190.836 76.8753C190.774 77.0875 190.733 77.3051 190.713 77.525C190.713 81.3901 190.713 85.2551 190.753 89.1201C190.753 89.8927 190.495 90.2142 189.729 90.1919C188.873 90.1673 188.012 90.1517 187.156 90.1919C186.3 90.2321 186.036 89.8302 186.036 88.9772C186.072 82.0264 186.063 75.0734 186.081 68.1226C186.081 67.2295 185.845 66.0617 186.305 65.5571C186.735 65.0882 187.952 65.3338 188.824 65.278C189.272 65.2512 189.749 65.1686 190.168 65.2936C190.54 65.4052 190.993 65.691 191.145 66.0215C192.617 69.2234 194.036 72.4476 195.459 75.6718C195.683 76.1786 195.808 76.7346 196.061 77.2348C196.218 77.4777 196.456 77.6574 196.734 77.7416C196.814 77.7684 197.079 77.4112 197.182 77.1923C198.731 73.7761 200.271 70.3569 201.802 66.9347C201.904 66.7353 201.979 66.5237 202.026 66.3051C202.163 65.4566 202.726 65.2489 203.483 65.2623C204.24 65.2757 205.051 65.278 205.831 65.2623C207.057 65.24 207.109 65.2802 207.109 66.4703C207.109 70.3376 207.088 74.2026 207.093 78.0698C207.093 81.6424 207.117 85.2149 207.133 88.7874C207.133 90.1539 207.1 90.2008 205.679 90.2053C204.933 90.2053 204.187 90.1874 203.438 90.2053C202.752 90.2164 202.423 89.9641 202.43 89.2228C202.452 85.7284 202.43 82.2341 202.443 78.7285C202.443 78.1882 202.546 77.6456 202.6 77.103L202.241 76.9445Z" fill="#D7D7D7"/>
<path d="M224.782 75.3679C224.079 76.6562 223.389 77.9468 222.674 79.2262C221.316 81.6578 219.94 84.0759 218.582 86.5052C218.058 87.443 217.607 88.4255 217.036 89.332C216.812 89.6848 216.364 90.0778 215.992 90.1224C215.035 90.2363 214.058 90.1649 213.079 90.1649C212.458 90.1649 212.259 89.8389 212.261 89.2405C212.279 81.6488 212.274 74.0795 212.29 66.4991C212.29 65.2643 212.4 65.2085 213.672 65.2532C214.307 65.2755 214.941 65.2532 215.573 65.2532C216.895 65.2331 216.901 65.2286 216.906 66.5102C216.921 69.7434 216.931 72.9765 216.937 76.2097C216.912 77.5386 216.975 78.8678 217.126 80.1886C217.41 79.8871 217.769 79.6281 217.966 79.2798C219.617 76.3347 221.24 73.3762 222.869 70.4177C223.653 68.9909 224.469 67.5775 225.188 66.1173C225.482 65.5233 225.86 65.271 226.479 65.2621C227.299 65.2621 228.121 65.2822 228.944 65.2375C229.697 65.1951 229.923 65.5457 229.916 66.2334C229.898 67.7584 229.916 69.2812 229.916 70.804C229.916 76.8624 229.912 82.9201 229.903 88.977C229.903 90.1269 229.869 90.1626 228.713 90.176C227.929 90.1872 227.144 90.1247 226.364 90.176C225.468 90.243 225.21 89.8478 225.215 89.0038C225.235 84.8797 225.215 80.7535 225.199 76.6294C225.175 76.2043 225.126 75.7808 225.054 75.3612L224.782 75.3679Z" fill="#D7D7D7"/>
<path d="M250.963 77.6605C250.963 81.4146 250.963 85.1672 250.963 88.9184C250.963 90.1107 250.927 90.1532 249.701 90.1732C248.955 90.1866 248.209 90.1554 247.461 90.1732C246.627 90.1933 246.26 89.8808 246.284 88.9854C246.343 86.6454 246.284 84.2964 246.347 81.9631C246.365 81.1705 246.123 80.7619 245.298 80.7775C244.85 80.7775 244.402 80.7529 243.954 80.7507C242.943 80.7507 242.491 81.2777 242.161 82.2266C241.489 84.1848 240.66 86.0894 239.891 88.0141C239.781 88.2888 239.631 88.55 239.537 88.8291C239.089 90.1688 239.089 90.1688 237.666 90.1688C236.622 90.18 235.578 90.1822 234.529 90.1554C233.633 90.1331 233.5 89.9701 233.868 89.1618C234.975 86.7325 236.109 84.3188 237.247 81.8962C237.417 81.5277 237.599 81.1616 237.74 80.7797C238 80.0809 237.924 79.6097 237.166 79.1319C235.8 78.27 234.986 76.8991 234.623 75.3361C234.027 72.7706 234.271 70.3078 235.786 68.0749C237.052 66.2105 238.905 65.3174 241.099 65.2549C244.043 65.17 246.99 65.2549 249.935 65.2035C250.869 65.1879 250.941 65.6657 250.936 66.3847C250.918 70.1381 250.936 73.8914 250.936 77.6448L250.963 77.6605ZM246.322 73.0608C246.322 72.2816 246.264 71.4979 246.338 70.7275C246.425 69.7942 245.98 69.562 245.159 69.5977C244.232 69.6379 243.3 69.6201 242.37 69.629C240.299 69.6491 238.964 70.857 238.908 72.755C238.863 73.6773 239.187 74.5797 239.808 75.2647C240.43 75.9497 241.298 76.3616 242.224 76.4101C243.302 76.4681 244.384 76.4257 245.462 76.4614C246.154 76.4838 246.378 76.1466 246.358 75.508C246.331 74.6931 246.347 73.8781 246.347 73.0608H246.322Z" fill="#D7D7D7"/>
<path d="M141.07 77.7113C141.07 81.4327 141.07 85.1496 141.07 88.862C141.07 90.1236 141.025 90.166 139.743 90.1683C138.997 90.1683 138.249 90.1303 137.503 90.1683C136.682 90.2174 136.382 89.9003 136.396 89.0719C136.432 85.6512 136.411 82.2305 136.414 78.8009C136.414 76.1617 136.414 73.5225 136.414 70.8833C136.414 69.6374 136.378 69.6128 135.183 69.6151C133.505 69.6151 131.822 69.6017 130.148 69.6151C128.698 69.6151 128.696 69.615 128.696 71.1244C128.696 76.9968 128.696 82.8699 128.696 88.7437C128.696 90.1593 128.696 90.1615 127.273 90.1571C126.565 90.1571 125.853 90.1013 125.149 90.1571C124.253 90.2241 123.999 89.8244 124.004 88.9804C124.029 82.8468 124.017 76.7132 124.022 70.5796C124.022 69.1305 124.047 67.677 124.022 66.2323C124.022 65.462 124.315 65.2275 125.097 65.2342C130.027 65.2655 134.944 65.2476 139.867 65.2342C141.001 65.2342 141.041 65.2454 141.045 66.4333C141.045 70.1889 141.045 73.9423 141.045 77.6979L141.07 77.7113Z" fill="#D7D7D7"/>
<path d="M166.628 77.8003C166.628 74.0789 166.628 70.3613 166.628 66.6473C166.628 65.2764 166.713 65.2473 168.103 65.254C172.206 65.2763 176.308 65.254 180.414 65.254C181.758 65.254 181.787 65.254 181.783 66.6161C181.783 67.1743 181.783 67.7317 181.783 68.2884C181.783 69.5969 181.738 69.6438 180.371 69.646C177.76 69.646 175.148 69.646 172.528 69.646C171.334 69.646 171.242 69.7219 171.224 70.8986C171.208 71.9771 171.267 73.0555 171.24 74.134C171.22 75.0048 171.616 75.3151 172.461 75.304C174.549 75.275 176.638 75.304 178.735 75.2928C180.194 75.2928 180.192 75.2928 180.194 76.7978C180.194 77.3917 180.194 77.9878 180.207 78.584C180.207 79.8791 180.16 79.9461 178.807 79.9483C176.716 79.9483 174.628 79.9483 172.533 79.9349C171.345 79.9349 171.235 80.0354 171.231 81.1875C171.231 82.3039 171.231 83.4203 171.258 84.5368C171.285 85.6532 171.41 85.8117 172.569 85.8095C175.217 85.8095 177.866 85.7827 180.514 85.7782C181.769 85.7782 181.778 85.7983 181.787 87.0018C181.787 87.7096 181.765 88.4174 181.825 89.1207C181.89 89.8933 181.586 90.2148 180.815 90.1992C179.694 90.1769 178.574 90.1992 177.454 90.1992C174.316 90.1992 171.179 90.1992 168.042 90.1769C166.612 90.1769 166.595 90.1121 166.601 88.7478C166.615 85.1039 166.601 81.4599 166.601 77.807L166.628 77.8003Z" fill="#D7D7D7"/>
<path d="M146.268 77.63C146.268 73.9518 146.268 70.2728 146.268 66.5931C146.268 65.2534 146.311 65.2534 147.669 65.2534C150.358 65.2713 153.047 65.2534 155.722 65.2668C159.276 65.2668 161.891 67.5153 162.669 70.9963C163.19 73.1733 162.842 75.4669 161.699 77.3933C160.538 79.4341 158.734 80.4947 156.435 80.6644C154.984 80.7485 153.53 80.759 152.079 80.6957C151.216 80.6711 150.86 80.9793 150.875 81.8523C150.916 84.266 150.875 86.6841 150.938 89.0978C150.961 89.9374 150.689 90.2388 149.858 90.1852C149.037 90.1348 148.214 90.1348 147.393 90.1852C146.497 90.2343 146.241 89.8592 146.248 88.9996C146.284 85.2038 146.264 81.4191 146.264 77.6278L146.268 77.63ZM150.911 73.046H150.931C150.931 73.9012 150.931 74.7564 150.931 75.6115C150.931 76.143 151.129 76.4578 151.716 76.4489C152.798 76.431 153.903 76.5717 154.954 76.3953C157.02 76.0447 158.315 75.1873 158.151 72.6597C158.021 70.7574 156.879 69.7057 154.718 69.6633C153.748 69.6432 152.78 69.6633 151.805 69.632C151.2 69.6164 150.909 69.8709 150.909 70.4827C150.916 71.3379 150.911 72.1931 150.911 73.046Z" fill="#D7D7D7"/>
<path d="M195.79 52.048C196.054 51.7421 196.384 51.4741 196.577 51.1303C197.719 49.0917 198.817 47.0308 199.96 44.99C200.339 44.3201 201.995 43.9539 202.546 44.4407C202.737 44.6583 202.839 44.9398 202.831 45.2289C202.842 49.3507 202.831 53.4725 202.831 57.5943C202.831 58.1905 202.595 58.5053 201.97 58.4874C201.71 58.4696 201.449 58.4696 201.188 58.4874C200.395 58.5611 200.142 58.1815 200.155 57.4313C200.187 55.645 200.171 53.8588 200.173 52.0837C200.19 51.8987 200.19 51.7126 200.173 51.5277C200.106 51.1838 200.001 50.8467 199.913 50.5051C199.661 50.774 199.431 51.063 199.225 51.3692C198.056 53.4345 196.926 55.52 195.741 57.5764C195.331 58.2887 194.152 58.7085 193.401 58.4361C193.262 58.3735 193.139 58.279 193.044 58.1603C192.948 58.0416 192.881 57.9019 192.85 57.7528C192.817 53.5105 192.828 49.2859 192.823 45.0503C192.823 44.5367 193.088 44.3469 193.572 44.2866C195.163 44.0879 195.445 44.3313 195.443 45.968C195.443 47.9329 195.443 49.897 195.443 51.8604L195.79 52.048Z" fill="#D7D7D7"/>
<path d="M170.216 52.3399C170.588 51.7258 170.98 51.123 171.336 50.4933C172.347 48.6758 173.335 46.8471 174.339 45.0251C174.69 44.3843 175.683 44.132 176.627 44.3553C177.491 44.5584 177.285 45.2082 177.285 45.7798C177.285 49.5756 177.285 53.3714 177.243 57.1516C177.243 57.5624 177.099 58.2836 176.918 58.3194C176.267 58.4258 175.601 58.4023 174.959 58.2501C174.809 58.2189 174.706 57.6049 174.711 57.261C174.731 55.1443 174.791 53.0186 174.829 50.9086C174.811 50.6965 174.776 50.486 174.726 50.279C173.51 51.1297 173.124 52.4068 172.486 53.492C171.773 54.7111 171.215 56.0196 170.469 57.2119C170.122 57.7668 169.603 58.1934 168.99 58.4266C167.704 58.8285 167.3 58.4444 167.3 57.1114C167.3 53.2442 167.316 49.3769 167.289 45.5007C167.289 44.6991 167.424 44.2369 168.38 44.2816C169.741 44.3441 169.949 44.4446 169.949 45.5543C169.949 47.412 169.915 49.2719 169.897 51.1364C169.897 51.4958 169.897 51.8553 169.897 52.2171L170.216 52.3399Z" fill="#D7D7D7"/>
<path d="M250.965 51.377C250.965 53.3865 250.965 55.3961 250.965 57.3922C250.965 58.4528 250.873 58.4707 249.553 58.5086C248.748 58.531 248.258 58.3613 248.305 57.419C248.359 56.3807 248.332 55.3402 248.332 54.293C248.332 53.7996 248.332 53.2548 247.68 53.19C247.028 53.1253 246.277 53.0739 245.961 53.8599C245.562 54.8187 245.213 55.7972 244.914 56.7916C244.831 57.1144 244.681 57.4164 244.475 57.6786C244.268 57.9408 244.01 58.1574 243.715 58.3148C243.42 58.4722 243.095 58.5669 242.762 58.593C242.428 58.6191 242.093 58.5759 241.777 58.4662C241.139 58.2429 241.302 57.7383 241.461 57.3498C241.881 56.2931 242.365 55.2626 242.909 54.264C243.557 53.1163 243.642 52.7971 242.685 51.8704C240.713 49.9614 241.291 46.0427 243.276 44.8884C243.615 44.6896 244.002 44.4619 244.374 44.4418C246.308 44.3659 248.244 44.357 250.18 44.3145C250.938 44.2989 250.987 44.779 250.974 45.355C250.951 46.3576 250.956 47.3646 250.953 48.3627C250.951 49.3607 250.965 50.3744 250.965 51.377ZM248.5 48.6819C248.325 46.5541 247.68 46.1164 245.667 46.8354C245.457 46.9113 245.255 47.0118 245.051 47.0989C244.379 47.3802 244.155 47.9116 244.11 48.6038C244.07 49.3808 244.466 50.0261 245.089 50.2003C246.002 50.465 246.962 50.5283 247.901 50.3856C248.191 50.3387 248.305 49.2826 248.5 48.6819Z" fill="#D7D7D7"/>
<path d="M217.626 51.2747C217.626 49.3411 217.648 47.4075 217.626 45.4694C217.612 44.6633 217.791 44.2145 218.746 44.2592C220.113 44.3195 220.288 44.4088 220.292 45.5408C220.292 46.7287 220.312 47.9188 220.292 49.1133C220.292 49.7586 220.545 50.0779 221.218 50.0668C221.964 50.0534 222.71 50.0668 223.459 50.0936C224.247 50.1248 224.628 49.8055 224.61 48.9771C224.588 47.825 224.628 46.6729 224.626 45.5207C224.624 44.3686 224.68 44.2927 225.78 44.2659C227.288 44.2301 227.349 44.2502 227.373 45.7842C227.427 49.6135 227.449 53.4428 227.463 57.2721C227.463 58.4198 227.324 58.4979 225.764 58.4644C224.673 58.4399 224.57 58.3372 224.581 57.2141C224.592 56.0909 224.581 54.9075 224.642 53.7576C224.682 52.9203 224.377 52.5519 223.506 52.5005C220.283 52.3152 220.286 52.2951 220.29 55.5037C220.29 56.1735 220.272 56.8434 220.306 57.5132C220.353 58.4577 219.737 58.4957 219.053 58.4778C218.37 58.46 217.659 58.5738 217.673 57.5199C217.7 55.4367 217.673 53.3535 217.673 51.268L217.626 51.2747Z" fill="#D7D7D7"/>
<path d="M142.979 51.3638C142.979 52.3663 143.055 53.3733 142.961 54.367C142.773 56.3765 141.706 57.8144 139.745 58.3213C137.825 58.8192 135.936 58.6451 134.54 56.9816C134.131 56.4553 133.844 55.8452 133.7 55.1953C133.052 52.5651 132.942 49.9169 133.7 47.2822C134.475 44.5872 137.061 43.7588 139.351 44.1964C141.724 44.643 143.01 47.0544 143.039 48.796C143.053 49.6512 143.039 50.5042 143.039 51.3593L142.979 51.3638ZM135.916 50.9574C136.023 52.2971 136.039 53.2639 136.194 54.2107C136.359 55.2311 137.341 55.9456 138.367 55.9232C139.299 55.9031 140.063 55.2422 140.173 54.1749C140.317 52.7772 140.382 51.3683 140.397 49.9638C140.402 49.3337 140.3 48.7072 140.097 48.1106C139.982 47.7126 139.743 47.3614 139.414 47.1077C139.085 46.8541 138.684 46.7111 138.269 46.6994C137.395 46.6682 136.61 47.012 136.402 47.9587C136.162 49.0684 136.037 50.196 135.916 50.9641V50.9574Z" fill="#D7D7D7"/>
<path d="M189.788 51.4823C189.788 53.4174 189.788 55.3473 189.788 57.272C189.788 58.337 189.656 58.4599 188.547 58.4621C187.368 58.4621 187.227 58.3415 187.225 57.2363C187.225 56.0484 187.193 54.8583 187.261 53.6637C187.312 52.7706 186.933 52.4625 186.086 52.5049C185.38 52.5507 184.671 52.5507 183.964 52.5049C183.032 52.4312 182.799 52.9202 182.819 53.7151C182.848 54.7913 182.862 55.8675 182.862 56.9438C182.862 58.3304 182.134 58.8685 180.794 58.4085C180.646 58.3267 180.519 58.2109 180.425 58.0707C180.33 57.9306 180.271 57.7701 180.251 57.6025C180.22 53.4427 180.236 49.2829 180.233 45.1232C180.233 44.23 180.847 44.23 181.468 44.268C182.089 44.3059 182.813 44.1251 182.792 45.141C182.772 46.4026 182.81 47.6664 182.779 48.9368C182.759 49.7384 183.093 50.1046 183.899 50.0845C184.706 50.0644 185.468 50.0666 186.246 50.0845C186.974 50.1091 187.249 49.7496 187.24 49.0663C187.223 47.8427 187.218 46.6102 187.218 45.3911C187.218 44.393 187.364 44.2747 188.41 44.2747C189.631 44.297 189.806 44.4533 189.804 45.4648C189.804 47.4743 189.804 49.4705 189.804 51.4733L189.788 51.4823Z" fill="#D7D7D7"/>
<path d="M239.037 58.4916C237.988 58.7149 237.403 58.0182 237.105 56.9867C236.919 56.3414 236.531 56.0824 235.884 56.0935C234.988 56.1047 234.091 56.1114 233.195 56.0801C232.608 56.0601 232.343 56.3191 232.173 56.8661C231.747 58.2192 231.478 58.4068 230.138 58.4938C229.07 58.5631 228.895 58.4001 229.164 57.3908C229.468 56.2409 229.836 55.1066 230.206 53.979C231.18 51.0585 232.222 48.1558 233.146 45.2219C233.41 44.3913 233.896 44.2484 234.642 44.2484C235.389 44.2484 235.83 44.4583 236.095 45.2755C237.394 49.2946 238.759 53.2936 240.146 57.2859C240.581 58.5251 240.583 58.5831 239.037 58.4916ZM234.748 53.3918C235.106 53.2646 236.092 53.8071 235.893 52.6572C235.738 51.7239 235.36 50.8241 235.044 49.922C234.983 49.7456 234.757 49.6273 234.595 49.4754C234.433 49.6446 234.295 49.8364 234.188 50.0448C233.988 50.6298 233.916 51.2662 233.654 51.8177C233.072 53.0748 233.206 53.3427 234.748 53.3918Z" fill="#D7D7D7"/>
<path d="M159.67 30.8599C160.307 29.7993 160.957 28.7454 161.582 27.6804C162.142 26.7225 162.702 25.7646 163.218 24.7777C163.666 23.9113 164.412 23.9046 165.223 23.9538C165.721 23.985 165.963 24.177 165.958 24.7062C165.93 28.3472 165.91 31.9875 165.898 35.627C165.898 36.471 165.286 36.4107 164.721 36.4353C164.076 36.4643 163.48 36.4107 163.473 35.5622C163.462 34.0395 163.473 32.5167 163.473 30.9939C163.473 30.4982 163.395 30.0025 163.354 29.509L163.041 29.4398C162.61 30.2168 162.167 30.9894 161.752 31.7731C161.062 33.0816 160.408 34.4034 159.702 35.7051C159.359 36.346 157.891 36.7278 157.324 36.2924C157.214 36.1791 157.127 36.0453 157.069 35.8986C157.01 35.7518 156.981 35.5951 156.984 35.4372C156.97 31.9093 157.004 28.3792 156.984 24.8514C156.984 23.9806 157.474 23.8778 158.144 23.9448C158.745 24.0051 159.476 23.8332 159.422 24.8692C159.323 26.718 159.285 28.5713 159.231 30.4245C159.248 30.5263 159.282 30.6245 159.332 30.7148L159.67 30.8599Z" fill="#D7D7D7"/>
<path d="M145.569 30.1925C145.569 28.5201 145.569 26.8432 145.569 25.1731C145.569 23.9763 145.62 23.9272 146.716 23.9406C147.953 23.9562 148.004 24.0165 147.998 25.1597C147.982 27.723 147.962 30.2952 147.98 32.854C147.98 34.1513 148.121 34.2473 149.409 34.2384C151.829 34.2161 151.65 34.5979 151.668 31.943C151.679 29.6387 151.693 27.3322 151.648 25.0212C151.63 24.2107 151.854 23.8602 152.717 23.9048C153.848 23.9785 154.016 24.0857 154.012 25.0614C154.012 27.6627 153.999 30.2639 153.978 32.8763C153.978 33.5462 153.978 34.129 154.875 34.2786C155.099 34.3165 155.372 34.8144 155.386 35.1114C155.437 36.2278 155.386 37.3442 155.386 38.4607C155.386 39.001 155.123 39.3158 154.57 39.2846C154.016 39.2533 153.322 39.4811 153.048 38.6973C153.008 38.5518 152.984 38.4018 152.979 38.2508C152.829 36.4288 152.831 36.4332 151.018 36.4288C149.565 36.4288 148.11 36.4191 146.653 36.3998C145.533 36.3998 145.416 36.2435 145.432 35.0869C145.454 33.4524 145.432 31.818 145.432 30.1746L145.569 30.1925Z" fill="#D7D7D7"/>
<path d="M250.992 30.2458C250.992 31.9562 250.992 33.6665 250.992 35.3813C250.992 36.366 250.884 36.4442 249.648 36.4486C248.583 36.4486 248.404 36.3035 248.411 35.3612C248.411 34.4681 248.485 33.575 248.426 32.6818C248.408 32.3849 248.086 31.8691 247.904 31.8713C247.525 31.8713 246.972 32.0522 246.806 32.338C246.347 33.1744 245.963 34.0493 245.657 34.9526C245.188 36.27 243.851 36.9264 242.587 36.3347C242.432 36.2611 242.313 35.7743 242.401 35.58C242.916 34.4458 243.494 33.3472 244.061 32.2308C244.308 31.7463 244.285 31.4158 243.837 30.9782C241.888 29.0624 242.031 25.6775 244.574 24.2551C244.905 24.0864 245.271 23.997 245.643 23.9939C247.098 23.9515 248.556 23.9738 250.006 23.9291C250.806 23.9068 251.019 24.2596 250.999 25.0121C250.954 26.7559 250.985 28.5042 250.985 30.2503L250.992 30.2458ZM248.471 27.8478C248.453 26.0816 248.431 26.0615 246.972 26.0615C245.894 26.0615 244.955 26.8787 244.955 27.8053C244.955 28.8883 245.827 29.4978 247.364 29.4911C248.404 29.4933 248.498 29.3705 248.471 27.8478Z" fill="#D7D7D7"/>
<path d="M230.124 30.1768C230.124 31.8872 230.075 33.5997 230.142 35.3123C230.18 36.2724 229.737 36.4444 228.928 36.4131C227.807 36.3684 227.65 36.2479 227.655 35.2297C227.659 34.2115 227.655 33.2202 227.673 32.2176C227.673 31.5768 227.402 31.2553 226.727 31.2843C223.814 31.4138 224.155 30.7328 224.114 33.7627C224.114 34.0977 224.114 34.4326 224.114 34.7653C224.132 36.3283 223.545 36.7994 222.006 36.3416C221.841 36.2581 221.699 36.1357 221.592 35.9852C221.485 35.8346 221.416 35.6604 221.392 35.4775C221.374 31.905 221.419 28.3325 221.439 24.76C221.439 24.2129 221.663 23.9204 222.243 23.9584C222.467 23.974 222.692 23.9584 222.916 23.9695C224.11 24.0008 224.096 24.0008 224.085 25.1574C224.085 26.1242 224.112 27.091 224.11 28.0601C224.11 28.7947 224.614 29.0314 225.143 28.8393C225.968 28.5401 227.341 29.7146 227.608 28.0556C227.78 27.0017 227.718 25.9032 227.682 24.827C227.657 24.0187 228.099 23.8691 228.735 23.9338C229.333 24.0008 230.169 23.6748 230.149 24.8136C230.115 26.5998 230.149 28.3861 230.149 30.1723L230.124 30.1768Z" fill="#D7D7D7"/>
<path d="M214.697 51.359C214.697 53.2167 214.697 55.0774 214.697 56.941C214.697 58.4259 214.652 58.475 213.352 58.4705C212.133 58.4705 212.068 58.3857 212.077 56.9767C212.077 56.1216 212.035 55.2619 212.095 54.4112C212.156 53.5605 211.753 53.3663 211.027 53.431C210.3 53.4958 209.541 53.5494 208.797 53.5985C207.132 53.7124 205.416 52.29 205.393 50.4725C205.371 48.655 205.382 46.9 205.366 45.1137C205.366 44.5533 205.628 44.2943 206.175 44.2853C206.473 44.2853 206.773 44.2965 207.071 44.2675C207.892 44.1849 208.217 44.5533 208.21 45.3616C208.196 46.737 208.228 48.1124 208.257 49.4878C208.279 50.5507 208.595 50.861 209.671 50.9258C209.857 50.9329 210.043 50.9277 210.229 50.9101C212.021 50.7561 212.033 50.7561 212.046 48.943C212.046 47.715 212.086 46.4869 212.046 45.2611C212.019 44.4282 212.447 44.2161 213.155 44.2809C213.814 44.3412 214.683 44.0777 214.681 45.2209C214.681 47.2662 214.681 49.3114 214.681 51.3567L214.697 51.359Z" fill="#D7D7D7"/>
<path d="M145.121 51.2867C145.121 50.5074 145.092 49.7237 145.121 48.9466C145.294 45.1866 148.597 43.1413 152.079 44.4676C153.558 45.028 154.428 46.2539 154.768 47.8168C154.813 48.0245 154.557 48.4376 154.342 48.5358C153.388 48.9824 152.339 48.6207 151.741 47.7454C150.903 46.5196 150.004 46.3074 148.828 47.1046C148.561 47.2906 148.358 47.5531 148.245 47.857C147.497 50.072 147.55 52.3227 148.142 54.5555C148.384 55.4643 149.153 55.8774 149.982 55.9421C150.811 56.0069 151.458 55.5313 151.837 54.7654C152.254 53.9236 154.107 53.486 154.784 54.0956C154.836 54.1414 154.877 54.1983 154.905 54.262C154.932 54.3257 154.945 54.3947 154.943 54.464C154.392 56.344 153.074 58.5969 150.461 58.5255C149.117 58.4898 147.815 58.4607 146.71 57.4448C145.536 56.3641 145.231 54.9887 145.11 53.5373C145.047 52.8005 145.099 52.0525 145.099 51.3045L145.121 51.2867Z" fill="#D7D7D7"/>
<path d="M187.456 30.2321C187.456 31.9023 187.456 33.5813 187.456 35.2448C187.456 36.3277 187.355 36.4148 186.221 36.426C185.032 36.426 184.893 36.3233 184.877 35.218C184.877 34.2534 184.891 33.2859 184.919 32.3153C184.942 31.6299 184.695 31.2681 183.951 31.2882C180.922 31.3731 181.435 30.9377 181.444 33.7131C181.444 34.307 181.464 34.901 181.487 35.4994C181.522 36.4706 180.839 36.4126 180.191 36.4103C179.544 36.4081 178.91 36.3902 178.914 35.448C178.928 31.9201 178.928 28.3923 178.914 24.8644C178.914 24.0963 179.324 23.9154 179.976 23.9288C180.628 23.9422 181.379 23.8641 181.408 24.8688C181.437 25.8736 181.511 26.8784 181.509 27.8742C181.509 28.6468 181.85 28.9259 182.602 28.8946C184.969 28.7964 184.933 29.4863 184.897 26.6998C184.871 26.1789 184.878 25.6568 184.917 25.1368C184.96 24.7594 185.074 24.1141 185.253 24.0784C185.867 23.9689 186.496 23.9872 187.102 24.132C187.272 24.17 187.391 24.7617 187.398 25.1011C187.427 26.8092 187.411 28.5173 187.411 30.2366L187.456 30.2321Z" fill="#D7D7D7"/>
<path d="M124.019 30.0857C124.019 28.4133 124.019 26.7364 124.019 25.0707C124.019 24.028 124.126 23.9923 125.327 23.9543C126.134 23.9342 126.609 24.0928 126.535 25.0506C126.461 26.0085 126.52 26.982 126.513 27.9533C126.513 28.5919 126.775 28.8956 127.456 28.8866C130.645 28.8442 130.017 29.2216 130.074 26.4305C130.074 26.0599 130.074 25.687 130.074 25.3141C130.091 24.028 130.759 23.5279 131.98 24.0146C132.254 24.124 132.48 24.6979 132.487 25.0618C132.538 27.9957 132.534 30.9319 132.545 33.8659C132.545 34.2365 132.556 34.6072 132.556 34.9823C132.556 36.284 131.743 36.84 130.54 36.2885C130.3 36.1791 130.091 35.7258 130.091 35.4199C130.042 34.3839 130.062 33.3411 130.091 32.2939C130.116 31.6085 129.867 31.2445 129.146 31.2423C126.092 31.2423 126.524 30.8895 126.457 33.6671C126.443 34.2611 126.439 34.8572 126.473 35.4534C126.531 36.5252 125.746 36.3622 125.099 36.4157C124.373 36.476 123.978 36.2304 124.001 35.4199C124.032 33.6336 124.001 31.8474 124.001 30.0723L124.019 30.0857Z" fill="#D7D7D7"/>
<path d="M176.637 30.3939C176.597 31.1731 176.528 31.9568 176.523 32.7316C176.501 36.3979 172.454 37.3781 170.025 36.0451C169.65 35.8436 169.322 35.5669 169.061 35.2326C168.799 34.8982 168.61 34.5135 168.505 34.1026C167.639 31.3972 167.678 28.4844 168.617 25.8032C168.933 24.8944 169.646 24.4478 170.332 24.1821C172.909 23.1818 176.14 23.9588 176.525 27.1674C176.653 28.2325 176.637 29.3154 176.687 30.3894L176.637 30.3939ZM174.076 30.4653H174.063C174.063 29.5409 174.112 28.6143 174.047 27.6944C173.998 27.0044 172.774 25.9505 172.218 26.0063C171.517 26.08 170.744 27.0625 170.63 27.8551C170.406 29.3623 170.318 30.8516 170.612 32.3699C170.807 33.3836 171.607 34.3147 172.418 34.2544C173.229 34.1941 174.038 33.2452 174.072 32.2449C174.103 31.6509 174.076 31.057 174.076 30.4653Z" fill="#D7D7D7"/>
<path d="M208.888 30.2786V35.2958C208.888 36.3274 208.785 36.4122 207.606 36.4122C206.544 36.4122 206.394 36.2649 206.394 35.2958C206.394 32.8829 206.394 30.4677 206.394 28.0503C206.394 27.7176 206.351 27.3804 206.36 27.05C206.387 26.0385 205.715 26.1233 205.002 26.0876C204.204 26.0497 203.962 26.3578 203.931 27.1036C203.856 28.9568 203.744 30.8093 203.595 32.6611C203.54 33.253 203.403 33.8345 203.189 34.3893C202.528 36.1532 201.462 36.7137 199.615 36.381C198.965 36.2649 198.748 35.9344 199.097 35.3851C199.447 34.8358 199.909 34.3781 200.305 33.8646C200.61 33.4716 201.092 33.0853 201.15 32.6521C201.352 31.1517 201.426 29.6311 201.497 28.1173C201.549 27.041 201.538 25.9626 201.52 24.8841C201.52 24.2321 201.762 23.9374 202.441 23.9441C204.233 23.9649 206.026 23.9649 207.819 23.9441C208.614 23.9307 208.939 24.2009 208.914 25.0605C208.852 26.8043 208.894 28.5527 208.894 30.2987L208.888 30.2786Z" fill="#D7D7D7"/>
<path d="M142.767 36.405C142.056 36.4742 141.406 36.1482 141.182 35.168C141.055 34.6076 140.653 34.42 140.089 34.458C139.493 34.5077 138.894 34.5204 138.296 34.4959C137.4 34.449 136.81 34.6745 136.642 35.6927C136.53 36.3759 135.493 36.7042 134.583 36.4139C133.752 36.1504 134.099 35.5409 134.272 35.043C135.262 32.1693 136.275 29.3046 137.272 26.4332C137.403 26.087 137.492 25.7264 137.536 25.3592C137.624 24.4125 138.159 24.0195 139.067 23.9368C139.974 23.8542 140.187 24.37 140.425 25.0533C141.545 28.465 142.697 31.8679 143.835 35.2752C144.174 36.2777 144.042 36.4474 142.767 36.405ZM137.956 31.8009C138.404 31.85 138.91 31.9282 139.419 31.9527C140.017 31.9795 140.279 31.6089 140.091 31.0931C139.786 30.2714 139.369 29.4899 139 28.6906L138.675 28.7575L137.956 31.8009Z" fill="#D7D7D7"/>
<path d="M236.752 23.9549C237.424 23.8768 237.749 24.2028 237.947 24.9776C238.301 26.3552 238.863 27.6949 239.311 29.0592C240.017 31.167 240.703 33.2792 241.406 35.387C241.63 36.0345 241.447 36.3627 240.734 36.4253C239.553 36.528 239.06 36.2533 238.717 35.0856C238.578 34.6167 238.386 34.4001 237.877 34.4157C237.023 34.4581 236.165 34.4581 235.309 34.4604C234.702 34.4604 234.363 34.7238 234.211 35.3356C234.009 36.1596 232.625 36.7803 231.93 36.3315C231.706 36.1931 231.569 35.6616 231.657 35.3982C232.378 33.143 233.162 30.9079 233.929 28.6662C234.334 27.4761 234.776 26.2971 235.143 25.0937C235.468 24.0174 235.515 23.946 236.752 23.9549ZM236.58 28.684L236.232 28.7153C236.08 29.3852 236.008 30.0729 235.762 30.707C235.3 31.9395 235.262 31.9261 236.624 31.9507C236.808 31.9507 237.057 32.0378 237.164 31.9507C237.375 31.7765 237.696 31.4438 237.642 31.2808C237.342 30.4011 236.945 29.5482 236.58 28.684Z" fill="#D7D7D7"/>
<path d="M197.363 36.3762C196.729 36.4677 196.336 36.0926 196.135 35.4473C195.888 34.6614 195.398 34.293 194.537 34.4582C194.205 34.5116 193.867 34.5116 193.535 34.4582C192.496 34.3153 191.725 34.4984 191.434 35.6974C191.292 36.2802 189.565 36.6843 189.078 36.2735C188.906 36.1283 188.854 35.6684 188.946 35.4116C189.789 32.8327 190.685 30.2738 191.548 27.6972C191.821 26.8889 192.05 26.065 192.352 25.2678C192.621 24.5578 192.96 23.9281 193.921 23.9281C194.882 23.9281 195.167 24.598 195.407 25.3259C196.33 28.1542 197.247 30.9779 198.158 33.7973C198.297 34.2593 198.401 34.731 198.47 35.2084C198.629 36.2176 198.463 36.4052 197.363 36.3762ZM192.863 31.5086C192.758 31.8458 193.128 31.9887 193.589 31.9552C194.093 31.9217 194.86 32.1494 194.797 31.2608C194.711 30.5667 194.552 29.8835 194.324 29.2222C194.264 29.019 194.044 28.8605 193.896 28.6818C193.728 28.8515 193.47 28.9944 193.41 29.1954C193.208 29.8697 193.078 30.5619 192.863 31.5086Z" fill="#D7D7D7"/>
<path d="M211.376 30.088C211.376 28.4179 211.376 26.7388 211.376 25.0775C211.376 24.0951 211.549 23.9611 212.566 23.9299C213.337 23.9098 213.879 24.0527 213.814 25.0217C213.76 25.8702 213.863 26.7298 213.814 27.5805C213.765 28.4313 214.128 28.7126 214.934 28.6411C215.456 28.5996 215.981 28.5996 216.503 28.6411C218.345 28.7706 219.875 30.4095 219.918 32.274C219.969 34.5403 218.73 36.1524 216.684 36.3154C215.277 36.427 213.859 36.3779 212.443 36.398C211.629 36.398 211.365 36.0028 211.387 35.2057C211.439 33.4998 211.403 31.7894 211.403 30.0813L211.376 30.088ZM214.937 30.9253C213.866 30.865 213.78 30.9432 213.794 31.9949C213.794 32.2918 213.812 32.5888 213.816 32.888C213.832 34.2277 214.166 34.5001 215.508 34.3036C216.66 34.1384 217.406 33.3881 217.354 32.4503C217.303 31.5126 216.729 31.0548 215.495 30.932C215.311 30.9097 215.123 30.9253 214.937 30.9253Z" fill="#D7D7D7"/>
<path d="M161.826 52.698C161.826 54.2208 161.826 55.7436 161.826 57.2664C161.826 58.423 161.734 58.4945 160.524 58.4855C159.314 58.4766 159.199 58.3605 159.202 57.2508C159.202 54.5401 159.208 51.8295 159.22 49.1188C159.22 48.7459 159.186 48.3753 159.193 48.0024C159.208 47.1584 158.812 46.7699 157.96 46.8547C157.774 46.8748 157.588 46.8726 157.402 46.8815C156 46.9552 155.811 46.7274 155.854 45.3185C155.879 44.5527 156.201 44.2512 156.938 44.2535C159.403 44.2535 161.857 44.2356 164.315 44.2669C165.294 44.2803 165.449 44.5326 165.402 45.6423C165.355 46.752 165.198 46.9306 164.181 46.8681C161.736 46.7185 161.821 46.4707 161.819 49.2349V52.698H161.826Z" fill="#D7D7D7"/>
<path d="M126.693 52.7589C126.693 54.3576 126.713 55.9586 126.693 57.555C126.675 58.5241 126.615 58.4906 125.046 58.571C124.251 58.6112 124.071 58.2472 124.071 57.593C124.071 53.4251 124.064 49.2608 124.049 45.1003C124.049 44.5488 124.273 44.2943 124.847 44.2987C127.011 44.3188 129.174 44.2987 131.345 44.3188C132.403 44.3188 132.562 44.5109 132.539 45.4598C132.508 46.6812 132.293 46.9402 131.264 46.9402C130.108 46.9402 128.952 46.9402 127.795 46.9089C127.038 46.8866 126.706 47.2059 126.715 47.9628C126.736 49.5615 126.715 51.1602 126.715 52.7589H126.693Z" fill="#D7D7D7"/>
</svg>
